<?xml version="1.0" standalone="no"?><!DOCTYPE svg PUBLIC "-//W3C//DTD SVG 1.1//EN" "http://www.w3.org/Graphics/SVG/1.1/DTD/svg11.dtd"><svg class="icon" width="200px" height="200.00px" viewBox="0 0 1024 1024" version="1.1" xmlns="http://www.w3.org/2000/svg"><path d="M882.6 958.9L117.5 837.2c-59.6-9.5-86.6-79.9-48.6-126.8l487.9-601.7c38-46.9 112.5-35 134.1 21.3l277.2 723.4c21.6 56.4-25.9 114.9-85.5 105.5z" fill="#009145" /><path d="M383.9 782.2c-41.8 28.7-84.7 51.8-127.9 68.5l3.5 9.1 55.4 8.8c31.6-15.3 63-33.7 93.7-55-8.3-10.3-16.6-20.8-24.7-31.4zM416.3 758.6c8.1 10.6 16.4 21.1 24.7 31.4 61.2-46.9 119.2-104.9 171.3-171.3-14.3-3.1-28.7-6.5-43.1-10.1-47.1 57.9-98.8 108.6-152.9 150zM596.2 574c14.3 3.4 28.5 6.5 42.7 9.4 15.8-21.9 30.9-44.5 45.3-67.9 34.9-56.7 64.2-115.4 87.4-175.1l-21.9-57.1c-24.2 72-57.7 143-99.6 211.2-17 27.6-35 54.1-53.9 79.5z" fill="#005928" /><path d="M569.2 608.6c14.4 3.6 28.8 7 43.1 10.1 72.2 15.7 143.6 24.8 211.6 27.1 8.5-13.1 16.8-26.2 24.9-39.5-66.9-0.7-137.8-8.4-209.9-23-14.2-2.9-28.4-6-42.7-9.4-13.6-3.2-27.3-6.7-41-10.4-100.5-27.3-195.3-66-276-112.5l-25.5 31.5c84.9 49.6 184.9 90.8 291 119.6 8.2 2.3 16.4 4.4 24.5 6.5zM888.6 645.9l-6.6-17.2c-3.6 5.9-7.2 11.7-10.9 17.6 5.9-0.1 11.7-0.2 17.5-0.4zM441 790c-8.4-10.3-16.6-20.8-24.7-31.4-7.8-10.2-15.5-20.5-23.1-31-57-78.6-104.5-160.2-141.4-242.8l-28.1 34.7c36.8 78.8 82.8 156.6 137.2 231.6 7.6 10.5 15.3 20.8 23.1 31 8.1 10.6 16.4 21.1 24.7 31.5 22.8 28.2 46.4 55.3 70.8 81.1l46.5 7.4 8.3-8.3C502 861.5 470.8 826.7 441 790z" fill="#005928" /><path d="M769.6 787.9c37-45.6 70.9-93 101.5-141.6 3.7-5.9 7.3-11.7 10.9-17.6L863.7 581c-4.9 8.5-9.9 16.9-15 25.3-8 13.2-16.3 26.4-24.9 39.5-26.2 40-54.7 79.1-85.4 116.9-43 53-89.5 102.7-138.2 147.6l3.9 4.3 42.7 6.8c43.2-41.3 84.4-86.1 122.8-133.5z" fill="#005928" /></svg>