<?xml version="1.0" standalone="no"?><!DOCTYPE svg PUBLIC "-//W3C//DTD SVG 1.1//EN" "http://www.w3.org/Graphics/SVG/1.1/DTD/svg11.dtd"><svg class="icon" width="200px" height="200.00px" viewBox="0 0 1024 1024" version="1.1" xmlns="http://www.w3.org/2000/svg"><path d="M885.01925 941.423455l-42.756639 69.619901-42.756639-69.619901h85.513278z" fill="#06C7CA" /><path d="M914.387447 45.347951v35.760098H768.669365V45.347951a31.700377 31.700377 0 0 1 30.663853-32.391394h84.303999a31.786754 31.786754 0 0 1 30.75023 32.391394z" fill="#FF8875" /><path d="M914.30107 81.108049v57.181606h-72.383967L768.669365 138.203278V81.108049h145.631705z" fill="#FFDB93" /><path d="M915.078463 138.289655v754.071636l-73.16136-52.344491V138.289655h73.16136zM841.917103 138.289655v701.727145l-73.247738 52.344491V138.203278l73.247738 0.086377z" fill="#06C7CA" /><path d="M605.589497 644.20003v362.783605L108.921467 509.624588 605.589497 12.956557v631.243473z m-140.362704 23.149049V352.245605L307.675056 509.624588z" fill="#FFDB93" /><path d="M540.115694 186.228917h65.646557v25.913115h-65.646557zM540.115694 275.283655h65.646557v25.913114h-65.646557zM540.115694 364.252015h65.646557v25.913114h-65.646557zM540.115694 453.220375h65.646557v25.913115h-65.646557zM540.202071 542.275112h65.56018v25.913115h-65.56018zM540.202071 631.243473h65.56018v25.913114h-65.56018zM540.202071 720.211833h65.56018v25.913115h-65.56018zM540.202071 809.26657h65.56018v25.913115h-65.56018z" fill="#18252F" /><path d="M605.589497 1019.249176a12.956557 12.956557 0 0 1-9.155967-3.80059L99.765499 518.953309a12.956557 12.956557 0 0 1 0-17.966426L596.951792 3.80059a12.956557 12.956557 0 0 1 21.767017 9.155967v993.336062A12.956557 12.956557 0 0 1 605.589497 1019.249176zM127.233401 509.624588l465.572293 465.485916V44.225049z" fill="#18252F" /><path d="M465.226793 680.305636a12.956557 12.956557 0 0 1-9.155967-3.80059L298.519089 518.953309a12.956557 12.956557 0 0 1 0-18.311934l157.551737-157.551737a12.956557 12.956557 0 0 1 22.112524 9.155967v315.103474a12.956557 12.956557 0 0 1-12.956557 12.956557zM325.98699 509.624588l126.283246 126.455999V383.514097zM768.669365 905.317849a12.956557 12.956557 0 0 1-12.956557-12.956558V138.203278h25.913115v728.935915L834.4023 829.219669l15.029606 21.075999-73.247737 52.344492a12.956557 12.956557 0 0 1-7.514804 2.677689z" fill="#18252F" /><path d="M828.960546 138.289655h25.913114v701.727145h-25.913114zM928.03502 892.361291h-25.913114V138.203278h12.611049v-12.956557a13.647574 13.647574 0 0 1 13.302065 12.956557z" fill="#18252F" /><path d="M914.30107 151.246212H768.669365a12.956557 12.956557 0 0 1-12.956557-12.956557V81.108049h25.913115v44.138672h119.718589V81.108049h25.913115V138.203278a12.956557 12.956557 0 0 1-12.956557 13.042934z" fill="#18252F" /><path d="M914.30107 94.064606H768.669365a12.956557 12.956557 0 0 1-12.956557-12.956557V45.347951a44.570557 44.570557 0 0 1 43.188525-45.347951h84.303999a44.743311 44.743311 0 0 1 43.706787 45.261574v35.846475a12.956557 12.956557 0 0 1-12.611049 12.956557z m-132.675147-25.913114h119.718589V45.347951A18.74382 18.74382 0 0 0 883.637217 25.913115h-84.303999a18.916574 18.916574 0 0 0-17.27541 19.434836zM842.262611 1023.999914a12.956557 12.956557 0 0 1-11.056262-6.132771l-72.815852-118.682065a12.956557 12.956557 0 0 1 3.455082-17.27541l72.470344-52.689999a12.956557 12.956557 0 0 1 15.115983 0l73.16136 52.344491a12.956557 12.956557 0 0 1 3.541459 17.27541l-72.815852 118.682065a12.956557 12.956557 0 0 1-11.056262 6.478279zM786.9813 895.816373l55.454065 90.43677 55.454065-90.43677-55.972327-39.819819z" fill="#18252F" /><path d="M885.01925 954.380012h-85.513278l-0.777394-25.913114h86.290672v25.913114z" fill="#18252F" /></svg>