<?xml version="1.0" standalone="no"?><!DOCTYPE svg PUBLIC "-//W3C//DTD SVG 1.1//EN" "http://www.w3.org/Graphics/SVG/1.1/DTD/svg11.dtd"><svg class="icon" width="200px" height="200.00px" viewBox="0 0 1024 1024" version="1.1" xmlns="http://www.w3.org/2000/svg"><path d="M527.097051 182.264401c-88.78266 0-172.566296 16.596758-246.851786 45.691076-21.09588 43.091584-33.593439 92.681898-34.593244 145.671549-3.199375 170.366725 113.377856 310.739309 260.549112 313.538762 147.071275 2.799453 268.947471-133.074009 272.146846-303.440734 1.199766-61.687952-13.497364-119.476665-39.492287-168.167155-65.287249-21.295841-136.673306-33.293497-211.758641-33.293498z" fill="#EFD0C2" /><path d="M1002.90412 1023.800039l-262.048818-285.944151c-29.59422-32.293693-71.386057-50.6901-115.177505-50.6901H398.422183c-43.791447 0-85.583285 18.396407-115.177504 50.6901L21.09588 1023.800039h981.80824zM523.197813 0c-125.475493 0-241.752783 28.994337-337.434095 78.18473l97.181019 151.170474c72.185901-29.994142 153.769967-47.090803 240.253076-47.090803 77.184925 0 150.470611 13.597344 216.657684 37.792619l98.380785-152.970123C747.054091 24.695177 639.075181 0 523.197813 0z" fill="#F995B2" /><path d="M745.454403 228.655341S722.358914 336.534271 512 336.534271 250.551064 440.11404 250.551064 440.11404s-26.094903-131.674282 29.994142-215.75786c0 0 210.758836-97.181019 459.510252-6.49873l5.398945 10.797891z" fill="#282421" /><path d="M298.34173 723.65866L460.610037 886.026948c15.596954 15.596954 36.292912 24.195274 58.388596 24.195274s42.791642-8.598321 58.388596-24.195274l155.669596-155.669596c-8.998243-8.49834-18.796329-15.996876-29.394259-22.195665L551.592267 860.231986c-17.996485 17.996485-47.190783 17.996485-65.187268 0L329.635618 703.362624c-11.197813 5.498926-21.695763 12.297598-31.293888 20.296036z" fill="#FFFFFF" /></svg>