<?xml version="1.0" standalone="no"?><!DOCTYPE svg PUBLIC "-//W3C//DTD SVG 1.1//EN" "http://www.w3.org/Graphics/SVG/1.1/DTD/svg11.dtd"><svg class="icon" width="200px" height="199.80px" viewBox="0 0 1025 1024" version="1.1" xmlns="http://www.w3.org/2000/svg"><path d="M650.4 808.2c216-34.9 374.6-150.1 374.6-286.8 0-80.4-74.8-99.8-163.8-153.4-27.7-16.6-31-93.2-47.3-121.1-51-87.2-167-148.1-301.9-148.1-134.2 0-249.6 60.2-301 146.7-17 28.5-27.6 109.2-55.9 126.4C67.3 425.3 1 441.6 1 521.4 1 657.8 158.9 772.9 374.3 808l276.1 0.2z" fill="#663806" /><path d="M513 779.3c-147.9 0-267.7 64.9-267.7 145h535.4c0-80-119.8-145-267.7-145z" fill="#FEC401" /><path d="M595.4 874.1c0 14.7-11.9 26.6-26.6 26.6-14.7 0-26.6-11.9-26.6-26.6h-2.6c0 14.7-11.9 26.6-26.6 26.6-14.7 0-26.6-11.9-26.6-26.6h-2.6c0 14.7-11.9 26.6-26.6 26.6-14.7 0-26.6-11.9-26.6-26.6H428c0 16.1 13.1 29.2 29.2 29.2 13.1 0 24.2-8.7 27.9-20.6 3.7 11.9 14.8 20.6 27.9 20.6 13.1 0 24.2-8.7 27.9-20.6 3.7 11.9 14.8 20.6 27.9 20.6 16.1 0 29.2-13.1 29.2-29.2h-2.6z" fill="#FF8700" /><path d="M276 434.1l409.3-150.9c17.3 10.5 32.2 24.6 43.6 41.2 15.7 22.8 25 50.4 25 80.1v143.7c0 78-63.8 141.7-141.7 141.7h-28v101.4S572.5 805 515.9 805c-56.6 0-76.1-13.7-76.1-13.7V689.8h-22.1c-78 0-141.7-63.8-141.7-141.7v-114" fill="#EFD0C2" /><path d="M235.2 422.1c51.3 17.6 112.1 27.8 177.3 27.8 148.4 0 274.1-52.8 316.4-125.6 0 0 18.3-41.4-70.9-74.9S235.2 422.1 235.2 422.1z" fill="#663806" /></svg>