<?xml version="1.0" standalone="no"?><!DOCTYPE svg PUBLIC "-//W3C//DTD SVG 1.1//EN" "http://www.w3.org/Graphics/SVG/1.1/DTD/svg11.dtd"><svg class="icon" width="200px" height="200.00px" viewBox="0 0 1024 1024" version="1.1" xmlns="http://www.w3.org/2000/svg"><path d="M533 381.4c-13.5-2.6-11.3-47.7-18.4-63.2-27.1-58.6-109.8-76.3-164-53.1-145 61.9-89.7 220.2-144.5 335.2-38.1 80-132.3 101.3-206.1 130 72.7 25 146.9 58.6 225.2 57.7 23.2-0.3 47.1-3.7 70.3-10l18.1-5.5c6-1.9 12.1-4.2 17.9-6.6L349.6 758c31.9-15 61.3-35.2 84.8-58.9 54.2-54.7 78.6-131.9 89.7-210.3 4.4-31.5-7.1-53.5 19.7-71 13.5-8.9 27.3-17.7 40.8-26.6-17.1-3.4-34.3-6.6-51.6-9.8z" fill="#FB5A0C" /><path d="M419.4 621.8c-18.7 29.4-118.1 78.9-152.1 33.7-30.3-40.2 51-76 78.2-79-17.7-28.2-18.1-70-4.2-95.6 10.6-19.5 33.4-17.3 54.8 7.4 32.6 37.4 36.5 112.6 23.3 133.5z" fill="#FFFFFF" /><path d="M458.1 402.4c-12.3 8.7-29 5.5-37.4-7.1-8.4-12.6-5.3-29.8 6.9-38.6 12.3-8.7 29-5.5 37.6 7.1 8.2 12.6 5.2 29.9-7.1 38.6z" fill="#380B04" /><path d="M585.1 390.9c10.2 7.1 20.3 14.4 30.5 21.4 20 14 10.6 30.6 13.2 54.8 6.3 60.3 22.9 120.2 63.1 163.6 17.4 18.9 39.4 35 63.4 47.6l13.7 6.6c4.5 1.9 9 3.9 13.5 5.6l14 4.5c17.7 5.5 35.8 8.9 53.6 9.7 59.8 2.9 117.4-20.8 173.9-37.7-55.7-24-127.3-43-154.4-105.3-38.9-89.5 7.6-209.2-101.6-260.7-40.8-19.2-104.7-7.9-126.9 36-5.8 11.6-5.3 46.3-15.8 47.9-13.6 2-27 3.9-40.2 6z" fill="#FE8242" /><path d="M745.1 479.4c17.3-18.4 34.7-19.5 42.3-4.2 9.8 19.8 8.6 51.9-5.8 73.1 20.6 3.2 81.9 32.9 57.7 62.7-27.3 33.6-101.9-7.1-115.5-30.2-9.7-16.4-4.7-73.8 21.3-101.4z" fill="#FFFFFF" /><path d="M691.6 387c6.8-9.4 19.7-11.5 28.9-4.4s11.1 20.3 4.2 29.7c-6.8 9.4-19.7 11.3-28.9 4.4-9.1-7-11-20.2-4.2-29.7z" fill="#380B04" /></svg>