<?xml version="1.0" standalone="no"?><!DOCTYPE svg PUBLIC "-//W3C//DTD SVG 1.1//EN" "http://www.w3.org/Graphics/SVG/1.1/DTD/svg11.dtd"><svg class="icon" width="200px" height="200.00px" viewBox="0 0 1024 1024" version="1.1" xmlns="http://www.w3.org/2000/svg"><path d="M693.5 252.2c0 99.7-180.5 221.5-180.5 221.5S332.5 351.9 332.5 252.2 413.3 71.7 513 71.7s180.5 80.8 180.5 180.5z" fill="#55B7A8" /><path d="M513 483.4l-4.5-3c-0.5-0.3-46.2-31.3-91.3-74.2-61.5-58.5-92.7-110.3-92.7-153.9 0-103.9 84.6-188.5 188.5-188.5s188.5 84.6 188.5 188.5c0 43.6-31.2 95.4-92.7 153.9-45.1 42.9-90.8 73.9-91.3 74.2l-4.5 3z m0-403.7c-95.1 0-172.5 77.4-172.5 172.5 0 48.7 47.7 104.3 87.8 142.3 36 34.2 72.3 60.7 84.7 69.4 12.4-8.8 48.9-35.3 84.9-69.6 40-38 87.6-93.6 87.6-142.2 0-95-77.4-172.4-172.5-172.4z" fill="#0A0408" /><path d="M693.5 770.9c0-99.7-180.5-221.5-180.5-221.5S332.5 671.2 332.5 770.9 413.3 951.4 513 951.4s180.5-80.8 180.5-180.5z" fill="#EBB866" /><path d="M513 959.4c-103.9 0-188.5-84.6-188.5-188.5 0-43.6 31.2-95.4 92.7-153.9 45.1-42.9 90.8-73.9 91.3-74.2l4.5-3 4.5 3c0.5 0.3 46.2 31.3 91.3 74.2 61.5 58.5 92.7 110.3 92.7 153.9 0 103.9-84.6 188.5-188.5 188.5z m0-400.3c-12.4 8.8-48.9 35.3-84.9 69.6-40 38-87.6 93.6-87.6 142.2 0 95.1 77.4 172.5 172.5 172.5S685.5 866 685.5 770.9c0-48.6-47.6-104.2-87.6-142.2-36-34.3-72.5-60.8-84.9-69.6z" fill="#0A0408" /><path d="M575.5 901.7c6.3-2.9 12.5-6.2 18.3-9.9" fill="#E7B43B" /><path d="M578.8 909l-6.6-14.6c6-2.7 11.8-5.9 17.3-9.4l8.6 13.5c-6.2 3.9-12.7 7.5-19.3 10.5z" fill="#0A0408" /><path d="M454.3 903.4c18 7.6 37.9 11.9 58.7 11.9 11.1 0 22-1.2 32.5-3.5" fill="#E7B43B" /><path d="M513 923.2c-21.4 0-42.2-4.2-61.8-12.5l6.2-14.7c17.6 7.4 36.3 11.2 55.6 11.2 10.4 0 20.7-1.1 30.8-3.3l3.4 15.6c-11.2 2.5-22.7 3.7-34.2 3.7z" fill="#0A0408" /><path d="M548.9 522.7c-3-4.2-4.6-6.6-4.7-6.7l-3-4.5 3-4.5c0.1-0.1 1.7-2.5 4.7-6.7l13 9.3c-0.5 0.7-0.9 1.3-1.4 1.9 0.4 0.6 0.9 1.2 1.4 1.9l-13 9.3zM772.5 700h-0.2c-4.7 0-9.5-0.4-14.4-1.1l2.4-15.8c4.1 0.6 8.1 0.9 12 0.9h2.6l0.2 16h-2.6z m19.4-1l-1.6-15.9c5.1-0.5 10.2-1.3 15.2-2.2l3.1 15.7c-5.5 1-11.1 1.9-16.7 2.4z m-50.7-3.9c-5.2-1.6-10.5-3.5-15.9-5.8l6.3-14.7c4.8 2.1 9.6 3.8 14.2 5.2l-4.6 15.3z m83.6-2.5l-4.4-15.4c4.9-1.4 9.8-3.1 14.5-4.9l5.8 14.9c-5.2 2.1-10.6 3.9-15.9 5.4zM710.2 682c-4.7-2.5-9.5-5.4-14.3-8.4l8.6-13.5c4.5 2.9 9 5.5 13.3 7.9l-7.6 14z m145.8-1.5l-7.1-14.3c4.6-2.3 9.1-4.8 13.4-7.4l8.4 13.6c-4.8 2.9-9.7 5.6-14.7 8.1z m-173.7-16.2c-4.3-3.1-8.7-6.4-13.1-9.9l10-12.5c4.2 3.3 8.4 6.5 12.5 9.5l-9.4 12.9z m202.2-1.3l-9.5-12.9c4.1-3 8.1-6.3 11.9-9.7l10.6 12c-4.1 3.8-8.5 7.3-13 10.6z m-228-19.1c-4-3.5-8.1-7.1-12.2-10.9l10.9-11.7c3.9 3.6 7.9 7.2 11.8 10.5l-10.5 12.1z m253-3.1l-11.6-11c3.5-3.7 6.9-7.6 10-11.6l12.6 9.9c-3.5 4.4-7.2 8.7-11 12.7z m-276.9-19.1c-3.8-3.7-7.6-7.6-11.4-11.6l11.5-11.1c3.7 3.9 7.5 7.7 11.1 11.3l-11.2 11.4z m297.6-7.2l-13.4-8.8c2.8-4.3 5.4-8.7 7.8-13.2l14.1 7.5c-2.5 5-5.4 9.9-8.5 14.5zM610 598.3c-3.6-3.9-7.2-8-10.8-12.1l12-10.5c3.5 4 7.1 8 10.6 11.8L610 598.3zM946 585l-14.7-6.2c2-4.7 3.8-9.5 5.3-14.4l15.2 4.9c-1.7 5.3-3.6 10.6-5.8 15.7z m-357.4-11.2c-3.5-4.1-6.9-8.3-10.3-12.5l12.4-10.1c3.3 4.1 6.7 8.3 10.1 12.3l-12.2 10.3z m367.6-20.7l-15.6-3.5c1.1-5 2-10 2.7-15.1l15.9 2.1c-0.7 5.6-1.7 11.1-3 16.5z m-388-4.5c-3.3-4.3-6.6-8.6-9.8-12.9l12.8-9.6c3.1 4.2 6.4 8.5 9.6 12.7l-12.6 9.8zM960.7 520l-16-0.7c0.1-2.6 0.2-5.2 0.2-7.7s-0.1-5.1-0.2-7.6l16-0.7c0.1 2.7 0.2 5.5 0.2 8.3 0 2.8-0.1 5.6-0.2 8.4z m-389.4-23.2l-12.8-9.6c3.2-4.3 6.5-8.6 9.8-12.9l12.6 9.8c-3.3 4.3-6.5 8.5-9.6 12.7z m372.1-8.1c-0.7-5-1.6-10.1-2.7-15.1l15.6-3.5c1.2 5.4 2.2 11 2.9 16.5l-15.8 2.1z m-352.6-17l-12.4-10.1c3.4-4.2 6.9-8.4 10.3-12.5l12.2 10.3c-3.4 4-6.8 8.1-10.1 12.3z m345.8-12.9c-1.6-4.8-3.3-9.7-5.3-14.4l14.7-6.2c2.2 5.1 4.1 10.4 5.8 15.7l-15.2 4.9z m-325.3-11.5l-12-10.6c3.6-4.1 7.3-8.2 10.8-12.1l11.8 10.8c-3.5 3.9-7.1 7.9-10.6 11.9z m313.4-16.7c-2.4-4.5-5-8.9-7.8-13.2l13.4-8.7c3 4.7 5.9 9.5 8.5 14.4l-14.1 7.5z m-291.9-6.7l-11.5-11.1c3.8-4 7.7-7.9 11.4-11.6l11.2 11.4c-3.7 3.7-7.4 7.5-11.1 11.3zM908 405c-3.1-4-6.5-7.9-10-11.6l11.7-11c3.8 4.1 7.5 8.3 10.9 12.7L908 405z m-252.7-3.3L644.5 390c4.1-3.8 8.2-7.4 12.2-10.9l10.5 12.1c-4 3.4-7.9 6.9-11.9 10.5z m231.7-19c-3.8-3.4-7.8-6.6-11.9-9.7l9.5-12.8c4.5 3.3 8.8 6.9 13 10.6L887 382.7z m-207.8-1.5l-10-12.5c4.4-3.5 8.8-6.8 13.1-9.9l9.3 13c-4 2.9-8.2 6-12.4 9.4z m183.2-16.8c-4.3-2.7-8.8-5.2-13.4-7.4l7.1-14.3c5 2.5 9.9 5.2 14.7 8.1l-8.4 13.6zM704.6 363l-8.6-13.5c4.8-3.1 9.6-5.9 14.3-8.4l7.6 14.1c-4.3 2.3-8.8 4.9-13.3 7.8zM835 350.8c-4.7-1.8-9.6-3.5-14.5-4.9l4.5-15.4c5.3 1.6 10.7 3.4 15.9 5.4l-5.9 14.9z m-103.2-2.4l-6.3-14.7c5.4-2.3 10.7-4.3 15.9-5.8l4.6 15.3c-4.6 1.4-9.4 3.2-14.2 5.2z m73.8-6.2c-5-1-10.1-1.7-15.2-2.3l1.7-15.9c5.5 0.6 11.1 1.4 16.6 2.5l-3.1 15.7z m-45.1-2.3l-2.3-15.8c4.8-0.7 9.6-1.1 14.2-1.1h3l-0.3 16h-2.8c-3.8 0-7.8 0.3-11.8 0.9z" fill="#0A0408" /><path d="M253.6 692c99.7 0 221.5-180.5 221.5-180.5S353.3 331 253.6 331 73.1 411.9 73.1 511.5 154 692 253.6 692z" fill="#FFFFFF" /><path d="M253.6 700c-103.9 0-188.5-84.6-188.5-188.5S149.7 323 253.6 323c43.6 0 95.4 31.2 153.9 92.7 42.9 45.1 73.9 90.8 74.2 91.3l3 4.5-3 4.5c-0.3 0.5-31.3 46.2-74.2 91.3-58.4 61.5-110.2 92.7-153.9 92.7z m0-361c-95.1 0-172.5 77.4-172.5 172.5S158.5 684 253.6 684c48.7 0 104.3-47.7 142.3-87.8 34.2-36 60.7-72.3 69.4-84.7-8.8-12.4-35.3-48.9-69.6-84.9-37.9-39.9-93.4-87.6-142.1-87.6z" fill="#0A0408" /><path d="M551.3 534.6h-1c-12.5 0-22.6-10.1-22.6-22.6v-1c0-12.5 10.1-22.6 22.6-22.6h1c12.5 0 22.6 10.1 22.6 22.6v1c0 12.5-10.1 22.6-22.6 22.6z" fill="#DC444A" /><path d="M551.3 542.6h-1c-16.8 0-30.6-13.7-30.6-30.6v-1c0-16.8 13.7-30.6 30.6-30.6h1c16.8 0 30.6 13.7 30.6 30.6v1c0 16.9-13.7 30.6-30.6 30.6z m-0.9-46.1c-8 0-14.6 6.5-14.6 14.6v1c0 8 6.5 14.6 14.6 14.6h1c8 0 14.6-6.5 14.6-14.6v-1c0-8-6.5-14.6-14.6-14.6h-1z" fill="#0A0408" /></svg>