<?xml version="1.0" standalone="no"?><!DOCTYPE svg PUBLIC "-//W3C//DTD SVG 1.1//EN" "http://www.w3.org/Graphics/SVG/1.1/DTD/svg11.dtd"><svg class="icon" width="200px" height="200.00px" viewBox="0 0 1024 1024" version="1.1" xmlns="http://www.w3.org/2000/svg"><path d="M401.9 584.7h16v16h-16zM385.9 600.7h-16v-16h16v16z m-31.9 0h-16v-16h16v16z m-32 0h-16v-16h16v16z m-32 0h-16v-16h16v16z m-32 0h-16v-16h16v16z m-32 0h-16v-16h16v16z m-31.9 0h-16v-16h16v16zM146.1 584.7h16v16h-16zM162.1 569h-16v-15.7h16V569z m0-31.5h-16v-15.7h16v15.7z m0-31.5h-16v-15.7h16V506z m0-31.5h-16v-15.7h16v15.7z m0-31.5h-16v-15.7h16V443z m0-31.5h-16v-15.7h16v15.7z m0-31.5h-16v-15.7h16V380z m0-31.5h-16v-15.7h16v15.7z m0-31.5h-16v-15.7h16V317z m0-31.4h-16v-15.7h16v15.7zM146.1 238.1h16v16h-16zM385.9 254.1h-16v-16h16v16z m-31.9 0h-16v-16h16v16z m-32 0h-16v-16h16v16z m-32 0h-16v-16h16v16z m-32 0h-16v-16h16v16z m-32 0h-16v-16h16v16z m-31.9 0h-16v-16h16v16zM401.9 238.1h16v16h-16zM417.9 569h-16v-15.7h16V569z m0-31.5h-16v-15.7h16v15.7z m0-31.5h-16v-15.7h16V506z m0-31.5h-16v-15.7h16v15.7z m0-31.5h-16v-15.7h16V443z m0-31.5h-16v-15.7h16v15.7z m0-31.5h-16v-15.7h16V380z m0-31.5h-16v-15.7h16v15.7z m0-31.5h-16v-15.7h16V317z m0-31.4h-16v-15.7h16v15.7zM860.1 682.9h16v16h-16zM844.2 698.9h-16v-16h16v16z m-32 0h-16v-16h16v16z m-32 0h-16v-16h16v16z m-32 0h-16v-16h16v16z m-32 0h-16v-16h16v16z m-31.9 0h-16v-16h16v16z m-32 0h-16v-16h16v16zM604.3 682.9h16v16h-16zM620.3 667.1h-16v-15.7h16v15.7z m0-31.4h-16V620h16v15.7z m0-31.5h-16v-15.7h16v15.7z m0-31.5h-16V557h16v15.7z m0-31.5h-16v-15.7h16v15.7z m0-31.5h-16V494h16v15.7z m0-31.5h-16v-15.7h16v15.7z m0-31.5h-16V431h16v15.7z m0-31.5h-16v-15.7h16v15.7z m0-31.5h-16V368h16v15.7zM604.3 336.2h16v16h-16zM844.2 352.2h-16v-16h16v16z m-32 0h-16v-16h16v16z m-32 0h-16v-16h16v16z m-32 0h-16v-16h16v16z m-32 0h-16v-16h16v16z m-31.9 0h-16v-16h16v16z m-32 0h-16v-16h16v16zM860.1 336.2h16v16h-16zM876.1 667.1h-16v-15.7h16v15.7z m0-31.4h-16V620h16v15.7z m0-31.5h-16v-15.7h16v15.7z m0-31.5h-16V557h16v15.7z m0-31.5h-16v-15.7h16v15.7z m0-31.5h-16V494h16v15.7z m0-31.5h-16v-15.7h16v15.7z m0-31.5h-16V431h16v15.7z m0-31.5h-16v-15.7h16v15.7z m0-31.5h-16V368h16v15.7z" fill="#0A0408" /><path d="M246.9 107.8h531.6v531.6H246.9z" fill="#FFFFFF" /><path d="M786.5 647.4H238.9V99.8h547.6v547.6z m-531.6-16h515.6V115.8H254.9v515.6z" fill="#0A0408" /><path d="M305.1 166h415.1v415.1H305.1z" fill="#55B7A8" /><path d="M389.9 238.2h195.3v16H389.9zM384.6 338.8h256.2v16H384.6zM384.6 441.2h256.2v16H384.6z" fill="#0A0408" /><path d="M868.8 918H156.5l-50-415.4h812.3z" fill="#FFFFFF" /><path d="M875.9 926H149.4L97.5 494.6h830.4l-52 431.4z m-712.3-16h698.1l48.1-399.4H115.5L163.6 910z" fill="#0A0408" /><path d="M809.6 866.5H215.8L174.1 554h677.2z" fill="#F4BE6F" /><path d="M154.1 639.7h154.3v16H154.1zM154.1 717.9h258.3v16H154.1z" fill="#FFFFFF" /><path d="M842.7 318.8h50.9v50.9h-50.9z" fill="#DC444A" /><path d="M901.6 377.7h-66.9v-66.9h66.9v66.9z m-50.9-16h34.9v-34.9h-34.9v34.9z" fill="#0A0408" /><path d="M128.6 220.8h50.9v50.9h-50.9z" fill="#DC444A" /><path d="M187.5 279.7h-66.9v-66.9h66.9v66.9z m-50.9-16h34.9v-34.9h-34.9v34.9z" fill="#0A0408" /></svg>