<?xml version="1.0" standalone="no"?><!DOCTYPE svg PUBLIC "-//W3C//DTD SVG 1.1//EN" "http://www.w3.org/Graphics/SVG/1.1/DTD/svg11.dtd"><svg class="icon" width="200px" height="200.00px" viewBox="0 0 1024 1024" version="1.1" xmlns="http://www.w3.org/2000/svg"><path d="M548.1 455.7h-72l-36 39.8 36 39.9h72l36-39.9z" fill="#DC444A" /><path d="M551.7 543.4h-79.1l-43.2-47.9 43.2-47.9h79.1l43.2 47.9-43.2 47.9z m-72-16h64.9l28.8-31.9-28.8-31.9h-64.9l-28.8 31.9 28.8 31.9z" fill="#0A0408" /><path d="M512.1 899.4l102.5-110.5-64.4-253.6h-76.1l-64.5 253.6z" fill="#FFFFFF" /><path d="M512.1 911.2l-111.3-120 67.1-263.8h88.5l67.1 263.8-111.4 120z m-93.7-124.6l93.7 101 93.7-101-61.9-243.4h-63.6l-61.9 243.4z" fill="#0A0408" /><path d="M512.1 843.5l72.4-78L539 586.6h-53.7l-45.5 178.9z" fill="#DC444A" /><path d="M512.1 240.3m-167.3 0a167.3 167.3 0 1 0 334.6 0 167.3 167.3 0 1 0-334.6 0Z" fill="#EBB866" /><path d="M512.1 415.5c-96.6 0-175.3-78.6-175.3-175.3S415.5 65 512.1 65c96.6 0 175.3 78.6 175.3 175.3s-78.6 175.2-175.3 175.2z m0-334.5c-87.8 0-159.3 71.4-159.3 159.3s71.4 159.3 159.3 159.3c87.8 0 159.3-71.4 159.3-159.3S599.9 81 512.1 81z" fill="#0A0408" /><path d="M880.3 950H143.9V645.6c0-61.2 116.2-144.2 177.4-144.2L512 774.7l190.7-273.3c61.2 0 177.4 82.9 177.4 144.2V950z" fill="#FFFFFF" /><path d="M888.3 958H135.9V645.6c0-43.4 48.2-85.4 68.9-101.4 39.9-30.9 85.7-50.8 116.6-50.8h4.2l186.6 267.3 186.6-267.3h4.2c30.9 0 76.7 19.9 116.6 50.8 20.7 16 68.9 57.9 68.9 101.4V958z m-736.4-16h720.4V645.6c0-25.2-23.4-58.4-62.6-88.7-35.5-27.4-75.2-45.6-102.7-47.3L512.1 788.8 317.3 509.6c-27.5 1.7-67.2 19.9-102.7 47.3-39.2 30.3-62.6 63.5-62.6 88.7V942z" fill="#0A0408" /><path d="M441.2 896.3H209.6V704.8c0-38.5 31.2-90.7 69.8-90.7h45.3l116.6 172v110.2zM574.6 896.3h231.7V704.8c0-38.5-31.2-90.7-69.8-90.7h-45.3L574.6 786v110.3z" fill="#55B7A8" /><path d="M520.1 930.4h-16v-15.2h16v15.2z m0-31.2h-16v-16h16v16z m0-32h-16v-16h16v16z m0-32h-16v-16h16v16z m0-32h-16v-16h16v16z m0-32h-16v-16h16v16z" fill="#0A0408" /></svg>