<?xml version="1.0" standalone="no"?><!DOCTYPE svg PUBLIC "-//W3C//DTD SVG 1.1//EN" "http://www.w3.org/Graphics/SVG/1.1/DTD/svg11.dtd"><svg class="icon" width="200px" height="200.00px" viewBox="0 0 1024 1024" version="1.1" xmlns="http://www.w3.org/2000/svg"><path d="M858.5 933.3h-24v-16h16v3.9h8v12.1z m-40 0h-16v-16h16v16z m-32 0h-16v-16h16v16z m-32 0h-16v-16h16v16z m-32 0h-16v-16h16v16z m-32 0h-16v-16h16v16z m-32 0h-16v-16h16v16z m-32 0h-16v-16h16v16z m-32 0h-16v-16h16v16z m-32 0h-16v-16h16v16z m-32 0h-16v-16h16v16z m-32 0h-16v-16h16v16z m-32 0h-16v-16h16v16z m-32 0h-16v-16h16v16z m-32 0h-16v-16h16v16z m-32 0h-16v-16h16v16z m-32 0h-16v-16h16v16z m-32 0h-16v-16h16v16z m-32 0h-16v-16h16v16z m-32 0h-16v-16h16v16z m-32 0h-16v-16h16v16z m-32 0H165v-18.5h16v10.5h-2.5v8z m680-28.1h-16v-16h16v16zM181 898.8h-16v-16h16v16z m677.5-25.6h-16v-16h16v16zM181 866.8h-16v-16h16v16z m677.5-25.6h-16v-16h16v16zM181 834.8h-16v-16h16v16z m677.5-25.6h-16v-16h16v16zM181 802.8h-16v-16h16v16z m677.5-25.6h-16v-16h16v16zM181 770.8h-16v-16h16v16z m677.5-25.6h-16v-16h16v16zM181 738.8h-16v-16h16v16z m677.5-25.6h-16v-16h16v16zM181 706.8h-16v-16h16v16z m677.5-25.6h-16v-16h16v16zM181 674.8h-16v-16h16v16z m677.5-25.6h-16v-16h16v16zM181 642.8h-16v-16h16v16z m677.5-25.6h-16v-16h16v16zM181 610.8h-16v-16h16v16z m677.5-25.6h-16v-16h16v16zM181 578.8h-16v-16h16v16z m677.5-25.6h-16v-16h16v16zM181 546.8h-16v-16h16v16z m677.5-25.6h-16v-16h16v16zM181 514.8h-16v-16h16v16z m677.5-25.6h-16v-16h16v16zM181 482.8h-16v-16h16v16z m677.5-25.6h-16v-16h16v16zM181 450.8h-16v-16h16v16z m677.5-25.6h-16v-16h16v16zM181 418.8h-16v-16h16v16z m677.5-25.6h-16v-16h16v16zM181 386.8h-16v-16h16v16z m677.5-25.6h-16v-16h16v16zM181 354.8h-16v-16h16v16z m677.5-25.6h-16v-16h16v16zM181 322.8h-16v-16h16v16z m677.5-25.6h-16v-16h16v16zM181 290.8h-16v-16h16v16z m677.5-25.6h-16v-16h16v16zM181 258.8h-16v-16h16v16z m677.5-25.6h-16v-16h16v16zM181 226.8h-16v-16h16v16z m677.5-25.6h-16v-16h16v16zM181 194.8h-16v-16h16v16z m677.5-25.6h-16v-16h16v16zM181 162.8h-16v-16h16v16z m677.5-25.6h-16v-16h16v16zM181 130.8h-16v-16h16v16z m677.5-25.6h-16v-8.4h0.4v-8h15.6v16.4z m-31.6-0.5h-16v-16h16v16z m-32 0h-16v-16h16v16z m-32 0h-16v-16h16v16z m-32 0h-16v-16h16v16z m-32 0h-16v-16h16v16z m-32 0h-16v-16h16v16z m-32 0h-16v-16h16v16z m-32 0h-16v-16h16v16z m-32 0h-16v-16h16v16z m-32 0h-16v-16h16v16z m-32 0h-16v-16h16v16z m-32 0h-16v-16h16v16z m-32 0h-16v-16h16v16z m-32 0h-16v-16h16v16z m-32 0h-16v-16h16v16z m-32 0h-16v-16h16v16z m-32 0h-16v-16h16v16z m-32 0h-16v-16h16v16z m-32 0h-16v-16h16v16z m-32 0h-16v-16h16v16z m-32 0H173v-5.9h-8V88.7h21.9v16z" fill="#0A0408" /><path d="M261.7 193.2h500.2v228.9H261.7z" fill="#EBB866" /><path d="M769.8 430.2H253.7v-245h516.2v245z m-500.1-16h484.2v-213H269.7v213z" fill="#0A0408" /><path d="M261.7 496.3h112.4v129.4H261.7z" fill="#55B7A8" /><path d="M382.1 633.7H253.7V488.3h128.4v145.4z m-112.4-16h96.4V504.3h-96.4v113.4z" fill="#0A0408" /><path d="M455.5 496.3h112.4v129.4H455.5z" fill="#55B7A8" /><path d="M576 633.7H447.5V488.3H576v145.4z m-112.5-16H560V504.3h-96.4v113.4z" fill="#0A0408" /><path d="M261.7 709.9h112.4v129.4H261.7z" fill="#55B7A8" /><path d="M382.1 847.3H253.7V701.9h128.4v145.4z m-112.4-16h96.4V717.9h-96.4v113.4z" fill="#0A0408" /><path d="M455.5 709.9h112.4v129.4H455.5z" fill="#55B7A8" /><path d="M576 847.3H447.5V701.9H576v145.4z m-112.5-16H560V717.9h-96.4v113.4z" fill="#0A0408" /><path d="M649.4 496.3h112.4v342.9H649.4z" fill="#55B7A8" /><path d="M769.8 847.3H641.4v-359h128.4v359z m-112.4-16h96.4v-327h-96.4v327zM261.7 256.3h78.5v16h-78.5zM261.7 333h139.7v16H261.7z" fill="#0A0408" /><path d="M147.3 71h51.4v51.4h-51.4z" fill="#DC444A" /><path d="M206.7 130.5h-67.4V63h67.4v67.5z m-51.4-16h35.4V79h-35.4v35.5z" fill="#0A0408" /><path d="M824.8 71h51.4v51.4h-51.4z" fill="#DC444A" /><path d="M884.2 130.5h-67.4V63h67.4v67.5z m-51.4-16h35.4V79h-35.4v35.5z" fill="#0A0408" /><path d="M147.3 899.6h51.4V951h-51.4z" fill="#DC444A" /><path d="M206.7 959h-67.4v-67.4h67.4V959z m-51.4-16h35.4v-35.4h-35.4V943z" fill="#0A0408" /><path d="M824.8 899.6h51.4V951h-51.4z" fill="#DC444A" /><path d="M884.2 959h-67.4v-67.4h67.4V959z m-51.4-16h35.4v-35.4h-35.4V943z" fill="#0A0408" /></svg>