<?xml version="1.0" standalone="no"?><!DOCTYPE svg PUBLIC "-//W3C//DTD SVG 1.1//EN" "http://www.w3.org/Graphics/SVG/1.1/DTD/svg11.dtd"><svg class="icon" width="200px" height="200.00px" viewBox="0 0 1024 1024" version="1.1" xmlns="http://www.w3.org/2000/svg"><path d="M71.2 737.7h180.9v180.9H71.2z" fill="#FFFFFF" /><path d="M260.1 926.6H63.2V729.7h196.9v196.9z m-180.9-16h164.9V745.7H79.2v164.9z" fill="#0A0408" /><path d="M422.1 737.7H603v180.9H422.1z" fill="#FFFFFF" /><path d="M611 926.6H414.1V729.7H611v196.9z m-180.9-16H595V745.7H430.1v164.9z" fill="#0A0408" /><path d="M771.9 737.7h180.9v180.9H771.9z" fill="#FFFFFF" /><path d="M960.8 926.6H763.9V729.7h196.9v196.9z m-180.9-16h164.9V745.7H779.9v164.9z" fill="#0A0408" /><path d="M504.5 397.1h16v333.5h-16zM153.6 732.6h16v8h-16zM169.6 716.2h-16v-16.3h16v16.3z m0-32.7h-16v-16.3h16v16.3z m0-32.7h-16v-16.3h16v16.3z m0-32.7h-16v-16.3h16v16.3z m0-32.6h-16v-16.3h16v16.3z m0-32.7h-16v-16.3h16v16.3zM153.6 504.1h16v16h-16z" fill="#0A0408" /><path d="M840 520.1h-16v-16h16v16z m-31.9 0h-16v-16h16v16z m-32 0h-16v-16h16v16z m-31.9 0h-16v-16h16v16z m-31.9 0h-16v-16h16v16z m-31.9 0h-16v-16h16v16z m-31.9 0h-16v-16h16v16z m-32 0h-16v-16h16v16z m-31.9 0h-16v-16h16v16z m-31.9 0h-16v-16h16v16z m-31.9 0h-16v-16h16v16z m-32 0h-16v-16h16v16z m-31.9 0h-16v-16h16v16z m-31.9 0h-16v-16h16v16z m-31.9 0h-16v-16h16v16z m-31.9 0h-16v-16h16v16z m-32 0h-16v-16h16v16z m-31.9 0h-16v-16h16v16z m-31.9 0h-16v-16h16v16z m-31.9 0h-16v-16h16v16z m-31.9 0h-16v-16h16v16zM855.9 504.1h16v16h-16zM871.9 716.2h-16v-16.3h16v16.3z m0-32.7h-16v-16.3h16v16.3z m0-32.7h-16v-16.3h16v16.3z m0-32.7h-16v-16.3h16v16.3z m0-32.6h-16v-16.3h16v16.3z m0-32.7h-16v-16.3h16v16.3zM855.9 732.6h16v8h-16z" fill="#0A0408" /><path d="M655.6 216.7c0 79-143 184.8-143 184.8s-143-105.8-143-184.8 64-143 143-143 143 64 143 143z" fill="#EBB866" /><path d="M512.5 411.5l-4.8-3.5c-6-4.4-146.3-109.2-146.3-191.3 0-83.3 67.8-151 151-151 83.3 0 151 67.8 151 151 0 82.1-140.3 186.8-146.3 191.3l-4.6 3.5z m0-329.8c-74.5 0-135 60.6-135 135 0 30.2 23.9 70.4 69.2 116.4 27.4 27.8 55 50 65.8 58.3 10.8-8.4 38.6-30.6 66-58.5 45.2-45.9 69.1-86.2 69.1-116.3 0-74.3-60.6-134.9-135.1-134.9z" fill="#0A0408" /><path d="M116.7 783.2h89.9v89.9h-89.9z" fill="#55B7A8" /><path d="M467.6 783.2h89.9v89.9h-89.9zM819 783.2h89.9v89.9H819z" fill="#4EB3A6" /><path d="M836.7 486.6h50.9v50.9h-50.9z" fill="#DC444A" /><path d="M895.6 545.5h-66.9v-66.9h66.9v66.9z m-50.9-16h34.9v-34.9h-34.9v34.9z" fill="#0A0408" /><path d="M130 486.6h50.9v50.9H130z" fill="#DC444A" /><path d="M188.9 545.5H122v-66.9h66.9v66.9z m-50.9-16h34.9v-34.9H138v34.9z" fill="#0A0408" /></svg>