<?xml version="1.0" standalone="no"?><!DOCTYPE svg PUBLIC "-//W3C//DTD SVG 1.1//EN" "http://www.w3.org/Graphics/SVG/1.1/DTD/svg11.dtd"><svg class="icon" width="200px" height="200.00px" viewBox="0 0 1024 1024" version="1.1" xmlns="http://www.w3.org/2000/svg"><path d="M135.3 198.6h752.6V744H135.3z" fill="#FFFFFF" /><path d="M879.9 736h16v16h-16zM864.2 752h-15.7v-16h15.7v16z m-31.3 0h-15.7v-16h15.7v16z m-31.4 0h-15.7v-16h15.7v16z m-31.3 0h-15.7v-16h15.7v16z m-31.3 0h-15.7v-16h15.7v16z m-31.4 0h-15.7v-16h15.7v16z m-31.3 0h-15.7v-16h15.7v16z m-31.4 0h-15.7v-16h15.7v16z m-31.3 0h-15.7v-16h15.7v16z m-31.4 0h-15.7v-16h15.7v16z m-31.3 0h-15.7v-16h15.7v16z m-31.3 0h-15.7v-16h15.7v16z m-31.4 0h-15.7v-16h15.7v16z m-31.3 0h-15.7v-16h15.7v16z m-31.4 0h-15.7v-16h15.7v16z m-31.3 0h-15.7v-16h15.7v16z m-31.4 0H347v-16h15.7v16z m-31.3 0h-15.7v-16h15.7v16z m-31.4 0h-15.7v-16H300v16z m-31.3 0H253v-16h15.7v16z m-31.3 0h-15.7v-16h15.7v16z m-31.4 0h-15.7v-16H206v16z m-31.3 0H159v-16h15.7v16zM127.3 736h16v16h-16zM143.3 719.9h-16v-16h16v16z m0-32h-16v-16h16v16z m0-32.1h-16v-16h16v16z m0-32.1h-16v-16h16v16z m0-32.1h-16v-16h16v16z m0-32.1h-16v-16h16v16z m0-32.1h-16v-16h16v16z m0-32h-16v-16h16v16z m0-32.1h-16v-16h16v16z m0-32.1h-16v-16h16v16z m0-32.1h-16v-16h16v16z m0-32.1h-16v-16h16v16z m0-32.1h-16v-16h16v16z m0-32.1h-16v-16h16v16z m0-32h-16v-16h16v16z m0-32.1h-16v-16h16v16zM127.3 190.6h16v16h-16zM864.2 206.6h-15.7v-16h15.7v16z m-31.3 0h-15.7v-16h15.7v16z m-31.4 0h-15.7v-16h15.7v16z m-31.3 0h-15.7v-16h15.7v16z m-31.3 0h-15.7v-16h15.7v16z m-31.4 0h-15.7v-16h15.7v16z m-31.3 0h-15.7v-16h15.7v16z m-31.4 0h-15.7v-16h15.7v16z m-31.3 0h-15.7v-16h15.7v16z m-31.4 0h-15.7v-16h15.7v16z m-31.3 0h-15.7v-16h15.7v16z m-31.3 0h-15.7v-16h15.7v16z m-31.4 0h-15.7v-16h15.7v16z m-31.3 0h-15.7v-16h15.7v16z m-31.4 0h-15.7v-16h15.7v16z m-31.3 0h-15.7v-16h15.7v16z m-31.4 0H347v-16h15.7v16z m-31.3 0h-15.7v-16h15.7v16z m-31.4 0h-15.7v-16H300v16z m-31.3 0H253v-16h15.7v16z m-31.3 0h-15.7v-16h15.7v16z m-31.4 0h-15.7v-16H206v16z m-31.3 0H159v-16h15.7v16zM879.9 190.6h16v16h-16zM895.9 719.9h-16v-16h16v16z m0-32h-16v-16h16v16z m0-32.1h-16v-16h16v16z m0-32.1h-16v-16h16v16z m0-32.1h-16v-16h16v16z m0-32.1h-16v-16h16v16z m0-32.1h-16v-16h16v16z m0-32h-16v-16h16v16z m0-32.1h-16v-16h16v16z m0-32.1h-16v-16h16v16z m0-32.1h-16v-16h16v16z m0-32.1h-16v-16h16v16z m0-32.1h-16v-16h16v16z m0-32.1h-16v-16h16v16z m0-32h-16v-16h16v16z m0-32.1h-16v-16h16v16z" fill="#0A0408" /><path d="M263 274.5h495.8V634H263z" fill="#F4BE6F" /><path d="M758.8 642H255V274.5h16V626h487.8zM503.6 764.6h16v137.2h-16z" fill="#0A0408" /><path d="M511.1 913.7m-35.8 0a35.8 35.8 0 1 0 71.6 0 35.8 35.8 0 1 0-71.6 0Z" fill="#55B7A8" /><path d="M511.1 957.5c-24.2 0-43.8-19.7-43.8-43.8s19.7-43.8 43.8-43.8c24.2 0 43.8 19.7 43.8 43.8s-19.6 43.8-43.8 43.8z m0-71.7c-15.4 0-27.8 12.5-27.8 27.8 0 15.4 12.5 27.8 27.8 27.8 15.4 0 27.8-12.5 27.8-27.8 0.1-15.3-12.4-27.8-27.8-27.8z" fill="#0A0408" /><path d="M268.7 639.7l-11.3-11.3 191.1-191.2L543 530l135.1-133.7 11.2 11.4-146.2 144.8-94.5-92.7z" fill="#0A0408" /><path d="M694.9 467.3h-16v-62h-62v-16h78z" fill="#0A0408" /><path d="M71.9 106.8h879.4v92.8H71.9z" fill="#55B7A8" /><path d="M959.3 207.6H63.9V98.8h895.4v108.8z m-879.4-16h863.4v-76.8H79.9v76.8z" fill="#0A0408" /><path d="M109.9 718.5h50.9v50.9h-50.9z" fill="#DC444A" /><path d="M168.8 777.4h-66.9v-66.9h66.9v66.9z m-50.9-16h34.9v-34.9h-34.9v34.9z" fill="#0A0408" /><path d="M862.5 718.5h50.9v50.9h-50.9z" fill="#DC444A" /><path d="M921.3 777.4h-66.9v-66.9h66.9v66.9z m-50.8-16h34.9v-34.9h-34.9v34.9z" fill="#0A0408" /></svg>