<?xml version="1.0" standalone="no"?><!DOCTYPE svg PUBLIC "-//W3C//DTD SVG 1.1//EN" "http://www.w3.org/Graphics/SVG/1.1/DTD/svg11.dtd"><svg class="icon" width="200px" height="200.00px" viewBox="0 0 1024 1024" version="1.1" xmlns="http://www.w3.org/2000/svg"><path d="M503.8 817.7h16v128.9h-16zM503.7 62.7h16v127.7h-16z" fill="#0A0408" /><path d="M511.7 214h379.2v600.7H132.6V214h379.1" fill="#FFFFFF" /><path d="M511.7 206h8v16h-8zM867.1 222h-15.8v-16h15.8v16z m-31.6 0h-15.8v-16h15.8v16z m-31.6 0h-15.8v-16h15.8v16z m-31.6 0h-15.8v-16h15.8v16z m-31.5 0H725v-16h15.8v16z m-31.6 0h-15.8v-16h15.8v16z m-31.6 0h-15.8v-16h15.8v16z m-31.6 0h-15.8v-16H646v16z m-31.5 0h-15.8v-16h15.8v16z m-31.6 0h-15.8v-16h15.8v16z m-31.6 0h-15.8v-16h15.8v16zM882.9 206h16v16h-16zM898.9 790.9h-16v-15.8h16v15.8z m0-31.6h-16v-15.8h16v15.8z m0-31.6h-16v-15.8h16v15.8z m0-31.6h-16v-15.8h16v15.8z m0-31.6h-16v-15.8h16v15.8z m0-31.6h-16v-15.8h16v15.8z m0-31.6h-16v-15.8h16v15.8z m0-31.6h-16v-15.8h16v15.8z m0-31.6h-16v-15.8h16v15.8z m0-31.6h-16v-15.8h16v15.8z m0-31.7h-16V459h16v15.8z m0-31.6h-16v-15.8h16v15.8z m0-31.6h-16v-15.8h16v15.8z m0-31.6h-16v-15.8h16V380z m0-31.6h-16v-15.8h16v15.8z m0-31.6h-16V301h16v15.8z m0-31.6h-16v-15.8h16v15.8z m0-31.6h-16v-15.8h16v15.8zM882.9 806.7h16v16h-16zM867.1 822.7h-15.8v-16h15.8v16z m-31.6 0h-15.8v-16h15.8v16z m-31.6 0h-15.8v-16h15.8v16z m-31.6 0h-15.8v-16h15.8v16z m-31.6 0h-15.8v-16h15.8v16z m-31.6 0h-15.8v-16h15.8v16z m-31.5 0h-15.8v-16h15.8v16z m-31.6 0h-15.8v-16H646v16z m-31.6 0h-15.8v-16h15.8v16z m-31.6 0H567v-16h15.8v16z m-31.6 0h-15.8v-16h15.8v16z m-31.6 0h-15.8v-16h15.8v16z m-31.5 0h-15.8v-16h15.8v16z m-31.6 0h-15.8v-16h15.8v16z m-31.6 0h-15.8v-16h15.8v16z m-31.6 0h-15.8v-16h15.8v16z m-31.6 0h-15.8v-16h15.8v16z m-31.6 0h-15.8v-16h15.8v16z m-31.6 0h-15.8v-16h15.8v16z m-31.5 0h-15.8v-16H267v16z m-31.6 0h-15.8v-16h15.8v16z m-31.6 0H188v-16h15.8v16z m-31.6 0h-15.8v-16h15.8v16zM124.6 806.7h16v16h-16zM140.6 790.9h-16v-15.8h16v15.8z m0-31.6h-16v-15.8h16v15.8z m0-31.6h-16v-15.8h16v15.8z m0-31.6h-16v-15.8h16v15.8z m0-31.6h-16v-15.8h16v15.8z m0-31.6h-16v-15.8h16v15.8z m0-31.6h-16v-15.8h16v15.8z m0-31.6h-16v-15.8h16v15.8z m0-31.6h-16v-15.8h16v15.8z m0-31.6h-16v-15.8h16v15.8z m0-31.7h-16V459h16v15.8z m0-31.6h-16v-15.8h16v15.8z m0-31.6h-16v-15.8h16v15.8z m0-31.6h-16v-15.8h16V380z m0-31.6h-16v-15.8h16v15.8z m0-31.6h-16V301h16v15.8z m0-31.6h-16v-15.8h16v15.8z m0-31.6h-16v-15.8h16v15.8zM124.6 206h16v16h-16zM488 222h-15.8v-16H488v16z m-31.6 0h-15.8v-16h15.8v16z m-31.6 0H409v-16h15.8v16z m-31.6 0h-15.8v-16h15.8v16z m-31.5 0h-15.8v-16h15.8v16z m-31.6 0h-15.8v-16h15.8v16z m-31.6 0h-15.8v-16h15.8v16z m-31.6 0h-15.8v-16h15.8v16z m-31.6 0h-15.8v-16h15.8v16z m-31.5 0H188v-16h15.8v16z m-31.6 0h-15.8v-16h15.8v16zM503.7 206h8v16h-8zM333.7 957.6l-7.6-14.1 185.7-100.9 182 101-7.8 14-174.3-96.8z" fill="#0A0408" /><path d="M754.6 537.7c0 74.9-60.7 135.6-135.6 135.6s-135.6-60.7-135.6-135.6S544.1 402.1 619 402.1v135.6h135.6z" fill="#55B7A8" /><path d="M619 681.4c-79.2 0-143.6-64.4-143.6-143.6S539.8 394.1 619 394.1h8v135.6h135.6v8c0 79.2-64.4 143.7-143.6 143.7z m-8-271c-66.7 4.1-119.6 59.7-119.6 127.4 0 70.4 57.3 127.6 127.6 127.6 67.7 0 123.2-53 127.4-119.6H611V410.4z" fill="#0A0408" /><path d="M794.5 513.8H642.9V362.2h8c79.2 0 143.6 64.4 143.6 143.6v8z m-135.6-16h119.4c-4-64-55.4-115.4-119.4-119.4v119.4z" fill="#0A0408" /><path d="M750.4 477.8c0-39.5-32-71.5-71.5-71.5v71.5h71.5z" fill="#DC444A" /><path d="M229.1 583.2h16v90.2h-16zM288.7 411.5h16v261.9h-16zM348.3 512.5h16v160.9h-16zM407.9 613.5h16v59.9h-16z" fill="#0A0408" /><path d="M106.9 188.3h51.4v51.4h-51.4z" fill="#DC444A" /><path d="M166.3 247.7H98.9v-67.4h67.4v67.4z m-51.4-16h35.4v-35.4h-35.4v35.4z" fill="#0A0408" /><path d="M106.9 791h51.4v51.4h-51.4z" fill="#DC444A" /><path d="M166.3 850.4H98.9V783h67.4v67.4z m-51.4-16h35.4V799h-35.4v35.4z" fill="#0A0408" /><path d="M865.2 188.3h51.4v51.4h-51.4z" fill="#DC444A" /><path d="M924.6 247.7h-67.4v-67.4h67.4v67.4z m-51.4-16h35.4v-35.4h-35.4v35.4z" fill="#0A0408" /><path d="M865.2 791h51.4v51.4h-51.4z" fill="#DC444A" /><path d="M924.6 850.4h-67.4V783h67.4v67.4z m-51.4-16h35.4V799h-35.4v35.4z" fill="#0A0408" /></svg>