<?xml version="1.0" standalone="no"?><!DOCTYPE svg PUBLIC "-//W3C//DTD SVG 1.1//EN" "http://www.w3.org/Graphics/SVG/1.1/DTD/svg11.dtd"><svg class="icon" width="200px" height="200.00px" viewBox="0 0 1024 1024" version="1.1" xmlns="http://www.w3.org/2000/svg"><path d="M468.4 821.8h85.8V918h-85.8z" fill="#55B7A8" /><path d="M99.9 743.6V822h822.7v-78.4" fill="#55B7A8" /><path d="M930.6 830H91.9v-86.4h16V814h806.7v-70.4h16z" fill="#0A0408" /><path d="M99.9 743.6V183.7h822.7v559.9" fill="#FFFFFF" /><path d="M91.9 735.6h16v8h-16zM107.9 720h-16v-15.5h16V720z m0-31h-16v-15.5h16V689z m0-31.1h-16v-15.5h16v15.5z m0-31.1h-16v-15.5h16v15.5z m0-31.1h-16v-15.5h16v15.5z m0-31h-16v-15.5h16v15.5z m0-31.1h-16v-15.5h16v15.5z m0-31.1h-16V487h16v15.5z m0-31.1h-16v-15.5h16v15.5z m0-31h-16v-15.5h16v15.5z m0-31.1h-16v-15.5h16v15.5z m0-31.1h-16v-15.5h16v15.5z m0-31.1h-16v-15.5h16v15.5z m0-31h-16v-15.5h16v15.5z m0-31.1h-16v-15.5h16V285z m0-31.1h-16v-15.5h16v15.5z m0-31.1h-16v-15.5h16v15.5zM91.9 175.7h16v16h-16zM898.8 191.7H883v-16h15.8v16z m-31.6 0h-15.8v-16h15.8v16z m-31.7 0h-15.8v-16h15.8v16z m-31.6 0h-15.8v-16h15.8v16z m-31.6 0h-15.8v-16h15.8v16z m-31.7 0h-15.8v-16h15.8v16z m-31.6 0h-15.8v-16H709v16z m-31.6 0h-15.8v-16h15.8v16z m-31.7 0h-15.8v-16h15.8v16z m-31.6 0h-15.8v-16h15.8v16z m-31.6 0h-15.8v-16h15.8v16z m-31.7 0H535v-16h15.8v16z m-31.6 0h-15.8v-16h15.8v16z m-31.7 0h-15.8v-16h15.8v16z m-31.6 0h-15.8v-16h15.8v16z m-31.6 0h-15.8v-16h15.8v16z m-31.7 0h-15.8v-16h15.8v16z m-31.6 0h-15.8v-16H361v16z m-31.6 0h-15.8v-16h15.8v16z m-31.7 0h-15.8v-16h15.8v16z m-31.6 0h-15.8v-16h15.8v16z m-31.6 0h-15.8v-16h15.8v16z m-31.7 0H187v-16h15.8v16z m-31.6 0h-15.8v-16h15.8v16z m-31.6 0h-15.8v-16h15.8v16zM914.6 175.7h16v16h-16zM930.6 720h-16v-15.5h16V720z m0-31h-16v-15.5h16V689z m0-31.1h-16v-15.5h16v15.5z m0-31.1h-16v-15.5h16v15.5z m0-31.1h-16v-15.5h16v15.5z m0-31h-16v-15.5h16v15.5z m0-31.1h-16v-15.5h16v15.5z m0-31.1h-16V487h16v15.5z m0-31.1h-16v-15.5h16v15.5z m0-31h-16v-15.5h16v15.5z m0-31.1h-16v-15.5h16v15.5z m0-31.1h-16v-15.5h16v15.5z m0-31.1h-16v-15.5h16v15.5z m0-31h-16v-15.5h16v15.5z m0-31.1h-16v-15.5h16V285z m0-31.1h-16v-15.5h16v15.5z m0-31.1h-16v-15.5h16v15.5zM914.6 735.6h16v8h-16zM394.2 910h234.2v16H394.2zM498.5 650.8c-2.8 0-5.6-0.1-8.4-0.2l0.7-16c5.1 0.2 10.3 0.2 15.4 0l0.8 16c-2.8 0.1-5.7 0.2-8.5 0.2z m-25.2-1.8c-5.6-0.8-11.2-1.9-16.6-3.2l3.7-15.6c5 1.2 10 2.2 15.1 2.9l-2.2 15.9z m50.5 0l-2.3-15.8c5.1-0.7 10.1-1.7 15.1-2.9l3.8 15.6c-5.4 1.2-11 2.3-16.6 3.1z m-83.4-7.9c-5.3-1.8-10.6-3.9-15.7-6.3l6.6-14.6c4.6 2.1 9.5 4 14.3 5.7l-5.2 15.2z m116.3-0.1l-5.2-15.1c4.8-1.7 9.6-3.6 14.3-5.7l6.7 14.5c-5.2 2.4-10.5 4.5-15.8 6.3z m-147-13.9c-4.9-2.8-9.6-5.9-14.2-9.1l9.3-13c4.2 3 8.5 5.8 12.9 8.3l-8 13.8z m177.7-0.1l-8-13.8c4.4-2.6 8.8-5.4 12.9-8.3l9.3 13c-4.6 3.2-9.3 6.3-14.2 9.1z m-205.2-19.5c-4.3-3.7-8.4-7.6-12.2-11.7l11.6-11.1c3.5 3.7 7.3 7.3 11.1 10.6l-10.5 12.2z m232.7-0.2l-10.5-12.1c3.9-3.4 7.6-6.9 11.1-10.6l11.6 11c-3.8 4.1-8 8.1-12.2 11.7z m-256.1-24.2c-3.5-4.4-6.8-9-9.8-13.8l13.4-8.7c2.8 4.3 5.8 8.5 9 12.5l-12.6 10z m279.4-0.2l-12.6-9.9c3.2-4 6.2-8.2 8.9-12.5l13.5 8.7c-3 4.7-6.3 9.3-9.8 13.7z m-297.7-28.2c-2.6-5-5-10.2-7-15.4l14.8-6c1.9 4.7 4.1 9.4 6.4 14l-14.2 7.4z m316-0.2l-14.2-7.3c2.3-4.5 4.5-9.3 6.4-14l14.9 5.9c-2.2 5.2-4.5 10.4-7.1 15.4z m-328.6-31.2c-1.6-5.4-2.9-10.9-4-16.4l15.7-3c1 5 2.2 10 3.6 14.9l-15.3 4.5z m341.2-0.2l-15.4-4.5c1.4-4.9 2.7-9.9 3.6-15l15.7 3c-1 5.6-2.4 11.1-3.9 16.5z m-347.6-33c-0.5-5.6-0.8-11.2-0.8-16.9h16c0 5.1 0.3 10.3 0.7 15.4l-15.9 1.5z m353.9-0.2l-15.9-1.5c0.5-5.1 0.7-10.3 0.7-15.4v-0.4h16v0.3c0 5.8-0.3 11.5-0.8 17z m-338-32l-15.9-1.5c0.5-5.6 1.3-11.2 2.4-16.7l15.7 3c-1 4.9-1.7 10.1-2.2 15.2z m322.1-0.6c-0.5-5.1-1.2-10.2-2.2-15.2l15.7-3c1.1 5.5 1.9 11.1 2.4 16.7l-15.9 1.5z m-316.3-29.6l-15.4-4.5c1.6-5.4 3.4-10.8 5.5-16l14.9 5.9c-1.9 4.8-3.6 9.7-5 14.6z m310.4-0.6c-1.4-4.9-3.2-9.8-5.1-14.5l14.8-6c2.1 5.2 4 10.6 5.6 16l-15.3 4.5z m-299-28l-14.2-7.3c2.6-5 5.4-9.9 8.5-14.7l13.5 8.6c-2.9 4.4-5.5 8.9-7.8 13.4z m287.5-0.5c-2.4-4.5-5-9-7.7-13.3l13.4-8.7c3.1 4.7 5.9 9.6 8.5 14.6l-14.2 7.4z m-270.9-25.4l-12.6-9.9c3.5-4.4 7.2-8.7 11.1-12.8l11.6 11c-3.6 3.8-7 7.7-10.1 11.7z m254.2-0.4c-3.2-4-6.6-7.9-10.1-11.6l11.6-11.1c3.9 4.1 7.6 8.4 11.1 12.8l-12.6 9.9z m-233-21.8l-10.5-12.1c4.2-3.7 8.7-7.2 13.3-10.5l9.3 13c-4.2 3-8.3 6.2-12.1 9.6z m211.7-0.4c-3.9-3.3-7.9-6.5-12.1-9.5l9.3-13c4.6 3.3 9.1 6.8 13.3 10.4l-10.5 12.1z m-186.7-17.5l-8-13.8c4.9-2.8 9.9-5.4 15-7.8L431 326c-4.6 2.1-9.2 4.5-13.6 7.1z m161.7-0.3c-4.4-2.6-9-4.9-13.7-7l6.6-14.6c5.1 2.3 10.2 4.9 15 7.7l-7.9 13.9z m-133.8-12.6l-5.3-15.1c5.3-1.8 10.8-3.5 16.2-4.8l3.8 15.5c-4.9 1.3-9.9 2.8-14.7 4.4z m105.8-0.1c-4.8-1.7-9.8-3.1-14.8-4.3l3.7-15.6c5.5 1.3 10.9 2.9 16.2 4.7l-5.1 15.2z m-75.9-7.1l-2.3-15.8c5.5-0.8 11.2-1.3 16.8-1.6l0.8 16c-5.1 0.2-10.3 0.6-15.3 1.4z m46-0.1c-5-0.7-10.2-1.2-15.3-1.4l0.7-16c5.6 0.3 11.3 0.8 16.8 1.6l-2.2 15.8z" fill="#0A0408" /><path d="M542.4 647.7l-150.9-151-150.9 150.9z" fill="#EBB866" /><path d="M561.8 655.7l-340.5-0.1 170.2-170.2 170.3 170.3z m-301.9-16.1l263.2 0.1-131.6-131.6-131.6 131.5z" fill="#0A0408" /><path d="M796.2 645.6L575.6 425 352.8 647.7z" fill="#68A4D9" /><path d="M333.4 655.8l242.1-242.1 239.9 239.9-482 2.2z m242.2-219.5L372.2 639.6l404.8-1.9-201.4-201.4z" fill="#0A0408" /><path d="M74.7 158.6h50.4V209H74.7z" fill="#DC444A" /><path d="M133.1 216.9H66.7v-66.4h66.4v66.4z m-50.4-16h34.4v-34.4H82.7v34.4z" fill="#0A0408" /><path d="M898.4 158.6h50.4V209h-50.4z" fill="#DC444A" /><path d="M956.7 216.9h-66.4v-66.4h66.4v66.4z m-50.3-16h34.4v-34.4h-34.4v34.4z" fill="#0A0408" /></svg>