<?xml version="1.0" standalone="no"?><!DOCTYPE svg PUBLIC "-//W3C//DTD SVG 1.1//EN" "http://www.w3.org/Graphics/SVG/1.1/DTD/svg11.dtd"><svg class="icon" width="200px" height="200.00px" viewBox="0 0 1024 1024" version="1.1" xmlns="http://www.w3.org/2000/svg"><path d="M810.2 502.8l-98.5-267.6-132.7 4.2-315.1 334.1-66.4-91.5h-91.7v346.6h203.7z" fill="#55B7A8" /><path d="M919.8 502.8H549.9l-286 286.1H105.8v131.7h814z" fill="#EBB866" /><path d="M55.6 783.6h8v16h-8zM241.1 799.6h-14.8v-16h14.8v16z m-29.6 0h-14.8v-16h14.8v16z m-29.6 0h-14.8v-16h14.8v16z m-29.6 0h-14.8v-16h14.8v16z m-29.5 0H108v-16h14.8v16z m-29.6 0H78.4v-16h14.8v16zM267.2 799.6h-11.3v-16h4.6l3.3-3.3 11.4 11.2zM286.2 780.4l-11.4-11.3 11-11.1 11.4 11.3-11 11.1z m22-22.1L296.8 747l11-11.1 11.4 11.3-11 11.1z m21.9-22.2l-11.4-11.3 11-11.1 11.4 11.3-11 11.1z m22-22.2l-11.4-11.3 11-11.1 11.4 11.3-11 11.1z m22-22.2l-11.4-11.3 11-11.1 11.4 11.3-11 11.1z m22-22.2l-11.4-11.3 11-11.1 11.4 11.3-11 11.1z m22-22.2L406.7 636l11-11.1 11.4 11.3-11 11.1z m22-22.2l-11.4-11.3 11-11.1 11.4 11.3-11 11.1z m22-22.2l-11.4-11.3 11-11.1 11.4 11.3-11 11.1z m21.9-22.2l-11.4-11.3 11-11.1 11.4 11.3-11 11.1z m22-22.2l-11.4-11.3 11-11.1 11.4 11.3-11 11.1z m22-22.2L516.6 525l11-11.1 11.4 11.3-11 11.1zM550 514.1l-11.4-11.2 8-8.1h11.3v16h-4.6zM942.3 510.8h-16v-16h16v16z m-32 0h-16v-16h16v16z m-32 0h-16v-16h16v16z m-32.1 0h-16v-16h16v16z m-32 0h-16v-16h16v16z m-32 0h-16v-16h16v16z m-32.1 0h-16v-16h16v16z m-32 0h-16v-16h16v16z m-32 0h-16v-16h16v16z m-32.1 0h-16v-16h16v16z m-32 0h-16v-16h16v16z m-32 0h-16v-16h16v16zM958.4 494.8h8v16h-8zM54.55 474.936l8-0.052 0.103 16-8 0.052zM80.8 490.7l-0.1-16 18.1-0.1 0.1 16-18.1 0.1z m36.2-0.2l-0.1-16 18.1-0.1 0.1 16-18.1 0.1z m36.3-0.2l-0.1-16 18.1-0.1 0.1 16-18.1 0.1zM195.7 493.2l-2.3-3.2-3.9 0.1-0.1-16 12.1-0.1 7.1 9.8zM244.6 560.5l-8.1-11.2 12.9-9.4 8.1 11.2-12.9 9.4z m-16.3-22.4l-8.1-11.2 12.9-9.4 8.1 11.2-12.9 9.4zM212 515.6l-8.1-11.2 12.9-9.4 8.1 11.2-12.9 9.4zM263.1 586l-10.4-14.3 5.9-4.2 4.9-5.3 1 0.9 1.1-0.8 4.3 5.9 5.3 5zM285.9 561.8l-11.6-11 10.7-11.3 11.6 11-10.7 11.3z m21.3-22.6l-11.6-11 10.7-11.3 11.6 11-10.7 11.3z m21.4-22.7l-11.6-11 10.7-11.3 11.6 11-10.7 11.3z m21.4-22.6l-11.6-11 10.7-11.3 11.6 11-10.7 11.3z m21.3-22.7l-11.6-11 10.7-11.3 11.6 11-10.7 11.3z m21.4-22.6l-11.6-11 10.7-11.3 11.6 11-10.7 11.3z m21.4-22.7l-11.6-11 10.7-11.3 11.6 11-10.7 11.3z m21.3-22.6l-11.6-11 10.7-11.3 11.6 11-10.7 11.3z m21.4-22.7l-11.6-11 10.7-11.3 11.6 11-10.7 11.3z m21.4-22.6l-11.6-11 10.7-11.3 11.6 11-10.7 11.3z m21.3-22.7l-11.6-11 10.7-11.3 11.6 11-10.7 11.3z m21.4-22.6l-11.6-11 10.7-11.3 11.6 11-10.7 11.3z m21.4-22.7l-11.6-11 10.7-11.3 11.6 11-10.7 11.3z m21.3-22.6l-11.6-11 10.7-11.3 11.6 11-10.7 11.3z m15.9-20l-0.5-16 15.6-0.5 0.5 16-15.6 0.5z m31.1-1l-0.5-16 15.6-0.5 0.5 16-15.6 0.5z m31.2-1l-0.5-16 15.6-0.5 0.5 16-15.6 0.5z m31.1-0.9l-0.5-16 15.6-0.5 0.5 16-15.6 0.5zM707 245.5l-0.7-2.1-2.3 0.1-0.5-16 13.7-0.4 4.8 12.8z" fill="#0A0408" /><path d="M832.2 581.3l-5.7-15.3 15-5.6 5.7 15.3-15 5.6z m-11.4-30.5l-5.7-15.3 15-5.6 5.7 15.3-15 5.6z m-11.4-30.5l-5.7-15.3 15-5.6 5.7 15.3-15 5.6zM798 489.7l-5.7-15.3 15-5.6 5.7 15.3-15 5.6z m-11.3-30.5L781 444l15-5.6 5.7 15.3-15 5.5z m-11.4-30.5l-5.7-15.3 15-5.6 5.7 15.3-15 5.6z m-11.4-30.5l-5.7-15.3 15-5.6 5.7 15.3-15 5.6z m-11.4-30.6l-5.7-15.3 15-5.6 5.7 15.3-15 5.6z m-11.3-30.5l-5.7-15.3 15-5.6 5.7 15.3-15 5.6z m-11.4-30.5l-5.7-15.3 15-5.6 5.7 15.3-15 5.6z m-11.4-30.5l-5.7-15.3 15-5.6 5.7 15.3-15 5.6zM856.1 609.3h-13.5l-4.7-12.7 14.9-5.6 0.9 2.3h2.4zM943.8 609.3h-14.6v-16h14.6v16z m-29.3 0h-14.6v-16h14.6v16z m-29.2 0h-14.6v-16h14.6v16zM958.4 593.3h8v16h-8z" fill="#0A0408" /><path d="M235.3 764h49.8v49.8h-49.8z" fill="#DC504F" /><path d="M293.1 821.8h-65.8V756h65.8v65.8z m-49.8-16h33.8V772h-33.8v33.8z" fill="#0A0408" /><path d="M810.7 525.4h-1c-12.5 0-22.6-10.1-22.6-22.6v-1c0-12.5 10.1-22.6 22.6-22.6h1c12.5 0 22.6 10.1 22.6 22.6v1c0 12.5-10.1 22.6-22.6 22.6z" fill="#68A4D9" /><path d="M810.7 533.4h-1c-16.8 0-30.6-13.7-30.6-30.6v-1c0-16.8 13.7-30.6 30.6-30.6h1c16.8 0 30.6 13.7 30.6 30.6v1c0 16.9-13.7 30.6-30.6 30.6z m-0.9-46.1c-8 0-14.6 6.5-14.6 14.6v1c0 8 6.5 14.6 14.6 14.6h1c8 0 14.6-6.5 14.6-14.6v-1c0-8-6.5-14.6-14.6-14.6h-1z" fill="#0A0408" /><path d="M927.8 928.6h-830v-830h830v830z m-814-16h798v-798h-798v798z" fill="#0A0408" /><path d="M524.5 477.4h50.9v50.9h-50.9z" fill="#DC444A" /><path d="M583.4 536.3h-66.9v-66.9h66.9v66.9z m-50.9-16h34.9v-34.9h-34.9v34.9z" fill="#0A0408" /><path d="M234.8 543.9h50.9v50.9h-50.9z" fill="#FFFFFF" /><path d="M293.6 602.8h-66.9v-66.9h66.9v66.9z m-50.8-16h34.9v-34.9h-34.9v34.9z" fill="#0A0408" /><path d="M553.6 214h50.9v50.9h-50.9z" fill="#FFFFFF" /><path d="M612.5 272.8h-66.9V206h66.9v66.8z m-50.9-16h34.9V222h-34.9v34.8z" fill="#0A0408" /><path d="M675.9 209.8h50.9v50.9h-50.9z" fill="#FFFFFF" /><path d="M734.8 268.7h-66.9v-66.9h66.9v66.9z m-50.9-16h34.9v-34.9h-34.9v34.9z" fill="#0A0408" /><path d="M822.4 575.8h50.9v50.9h-50.9z" fill="#FFFFFF" /><path d="M881.3 634.7h-66.9v-66.9h66.9v66.9z m-50.9-16h34.9v-34.9h-34.9v34.9z" fill="#0A0408" /></svg>