<?xml version="1.0" standalone="no"?><!DOCTYPE svg PUBLIC "-//W3C//DTD SVG 1.1//EN" "http://www.w3.org/Graphics/SVG/1.1/DTD/svg11.dtd"><svg class="icon" width="200px" height="200.00px" viewBox="0 0 1024 1024" version="1.1" xmlns="http://www.w3.org/2000/svg"><path d="M473.4 918.6l-11.3-11.3 11.3-11.3 11.3 11.3-11.3 11.3z m19.3-7.9l-11.3-11.3 11.3-11.3 11.3 11.3-11.3 11.3zM450.8 896l-11.3-11.3 11.3-11.3 11.3 11.3-11.3 11.3z m64.5-7.9L504 876.7l11.3-11.3 11.3 11.3-11.3 11.4z m-87.2-14.7l-11.3-11.3 11.3-11.3 11.3 11.3-11.3 11.3z m109.8-8l-11.3-11.3 11.3-11.3 11.3 11.3-11.3 11.3z m-132.4-14.6l-11.3-11.3 11.3-11.3 11.3 11.3-11.3 11.3z m155.1-8l-11.3-11.3 11.3-11.3 11.3 11.3-11.3 11.3z m-177.7-14.7l-11.3-11.3 11.3-11.3 11.3 11.3-11.3 11.3z m200.3-7.9l-11.3-11.3 11.3-11.3 11.3 11.3-11.3 11.3z m-222.9-14.7L349 794.2l11.3-11.3 11.3 11.3-11.3 11.3z m245.5-8l-11.3-11.3 11.3-11.3 11.3 11.3-11.3 11.3z m-268.2-14.6l-11.3-11.3 11.3-11.3 11.3 11.3-11.3 11.3z m290.8-8l-11.3-11.3 11.3-11.3 11.3 11.3-11.3 11.3zM315 760.3L303.7 749l11.3-11.3 11.3 11.3-11.3 11.3z m336.1-8L639.8 741l11.3-11.3 11.3 11.3-11.3 11.3z m-358.7-14.7l-11.3-11.3 11.3-11.3 11.3 11.3-11.3 11.3z m381.3-7.9l-11.3-11.3 11.3-11.3 11.3 11.3-11.3 11.3z m-404-14.7l-11.3-11.3 11.3-11.3 11.3 11.3-11.3 11.3z m426.6-8L685 695.7l11.3-11.3 11.3 11.3-11.3 11.3z m-449.2-14.6l-11.3-11.3 11.3-11.3 11.3 11.3-11.3 11.3z m471.8-8l-11.3-11.3 11.3-11.3 11.3 11.3-11.3 11.3z m-494.4-14.7l-11.3-11.3 11.3-11.3 11.3 11.3-11.3 11.3z m517.1-7.9l-11.3-11.3 11.3-11.3 11.3 11.3-11.3 11.3z m-539.7-14.7l-11.3-11.3 11.3-11.3 11.3 11.3-11.3 11.3z m562.3-7.9l-11.3-11.3 11.3-11.3 11.3 11.3-11.3 11.3z m-585-14.7l-11.3-11.3 11.3-11.3 11.3 11.3-11.3 11.3z m607.6-8l-11.3-11.3 11.3-11.3 11.3 11.3-11.3 11.3z m-630.2-14.6l-11.3-11.3 11.3-11.3 11.3 11.3-11.3 11.3z m652.9-8l-11.3-11.3 11.3-11.3 11.3 11.3-11.3 11.3zM134 579.2l-11.3-11.3 11.3-11.3 11.3 11.3-11.3 11.3z m698.1-7.9L820.8 560l11.3-11.3 11.3 11.3-11.3 11.3z m-720.7-14.7L98.7 544l10-10 5.7 5.7 1.3-1.3 7 7-11.3 11.2z m743.3-8l-11.3-11.3 11.3-11.3 11.3 11.3-11.3 11.3zM131.3 534L120 522.7l11.3-11.3 11.3 11.3-11.3 11.3z m746-8L866 514.7l11.3-11.3 11.3 11.3-11.3 11.3z m-723.4-14.6L142.6 500l11.3-11.3 11.3 11.3-11.3 11.4z m746.1-8l-11.3-11.3 11.3-11.3 11.3 11.3-11.3 11.3z m-723.5-14.7l-11.3-11.3 11.3-11.3 11.3 11.3-11.3 11.3z m724.1-7.9l-11.3-11.3 11.3-11.3 11.3 11.3-11.3 11.3z m-701.4-14.7l-11.3-11.3 11.3-11.3 11.3 11.3-11.3 11.3z m678.8-8l-11.3-11.3 11.3-11.3 11.3 11.3-11.3 11.3z m-656.2-14.6l-11.3-11.3 11.3-11.3 11.3 11.3-11.3 11.3z m633.6-8l-11.3-11.3 11.3-11.3 11.3 11.3-11.3 11.3z m-611-14.7l-11.3-11.3 11.3-11.3 11.3 11.3-11.3 11.3z m588.3-7.9l-11.3-11.3 11.3-11.3 11.3 11.3-11.3 11.3z m-565.6-14.7l-11.3-11.3 11.3-11.3 11.3 11.3-11.3 11.3z m543-8l-11.3-11.3 11.3-11.3 11.3 11.3-11.3 11.3z m-520.4-14.6l-11.3-11.3 11.3-11.3 11.3 11.3-11.3 11.3z m497.8-8l-11.3-11.3 11.3-11.3 11.3 11.3-11.3 11.3zM312.3 353L301 341.6l11.3-11.3 11.3 11.3-11.3 11.4z m452.6-8l-11.3-11.3 11.3-11.3 11.3 11.3-11.3 11.3z m-430-14.7L323.6 319l11.3-11.3 11.3 11.3-11.3 11.3z m407.3-7.9l-11.3-11.3 11.3-11.3 11.3 11.3-11.3 11.3z m-384.6-14.7l-11.3-11.3 11.3-11.3 11.3 11.3-11.3 11.3z m362-8l-11.3-11.3 11.3-11.3 11.3 11.3-11.3 11.3z m-339.4-14.6l-11.3-11.3 11.3-11.3 11.3 11.3-11.3 11.3z m316.8-8l-11.3-11.3 11.3-11.3 11.3 11.3-11.3 11.3z m-294.2-14.6l-11.3-11.3 11.3-11.3 11.3 11.3-11.3 11.3z m271.5-8L663 243.2l11.3-11.3 11.3 11.3-11.3 11.3z m-248.9-14.7l-11.3-11.3 11.3-11.3 11.3 11.3-11.3 11.3z m226.3-7.9l-11.3-11.3 11.3-11.3 11.3 11.3-11.3 11.3z m-203.6-14.7l-11.3-11.3 11.3-11.3 11.3 11.3-11.3 11.3z m181-8l-11.3-11.3 11.3-11.3 11.3 11.3-11.3 11.3z m-158.4-14.6l-11.3-11.3 11.3-11.3 11.3 11.3-11.3 11.3z m135.8-8l-11.3-11.3 11.3-11.3 11.3 11.3-11.3 11.3z m-113.2-14.7L482 160.6l11.3-11.3 11.3 11.3-11.3 11.3z m90.5-7.9l-11.3-11.3 11.3-11.3 11.3 11.3-11.3 11.3zM516 149.3L504.6 138l11.3-11.3 11.3 11.3-11.2 11.3z m45.2-8L549.9 130l11.3-11.3 11.3 11.3-11.3 11.3z m-22.6-14.6l-11.3-11.3 15.3-15.3 7.3 7.3-5.7 5.7 4 4-9.6 9.6z" fill="#0A0408" /><path d="M387.6 206.3h384.2v611.8H249.9v-474" fill="#FFFFFF" /><path d="M779.8 826.1H241.9v-482h16v466h505.9V214.3H387.6v-16h392.2z" fill="#0A0408" /><path d="M417.8 259.4h308.6v491.5H307.1V370.1" fill="#55B7A8" /><path d="M391.8 206.3v137.8H254z" fill="#FFFFFF" /><path d="M391.8 352.1H254c-3.2 0-6.2-1.9-7.4-4.9s-0.6-6.4 1.7-8.7l137.8-137.8c2.3-2.3 5.7-3 8.7-1.7 3 1.2 4.9 4.2 4.9 7.4v137.8c0.1 4.3-3.5 7.9-7.9 7.9z m-118.4-16h110.5V225.6L273.4 336.1zM446.4 361h175v16h-175zM396 451.2h229.6v16H396zM396 552h229.6v16H396zM396 652.7h229.6v16H396z" fill="#0A0408" /><path d="M542.581 76.06l35.355 35.355-35.355 35.355-35.355-35.355z" fill="#DC444A" /><path d="M542.6 158L496 111.4l46.6-46.6 46.6 46.6-46.6 46.6z m-24-46.6l24 24 24-24-24-24-24 24z" fill="#0A0408" /><path d="M911.621 445.039l35.355 35.355-35.355 35.355-35.355-35.355z" fill="#DC444A" /><path d="M911.6 527.1L865 480.4l46.6-46.6 46.6 46.6-46.6 46.7z m-24-46.7l24 24 24-24-24-24-24 24z" fill="#0A0408" /><path d="M109.97 508.62l35.356 35.356-35.355 35.355-35.355-35.355z" fill="#DC444A" /><path d="M110 590.6L63.4 544l46.6-46.6 46.6 46.6-46.6 46.6zM86 544l24 24 24-24-24-24-24 24z" fill="#0A0408" /><path d="M479.081 877.67l35.355 35.355-35.355 35.355-35.355-35.355z" fill="#DC444A" /><path d="M479 959.6L432.4 913l46.6-46.6 46.6 46.6-46.6 46.6zM455 913l24 24 24-24-24-24-24 24z" fill="#0A0408" /></svg>