<?xml version="1.0" standalone="no"?><!DOCTYPE svg PUBLIC "-//W3C//DTD SVG 1.1//EN" "http://www.w3.org/Graphics/SVG/1.1/DTD/svg11.dtd"><svg class="icon" width="200px" height="200.00px" viewBox="0 0 1024 1024" version="1.1" xmlns="http://www.w3.org/2000/svg"><path d="M920.759108 150.641299l-817.438884 0.618469C4.276883 135.002877 9.489691 0.088353 124.789923 0.088353 381.648799 0.1502 638.560687 0.114858 895.490245 0c24.323489 0 42.232575 2.712427 53.718422 8.128445 69.53355 32.513782 45.766682 131.115359-28.449559 142.512854z" fill="#2F3F4B" /><path d="M920.759108 150.641299c0 167.339953 0.026506 334.706412 0.088353 502.108212 0 62.9071-23.413457 91.710069-85.967146 91.621717-100.898747-0.061847-201.85934 0.088353-302.872946 0.441763h-39.7587a70290.820399 70290.820399 0 0 0-294.832853-0.441763c-59.019582 0-94.007239-18.465708-93.918886-80.400928 0.114858-169.928686 0.053012-340.838087-0.176706-512.710532l817.438884-0.618469z m-450.06849 174.673224l120.601391-0.441763c3.021661 0 5.80477-0.945374 7.863388-2.65058 55.750533-46.915267-119.54116-32.690487-126.697726-32.602134a6.184687 6.184687 0 0 1-5.919629-4.152576c-5.124455-15.90348-2.297169-29.218227 8.481856-39.935406 1.917253-1.864241 4.718032-2.889132 7.775035-2.827285 3.003991 0 180.592853 11.309141 115.035174-33.043898a13.615146 13.615146 0 0 0-8.040093-2.297169c-32.513782 0.353411-64.974552 0.50361-97.36464 0.441763-81.637865-0.088353-62.376984 88.529373-61.93522 139.862273 0.795174 82.609745 108.585429 58.754524 161.420324 59.107935 3.030497 0 5.831276-0.874691 7.95174-2.473874 10.779025-8.190292 11.309141-17.820733 1.590348-28.891323a9.868993 9.868993 0 0 0-7.509977-3.269049l-108.055312-0.883526c-13.668158-0.061847-20.409466-6.299545-20.232761-18.730766l0.35341-22.794988a4.594339 4.594339 0 0 1 4.682692-4.417634z m98.778282 231.925754c39.758701-75.541531-45.324919-82.609745-93.123712-77.838701-8.579044 0.857021-15.24967 7.863387-15.726775 16.521949-2.65058 49.415647-2.067452 96.154209 1.767054 140.215684a9.851322 9.851322 0 0 0 9.807146 9.011972c28.626264 0 65.115916 6.096334 87.734199-11.574199 21.142793-16.548455 24.323489-39.378784 9.542088-68.473318a8.570209 8.570209 0 0 1 0-7.863387z m210.014292 54.513596c-35.606125 1.501995-73.244362 3.180696-78.633874-42.144223-7.068213-59.019582 39.228585-56.545707 80.224222-57.340881 2.942144-0.061847 5.6369-1.17509 7.509977-3.092344 9.303536-9.718793 8.888278-18.819118-1.236937-27.300974-1.987935-1.652195-4.81522-2.562227-7.951741-2.562227-34.192482 0.088353-73.421067-5.742923-96.39276 27.212621-27.83109 39.847053-23.325104 110.61754 27.300974 133.059118 18.907471 8.393503 45.148213 5.477865 67.059675 5.654571 3.092343 0.061847 5.97264-0.742162 8.216798-2.297169 12.307527-8.420009 12.89949-17.909086 1.767054-28.449559a10.796696 10.796696 0 0 0-7.863388-2.738933z m-453.425892-14.666543l1.501996 28.449559c0.114858 2.889132 1.378302 5.654571 3.534106 7.686682 19.172529 17.847239 31.011786 0.353411 31.011787-18.642413 0-39.40529 6.184687-99.131693-33.927425-123.605382-50.979489-31.188492-99.661809 15.196659-100.368631 68.031554a18641.882823 18641.882823 0 0 0-0.795174 61.670162c-0.061847 3.048167 0.742162 5.893123 2.29717 8.128446 28.361206 41.879165 32.602134-18.377355 33.397308-31.983666a4.771044 4.771044 0 0 1 4.771044-4.505986l54.248538 0.088353c2.288334 0.017671 4.187916 2.067452 4.329281 4.682691z" fill="#E2F0FA" /><path d="M492.248669 744.812991h39.7587l-2.208817 81.019396h-35.341067z" fill="#2F3F4B" /><path d="M494.457485 825.832387h35.341067c60.724789 20.259267 87.027378 58.489466 78.898933 114.681763-15.991833 110.352482-173.966403 111.766125-192.785522 1.501996-9.542088-56.077438 16.636807-94.802413 78.545522-116.183759z" fill="#4F697D" /><path d="M466.007926 329.732157l-0.35341 22.794988c-0.176705 12.43122 6.564603 18.668919 20.232761 18.730766l108.055312 0.883526c2.96865 0 5.716418 1.192761 7.509977 3.269049 9.718793 11.070589 9.188677 20.70103-1.590348 28.891323a13.164548 13.164548 0 0 1-7.95174 2.473874c-52.834895-0.353411-160.62515 23.50181-161.420324-59.107935-0.441763-51.3329-19.702645-139.950626 61.93522-139.862273 32.390088 0.061847 64.850858-0.088353 97.36464-0.441763 2.98632-0.061847 5.80477 0.742162 8.040093 2.297169 65.55768 44.353039-112.031183 33.043898-115.035174 33.043898-3.057002-0.061847-5.857782 0.963044-7.775035 2.827285-10.779025 10.717179-13.606311 24.031926-8.481856 39.935406a6.184687 6.184687 0 0 0 5.919629 4.152576c7.156566-0.088353 182.448259-14.313132 126.697726 32.602134-2.058617 1.705206-4.841726 2.65058-7.863388 2.65058l-120.601391 0.441763a4.594339 4.594339 0 0 0-4.682692 4.417634zM569.4689 565.103664c14.781401 29.094534 11.600705 51.924863-9.542088 68.473318-22.618283 17.670534-59.107935 11.5742-87.734199 11.574199a9.851322 9.851322 0 0 1-9.807146-9.011972c-3.834506-44.061476-4.417633-90.800037-1.767054-140.215684 0.477104-8.658561 7.147731-15.664928 15.726775-16.521949 47.798793-4.771044 132.882413 2.297169 93.123712 77.838701a8.570209 8.570209 0 0 0 0 7.863387z m-60.874988-52.304779a19.52594 19.52594 0 0 0-7.156566-0.441764 5.168631 5.168631 0 0 0-4.682691 5.212808l0.176705 21.116288c0 1.219267 0.494775 2.385522 1.369466 3.251378 0.883527 0.857021 2.067452 1.342961 3.313225 1.34296h31.011787c2.685921 0 5.13329-1.590348 6.273039-4.064222 8.420009-18.792612 1.17509-27.274469-21.734756-25.445569-2.244158 0.176705-5.097949-0.1502-8.570209-0.971879z m-5.654571 66.617911a3.852176 3.852176 0 0 0-1.501995-0.618468c-1.413643-0.185541-2.862626 1.060232-3.357401 2.915638a47.948993 47.948993 0 0 0-0.353411 25.798979c0.574292 2.155805 2.933309 3.595954 5.654571 3.445754l24.473689-1.148585c3.569448-0.229717 6.45858-0.98955 8.040093-2.120464 9.5951-7.13006 10.160557-15.134812 1.6787-24.031925-1.634524-1.740548-4.408798-2.738933-7.598329-2.738933l-24.738747-0.353411c-0.547787 0.008835-1.395972-0.415258-2.29717-1.148585zM700.849318 569.60965c5.389513 45.324919 43.027749 43.646218 78.633874 42.144223 3.039332-0.114858 5.884288 0.874691 7.863388 2.738933 11.132436 10.540473 10.540473 20.02955-1.767054 28.449559-2.244158 1.555007-5.124455 2.359016-8.216798 2.297169-21.911462-0.176705-48.152204 2.738933-67.059675-5.654571-50.626079-22.441578-55.132065-93.212065-27.300974-133.059118 22.971694-32.955545 62.200278-27.124269 96.39276-27.212621 3.13652 0 5.963805 0.910032 7.951741 2.562227 10.125216 8.481856 10.540473 17.582181 1.236937 27.300974a10.708343 10.708343 0 0 1-7.509977 3.092344c-40.995638 0.795174-87.292436-1.678701-80.224222 57.340881zM321.728019 592.404639l-54.248538-0.088353a4.771044 4.771044 0 0 0-4.771044 4.505986c-0.795174 13.606311-5.036102 73.86283-33.397308 31.983666a13.75651 13.75651 0 0 1-2.29717-8.128446c0.229717-20.913077 0.494775-41.463907 0.795174-61.670162 0.706821-52.834895 49.389141-99.220046 100.368631-68.031554 40.112111 24.473689 33.927424 84.200093 33.927425 123.605382 0 18.995824-11.839258 36.489652-31.011787 18.642413a11.220789 11.220789 0 0 1-3.534106-7.686682l-1.501996-28.449559c-0.141364-2.615239-2.040947-4.665021-4.329281-4.682691z m-15.550069-71.654014a20.762877 20.762877 0 0 0-21.646404-1.236937c-12.139657 6.361392-19.031165 16.848854-20.674524 31.453549-0.132529 1.236937 0.238552 2.473875 1.016056 3.392743a4.020046 4.020046 0 0 0 3.048167 1.466654l53.0116 0.088353a4.152575 4.152575 0 0 0 3.180696-1.378302 4.514821 4.514821 0 0 0 1.148585-3.392742c-1.00722-12.130821-7.368613-22.264872-19.084176-30.393318z" fill="#4F697D" /><path d="M517.164121 513.770764c22.909847-1.8289 30.154766 6.652956 21.734756 25.445569a6.935684 6.935684 0 0 1-6.273039 4.064222h-31.011787a4.726868 4.726868 0 0 1-3.313225-1.34296 4.550162 4.550162 0 0 1-1.369466-3.251378l-0.176705-21.116288a5.168631 5.168631 0 0 1 4.682691-5.212808 19.52594 19.52594 0 0 1 7.156566 0.441764c3.47226 0.82168 6.326051 1.148585 8.570209 0.971879zM306.17795 520.750625c11.715564 8.128445 18.076956 18.262496 19.084176 30.393318a4.514821 4.514821 0 0 1-1.148585 3.392742 4.152575 4.152575 0 0 1-3.180696 1.378302l-53.0116-0.088353a4.020046 4.020046 0 0 1-3.048167-1.466654 4.567833 4.567833 0 0 1-1.016056-3.392743c1.64336-14.604696 8.534868-25.092158 20.674524-31.453549a20.762877 20.762877 0 0 1 21.646404 1.236937zM505.236511 580.565381l24.738747 0.353411c3.189531 0 5.963805 0.998385 7.598329 2.738933 8.481856 8.897114 7.916399 16.901865-1.6787 24.031925-1.581513 1.130914-4.470645 1.890747-8.040093 2.120464l-24.473689 1.148585c-2.721262 0.1502-5.080278-1.289949-5.654571-3.445754a47.948993 47.948993 0 0 1 0.353411-25.798979c0.494775-1.855406 1.943759-3.101179 3.357401-2.915638a3.852176 3.852176 0 0 1 1.501995 0.618468c0.901197 0.733327 1.749383 1.15742 2.29717 1.148585z" fill="#E2F0FA" /></svg>