<?xml version="1.0" standalone="no"?><!DOCTYPE svg PUBLIC "-//W3C//DTD SVG 1.1//EN" "http://www.w3.org/Graphics/SVG/1.1/DTD/svg11.dtd"><svg class="icon" width="200px" height="200.00px" viewBox="0 0 1024 1024" version="1.1" xmlns="http://www.w3.org/2000/svg"><path d="M617.799864 133.119344l-0.704848 754.187293c-14.096959 43.991322-38.916417 74.449563-74.449563 91.365914-122.934291 58.616917-245.665938 60.379036-368.194942 5.286359-57.092683-25.72695-85.550918-71.189642-85.462812-134.53785 0.237886-226.670286 0.29075-453.243656 0.176212-679.73773-0.088106-95.947426 82.555315-141.233905 164.758205-159.471846 117.18097-26.079374 315.507558-8.017645 363.877748 122.90786z m-80.616983 18.326046c0-48.22041-82.123595-87.313038-183.436676-87.313038s-183.436676 39.092629-183.436675 87.313038 82.123595 87.313038 183.436675 87.313038 183.436676-39.092629 183.436676-87.313038z m-132.599518 390.485757c-0.352424-19.973628-1.259916-32.185119-2.731286-36.652092-17.885516-54.713821-113.832942-44.40542-104.758025 26.079373 3.171816 24.229148-22.819452 13.832641-33.215959 15.594761-57.180789 9.867871-57.709425 96.299849-4.052875 105.639085 12.775369 2.20265 39.471485-9.515447 37.445046 15.15423-7.400903 89.603794 125.286721 77.268955 104.405601-7.929539a6.3172 6.3172 0 0 1 1.356832-5.709268 6.114556 6.114556 0 0 1 5.42733-2.044059c99.912195 12.687263 89.868112-120.000361 0.528636-106.520145a3.788558 3.788558 0 0 1-4.4053-3.612346z m118.854983 305.022945a13.709292 13.709292 0 0 0-11.400915-0.088106c-3.621156 1.62115-6.343631 4.740102-7.453767 8.546282-14.978019 51.189581-105.198555 61.233665-148.899127 60.616922a15.092556 15.092556 0 0 0-8.281963 2.114544c-13.920747 8.986811-15.180662 18.475827-3.788558 28.458236 2.06168 1.76212 4.819398 2.819392 7.841434 2.995603 52.951701 2.731286 171.806685-13.127793 184.053417-80.176453 1.876658-10.281969-2.140976-17.770979-12.070521-22.467028z" fill="#E2F0FA" /><path d="M617.799864 133.119344c85.991448 5.400897 171.921223 11.541885 257.798133 18.414152 37.268835 2.995604 59.295333 18.590364 59.295333 56.916471 0.114538 207.75393 0.14978 415.446185 0.088106 623.085577 0 45.374586-14.449383 74.009033-63.876844 69.603734a3553.490877 3553.490877 0 0 0-254.009576-13.832641l0.704848-754.187293z m229.07558 154.714122c5.022042-0.026432 9.815008-3.436134 13.339247-9.462584 3.52424-6.03526 5.471382-14.202686 5.427329-22.704914-0.044053-8.511039-2.079301-16.652033-5.665215-22.65205-3.585914-5.991207-8.422933-9.348046-13.444975-9.321614-5.022042 0.026432-9.823818 3.436134-13.348057 9.462583-3.52424 6.03526-5.471382 14.202686-5.42733 22.704914 0.044053 8.511039 2.079301 16.652033 5.665216 22.64324 3.585914 6.000018 8.422933 9.356856 13.444974 9.330425z m17.533092 41.057392a17.268774 17.268774 0 0 0-17.268774-17.268774h-0.528636a17.268774 17.268774 0 0 0-17.268775 17.268774v453.569648a17.268774 17.268774 0 0 0 17.268775 17.268775h0.528636a17.268774 17.268774 0 0 0 17.268774-17.268775v-453.569648z" fill="#C8DAE5" /><path d="M170.30953 151.44539a183.436676 87.313038 0 1 0 366.873351 0 183.436676 87.313038 0 1 0-366.873351 0Z" fill="#C8DAE5" /><path d="M846.531311 223.692743a32.070581 18.942788 89.7 1 0 0.335841 64.140283 32.070581 18.942788 89.7 1 0-0.335841-64.140283Z" fill="#9EBED1" /><path d="M829.342351 311.622084m17.268775 0l0.528636 0q17.268774 0 17.268774 17.268774l0 453.569648q0 17.268774-17.268774 17.268775l-0.528636 0q-17.268774 0-17.268775-17.268775l0-453.569648q0-17.268774 17.268775-17.268774Z" fill="#9EBED1" /><path d="M408.988663 545.543493c89.339476-13.480217 99.383559 119.207407-0.528636 106.520145a6.114556 6.114556 0 0 0-5.42733 2.044059 6.3172 6.3172 0 0 0-1.356832 5.709268c20.88112 85.198494-111.806504 97.533333-104.405601 7.929539 2.026438-24.669678-24.669678-12.951581-37.445046-15.15423-53.656549-9.339235-53.127913-95.771214 4.052875-105.639085 10.396507-1.76212 36.387775 8.634387 33.215959-15.594761-9.074917-70.484794 86.872508-80.793195 104.758025-26.079373 1.47137 4.466974 2.378862 16.678464 2.731286 36.652092a3.788558 3.788558 0 0 0 4.4053 3.612346z" fill="#DC1C4B" /><path d="M523.438346 846.954092c9.929545 4.696049 13.947179 12.185059 12.070521 22.467028-12.246733 67.04866-131.101716 82.907739-184.053417 80.176453a13.110172 13.110172 0 0 1-7.841434-2.995603c-11.392105-9.982409-10.132189-19.471424 3.788558-28.458236 2.290756-1.436128 5.180632-2.167407 8.281963-2.114544 43.700572 0.616742 133.921108-9.427341 148.899127-60.616922 1.110136-3.797368 3.832611-6.925131 7.453767-8.546282 3.621156-1.629961 7.78857-1.594718 11.400915 0.088106z" fill="#C8DAE5" /></svg>