<?xml version="1.0" standalone="no"?><!DOCTYPE svg PUBLIC "-//W3C//DTD SVG 1.1//EN" "http://www.w3.org/Graphics/SVG/1.1/DTD/svg11.dtd"><svg class="icon" width="200px" height="200.00px" viewBox="0 0 1024 1024" version="1.1" xmlns="http://www.w3.org/2000/svg"><path d="M375.249075 267.661264c-17.106573 2.861528-29.089222-2.682683-35.947948-16.632633a8.280547 8.280547 0 0 1 0.447114-7.958625l42.386386-69.392058c1.555956-2.566433 2.387588-5.338538 2.503837-8.316316 3.129796-99.169835 36.216216-163.91191 144.507172-165.342674 124.208207-1.60961 154.16483 99.527526 157.473472 209.517515 1.699032 58.840173-35.321988 137.711043-55.889222 193.242574a12.966299 12.966299 0 0 1-11.982649 8.495162 5802.642582 5802.642582 0 0 1-157.831163 0c-94.341007-1.251919-79.228561-76.009342-81.195861-139.946612a3.845178 3.845178 0 0 0-4.471138-3.666333z" fill="#FFA185" /><path d="M234.497658 250.581518l-7.690357-10.462463c-2.038839-2.843644-3.147681-5.606807-3.040373-7.600934 3.666333-52.133466 63.847847 20.477811 72.07474 28.794127 7.690357 7.752953 7.600934 15.648982-0.268268 23.69703l-40.508508 41.045045c-2.172973 2.172973-4.882482 3.398065-7.511511 3.398065-23.545011-0.11625-28.615282-10.972172-15.201869-32.549883 1.788455-2.861528 1.135669-4.292292-1.9673-4.292293H188.176671c-2.468068 0-4.471138 2.235569-4.471138 5.007675-0.268268 25.127794 8.048048 110.705371-13.592258 122.866865-14.718985 8.226893-22.087421 3.57691-22.087421-13.949949l0.089423-121.883216c0-17.768301 8.76343-27.005672 26.29029-27.721054l57.677677-2.324991c3.460661-0.178846 4.265465-1.520187 2.414414-4.024024z" fill="#4F697D" /><path d="M653.979803 450.083684c100.064063 32.013346 186.088753 104.982315 218.906904 206.208874 9.362562 28.856723 14.218218 75.356556 14.575909 139.499498 0.420287 70.706573 0.420287 141.466799 0 212.289621-0.044711 8.808141-7.15382 15.91725-15.91725 15.91725H156.521016c-11.142075 0-16.865132-5.571038-17.169169-16.722055-1.904705-75.356556-2.950951-151.303302-3.129797-227.84918-0.11625-54.968168 4.417484-95.530329 13.592259-121.70437 37.021021-106.234233 157.831163-173.301299 260.577909-203.436768 61.880547-18.242242 180.186852-24.501835 243.587585-4.20287z m-166.147479 243.140472c0-31.745078 4.918252-71.001668-11.35669-97.202535-22.534534-36.126793-67.603603-41.581581-100.868868-14.754755-90.22756 72.790123-121.07841 251.456788-124.834166 359.390053-1.967301 56.962295 45.784451 79.496829 90.585251 44.711378a195.89843 195.89843 0 0 1 82.44778-37.825826c85.04104-17.079746 65.278611-96.934267 63.311311-180.544542 12.581782-9.657658 16.42696-22.954821 11.535535-39.882549l27.184518-15.55956c2.459126-1.41288 5.231231-1.484418 7.064397-0.178845l30.582582 21.550884a2.208742 2.208742 0 0 0 2.31605 0.214615 2.637971 2.637971 0 0 0 1.448648-2.00307l2.59326-17.795128c0.357691 53.179712 0.500767 106.350483 0.447114 159.530195-0.089423 49.629629 23.965298 65.636302 71.09109 76.27761a175.009274 175.009274 0 0 1 74.489156 36.931598c24.859526 20.746079 60.449782 22.71338 79.049715-4.381715 8.164298-11.8664 11.472939-30.788255 9.925926-56.78345-6.527861-107.664997-38.004671-242.067398-107.75442-327.82382-31.745078-39.077744-84.05739-45.247914-114.192858-0.98365-17.616283 25.843176-12.429763 61.254587-14.575909 92.641974-14.253987-3.639506-21.255789-10.221021-21.014348-19.762429 1.126727-43.575709 1.484418-87.097764 1.073073-130.557223-0.178846-20.146947-9.121121-27.873073-26.826826-23.160493a12.876877 12.876877 0 0 0-9.478812 12.429763v138.784116c-0.062596 11.383517-8.137471 20.298965-24.233567 26.737404z" fill="#FFA185" /><path d="M568.312803 688.753018l1.520187 24.591258-2.59326 17.795128a2.637971 2.637971 0 0 1-1.439706 2.00307 2.208742 2.208742 0 0 1-2.307107-0.214615l-30.582583-21.550884c-1.842109-1.305572-4.614214-1.234034-7.064397 0.178845l-27.184518 15.55956-10.820153-2.59326v-31.297964c16.096096-6.438438 24.170971-15.353887 24.233567-26.737404v-138.784116c-0.008942-5.812479 3.872005-10.900634 9.478812-12.429763 17.705706-4.712579 26.647981 3.013547 26.826826 23.160493 0.411345 43.459459 0.053654 86.981514-1.073073 130.557223-0.241441 9.541408 6.76036 16.122923 21.014348 19.762429z" fill="#E0D5CC" /><path d="M487.832324 693.224156v31.297964l-60.270937 23.69703a4.426426 4.426426 0 0 1-3.541141-0.152019 4.605272 4.605272 0 0 1-2.351819-2.709509l-9.478812-29.777778c-0.98365-3.120854-2.629029-5.615749-4.649983-7.064397-11.088422-7.931798-20.361561-6.080747-27.810477 5.544211a10.37304 10.37304 0 0 0-1.162496 8.316316l12.250918 42.922922c0.715382 2.620087-0.053654 5.365365-1.967301 7.064398-21.550884 18.242242-47.572906 87.187186 0.625959 66.53053a8.45045 8.45045 0 0 0 5.007675-6.259593l2.503837-14.575909a14.397064 14.397064 0 0 1 3.755755-7.511512c24.260393-23.607607 53.054521-38.120921 86.382382-43.548881 1.967301 83.610276 21.72973 163.464796-63.311311 180.544542a195.89843 195.89843 0 0 0-82.44778 37.825826c-44.8008 34.785452-92.552552 12.250917-90.585251-44.711378 3.755756-107.933265 34.606606-286.59993 124.834166-359.390053 33.265265-26.826827 78.334334-21.372038 100.868868 14.754755 16.274941 26.200867 11.35669 65.457457 11.35669 97.202535zM569.83299 713.344276l-1.520187-24.591258c2.146146-31.387387-3.040374-66.798798 14.575909-92.641974 30.135468-44.264264 82.44778-38.094094 114.192859 0.98365 69.749749 85.756422 101.226559 220.158823 107.75442 327.82382 1.555956 25.995195-1.752686 44.91705-9.925926 56.78345-18.599933 27.095095-54.19019 25.127794-79.049716 4.381715a175.009274 175.009274 0 0 0-74.489155-36.931598c-47.125792-10.641308-71.180513-26.647981-71.09109-76.27761 0.062596-53.179712-0.089423-106.350483-0.447114-159.530195z m88.260259 35.321988l-67.156489-24.859526c-2.441241-0.912112-5.258058 0.321922-6.527861 2.861528-5.901902 11.920053-4.945078 22.740207 2.861528 32.46046 1.627494 2.08355 4.193927 3.603737 7.243244 4.292292 29.241241 7.15382 94.78812 29.420086 98.812144 65.54688 0.357691 3.165566 1.564898 5.875075 3.398065 7.600934 17.437437 15.827828 31.47681 0.536537 29.688354-17.616283-1.484418-15.264464-9.237371-29.625759-23.249916-43.101768a15.380714 15.380714 0 0 1-3.755756-16.632632c4.113447-10.730731 25.396062-75.115114-16.811478-51.418084-2.807875 1.60961-4.802002 3.952486-5.54421 6.527861l-8.584585 28.88355a8.289489 8.289489 0 0 1-4.068735 5.025559 7.735068 7.735068 0 0 1-6.295362 0.429229z" fill="#DC1C4B" /><path d="M487.832324 724.52212l10.820153 2.59326c4.891425 16.927728 1.046246 30.224891-11.535535 39.882549-33.318919 5.427961-62.113046 19.941274-86.382382 43.548881a14.397064 14.397064 0 0 0-3.755756 7.511512l-2.503837 14.575909a8.45045 8.45045 0 0 1-5.007674 6.259593c-48.198865 20.656656-22.176843-48.288288-0.625959-66.53053 1.922589-1.699032 2.682683-4.444311 1.9673-7.064398l-12.250917-42.922922a10.37304 10.37304 0 0 1 1.162496-8.316316c7.457858-11.624958 16.722055-13.476009 27.810476-5.544211 2.029897 1.448649 3.666333 3.943544 4.649984 7.064397l9.478812 29.777778c0.39346 1.189323 1.251919 2.172973 2.360761 2.709509 1.117784 0.545479 2.405472 0.599132 3.550083 0.152019l60.270937-23.69703z" fill="#A21538" /><path d="M658.093249 748.666264c2.056723 0.760093 4.337004 0.608075 6.304305-0.429229a8.289489 8.289489 0 0 0 4.077677-5.025559l8.584585-28.88355c0.733267-2.575375 2.727394-4.918252 5.544211-6.527861 42.20754-23.69703 20.924925 40.687354 16.811478 51.418084a15.380714 15.380714 0 0 0 3.755755 16.632632c14.003603 13.476009 21.756556 27.837304 23.249917 43.101768 1.788455 18.152819-12.250917 33.44411-29.688355 17.616283-1.842109-1.725859-3.058258-4.435369-3.398065-7.600934-4.024024-36.126793-69.570904-58.393059-98.812144-65.54688-3.058258-0.688555-5.633634-2.208742-7.243243-4.292292-7.815549-9.720253-8.76343-20.540407-2.861529-32.46046 1.260861-2.539606 4.077678-3.77364 6.527862-2.861528l67.156489 24.859526z" fill="#A21538" /></svg>