<?xml version="1.0" standalone="no"?><!DOCTYPE svg PUBLIC "-//W3C//DTD SVG 1.1//EN" "http://www.w3.org/Graphics/SVG/1.1/DTD/svg11.dtd"><svg class="icon" width="200px" height="200.00px" viewBox="0 0 1024 1024" version="1.1" xmlns="http://www.w3.org/2000/svg"><path d="M794.26099 187.345109l-98.005181-100.932034c26.607742-27.938129 64.302042-73.792137 96.674794-83.903078 44.523621-13.836026 94.989638 31.92929 86.918623 78.670223-6.385858 37.162146-57.561414 78.58153-85.588236 106.164889z" fill="#82ABC4" /><path d="M696.255809 86.413075l98.005181 100.932034c38.847303 31.042365 26.696434 63.592502-3.813776 95.610484-32.9936 34.678757-58.803109 65.721122-106.785736 42.838464a1398.13039 1398.13039 0 0 0-123.282536-123.637306c-36.629991-51.175556 10.288327-82.040537 42.483694-114.147211 30.332825-30.244133 62.262115-35.743066 93.393173-1.596465z m33.942609 155.743981a16.85157 16.85157 0 0 0 0-23.831667l-72.373057-72.373057a16.85157 16.85157 0 0 0-23.831668 0l-1.126394 1.126394a16.85157 16.85157 0 0 0 0 23.831668l72.373057 72.373057a16.85157 16.85157 0 0 0 23.831667 0l1.126395-1.126395z" fill="#9EBED1" /><path d="M560.378942 202.156751c43.698781 38.669918 84.790003 79.88531 123.282536 123.637306l-121.065225 120.976532-45.58793-12.505638c-14.838251-4.079854-22.793965-13.632033-23.858275-28.647669-3.104237-41.508077-35.831759-52.860713-66.164584-70.067053l133.393478-133.393478z" fill="#E2F0FA" /><path d="M426.985464 335.550229c30.332825 17.20634 63.060348 28.558976 66.164584 70.067053 1.06431 15.015636 9.020024 24.567815 23.858275 28.647669l45.58793 12.505638c-87.512862 92.887626-152.551052 158.608748-195.123438 197.163366-12.887016 11.707406-30.74968 15.281713-53.570253 10.731789a8.913593 8.913593 0 0 0-7.627553 1.951234c-72.018287 60.754343-132.950016-8.337092-76.275526-78.049375a8.869247 8.869247 0 0 0 1.685157-7.716245c-5.383633-21.286193-2.988936-37.605608 7.184091-48.958245 24.301737-27.255197 87.007315-89.375404 188.116733-186.342884zM236.562726 721.362483c2.11975 0.860317 3.849253 2.430174 4.878086 4.434623 26.607742 52.328558 89.490704 188.648888 65.809815 244.436453-32.816215 77.162451-144.923499 69.002743-161.952454-9.933557-13.126486-60.754343 41.419384-179.690948 69.712283-234.502896 1.41021-2.820421 3.636391-4.83374 6.11978-5.498933 4.904694-1.303779 10.048857-0.949009 15.43249 1.06431zM347.871779 738.391437c46.208778 22.793965 132.861323 70.244438 102.705882 132.240476-30.51021 62.528193-107.583969 37.162146-117.34014-25.809509a508.092564 508.092564 0 0 1-5.587626-92.417556c0.532155-15.725175 7.272783-20.399269 20.221884-14.013411z" fill="#4895EF" /><path d="M645.910711 134.035155m11.915859 11.915859l72.373166 72.373166q11.915859 11.915859 0 23.831718l-1.128871 1.128871q-11.915859 11.915859-23.831718 0l-72.373166-72.373166q-11.915859-11.915859 0-23.831718l1.128871-1.128871q11.915859-11.915859 23.831718 0Z" fill="#82ABC4" /></svg>