<?xml version="1.0" standalone="no"?><!DOCTYPE svg PUBLIC "-//W3C//DTD SVG 1.1//EN" "http://www.w3.org/Graphics/SVG/1.1/DTD/svg11.dtd"><svg class="icon" width="200px" height="200.00px" viewBox="0 0 1024 1024" version="1.1" xmlns="http://www.w3.org/2000/svg"><path d="M250.360628 100.189363c4.40461-9.628477 4.642458-21.194981 0.704737-34.708323 0.352369-49.243535 55.586173-90.294496 94.699106-47.657875 34.091678 37.262997 23.696799 171.867865-58.669399 138.833293-22.489936-8.985404-34.734751-27.801896-36.734444-56.467095zM599.910443 63.366827c-4.052241 13.213829-2.995135 25.846249 3.171319 37.879643-3.083227-0.880922-4.756978 4.668886-4.845071 7.311652-3.347503 72.147505-109.850963 73.821256-108.265303-14.270935 0.616645-31.184636-5.6379-60.343151 22.287325-82.013831 40.786685-31.713189 85.008965 3.876056 87.65173 51.093471z" fill="#4F697D" /><path d="M599.910443 63.366827c52.150577 3.876056 68.271448 34.355955 68.183356 84.832781-0.052855 40.821921 0.088092 81.661461 0.440461 122.536238l-35.589245-2.554674v-142.797442c0-15.328041-9.954418-23.370858-29.863253-24.13726-6.166453-12.033393-7.22356-24.665814-3.171319-37.879643zM251.065365 65.48104c3.937721 13.513342 3.699872 25.079847-0.704737 34.708323-22.199232 2.528246-33.413368 13.301921-33.651217 32.329835a5595.968365 5595.968365 0 0 0 0.352368 140.418953l-35.589245 1.849936c-0.757593-43.394213-0.405224-86.770808 1.057106-130.112167 1.673752-48.538797 17.794623-77.256852 68.535725-79.19488z" fill="#9EBED1" /><path d="M632.945015 268.181172l35.589245 2.554674c26.427657 15.213521 38.029399 40.143612 34.796416 74.79027-13.478105 146.937775-116.105508 250.534192-261.986177 264.717035-13.442868-4.933163-25.106275-3.083227-34.9726 5.549809 0.79283-4.668886-0.880922-6.783099-5.549808-7.399745-145.704485-16.649424-256.260185-132.754932-254.938802-280.749813 0.264277-26.51575 14.094751-41.139053 35.589245-52.855315l35.589245-1.849936c5.585045 6.695007 12.86146 10.985096 21.846864 12.86146 14.623304 3.171319 22.023048 14.270935 22.199232 33.298848 1.497567 224.72318 315.722414 232.475293 328.143413 8.721127 1.647324-29.246608 16.208963-49.120206 43.693727-59.638414z" fill="#4F697D" /><path d="M807.279462 845.537395l-35.941615 2.202304c0.528553-47.745968 12.06863-167.727532-12.332906-205.783359-28.013317-43.605635-104.12497-39.289117-126.059926 10.04251-10.747247 24.13726-5.725992 59.638414-11.011524 81.221001-24.577721 100.425098-164.732398 111.172346-205.166714 15.768502-15.239949-35.941614-7.311652-90.823049-10.394878-133.195393 9.866325-8.633035 21.529732-10.482971 34.9726-5.549809 2.02612 39.993855-5.461716 105.182076 13.037644 137.07145 25.72292 44.574649 102.89168 43.958003 126.676571-5.197439 14.447119-29.687068 2.907042-67.742895 17.970807-98.751347 56.29091-115.400771 208.161848-74.614086 207.897572 54.176698-0.176184 49.393292-0.052855 98.724919 0.352369 147.994882z" fill="#9EBED1" /><path d="M807.279462 845.537395c31.889373 20.789757 65.188222 33.210756 70.033292 74.79027 13.830474 117.426891-151.254293 143.149811-171.779773 35.324969-9.628477-50.679438 12.306479-86.647479 65.804866-107.912935l35.941615-2.202304z" fill="#4F697D" /></svg>