<?xml version="1.0" standalone="no"?><!DOCTYPE svg PUBLIC "-//W3C//DTD SVG 1.1//EN" "http://www.w3.org/Graphics/SVG/1.1/DTD/svg11.dtd"><svg class="icon" width="200px" height="200.00px" viewBox="0 0 1024 1024" version="1.1" xmlns="http://www.w3.org/2000/svg"><path d="M640.418534 197.731678l84.440263 48.289002 59.902814 57.632445 48.027037 89.504932 16.24187 59.640848c0.768433 2.820497 2.619657 4.968615 4.890026 5.675923 19.682353 5.937888 37.723055 4.715382 54.139569-3.667519 33.35696-17.11509 64.705517-23.227622 93.347096 5.937888 66.189989 67.412496-27.593716 165.300329-99.808916 103.476434a10.740592 10.740592 0 0 0-7.684326-2.619656l-37.461088 2.706978c-2.357691 0.209573-4.392291 2.060796-5.06467 4.62806l-20.084033 75.271465-48.376325 86.972598-57.108513 54.925466a453.672124 453.672124 0 0 1-86.972598 50.559372l-69.508221 19.210815c-2.750639 0.7597-4.820168 2.698246-5.413957 5.064669-13.971502 56.671904 56.584582 92.299233-6.811107 144.867008-70.119474 58.243698-155.869566-36.151261-97.975156-103.476434 1.903617-2.23544 2.881622-4.933687 2.706979-7.509682l-2.7943-33.356961c-0.148447-2.401352-2.043332-4.514541-4.715382-5.239313l-68.722324-19.560102a380.932993 380.932993 0 0 1-87.321886-50.210084l-54.576178-55.274754-52.742419-84.789551-19.210815-77.629156a5.728316 5.728316 0 0 0-5.151991-4.540738l-35.801973-2.183047a12.181403 12.181403 0 0 0-7.85897 2.095725c-40.281586 27.419072-74.223603 26.519657-101.817318-2.706978-59.204238-62.697114 18.250274-152.289368 86.710632-111.59737 23.1403 13.709536 35.103398 13.534892 59.640848 9.692729a6.767446 6.767446 0 0 0 5.501279-4.890025l17.988308-65.840702a561.750422 561.750422 0 0 1 52.393131-85.138838l52.742419-54.925466 85.488126-52.043844 72.739131-18.07563a5.911692 5.911692 0 0 0 4.540738-5.326635l2.357691-43.660943a12.670406 12.670406 0 0 0-2.445013-7.85897c-24.450128-34.116661-25.698831-64.993679-3.754841-92.64852 57.807088-72.826453 162.855317 5.064669 118.059189 79.462915-14.495433 24.10084-12.923639 39.294848-7.771648 64.618196 0.489003 2.453745 2.51487 4.479613 5.239313 5.239313l69.857509 19.298137z m-189.925101 211.056997a54.401535 54.401535 0 1 0-108.80307 0 54.401535 54.401535 0 0 0 108.80307 0z m227.211546 72.215199a77.367191 77.367191 0 1 0-154.734381 0 77.367191 77.367191 0 0 0 154.734381 0z m-160.23566 158.663866a54.226891 54.226891 0 1 0-108.453782 0 54.226891 54.226891 0 0 0 108.453782 0z" fill="#DC1C4B" /><path d="M381.596465 196.683815l-85.488126 52.043844c-8.382901-26.982463-17.289733-39.556814-43.660943-55.187432-73.437706-43.398977-22.267081-157.179394 58.680307-128.974425 36.797443 12.810121 52.829741 41.652539 48.114359 86.535989-0.218305 2.209244 0.489003 4.951151 2.008404 7.771648l20.345999 37.810376zM724.858797 246.02068l-84.440263-48.289002 22.354402-40.779321c1.414615-2.541067 1.938546-5.413957 1.484473-8.120935-6.575338-40.281586 7.02068-67.822908 40.77932-82.606504 86.797954-38.072342 148.883815 91.338692 51.694556 134.126416-2.724443 1.19631-4.977347 3.082463-6.461819 5.413957l-25.410669 40.255389zM243.36592 303.653125a561.750422 561.750422 0 0 0-52.393131 85.138838l-41.565218-22.179759a12.312386 12.312386 0 0 0-8.120935-1.309828c-98.673731 16.591158-122.337962-125.481549-26.371209-140.588236 31.732773-4.951151 56.034454 6.924626 72.913774 35.62733 15.106686 25.759956 30.038729 33.182316 55.536719 43.311655zM832.788648 393.158057l-48.027037-89.504932 38.945561-23.227622a11.613811 11.613811 0 0 0 5.151991-6.199854c22.005115-61.649251 101.293387-69.595543 133.078553-11.963098 29.951407 54.314213-20.345999 111.335404-78.677019 103.301791a16.163281 16.163281 0 0 0-8.295579 0.873218 140.107965 140.107965 0 0 0-42.17647 26.720497zM831.304176 644.208478c22.005115 14.408111 33.968213 24.362806 62.435148 25.410669 44.656412 1.632919 69.193862 22.555243 73.612349 62.784436 9.867373 89.417611-110.898795 110.898795-138.754476 28.990866a11.910705 11.910705 0 0 0-5.239313-6.287176l-40.430033-23.926197 48.376325-86.972598zM190.972789 646.391525l52.742419 84.789551-45.145415 25.410669c-2.069529 1.178845-3.885824 3.580197-5.064669 6.723785-31.523201 86.885276-159.537085 48.812934-136.396786-40.517355 10.129339-39.233723 38.893168-56.872744 86.274023-52.917062 2.960212 0.288162 5.850566-0.296894 8.29558-1.659116l39.294848-21.830472zM298.291386 786.45583a380.932993 380.932993 0 0 0 87.321886 50.210084l-24.712094 41.565217c-1.353489 2.252905-1.816295 5.169456-1.309828 8.208258 8.382901 49.773475-31.261235 98.237121-80.947388 89.068323-75.708075-13.88418-84.090976-114.217026-9.954695-141.286811 2.759372-1.012934 4.994812-2.881622 6.287176-5.239313l23.314943-42.525758zM725.819338 786.106542l24.188162 44.272196c1.047863 2.008403 3.449214 3.833431 6.636463 5.06467 93.259774 36.238582 41.21593 168.967848-47.939715 135.348922-30.038729-11.351845-49.336865-41.041286-44.970771-75.271465 2.619657-20.695287-15.717939-40.779321-24.886737-58.854951a453.672124 453.672124 0 0 0 86.972598-50.559372z" fill="#A21538" /><path d="M396.091898 408.788675m-54.401535 0a54.401535 54.401535 0 1 0 108.80307 0 54.401535 54.401535 0 1 0-108.80307 0Z" fill="#F0517A" /><path d="M600.337788 481.003874m-77.36719 0a77.367191 77.367191 0 1 0 154.734381 0 77.367191 77.367191 0 1 0-154.734381 0Z" fill="#F0517A" /><path d="M463.242428 639.66774m-54.226891 0a54.226891 54.226891 0 1 0 108.453782 0 54.226891 54.226891 0 1 0-108.453782 0Z" fill="#F0517A" /></svg>