<?xml version="1.0" standalone="no"?><!DOCTYPE svg PUBLIC "-//W3C//DTD SVG 1.1//EN" "http://www.w3.org/Graphics/SVG/1.1/DTD/svg11.dtd"><svg class="icon" width="200px" height="200.00px" viewBox="0 0 1024 1024" version="1.1" xmlns="http://www.w3.org/2000/svg"><path d="M703.710783 138.814784c11.485878 46.514729 9.904043 92.537331-4.745504 138.059019-82.958443 160.116825-296.41825 164.950209-372.961474-2.90003-15.932591-45.934723-17.575941-91.597018-4.921263-137.004463 71.8856-184.811023 314.609349-181.032195 382.628241 1.845474z m-243.163147 154.844043c14.236512 50.355072 106.070806 43.324695 104.84049-12.03952-0.228487-10.255562-0.114244-18.01534 0.351518-23.288122a4.921264 4.921264 0 0 1 4.921264-4.481865c38.93071-0.703038 66.173419-5.624301 68.80981-49.036876 2.548511-42.358018-18.278979-60.285479-57.561208-58.264246-13.761962 0.703038-19.975057-5.510058-18.630497-18.630497 7.118256-70.391645-86.91303-74.170472-102.467738-22.057807-3.07579 10.281926 0 23.551761-2.548512 35.9428a4.745504 4.745504 0 0 1-5.272782 3.690948c-89.90094-9.930407-95.261602 110.289032-9.05161 106.510204 26.012393-1.142436 12.742557 27.945747 16.609265 41.654981z" fill="#E2F0FA" /><path d="M321.082542 136.96931c-12.654678 45.407444-11.011327 91.06974 4.921263 137.004463l-182.877669 1.406075c-76.718984-20.300212-75.840187-125.84374-2.109113-136.652943 18.929289-2.750635 78.951128-3.339429 180.065519-1.757595zM881.31567 275.379848l-182.350391 1.493955c14.649547-45.521688 16.231382-91.54429 4.745504-138.059019 87.176669-5.334298 147.673059-5.184903 181.471594 0.439399 73.115916 12.127399 71.270442 115.386055-3.866707 136.125665z" fill="#4F697D" /><path d="M326.003805 273.973773c76.543224 167.850239 290.003031 163.016855 372.961474 2.90003l182.350391-1.493955 2.196993 705.234644-13.181956-0.703038 0.703038-127.601333a4.569745 4.569745 0 0 0-4.481866-4.569745l-197.992978-1.493955a167.692056 167.692056 0 0 1-0.351519-61.164276c49.036876-5.184903 46.400485-103.522294-2.196993-103.610174-103.988057-0.061516-207.949749-0.026364-311.885078 0.08788-41.654981 0.08788-53.95814 116.79213 19.685055 103.522294l-13.357716 2.900031c-2.320024 0.500914-3.998527 2.794575-4.042466 5.536421l-0.527278 50.530831c-67.781618 3.752463-135.563235 3.664584-203.353641-0.263639-2.961546-0.166971-5.439754-1.871838-6.239459-4.306106l-1.318196-4.218225-1.845474-559.88161 182.877669-1.406075z m65.382502 231.563026a43.500455 43.500455 0 0 0-43.500455-43.500455h-47.103522a43.500455 43.500455 0 0 0-43.500455 43.500455v48.861117a43.500455 43.500455 0 0 0 43.500455 43.500455h47.103522a43.500455 43.500455 0 0 0 43.500455-43.500455v-48.861117z m189.011672 2.407904a45.433808 45.433808 0 0 0-45.117441-45.750175l-44.99441-0.316367a45.433808 45.433808 0 0 0-45.750175 45.117441l-0.316367 44.99441a45.433808 45.433808 0 0 0 45.117442 45.750175l44.994409 0.316367a45.433808 45.433808 0 0 0 45.750176-45.117441l0.316366-44.99441z m186.586193-2.320024a43.588334 43.588334 0 0 0-43.588334-43.588335h-46.752004a43.588334 43.588334 0 0 0-43.588334 43.588335v48.509598a43.588334 43.588334 0 0 0 43.588334 43.588334h46.752004a43.588334 43.588334 0 0 0 43.588334-43.588334v-48.509598z" fill="#C8DAE5" /><path d="M668.207382 785.082145l-133.137755 0.615158c-2.42548 0-4.393985 2.003657-4.393985 4.481865v186.217098c0 2.42548 2.012445 4.393985 4.481865 4.393985l133.049875-0.878797c67.377371 3.225185 134.754742 3.225185 202.123325 0l13.181956 0.703038c12.127399-0.175759 138.498417-12.03952 93.679767 32.86701-1.845474 1.898202-4.604897 2.90003-7.557655 2.724271-27.242709-1.643351-63.800667-0.237275-109.673874 4.218226-41.066187 4.042466-94.936447 4.657624-161.61078 1.845474-211.790092-8.87585-424.458982-4.306106-636.512713-6.503098-19.157776-0.175759-34.712484-13.621354-16.521385-30.670018a11.775881 11.775881 0 0 1 7.645535-3.07579l85.506954-2.460631 219.875025 1.845473 131.6438 0.351519c2.42548 0 4.393985-1.810322 4.393986-4.042466l0.175759-188.58985a4.306106 4.306106 0 0 0-4.306105-4.306106l-116.440611 0.263639c-73.643194 13.269836-61.340035-103.434414-19.685055-103.522294 103.935329-0.114244 207.897021-0.149396 311.885078-0.08788 48.597478 0.08788 51.233869 98.425271 2.196993 103.610174z" fill="#4F697D" /><path d="M373.810366 785.082145l116.440611-0.263639c2.372752 0 4.306106 1.933354 4.306105 4.306106l-0.175759 188.58985c0 2.232145-1.968505 4.042466-4.393986 4.042466l-131.6438-0.351519-2.460631-137.355981 0.527278-50.530831c0.04394-2.741847 1.722442-5.035507 4.042466-5.536421l13.357716-2.900031zM668.207382 785.082145c-3.629432 20.449608-3.515188 40.8377 0.351519 61.164276l-0.351519 133.665033-133.049875 0.878797a4.437925 4.437925 0 0 1-4.481865-4.393985v-186.217098c0-2.478208 1.968505-4.481865 4.393985-4.481865l133.137755-0.615158z" fill="#E2F0FA" /><path d="M144.97161 835.261458l1.318196 4.218225c0.799705 2.434268 3.277913 4.139134 6.239459 4.306106 67.790406 3.928223 135.572023 4.016103 203.353641 0.263639l2.460631 137.355981-219.875025-1.845473c0.263639-40.512545-7.469775-109.761753 6.503098-144.298478zM668.558901 846.246421l197.992978 1.493955a4.569745 4.569745 0 0 1 4.481866 4.569745l-0.703038 127.601333c-67.368583 3.225185-134.745954 3.225185-202.123325 0l0.351519-133.665033z" fill="#9EBED1" /><path d="M565.388126 281.610519c1.230316 55.364215-90.603977 62.394592-104.84049 12.03952-3.866707-13.709234 9.403129-42.797417-16.609265-41.654981-86.209992 3.778827-80.84933-116.440611 9.05161-106.510204a4.745504 4.745504 0 0 0 5.272782-3.690948c2.548511-12.391039-0.527278-25.660874 2.548512-35.9428 15.554708-52.112666 109.585994-48.333839 102.467738 22.057807-1.34456 13.129228 4.859748 19.333535 18.630497 18.630497 39.282229-2.021233 60.109719 15.906227 57.561208 58.264246-2.636391 43.412575-29.8791 48.333839-68.80981 49.036876a4.921264 4.921264 0 0 0-4.921264 4.481865c-0.465762 5.272782-0.588794 13.041348-0.351518 23.288122z" fill="#DC1C4B" /><path d="M257.281875 462.036344m43.500455 0l47.103522 0q43.500455 0 43.500455 43.500455l0 48.861117q0 43.500455-43.500455 43.500455l-47.103522 0q-43.500455 0-43.500455-43.500455l0-48.861117q0-43.500455 43.500455-43.500455Z" fill="#E2F0FA" /><path d="M444.853608 461.563756m45.432701 0.317185l44.993313 0.314117q45.432701 0.317185 45.115516 45.749887l-0.314118 44.993313q-0.317185 45.432701-45.749886 45.115516l-44.993313-0.314118q-45.432701-0.317185-45.115516-45.749886l0.314118-44.993313q0.317185-45.432701 45.749886-45.115516Z" fill="#E2F0FA" /><path d="M633.0555 462.036344m43.588334 0l46.752004 0q43.588334 0 43.588334 43.588335l0 48.509598q0 43.588334-43.588334 43.588334l-46.752004 0q-43.588334 0-43.588334-43.588334l0-48.509598q0-43.588334 43.588334-43.588335Z" fill="#E2F0FA" /></svg>