<?xml version="1.0" standalone="no"?><!DOCTYPE svg PUBLIC "-//W3C//DTD SVG 1.1//EN" "http://www.w3.org/Graphics/SVG/1.1/DTD/svg11.dtd"><svg class="icon" width="200px" height="200.00px" viewBox="0 0 1024 1024" version="1.1" xmlns="http://www.w3.org/2000/svg"><path d="M619.496495 671.937582c-23.326792-149.519435-109.71491-236.537467-259.164355-261.064093 38.46471-112.454533 69.36046-192.973459 92.687252-241.566775 69.690415-145.679963 251.165455-209.571176 397.045391-142.880349 170.876498 78.08926 228.968508 297.359102 116.883924 449.238213-77.28937 104.685602-227.768673 151.079221-347.452212 196.273004z m206.171643-519.828503c16.097786 12.398295 40.394444 21.397057 38.39472-11.598405a13.248178 13.248178 0 0 0-4.099437-8.598817c-47.723436-45.993674-104.445635-62.131454-170.176594-48.393344-22.796865 4.79934-32.895476 25.596479-8.498831 38.594692 2.639637 1.409806 5.95918 1.769757 9.298721 0.999862 50.263087-11.338441 95.286894-1.66977 135.081421 28.996012z m-173.826092-36.265012c-7.41898-8.838784-24.506629-6.709077-38.174749 4.759345-13.658121 11.458424-18.727424 27.926159-11.298446 36.764944 7.408981 8.838784 24.496631 6.709077 38.164751-4.749347 13.658121-11.468423 18.727424-27.926159 11.298446-36.774942z" fill="#4895EF" /><path d="M360.33214 410.873489c149.449445 24.526627 235.837563 111.544658 259.164355 261.064093l-96.686702 42.194197c-20.597167 7.898914-32.395544 0.499931-34.195297-21.59703-7.598955-94.786963-59.591804-144.750091-155.978546-149.879385-2.459662-0.129982-5.559235-1.369812-8.79879-3.499519l-15.597855-10.39857 52.092835-117.883786z" fill="#2C5EB5" /><path d="M308.239305 528.757275l15.597855 10.39857c3.239554 2.129707 6.339128 3.369537 8.79879 3.499519 96.386743 5.129295 148.379592 55.092423 155.978546 149.879385 1.799752 22.096961 13.59813 29.495943 34.195297 21.59703-165.577227 85.248275-318.286223 186.804307-458.136988 304.658098-8.258864 6.90905-19.827273 6.949044-26.596342 0.099986l-30.495806-30.495806c-10.458562-10.46856-10.098611-21.73701 1.099849-33.795352 118.253735-126.852553 218.110001-268.803029 299.558799-425.84143z" fill="#E2F0FA" /><path d="M825.668138 152.109079c-39.794527-30.665782-84.828333-40.334452-135.081421-28.996012a13.358163 13.358163 0 0 1-9.298721-0.999862c-24.396645-12.998212-14.298033-33.795352 8.498831-38.594692 65.720961-13.73811 122.443159 2.39967 170.176594 48.393344 2.439664 2.379673 3.899464 5.439252 4.099437 8.598817 1.999725 32.995462-22.296933 23.9967-38.39472 11.598405z" fill="#E2F0FA" /><path d="M602.355617 157.370395a20.897126 32.295558 50 1 0 49.479666-41.518369 20.897126 32.295558 50 1 0-49.479666 41.518369Z" fill="#E2F0FA" /></svg>