<?xml version="1.0" standalone="no"?><!DOCTYPE svg PUBLIC "-//W3C//DTD SVG 1.1//EN" "http://www.w3.org/Graphics/SVG/1.1/DTD/svg11.dtd"><svg class="icon" width="200px" height="200.00px" viewBox="0 0 1024 1024" version="1.1" xmlns="http://www.w3.org/2000/svg"><path d="M923.635791 433.955092l-81.672072-77.495155-169.653957-171.164756a5.065624 5.065624 0 0 0-5.421106-1.244189l-3.199341 1.066447c0-3.972515-0.853158-6.931906-2.577247-8.887059-19.133838-21.631102-43.457719-46.80814-72.962754-75.540001-20.529106-89.670425 60.16539-133.750238 122.463673-71.807437a56841.025164 56841.025164 0 0 1 286.252171 287.052006c60.520872 61.054095 11.375436 146.01438-73.229367 118.020144z" fill="#9EBED1" /><path d="M588.149314 100.690379c29.505036 28.731862 53.828916 53.9089 72.962754 75.540001 1.724089 1.955153 2.577247 4.914544 2.577247 8.887059l-106.644708 108.866473-80.783367 79.005955c-25.950212 25.861342-59.987648 54.388801-72.074048 86.737696-42.569013 113.754355 68.963578 204.402357 174.008615 153.390639 19.142725-9.304751 43.191107-31.993412 72.16292-68.074872l78.828213-79.094826 112.776779-109.488567 81.672072 77.495155c-147.933984 149.595864-236.804575 238.617535-266.61177 267.056123-74.118072 70.82986-166.543486 51.989295-258.169065 39.369672-14.86805-2.079572-27.692076 2.275087-38.480965 13.063977l-172.497816 171.875721-89.670425-90.29252 178.274404-179.429721c3.528162-3.590372 5.447767-8.398271 5.332235-13.330589a1122.613295 1122.613295 0 0 0-8.887059-117.575791c-9.420283-74.029202 12.530753-121.041744 66.475202-174.541839a41139.591466 41139.591466 0 0 0 248.748782-249.459746z" fill="#E2F0FA" /><path d="M557.044607 293.983912l172.142333 171.964592-78.828213 79.094826-174.097487-172.053463zM98.20575 835.028065l89.670425 90.29252c28.882942 51.633813-13.50833 118.642238-72.25179 93.047508-9.953506-4.327998-23.906189-15.232419-41.858048-32.704377-38.658707-37.59226-94.558308-81.849814-65.408754-129.128968 19.675949-32.055622 49.625338-39.227479 89.848167-21.506683z" fill="#9EBED1" /></svg>