<?xml version="1.0" standalone="no"?><!DOCTYPE svg PUBLIC "-//W3C//DTD SVG 1.1//EN" "http://www.w3.org/Graphics/SVG/1.1/DTD/svg11.dtd"><svg class="icon" width="200px" height="103.91px" viewBox="0 0 1971 1024" version="1.1" xmlns="http://www.w3.org/2000/svg"><path d="M1528.327368 270.617359c21.879305 14.552901 37.031639 34.034474 45.457002 58.444717 6.660367 151.972917-19.9811 297.8849-79.9244 437.7526-19.315063 14.552901-34.51735 33.634852-45.623512 57.279154-253.093934 284.897185-674.695145 248.598186-931.785298-3.496693a100.138613 100.138613 0 0 0-38.1306-50.618787c-61.824854-125.314799-91.18042-258.305671-88.083349-398.955964-3.99622-41.294273 10.107106-74.362994 42.293329-99.239463 164.178039-141.033264 388.299377-300.882065 616.583445-267.247213 170.338878 24.976375 353.998489 149.025704 479.213383 266.081649z m-844.534495 109.396522c215.029938 41.194368 432.424307 37.581119 652.216407-10.823096 23.760858-5.328293 30.088206-18.748932 18.982045-40.295218-10.207012-19.747987-27.740427-26.974485-52.616897-21.646192-215.013287 45.623512-432.474259 45.623512-652.382916 0-22.978265-4.762162-36.182442 4.445795-39.629182 27.640522-6.493858 42.459838 48.121149 40.295218 73.430543 45.123984z m548.148177 107.89794c-178.497827 50.951805-322.028729 39.795691-500.693065-0.333018a18.482518 18.482518 0 0 0-14.985825 2.997165c-56.946135 42.293328 3.163674 63.273483 36.798526 71.432433 156.968192 38.197203 313.436856 36.965035 469.389342-3.663202 33.96787-8.991495 78.758836-36.632017 24.809866-68.768286a19.148554 19.148554 0 0 0-15.318844-1.665092z m-568.129277 205.97184c-5.877774 22.095766 3.496693 36.132489 28.140049 42.126819 195.048838 47.621622 390.197582 47.188698 585.446231-1.332073 5.494803-1.398677 10.207012-4.462446 13.320733-8.658477 38.796636-50.951805-16.650917-59.110754-51.617842-50.951805-178.597733 41.743848-357.378625 40.295218-536.326026-4.329238-20.647137-5.095181-33.634852 2.614194-38.963145 23.144774z" fill="#E2F0FA" /><path d="M432.53054 271.782923c-32.186222 24.87647-46.289548 57.94519-42.293329 99.239463-20.53058-85.91873-68.268758-147.693631-143.197883-185.324703-82.422038-41.460783-140.533737-20.480628-159.349273 73.430543-55.94708 278.902855 22.478738 595.436781 390.630505 510.850124a100.138613 100.138613 0 0 1 38.1306 50.618787c-35.399849 17.766528-72.364884 27.091041-110.895105 27.97354-359.493292 8.658477-452.738425-300.715556-385.135704-594.271217 65.771121-285.729731 313.370252-124.881875 412.110189 17.483463zM1448.236458 824.09383c11.106161-23.644302 26.308448-42.726252 45.623512-57.279154 389.298432 104.234739 471.220943-295.720281 372.481007-563.63353-8.092346-22.079116-23.810811-34.134379-47.122095-36.132489-106.898885-9.491023-194.649216 76.594217-245.434512 162.013419-8.425364-24.410244-23.577698-43.891816-45.457002-58.444717 82.089019-122.051219 345.006994-296.552826 415.107353-49.453223 64.938575 229.449632 31.636742 554.309017-249.430732 615.417881-83.587602 18.216103-165.510112 14.053374-245.767531-12.488187z" fill="#82ABC4" /><path d="M683.792873 380.013881c-25.309393-4.828766-79.9244-2.664147-73.430543-45.123984 3.44674-23.194727 16.650917-32.402684 39.629182-27.640522 219.908657 45.623512 437.369629 45.623512 652.382916 0 24.87647-5.328293 42.409885 1.898205 52.616897 21.646192 11.106161 21.546286 4.778813 34.966925-18.982045 40.295218-219.7921 48.404215-437.186469 52.017464-652.216407 10.823096zM731.247985 487.578803c178.664336 40.128709 322.195238 51.284823 500.693065 0.333018 5.328293-1.581837 10.8897-0.982404 15.318844 1.665092 53.94897 32.136269 9.158004 59.776791-24.809866 68.768286-155.952486 40.628237-312.42115 41.860405-469.389342 3.663202-33.634852-8.158949-93.744661-29.139104-36.798526-71.432433a18.482518 18.482518 0 0 1 14.985825-2.997165zM663.811773 693.883661c5.328293-20.53058 18.316008-28.239955 38.963145-23.144774 178.947402 44.624457 357.728294 46.073087 536.326026 4.329238 34.966925-8.158949 90.414478 0 51.617842 50.951805-3.113721 4.196031-7.825931 7.2598-13.320733 8.658477-195.248649 48.520771-390.397393 48.953695-585.446231 1.332073-24.643357-5.99433-34.017823-20.031053-28.140049-42.126819z" fill="#82ABC4" /></svg>