<?xml version="1.0" standalone="no"?><!DOCTYPE svg PUBLIC "-//W3C//DTD SVG 1.1//EN" "http://www.w3.org/Graphics/SVG/1.1/DTD/svg11.dtd"><svg class="icon" width="200px" height="200.00px" viewBox="0 0 1024 1024" version="1.1" xmlns="http://www.w3.org/2000/svg"><path d="M515.13422 764.556508l-37.053297 0.35205c-32.740681-3.582112-46.505849-22.091158-41.277902-55.53594a5.298357 5.298357 0 0 0-1.161766-4.207001 4.928705 4.928705 0 0 0-3.854951-1.777855l-73.314482 0.528076a3.467696 3.467696 0 0 0-2.737191 1.355394 4.039778 4.039778 0 0 0-0.792113 3.133248c5.544793 34.148882-10.033434 53.599663-45.062443 53.775688-41.189889 0.35205-77.275048-4.928705-63.897135-59.320481a4.796686 4.796686 0 0 0-3.080441-5.632805c-84.668105-29.220178-96.725829-86.956432-96.989866-174.352927-0.290442-79.325741-0.202429-158.660283 0.264038-237.986025l165.199618-0.616088c2.948422-0.052808 5.650408-1.390599 7.305044-3.608516 13.905988-18.658668-0.35205-28.516077-18.570655-29.044152a2282.210285 2282.210285 0 0 0-153.934007 0.264037v-30.804404c8.361195-0.088013 186.850714 14.434064 132.458937-32.652668-2.041892-1.760252-4.82309-2.72839-7.83312-2.72839l-124.625817 0.176025v-31.420492l162.295203 0.968138c2.86921 0 5.579998-1.144164 7.481069-3.168453 22.707246-24.995574-5.984856-31.860555-24.467498-32.212605-47.817236-0.880126-95.634473-0.325647-143.46051 1.672239 16.106303-92.413212 77.099023-118.112886 164.407505-118.288912 69.970004-0.176025 190.723267-13.025862 250.131761 12.23375 71.818268 30.628379 80.795551 90.740973 80.619526 167.751983-0.290442 205.949444-0.290442 329.228669 0 369.828874 0.475268 71.466217-31.358883 119.459479-95.493652 143.988586a5.192742 5.192742 0 0 0-3.168453 5.80883c5.518389 28.692102-4.277412 49.199034-29.396203 61.520796z m71.818268-616.616157c-10.56151-48.670958-38.461499-81.587664-87.924571-82.907853-17.690529-0.440063-27.195888 13.553938-15.402202 28.340051 1.575425 2.024289 4.180598 3.353279 7.217032 3.696529 37.722193 4.110188 58.845213 24.96917 63.36906 62.576946 0.396057 3.203658 1.505015 5.949651 3.168453 7.83312 5.861638 6.627348 11.617661 8.563624 17.250466 5.808831 10.737535-5.219146 14.838922-13.668354 12.321762-25.347624z m-37.14131 201.812853a18.04258 18.04258 0 0 0-13.905988 0.528075 160.570157 160.570157 0 0 1-68.913853 14.874127c-81.939715-0.792113-155.430222-67.681676-235.961735-9.681384a8.581227 8.581227 0 0 0-3.520503 6.952994 29284.250733 29284.250733 0 0 0-0.352051 143.724548c0 144.428649 114.416358 118.112886 215.894867 117.584811 47.526795-0.264038 84.49208-6.952994 106.495225-48.582946 24.467498-46.382631 11.353623-156.486373 9.945422-213.166476-0.123218-5.694414-3.344478-9.769397-9.681384-12.233749z" fill="#E2F0FA" /><path d="M146.185472 154.453282c-1.531419-12.38337-0.915331-23.296931 1.848264-32.740681 47.817236-1.997886 95.634473-2.552365 143.460511-1.672239 18.482642 0.35205 47.174745 7.217032 24.467498 32.212605-1.909873 2.024289-4.620661 3.168453-7.48107 3.168453l-162.295203-0.968138zM146.185472 185.873774l124.625818-0.176025c2.992428 0 5.782427 0.968138 7.833119 2.72839 54.391776 47.086732-124.097742 32.564656-132.458937 32.652668v-35.205033zM146.185472 284.88793v-33.004719a2282.210285 2282.210285 0 0 1 153.934008-0.264037c18.218605 0.528075 32.476643 10.385485 18.570655 29.044152a9.267725 9.267725 0 0 1-7.305045 3.608516l-165.199618 0.616088z" fill="#9EBED1" /><path d="M478.080923 764.908558l37.053297-0.35205c-4.990313 47.764429-4.699872 79.827413 0.880126 96.197753 16.106303 47.262757 62.488934 68.913853 107.199326 46.734682 60.024582-29.924278 26.403775-117.320773 43.918279-170.920437 24.20346-74.018582 110.631817-102.534659 170.744411-53.1596 34.76497 28.516077 40.749826 61.34477 40.749826 108.431502-0.123218 71.527826-0.123218 142.994044 0 214.398653 0 3.018832-0.90653 5.835234-2.552365 8.009145-16.810403 21.915133-32.916706 2.72839-32.828693-16.986429 0.228833-71.879877 0.202429-143.724548-0.088013-215.542816-0.264038-61.960858-48.934996-113.096169-110.895855-77.099022-60.200607 34.940995-23.411347 115.120459-42.59809 171.184474-24.027435 69.970004-105.703112 98.926143-165.815706 54.479789-51.135311-37.757398-47.966858-93.645388-45.766543-165.375644z" fill="#DC1C4B" /><path d="M499.027917 65.032498c49.463072 1.320189 77.363061 34.236895 87.924571 82.907853 2.51716 11.67927-1.584226 20.128478-12.321762 25.347624-5.632805 2.754794-11.388828 0.818517-17.250466-5.808831-1.663438-1.883469-2.772396-4.629462-3.168453-7.83312-4.523847-37.607777-25.646867-58.466759-63.36906-62.576946-3.036434-0.343249-5.641607-1.672239-7.217032-3.696529-11.793686-14.786114-2.288327-28.780115 15.402202-28.340051z" fill="#9EBED1" /><path d="M549.811178 349.753204c6.336906 2.464352 9.558167 6.539335 9.681384 12.233749 1.408201 56.680103 14.522076 166.783845-9.945422 213.166476-22.003146 41.629952-58.968431 48.318908-106.495225 48.582946-101.478508 0.528075-215.894866 26.843838-215.894867-117.584811 0-47.993262 0.114416-95.907312 0.352051-143.724548 0-2.763595 1.302586-5.342364 3.520503-6.952994 80.531513-58.000292 154.02202 8.889271 235.961735 9.681384 23.939423 0.176025 46.910707-4.779083 68.913853-14.874127a18.04258 18.04258 0 0 1 13.905988-0.528075z" fill="#DC1C4B" /></svg>