<?xml version="1.0" standalone="no"?><!DOCTYPE svg PUBLIC "-//W3C//DTD SVG 1.1//EN" "http://www.w3.org/Graphics/SVG/1.1/DTD/svg11.dtd"><svg class="icon" width="200px" height="200.00px" viewBox="0 0 1024 1024" version="1.1" xmlns="http://www.w3.org/2000/svg"><path d="M513.821912 228.277606l-285.018175 283.476065a30978.064817 30978.064817 0 0 0-166.366433-167.273557c-45.174746-45.174746-74.111982-77.921901-57.874473-137.882758 12.881152-47.533267 100.055712-119.649578 136.522073-155.662377 70.755626-69.75779 127.087989-66.854995 194.94082 2.539946a5985.436098 5985.436098 0 0 0 177.796188 174.802681z m-333.141072-83.183217c-6.622001-7.520053-19.729934-6.785283-29.281943 1.632822-9.542938 8.409034-11.91053 21.3174-5.279458 28.846525 6.622001 7.510982 19.729934 6.785283 29.272872-1.632823 9.552009-8.418105 11.919602-21.326471 5.288529-28.846524z m16.010729 183.238929a1179.151576 1179.151576 0 0 0-58.963022-60.323707c-19.503153-18.505318-19.593866-37.373484-2.267808-56.332364 2.122669-2.358521 3.156789-5.243173 2.812082-7.891973-2.812083-22.678085-22.587373-23.313072-34.742826-7.256988-52.068884 68.487817 45.174746 134.979963 87.628121 176.435503 8.164111 7.982686 16.119583 7.764976 23.857345-0.634986 16.509646-18.051756-8.799097-33.472854-18.323892-43.995485z" fill="#FD8C35" /><path d="M795.030168 511.753671l-283.113215 283.113215a22670.882641 22670.882641 0 0 0-166.63857 165.822159c-45.71902 45.991157-79.282586 75.472668-140.150567 57.602337-42.453375-12.518303-186.685997-158.202322-200.020711-200.837123-14.33255-45.537595 2.902795-82.638942 37.19206-117.472481 61.929315-62.899937 124.094482-125.636592 186.504572-188.228107l285.018175-283.476065c52.431733-53.157432 105.044891-106.106225 157.839473-158.837309 36.16701-36.103512 64.31505-57.575123 84.453189-64.405762 83.001792-28.211538 157.748761 74.837681 230.137209 147.861115 72.47916 73.114147 31.023621 136.159224-31.749319 198.660027a19923.604972 19923.604972 0 0 0-159.472296 160.197994z m27.757977-409.384794a17.05392 17.05392 0 1 0-34.10784 0 17.05392 17.05392 0 0 0 34.10784 0z m54.608829 55.153103a16.600358 16.600358 0 1 0-33.200717 0 16.600358 16.600358 0 0 0 33.200717 0z m-66.854995 12.42759a16.963208 16.963208 0 1 0-33.926416 0 16.963208 16.963208 0 0 0 33.926416 0z m-71.844174 15.783948a16.691071 16.691071 0 1 0-33.382142 0 16.691071 16.691071 0 0 0 33.382142 0z m194.487259 27.304414a16.872495 16.872495 0 1 0-33.744991 0 16.872495 16.872495 0 0 0 33.744991 0z m-67.580694 11.974029a16.872495 16.872495 0 1 0-33.744991 0 16.872495 16.872495 0 0 0 33.744991 0z m-70.483489 15.965372a17.05392 17.05392 0 1 0-34.10784 0 17.05392 17.05392 0 0 0 34.10784 0z m-69.939215 14.33255a17.144632 17.144632 0 1 0-34.289265 0 17.144632 17.144632 0 0 0 34.289265 0z m125.18303 41.183403a17.235345 17.235345 0 1 0-34.470689 0 17.235345 17.235345 0 0 0 34.470689 0z m-70.120639 14.241837a17.144632 17.144632 0 1 0-34.289265 0 17.144632 17.144632 0 0 0 34.289265 0z m-123.423211 51.343185c-42.99765-43.58728-113.172716-44.077126-156.769067-1.088548l-135.2521 133.374355a110.868623 110.868623 0 0 0-1.088549 156.759996l6.748999 6.848782c42.988578 43.58728 113.172716 44.086198 156.759996 1.088548l135.2521-133.374355a110.868623 110.868623 0 0 0 1.088548-156.750925l-6.739927-6.857853z m-386.561569 348.426101a17.144632 17.144632 0 1 0-34.289265 0 17.144632 17.144632 0 0 0 34.289265 0z m-70.302064 14.786112a17.05392 17.05392 0 1 0-34.10784 0 17.05392 17.05392 0 0 0 34.10784 0z m125.727304 40.548416a17.144632 17.144632 0 1 0-34.289265 0 17.144632 17.144632 0 0 0 34.289265 0z m-69.939215 14.604687a17.144632 17.144632 0 1 0-34.289264 0 17.144632 17.144632 0 0 0 34.289264 0z m-71.209187 15.602523a17.05392 17.05392 0 1 0-34.10784 0 17.05392 17.05392 0 0 0 34.10784 0z m-67.943543 12.336878a16.963208 16.963208 0 1 0-33.926416 0 16.963208 16.963208 0 0 0 33.926416 0z m194.396546 27.12299a16.963208 16.963208 0 1 0-33.926415 0 16.963208 16.963208 0 0 0 33.926415 0z m-70.937051 15.783947a17.144632 17.144632 0 1 0-34.289264 0 17.144632 17.144632 0 0 0 34.289264 0z m-68.124967 12.699728a16.963208 16.963208 0 1 0-33.926416 0 16.963208 16.963208 0 0 0 33.926416 0z m55.334527 55.153103a16.872495 16.872495 0 1 0-33.74499 0 16.872495 16.872495 0 0 0 33.74499 0z" fill="#FDA35D" /><path d="M795.030168 511.753671c64.587187 65.49431 129.564436 130.716483 194.940821 195.666519 45.628307 45.265458 42.725513 108.945521 1.269973 155.753089-56.486575 63.734491-102.568444 109.607721-138.245608 137.610621-53.520281 41.999814-110.306206 22.496661-155.934514-22.496661a48193.470997 48193.470997 0 0 1-185.143887-183.420353l283.113215-283.113215z m38.462033 198.569314a1483.917827 1483.917827 0 0 1 47.442554 48.168253c19.77529 20.981764 20.80034 40.57563 3.08422 58.781596-2.086384 2.13174-2.948151 5.025464-2.267809 7.619837 12.79044 50.798911 72.569873-18.686742 40.004143-74.384119-7.683335-13.126076-38.979093-44.721184-93.887273-94.794397a13.153289 13.153289 0 0 0-7.801261-3.537781c-12.999078-0.671271-19.77529 5.44274-20.319565 18.323893-0.126997 2.72137 1.025049 5.533453 3.174932 7.801261 15.783947 16.926923 25.970943 27.603765 30.570059 32.021457z m7.266058 175.002248c7.27513 6.894138 20.265137 5.007321 29.02795-4.227196 4.199981-4.426762 6.848782-9.9965 7.35677-15.475525 0.507989-5.469954-1.170189-10.413777-4.662614-13.724777-7.266058-6.894138-20.256066-5.007321-29.018878 4.227195-4.209053 4.435833-6.848782 9.9965-7.356771 15.475525-0.507989 5.479025 1.170189 10.413777 4.653543 13.724778z" fill="#FD8C35" /><path d="M805.734225 102.368877m-17.05392 0a17.05392 17.05392 0 1 0 34.10784 0 17.05392 17.05392 0 1 0-34.10784 0Z" fill="#EC7523" /><path d="M146.116879 175.571306a18.142468 23.040935 48.6 1 0 34.566521-30.474487 18.142468 23.040935 48.6 1 0-34.566521 30.474487Z" fill="#CE5D12" /><path d="M860.796616 157.52198m-16.600359 0a16.600358 16.600358 0 1 0 33.200717 0 16.600358 16.600358 0 1 0-33.200717 0Z" fill="#EC7523" /><path d="M793.578771 169.94957m-16.963208 0a16.963208 16.963208 0 1 0 33.926416 0 16.963208 16.963208 0 1 0-33.926416 0Z" fill="#EC7523" /><path d="M722.006734 185.733518m-16.691071 0a16.691071 16.691071 0 1 0 33.382142 0 16.691071 16.691071 0 1 0-33.382142 0Z" fill="#EC7523" /><path d="M196.691569 328.333318c9.524796 10.522632 34.833539 25.943729 18.323892 43.995485-7.737763 8.409034-15.693235 8.617672-23.857345 0.634986-42.453375-41.45554-139.697005-107.947686-87.628121-176.435503 12.155454-16.056084 31.930744-15.421098 34.742826 7.256988 0.344707 2.6488-0.689414 5.533453-2.812082 7.891973-17.326057 18.958879-17.235345 37.827046 2.267808 56.332364a1179.151576 1179.151576 0 0 1 58.963022 60.323707z" fill="#CE5D12" /><path d="M916.312568 213.037932m-16.872495 0a16.872495 16.872495 0 1 0 33.744991 0 16.872495 16.872495 0 1 0-33.744991 0Z" fill="#EC7523" /><path d="M848.731874 225.011961m-16.872495 0a16.872495 16.872495 0 1 0 33.744991 0 16.872495 16.872495 0 1 0-33.744991 0Z" fill="#EC7523" /><path d="M778.066961 240.977333m-17.05392 0a17.05392 17.05392 0 1 0 34.10784 0 17.05392 17.05392 0 1 0-34.10784 0Z" fill="#EC7523" /><path d="M708.037034 255.309883m-17.144633 0a17.144632 17.144632 0 1 0 34.289265 0 17.144632 17.144632 0 1 0-34.289265 0Z" fill="#EC7523" /><path d="M833.129352 296.493286m-17.235345 0a17.235345 17.235345 0 1 0 34.470689 0 17.235345 17.235345 0 1 0-34.470689 0Z" fill="#EC7523" /><path d="M763.099425 310.735123m-17.144633 0a17.144632 17.144632 0 1 0 34.289265 0 17.144632 17.144632 0 1 0-34.289265 0Z" fill="#EC7523" /><path d="M285.877017 572.200027m78.92843-77.834004l135.250516-133.375125q78.928429-77.834003 156.762433 1.094426l6.751558 6.846492q77.834003 78.928429-1.094426 156.762433l-135.250516 133.375125q-78.928429 77.834003-156.762433-1.094426l-6.751558-6.846492q-77.834003-78.928429 1.094426-156.762433Z" fill="#EC7523" /><path d="M833.492201 710.322985c-4.599116-4.417691-14.786112-15.085462-30.570059-32.021457-2.149882-2.267809-3.292858-5.079891-3.174932-7.801261 0.544274-12.881152 7.320486-18.986093 20.319565-18.323893 2.703228 0.181425 5.460883 1.424184 7.801261 3.537781 54.90818 50.073212 86.203937 81.66832 93.887273 94.794397 32.56573 55.697377-27.213702 125.18303-40.004143 74.384119-0.680343-2.594373 0.181425-5.488097 2.267809-7.619837 17.71612-18.205967 16.691071-37.799832-3.08422-58.781596a1483.917827 1483.917827 0 0 0-47.442554-48.168253z" fill="#CE5D12" /><path d="M253.114645 710.504409m-17.144633 0a17.144632 17.144632 0 1 0 34.289265 0 17.144632 17.144632 0 1 0-34.289265 0Z" fill="#EC7523" /><path d="M182.903293 725.290521m-17.05392 0a17.05392 17.05392 0 1 0 34.10784 0 17.05392 17.05392 0 1 0-34.10784 0Z" fill="#EC7523" /><path d="M308.539885 765.838937m-17.144633 0a17.144632 17.144632 0 1 0 34.289265 0 17.144632 17.144632 0 1 0-34.289265 0Z" fill="#EC7523" /><path d="M238.60067 780.443624m-17.144632 0a17.144632 17.144632 0 1 0 34.289264 0 17.144632 17.144632 0 1 0-34.289264 0Z" fill="#EC7523" /><path d="M167.482195 796.046147m-17.05392 0a17.05392 17.05392 0 1 0 34.10784 0 17.05392 17.05392 0 1 0-34.10784 0Z" fill="#EC7523" /><path d="M99.629364 808.383025m-16.963208 0a16.963208 16.963208 0 1 0 33.926416 0 16.963208 16.963208 0 1 0-33.926416 0Z" fill="#EC7523" /><path d="M294.02591 835.506015m-16.963207 0a16.963208 16.963208 0 1 0 33.926415 0 16.963208 16.963208 0 1 0-33.926415 0Z" fill="#EC7523" /><path d="M222.907435 851.289962m-17.144632 0a17.144632 17.144632 0 1 0 34.289264 0 17.144632 17.144632 0 1 0-34.289264 0Z" fill="#EC7523" /><path d="M154.963892 863.98969m-16.963208 0a16.963208 16.963208 0 1 0 33.926416 0 16.963208 16.963208 0 1 0-33.926416 0Z" fill="#EC7523" /><path d="M872.484181 851.902716a18.142468 23.040935 43.5 1 0-31.720666 33.426607 18.142468 23.040935 43.5 1 0 31.720666-33.426607Z" fill="#CE5D12" /><path d="M210.389132 919.142793m-16.872495 0a16.872495 16.872495 0 1 0 33.74499 0 16.872495 16.872495 0 1 0-33.74499 0Z" fill="#EC7523" /></svg>