<?xml version="1.0" standalone="no"?><!DOCTYPE svg PUBLIC "-//W3C//DTD SVG 1.1//EN" "http://www.w3.org/Graphics/SVG/1.1/DTD/svg11.dtd"><svg class="icon" width="200px" height="199.61px" viewBox="0 0 1026 1024" version="1.1" xmlns="http://www.w3.org/2000/svg"><path d="M665.626406 245.834906L904.1859 8.021493c10.566376-10.566376 20.983536-10.696941 31.242154-0.373041l87.664553 88.224114c4.532444 4.616378 4.607052 11.918649 0.18652 16.413788l-244.061844 244.155104a6.341691 6.341691 0 0 0-1.025861 7.367553c94.938845 176.075186-159.101836 286.028916-227.741316 115.6426a11.573586 11.573586 0 0 0-5.87539-6.15517c-183.069698-82.628503-36.651244-328.928591 113.963918-226.808714a5.59561 5.59561 0 0 0 7.087772-0.652821z m48.308764 187.639446c-29.936512-19.304854-22.568959 30.029772-55.396536 35.718641-3.245454 0.587539-5.87539 2.238244-7.181033 4.476488-5.287851 9.577819-3.795689 18.027189 4.476488 25.366764 2.144984 1.921159 5.147961 2.956347 8.393415 2.891065 34.189175-1.184404 53.372791-18.372252 57.54152-51.572869a17.43965 17.43965 0 0 0-7.833854-16.880089z" fill="#E2F0FA" /><path d="M389.016766 254.414841m17.53291 0l1.865204 0q17.53291 0 17.53291 17.53291l0 52.785252q0 17.53291-17.53291 17.53291l-1.865204 0q-17.53291 0-17.53291-17.53291l0-52.785252q0-17.53291 17.53291-17.53291Z" fill="#9EBED1" /><path d="M334.098265 308.594074m12.571874 12.354346l37.649104 36.997672q12.571874 12.354346 0.217528 24.926221l-1.176604 1.197321q-12.354346 12.571874-24.926221 0.217528l-37.649104-36.997672q-12.571874-12.354346-0.217528-24.92622l1.176605-1.197322q12.354346-12.571874 24.92622-0.217528Z" fill="#9EBED1" /><path d="M251.551287 391.787059m16.507049 0l55.583057 0q16.507049 0 16.507048 16.507049l0 2.051723q0 16.507049-16.507048 16.507049l-55.583057 0q-16.507049 0-16.507049-16.507049l0-2.051723q0-16.507049 16.507049-16.507049Z" fill="#9EBED1" /><path d="M241.945491 660.656106c-97.73665-166.096348 158.075974-286.308697 228.300876-111.725674 1.072492 2.751175 3.217476 4.998745 5.96865 6.248431 170.759356 77.778975 59.593243 316.61825-115.54934 226.249152a6.295061 6.295061 0 0 0-7.367553 1.119122L119.494898 1016.536884c-9.764339 9.820295-19.491374 9.950859-29.19043 0.37304l-82.908284-82.535243c-10.016141-9.950859-9.857599-20.144195 0.4663-30.589333l233.336925-235.761689c1.865203-1.930485 2.172962-4.942789 0.746082-7.367553z m93.353422-88.410634c14.548585-6.807992 47.655943-17.905951 17.905951-38.516446a13.261595 13.261595 0 0 0-8.486675-2.144984c-58.567382 4.569748-71.810325 85.985869-28.071309 71.530544 2.769827-0.885972 5.008071-3.086911 6.061911-5.96865l6.901252-18.465512c1.137774-2.937695 3.170846-5.241221 5.68887-6.434952z" fill="#E2F0FA" /><path d="M684.957467 601.812603m16.22665-0.141608l53.715808-0.468771q16.22665-0.141608 16.368258 16.085043l0.040692 4.66283q0.141608 16.22665-16.085043 16.368258l-53.715807 0.468771q-16.22665 0.141608-16.368258-16.085042l-0.040692-4.662831q-0.141608-16.22665 16.085042-16.368258Z" fill="#9EBED1" /><path d="M629.92763 655.796376m12.308491-12.22286l1.588192-1.577143q12.308491-12.22286 24.531351 0.085631l37.720008 37.984267q12.22286 12.308491-0.085631 24.531351l-1.588192 1.577143q-12.308491 12.22286-24.531351-0.085631l-37.720008-37.984267q-12.22286-12.308491 0.085631-24.531351Z" fill="#9EBED1" /><path d="M598.681908 686.148588m17.626144-0.030763l1.8652-0.003255q17.626144-0.030763 17.656908 17.59538l0.092453 52.971691q0.030763 17.626144-17.59538 17.656907l-1.865201 0.003256q-17.626144 0.030763-17.656907-17.595381l-0.092453-52.971691q-0.030763-17.626144 17.59538-17.656907Z" fill="#9EBED1" /><path d="M713.93517 433.474352a17.43965 17.43965 0 0 1 7.833854 16.880089c-4.168729 33.200618-23.352345 50.388465-57.54152 51.572869a12.217081 12.217081 0 0 1-8.393415-2.891065c-8.272176-7.339575-9.764339-15.788945-4.476488-25.366764 1.305642-2.238244 3.935579-3.888949 7.181033-4.476488 32.827577-5.68887 25.460024-55.023496 55.396536-35.718641zM329.610043 578.680424l-6.901252 18.465512a9.680405 9.680405 0 0 1-6.061911 5.96865c-43.739016 14.455325-30.496073-66.960796 28.071309-71.530544 3.077585-0.242476 6.061911 0.512931 8.486675 2.144984 29.749992 20.610496-3.357366 31.708455-17.905951 38.516446-2.518024 1.19373-4.551096 3.497256-5.68887 6.434952z" fill="#9EBED1" /></svg>