<?xml version="1.0" standalone="no"?><!DOCTYPE svg PUBLIC "-//W3C//DTD SVG 1.1//EN" "http://www.w3.org/Graphics/SVG/1.1/DTD/svg11.dtd"><svg class="icon" width="200px" height="200.00px" viewBox="0 0 1024 1024" version="1.1" xmlns="http://www.w3.org/2000/svg"><path d="M221.319519 928.416723l-122.107114-126.789135c25.189274-26.781162 70.136678-60.304434 82.497215-94.483189 22.286421-61.924413 44.760123-123.792642 67.421106-185.595323a100.569817 100.569817 0 0 1 23.878308-37.36253c141.771604-141.706055 283.515115-283.421475 425.221171-425.12753 62.083602-62.083602 112.555791-84.931866 182.130627-20.507253 86.804674 80.343485 205.821654 167.803642 105.626399 268.279818a592322.940075 592322.940075 0 0 1-442.451009 443.293773 104.146881 104.146881 0 0 1-37.362529 24.25287c-68.919353 26.219319-138.091535 51.848703-207.507182 76.878789-2.434651 0.936404-4.897394 2.650024-7.397594 5.150223l-69.949398 72.009487z m621.837972-810.176958a69.012993 69.012993 0 0 0-97.601415-0.327742l-217.807629 216.28129a69.012993 69.012993 0 0 0-0.337106 97.601415l64.658714 65.117552a69.012993 69.012993 0 0 0 97.601415 0.337106l217.807629-216.290654a69.012993 69.012993 0 0 0 0.337105-97.592051l-64.658713-65.117552z m-257.979372 454.156062a18.353523 18.353523 0 0 0-0.04682-25.957126L470.637151 432.356571a18.353523 18.353523 0 0 0-25.957125 0.037456l-0.655483 0.664847a18.353523 18.353523 0 0 0 0.037456 25.957126L558.565511 573.09813a18.353523 18.353523 0 0 0 25.957125-0.037456l0.655483-0.664847z m-86.270923 22.801443a18.072602 18.072602 0 0 0-0.262193-25.563836l-52.054713-50.968483a18.072602 18.072602 0 0 0-25.563836 0.271557l-1.039409 1.067501a18.072602 18.072602 0 0 0 0.262194 25.563836l52.054712 50.968483a18.072602 18.072602 0 0 0 25.563836-0.271557l1.039409-1.067501z m-56.689914 56.231076a68.544791 68.544791 0 1 0-137.089582 0 68.544791 68.544791 0 0 0 137.089582 0z" fill="#E2F0FA" /><path d="M99.212405 801.627588l122.107114 126.789135c-48.131179 50.846751-116.301408 139.898795-191.588309 69.574836-73.975936-69.106634 5.712066-143.363491 69.481195-196.363971z" fill="#4F697D" /><path d="M478.781411 382.827115m48.9696-48.628916l217.805089-216.289806q48.969601-48.628916 97.598517 0.340685l64.662602 65.115615q48.628916 48.969601-0.340685 97.598517l-217.805089 216.289806q-48.969601 48.628916-97.598516-0.340685l-64.662602-65.115615q-48.628916-48.969601 0.340684-97.598517Z" fill="#9EBED1" /><path d="M457.644383 419.39727m13.000532 12.95523l114.484274 114.085345q13.000532 12.95523 0.045302 25.955762l-0.660982 0.663292q-12.95523 13.000532-25.955762 0.045302l-114.484274-114.085345q-13.000532-12.95523-0.045301-25.955762l0.660981-0.663292q12.95523-13.000532 25.955762-0.045302Z" fill="#9EBED1" /><path d="M433.67814 506.022269m12.91238 12.644737l52.050943 50.97205q12.91238 12.644737 0.267644 25.557117l-1.048269 1.070457q-12.644737 12.91238-25.557117 0.267643l-52.050943-50.972049q-12.91238-12.644737-0.267643-25.557118l1.048268-1.070456q12.644737-12.91238 25.557117-0.267644Z" fill="#9EBED1" /><path d="M373.672491 651.428346m-68.544791 0a68.544791 68.544791 0 1 0 137.089582 0 68.544791 68.544791 0 1 0-137.089582 0Z" fill="#4F697D" /></svg>