<?xml version="1.0" standalone="no"?><!DOCTYPE svg PUBLIC "-//W3C//DTD SVG 1.1//EN" "http://www.w3.org/Graphics/SVG/1.1/DTD/svg11.dtd"><svg class="icon" width="200px" height="174.89px" viewBox="0 0 1171 1024" version="1.1" xmlns="http://www.w3.org/2000/svg"><path d="M547.09193 62.632575c70.123239 57.927893 110.04122 128.16002 119.77572 210.696378 20.144098 172.041488-90.049563 286.59063-219.189566 382.62898l-33.101654 27.657302-126.417827 80.031958c-60.758956 33.646088-188.592314 95.385027-237.918133 46.930305-77.309782-76.112025-46.71253-350.180648-29.835043-453.623315 24.935127-153.095147 78.616427-292.143868 240.313648-341.905235 99.010965-30.488365 194.472213-14.623526 286.372855 47.583627z m-384.588945 153.966242a33.591645 33.591645 0 0 0-6.642108 18.293019c-1.023538 18.075245 8.961402 23.672038 29.94393 16.768601 3.157724-0.979983 6.021452-3.299277 8.057639-6.533221 46.745197-72.148538 114.14626-103.58422 202.203191-94.296157 3.680381 0.413771 7.197432-0.609767 9.690945-2.831063 30.379478-26.677319 2.613288-40.397083-22.104065-41.703727-88.634032-4.932582-162.350543 31.838564-221.149532 110.302548z m326.225504-51.394672c5.781901-11.030255-1.959966-26.492211-17.291258-34.538962-15.331292-8.057639-32.448331-5.651236-38.241121 5.379019-5.792789 11.019366 1.959966 26.481323 17.291259 34.528073 15.331292 8.057639 32.448331 5.640348 38.24112-5.379019z" fill="#DC1C4B" /><path d="M547.09193 62.632575c156.906192-17.095262 346.369603 75.56759 481.171731 157.559514 48.236949 29.399495 132.842161 85.585196 142.315331 142.424219 20.579646 123.586765-343.647427 270.693125-433.914764 301.725925a651.449248 651.449248 0 0 1-195.996632 25.152901l-1.197757-1.959966a4.769251 4.769251 0 0 0-3.484384-2.286628 389.347308 389.347308 0 0 1-88.307371-29.290607c129.140003-96.038349 239.333664-210.587492 219.189566-382.62898-9.734499-82.536359-49.65248-152.768485-119.77572-210.696378z m219.08068 491.842657l0.979983 0.76221c1.077981 0.881985 2.722175 1.08887 4.35548 0.544435a711.40244 711.40244 0 0 0 215.160747-114.65803c2.918172-2.286627 4.769251-5.466128 5.11769-8.819848 1.807524-16.474606-5.270132-25.218233-21.232969-26.241771-3.310165-0.206885-6.859882 0.871096-10.017605 3.048836a966.971159 966.971159 0 0 1-202.747627 108.778131c-3.375498 1.306644-5.912565 3.887267-6.859882 6.968769-4.355481 14.449307 0.141553 23.922478 13.50199 28.419511 0.435548 0.152442 1.012649 0.544435 1.742193 1.197757z m-31.468348-10.910479a19.70855 19.70855 0 0 0-22.800942-16.01728l-39.046884 6.805439a19.70855 19.70855 0 0 0-16.028169 22.81183l0.566212 3.212167a19.70855 19.70855 0 0 0 22.800942 16.028169l39.046884-6.816327a19.70855 19.70855 0 0 0 16.028169-22.800942l-0.566212-3.223056z" fill="#A21538" /><path d="M736.664228 664.342233a8486.980801 8486.980801 0 0 0-168.992651 222.782838c-26.241771 35.714942-26.132884 69.36103-16.877488 109.649226 4.203039 18.075245-2.983504 27.112867-21.559629 27.112868l-109.758114 0.108887c-16.485494 0-23.563151-8.122972-21.232968-24.390692 6.20656-43.228146 13.937538-94.296157-10.997589-133.059935-15.244182-23.661149-48.280504-57.960559-99.087186-102.898232l126.417827-80.031958a237.221256 237.221256 0 0 0 50.523576 53.463526c11.759798 9.146509 22.136731 8.97229 31.141687-0.544435l44.425903-47.039192a651.449248 651.449248 0 0 0 195.996632-25.152901z" fill="#E0D5CC" /><path d="M162.492096 216.598817C221.291086 138.134833 295.007596 101.363687 383.641629 106.296269c24.717353 1.306644 52.483542 15.026408 22.104064 41.703727a12.424009 12.424009 0 0 1-9.690944 2.831063C308.008706 141.542996 240.607642 172.978678 193.851557 245.127216c-2.025299 3.233944-4.899916 5.553238-8.057639 6.533221-20.97164 6.903437-30.956579 1.306644-29.94393-16.768601 0.359327-6.598553 2.667732-12.957555 6.642108-18.293019z" fill="#A21538" /><path d="M433.185944 136.036089a31.359461 22.539613 27.7 1 0 55.530934 29.154392 31.359461 22.539613 27.7 1 0-55.530934-29.154392Z" fill="#A21538" /><path d="M764.419529 553.277475c-13.349548-4.497034-17.857471-13.970204-13.501991-28.419511 0.958206-3.081503 3.484385-5.662125 6.859883-6.968769a966.971159 966.971159 0 0 0 202.747626-108.778131c3.179501-2.17774 6.70744-3.266611 10.017606-3.048836 15.973725 1.023538 23.051382 9.767165 21.232968 26.241771-0.348438 3.35372-2.199518 6.533221-5.11769 8.819848a711.40244 711.40244 0 0 1-215.160746 114.65803c-1.622417 0.544435-3.266611 0.33755-4.355481-0.544435l-0.979983-0.76221a5.70568 5.70568 0 0 0-1.742192-1.197757z" fill="#7E102C" /><path d="M653.431777 537.742438m19.415076-3.388474l39.044685-6.814388q19.415077-3.388473 22.80355 16.026603l0.561625 3.217969q3.388473 19.415077-16.026603 22.80355l-39.044685 6.814388q-19.415077 3.388473-22.803549-16.026603l-0.561626-3.217969q-3.388473-19.415077 16.026603-22.80355Z" fill="#7E102C" /></svg>