<?xml version="1.0" standalone="no"?><!DOCTYPE svg PUBLIC "-//W3C//DTD SVG 1.1//EN" "http://www.w3.org/Graphics/SVG/1.1/DTD/svg11.dtd"><svg class="icon" width="200px" height="200.00px" viewBox="0 0 1024 1024" version="1.1" xmlns="http://www.w3.org/2000/svg"><path d="M498.437428 89.325557c-12.544395 4.970421-21.420146 13.846171-26.627253 26.627253-10.887588 0.71006-20.047363 4.295863-27.455656 10.769245-3.38462 2.863909-7.218944 4.082845-10.059185 3.19527l-54.201252-15.858008c-7.420128-41.503011 5.278113-75.893588 38.106557-103.195398a9.704154 9.704154 0 0 1 10.059185-1.42012c35.65685 15.147948 59.05333 41.775201 70.177604 79.881758z m-67.929081-34.082883c-7.100601 16.414222-3.90533 24.970446 9.585811 25.680506a11.183446 11.183446 0 0 0 9.822498-4.733734c6.390541-9.147941 3.46746-17.313631-8.757408-24.497073a7.455631 7.455631 0 0 0-10.650901 3.550301z" fill="#FDDD44" /><path d="M712.402197 107.077059l-0.946747-14.201201c-0.319527-4.106514-2.449707-4.769237-6.390541-2.011837l-19.763338 13.727828-11.834335-0.946747c6.863914-41.420171-14.674575-59.290016-21.183459-88.284136 12.544395-12.863922 23.195296-12.579898 31.952703 0.828404 22.011862 33.60951 43.432008 59.40836 28.165717 90.887689z" fill="#F8C52D" /><path d="M652.283777 15.360966c6.508884 28.99412 28.047373 46.863965 21.183459 88.284136-24.852103 3.704147-45.053312-5.479297-60.591793-27.573999 5.917167-23.349142 19.053279-43.585854 39.408334-60.710137z" fill="#FDDD44" /><path d="M612.875443 76.071103c15.538481 22.094703 35.73969 31.278146 60.591793 27.573999l11.834335 0.946747c-18.544402 12.224868-28.402403 29.668677-29.585837 52.307759a46.828462 46.828462 0 0 1-24.970446-2.248524 12.733744 12.733744 0 0 1-7.337287-8.047347c-7.656814-21.929022-11.171612-45.443845-10.532558-70.532634z" fill="#FC9743" /><path d="M712.402197 107.077059l-15.739665 38.461588c-6.627227 10.177528-16.331382 14.284042-29.112463 12.307708l-11.834335-0.946747c1.183433-22.639082 11.041434-40.082891 29.585837-52.307759l19.763338-13.727828c3.940833-2.7574 6.071014-2.094677 6.390541 2.011837l0.946747 14.201201zM498.437428 89.325557l-2.958584 79.881759c-12.863922 9.550308-27.502994 15.301795-43.905381 17.278128h-2.958584c-2.769234-26.982283 4.970421-50.497106 23.195296-70.532634 5.207107-12.781081 14.082858-21.656832 26.627253-26.627253z" fill="#FA7621" /><path d="M471.810175 115.95281c-18.224875 20.035528-25.96453 43.550351-23.195296 70.532634l-28.99412 3.313614c-3.053258 0.35503-6.627227-1.763316-9.23078-5.443794-14.284042-20.201209-24.378729-43.633192-30.295897-70.295947l54.201252 15.858008c2.84024 0.887575 6.674565-0.331361 10.059185-3.19527 7.408293-6.473381 16.568068-10.059184 27.455656-10.769245z" fill="#FC9743" /><path d="M788.851998 511.929645l-38.461587 3.431957c-11.360961-44.142068 9.585811-121.893646 11.834334-170.532761 1.301777-28.875776 9.704154-63.077003 7.810661-95.384737-1.656807-28.520746 9.349124-53.846222 3.550301-83.195372a68.213104 68.213104 0 0 1 10.887587-40.946798c2.094677-3.289945 5.479297-5.467463 9.230781-5.917167 38.816617-5.207107 35.621347 21.301802 32.781107 50.532609-10.970428 114.165826-23.514823 228.165971-37.633184 342.012269z" fill="#2844AE" /><path d="M696.662532 145.538647l4.733734 36.213063c0.378699 3.053258 2.213021 6.568056 5.207107 9.940841 6.071014 6.946754 5.715984 14.236704-1.06509 21.893519l-46.863965 0.473374-53.254506-5.917168c-14.757415-11.278121-15.029605-20.236712-0.828403-26.863939 17.514815-8.284034 70.295947 13.609485 62.95866-23.431982 12.781081 1.976334 22.485236-2.13018 29.112463-12.307708z" fill="#A8D3D8" /><path d="M773.585707 166.248732c5.798824 29.34915-5.207107 54.674626-3.550301 83.195372 1.893494 32.307733-6.508884 66.50896-7.810661 95.384737-2.248524 48.639115-23.195296 126.390693-11.834334 170.532761l-38.934961-2.958584 62.130257-346.154286z" fill="#3855C8" /><path d="M495.478844 169.207316a80.591818 80.591818 0 0 1 18.224875 40.946797l-47.337338 5.917168c-0.7929-11.834335-5.727818-21.692335-14.792918-29.585837 16.402388-1.976334 31.04146-7.72782 43.905381-17.278128z" fill="#CBE5E6" /><path d="M605.419812 208.142276l53.254506 5.917168-5.917167 55.266342-58.6983-5.443794c10.331374-16.958601 14.118361-35.538507 11.360961-55.739716z" fill="#F1EFF2" /><path d="M513.703719 210.154113c15.621322 7.810661 17.431975 17.834342 5.443794 30.05921l-52.781132 8.402378-59.171673 9.822497c-14.366882-7.01776-16.769252-15.704162-7.218944-26.035536 2.04734-2.213021 5.680481-3.940833 10.177528-4.852077l56.213089-11.479304 47.337338-5.917168z" fill="#A8D3D8" /><path d="M658.674318 214.059444l46.863965-0.473374-14.319545 58.6983-38.461587-2.958584zM519.147513 240.213323l15.266292 70.532634-47.337338 5.917167a189.645212 189.645212 0 0 0-20.710086-68.047423l52.781132-8.402378z" fill="#CBE5E6" /><path d="M466.366381 248.615701a189.645212 189.645212 0 0 1 20.710086 68.047423l-70.532635 15.266292c3.230773-25.17163 0.118343-49.668702-9.349124-73.491218l59.171673-9.822497z" fill="#F1EFF2" /><path d="M594.058851 263.881992l58.6983 5.443794 38.461587 2.958584c18.532568 24.224883 9.147941 35.30182-28.165716 33.25448a315.645372 315.645372 0 0 1-47.218995-6.153854c-26.982283-5.680481-34.248564-17.514815-21.775176-35.503004zM534.413805 310.745957c10.248534 6.3077 12.071021 15.349132 5.443794 27.100626l-57.869896 13.136112-48.520772 8.994094c-4.544384 0.828403-8.520721 0.579882-11.005931-0.71006-10.650901-5.360954-12.627235-14.473391-5.917168-27.337313l70.532635-15.266292 47.337338-5.917167z" fill="#A8D3D8" /><path d="M661.632901 514.888229h-47.337338c5.988173-43.230824 12.307708-86.426145 18.934935-129.585964 2.7574-17.905348-3.242608-26.118376-17.988188-24.615416-2.887578 0.284024-5.798824-1.621304-7.218944-4.733734a10.236699 10.236699 0 0 0-8.047348-6.272197 36.426082 36.426082 0 0 1 0.71006-20.591742 7.396459 7.396459 0 0 1 8.047348-4.970421l70.177604 9.940841c3.159767 0.461539 5.360954 3.5503 4.97042 6.982258l-22.248549 173.846375z" fill="#2844AE" /><path d="M539.857599 337.846583l-2.958584 44.378755-52.781132 5.443794c13.171614-13.964515 12.461554-26.189382-2.13018-36.686437l57.869896-13.136112z" fill="#CBE5E6" /><path d="M599.976018 349.680918c3.857993 0.71006 6.544387 2.804737 8.047348 6.272197 1.42012 3.11243 4.331366 5.017758 7.218944 4.733734 14.745581-1.50296 20.745589 6.710068 17.988188 24.615416a8989.999594 8989.999594 0 0 0-18.934935 129.585964l-20.710085-2.958584 6.39054-162.248727z" fill="#3351C5" /><path d="M536.899015 382.225338l18.224875 132.662891h-50.295922l-13.727828-78.935012a7.159772 7.159772 0 0 0-7.692317-5.798824l-37.278154 2.366867-5.325451-28.99412a6.745571 6.745571 0 0 1 5.325451-7.810661l37.988214-8.047347 52.781132-5.443794z" fill="#2844AE" /><path d="M504.827968 514.888229l-40.946797-2.485211-17.751502-79.881758 37.278154-2.366867c3.763318-0.260355 7.100601 2.248524 7.692317 5.798824l13.727828 78.935012z" fill="#3351C5" /><path d="M463.881171 512.403018l40.946797 2.485211h50.295922l38.461588-2.958584 20.710085 2.958584h47.337338l49.822549-2.485211 38.934961 2.958584c12.224868 32.89945 13.207117 66.272274 2.958583 100.11847l-316.568449-2.011836c-42.721948 7.100601-29.70418-55.976403-28.875777-79.645072 0.236687-8.047348 6.792908-14.792918 15.502979-15.976352l40.473424-5.443794z" fill="#FCC99F" /><path d="M788.851998 511.929645l39.053304 7.573974c3.38462 0.650888 6.165688 3.621306 7.100601 7.573974 6.745571 28.757433 17.869845 93.72793-31.360987 89.349226l-50.295922-0.946747c10.248534-33.846197 9.266284-67.21902-2.958583-100.11847l38.461587-3.431957z" fill="#FCB982" /><path d="M436.780545 613.468236l316.568449 2.011836 50.295922 0.946747-33.136136 376.923556c-1.50296 16.248541-10.106522 24.378729-25.79885 24.378729l-45.680531 0.236687a4804.159954 4804.159954 0 0 0 33.491167-351.59808 5.621309 5.621309 0 0 0-1.538464-4.201189 5.857996 5.857996 0 0 0-4.142017-1.834322l-281.183789-2.48521-8.875751-44.378754z" fill="#E1DDE1" /><path d="M445.656296 657.84699l281.183789 2.48521c1.573966 0.035503 3.076927 0.686391 4.142017 1.834322 1.076924 1.136096 1.633138 2.650891 1.538464 4.201189a4804.159954 4804.159954 0 0 1-33.491167 351.59808l-164.615594-3.076927 2.48521-150.414392c7.337287-24.059202 1.573966-40.982301-17.278128-50.769296 26.627253-15.976352 20.828429-70.295947 11.124274-94.319646-1.218936-3.171602-4.461544-5.360954-8.284034-5.562137l-47.218995-2.721897-23.668669-0.946747a91.633253 91.633253 0 0 1-5.917167-52.307759z" fill="#F1EFF2" /><path d="M377.608872 713.113333l-37.869871 2.248523a5.041427 5.041427 0 0 0-3.846159 2.248524 7.01776 7.01776 0 0 0-1.124261 4.852077c3.857993 28.958617 2.792903 57.041493-3.195271 84.260462-0.390533 1.77515 1.14793 3.621306 3.431957 4.142017 1.573966 0.390533 2.958584 1.33728 4.142017 2.84024l-5.917167 0.946747-133.372951-1.06509c-16.650909-27.136129-21.029613-56.804806-13.136111-88.994196 0.781066-3.360951 3.727815-5.940836 7.455631-6.508884a785.326442 785.326442 0 0 1 183.432186-4.97042z" fill="#28D1B3" /><path d="M451.573463 710.154749l23.668669 0.946747c6.93492 31.56217 7.929004 63.31369 2.958584 95.266393-0.43787 2.662725-2.366867 4.686396-4.733734 4.970421l-4.142017 0.35503-82.366969 2.48521-0.946747-2.958584c11.041434-32.89945 10.213031-65.290024-2.48521-97.159887l68.047424-3.90533z" fill="#FDE265" /><path d="M475.242132 711.101496l47.218995 2.721897c3.82249 0.201184 7.065098 2.390536 8.284034 5.562137 9.704154 24.023699 15.502978 78.343295-11.124274 94.319646l-41.420171 0.946747-8.875751-2.958583 4.142017-0.35503c2.366867-0.284024 4.295863-2.307695 4.733734-4.970421 4.970421-31.952703 3.976336-63.704223-2.958584-95.266393z" fill="#FCD430" /><path d="M377.608872 713.113333l5.917167 0.946746c12.698241 31.869863 13.526644 64.260437 2.48521 97.159887l-46.863965 2.48521a7.609477 7.609477 0 0 0-4.142017-2.84024c-2.284027-0.520711-3.82249-2.366867-3.431957-4.142017 5.988173-27.21897 7.053263-55.301845 3.195271-84.260462a7.01776 7.01776 0 0 1 1.124261-4.852077 5.041427 5.041427 0 0 1 3.846159-2.248524l37.869871-2.248523z" fill="#22B69F" /><path d="M386.011249 811.219966l0.946747 2.958584 8.402378 52.781132h-59.171673l-2.958584-52.307759 5.917167-0.946747z" fill="#7A6D79" /><path d="M469.324965 811.69334l8.875751 2.958583 2.958583 52.307759-5.917167 2.958584h-76.923175l-2.958583-2.958584-8.402378-52.781132zM199.857166 813.586833l133.372951 1.06509 2.958584 52.307759-11.834335 2.958584-138.580058 0.473373c-6.319535-26.508909-1.621304-45.443845 14.082858-56.804806z" fill="#918191" /><path d="M478.200716 814.651923l41.420171-0.946747c18.852095 9.786995 24.615416 26.710093 17.278128 50.769296l-55.739716 2.48521-2.958583-52.307759z" fill="#7A6D79" /><path d="M536.899015 864.474472l-2.48521 150.414392-53.254506 2.958584-2.13018-142.958762a5.029592 5.029592 0 0 0-1.893493-3.668644l-1.893494-1.301776 5.917167-2.958584 55.739716-2.48521z" fill="#E1DDE1" /><path d="M324.354366 869.918266l5.562137 0.473373c3.254442 0.189349 5.798824 2.934915 5.798824 6.272197l0.473374 141.183612-127.455784 0.236686c-15.076942 0.08284-22.603579-7.254447-22.603579-22.011862l-0.35503-125.680633 138.580058-0.473373z m-11.976346 49.467518a13.017768 13.017768 0 0 0-13.147946-12.88759l-65.325527 0.686391a13.017768 13.017768 0 0 0-12.88759 13.147946l0.035503 2.84024a13.017768 13.017768 0 0 0 13.147945 12.887591l65.325527-0.686392a13.017768 13.017768 0 0 0 12.887591-13.15978l-0.035503-2.84024z" fill="#F1EFF2" /><path d="M336.188701 866.959682h59.171673l2.958583 2.958584c-11.053268 11.360961-11.053268 23.514823 0 36.44975-6.153854 8.674567-7.857998 18.106532-5.088764 28.28406l-3.786987 80.236788-53.254505 2.958584-0.473374-141.183612a6.213026 6.213026 0 0 0-5.798824-6.272197l-5.562137-0.473373 11.834335-2.958584z" fill="#E1DDE1" /><path d="M398.318957 869.918266h76.923175l1.893494 1.301776c1.124262 0.911244 1.822488 2.248524 1.893493 3.668644l2.13018 142.958762-91.716093-2.958584 3.786987-80.236788 52.071073 0.591716a10.48522 10.48522 0 0 0 9.23078-4.97042c18.579905-30.295897-36.568094-24.970446-56.213089-23.905356-11.053268-12.934928-11.053268-25.088789 0-36.44975z" fill="#F1EFF2" /><path d="M398.318957 906.368016c19.644995-1.06509 74.792994-6.390541 56.213089 23.905356a10.48522 10.48522 0 0 1-9.23078 4.97042l-52.071073-0.591716c-2.769234-10.177528-1.06509-19.609492 5.088764-28.28406z" fill="#FCD430" /><path d="M430.508347 55.242674a7.455631 7.455631 0 0 1 10.650901-3.550301c12.224868 7.183441 15.147948 15.349132 8.757408 24.497073a11.183446 11.183446 0 0 1-9.822498 4.733734c-13.491141-0.71006-16.686412-9.266284-9.585811-25.680506z" fill="#F2671E" /><path d="M220.89194 907.320538m13.017054-0.136319l65.321945-0.684075q13.017054-0.136319 13.153373 12.880735l0.029743 2.840084q0.136319 13.017054-12.880735 13.153374l-65.321945 0.684075q-13.017054 0.136319-13.153374-12.880735l-0.029742-2.840085q-0.136319-13.017054 12.880735-13.153373Z" fill="#28D1B3" /></svg>