<?xml version="1.0" standalone="no"?><!DOCTYPE svg PUBLIC "-//W3C//DTD SVG 1.1//EN" "http://www.w3.org/Graphics/SVG/1.1/DTD/svg11.dtd"><svg class="icon" width="200px" height="178.24px" viewBox="0 0 1149 1024" version="1.1" xmlns="http://www.w3.org/2000/svg"><path d="M1029.090538 8.070621l-46.402744 5.052447a8.376427 8.376427 0 0 0-5.810315 3.377163 5.637468 5.637468 0 0 0-0.571724 5.797019c11.248344 22.696127 10.716508 46.229897-1.59551 70.601309l-58.634986-0.132959a28985.360979 28985.360979 0 0 0-480.913252 1.063673c-134.554661 1.462551-128.172622 166.597817-7.844589 167.262613 163.00792 0.890826 325.922768 0.930714 488.757841 0.132959l49.859682 1.063673c24.012423 26.684902 24.597443 53.941528 1.728469 81.769879l-191.727097 4.121733c-20.036944-15.955098-38.385307-15.91521-55.045089 0.13296l-346.491549-8.110509c-149.446086-58.767945-164.470471-242.384533-19.544995-317.772372 28.360187-10.370814 28.267116-14.319701-0.265918-11.833365 43.078765-4.879601 104.186791-4.613683 183.35067 0.797755 75.693645 5.145519 239.406248 4.028662 491.151106-3.323978z" fill="#65E0C4" /><path d="M354.588762 10.596844c28.533034-2.486336 28.626105 1.462551 0.265918 11.833365-46.801621-23.001933-91.077019-17.151731-120.328032 29.915809-44.501428 71.359177-49.115111 146.693832-13.827752 226.030558 7.711631 17.151731 26.990708 36.430808 30.580605 62.62376l-33.239788 3.323979c8.243467-3.05806 8.775304-7.84459 1.063673-11.434487-212.202806-100.915996-86.15753-361.648893 135.485376-322.292984z" fill="#28D1B3" /><path d="M354.85468 22.430209c-144.925475 75.387839-129.901091 259.004427 19.544995 317.772372l-102.378547 6.116121-20.741627-5.318366c-3.589897-26.192953-22.868974-45.47203-30.580605-62.62376-35.287359-79.336726-30.673676-154.671381 13.827752-226.030558 29.251013-47.06754 73.526411-52.917742 120.328032-29.915809z" fill="#22B69F" /><path d="M1029.090538 8.070621c50.657437 19.677954 45.206112 86.689367-16.088057 84.296102l-38.292236 0.531836c12.312017-24.371412 12.843854-47.905182 1.59551-70.601309a5.637468 5.637468 0 0 1 0.571724-5.797019 8.376427 8.376427 0 0 1 5.810315-3.377163l46.402744-5.052447z" fill="#28D1B3" /><path d="M916.075259 92.7656c8.509386 15.33019 10.144783 32.136227 4.919489 50.391519a9.4401 9.4401 0 0 1-8.509386 6.647957c-97.19314 6.780917-202.097911 2.659183-298.094418 2.526224-4.746642 0-9.054518 1.316296-12.232242 3.722856-22.868974 16.885812 4.65357 25.12928 17.816526 25.528157 97.060181 3.550009 194.426167 4.746642 292.111256 3.589898a8.642345 8.642345 0 0 1 8.509386 6.514998c5.850203 24.198566 4.334468 47.373346-4.520611 69.537636-162.835073 0.797755-325.749922 0.757867-488.757841-0.132959-120.328032-0.664796-126.710072-165.800062 7.844589-167.262613a28985.360979 28985.360979 0 0 1 480.913252-1.063673z m-449.003055 56.241721a34.994849 34.994849 0 0 0-20.608669 5.451325c-21.672342 13.827752-5.318366 25.794075 10.636732 27.522545 24.863361 2.792142 107.165076 15.423262 92.273652-23.267852-1.303-3.616489-5.052448-6.089529-9.4401-6.24908l-72.861615-3.456938z" fill="#F1EFF2" /><path d="M916.075259 92.7656l58.634986 0.132959 38.292236-0.531836a571.790832 571.790832 0 0 0-3.855816 167.262612l-43.211724 2.659183-49.859682-1.063673c8.85508-22.164291 10.370814-45.339071 4.520611-69.537636a8.642345 8.642345 0 0 0-8.509386-6.514998 6046.849258 6046.849258 0 0 1-292.111256-3.589898c-13.162956-0.398877-40.6855-8.642345-17.816526-25.528157 3.177724-2.406561 7.4856-3.722856 12.232242-3.722856 95.996507 0.132959 200.901278 4.254693 298.094418-2.526224a9.4401 9.4401 0 0 0 8.509386-6.647957c5.225295-18.255292 3.589897-35.061328-4.919489-50.391519z" fill="#E1DDE1" /><path d="M965.934941 262.288518l43.211724-2.659183c65.681821 13.920823 73.433339 42.148051 23.267852 84.69498-20.661852 5.225295-42.241122 5.145519-64.751107-0.265918 22.868974-27.82835 22.283954-55.084977-1.728469-81.769879z" fill="#28D1B3" /><path d="M775.936313 348.18013l83.631307 80.307328 44.142438 51.854069-123.917929 3.589897c-20.036944-42.905918-52.970926-73.260493-98.78865-91.077019l39.887745-44.541315c16.659782-16.04817 35.008145-16.088057 55.045089-0.13296z" fill="#F8C52D" /><path d="M374.399675 340.202581l346.491549 8.110509-39.887745 44.541315-37.494481 35.633053c-102.298771-0.797755-204.584247-0.890826-306.869722-0.265918-146.388026 0.797755-125.114562 168.592204-24.730402 168.858122 219.994212 0.35899 440.400598 0.571724 661.205861 0.664796l115.807421-4.121734 13.295915 3.323979-44.807234 2.526224a4.161621 4.161621 0 0 0-3.456938 2.326785 5.07904 5.07904 0 0 0 0 4.454132c6.727733 13.654905 9.253957 27.482657 7.578672 41.483255-0.505245 3.496826-2.845326 7.219682-6.514999 10.370814-9.041222 7.884478-7.711631 14.09367 3.988775 18.614281l-13.295915 9.971937c-12.764079-6.382039-24.956433-9.533171-36.563767-9.4401-242.610564 2.220418-485.261016 3.323979-727.951355 3.323979-42.733071-21.978148-67.503361-35.898971-74.324166-41.749174-111.552728-95.730589-54.114375-238.794636 65.149984-292.510134l102.378547-6.116121z" fill="#5169CC" /><path d="M218.039713 344.324315l33.239788-3.323979 20.741627 5.318366c-119.264359 53.715497-176.702713 196.779544-65.149984 292.510134 6.820804 5.850203 31.591094 19.771026 74.324166 41.749174l-113.015279-2.792143c-108.361709-92.938447-93.736202-237.332086-3.323979-332.397879l53.183661-1.063673z" fill="#2844AE" /><path d="M164.856052 345.387988c-90.412223 95.065793-105.03773 239.459432 3.323979 332.397879l-19.943873 6.647958-6.116121-3.855815c-183.217711-65.548862-185.079139-295.568194 22.736015-335.190022z" fill="#3351C5" /><path d="M967.66341 344.058397c22.509984 5.411437 44.089255 5.491213 64.751107 0.265918 33.372747 0.797755 128.970377-11.301528 105.436607 56.507639-6.741029 19.412036-24.158678 28.626105-52.252947 27.655504h-226.030557l-83.631307-80.307328 191.727097-4.121733z" fill="#5169CC" /><path d="M681.003479 392.854405c45.817724 17.816526 78.751706 48.171101 98.78865 91.077019h-186.142813l49.859682-55.443966 37.494481-35.633053z" fill="#FDDD44" /><path d="M643.508998 428.487458l-49.859682 55.443966c-78.445899 0.797755-156.944983 0.890826-235.470657 0.265919-19.279077-0.132959-36.962644 14.226629-15.822139 31.112441 3.084652 2.499632 7.312753 3.855815 11.966323 3.855815l637.539132 1.59551c4.161621 0 7.817998 2.379969 9.174182 5.983162 12.843854 34.303461 3.536713 57.97019-27.921422 71.000187-220.805263-0.093071-441.211649-0.305806-661.205861-0.664796-100.38416-0.265918-121.657624-168.060368 24.730402-168.858122 102.285475-0.624908 204.570951-0.531837 306.869722 0.265918zM859.56762 428.487458h142.931088l-4.121734 46.934581c-0.319102 3.802632-3.77604 6.927172-8.243468 7.445712-29.703074 3.895703-58.502027 3.05806-86.423448-2.526224l-44.142438-51.854069z" fill="#F1EFF2" /><path d="M1002.498708 428.487458h83.099469l-2.526224 158.088431c-0.079775 1.462551 1.23652 3.151132 3.323979 4.254693 1.063673 0.624908 1.901316 1.555622 2.526224 2.792142l-115.807421 4.121734c31.458135-13.029997 40.765276-36.696726 27.921422-71.000187a9.599651 9.599651 0 0 0-9.174182-5.983162l-637.539132-1.59551c-4.65357 0-8.881671-1.356183-11.966323-3.855815-21.140505-16.885812-3.456938-31.245401 15.822139-31.112441 78.525675 0.624908 157.024758 0.531837 235.470657-0.265919h186.142813l123.917929-3.589897c27.921422 5.584284 56.720374 6.421927 86.423448 2.526224 4.467427-0.518541 7.924365-3.643081 8.243468-7.445712l4.121734-46.934581z" fill="#E1DDE1" /><path d="M1102.218071 596.946703c47.147315 17.191618 52.518865 43.969591 16.088058 80.307328a128.877306 128.877306 0 0 1-59.299782-0.531837c-11.700405-4.520611-13.029997-10.729804-3.988775-18.614281 3.669673-3.151132 6.009754-6.873988 6.514999-10.370814 1.675285-14.000599-0.850939-27.82835-7.578672-41.483255a5.07904 5.07904 0 0 1 0-4.454132 4.161621 4.161621 0 0 1 3.456938-2.326785l44.807234-2.526224z" fill="#3351C5" /><path d="M168.180031 677.785867l113.015279 2.792143c-105.170689 32.442033-165.135266 134.155784-115.674462 238.927595 14.798354 31.37836 47.06754 63.288556 96.794262 95.730589l-96.528344-0.398877c-84.92101-90.94406-96.355497-190.530464-34.303461-298.759214 1.728469-3.018173 2.605999-7.392529 2.526224-12.49816-0.093071-9.041222 4.65357-15.423262 14.226629-19.146118l19.943873-6.647958z" fill="#1A96F9" /><path d="M1045.710432 686.694131c23.746504 25.621229 23.400811 50.524478-1.063673 74.723043l-367.897973-0.531837a7499.241847 7499.241847 0 0 0-299.556969 0.930714c-73.393452 1.728469-119.530277-5.850203-143.064047 65.017025-6.382039 30.407758-2.260306 50.750508 12.365201 61.028251 15.768955 28.014493 37.308338 42.015092 64.618148 42.015092l691.387589-0.531837 54.247333 1.063674 6.780917 47.466417a12.232242 12.232242 0 0 1-3.589897 10.90265c-14.45266 13.561833-12.551344 22.563168 5.717244 26.990708l-803.339195-0.531837c-49.726723-32.442033-81.995909-64.352229-96.794262-95.730589-49.460804-104.771812 10.503773-206.485563 115.674462-238.927595 242.69034 0 485.340791-1.103561 727.951355-3.323979 11.607334-0.093071 23.799688 3.05806 36.563767 9.4401z" fill="#63B9FC" /><path d="M1059.006347 676.722194c19.677954 4.786529 39.435684 4.959376 59.299782 0.531837 35.633053 33.944471 32.481921 61.826006-9.4401 83.631306l-64.21927 0.531837c24.464484-24.198566 24.810178-49.101815 1.063673-74.723043l13.295915-9.971937zM142.120037 680.57801l6.116121 3.855815c-9.573059 3.722856-14.319701 10.104896-14.226629 19.146118 0.079775 5.105631-0.797755 9.479988-2.526224 12.49816-62.052036 108.228749-50.617549 207.815154 34.303461 298.759214-197.44434-25.794075-214.994948-277.219831-23.666729-334.259307z" fill="#30A7FB" /><path d="M676.748786 760.885337l314.98023 3.589897a7.179794 7.179794 0 0 1 7.179794 6.780917l3.589898 158.088431-691.387589 0.531837c-27.30981 0-48.849192-14.000599-64.618148-42.015092a5142.806802 5142.806802 0 0 1 440.49367-7.977549c13.029997 0.265918 43.344683-3.722856 24.597443-24.597443-2.712367-2.964989-6.913876-4.706754-11.567446-4.78653a130601.373724 130601.373724 0 0 0-455.385095-4.254692c-9.932049-0.093071-13.428874-6.554886-10.503773-19.412037 23.53377-70.867228 69.670595-63.288556 143.064047-65.017025a7499.241847 7499.241847 0 0 1 299.556969-0.930714z m215.925662 102.298771a14.758466 14.758466 0 0 0-14.811649-14.705282l-89.34855 0.319102a14.758466 14.758466 0 0 0-14.718578 14.81165v1.59551a14.758466 14.758466 0 0 0 14.824945 14.705282l89.34855-0.319102a14.758466 14.758466 0 0 0 14.705282-14.81165v-1.59551z" fill="#F1EFF2" /><path d="M676.748786 760.885337l367.897973 0.531837 64.21927-0.531837c-16.885812 2.127346-25.528157 9.174181-26.192953 27.256626a1339.696412 1339.696412 0 0 0 2.925101 141.202619l-28.852136 1.063674-54.247333-1.063674-3.589898-158.088431a7.179794 7.179794 0 0 0-7.179794-6.780917l-314.98023-3.589897zM234.12777 826.833076c-2.925101 12.85715 0.571724 19.318965 10.503773 19.412037 151.653208 1.156745 303.452672 2.566112 455.385095 4.254692 4.65357 0.079775 8.85508 1.82154 11.567446 4.78653 18.74724 20.874587-11.567446 24.863361-24.597443 24.597443a5142.806802 5142.806802 0 0 0-440.49367 7.977549c-14.625507-10.277742-18.74724-30.620493-12.365201-61.028251z" fill="#E1DDE1" /><path d="M1056.746041 930.408256l28.852136-1.063674c83.232429-5.185407 68.606922 102.511506-19.943872 86.423449-18.268587-4.42754-20.169903-13.428874-5.717244-26.990708a12.232242 12.232242 0 0 0 3.589897-10.90265l-6.780917-47.466417z" fill="#1A96F9" /><path d="M467.072204 149.007321l72.861615 3.456938c4.387652 0.159551 8.1371 2.632591 9.4401 6.24908 14.891425 38.691113-67.41029 26.059994-92.273652 23.267852-15.955098-1.728469-32.309074-13.694793-10.636732-27.522545a34.994849 34.994849 0 0 1 20.608669-5.451325z" fill="#E1DDE1" /><path d="M773.755027 848.845931m14.758376-0.051517l89.348006-0.311884q14.758376-0.051517 14.809893 14.706859l0.005569 1.5955q0.051517 14.758376-14.706859 14.809893l-89.348006 0.311884q-14.758376 0.051517-14.809893-14.706859l-0.005569-1.5955q-0.051517-14.758376 14.706859-14.809893Z" fill="#E1DDE1" /></svg>