<?xml version="1.0" standalone="no"?><!DOCTYPE svg PUBLIC "-//W3C//DTD SVG 1.1//EN" "http://www.w3.org/Graphics/SVG/1.1/DTD/svg11.dtd"><svg class="icon" width="200px" height="200.00px" viewBox="0 0 1024 1024" version="1.1" xmlns="http://www.w3.org/2000/svg"><path d="M156.448897 9.6973l2.956494 820.9592C89.064491 828.445042 51.694409 863.142454 47.295146 934.725082 46.893063 668.084818 46.845759 401.527337 47.176886 135.052637 47.295146 57.592499 70.355798 2.956494 156.448897 9.6973z" fill="#A9ECDB" /><path d="M186.013835 9.6973l0.473039 818.475745-27.081483 2.483455L156.448897 9.6973c9.6973-5.049691 19.548337-5.049691 29.564938 0z" fill="#28D1B3" /><path d="M697.487264 6.740806a445.957526 445.957526 0 0 0 0 102.531205c-30.511016 0.390257-61.022032 0.626777-91.533048 0.709559-28.61886 0.11826-27.199743 28.973639 1.537376 29.091899 29.955195 0.082782 59.957694 0.319301 89.995672 0.709558-5.52273 9.851037-4.541174 18.413043 2.956494 25.662366l-47.540421-1.300857c-5.132473-0.153738-9.247913 0.473039-11.116416 1.655637-8.278183 5.286211-9.57904 12.807531-3.902572 22.587612a11.116417 11.116417 0 0 0 9.22426 5.558209l50.378655 2.010415a457.487851 457.487851 0 0 1-12.062495 120.979727c-34.224372-6.066725-52.034291 4.694912-53.453408 32.284912-25.473151 14.817947-35.880009 35.477926-31.220574 61.96811 10.797115 62.358367 50.650652 96.145179 119.560609 101.348608-67.72736 16.319846-75.331462 40.563095-22.824132 72.729748a245.649157 245.649157 0 0 0-0.473039 115.776297c-15.255508 31.693614-43.283069 106.670297-67.999358 127.129234a6679.015156 6679.015156 0 0 1-442.527993 0L186.013835 9.6973l511.473429-2.956494z m-434.36807 607.500347c-27.519044 34.922105-26.253665 70.246293 3.784312 105.960738 27.980257 33.112731 63.268967 44.465667 105.842478 34.058809l5.439949 0.473039c77.412834 14.510472 124.562997-15.255508 141.438663-89.286113 4.884128-21.523275-1.300857-38.351638-18.566781-50.496914l-1.892156-516.795118c0-3.949876-1.525551-7.746014-4.233699-10.536944a14.19117 14.19117 0 0 0-10.19399-4.363784l-50.378655 0.354779-146.642093 0.827818c-16.01237 0.082782-24.00673 8.278183-24.006729 24.598029l-0.591299 505.205661z" fill="#A9ECDB" /><path d="M697.487264 6.740806l49.077797 3.074753c18.12922 1.099816 27.199743 9.780082 27.199743 26.017146l0.591299 334.911618c0 2.802756 1.903982 5.085169 4.257351 5.08517h2.246935a3.358577 3.358577 0 0 0 2.956494-2.128676c16.710103-35.324188 45.092444-51.206473 85.147022-47.65868 1.572855 64.014004-29.801458 95.400142-94.134763 94.134763-1.419117-62.20463-31.220575-96.618218-89.404373-103.240764a457.487851 457.487851 0 0 0 12.062495-120.979727c15.373768-9.543562 16.355324-19.713901 2.956494-30.511016-7.497668-7.249323-8.479224-15.811329-2.956494-25.662366 17.10036-10.643378 17.10036-20.813716 0-30.511016a445.957526 445.957526 0 0 1 0-102.531205z" fill="#65E0C4" /><path d="M697.487264 109.272011c17.10036 9.6973 17.10036 19.867638 0 30.511016-30.037977-0.390257-60.040476-0.626777-89.995672-0.709558-28.73712-0.11826-30.156237-28.973639-1.537376-29.091899 30.511016-0.082782 61.022032-0.319301 91.533048-0.709559zM700.443758 165.445393c13.39883 10.797115 12.417274 20.967454-2.956494 30.511016l-50.378655-2.010415a11.116417 11.116417 0 0 1-9.22426-5.558209c-5.676468-9.780082-4.375611-17.301402 3.902572-22.587612 1.868504-1.182598 5.983943-1.809374 11.116416-1.655637l47.540421 1.300857z" fill="#FC9743" /><path d="M685.424769 316.936136c58.183798 6.622546 87.985256 41.036134 89.404373 103.240764l-2.956494 17.738962-12.772053 20.695457h-29.564938c8.041663-73.084527-24.172293-107.580897-96.618218-103.477283l-0.946078-5.912988c1.419117-27.59 19.229036-38.351638 53.453408-32.284912z" fill="#169A8D" /><path d="M868.963905 326.042137c10.087557-1.572855 18.566781 0.745036 25.425846 6.977325 2.649018 2.365195 4.387437 5.995769 4.84865 10.170339 8.585658 79.316816-28.110343 114.983957-110.099829 107.025076-3.949876-7.249323-9.6973-11.352936-17.265924-12.299015l2.956494-17.738962c64.333305 1.265379 95.707617-30.120759 94.134763-94.134763z" fill="#28D1B3" /><path d="M631.971361 349.221048l0.946078 5.912988c-2.211457 65.988942 29.990673 100.485311 96.618218 103.477283h29.564938l0.473039 55.700343c-14.19117 5.593686-27.282525 5.002388-39.262238-1.773896-68.909958-5.203429-108.763494-38.99024-119.560609-101.348608-4.659434-26.490184 5.747424-47.150163 31.220574-61.96811z" fill="#65E0C4" /><path d="M729.535657 458.611319c-66.627544-2.991972-98.829675-37.488341-96.618218-103.477283 72.445924-4.103613 104.659881 30.392756 96.618218 103.477283z" fill="#22B69F" /><path d="M771.872648 437.915862c7.568624 0.946078 13.316048 5.049691 17.265924 12.299015l-3.429533 67.526318c-8.360964 2.921016-16.083326 2.093198-23.178911-2.483455l-2.956494-0.946078-0.473039-55.700343 12.772053-20.695457z" fill="#FC9743" /><path d="M720.311396 512.537766c11.979713 6.776284 25.071067 7.367583 39.262238 1.773896l2.956494 0.946078a204.707631 204.707631 0 0 0-2.956494 72.966268l-62.08637-2.956494c-52.50733-32.166653-44.903228-56.409902 22.824132-72.729748z" fill="#EAF6FF" /><path d="M762.530128 515.25774c7.095585 4.576652 14.817947 5.404471 23.178911 2.483455l3.902572 67.999358-2.956494 2.956494c-7.887925-4.340133-15.929589-4.174569-24.124989 0.473039l-2.956494-0.946078a204.707631 204.707631 0 0 1 2.956494-72.966268z" fill="#FCB982" /><path d="M839.398966 592.126579l-29.564938-6.859065c9.6973-9.6973 14.735165-21.440493 15.137249-35.241406 0.153738-3.240317-1.336335-6.870892-4.139092-10.052079-4.73039-5.439949-7.970707-11.672238-9.697299-18.685041a5.321689 5.321689 0 0 1 0.96973-4.529349 4.529349 4.529349 0 0 1 3.997179-1.738418l44.465667 4.257351c3.275795 0.295649 6.658024 2.719974 9.106001 6.504286 20.967454 32.958993 10.879897 55.073567-30.274497 66.343721z" fill="#C5E0FF" /><path d="M697.487264 585.267514l62.08637 2.956494 2.956494 0.946078-3.429533 37.96138c-12.854835 8.041663-25.981668 9.543562-39.380498 4.493871-10.253121-3.784312-14.120214-0.390257-11.589455 10.170338 5.203429 21.996314 1.490073 41.745693-11.116417 59.248136a245.649157 245.649157 0 0 1 0.473039-115.776297z" fill="#8DCAFC" /><path d="M786.655117 588.697047l2.956494 138.955208-0.946078 112.346765-2.956494 5.912988h-25.662366l-2.956494-2.956494 2.010416-215.824048 3.429533-37.96138c8.195401-4.647608 16.237064-4.813172 24.124989-0.473039z" fill="#FC9743" /><path d="M789.611611 585.740553l20.222417-0.473039 29.564938 6.859065c1.892156 38.907458-6.504286 71.66541 10.998157 108.207674 23.415431 48.723018 47.185641 97.244994 71.310631 145.577755l-61.140292 1.300857-9.34252-4.73039a282.78272 282.78272 0 0 0-61.613331-114.83022l-2.956494-138.955208 2.956494-2.956494z" fill="#8DCAFC" /><path d="M759.100595 627.131466l-2.010416 215.824048-130.558767 2.483455 2.483455-17.265924c24.716288-20.458937 52.743849-95.43562 67.999358-127.129234 12.60649-17.502443 16.319846-37.251822 11.116417-59.248136-2.530759-10.560596 1.336335-13.954651 11.589455-10.170338 13.39883 5.049691 26.525662 3.547793 39.380498-4.493871zM789.611611 727.652255a282.78272 282.78272 0 0 1 61.613331 114.83022c-21.133018 6.149507-41.982212 5.321689-62.559409-2.483455l0.946078-112.346765z" fill="#C5E0FF" /><path d="M186.486874 828.173045c147.505389 4.884128 295.010778 4.884128 442.527993 0l-2.483455 17.265924-27.081483 47.77694a8663.591188 8663.591188 0 0 0-463.814748-0.827819 17.384184 17.384184 0 0 0-10.643378 3.666053c-22.079096 17.502443-22.705872 35.986443-1.892156 55.463823 2.649018 2.507107 6.421505 3.902572 10.525118 3.902572l433.776771 0.354779c-4.020832 27.755564 5.830206 48.131719 29.564938 61.140292a36319.462063 36319.462063 0 0 1-434.722849 0c-63.387227-0.354779-102.058166-19.15808-114.948479-82.190527 4.411089-71.582628 41.78117-106.280039 112.110245-104.068582l27.081483-2.483455z" fill="#918191" /><path d="M788.665533 839.99902c20.577197 7.805144 41.426391 8.632962 62.559409 2.483455l9.34252 4.73039 35.004887 83.964424c-13.564394-1.02886-20.387981 3.867094-20.458937 14.664209 0 3.81979 1.738418 7.46219 4.73039 9.933819 8.112619 6.859066 17.301402 6.539764 27.554522-0.946078 12.299014 19.075298 14.262126 39.770755 5.912988 62.08637h-316.344838c-23.734732-13.008573-33.58577-33.384728-29.564938-61.140292l32.048393-62.559408 27.081483-47.77694 130.558767-2.483455 2.956494 2.956494 0.591299 83.609644c0 3.93805 2.175979 7.426712 5.558208 8.869482 5.357167 2.365195 10.596074 2.246935 15.728547-0.354779 3.02745-1.561029 5.156125-4.978736 5.676468-9.106001 3.547793-27.909302 2.90919-55.582084-1.892156-83.018346l2.956494-5.912988z m65.397643 70.955851a7.213845 7.213845 0 0 0 4.49387-9.106001c-4.422915-12.925791-13.008573-17.419662-25.780626-13.481611a9.57904 9.57904 0 0 0-6.622546 7.923403c-2.447977 17.183142 6.859066 22.079096 27.909302 14.664209z m-167.692329 34.531848c0-8.360964-8.266357-15.137248-18.448521-15.137248-10.193991 0-18.448521 6.776284-18.448522 15.137248 0 4.020832 1.93946 7.864274 5.404471 10.702508 3.453185 2.838234 8.148097 4.434741 13.044051 4.43474 4.895954 0 9.57904-1.596507 13.04405-4.43474 3.453185-2.838234 5.404471-6.693502 5.404471-10.702508z" fill="#65E0C4" /><path d="M760.046673 845.912008h25.662366c4.801346 27.436263 5.439949 55.109045 1.892156 83.018346-0.520343 4.127265-2.649018 7.544972-5.676468 9.106001-5.132473 2.601715-10.37138 2.719974-15.728547 0.354779a9.496258 9.496258 0 0 1-5.558208-8.869482l-0.591299-83.609644z" fill="#169A8D" /><path d="M860.567462 847.212865l61.140292-1.300857c19.03982 37.133562 119.08757 186.968668-8.396442 171.003601 8.349139-22.315615 6.386027-43.011072-5.912988-62.08637 6.303245-12.452752 2.365195-20.340677-11.825975-23.65195l-35.004887-83.964424z" fill="#28D1B3" /><path d="M599.449929 893.215909l-32.048393 62.559408-433.776771-0.354779a15.255508 15.255508 0 0 1-10.525118-3.902572c-20.813716-19.477381-20.18694-37.96138 1.892156-55.463823a17.384184 17.384184 0 0 1 10.643378-3.666053 8663.591188 8663.591188 0 0 1 463.814748 0.827819z" fill="#F1EFF2" /><path d="M895.572349 931.177289c14.19117 3.311273 18.12922 11.199199 11.825975 23.65195-10.253121 7.485842-19.441903 7.805144-27.554522 0.946078a12.890313 12.890313 0 0 1-4.73039-9.933819c0.070956-10.797115 6.894544-15.693069 20.458937-14.664209z" fill="#169A8D" /><path d="M434.359315 83.609645l-0.473039 481.435451c-15.965067-21.405015-41.627433-81.599229-75.922761-41.745692-20.033202 27.519044-33.160035 59.165354-39.380497 94.962581l-55.463824-4.020832 0.591299-505.205661c0-16.319846 7.994359-24.515247 24.006729-24.598029l146.642093-0.827818z" fill="#FCB982" /><path d="M434.359315 83.609645l50.378655-0.354779a14.19117 14.19117 0 0 1 10.19399 4.363784c2.719974 2.79093 4.233699 6.587068 4.233699 10.536944l1.892156 516.795118c-17.821745-3.93805-35.950965-2.838234-54.399486 3.311273l-12.772053-53.216889 0.473039-481.435451z" fill="#FC9743" /><path d="M433.886276 565.045096l12.772053 53.216889c-1.892156 49.988397-18.732345 93.578942-50.496914 130.795286a14.817947 14.817947 0 0 1-9.815559 5.203429l-8.159923 0.473039-5.439949-0.473039-17.738963-23.651951c51.71499-66.6985 52.696546-135.797673 2.956494-207.309345 34.295328-39.853536 59.957694 20.340677 75.922761 41.745692z" fill="#28D1B3" /><path d="M357.963515 523.299404c49.740052 71.511672 48.758496 140.610845-2.956494 207.309345-22.079096-33.976027-34.224372-71.42889-36.424003-112.346764 6.220463-35.797227 19.347295-67.443537 39.380497-94.962581z" fill="#65E0C4" /><path d="M318.583018 618.261985c2.199631 40.917874 14.344908 78.370738 36.424003 112.346764l17.738963 23.651951c-42.573511 10.406858-77.862221-0.946078-105.842478-34.058809-30.037977-35.714445-31.303356-71.038633-3.784312-105.960738l55.463824 4.020832zM501.057815 614.950712c17.265924 12.145277 23.450909 28.973639 18.566781 50.496914-16.875667 74.030605-64.02583 103.796585-141.438663 89.286113l8.159923-0.473039c3.630574-0.295649 7.154715-2.164153 9.815559-5.203429 31.764569-37.216344 48.604758-80.806889 50.496914-130.795286 18.448521-6.149507 36.577741-7.249323 54.399486-3.311273z" fill="#169A8D" /><path d="M854.063176 910.954871c-21.050236 7.414886-30.357278 2.518933-27.909302-14.664209a9.57904 9.57904 0 0 1 6.622546-7.923403c12.772053-3.93805 21.357711 0.555821 25.780626 13.481611a7.213845 7.213845 0 0 1-4.49387 9.106001z" fill="#A9ECDB" /><path d="M649.473804 945.486719a18.448521 15.137248 0 1 0 36.897043 0 18.448521 15.137248 0 1 0-36.897043 0Z" fill="#A9ECDB" /></svg>