<?xml version="1.0" standalone="no"?><!DOCTYPE svg PUBLIC "-//W3C//DTD SVG 1.1//EN" "http://www.w3.org/Graphics/SVG/1.1/DTD/svg11.dtd"><svg class="icon" width="200px" height="200.00px" viewBox="0 0 1024 1024" version="1.1" xmlns="http://www.w3.org/2000/svg"><path d="M258.620211 7.924811l-3.666704 816.018976c-55.118835 21.053976-67.538315 16.204464-105.506439 65.764104C148.098667 635.250488 147.980386 380.982334 149.092226 126.915257 149.328787 53.108062 177.361328 0.354842 258.620211 7.924811zM792.776132 5.914038l1.65593 816.018976c0 3.311861-2.661317 6.032319-6.032319 6.1506a8732.715961 8732.715961 0 0 1-497.962007-1.182808L286.534471 7.333407l506.241661-1.419369z m-392.337287 418.394539c-0.118281-4.198967-2.933363-8.161373-7.818359-11.000111-4.896824-2.838738-11.461406-4.352732-18.262549-4.163483-14.170035 0.354842-25.477676 7.759218-25.252943 16.511995 0.118281 4.198967 2.921535 8.161373 7.80653 11.000111 4.896824 2.838738 11.473234 4.352732 18.274378 4.163482 14.170035-0.354842 25.465848-7.759218 25.241114-16.511994z m68.602841 45.538093a14.193691 14.193691 0 0 0-14.039926-14.347456l-90.129941-0.946246a14.193691 14.193691 0 0 0-14.335628 14.051754l-0.011828 1.182808a14.193691 14.193691 0 0 0 14.039926 14.335628l90.129941 0.946246a14.193691 14.193691 0 0 0 14.335628-14.051754l0.011828-1.182808zM701.463383 752.97533l58.90382 0.118281c6.552754 0 11.875388-5.547368 11.946357-12.41948l0.236561-185.819077a11.674311 11.674311 0 0 0-4.612949-9.580742c-18.215237-12.857119-39.387494-16.239949-63.516769-10.172145l-319.594619 1.774211c-11.142048 0.05914-20.16687 8.811917-20.22601 19.634607l-0.118281 173.517877c-0.082797 15.293703 7.522656 22.946468 22.828187 22.946468h314.153703z" fill="#A3B0E4" /><path d="M792.776132 5.914038l59.495223 1.655931c11.331297 0.260218 20.367947 10.456019 20.344291 22.946468l2.838738 787.986435a143.368111 143.368111 0 0 1-66.82863 13.010884 8.291481 8.291481 0 0 0-8.279654 5.086073c-6.789316 16.949633-7.215126 34.419702-1.301088 52.398377l-8.871057 3.903265-50.742447-0.473123-105.979563 0.473123a5009.273062 5009.273062 0 0 0-370.691907-0.709684c-28.505664 1.064527-56.656485-1.301088-52.75322 34.892825 1.963461 18.68836 12.573245 28.068025 31.817525 28.150821l388.19746 2.247334c-3.950577 22.000222 0.153765 41.552032 12.3012 58.667258-121.994778 0.473123-244.013212 0.6742-366.078958 0.591404-86.226675-0.118281-140.517545-31.10784-126.796977-127.033538 37.968125-49.559639 50.387605-44.710128 105.506439-65.764104 11.118392 7.487172 22.946468 8.480731 35.484229 2.957019 165.037147 5.121557 331.02054 5.523712 497.962007 1.182808 3.371002-0.118281 6.032319-2.838738 6.032319-6.1506L792.776132 5.914038z" fill="#8897DC" /><path d="M258.620211 7.924811l27.91426-0.591404 3.903265 819.567399c-12.537761 5.523712-24.365837 4.530153-35.484229-2.957019L258.620211 7.924811zM875.454384 818.502872v76.882495a222.036646 222.036646 0 0 0-76.409372-6.387161c-5.914038-17.978676-5.488227-35.448744 1.301088-52.398377a8.291481 8.291481 0 0 1 8.279654-5.086073c23.336794 1.029043 45.609062-3.311861 66.82863-13.010884z" fill="#6E80D5" /><path d="M633.451945 892.901471l-3.430142 64.581296-388.19746-2.247334c-19.24428-0.082797-29.854064-9.462461-31.817525-28.150821-3.903265-36.193913 24.247556-33.828298 52.75322-34.892825a5009.273062 5009.273062 0 0 1 370.691907 0.709684z" fill="#F1EFF2" /><path d="M739.431508 892.428348l-2.010773 62.0974c3.938749 23.029264-0.165593 43.562805-12.301199 61.624277h-82.796533c-12.147434-17.115226-16.251777-36.667036-12.3012-58.667258l3.430142-64.581296 105.979563-0.473123z" fill="#FA7621" /><path d="M790.173955 892.901471c9.699022 21.290537 9.699022 41.98967 0 62.0974l-52.75322-0.473123 2.010773-62.0974 50.742447 0.473123z" fill="#F1EFF2" /><path d="M799.045012 888.998206c26.021768-2.282819 51.487616-0.153765 76.409372 6.387161l-2.957019 65.054419-43.882163-2.483896-38.441247-2.957019c9.699022-20.10773 9.699022-40.806863 0-62.0974l8.871057-3.903265z" fill="#E1DDE1" /><path d="M737.420735 954.525748l52.75322 0.473123 38.441247 2.957019-26.731452 4.258108a5.34629 5.34629 0 0 0-3.560251 2.46024 6.304365 6.304365 0 0 0-0.827965 4.518325c3.631219 17.659318-0.780653 33.319691-13.247445 46.957462h-59.140381c12.147434-18.061472 16.251777-38.595013 12.301199-61.624277z" fill="#8897DC" /><path d="M828.615202 957.95589l43.882163 2.483896c22.473345 71.678142-50.505885 56.656485-88.237448 55.710239 12.454964-13.637772 16.866837-29.298145 13.247445-46.957462a6.304365 6.304365 0 0 1 0.816137-4.518325 5.34629 5.34629 0 0 1 3.548423-2.46024l26.731452-4.258108z" fill="#6E80D5" /><path d="M349.113789 425.654659a15.849622 25.666925 88.5 1 0 51.31626-1.343763 15.849622 25.666925 88.5 1 0-51.31626 1.343763Z" fill="#F1EFF2" /><path d="M350.682439 454.406358m14.192913 0.148633l90.124998 0.943821q14.192913 0.148633 14.04428 14.341547l-0.012386 1.182742q-0.148633 14.192913-14.341546 14.04428l-90.124999-0.943821q-14.192913-0.148633-14.04428-14.341546l0.012386-1.182743q0.148633-14.192913 14.341547-14.04428Z" fill="#F1EFF2" /><path d="M704.420403 535.102167l-2.95702 217.873163h-314.153703c-15.305531 0-22.910984-7.652765-22.828187-22.946468l0.118281-173.517877c0.05914-10.82269 9.083963-19.575466 20.22601-19.634607l319.594619-1.774211z" fill="#FCE783" /><path d="M704.420403 535.102167c24.129275-6.067803 45.301532-2.684973 63.516769 10.172145 2.886051 2.081741 4.61295 5.641992 4.612949 9.580742l-0.236561 185.819077c-0.070968 6.872112-5.393603 12.41948-11.946357 12.41948l-58.90382-0.118281 2.95702-217.873163z" fill="#FDDD44" /></svg>