<?xml version="1.0" standalone="no"?><!DOCTYPE svg PUBLIC "-//W3C//DTD SVG 1.1//EN" "http://www.w3.org/Graphics/SVG/1.1/DTD/svg11.dtd"><svg class="icon" width="200px" height="200.00px" viewBox="0 0 1024 1024" version="1.1" xmlns="http://www.w3.org/2000/svg"><path d="M228.945343 316.991892l-3.445306 228.221807c-23.285515 2.851288-32.587841-8.79147-27.918857-34.928272l-0.95043-441.830765a4.003683 4.003683 0 0 0-1.63949-3.183938 3.730435 3.730435 0 0 0-3.469066-0.498975c-29.938519 11.286347-38.611185 4.039324-22.810301-21.741068 32.469037-52.74882 63.20354-49.220351 92.191631 10.573525 1.793935 3.682913 1.473165 7.8054-0.831626 10.454721-6.415397 7.532151-15.004901 7.686596-25.780391 0.475214-3.172057-2.138466-4.752146-1.30684-4.752146 2.494877l-0.594018 249.962874z" fill="#6B626B" /><path d="M690.37871 132.25222l0.475214 413.080283-19.840209-0.118804-11.880365-2.970091-0.475214-20.315424 2.970091-29.700911-0.950429-39.442811c4.597701-10.929936 4.906591-20.553031 0.950429-28.869287v-32.671003c5.22736-22.097478 5.108557-37.019217-0.356411-44.788975l0.356411-32.433396a53.509163 53.509163 0 0 0 0-32.671003v-29.700912c6.569842-27.241676 5.583771-53.972497-2.970091-80.192462l2.019662-89.934361a3.172057 3.172057 0 0 0-1.877098-2.851288 4.300692 4.300692 0 0 0-3.825477 0.118804c-10.217114 5.54813-19.400636 5.22736-27.562447-0.950429-2.780005-2.114705-3.540349-6.094627-1.782054-9.385488 11.250705-20.909442 26.766462-37.375628 46.57103-49.422318 3.302741-2.019662 7.318305-1.782055 9.741899 0.594019l42.056491 40.868454a10.288396 10.288396 0 0 1 2.494876 10.454721c-4.597701 15.290029-14.458404 17.226529-29.582108 5.821379-3.088895-2.29291-4.668983-1.544447-4.752146 2.257269l-1.782054 53.224034z" fill="#685E67" /><path d="M338.125895 85.918798c0.237607 13.543616 41.462473-8.316255 31.364163 27.324839-0.879147 3.112656-4.181888 5.108557-7.841041 4.752146-20.113458-1.900858-29.344501 7.056937-27.68125 26.849624 0.368291 3.944281-1.247438 7.579673-4.158128 9.385488-31.126556 20.19662-21.978675-69.143723-19.246191-95.399329 0.415813-4.003683 3.219579-7.068817 6.534201-7.128219l48.353085-0.831625c3.682913-0.059402 7.342065 2.102825 9.623095 5.702575 3.480947 5.393686 3.24334 10.537884-0.712822 15.444474-1.354362 1.710773-5.132318 3.100775-9.979506 3.682913l-19.602602 2.494877a7.603433 7.603433 0 0 0-6.653004 7.722237z" fill="#FC9743" /><path d="M425.208968 117.282961c13.781223 5.393686 18.414565 13.662419 13.900027 24.829962a9.171642 9.171642 0 0 1-8.553863 5.702575c-48.234281 0.831626-49.303514-62.371915-16.157296-85.895037 3.207698-2.29291 7.068817-3.302741 10.811132-2.851287 22.727138 2.542398 23.879533 12.795153 3.445306 30.770144-14.96926 13.234726-16.121655 22.382607-3.445306 27.443643zM554.22973 106.471829c2.257269-21.859871-40.987258-24.948766-15.563278-45.858208a10.169592 10.169592 0 0 1 10.217113-1.425644c42.412902 17.58294 44.551368 72.470225 1.544448 90.409576a9.278565 9.278565 0 0 1-9.979507-1.663251c-12.913956-12.034809-10.490362-23.000386 7.247023-32.90861 3.801717-2.150346 6.249072-5.369925 6.534201-8.553863z" fill="#B6ADB6" /><path d="M484.135577 130.94538c-11.488313 6.736167-20.909442 5.274882-28.275268-4.395735-1.900858-2.471116-1.663251-6.344115 0.594019-9.504291 5.940182-8.316255 6.213431-16.394903 0.831625-24.235945-2.376073-3.504708-3.183938-7.330185-2.138466-10.217113 4.276931-12.426862 12.557546-14.565327 24.829963-6.415397 3.112656 2.019662 6.926253 2.411714 10.217113 1.069233 24.319107-9.741899 31.958181-2.29291 22.929104 22.335085a16.988922 16.988922 0 0 0-0.237607 11.04874c7.282664 21.859871 1.152395 28.394072-18.414565 19.602601a11.535834 11.535834 0 0 0-10.335918 0.712822z" fill="#CBC5CB" /><path d="M831.398639 542.243608l-56.431732 3.920521-84.112983-0.831626-0.475214-413.080283c44.278119-19.400636 89.102736-29.498946 134.485729-30.29493a5.583771 5.583771 0 0 1 4.110606 1.698892 6.070866 6.070866 0 0 1 1.710772 4.241291l0.712822 434.346135z" fill="#8897DC" /><path d="M658.658136 171.457424c8.553863 26.219965 9.539933 52.950786 2.970091 80.192462-11.08438-16.394903-26.766462-24.473551-47.046245-24.235944l44.076154-55.956518z" fill="#5169CC" /><path d="M430.436329 346.21759c-7.128219 10.775491-8.945915 22.8103-5.464968 36.116309v32.671003c-4.835308 14.256438-3.837358 28.120823 2.970091 41.581276l-2.970091 32.671003-0.475215 52.986427-14.850456 0.950429-7.128218-3.564109c-3.338382-1.663251-5.464968-4.787787-5.464968-8.078648l0.237607-211.589296-0.475214-66.76765c0-6.569842-2.459236-8.078648-7.365827-4.514539-33.027414 23.879533-36.353916-3.92052-20.19662-21.265853a239.793282 239.793282 0 0 1 38.135971-33.265021c3.100775-2.209748 7.116338-2.114705 9.504292 0.237607l43.00692 42.056491c2.554278 2.494877 3.136416 6.605483 1.425644 10.217114-6.736167 14.494045-16.632511 15.563278-29.700912 3.207699-2.851288-2.684962-4.55018-2.138466-5.108557 1.663251-5.22736 32.397755-3.92052 63.963884 3.920521 94.686507z" fill="#685E67" /><path d="M614.581982 227.413942c20.279783-0.237607 35.961864 7.841041 47.046245 24.235944v29.700912l-55.956518-33.146218 8.910273-20.790638z" fill="#2844AE" /><path d="M605.671709 248.20458l55.956518 33.146218c3.409665 10.858653 3.409665 21.741068 0 32.671003l-70.806974-42.056491 14.850456-23.76073z" fill="#5169CC" /><path d="M590.821253 271.96531l70.806974 42.056491-0.356411 32.433396-87.795896-38.373578c-6.736167-20.743117-0.950429-32.789807 17.345333-36.116309z" fill="#2844AE" /><path d="M397.290111 319.961984l-0.237607 211.589296c0 3.290861 2.126585 6.415397 5.464968 8.078648l7.128218 3.564109-17.820547 4.989754-166.325106-2.970092 3.445306-228.221807c56.550536-20.743117 112.661499-19.757047 168.344768 2.970092z" fill="#8897DC" /><path d="M573.47592 308.081619l87.795896 38.373578c5.464968 7.769759 5.583771 22.691497 0.356411 44.788975a629.659332 629.659332 0 0 0-103.477977-68.787312l15.32567-14.375241z" fill="#5169CC" /><path d="M558.15025 322.45686a629.659332 629.659332 0 0 1 103.477977 68.787312v32.671003l-123.199383-81.618106c1.188036-14.256438 7.757878-20.861921 19.721406-19.840209z" fill="#2844AE" /><path d="M538.428844 342.297069l123.199383 81.618106c3.956161 8.316255 3.647272 17.939351-0.950429 28.869287l-148.266952-88.627522c15.765244-4.110606 24.43791-11.40515 26.017998-21.859871zM430.436329 346.21759l42.650509 23.523122a1687.308804 1687.308804 0 0 0 188.541389 122.486561l-2.970091 29.700911-233.686775-139.594285c-3.480947-13.306009-1.663251-25.340818 5.464968-36.116309z" fill="#5169CC" /><path d="M512.410846 364.15694l148.266952 88.627522 0.950429 39.442811a1687.308804 1687.308804 0 0 1-188.541389-122.486561c16.157296-14.410882 29.261338-16.2761 39.324008-5.583772zM424.971361 382.333899l233.686775 139.594285 0.475214 20.315424c-19.127387-1.425644-23.879533 2.61368-42.056491-7.959844a3958.276168 3958.276168 0 0 1-192.105498-119.278862v-32.671003z" fill="#2844AE" /><path d="M424.971361 415.004902a3958.276168 3958.276168 0 0 0 192.105498 119.278862c18.176958 10.573525 22.929104 6.534201 42.056491 7.959844l11.880365 2.970091-103.477977 6.415397c-2.019662-22.572693-103.121566-74.608691-139.594286-95.042918-6.807449-13.460453-7.8054-27.324839-2.970091-41.581276z" fill="#5169CC" /><path d="M427.941452 456.586178c36.47272 20.434227 137.574624 72.470225 139.594286 95.042918l-16.394903 11.999169-126.169474-74.371084 2.970091-32.671003z" fill="#2844AE" /><path d="M424.971361 489.257181l126.169474 74.371084c-12.747631 5.8689-24.592355 19.650123-35.522291 41.343669-19.566961-36.900413-49.933173-57.809855-91.122398-62.728326l0.475215-52.986427z" fill="#5169CC" /><path d="M197.58118 510.285427c-4.668983 26.136802 4.633342 37.77956 27.918857 34.928272l166.325106 2.970092c41.818884 22.453889 53.580445 52.74882 53.105231 101.695922-0.629659 75.167068 0.32077 150.334136 2.851287 225.489323l-45.026582-0.712822H184.750386c-3.58787 0.023761-6.534201-2.554278-6.653005-5.821379l-3.564109-97.418991 0.475215-162.285782a9.147881 9.147881 0 0 0-2.970092-6.771808l-2.970091-2.732484 3.207699-0.475215a4.336333 4.336333 0 0 0 3.445305-3.801716 300.573228 300.573228 0 0 1 21.859872-85.063412z m223.350857 105.580802a13.543616 13.543616 0 0 0-13.496094-13.591138l-156.583208-0.546497a13.543616 13.543616 0 0 0-13.591137 13.496095v2.376073a13.543616 13.543616 0 0 0 13.496094 13.591137l156.583208 0.546497a13.543616 13.543616 0 0 0 13.591137-13.496095v-2.376072z m-2.257269 58.368232a12.830794 12.830794 0 0 0-12.830794-12.830794h-155.632779a12.830794 12.830794 0 0 0-12.830793 12.830794v4.039324a12.830794 12.830794 0 0 0 12.830793 12.830794h155.632779a12.830794 12.830794 0 0 0 12.830794-12.830794v-4.039324z m0.118803 58.213787a11.642757 11.642757 0 0 0-11.642757-11.642758h-158.008851a11.642757 11.642757 0 0 0-11.642758 11.642758v6.415397c0 6.439158 5.21548 11.642757 11.642758 11.642757h158.008851a11.642757 11.642757 0 0 0 11.642757-11.642757v-6.415397z m0.118804 62.371915a14.375241 14.375241 0 0 0-14.375241-14.375242H249.141963a14.375241 14.375241 0 0 0-14.375242 14.375242v0.950429a14.375241 14.375241 0 0 0 14.375242 14.375241h155.395171a14.375241 14.375241 0 0 0 14.375241-14.375241v-0.950429z" fill="#F1EFF2" /><path d="M409.64569 543.194037l14.850456-0.950429c41.189225 4.918471 71.555437 25.827913 91.122398 62.728326L513.361275 901.387035c-0.083163 2.138466-0.98607 5.8689-2.732484 11.167543l-3.445306 10.335917c-14.494045-22.727138-34.298613-38.563664-59.401824-47.521459a5351.617227 5351.617227 0 0 1-2.851287-225.489323c0.475215-48.947103-11.286347-79.242033-53.105231-101.695922l17.820547-4.989754zM831.398639 542.243608c19.329353 13.864386 27.087232 33.193739 23.285515 57.97618v284.059521c-20.992605-11.797202-43.600939-15.598919-67.836883-11.40515l-6.415397-3.445306c6.260952-19.246191 8.233093-39.038879 5.940183-59.401823 5.381805-10.929936 4.395735-20.826279-2.970091-29.700912 10.537884-13.068401 8.708307-23.11919-5.464968-30.176127 14.577208-6.724286 16.394903-16.466186 5.464968-29.225697 5.381805-9.979506 5.54813-20.030295 0.475214-30.176126 8.233093-9.575574 8.078648-19.317473-0.475214-29.225698 11.72592-13.543616 9.896344-23.594404-5.464968-30.176126 14.101993-7.045056 16.074134-16.9414 5.940182-29.700912 3.956161-19.721405 0.98607-38.207253-8.910273-55.481303l56.431732-3.920521z" fill="#E1DDE1" /><path d="M671.013715 545.213699l19.840209 0.118804 84.112983 0.831626c9.896344 17.27405 12.866435 35.759898 8.910273 55.481303H626.22474c-4.134367 0-7.888562 1.271199-10.573525 3.564109-45.858208 40.868455 152.543883 26.255606 162.285783 26.136803 15.361312 6.581722 17.190888 16.632511 5.464968 30.176126H623.967471c-4.027444 0-7.710357 1.413763-10.217114 3.920521-40.155633 40.630847 158.840477 25.423981 170.126823 25.305177 5.072916 10.145832 4.906591 20.19662-0.475214 30.176126l-163.711427 0.712822c-3.932401 0.01188-7.425228 2.043423-9.029077 5.22736-9.147881 18.295762 4.039324 23.523122 19.721406 23.641926 49.18471 0.403932 98.36942 0.285129 147.55413-0.356411 14.173275 7.056937 16.002851 17.107725 5.464968 30.176127H632.877744c-14.375241-0.118804-35.641094 6.653004-21.50346 25.067569 2.174107 2.851288 5.8689 4.514539 9.979506 4.514539l165.018267 0.118804c2.29291 20.362945 0.32077 40.155633-5.940183 59.401823-37.066738 2.696843-98.333779 4.633342-183.789242 5.821379-53.224034 0.712822-71.400992 58.570198-85.538627 59.520628l-3.92052-11.880365 3.445306-10.335917c1.746414-5.298643 2.649321-9.029077 2.732484-11.167543l2.257269-296.415101c10.929936-21.693546 22.774659-35.474769 35.522291-41.343669l16.394903-11.999169 103.477977-6.415397z" fill="#F1EFF2" /><path d="M169.068304 599.62577l2.970091 2.732484a9.147881 9.147881 0 0 1 2.970092 6.771808l-0.475215 162.285782-1.425644 168.344769c-0.154445 14.494045 7.330185 21.705426 22.45389 21.622264l252.695358-0.356411 71.282188 2.970091 260.89281-2.494877a114.621759 114.621759 0 0 0 71.282189-5.940182c6.736167 22.180641 3.92052 42.816835-8.435059 61.8967l-704.743237 0.237608c-17.26217 0.083163-25.899195-8.553863-25.899195-25.899196 0-53.699249-11.40515-358.192997 8.79147-382.428941 9.741899-11.71404 25.625947-14.96926 47.640262-9.741899z" fill="#FC9743" /><path d="M854.684154 600.219788c24.556714-5.85702 43.208887-2.61368 55.956518 9.741899 2.494877 2.435475 3.92052 6.17779 3.920521 10.335918v379.934064c0 4.752146-1.853337 9.302326-5.156079 12.652589a17.285931 17.285931 0 0 1-12.426861 5.167959l-53.699249-0.594019c12.355579-19.079866 15.171226-39.716059 8.435059-61.8967l2.970091-71.282189v-284.059521z" fill="#FA7621" /><path d="M783.87718 601.645432c10.133951 12.759512 8.161811 22.655856-5.940182 29.700912-9.741899 0.118804-208.143991 14.731652-162.285783-26.136803 2.684962-2.29291 6.439158-3.564109 10.573525-3.564109h157.65244zM783.401966 661.52247c8.553863 9.908224 8.708307 19.650123 0.475214 29.225698-11.286347 0.118804-210.282456 15.325671-170.126823-25.305177 2.506757-2.506757 6.18967-3.92052 10.217114-3.920521h159.434495zM783.401966 720.924294c10.929936 12.759512 9.11224 22.501411-5.464968 29.225697-49.18471 0.64154-98.36942 0.760343-147.55413 0.356411-15.682081-0.118804-28.869286-5.346164-19.721406-23.641926 1.603849-3.183938 5.096676-5.21548 9.029077-5.22736l163.711427-0.712822zM174.533272 771.415844l3.564109 97.418991c0.118804 3.2671 3.065134 5.845139 6.653005 5.821379h218.004693c25.186373 25.352698 40.357599 54.138822 45.501797 86.370252l-252.695358 0.356411c-15.123704 0.083163-22.608334-7.128219-22.45389-21.622264l1.425644-168.344769zM783.401966 780.326118c7.365826 8.874632 8.351896 18.770976 2.970091 29.700912l-165.018267-0.118804c-4.110606 0-7.8054-1.663251-9.979506-4.514539-14.137634-18.414565 7.128219-25.186373 21.50346-25.067569h150.524222zM780.431874 869.428853l6.415397 3.445306-6.415397 88.627521-260.89281 2.494877-8.435059-29.225697c14.137634-0.950429 32.314592-58.807806 85.538627-59.520628 85.455464-1.188036 146.722505-3.124536 183.789242-5.821379z" fill="#CBC5CB" /><path d="M786.847271 872.874159c24.235944-4.193769 46.844278-0.392052 67.836883 11.40515l-2.970091 71.282189a114.621759 114.621759 0 0 1-71.282189 5.940182l6.415397-88.627521zM402.755079 874.656214l45.026582 0.712822c25.103211 8.957795 44.907779 24.794321 59.401824 47.521459l3.92052 11.880365 8.435059 29.225697-71.282188-2.970091c-5.144198-32.23143-20.315424-61.017553-45.501797-86.370252z" fill="#B6ADB6" /><path d="M237.31358 601.681368m13.543534 0.047276l156.582253 0.546577q13.543533 0.047276 13.496258 13.59081l-0.008295 2.376058q-0.047276 13.543533-13.590809 13.496257l-156.582253-0.546577q-13.543533-0.047276-13.496258-13.590809l0.008294-2.376059q0.047276-13.543533 13.59081-13.496257Z" fill="#CBC5CB" /><path d="M237.380402 661.403667m12.830793 0l155.632779 0q12.830794 0 12.830794 12.830794l0 4.039324q0 12.830794-12.830794 12.830794l-155.632779 0q-12.830794 0-12.830793-12.830794l0-4.039324q0-12.830794 12.830793-12.830794Z" fill="#CBC5CB" /><path d="M237.499205 720.80549m11.642758 0l158.008851 0q11.642757 0 11.642757 11.642758l0 6.415397q0 11.642757-11.642757 11.642757l-158.008851 0q-11.642757 0-11.642758-11.642757l0-6.415397q0-11.642757 11.642758-11.642758Z" fill="#CBC5CB" /><path d="M234.766721 780.444921m14.375242 0l155.395171 0q14.375241 0 14.375241 14.375242l0 0.950429q0 14.375241-14.375241 14.375241l-155.395171 0q-14.375241 0-14.375242-14.375241l0-0.950429q0-14.375241 14.375242-14.375242Z" fill="#CBC5CB" /></svg>