<?xml version="1.0" standalone="no"?><!DOCTYPE svg PUBLIC "-//W3C//DTD SVG 1.1//EN" "http://www.w3.org/Graphics/SVG/1.1/DTD/svg11.dtd"><svg class="icon" width="200px" height="200.00px" viewBox="0 0 1024 1024" version="1.1" xmlns="http://www.w3.org/2000/svg"><path d="M812.4 458.2L705.2 544h111.2v-88.5c-1.4 0.8-2.7 1.7-4 2.7z m-223.6-5.1V544h116.5L598 458.2c-2.9-2.3-6-4-9.2-5.1z" fill="#FFF370" /><path d="M906.371 581.017v21.2h-402.3v-21.2z" fill="#FF7A51" /><path d="M699.9 639.3h52.9v232.9h-52.9z" fill="#FFF370" /><path d="M657.6 676.3H525.2v142.9c0 8.8 7.1 15.9 15.9 15.9h116.5V676.3zM752.9 676.3v158.8h116.5c8.8 0 15.9-7.1 15.9-15.9V676.3H752.9z" fill="#FF7A51" /><path d="M451.1 506.9h58.2v-127H117.6v455.3h335c-0.9-5.2-1.5-10.5-1.5-15.9v-143c-11.7 0-21.2-9.5-21.2-21.2v-127c0-11.7 9.5-21.2 21.2-21.2z m-248.8-31.7c-20.5 0-37.1-16.6-37.1-37.1s16.6-37.1 37.1-37.1 37.1 16.6 37.1 37.1-16.6 37.1-37.1 37.1z m222.4 0c-20.5 0-37.1-16.6-37.1-37.1s16.6-37.1 37.1-37.1 37.1 16.6 37.1 37.1c-0.1 20.5-16.7 37.1-37.1 37.1z" fill="#9ADCCF" /><path d="M500.2 379.9L458 422.1c2.3 4.9 3.7 10.3 3.7 16 0 20.5-16.6 37.1-37.1 37.1-5.8 0-11.2-1.4-16-3.7l-291 291v72.7h62.1L430 584.9v-56.8c0-11.7 9.5-21.2 21.2-21.2H508l1.4-1.4V379.9h-9.2z m-269.5 0l-21.8 21.8c17.3 3.1 30.5 18.2 30.5 36.4 0 20.5-16.6 37.1-37.1 37.1-18.2 0-33.3-13.2-36.4-30.5L117.6 493v134.8L365.4 380H230.7z m220.4 318.6L314.5 835.2h134.8l3-3c-0.6-4.2-1.1-8.5-1.1-12.9V698.5z" fill="#309AA5" /><path d="M80.5 702.8c8.8 0 15.9-7.1 15.9-15.9V358.7h90v28.9c-21.5 6.8-37.1 26.8-37.1 50.5 0 29.2 23.8 52.9 52.9 52.9 29.2 0 52.9-23.8 52.9-52.9 0-23.7-15.6-43.7-37.1-50.5v-28.9h190.6v28.9c-21.5 6.8-37.1 26.8-37.1 50.5 0 29.2 23.8 52.9 52.9 52.9 29.2 0 52.9-23.8 52.9-52.9 0-23.7-15.6-43.7-37.1-50.5v-28.9h90v42.4c0 8.8 7.1 15.9 15.9 15.9s15.9-7.1 15.9-15.9v-58.2c0-8.8-7.1-15.9-15.9-15.9H440.5v-63.5c0-70.1-57-127.1-127.1-127.1s-127.1 57-127.1 127.1V327H80.5c-8.8 0-15.9 7.1-15.9 15.9V687c0.1 8.7 7.2 15.8 15.9 15.8z m344.2-285.9c11.7 0 21.2 9.5 21.2 21.2s-9.5 21.2-21.2 21.2-21.2-9.5-21.2-21.2 9.5-21.2 21.2-21.2zM218.2 263.4c0-52.5 42.7-95.3 95.3-95.3s95.3 42.7 95.3 95.3v63.5H218.2v-63.5z m-15.9 153.5c11.7 0 21.2 9.5 21.2 21.2s-9.5 21.2-21.2 21.2-21.2-9.5-21.2-21.2 9.5-21.2 21.2-21.2zM428.3 856.3h-316c-8.8 0-15.9-7.1-15.9-15.9v-74.1c0-8.8-7.1-15.9-15.9-15.9s-15.9 7.1-15.9 15.9v74.1c0 26.3 21.4 47.6 47.6 47.6h316c8.8 0 15.9-7.1 15.9-15.9 0.1-8.7-7-15.8-15.8-15.8zM943.5 528.1H880V483c0-18.5-10.3-34.9-27-42.9-16.6-8-36-5.8-50.4 5.7l-97.3 77.8-97.3-77.8c-14.4-11.5-33.7-13.7-50.4-5.7-16.7 8-27 24.5-27 42.9v45.1H467c-8.8 0-15.9 7.1-15.9 15.9v95.3c0 8.8 7.1 15.9 15.9 15.9h5.3v164.1c0 37.9 30.9 68.8 68.8 68.8h328.3c37.9 0 68.8-30.9 68.8-68.8V702.8c0-8.8-7.1-15.9-15.9-15.9s-15.9 7.1-15.9 15.9v116.5c0 20.4-16.6 37.1-37.1 37.1H768.8V655.2h174.7c8.8 0 15.9-7.1 15.9-15.9V544c-0.1-8.8-7.2-15.9-15.9-15.9zM562.3 483c0-6.3 3.4-11.6 9-14.3 5.6-2.7 11.9-2 16.8 1.9l71.9 57.5h-97.7V483zM737 856.3h-63.5v-66.1c0-8.8-7.1-15.9-15.9-15.9s-15.9 7.1-15.9 15.9v66.1H541.1c-20.4 0-37.1-16.6-37.1-37.1v-164h137.6v65.4c0 8.8 7.1 15.9 15.9 15.9s15.9-7.1 15.9-15.9v-65.4H737v201.1z m190.6-232.9H482.9v-63.5h320.5c8.8 0 15.9-7.1 15.9-15.9s-7.1-15.9-15.9-15.9h-52.9l71.9-57.5c4.9-3.9 11.2-4.6 16.8-1.9 5.6 2.7 9 8.1 9 14.3v61c0 8.8 7.1 15.9 15.9 15.9h63.5v63.5zM783.5 332.4c3.1 3.1 7.2 4.7 11.2 4.7s8.1-1.6 11.2-4.7c6.2-6.2 6.2-16.3 0-22.5l-22.5-22.5c-6.2-6.2-16.3-6.2-22.5 0-6.2 6.2-6.2 16.3 0 22.5l22.6 22.5zM689.9 337c4.1 0 8.1-1.6 11.2-4.7l22.5-22.5c6.2-6.2 6.2-16.3 0-22.5-6.2-6.2-16.3-6.2-22.5 0l-22.5 22.5c-6.2 6.2-6.2 16.3 0 22.5 3.2 3.2 7.2 4.7 11.3 4.7zM701.1 250c3.1 3.1 7.2 4.7 11.2 4.7s8.1-1.6 11.2-4.7c6.2-6.2 6.2-16.3 0-22.5L701 205c-6.2-6.2-16.3-6.2-22.5 0-6.2 6.2-6.2 16.3 0 22.5l22.6 22.5zM772.2 254.7c4.1 0 8.1-1.6 11.2-4.7l22.5-22.5c6.2-6.2 6.2-16.3 0-22.5-6.2-6.2-16.3-6.2-22.5 0L761 227.5c-6.2 6.2-6.2 16.3 0 22.5 3.1 3.1 7.2 4.7 11.2 4.7z" fill="#4F3D3B" /></svg>