<?xml version="1.0" standalone="no"?><!DOCTYPE svg PUBLIC "-//W3C//DTD SVG 1.1//EN" "http://www.w3.org/Graphics/SVG/1.1/DTD/svg11.dtd"><svg class="icon" width="200px" height="200.00px" viewBox="0 0 1024 1024" version="1.1" xmlns="http://www.w3.org/2000/svg"><path d="M449.864 762.16v211.72c0 17.648 14.464 32.08 32.136 32.08h60c17.68 0 32.144-14.432 32.144-32.08V762.16H449.864z" fill="#CF9945" /><path d="M252.704 513.448v205.928c0 23.528 19.28 42.776 42.856 42.776h432.88c23.568 0 42.856-19.248 42.856-42.776v-205.92H252.704z" fill="#89AAED" /><path d="M771.08 264.744C765.76 126.496 651.816 16.04 512 16.04c-139.816 0-253.768 110.456-259.08 248.704-0.128 3.344-0.216 255.736-0.216 255.736h518.592s-0.088-252.384-0.224-255.736z" fill="#C3DDF7" /><path d="M343.44 762.16V400.52c0-29.328 23.824-53.104 53.208-53.104 29.392 0 53.216 23.776 53.216 53.104V762.16H343.44zM680.552 762.16V400.52c0-29.328-23.824-53.104-53.208-53.104-29.392 0-53.208 23.776-53.208 53.104V762.16h106.416z" fill="#3F4963" /><path d="M339.768 193.936a29.104 29.04 0 1 0 58.208 0 29.104 29.04 0 1 0-58.208 0Z" fill="#3F4963" /><path d="M400 286.88h-62.264a16.056 16.056 0 0 1-16.08-16.04c0-8.864 7.2-16.04 16.08-16.04h62.256c8.88 0 16.08 7.176 16.08 16.04 0 8.856-7.2 16.04-16.08 16.04z" fill="#FF9596" /><path d="M626.056 193.936a29.104 29.04 0 1 0 58.208 0 29.104 29.04 0 1 0-58.208 0Z" fill="#3F4963" /><path d="M686.272 286.88h-62.256a16.056 16.056 0 0 1-16.08-16.04c0-8.864 7.2-16.04 16.08-16.04h62.256c8.88 0 16.08 7.176 16.08 16.04 0 8.856-7.2 16.04-16.08 16.04z" fill="#FF9596" /><path d="M483.072 262.168c-24.808 0-45-20.144-45-44.904 0-8.864 7.2-16.04 16.08-16.04 8.872 0 16.072 7.176 16.072 16.04a12.856 12.856 0 0 0 25.712 0c0-8.864 7.2-16.04 16.072-16.04 8.88 0 16.072 7.176 16.072 16.04 0 24.76-20.192 44.904-45 44.904z" fill="#3F4963" /><path d="M540.936 262.168c-24.816 0-45-20.144-45-44.904 0-8.864 7.192-16.04 16.072-16.04 8.872 0 16.072 7.176 16.072 16.04a12.856 12.856 0 0 0 25.712 0c0-8.864 7.2-16.04 16.072-16.04 8.88 0 16.072 7.176 16.072 16.04 0 24.76-20.184 44.904-45 44.904z" fill="#3F4963" /><path d="M368.864 164.88a29.072 29.072 0 0 0-29.096 29.04 29.072 29.072 0 0 0 29.096 29.056 29.072 29.072 0 0 0 29.104-29.048 29.072 29.072 0 0 0-29.104-29.04z m201 36.344c-8.88 0-16.08 7.176-16.08 16.04a12.856 12.856 0 0 1-25.712 0c0-8.864-7.2-16.04-16.072-16.04-8.88 0-16.072 7.176-16.072 16.04a12.856 12.856 0 0 1-25.712 0c0-8.864-7.2-16.04-16.08-16.04-8.872 0-16.064 7.176-16.064 16.04 0 24.76 20.184 44.912 45 44.912a44.816 44.816 0 0 0 28.928-10.56 44.824 44.824 0 0 0 28.928 10.56c24.808 0 45-20.152 45-44.912a16.04 16.04 0 0 0-16.064-16.04z m85.28-36.344a29.072 29.072 0 0 0-29.096 29.04 29.072 29.072 0 0 0 29.096 29.056 29.072 29.072 0 0 0 29.104-29.048 29.072 29.072 0 0 0-29.104-29.04z m132 99.256c-2.744-71.152-32.576-137.6-84.008-187.128C651.56 27.344 583.68 0 512 0c-71.68 0-139.56 27.344-191.136 77.008-51.44 49.52-81.272 115.976-84 187.12-0.12 3.08-0.208 349.232-0.232 455.248 0 32.432 26.432 58.816 58.928 58.816h138.232v195.688c0 26.536 21.624 48.12 48.216 48.12h60c26.584 0 48.216-21.584 48.216-48.12V778.192h138.208c32.496 0 58.928-26.384 58.928-58.816-0.024-106.016-0.104-452.16-0.224-455.24zM558.08 973.88a16.08 16.08 0 0 1-16.08 16.048h-60a16.072 16.072 0 0 1-16.072-16.048v-195.68H558.08v195.68z m170.352-227.76H295.56a26.792 26.792 0 0 1-26.784-26.736c0.032-153.6 0.12-445.096 0.208-454.2 2.456-62.768 28.8-121.384 74.192-165.088C388.728 56.24 448.68 32.08 512 32.08c63.312 0 123.264 24.16 168.816 68.016 45.392 43.704 71.736 102.32 74.192 165.088 0.088 9.04 0.176 300.576 0.216 454.192a26.792 26.792 0 0 1-26.792 26.736z" fill="#000000" /></svg>