<?xml version="1.0" standalone="no"?><!DOCTYPE svg PUBLIC "-//W3C//DTD SVG 1.1//EN" "http://www.w3.org/Graphics/SVG/1.1/DTD/svg11.dtd"><svg class="icon" width="200px" height="200.00px" viewBox="0 0 1024 1024" version="1.1" xmlns="http://www.w3.org/2000/svg"><path d="M419.192433 9.609086l-3.431816 455.129877h-71.003101l-2.958463-239.635465c4.023509-20.661902 4.023509-41.37114 0-62.127714 4.88738-24.685411 4.88738-49.347155 0-73.961563l6.508618-70.174732a8.946391 8.946391 0 0 1 6.27194-7.810341 121.320632 121.320632 0 0 1 64.612822-1.420062z" fill="#FDDD44" /><path d="M513.863234 8.662378c-13.336749 0.082837-19.999207 7.419824-19.999206 22.010962-0.710031 140.668977-0.082837 281.408957 1.893416 422.231773 0.071003 4.899214 1.183385 9.668256 3.313478 14.318959l-83.310305-2.485109 3.431816-455.129877 94.670801-0.946708z" fill="#FC9743" /><path d="M513.863234 8.662378c11.597173-2.757287 20.945915-0.946708 28.046225 5.443571 2.485109 2.272099 3.940672 6.011596 4.023509 10.29545 1.893416 93.96077-4.851879 188.631571 1.183385 282.000649a160.727353 160.727353 0 0 1-6.626956 57.275835c-14.756811 6.709793-16.733064 15.904695-5.916925 27.572871l-18.224129 67.571284-17.277421 8.402034a35.477883 35.477883 0 0 1-3.313478-14.318959c-1.976253-140.822817-2.603447-281.562797-1.893416-422.231773 0-14.591137 6.662458-21.928124 19.999206-22.010962z" fill="#FA7621" /><path d="M341.799053 89.014221c4.88738 24.614408 4.88738 49.276152 0 73.961563l-67.09793-2.958462 4.141847-54.080695a9.644588 9.644588 0 0 1 5.916925-8.165357 127.213889 127.213889 0 0 1 57.039158-8.757049z" fill="#FCA863" /><path d="M703.204837 109.250105c-23.987214 8.603209-37.323963 26.389486-39.998414 53.370664-18.389803-1.656739-30.850847-9.419745-37.394966-23.312685 7.964181-48.589789 33.761974-58.61306 77.39338-30.057979z" fill="#567983" /><path d="M703.204837 109.250105c32.069734 6.153602 10.887142 45.086969 5.443571 62.601067-17.206418 2.449607-32.353746-0.627194-45.441985-9.230403 2.67445-26.981178 16.011199-44.767455 39.998414-53.370664z" fill="#47656A" /><path d="M185.947247 145.225009l6.035263 36.211582c0.568025 3.19514-1.75141 6.48495-5.443571 7.692002l-21.774284 6.863633c-15.857359-17.585101-23.750537-38.294339-23.667701-62.127713 20.898579-12.934398 35.856566-9.147566 44.850293 11.360496z" fill="#FC9743" /><path d="M141.096954 133.864513c-0.082837 23.833374 7.810341 44.542612 23.667701 62.127713l-5.916925 7.92868c-16.496387 9.549917-33.099279 10.697801-49.820509 3.431816-23.277183-40.542771-12.591217-65.03884 32.069733-73.488209z" fill="#FCA863" /><path d="M625.811457 139.308084c6.544119 13.89294 19.005163 21.655946 37.394966 23.312685 13.088238 8.603209 28.235566 11.68001 45.441985 9.230403l6.390279 9.348742-19.76253 51.832263-9.348741 3.905171c-14.673974-11.478835-79.641812-49.583832-86.742122-20.709238h-2.011755c-5.372568-32.022399 4.177349-57.666352 28.637918-76.920026z" fill="#7CA2B0" /><path d="M185.947247 145.225009c23.194346 32.034232 37.158289 67.299106 41.891829 105.79462l-54.199034 12.070528c13.253912-23.738703 8.319197-43.465732-14.792312-59.169251l5.916925-7.92868 21.774284-6.863633c3.692161-1.207053 6.011596-4.496863 5.443571-7.692002l-6.035263-36.211582z" fill="#A8D3D8" /><path d="M274.701123 160.017322l67.09793 2.958462c4.023509 20.756573 4.023509 41.465811 0 62.127714h-67.09793c-10.023271-21.774284-10.023271-43.465732 0-65.086176z" fill="#DDEBF0" /><path d="M735.747925 246.286089c10.094274-15.857359 15.620682-33.96315 16.56739-54.317372 13.253912-26.271147 31.241364-29.38345 53.962357-9.348741 2.698118 2.36677 3.692161 6.153602 2.485108 9.585418l-55.145741 162.123747a9.833929 9.833929 0 0 1-7.810342 6.626956c-14.437297 1.893416-27.383529-1.692241-38.815028-10.768803a8.650544 8.650544 0 0 1-2.603447-9.585419l31.359703-94.315786z" fill="#567983" /><path d="M715.038687 181.199914l37.276628 10.768803c-0.946708 20.354222-6.473116 38.460013-16.56739 54.317372l-40.471768-13.253912 19.76253-51.832263z" fill="#698D97" /><path d="M158.84773 203.920906c23.111509 15.703519 28.046225 35.430547 14.792312 59.169251a94.434124 94.434124 0 0 0-38.933367 21.182591c-19.573188-22.010961-28.129062-47.643081-25.679454-76.920026 16.72123 7.265984 33.324122 6.118101 49.820509-3.431816z" fill="#DDEBF0" /><path d="M685.927416 236.937348l-50.767218 153.366698-41.418475-11.83385 37.631643-118.338502c1.242554-3.96434 0.710031-7.881344-1.420062-10.29545-5.916925-6.626956-13.336749-10.532127-22.247638-11.715511-4.141848-0.61536-7.242316-3.183306-7.455325-6.153602l-1.065047-15.739021c7.10031-28.874594 72.068147 9.230403 86.742122 20.709238z" fill="#47656A" /><path d="M597.173539 216.22811h2.011755l1.065047 15.739021c0.213009 2.970296 3.313478 5.538242 7.455325 6.153602 8.910889 1.183385 16.330713 5.088556 22.247638 11.715511 2.130093 2.414105 2.662616 6.33111 1.420062 10.29545l-37.631643 118.338502-41.418476-14.792313 44.850292-147.449773z" fill="#567983" /><path d="M341.799053 225.103498l2.958463 239.635465-40.945122 2.485109-3.431816-20.235884c-0.710031-5.834088 0.627194-11.040982 4.023509-15.620682 2.863792-3.774998 4.449528-7.538163 4.378524-10.413788l-0.828369-142.95291c-0.011834-4.212851-1.75141-7.905012-4.615202-9.822096l-28.637917-19.407514v-23.6677h67.09793z" fill="#3351C5" /><path d="M274.701123 248.771198l28.637917 19.407514c2.863792 1.917084 4.603368 5.609245 4.615202 9.822096l0.828369 142.95291c0.071003 2.875626-1.514733 6.63879-4.378524 10.413788-3.396315 4.5797-4.73354 9.786594-4.023509 15.620682l-26.626163-68.044638 0.946708-130.172352z" fill="#5169CC" /><path d="M227.839076 251.019629l45.915339 127.923921 26.626163 68.044638 3.431816 20.235884-47.098723 1.183385-61.062667-164.490517a10.177111 10.177111 0 0 0-6.745295-6.307442 9.372409 9.372409 0 0 0-8.757049 1.928917c-11.68001 10.259948-23.715036 11.242158-36.093243 2.958463l-9.348742-18.22413a94.434124 94.434124 0 0 1 38.933367-21.182591l54.199034-12.070528z" fill="#22B69F" /><path d="M256.713671 468.407457l-56.447466-4.141848-56.210788-161.768731c12.378207 8.283695 24.413233 7.301486 36.093243-2.958463a9.372409 9.372409 0 0 1 8.757049-1.928917 10.177111 10.177111 0 0 1 6.745295 6.307442l61.062667 164.490517z" fill="#28D1B3" /><path d="M540.489397 363.677883h11.83385l41.418476 14.792313 41.418475 11.83385c13.088238 18.863157 8.319197 32.8271-14.318958 41.891829a319.8098 319.8098 0 0 0-86.268768-40.945121c-10.816139-11.668176-8.839886-20.863078 5.916925-27.572871z" fill="#63B9FC" /><path d="M534.572472 391.250754a319.8098 319.8098 0 0 1 86.268768 40.945121l-9.348742 32.069734-29.584625 0.946708c-23.194346 6.473116-45.051468 4.343023-65.55953-6.390279l18.224129-67.571284z" fill="#47656A" /><path d="M516.348343 458.822038c20.508062 10.733302 42.365184 12.863395 65.55953 6.390279l2.958462 108.516406-420.10168-2.011754c-34.436504-4.970217-22.247638-72.423163-17.040744-95.262494a8.638711 8.638711 0 0 1 7.336987-6.508618l45.205307-5.680248 56.447466 4.141848 47.098723-1.183385 40.945122-2.485109h71.003101l83.310305 2.485109 17.277421-8.402034z" fill="#FCC99F" /><path d="M581.907873 465.212317l29.584625-0.946708 41.181799 8.047018c3.112303 0.61536 5.419903 3.96434 5.561909 8.047018 0.710031 26.03447 14.20062 91.712339-22.720992 94.079109l-50.648879-0.710031-2.958462-108.516406z" fill="#FCB982" /><path d="M164.764655 571.716969l420.10168 2.011754 50.648879 0.710031c-1.301724 26.152809-9.348742 228.511646 0.355015 236.203649l-4.141847 121.533641-78.576765-0.118338c0.544357-20.117545 0.98221-39.880075 1.301723-59.287589 1.337225-80.541184 1.183385-161.958073-0.473354-244.250668a6.094433 6.094433 0 0 0-6.035263-6.035263l-374.896373 2.721785-8.283695-53.489002z" fill="#E1DDE1" /><path d="M866.985323 579.882325l-43.075215 138.811063a4.591534 4.591534 0 0 0 0.579859 3.846001c0.757366 1.183385 2.011755 2.05909 3.431817 2.425939l23.194346 5.56191-117.865148-5.443571 36.448259-109.463114c7.573664-22.791995 22.247638-34.389169 44.021922-34.79152l53.252326-0.946708z" fill="#30A7FB" /><path d="M866.985323 579.882325c25.395442-4.567866 44.56628 0.82837 57.512512 16.212375a10.733302 10.733302 0 0 1 1.775077 10.413788l-42.60186 127.92392-8.875388-0.946708-23.6677-2.958462-23.194347-5.56191a5.81042 5.81042 0 0 1-3.44365-2.425939 4.591534 4.591534 0 0 1-0.591692-3.846001l43.075214-138.811063z" fill="#1A96F9" /><path d="M553.151617 932.057706l-379.038221 0.118338-1.065046-306.970073 374.896373-2.721785c3.277976 0 5.96426 2.686284 6.035263 6.035263 1.656739 82.292594 1.810579 163.709483 0.473354 244.250668-0.319514 19.407514-0.757366 39.170044-1.301723 59.287589z" fill="#F1EFF2" /><path d="M851.127964 730.527238l23.6677 2.958462-49.583832 0.946708a10.08244 10.08244 0 0 0-8.757049 5.088556 140.302127 140.302127 0 0 0-17.987452 67.807961l-18.342468 4.023509c-26.117307 2.603447-51.003894 0.319514-74.671595-6.863633l27.809548-79.405134 117.865148 5.443571z" fill="#FC9743" /><path d="M874.795664 733.4857l8.875388 0.946708-21.774285 67.334608-63.429436 5.561909c0.236677-24.058217 6.224605-46.660871 17.987452-67.807961a10.08244 10.08244 0 0 1 8.757049-5.088556l49.583832-0.946708z" fill="#FB8628" /><path d="M861.896767 801.767016c13.727266 1.656739 24.685411 6.828132 32.898104 15.502343 17.750775 18.697483 9.585419 144.964664 9.46708 176.91606-0.082837 15.940196-7.656501 23.833374-22.720992 23.667701l-48.16377-0.355016 1.5384-178.691137c0.15384-15.928362-7.976015-22.638155-24.377731-20.117546-6.626956 1.029545-16.768566-1.420062-30.412995-7.336987l18.342468-4.023509 63.429436-5.561909z" fill="#FCB982" /><path d="M705.453268 804.488801c23.6677 7.183147 48.554287 9.46708 74.671595 6.863633 13.644429 5.916925 23.786039 8.366532 30.412995 7.336987 16.401716-2.52061 24.531571 4.189183 24.377731 20.117546l-1.5384 178.691137h-204.133916l2.485109-55.737434v-29.584626l4.141847-121.533641c27.135018 3.005798 50.329365 0.946708 69.583039-6.153602z" fill="#FCC99F" /><path d="M174.113396 932.176044l379.038221-0.118338 78.576765 0.118338v29.584626H174.113396c-5.053054-10.011437-5.053054-19.880868 0-29.584626z" fill="#47656A" /><path d="M174.113396 961.76067h457.614986l-2.485109 55.737434c-137.201659 0.556191-274.426985 0.710031-411.699647 0.473354-39.170044 0-57.512512-15.857359-43.43023-56.210788z" fill="#F1EFF2" /></svg>