<?xml version="1.0" standalone="no"?><!DOCTYPE svg PUBLIC "-//W3C//DTD SVG 1.1//EN" "http://www.w3.org/Graphics/SVG/1.1/DTD/svg11.dtd"><svg class="icon" width="200px" height="195.79px" viewBox="0 0 1046 1024" version="1.1" xmlns="http://www.w3.org/2000/svg"><path d="M165.045422 853.897981h-75.167076a68.831565 68.831565 0 0 0 0 137.555749h75.167076z" fill="#FFFFFF" /><path d="M186.52173 1012.930037h-96.643384a90.307873 90.307873 0 0 1 0-180.508363h96.643384z m-96.643384-137.555748a47.355258 47.355258 0 0 0 0 94.603134h53.690769v-94.603134z" fill="#282D33" /><path d="M216.051652 213.689258H90.200491a68.724184 68.724184 0 0 0-68.187276 60.885332v640.101341a68.724184 68.724184 0 0 1 68.187276-60.77795H956.447349a68.938947 68.938947 0 0 0 68.294657-60.992713V152.696545a68.724184 68.724184 0 0 1-68.294657 60.77795H216.051652z" fill="#FFFFFF" /><path d="M42.952615 917.145706l-42.952615-2.577156V272.104814a90.200491 90.200491 0 0 1 90.200491-79.891863h866.461621a47.247876 47.247876 0 0 0 46.925732-41.878799l42.952614 2.577157v642.893261A90.200491 90.200491 0 0 1 966.433832 874.837381h-4.295262a46.710969 46.710969 0 0 1-5.476458 0H90.200491A47.247876 47.247876 0 0 0 42.952615 917.145706z m0-641.282538v569.122146a90.415254 90.415254 0 0 1 47.247876-12.56364h866.676384a47.247876 47.247876 0 0 0 46.388824-40.804984v-35.865433-533.79362a90.84478 90.84478 0 0 1-40.912366 12.885784H90.200491a47.247876 47.247876 0 0 0-46.710969 41.019747z" fill="#282D33" /><path d="M922.085257 726.865623h34.576855a68.831565 68.831565 0 0 1 68.294657 60.885332V147.542232a68.724184 68.724184 0 0 0-68.294657-60.77795h-34.576855z" fill="#FFFFFF" /><path d="M1003.587844 790.22073a47.355258 47.355258 0 0 0-46.925732-41.8788h-56.053162V65.287974h56.053162a90.093109 90.093109 0 0 1 89.556202 79.784482V787.643573z m-60.026279-84.831414h13.100547a89.878346 89.878346 0 0 1 46.710969 13.100547V148.83081a47.355258 47.355258 0 0 0-46.81835-40.590221h-12.993166z" fill="#282D33" /><path d="M845.736984 578.464339V526.169531l-46.388823-3.865736a141.743629 141.743629 0 0 0-18.362243-47.355257l31.033264-36.617104-36.939249-36.939249-35.435907 30.06683a142.710063 142.710063 0 0 0-46.496205-20.509873l-3.973117-47.784784h-52.187427L633.551068 409.660563a139.595998 139.595998 0 0 0-47.355258 18.254861L549.14918 397.311686l-36.831868 36.509723 29.959449 35.543289A141.099339 141.099339 0 0 0 521.766888 515.431377l-47.784784 3.973117v52.187427l46.388824 3.865735a141.528866 141.528866 0 0 0 18.254861 47.355258l-30.925883 36.617104 36.831868 36.939249L579.860299 666.624581A141.636247 141.636247 0 0 0 626.571268 687.241836l3.865735 47.784784h52.187427l3.865735-46.281442a141.743629 141.743629 0 0 0 47.355258-18.362243l36.617104 31.033264 36.939249-36.939249-30.066831-35.543289a138.951709 138.951709 0 0 0 20.509874-46.388823z" fill="#34CA9D" /><path d="M728.798491 549.14918a68.938947 68.938947 0 1 1-68.938947-68.938947 68.938947 68.938947 0 0 1 68.938947 68.938947z" fill="#FFFFFF" /><path d="M659.859544 639.457052a90.415254 90.415254 0 1 1 90.415254-90.307872 90.415254 90.415254 0 0 1-90.415254 90.307872z m0-137.770512a47.462639 47.462639 0 1 0 47.462639 47.46264 47.462639 47.462639 0 0 0-47.462639-47.46264z" fill="#282D33" /><path d="M102.441986 0v744.690958L847.240326 0z m137.233604 137.233604H515.431377L239.67559 413.418917z" fill="#F8C44F" /><path d="M148.079139 0z" fill="#FFFFFF" /><path d="M126.602832 0h42.952615v60.77795h-42.952615z" fill="#282D33" /><path d="M222.1724 0z" fill="#FFFFFF" /><path d="M200.696092 0h42.952615v35.006381h-42.952615z" fill="#282D33" /><path d="M296.26566 0z" fill="#FFFFFF" /><path d="M274.789353 0h42.952615v60.77795h-42.952615z" fill="#282D33" /><path d="M370.358921 0z" fill="#FFFFFF" /><path d="M348.882613 0h42.952615v35.006381h-42.952615z" fill="#282D33" /><path d="M444.452181 0z" fill="#FFFFFF" /><path d="M422.975874 0h42.952615v60.77795h-42.952615z" fill="#282D33" /><path d="M518.545442 0z" fill="#FFFFFF" /><path d="M497.069134 0h42.952615v35.006381h-42.952615z" fill="#282D33" /><path d="M592.638702 0z" fill="#FFFFFF" /><path d="M571.162395 0h42.952614v60.77795h-42.952614z" fill="#282D33" /><path d="M666.731962 0z" fill="#FFFFFF" /><path d="M645.255655 0h42.952615v35.006381h-42.952615z" fill="#282D33" /><path d="M740.932604 0z" fill="#FFFFFF" /><path d="M719.348916 0h42.952614v60.77795h-42.952614zM416.640363 1023.990336h-19.865584l-152.374401-56.697452 152.374401-56.697451h19.865584v42.952614h-12.134114l-36.939248 13.744837 36.939248 13.744837h12.134114v42.952615z" fill="#282D33" /><path d="M966.433832 1002.514028h36.831867a7.946234 7.946234 0 0 0 8.160997-7.73147v-55.086729a7.946234 7.946234 0 0 0-8.160997-7.73147H966.433832z" fill="#FFFFFF" /><path d="M1002.728791 1023.990336H966.433832v-42.952615h23.516556v-27.597055H966.433832v-42.952615h36.831867a29.422541 29.422541 0 0 1 29.637304 29.207778v55.086729a29.422541 29.422541 0 0 1-30.174212 29.207778z" fill="#282D33" /><path d="M423.620163 931.964359h499.968436v70.657051H423.620163z" fill="#F8C44F" /><path d="M944.957525 1023.990336H402.143856V910.488051H944.957525z m-499.968436-42.952615H902.00491v-27.597055H445.09647z" fill="#F8C44F" /></svg>