<?xml version="1.0" standalone="no"?><!DOCTYPE svg PUBLIC "-//W3C//DTD SVG 1.1//EN" "http://www.w3.org/Graphics/SVG/1.1/DTD/svg11.dtd"><svg class="icon" width="200px" height="164.23px" viewBox="0 0 1247 1024" version="1.1" xmlns="http://www.w3.org/2000/svg"><path d="M1240.895594 749.084176l-473.115035 274.915824L19.574147 592.052117 512.614435 305.549803l728.544488 420.449168a13.34202 13.34202 0 0 1-0.263329 23.085205z" fill="#0277B2" /><path d="M1193.759643 613.118464l-23.260757 29.580662c-24.050746 49.418138 23.260758 118.410423 23.260757 118.410423l-428.349048 258.501629-53.982513-73.293331 56.001371-85.494257z" fill="#FFF3EB" /><path d="M767.780559 860.82359l-0.526659 0.789988c-30.985085 45.468198-33.003943 123.501457 0 162.386422L19.135265 592.052117v-0.614435c-28.176239-48.189268-21.944111-109.36945 0-160.981999l0.614435-1.579976z" fill="#0784D1" /><path d="M1240.895594 585.907766l-473.115035 274.915824L19.574147 428.875707l486.369278-282.552374a13.166467 13.166467 0 0 1 13.34202 0l721.522373 416.587005a13.34202 13.34202 0 0 1 0.087776 22.997428z" fill="#5ABCFF" /><path d="M759.933345 875.24526L1151.100291 651.301217l8.724979 15.237991-391.166947 223.935265zM746.327996 918.378604l404.649408-231.650814 8.724979 15.229213-404.649409 231.659592zM745.353677 953.129299l413.558718-236.750626 8.724979 15.229213-413.567496 236.759404zM759.555906 984.763929l410.784982-242.938865 8.935642 15.106326-410.776204 242.938865z" fill="#E0DDDC" /><path d="M108.755015 381.388651L747.065318 779.454826l441.778845-246.651809-731.177782-412.549288-348.911366 261.134922z" fill="#3EB7F9" /><path d="M1149.871421 515.159952L746.626436 749.435282 109.10612 381.388651l420.098063-244.194068L1149.871421 495.498028a11.323161 11.323161 0 0 1 0 19.661924z" fill="#009148" /><path d="M1109.933139 399.382822l-7.460998 19.925253c-24.665181 50.383679 5.705469 115.513801 5.705469 115.513801L744.958683 746.099777l-45.994856-62.496828 47.662609-72.766673z" fill="#FFF3EB" /><path d="M746.626436 610.485171v0.614435a128.153609 128.153609 0 0 0 0 138.335676L108.755015 381.388651a174.938454 174.938454 0 0 1 0-137.721241l0.526658-1.316647z" fill="#04B762" /><path d="M1149.871421 376.209841L746.626436 610.485171 109.10612 242.350763 523.498714 1.579976a11.323161 11.323161 0 0 1 11.410938 0L1149.871421 356.460141a11.410938 11.410938 0 0 1 0 19.7497z" fill="#11CE78" /><path d="M741.386182 625.31939l347.208503-198.602983 4.36249 7.618995L745.748671 632.95594zM734.153403 653.636071l353.150969-201.999932 4.353711 7.618996-353.150968 201.999931zM734.565952 681.110098l352.466313-201.622493 4.353711 7.627773-352.457534 201.613715zM737.506463 700.894908l355.055718-203.088359 4.362489 7.618995-355.055717 203.097137zM737.515241 724.392662l355.055717-203.097137 4.353712 7.618996-355.055717 203.097137z" fill="#E0DDDC" /><path d="M683.602949 692.731699L152.379907 388.235213v-83.036516l531.223042 304.496486v83.036516z" fill="#009148" /><path d="M159.928682 673.157552l-76.189954-44.590434c-9.39208-43.888222-2.194411-101.294017 8.075433-144.65558l2.72107-11.498714 76.628836 43.888222c-12.113149 43.888222-19.925253 111.914967-11.235385 156.768729zM284.571233 746.099777l-76.189954-44.67821c-9.304303-43.888222-2.194411-101.294017 8.075433-144.65558L219.441111 544.213955l76.628836 43.888222c-12.113149 43.888222-20.188582 112.266072-11.586491 157.207612zM416.235899 821.850849l-76.189954-44.590434c-9.304303-43.888222-2.194411-101.381793 8.075433-144.65558l2.984399-12.376479 77.155495 44.502657c-12.025373 43.888222-20.451912 112.178296-11.84982 157.119836zM552.9916 901.464084l-76.102178-44.678211c-9.39208-43.888222-2.194411-101.294017 8.075433-144.65558l2.72107-12.990914 76.541059 43.888223c-12.113149 43.888222-19.837476 113.231613-11.235384 157.997599zM690.449511 980.287331L614.435111 935.696897c-9.39208-43.888222-2.194411-101.381793 8.075432-144.65558l3.686611-12.464255L702.211555 823.255272c-12.025373 43.888222-20.364135 112.178296-11.762044 157.032059z" fill="#1FA6EA" /><path d="M873.90228 455.296417L708.092577 333.550489a73.117778 73.117778 0 0 0 19.310817-47.574833c0-58.985771-81.807646-106.736156-182.750557-106.736157s-182.662781 47.838162-182.66278 106.823933 81.807646 106.736156 182.66278 106.736157a267.015944 267.015944 0 0 0 121.307046-27.035145l174.411795 105.331733z" fill="#04AF5D" /><path d="M666.223213 157.9976a137.984571 137.984571 0 0 0-12.376479-6.583233L649.545688 149.219955q-3.686611-1.843305-7.63655-3.423281h-0.877765c-5.881022-2.369964-12.025373-4.476599-18.2575-6.319904l-1.404423-0.526659-4.388823-1.141093c-3.511058-0.877764-6.934339-1.843305-10.533173-2.633294l-2.808846-0.789988-4.213269-0.702211-8.777645-1.755529-3.94994-0.263329-3.94994-0.526659-8.777644-1.053317-3.423282-0.965541h-3.862163l-8.777645-0.526659H533.329676c-3.862164 0-7.724327 0-11.586491 0.614435H515.686611c-6.495457 0.614435-12.990914 1.404423-19.398595 2.369964h-0.96554c-1.843305 0-3.598834 0.789988-5.44214 1.053317l-9.479856 1.843306-6.67101 1.667752c-2.984399 0.789988-5.968798 1.4922-8.777644 2.369964a14.57089 14.57089 0 0 0-1.843306 0.526659c-1.053317 0-2.018858 0.702212-3.072175 1.053317-4.564375 1.404423-8.777644 3.072176-13.517572 4.739928l-4.827705 2.018858a162.386422 162.386422 0 0 0-16.238642 7.724328l-2.106635 1.141093c-1.579976 0.877764-2.896623 1.843305-4.388822 2.808847s-4.213269 2.545517-6.232128 3.94994-3.159952 2.369964-4.827704 3.598834-3.598834 2.72107-5.266587 4.125493l-1.053317 0.877764c-2.194411 1.931082-4.301046 3.94994-6.232128 5.968798l-1.141093 1.228871-3.335505 3.774387a20.276359 20.276359 0 0 0-1.22887 1.667752c-1.4922 1.931082-2.808846 3.862164-4.125493 5.793245a24.138522 24.138522 0 0 0-1.667753 2.457741 5.354363 5.354363 0 0 0-0.614435 1.22887 56.615807 56.615807 0 0 0-2.545517 5.17881 18.959712 18.959712 0 0 0-1.492199 2.984399 4.915481 4.915481 0 0 0 0 1.053318c-0.614435 1.667752-1.053317 3.247728-1.579976 4.915481s-0.789988 2.282188-0.965541 3.423281 0 0.614435 0 0.877764c0 1.755529-0.526659 3.511058-0.702212 5.266587s0 2.282188 0 3.423281v1.404423L374.015429 263.329333c0-1.667752 0-3.247728 0.526659-4.915481s0-3.511058 0.702212-5.266586a37.480542 37.480542 0 0 1 1.141093-4.21327c0-1.667752 0.877764-3.335505 1.4922-5.003257s1.22887-2.633293 1.843305-4.037717 1.579976-3.423281 2.545517-5.17881 1.579976-2.45774 2.369964-3.598834a53.368078 53.368078 0 0 1 4.125493-5.793245 65.217898 65.217898 0 0 1 4.564375-5.44214l1.141094-1.316647a90.760843 90.760843 0 0 1 7.285445-6.758786c1.579976-1.404423 3.423281-2.808846 5.266587-4.213269l4.827704-3.598834c1.931082-1.316647 4.125493-2.633293 6.232128-3.862164s4.125493-2.72107 6.495456-4.037716c5.091034-2.808846 10.62095-5.354363 16.150866-7.724327l4.915481-1.931082c4.388822-1.755529 8.777644-3.335505 13.517572-4.827705l4.827705-1.579976 8.777644-2.282187 6.67101-1.667753c3.159952-0.702212 6.319904-1.22887 9.567633-1.843305s4.213269-0.877764 6.40768-1.141094c6.319904-1.053317 12.815361-1.843305 19.398594-2.369964h6.056575l11.498714-0.614435H556.94154l8.777644 0.614435c2.633293 0 5.266587 0.438882 7.812104 0.789988s5.705469 0.614435 8.777644 1.053318l7.636551 1.141093 8.777644 1.667753 7.109892 1.492199 10.533173 2.72107 5.793246 1.667753q9.304303 2.808846 18.169724 6.319904c2.984399 1.141094 5.793245 2.45774 8.777644 3.68661l4.301046 1.931082c4.301046 2.106635 8.777644 4.301046 12.464255 6.583233 33.267272 19.574147 49.681468 44.765987 49.242585 69.694497l0.789988-41.95714c0.087776-24.840734-16.326419-50.032573-49.681467-69.518944z" fill="#D6D6D6" /><path d="M725.29676 228.218755l-0.789988 41.869364c-0.438882 26.332933-18.2575 52.665867-53.455855 72.503343-70.747814 39.762729-184.857192 38.0072-254.551688-3.774387-35.110578-21.066347-52.665867-48.189268-52.139208-75.136636l0.789988-43.273787c0 26.859592 16.853077 55.474713 52.051431 76.541059 70.221155 41.781588 181.960569 41.342705 254.551689 2.984399 34.847248-20.013029 53.016972-45.380422 53.543631-71.713355z" fill="#D3D3D3" /><path d="M734.074404 339.168181l-51.173667-28.790674-2.194411-0.877764a11.410938 11.410938 0 0 0-4.564375 0 14.57089 14.57089 0 0 0-3.686611 1.053317l-0.789988 0.438882-1.053317 0.614436h-0.526659l-1.141093 0.877764-1.4922 1.404423v0.526659l-0.614435 0.789988-0.614435 0.965541a3.774387 3.774387 0 0 0 0 0.614435 13.254243 13.254243 0 0 0-0.965541 1.931082 16.677524 16.677524 0 0 0-1.141094 5.881021 13.34202 13.34202 0 0 0 2.984399 13.517573l51.173667 28.790673a13.07869 13.07869 0 0 1-6.40768-12.025372 19.047488 19.047488 0 0 1 1.22887-5.968799v-0.438882c0-0.702212 0.702212-1.4922 1.141094-2.194411v-0.614435a21.329676 21.329676 0 0 1 1.22887-1.755529v-0.526659l1.843305-1.843305h0.438883a11.674267 11.674267 0 0 1 1.667752-1.22887l1.053317-0.614435 1.228871-0.526659a12.727584 12.727584 0 0 1 3.68661-1.053317 15.009772 15.009772 0 0 1 4.476599 0 11.674267 11.674267 0 0 1 4.213269 1.053317z" fill="#CFD0D0" /><path d="M734.074404 339.080405l-65.832333-30.37065h65.832333v30.37065z" fill="#CFD0D0" /><path d="M734.074404 339.607063l-66.88565-30.897308h1.053317l65.832333 30.37065v0.526658zM734.074404 340.133722l-68.026744-31.423967h1.141094l66.88565 30.897308v0.526659z" fill="#CFD0D0" /><path d="M734.074404 340.572604l-69.167838-31.862849h1.141094l68.026744 31.423967v0.438882zM734.074404 341.099263l-70.221155-32.389508h1.053317l69.167838 31.862849v0.526659z" fill="#CFD0D0" /><path d="M734.074404 341.625921l-71.362249-32.916166h1.141094l70.221155 32.389508v0.526658z" fill="#CFD0D0" /><path d="M734.074404 342.15258l-72.415566-33.442825h1.053317l71.362249 32.916166v0.526659z" fill="#CFD0D0" /><path d="M734.074404 342.679239l-73.293331-33.793931v-0.175553h0.877765l72.415566 33.442825v0.526659z" fill="#CFD0D0" /><path d="M734.074404 343.118121l-73.293331-33.706155v-0.526658l73.293331 33.793931v0.438882z" fill="#CFD0D0" /><path d="M734.074404 343.64478l-73.293331-33.706155v-0.526659l73.293331 33.706155v0.526659z" fill="#CFD0D0" /><path d="M734.074404 344.171438l-73.293331-33.793931v-0.438882l73.293331 33.706155v0.526658z" fill="#CFD0D0" /><path d="M734.074404 344.698097l-73.293331-33.793931v-0.526659l73.293331 33.793931v0.526659z" fill="#CFD0D0" /><path d="M734.074404 345.224756l-73.293331-33.793931v-0.526659l73.293331 33.793931v0.526659zM734.074404 345.663638l-73.293331-33.706155v-0.526658l73.293331 33.793931v0.438882z" fill="#CFD0D0" /><path d="M734.074404 346.190297l-73.293331-33.706155v-0.526659l73.293331 33.706155v0.526659z" fill="#CFD0D0" /><path d="M734.074404 346.716955l-73.293331-33.706154v-0.526659l73.293331 33.706155v0.526658zM734.074404 347.243614l-73.293331-33.793931v-0.438882l73.293331 33.706154v0.526659z" fill="#CFD0D0" /><path d="M734.074404 347.770273l-73.293331-33.793931v-0.526659l73.293331 33.793931v0.526659z" fill="#CFD0D0" /><path d="M734.074404 348.209155l-73.293331-33.706155v-0.526658l73.293331 33.793931v0.438882z" fill="#CFD0D0" /><path d="M734.074404 348.735813l-73.293331-33.706154v-0.526659l73.293331 33.706155v0.526658z" fill="#CFD0D0" /><path d="M734.074404 349.262472l-73.293331-33.706154v-0.526659l73.293331 33.706154v0.526659z" fill="#CFD0D0" /><path d="M734.074404 349.789131L660.781073 315.9952v-0.438882l73.293331 33.706154v0.526659z" fill="#CFD0D0" /><path d="M734.074404 350.315789l-73.293331-33.793931V315.9952l73.293331 33.793931v0.526658z" fill="#CFD0D0" /><path d="M734.074404 350.842448l-73.293331-33.793931v-0.526659l73.293331 33.793931v0.526659zM734.074404 351.28133l-73.293331-33.706154v-0.526659l73.293331 33.793931v0.438882z" fill="#CFD0D0" /><path d="M734.074404 351.807989l-73.293331-33.793931v-0.438882l73.293331 33.706154v0.526659z" fill="#CFD0D0" /><path d="M734.074404 352.334648l-73.293331-33.793931v-0.526659l73.293331 33.793931v0.526659z" fill="#CFD0D0" /><path d="M734.074404 352.861306l-73.293331-33.793931v-0.526658l73.293331 33.793931v0.526658z" fill="#CFD0D0" /><path d="M734.074404 353.387965l-73.293331-33.793931v-0.526659l73.293331 33.793931v0.526659z" fill="#CFD0D0" /><path d="M734.074404 353.826847l-73.293331-33.706154v-0.526659l73.293331 33.793931v0.438882z" fill="#CFD0D0" /><path d="M734.074404 354.353506l-73.293331-33.706155v-0.526658l73.293331 33.706154v0.526659z" fill="#CFD0D0" /><path d="M734.074404 354.880165l-73.293331-33.793932v-0.438882l73.293331 33.706155v0.526659z" fill="#CFD0D0" /><path d="M734.074404 355.406823l-73.293331-33.793931v-0.526659l73.293331 33.793932v0.526658z" fill="#CFD0D0" /><path d="M734.074404 355.933482l-73.293331-33.793931v-0.526659l73.293331 33.793931v0.526659zM734.074404 356.372364l-73.293331-33.706155v-0.526658l73.293331 33.793931v0.438882z" fill="#CFD0D0" /><path d="M734.074404 356.899023l-73.293331-33.706155v-0.526659l73.293331 33.706155v0.526659zM734.074404 357.425681l-73.293331-33.793931v-0.438882l73.293331 33.706155v0.526658z" fill="#CFD0D0" /><path d="M734.074404 357.95234l-73.293331-33.793931v-0.526659l73.293331 33.793931v0.526659z" fill="#CFD0D0" /><path d="M734.074404 358.478999l-73.293331-33.793931v-0.526659l73.293331 33.793931v0.526659z" fill="#CFD0D0" /><path d="M734.074404 359.005657l-73.293331-33.793931v-0.526658l73.293331 33.793931v0.526658z" fill="#CFD0D0" /><path d="M734.074404 359.44454l-73.293331-33.706155v-0.526659l73.293331 33.793931v0.438883z" fill="#CFD0D0" /><path d="M734.074404 359.971198l-73.293331-33.793931v-0.438882l73.293331 33.706155v0.526658z" fill="#CFD0D0" /><path d="M734.074404 360.497857l-73.293331-33.793931v-0.526659l73.293331 33.793931v0.526659z" fill="#CFD0D0" /><path d="M734.074404 361.024516l-73.293331-33.793931v-0.526659l73.293331 33.793931v0.526659z" fill="#CFD0D0" /><path d="M734.074404 361.551174l-73.293331-33.793931v-0.526658l73.293331 33.793931v0.526658zM734.074404 361.990057l-73.293331-33.706155v-0.526659l73.293331 33.793931v0.438883z" fill="#CFD0D0" /><path d="M734.074404 362.516715l-73.293331-33.793931v-0.438882l73.293331 33.706155v0.526658z" fill="#CFD0D0" /><path d="M734.074404 363.043374l-73.293331-33.793931v-0.526659l73.293331 33.793931v0.526659z" fill="#CFD0D0" /><path d="M734.074404 363.570033l-73.293331-33.793932v-0.526658l73.293331 33.793931v0.526659z" fill="#CFD0D0" /><path d="M734.074404 364.096691l-73.293331-33.793931v-0.526659l73.293331 33.793932v0.526658z" fill="#CFD0D0" /><path d="M734.074404 364.535573l-73.293331-33.706154v-0.526659l73.293331 33.793931v0.438882zM734.074404 365.062232l-73.293331-33.793931v-0.438882l73.293331 33.706154v0.526659z" fill="#CFD0D0" /><path d="M734.074404 365.588891l-73.293331-33.793931v-0.526659l73.293331 33.793931v0.526659z" fill="#CFD0D0" /><path d="M734.074404 366.115549l-73.293331-33.793931v-0.526658l73.293331 33.793931v0.526658z" fill="#CFD0D0" /><path d="M734.074404 366.642208l-73.293331-33.793931v-0.526659l73.293331 33.793931v0.526659z" fill="#CFD0D0" /><path d="M733.723298 366.905537l-72.942225-33.530601v-0.526659l73.293331 33.793931v0.263329h-0.351106z" fill="#CFD0D0" /><path d="M732.582205 366.905537l-71.801132-33.003943v-0.526658l72.942225 33.530601h-1.141093z" fill="#CFD0D0" /><path d="M731.528887 366.905537l-70.747814-32.56506v-0.438883l71.801132 33.003943h-1.053318z" fill="#CFD0D0" /><path d="M730.387794 366.905537l-69.606721-32.038402v-0.526658l70.747814 32.56506h-1.141093z" fill="#CFD0D0" /><path d="M660.781073 334.867135l69.606721 32.038402h-69.606721v-32.038402z" fill="#CFD0D0" /><path d="M726.52563 337.763758A12.552032 12.552032 0 0 1 740.482085 351.105777a17.555289 17.555289 0 0 1-14.483114 17.555289 12.552032 12.552032 0 0 1-13.956454-13.517572 17.555289 17.555289 0 0 1 14.483113-17.379736z" fill="#CFD0D0" /><path d="M877.237785 410.179325l-139.47677-78.9988h-0.789988a16.853077 16.853077 0 0 0-3.686611-1.404424h-2.194411a22.47077 22.47077 0 0 0-5.968798 0 26.332933 26.332933 0 0 0-6.319904 1.843306h-0.702212l-1.316646 0.702211-1.755529 0.965541-0.877765 0.526659-1.931081 1.492199-0.702212 0.526659-2.45774 2.457741v0.526658l-0.614436 0.789988-1.141093 1.316647-1.053318 1.667752-0.614435 0.965541v0.526659a23.172981 23.172981 0 0 0-1.579976 3.335505v0.526658A19.837476 19.837476 0 0 0 702.211555 351.105777l-0.526659 1.667753a33.355049 33.355049 0 0 0-0.526658 5.17881 22.119664 22.119664 0 0 0 10.708726 20.276359L851.43151 456.437511a22.20744 22.20744 0 0 1-10.708726-20.188582 35.900566 35.900566 0 0 1 0.614435-5.266587v-1.579976c0-0.526659 0.614435-2.282188 0.965541-3.335505v-0.614435a30.546203 30.546203 0 0 1 1.931082-3.774387l0.614435-0.965541a22.997428 22.997428 0 0 1 2.106635-2.984399l0.702211-0.877765c0.965541-1.053317 2.018858-2.106635 3.072176-3.072175l0.702211-0.526659a28.87845 28.87845 0 0 1 2.896623-2.018858l1.667752-0.965541 2.106635-0.965541a25.279616 25.279616 0 0 1 6.232128-1.755529 23.085205 23.085205 0 0 1 6.056574 0h1.141094a19.310818 19.310818 0 0 1 5.705469 2.633294z" fill="#0784D1" /><path d="M864.685753 407.721584a20.97857 20.97857 0 0 1 23.348535 22.382993 29.317332 29.317332 0 0 1-24.226299 28.527345 20.890794 20.890794 0 0 1-23.436311-22.558546 29.492885 29.492885 0 0 1 24.314075-28.351792z" fill="#0674C6" /><path d="M710.462541 242.262986c0 24.138522-60.829076 84.353163-166.775245 81.632094-108.052803-2.808846-160.806446-58.634665-164.141951-86.547574-5.529916-45.994857 75.312189-82.94874 166.775245-81.632094S710.989199 195.829247 710.462541 242.262986z" fill="#B0EACA" /><path d="M711.95474 229.974284l-0.789988 3.686611c0.702212-46.784845-72.32779-87.776444-163.264186-89.61975h-6.056575c-88.741985 0-161.245328 38.182753-161.859763 84.17761l-0.702212-3.598834c0.702212-46.521516 73.468884-83.475399 162.825304-83.475398h4.827705c91.463055 1.22887 165.721927 41.430482 165.019715 88.829761z" fill="#EEF9FF" /><path d="M673.157552 153.169895c70.221155 42.396023 69.343391 109.457226-1.404423 149.658838s-184.857192 38.621636-254.551689-3.774387-69.343391-109.36945 1.404423-149.219955 184.593863-39.060518 254.551689 3.335504zM426.33019 291.330019c65.217898 38.709412 170.549631 40.289388 236.206412 3.511058s67.236756-95.412995 2.369964-134.210184-173.358478-41.869364-239.366364-5.003257-64.164581 96.554089 0.789988 135.702383" fill="#FFF5F5" /></svg>