<?xml version="1.0" standalone="no"?><!DOCTYPE svg PUBLIC "-//W3C//DTD SVG 1.1//EN" "http://www.w3.org/Graphics/SVG/1.1/DTD/svg11.dtd"><svg class="icon" width="200px" height="200.00px" viewBox="0 0 1024 1024" version="1.1" xmlns="http://www.w3.org/2000/svg"><path d="M887.707245 76.828007l-809.264488 807.724611c-25.656717-20.693575-48.754869-45.485592-69.294456-74.387895a10.423781 10.423781 0 0 1-1.066069-10.423781c8.374561-18.395605 21.2503-33.320565 38.615373-44.77488a73.55873 73.55873 0 0 0 33.403481 36.601687c3.589097 1.895233 7.699384 1.895233 10.779138 0 24.874933-15.280316-18.004713-46.55166-28.902303-51.882003l29.139207-32.100509c1.978149 15.955493 10.35271 26.497726 25.111837 31.626701 14.451152 4.974987 20.018398 0.035536 16.701741-14.806508-3.233741-14.688056-13.065262-24.401125-29.494564-29.139207l73.558731-73.558731c3.873382 14.06026 12.046575 24.318208 24.519577 30.797537 3.553562 1.776781 7.580932 1.824162 10.779137 0.118452 24.638029-13.148179-6.277959-42.642742-28.902303-37.3124l38.023112-35.06181c3.908918 14.688056 32.574317 55.672469 49.276058 31.389796 2.049221-2.925766 2.238744-6.929446 0.473808-10.423781-8.05474-16.583289-20.527742-28.665399-37.430852-36.246331l29.139208-26.177906c4.974987 11.726754 29.376111 42.998098 42.879646 19.781494a11.750445 11.750445 0 0 0 0.236904-10.897589c-5.685699-11.525386-14.960495-19.580126-27.836234-24.164221a100.506575 100.506575 0 0 1 32.100508-32.100509c0.947616 17.767809 27.954687 44.893331 38.970729 24.401125 1.634638-3.115289 1.45696-7.225576-0.473808-11.016042a55.850147 55.850147 0 0 0-26.177906-25.704097l32.574317-34.588002c-2.677017 15.635672 3.008682 26.68725 17.057097 33.166577 24.874933 11.608302 30.844917 4.584095 17.886261-21.084467-5.685699-11.288482-14.368235-18.596974-26.059453-21.913631l117.978253-115.016953c2.771778 13.977343 10.269794 23.725948 22.505892 29.25766 3.778621 1.7294 7.865217 1.907078 11.252946 0.473808 25.941002-11.134494-5.922603-40.273701-24.401125-42.050482l32.100509-29.139207c8.765453 25.82255 21.913631 32.692769 39.444537 20.610659a8.291644 8.291644 0 0 0 3.198205-9.357713c-4.501178-14.214247-14.605139-23.062616-30.323728-26.533262l32.100509-29.139207a86.825361 86.825361 0 0 0 29.020755 34.824906c3.257432 2.345351 7.130814 3.364039 10.779138 2.842849 33.640386-5.093439-11.48985-45.722496-24.519577-52.948071l32.100509-35.061811c-1.895233 18.004713 5.022367 29.885455 20.729111 35.654071 3.802311 1.338508 7.817836 0.88839 10.779138-1.184521 19.54459-13.977343-8.173192-40.036797-22.150536-43.827263l79.955142-79.481333c-5.282962 16.903109 0.438273 29.139207 17.175549 36.720139 19.745959 8.91944 25.86993 3.636478 18.360069-15.872576-6.550399-16.97418-18.395605-23.927317-35.535618-20.847563l35.06181-32.574317a85.901435 85.901435 0 0 0 33.640386 33.758837c3.43511 1.895233 7.46248 1.895233 10.542233 0 28.073139-16.820193-16.820193-45.485592-31.863604-49.039153l39.918344-36.127879c7.249266-6.562244 18.620664-6.195043 26.177906 0.829164l69.649813 65.385538zM691.396642 175.1906c6.775458-4.797309 6.514863-16.820193-0.59226-26.864928-3.411419-4.820999-7.983669-8.528548-12.698061-10.305329-4.714392-1.776781-9.19188-1.480651-12.449312 0.829164-6.775458 4.797309-6.514863 16.820193 0.592261 26.864928 3.411419 4.820999 7.983669 8.528548 12.698061 10.305329 4.714392 1.776781 9.19188 1.480651 12.437466-0.829164z m-214.990492 215.191861c6.112126-5.43695 4.820999-16.855728-2.878385-25.502729-3.70755-4.145822-8.410096-7.095279-13.100798-8.173193-4.690702-1.089759-8.978666-0.236904-11.904433 2.369042-6.100281 5.448795-4.809154 16.867574 2.890231 25.502729 3.695704 4.145822 8.410096 7.107124 13.100798 8.185037 4.690702 1.089759 8.966821 0.236904 11.904432-2.369041z m-53.232357 11.48985a11.845206 11.845206 0 0 0-16.749121-0.355357l-3.423265 3.281123a11.845206 11.845206 0 0 0-0.355356 16.749121l19.5209 20.338219a11.845206 11.845206 0 0 0 16.749121 0.355356l3.423265-3.281122a11.845206 11.845206 0 0 0 0.355356-16.749121l-19.5209-20.350065zM172.55292 693.868489c6.32534-5.768615 4.797309-17.744119-3.399574-26.722786-3.944454-4.3235-8.931285-7.355873-13.858891-8.445632-4.939451-1.089759-9.416939-0.142142-12.461157 2.629636-6.32534 5.780461-4.809154 17.755964 3.399574 26.734631 3.944454 4.311655 8.931285 7.344028 13.858891 8.445632 4.939451 1.089759 9.416939 0.142142 12.461157-2.641481z" fill="#FDE265" /><path d="M751.961182 46.741184c15.043412 3.553562 59.936743 32.218961 31.863604 49.039153-3.079754 1.895233-7.107124 1.895233-10.542233 0a85.901435 85.901435 0 0 1-33.640386-33.758837l12.319015-15.280316zM887.707245 76.828007l86.351553 88.365239-807.369255 807.606158-88.246786-88.246786 809.264488-807.724611zM630.725496 421.784102a14.688056 14.688056 0 0 0-20.776492 0L423.173793 608.571159a14.688056 14.688056 0 0 0 0 20.764646l1.338508 1.338509a14.688056 14.688056 0 0 0 20.776492 0l186.775211-186.775212a14.688056 14.688056 0 0 0 0-20.776491l-1.338508-1.338509zM704.580357 94.595817c17.140013-3.079754 28.98522 3.873382 35.535618 20.847563 7.509861 19.509055 1.385889 24.792017-18.360069 15.872576-16.737276-7.580932-22.458511-19.81703-17.175549-36.720139z" fill="#FC9743" /><path d="M974.058798 165.193246l37.075495 36.838591c3.790466 3.778621 5.851532 9.002357 5.697544 14.510377a22.032084 22.032084 0 0 1-6.514863 14.865734l-781.902061 782.020513a15.529065 15.529065 0 0 1-10.092116 4.619631 12.662525 12.662525 0 0 1-9.701224-3.553562l-41.93203-41.695126 807.369255-807.606158z" fill="#FA7621" /><path d="M624.625215 174.07715c13.977343 3.790466 41.695126 29.84992 22.150536 43.827263-2.961302 2.072911-6.976826 2.523029-10.779138 1.184521-15.706743-5.768615-22.624344-17.649357-20.729111-35.654071l9.357713-9.357713zM583.166993 218.496674c13.029727 7.225576 58.159962 47.854633 24.519577 52.948071a14.889424 14.889424 0 0 1-10.779138-2.842849 86.825361 86.825361 0 0 1-29.020755-34.824906l15.280316-15.280316zM535.786168 262.916197c15.718589 3.470645 25.82255 12.319014 30.323728 26.533262a8.291644 8.291644 0 0 1-3.198205 9.357713c-17.530905 12.08211-30.679084 5.211891-39.444537-20.610659l12.319014-15.280316zM491.366645 307.33572c18.478522 1.776781 50.342126 30.915988 24.401125 42.050482-3.387729 1.43327-7.474325 1.255592-11.252946-0.473808-12.236098-5.531711-19.734114-15.280316-22.505892-29.25766l9.357713-12.319014zM364.030679 434.671687c11.691219 3.316658 20.373755 10.62515 26.059453 21.913631 12.958656 25.668562 6.988672 32.692769-17.886261 21.084467-14.048415-6.479328-19.734114-17.530905-17.057097-33.166577l8.883905-9.831521zM322.572457 479.09121a55.850147 55.850147 0 0 1 26.177906 25.704097c1.930769 3.790466 2.108447 7.900753 0.473808 11.016042-11.016042 20.492207-38.023112-6.633315-38.970729-24.401125l12.319015-12.319014zM278.152934 523.510733c12.875739 4.584095 22.150536 12.638835 27.836234 24.164221 1.717555 3.553562 1.622793 7.628313-0.236904 10.897589-13.503535 23.216604-37.90466-8.05474-42.879646-19.781494l15.280316-15.280316zM233.73341 564.968955c16.903109 7.580932 29.376111 19.663042 37.430852 36.246331 1.764936 3.494336 1.575412 7.498016-0.473808 10.423781-16.701741 24.282673-45.36714-16.701741-49.276058-31.389796l12.319014-15.280316zM176.994873 621.707492l6.396411-6.396411c22.624344-5.330343 53.540332 24.164221 28.902303 37.3124a11.750445 11.750445 0 0 1-10.779137-0.118452c-12.473002-6.479328-20.646194-16.737276-24.519577-30.797537zM103.436142 695.266223c16.429301 4.738082 26.260822 14.451152 29.494564 29.139207 3.316658 14.842043-2.250589 19.781494-16.701741 14.806508-14.759127-5.128974-23.133688-15.671208-25.111837-31.626701l12.319014-12.319014zM61.977921 739.685746c10.89759 5.330343 53.777236 36.601687 28.902303 51.882003-3.079754 1.895233-7.19004 1.895233-10.779138 0a73.55873 73.55873 0 0 1-33.403481-36.601687l15.280316-15.280316z" fill="#FC9743" /><path d="M665.652599 138.845495a22.268988 15.043412 54.7 1 0 25.736608 36.349116 22.268988 15.043412 54.7 1 0-25.736608-36.349116Z" fill="#FC9743" /><path d="M448.517113 359.080916a20.966015 14.806508 48.3 1 0 27.894459 31.308055 20.966015 14.806508 48.3 1 0-27.894459-31.308055Z" fill="#FC9743" /><path d="M394.450284 412.993975m8.549398-8.198579l3.41976-3.279431q8.549399-8.198579 16.747977 0.35082l19.512617 20.347569q8.198579 8.549399-0.35082 16.747977l-3.419759 3.279432q-8.549399 8.198579-16.747978-0.35082l-19.512617-20.347569q-8.198579-8.549399 0.35082-16.747978Z" fill="#FC9743" /><path d="M412.780407 618.95552m10.386024-10.386024l186.780911-186.780911q10.386024-10.386024 20.772048 0l1.340132 1.340132q10.386024 10.386024 0 20.772048l-186.780912 186.780911q-10.386024 10.386024-20.772047 0l-1.340132-1.340132q-10.386024-10.386024 0-20.772048Z" fill="#FDE265" /><path d="M142.8309 661.347156a22.032084 15.51722 47.6 1 0 29.712573 32.539419 22.032084 15.51722 47.6 1 0-29.712573-32.539419Z" fill="#FC9743" /></svg>