<?xml version="1.0" standalone="no"?><!DOCTYPE svg PUBLIC "-//W3C//DTD SVG 1.1//EN" "http://www.w3.org/Graphics/SVG/1.1/DTD/svg11.dtd"><svg class="icon" width="200px" height="200.00px" viewBox="0 0 1024 1024" version="1.1" xmlns="http://www.w3.org/2000/svg"><path d="M252.537195 7.708819l4.722095 90.192004c0.177079 3.388103-1.180524 6.705374-3.789481 9.208084a14.99265 14.99265 0 0 1-10.034451 4.01378l-79.449239 1.888838c-16.055121-4.48599-27.695084-1.369407-34.943498 9.326136-7.000505-9.916398-7.472714-19.360587-1.416629-28.332566 2.313826-3.541571 3.588792-7.23661 3.659623-10.624713l0.944419-52.651352c0.236105-15.500275 8.110197-23.209094 23.610472-23.138263l96.684884 0.118052z" fill="#FFE8D8" /><path d="M252.537195 7.708819l59.026181-0.118052c7.590767 0 14.154478 5.713734 15.582911 13.576021 5.583877 31.874137 6.138723 63.630222 1.652733 95.268255l-164.801095-3.423518 79.449238-1.888838a14.99265 14.99265 0 0 0 10.022646-4.01378c2.597152-2.50271 3.966559-5.819981 3.777675-9.208084l-4.722094-90.192004z" fill="#FCDBBE" /><path d="M810.3346 7.708819a199.768205 199.768205 0 0 1 11.805236 93.261365 7.555351 7.555351 0 0 1-6.728985 6.728985l-55.248505 5.312356-64.456589 0.472209 2.361048-93.733574c0.070831-3.376298 2.821451-6.315801 6.610932-7.083142 34.778225-6.847037 70.00505-8.49977 105.656863-4.958199z" fill="#DAEBFD" /><path d="M810.3346 7.708819l71.775835 3.423519c3.281856 0.165273 6.221359 3.057556 7.201194 7.083141 8.334497 33.373402 10.542076 67.25443 6.610932 101.643083l-135.760215-6.847037 55.248505-5.312356a7.555351 7.555351 0 0 0 6.728985-6.728985c3.458934-32.181074-0.472209-63.276065-11.805236-93.261365z" fill="#C5E0FF" /><path d="M424.105561 102.375931m14.992445-0.078501l146.146819-0.76523q14.992444-0.078501 15.070945 14.913943l0.004945 0.944406q0.078501 14.992444-14.913943 15.070946l-146.146819 0.76523q-14.992444 0.078501-15.070946-14.913944l-0.004945-0.944406q-0.078501-14.992444 14.913944-15.070945Z" fill="#CBC5CB" /><path d="M163.997925 113.011525l164.801095 3.423518 0.944419 14.756546-0.826366 11.096921a6.256775 6.256775 0 0 1-6.256776 6.020671l-193.605871-2.361047v-23.610473c7.23661-10.695544 18.888378-13.812126 34.943499-9.326136z" fill="#FB8628" /><path d="M695.705757 113.483734l64.456589-0.472209 135.760215 6.847037-0.472209 2.479099c0.153468 8.110197-1.699954 15.193339-5.548461 21.249425-1.829812 2.868672-5.394993 4.604042-9.444189 4.604042l-182.272845 1.180524-2.4791-35.887918z" fill="#30A7FB" /><path d="M895.450352 122.337661l0.944419 53.713825c-25.109737 6.221359-51.199309 7.956729-78.268715 5.194303-42.428018-4.722094-83.226914-4.674873-122.420299 0.118053l2.4791-31.99219 182.272845-1.180524c4.049196 0 7.614377-1.73537 9.444189-4.604042 3.848507-6.056086 5.701929-13.139228 5.548461-21.249425z" fill="#DAEBFD" /><path d="M329.743439 131.191589l-0.944419 50.172253-69.414788-2.833257-130.802016 3.305466c-4.804731-11.958704-4.651263-23.917408 0.47221-35.887917l193.605871 2.361047a6.256775 6.256775 0 0 0 6.256776-6.020671l0.826366-11.096921z" fill="#FFE8D8" /><path d="M424.241909 157.799389m15.464765 0.053982l145.675725 0.508507q15.464765 0.053982 15.410783 15.518747l-0.004121 1.180517q-0.053982 15.464765-15.518747 15.410782l-145.675726-0.508506q-15.464765-0.053982-15.410783-15.518748l0.004121-1.180516q0.053982-15.464765 15.518748-15.410783Z" fill="#CBC5CB" /><path d="M896.394771 176.051486l-0.944419 335.858966-67.407898-0.472209c3.931144-8.653238 2.868672-15.535691-3.187414-20.659164-3.128388-2.679789-4.910978-6.115112-4.840147-9.326136 3.848507-99.707024 3.222829-199.78001-1.888837-300.207154 27.069406 2.762425 53.158978 1.027056 78.268715-5.194303z" fill="#1A96F9" /><path d="M259.384232 178.530585c-6.610932 110.898388-6.457464 221.938438 0.47221 333.143762l-130.802016 0.236105-0.47221-330.074401 130.802016-3.305466z" fill="#FB8628" /><path d="M259.384232 178.530585l69.414788 2.833257 2.951309 327.595301-67.407898 3.423518-4.485989-0.708314c-6.929674-111.205324-7.083142-222.245374-0.47221-333.143762z" fill="#FA7621" /><path d="M818.126056 181.245789c5.111667 100.427143 5.737345 200.50013 1.888837 300.207154-0.070831 3.211024 1.711759 6.646348 4.840147 9.326136 6.056086 5.123472 7.118557 12.005925 3.187414 20.659164l-4.48599 0.826366-129.03123-0.354157 1.180523-330.54661c39.193384-4.792926 79.99228-4.840147 122.420299-0.118053z" fill="#30A7FB" /><path d="M424.093577 216.861972m14.402366 0.025137l147.329122 0.257138q14.402366 0.025137 14.377229 14.427503l-0.002061 1.180521q-0.025137 14.402366-14.427503 14.37723l-147.329122-0.257138q-14.402366-0.025137-14.377229-14.427503l0.002061-1.180522q0.025137-14.402366 14.427503-14.377229Z" fill="#CBC5CB" /><path d="M574.82014 371.192038c-37.233715 21.650803-61.859437 53.99715-73.900778 97.03904a6.49288 6.49288 0 0 0 4.01378 7.791456 72.48415 72.48415 0 0 0 39.783646 2.951309l20.777216 5.902618a761.284259 761.284259 0 0 1-94.087732 112.621953l14.99265-47.693154a5.595682 5.595682 0 0 0-0.448599-4.403353 4.01378 4.01378 0 0 0-3.329077-2.089527l-53.123562-1.416628a16.196784 16.196784 0 0 1-12.926734-6.96509 13.457969 13.457969 0 0 1-1.003445-13.694074l66.109322-132.808905c1.73537-3.458934 4.722094-6.02067 8.263666-7.083142 29.347817-8.806706 57.644968-12.194809 84.879647-10.152503z" fill="#FDE265" /><path d="M574.82014 371.192038c31.874137 11.687184-20.305006 87.00459-30.103352 107.781805a72.48415 72.48415 0 0 1-39.783646-2.951309 6.49288 6.49288 0 0 1-4.01378-7.791456c12.041341-43.041891 36.667063-75.388238 73.900778-97.03904zM471.406272 597.498414a761.284259 761.284259 0 0 0 94.087732-112.621953c13.292696-8.653238 28.403398-8.098392 45.332106 1.652733a4.958199 4.958199 0 0 1 1.298576 7.673404l-136.232424 150.04455c-2.679789 2.951309-6.646348 3.954754-9.798346 2.4791-13.812126-6.610932 1.888838-38.603122 5.312356-49.227834z" fill="#FCD430" /><path d="M331.750329 508.959143l-2.951309 333.497919h-68.942578c-2.715204-52.533301-18.770325-297.373897 4.485989-330.074401l67.407898-3.423518z" fill="#1A96F9" /><path d="M129.054426 511.910452l130.802016-0.236105 4.485989 0.708314c-23.256315 32.700504-7.201194 277.5411-4.485989 330.074401l-128.322917-0.472209-0.590261-2.361048 0.118052-289.346336-2.00689-38.367017z" fill="#30A7FB" /><path d="M694.525234 511.910452l129.03123 0.354157c-5.430409 110.0248-4.922783 219.931548 1.534681 329.720244l-129.385388 3.423518c-7.673403-106.955439 0.236105-214.383087-1.180523-333.497919z" fill="#FB8628" /><path d="M823.556464 512.264609l4.48599-0.826366 67.407898 0.472209v327.595301l-70.359207 2.4791c-6.457464-109.788696-6.965089-219.695443-1.534681-329.720244z" fill="#FA7621" /><path d="M131.061316 550.277469l-0.118052 289.346336C126.693379 743.139611 126.716989 646.690832 131.061316 550.277469z" fill="#B6DBFD" /><path d="M423.949223 774.931112m14.284336 0l148.273765 0q14.284336 0 14.284335 14.284335l0 0.708315q0 14.284336-14.284335 14.284335l-148.273765 0q-14.284336 0-14.284336-14.284335l0-0.708315q0-14.284336 14.284336-14.284335Z" fill="#CBC5CB" /><path d="M423.80555 833.639635m14.04821-0.024519l148.981852-0.260022q14.04821-0.024519 14.072729 14.023691l0.002472 1.416626q0.024519 14.04821-14.023691 14.072728l-148.981852 0.260023q-14.04821 0.024519-14.072728-14.023691l-0.002473-1.416626q-0.024519-14.04821 14.023691-14.072729Z" fill="#CBC5CB" /><path d="M895.450352 839.505753c6.681764 12.360082 6.847037 24.318786 0.472209 35.887918l-200.216804-3.423519v-26.561781l129.385388-3.423518 70.359207-2.4791z" fill="#FFE8D8" /><path d="M131.533525 841.984853l128.322917 0.472209h68.942578c3.848507 10.152503 3.848507 19.99807 0 29.51309l-198.682123 7.673404c-6.303996-6.917868-5.831787-19.47864 1.416628-37.658703z" fill="#DAEBFD" /><path d="M328.79902 871.970152v32.4644l-79.213134 4.604042-117.816256-4.604042-1.652733-24.790996z" fill="#30A7FB" /><path d="M695.705757 871.970152l200.216804 3.423519 0.590262 26.561781c-54.622827 6.067891-108.926913 8.027561-162.912258 5.902618l-37.894808-0.472209v-35.415709z" fill="#FB8628" /><path d="M424.856531 889.218335m13.575835 0.071084l148.507834 0.777592q13.575835 0.071084 13.504752 13.646919l-0.017307 3.305421q-0.071084 13.575835-13.646919 13.504752l-148.507834-0.777592q-13.575835-0.071084-13.504752-13.646919l0.017307-3.305421q0.071084-13.575835 13.646919-13.504752Z" fill="#CBC5CB" /><path d="M896.512823 901.955452l-7.673403 103.768025a7.378273 7.378273 0 0 1-6.847037 6.965089l-62.803856 3.423519-0.118053-99.163983c-0.011805-3.305466-2.939504-6.008865-6.610932-6.138723l-78.858977-2.951309c53.985345 2.124942 108.289431 0.165273 162.912258-5.902618z" fill="#FCDBBE" /><path d="M131.76963 904.434552l117.816256 4.604042 9.680294 107.073491-114.746895-3.305466a9.054616 9.054616 0 0 1-8.02756-6.138723 113.011525 113.011525 0 0 1-4.722095-55.130453 23.197289 23.197289 0 0 0-1.180523-11.333026c-5.276941-13.930179-4.887368-25.853467 1.180523-35.769865z" fill="#DAEBFD" /><path d="M328.79902 904.434552c4.084612 32.582452 3.576987 65.094072-1.53468 97.511249a10.931649 10.931649 0 0 1-6.374828 8.381718c-17.707854 7.791456-38.248965 9.727515-61.623332 5.784566l-9.680294-107.073491 79.213134-4.604042z" fill="#C5E0FF" /><path d="M695.705757 907.385861l37.894808 0.472209 78.858977 2.951309c3.671428 0.129858 6.599127 2.833257 6.610932 6.138723l0.118053 99.163983-100.462559 0.236105c-15.748185 0.082637-23.575056-7.708819-23.49242-23.374368l0.472209-85.587961z" fill="#FFE8D8" /></svg>