<?xml version="1.0" standalone="no"?><!DOCTYPE svg PUBLIC "-//W3C//DTD SVG 1.1//EN" "http://www.w3.org/Graphics/SVG/1.1/DTD/svg11.dtd"><svg class="icon" width="200px" height="200.00px" viewBox="0 0 1024 1024" version="1.1" xmlns="http://www.w3.org/2000/svg"><path d="M312.7 157.4c58.7-32.9 126.4-51.8 198.5-51.8 224.1 0 405.9 181.7 405.9 405.9S735.3 917.3 511.2 917.3 105.3 735.5 105.3 511.4c0-110.1 43.8-210 115-283" fill="#9ADCCF" /><path d="M511.2 511.4m-333.6 0a333.6 333.6 0 1 0 667.2 0 333.6 333.6 0 1 0-667.2 0Z" fill="#FFFFFF" /><path d="M511.2 511.4m-294.7 0a294.7 294.7 0 1 0 589.4 0 294.7 294.7 0 1 0-589.4 0Z" fill="#E6EBEF" /><path d="M519 456.4l86.5-86.5c13-13 34.2-13 47.2 0s13 34.2 0 47.2l-86.5 86.5M458.1 505.5L332.3 379.7c-13-13-13-34.2 0-47.2s34.2-13 47.2 0l125.8 125.8" fill="#FF7A51" /><path d="M511.2 511.4m-50 0a50 50 0 1 0 100 0 50 50 0 1 0-100 0Z" fill="#FFF370" /><path d="M815.2 337.5c-0.2-0.4-0.4-0.8-0.7-1.2-0.2-0.4-0.5-0.7-0.7-1C753.3 231.7 641.2 161.9 513 161.2c-0.6-0.1-1.2-0.1-1.9-0.1s-1.2 0-1.9 0.1c-62.7 0.3-121.4 17.2-172.3 46.4-0.2 0.1-0.5 0.2-0.7 0.4-0.3 0.2-0.5 0.3-0.8 0.5-52.3 30.4-96 73.9-126.7 126-0.4 0.5-0.7 1-1 1.5-0.3 0.5-0.6 1-0.8 1.6-29.4 51.2-46.2 110.4-46.3 173.4V511.6c0 63.4 16.9 122.7 46.4 174 0.1 0.3 0.2 0.5 0.4 0.8 0.2 0.4 0.5 0.8 0.8 1.1 30.5 52.4 74.2 96.1 126.5 126.7 0.3 0.2 0.6 0.4 0.8 0.6 0.4 0.2 0.7 0.4 1 0.6 51.3 29.6 110.7 46.5 174.1 46.5h0.3c63.4 0 122.9-16.9 174.3-46.5l0.6-0.3c0.2-0.1 0.3-0.2 0.5-0.3 52.5-30.5 96.4-74.2 127.1-126.6 0.3-0.4 0.5-0.8 0.8-1.1 0.2-0.4 0.4-0.8 0.6-1.1 29.6-51.3 46.5-110.7 46.5-174.1v-0.2c0.2-63.6-16.6-122.9-46.1-174.2zM683.7 777.3L664.4 744c-4.6-8-14.8-10.8-22.8-6.1-8 4.6-10.8 14.8-6.1 22.8l19.3 33.4c-38.5 19.6-81.6 31.7-127.2 34v-38.7c0-9.3-7.5-16.7-16.7-16.7-9.3 0-16.7 7.5-16.7 16.7V828c-45.6-2.5-88.7-14.5-127.1-34.3l19.3-33.3c4.6-7.9 1.9-18.2-6-22.8-8-4.6-18.2-1.9-22.8 6l-19.3 33.3c-37.1-24.3-68.8-56.1-93-93.3l33.3-19.2c8-4.6 10.8-14.8 6.1-22.8-4.6-8-14.8-10.8-22.8-6.1l-33.3 19.3c-19.6-38.5-31.6-81.7-33.9-127.2l38.5 0.1c9.2 0 16.7-7.5 16.7-16.6 0-9.3-7.5-16.7-16.6-16.7l-38.5-0.1c2.5-45.5 14.5-88.6 34.3-127.1l33.2 19.3c2.6 1.5 5.5 2.3 8.3 2.3 5.8 0 11.3-3 14.4-8.3 4.6-7.9 1.9-18.2-6-22.8l-33-19.2c24.3-37.1 56-68.7 93.2-92.9l18.9 33.1c3.1 5.4 8.7 8.4 14.4 8.4 2.8 0 5.7-0.8 8.3-2.3 8-4.6 10.8-14.8 6.1-22.8l-19.2-33.2c38.4-19.5 81.3-31.5 126.7-33.9v38.4c0 9.2 7.5 16.6 16.7 16.6 9.3 0 16.7-7.5 16.7-16.7V195c45.5 2.4 88.6 14.4 127.1 34.1l-19.3 33.3c-4.6 7.9-1.9 18.1 6.1 22.7 2.6 1.5 5.5 2.3 8.3 2.3 5.8 0 11.3-3 14.4-8.3l19.2-33.2c37.1 24.2 68.8 55.9 93.1 93L743.6 358c-8 4.6-10.8 14.8-6.1 22.8 3.1 5.4 8.7 8.3 14.4 8.3 2.8 0 5.7-0.8 8.3-2.3l33.3-19.2c19.7 38.5 31.8 81.7 34.2 127.3h-38.5c-9.3 0-16.7 7.5-16.7 16.7 0 9.3 7.5 16.7 16.7 16.7h38.5c-2.4 45.6-14.4 88.7-34.2 127.3l-33.4-19.4c-7.9-4.6-18.1-1.9-22.8 6.1-4.5 7.8-1.8 18 6.1 22.7l33.3 19.3a319.48 319.48 0 0 1-93 93z" fill="#4F3D3B" /><path d="M511.2 88.9c-72.4 0-143.9 18.7-206.8 53.9-8 4.5-10.9 14.7-6.3 22.8 4.5 8 14.6 10.9 22.8 6.3 57.8-32.5 123.7-49.7 190.3-49.7 214.6 0 389.2 174.6 389.2 389.2S725.8 900.6 511.2 900.6 122 726 122 511.4c0-102 39.2-198.4 110.3-271.4 6.4-6.6 6.3-17.2-0.3-23.6-6.6-6.4-17.2-6.3-23.6 0.3-77.2 79.3-119.7 184-119.7 294.7-0.1 233 189.5 422.6 422.5 422.6s422.6-189.6 422.6-422.6c-0.1-233-189.7-422.5-422.6-422.5z" fill="#4F3D3B" /><path d="M593.7 358.1l-82.5 82.5-119.9-119.9c-9.4-9.4-22-14.6-35.4-14.6-13.4 0-26 5.2-35.4 14.6-19.5 19.5-19.5 51.3 0 70.8l124.1 124c2.2 34.9 31.2 62.7 66.7 62.7 35.3 0 64.4-27.7 66.6-62.6 0.1-0.1 0.2-0.2 0.3-0.2l86.5-86.5c19.5-19.5 19.5-51.3 0-70.8s-51.4-19.6-71 0z m-249.6-13.7c6.3-6.3 17.3-6.3 23.6 0l109.7 109.5c-9.7 5.8-17.9 13.9-23.7 23.6L344.1 368c-6.5-6.5-6.5-17.1 0-23.6z m167.1 200.3c-18.4 0-33.3-14.9-33.3-33.3s14.9-33.3 33.3-33.3 33.3 14.9 33.3 33.3-14.9 33.3-33.3 33.3z m129.7-139.4l-72.2 72.2c-5.8-9.7-13.9-17.8-23.6-23.6l72.2-72.2c6.5-6.5 17.1-6.5 23.6 0s6.5 17.1 0 23.6z" fill="#4F3D3B" /></svg>