<?xml version="1.0" standalone="no"?><!DOCTYPE svg PUBLIC "-//W3C//DTD SVG 1.1//EN" "http://www.w3.org/Graphics/SVG/1.1/DTD/svg11.dtd"><svg class="icon" width="200px" height="200.00px" viewBox="0 0 1024 1024" version="1.1" xmlns="http://www.w3.org/2000/svg"><path d="M234.771561 7.560337l-5.915756 125.887303-75.721686 3.667769-1.183152-115.00231c-0.082821-6.519164 4.649785-11.890671 10.648362-12.068144l72.172232-2.484618z" fill="#F1EFF2" /><path d="M234.771561 7.560337l71.935602 6.152387c3.478465 0.23663 6.17605 3.348318 6.152387 7.098908l1.301467 116.067147-61.642185 0.473261-23.663027-3.9044 5.915756-125.887303z" fill="#CBE5E6" /><path d="M787.894815 10.16327c8.51869 39.043994 9.820156 78.360114 3.9044 117.960189-0.473261 3.111688-3.395644 5.477991-6.980593 5.679127l-8.75532 0.591575-29.578784 2.011358-32.063401 0.47326 1.183151-116.067147a9.074771 9.074771 0 0 1 6.034072-8.163744c21.533354-8.045429 43.610959-8.873635 66.256475-2.484618z" fill="#F1EFF2" /><path d="M876.157906 136.878779l-70.515821 0.473261-29.578783-0.946521v-2.011358l8.75532-0.591575c3.584949-0.201136 6.507332-2.567438 6.980593-5.679127 5.915757-39.600076 4.61429-78.916195-3.9044-117.960189l79.27114 2.129672c3.525791 0.118315 6.32986 3.135351 6.389018 6.862278l2.602933 117.723559z" fill="#CBE5E6" /><path d="M545.34879 54.531446l-41.528613 94.770422c-1.455276 3.182677-0.449598 6.767626 2.247988 8.045429 13.961186 6.625648 27.875046 5.714621 41.765242-2.721248 5.986746 6.696637 14.032175 8.826309 24.136288 6.389018a564.304034 564.304034 0 0 1-97.136726 111.926117l9.701841-45.669642a5.253192 5.253192 0 0 0-1.088499-4.37766 5.513485 5.513485 0 0 0-4.117367-2.011357l-57.264525-1.538097a8.956456 8.956456 0 0 1-7.489348-4.271176 8.672499 8.672499 0 0 1-0.319451-8.51869l70.515821-140.085119c1.893042-3.644106 4.7681-6.353523 8.045429-7.572169a98.651159 98.651159 0 0 1 52.53192-4.37766z" fill="#FDE265" /><path d="M545.34879 54.531446l39.280624-0.118316a8.696162 8.696162 0 0 1 7.654989 4.460481c1.585423 2.804069 1.656412 6.318028 0.15381 9.264075l-44.604806 86.488363c-13.890197 8.435869-27.804057 9.346896-41.765242 2.721248-2.697585-1.277803-3.703264-4.862752-2.247988-8.045429l41.528613-94.770422z" fill="#FCD430" /><path d="M228.855805 133.44764l23.663027 3.9044c-5.442496 0.307619-9.938471 1.893042-13.487926 4.732605-2.543775 2.070515-4.022715 5.832936-4.022714 10.175102-0.473261 89.682872-0.473261 179.318418 0 268.9303 0.15381 47.716494 5.6318 83.56598 16.445803 107.548458 33.838128 75.366741 110.742966 128.845182 195.338287 119.14334 5.986746-0.709891 8.282059-4.259345 6.862278-10.648362l59.630828 14.316131-0.47326 159.252171c-54.590603 3.147183-105.856551-8.36488-153.809675-34.548019a490.747515 490.747515 0 0 1-94.652108-63.061967c-35.25791-40.866047-66.777062-86.015103-94.533792-135.470829a2290.190565 2290.190565 0 0 1-16.682434-440.605561l75.721686-3.667769z" fill="#63B9FC" /><path d="M746.484518 136.405519c9.701841 5.040225 19.557492 5.040225 29.578784 0l29.578783 0.946521c-8.99195 4.259345-13.724556 11.358253-13.487925 21.8883 5.205866 243.610862 49.810672 511.358011-228.703155 629.436515-4.058209 1.715569-7.004256 4.495975-8.045429 7.572169-1.975863 5.915757-0.402271 10.766677 4.732605 14.552761a75.840001 75.840001 0 0 1-47.326053 0l0.47326-159.252171 11.358253-3.431139c77.295277-7.654989 135.778448-46.781804 175.461344-117.368613a2658.860524 2658.860524 0 0 0 14.316132-393.871083l32.063401-0.47326z" fill="#FA7621" /><path d="M776.063302 134.394161v2.011358c-10.021292 5.040225-19.876943 5.040225-29.578784 0l29.578784-2.011358z" fill="#FCB982" /><path d="M252.518832 137.35204l61.642185-0.473261a3231.683248 3231.683248 0 0 0 17.865585 403.217979c31.306185 42.356818 67.912887 73.426372 109.796445 93.232326l11.831513 3.904399c1.419782 6.389017-0.875532 9.938471-6.862278 10.648362-84.595321 9.701841-161.500159-43.7766-195.338287-119.14334-10.814003-23.982478-16.291994-59.831964-16.445803-107.548458-0.473261-89.611883-0.473261-179.247429 0-268.9303 0-4.342165 1.478939-8.104587 4.022714-10.175102 3.549454-2.839563 8.045429-4.424986 13.487926-4.732605z" fill="#30A7FB" /><path d="M805.642085 137.35204l70.515821-0.473261a2464.551578 2464.551578 0 0 1-16.327489 440.960507c-25.319439 47.006603-54.389467 89.327927-87.198254 126.952139l-79.981031 63.771857c-40.783227 20.823464-84.950267 34.902965-132.512951 42.238503-5.134877-3.786084-6.708468-8.637005-4.732605-14.552761 1.041173-3.076193 3.98722-5.856599 8.045429-7.572169 278.513827-118.078504 233.909021-385.825654 228.703155-629.436515-0.23663-10.530047 4.495975-17.628955 13.487925-21.8883z" fill="#F2671E" /><path d="M571.969695 161.015067l31.826771-0.354946c16.090858-0.23663 18.610971 5.868431 7.572169 18.338846-15.854228 17.9839-131.093169 152.389893-144.226149 147.420658a7.406527 7.406527 0 0 1-4.614291-8.75532l12.304774-44.723121a564.304034 564.304034 0 0 0 97.136726-111.926117z" fill="#FCD430" /><path d="M700.104985 530.749862c-39.682896 70.586809-98.166067 109.713624-175.461344 117.368613l-5.442496-2.484617a6.992424 6.992424 0 0 1-4.14103-7.927114c3.857073-15.380967 4.61429-29.779919 2.247988-43.185025 60.932294-84.831951 111.571172-31.11688 182.796882-63.771857zM332.026602 540.096758l60.577349 0.828206c33.282047 22.870316 49.692357 53.667745 49.219096 92.40412-41.883558-19.805954-78.49026-50.875508-109.796445-93.232326z" fill="#F1EFF2" /><path d="M392.603951 540.924964c52.449099-5.205866 94.013206 12.659719 124.704152 53.596755 2.366303 13.405105 1.609086 27.804057-2.247988 43.185025a6.992424 6.992424 0 0 0 4.14103 7.927114l5.442496 2.484617-11.358253 3.431139-59.630828-14.316131-11.831513-3.904399c0.473261-38.736375-15.937049-69.533805-49.219096-92.40412zM169.816553 577.72097c27.756731 49.455726 59.275882 94.604782 94.533792 135.470829l-29.105523 9.346896-45.787957-70.870766c-2.153335-3.336487-5.383339-5.407002-8.637005-5.560811l-10.648362-0.47326c3.076193-19.013242 0.508755-35.932306-7.690484-50.757193 7.489348-2.922384 9.938471-8.637005 7.335539-17.155695zM859.830417 577.839286c-6.152387 9.29957-3.513959 14.978696 7.927114 17.037379-5.915757 1.183151-8.873635 4.294839-8.873635 9.346896a31984.130317 31984.130317 0 0 1-0.473261 275.082687c-22.882147-9.074771-46.379533-10.884992-70.51582-5.442496l-12.304774-6.389017c14.032175-15.227158 18.29152-32.465673 12.778035-51.703714a8.353048 8.353048 0 0 0-7.808799-5.797442c-52.53192-1.419782-83.41217-0.473261-135.234199 22.006615-38.890185 16.871738-80.146672 26.41977-123.757631 28.632263a6.80312 6.80312 0 0 0-6.507332 6.152387l-5.679126 59.867458c-20.752475-39.600076-54.117343-57.501155-100.094604-53.715071v-2.011357c23.970646 5.442496 34.619008 1.538097 31.945086-11.713199-0.745385-3.371981-3.584949-6.211545-7.453853-7.453853-41.646927-12.89635-78.916195-39.517255-121.509644-41.883558a1116.043001 1116.043001 0 0 0-65.073324-1.893042c-4.046378 0.070989-7.654989-1.573591-9.583525-4.37766-4.732605-6.625648-4.779931-13.298621-0.118316-19.995258 1.893042-2.8159 5.537148-4.543301 9.701841-4.61429l40.818722-0.709891c24.053467 3.939894 47.716494 3.265498 70.989081-2.011357 47.953124 26.183139 99.219072 37.695202 153.809675 34.548019a75.840001 75.840001 0 0 0 47.326053 0c47.562684-7.335538 91.729724-21.415039 132.512951-42.238503a296.071793 296.071793 0 0 0 89.564557 12.778035 8.483195 8.483195 0 0 0 8.045429-5.679127c2.756743-8.920961 2.082346-17.001885-2.011357-24.254602a6.933267 6.933267 0 0 1 1.064836-8.51869c21.060094-20.586833-17.628955-23.663027-16.682434-38.097473 32.808787-37.624213 61.878815-79.945536 87.198254-126.952139z" fill="#E1DDE1" /><path d="M162.481014 594.876665c8.199239 14.824886 10.766677 31.743951 7.690484 50.757193l-0.946521 5.915756c-44.096051 18.457161-62.825336 4.649785-56.199689-41.410297 8.99195-14.990528 25.473248-20.078078 49.455726-15.262652zM867.757531 594.876665c47.799314-11.358253 53.123495 14.552762 52.29529 53.478441a11254.372227 11254.372227 0 0 0-1.656412 357.430021c0.023663 3.194509-1.17132 6.258871-3.324656 8.51869a11.251769 11.251769 0 0 1-8.163744 3.549454h-59.867458c9.938471-20.279214 12.74254-41.812569 8.400375-64.600064l2.957878-73.946959c0.556081-91.741555 0.709891-183.435785 0.47326-275.082687 0-5.052056 2.957878-8.163744 8.873636-9.346896z" fill="#30A7FB" /><path d="M113.025288 610.139317c-6.625648 46.060082 12.103638 59.867458 56.199689 41.410297 5.359676 78.005168 5.560811 154.117294 0.591576 228.34821l0.23663 56.90958c0.070989 16.800749 8.75532 25.201124 26.029329 25.201123l251.656292-0.354945h337.198133c24.846178 4.413155 48.343564 1.609086 70.51582-8.400375 4.330334 22.787495 1.538097 44.320849-8.400374 64.600064l-714.860043 0.23663c-14.990528 0-22.527202-7.73781-22.598191-23.189766l-2.484618-343.350521 2.957879-32.536662 2.957878-8.873635z" fill="#63B9FC" /><path d="M110.06741 619.012952l-2.957879 32.536662c-5.134877-11.594883-4.14103-22.444381 2.957879-32.536662z" fill="#B6DBFD" /><path d="M170.171498 645.633858l10.648362 0.47326c3.253666 0.15381 6.483669 2.224325 8.637005 5.560811l45.787957 70.870766c-7.927114 39.39894 43.185024 14.671077 52.76855 55.726428l-40.818722 0.709891c-4.164693 0.070989-7.808799 1.79839-9.701841 4.61429-4.661616 6.696637-4.61429 13.36961 0.118316 19.995258 1.928537 2.804069 5.537148 4.448649 9.583525 4.37766 21.769985 0 43.457149 0.62707 65.073324 1.893042 42.593448 2.366303 79.862716 28.987208 121.509644 41.883558 3.868905 1.242309 6.708468 4.081872 7.453853 7.453853 2.673922 13.251295-7.97444 17.155695-31.945086 11.713199-79.910042-1.419782-159.725432 1.573591-239.469832 8.99195 4.969236-74.230915 4.7681-150.343041-0.591576-228.34821l0.946521-5.915756z" fill="#F1EFF2" /><path d="M772.632163 704.791425c-0.946521 14.434446 37.742528 17.51064 16.682434 38.097473a6.933267 6.933267 0 0 0-1.064836 8.51869c4.093704 7.252718 4.7681 15.333641 2.011357 24.254602a8.483195 8.483195 0 0 1-8.045429 5.679127 296.071793 296.071793 0 0 1-89.564557-12.778035l79.981031-63.771857zM264.350345 713.191799a490.747515 490.747515 0 0 0 94.652108 63.061967 183.530437 183.530437 0 0 1-70.989081 2.011357c-9.583526-41.055352-60.695664-16.327489-52.76855-55.726428l29.105523-9.346896z" fill="#D5CFD4" /><path d="M775.590041 867.474735c-79.152825 8.637005-217.226587-20.468518-255.797321 60.577349-1.360624 2.756743-3.466633 4.543301-5.324181 4.495975h-4.141029l-0.946521-5.915757 5.679126-59.867458a6.80312 6.80312 0 0 1 6.507332-6.152387c43.610959-2.212493 84.867446-11.760524 123.757631-28.632263 51.822029-22.479876 82.702279-23.426397 135.234199-22.006615 3.691432 0.141978 6.826783 2.484618 7.808799 5.797442 5.513485 19.238041 1.25414 36.476556-12.778035 51.703714z" fill="#F1EFF2" /><path d="M775.590041 867.474735l12.304774 6.389017-2.957878 87.78983h-269.166931c0.8637-10.175102-0.946521-19.876943-5.442496-29.105523h4.141029c1.857548 0.047326 3.963557-1.739232 5.324181-4.495975 38.570734-81.045867 176.644496-51.940344 255.797321-60.577349zM409.286385 870.905874v2.011357c-10.494552 2.756743-11.559389 6.862278-3.194509 12.304774 27.366291 17.9839 41.244656 43.457149 41.646928 76.431577l-251.656292 0.354945c-17.27401 0-25.958341-8.400375-26.029329-25.201123l-0.23663-56.90958c79.744401-7.418359 159.55979-10.411732 239.469832-8.99195z" fill="#CBC5CB" /><path d="M858.410635 879.306248l-2.957878 73.946959c-22.172256 10.00946-45.669642 12.813529-70.51582 8.400375l2.957878-87.78983c24.136287-5.442496 47.633673-3.632275 70.51582 5.442496zM409.286385 872.917231c45.977261-3.786084 79.342129 14.114996 100.094604 53.715071l0.946521 5.915757c4.495975 9.22858 6.306197 18.930422 5.442496 29.105523h-68.031202c-0.402271-32.974428-14.280637-58.447676-41.646928-76.431577-8.36488-5.442496-7.300044-9.548031 3.194509-12.304774z" fill="#B6ADB6" /></svg>