<?xml version="1.0" standalone="no"?><!DOCTYPE svg PUBLIC "-//W3C//DTD SVG 1.1//EN" "http://www.w3.org/Graphics/SVG/1.1/DTD/svg11.dtd"><svg class="icon" width="200px" height="166.91px" viewBox="0 0 1227 1024" version="1.1" xmlns="http://www.w3.org/2000/svg"><path d="M901.639951 7.790464c12.464742 46.360342 14.816046 93.202276 7.08224 140.511638l-682.869563 0.566579c-5.665792-53.258443-20.96343-141.361507 59.632459-141.503152 205.384955-0.481592 410.76991-0.339948 616.154864 0.424935z m-566.43754 90.284393c8.44203-2.351304 13.187131-11.784847 10.59503-21.048417-2.577935-9.26357-11.515722-14.872704-19.971916-12.507235-8.427865 2.351304-13.172966 11.770683-10.580866 21.034252 2.5921 9.277734 11.529886 14.872704 19.971916 12.5214z m71.247332-16.784908a16.855731 16.855731 0 1 0-33.711461 0 16.855731 16.855731 0 0 0 33.711461 0z m41.983518 17.705599c8.357043-0.155809 15.000184-8.286221 14.801881-18.130534a19.575311 19.575311 0 0 0-4.674278-12.535564 14.093657 14.093657 0 0 0-10.821663-5.02839c-8.357043 0.169974-14.986019 8.286221-14.801881 18.130533 0.084987 4.745101 1.77056 9.249405 4.674278 12.549729 2.903718 3.286159 6.79895 5.099213 10.821663 5.014226z" fill="#8DCAFC" /><path d="M901.639951 7.790464l62.040421-0.141645c22.181575-0.099151 35.170403 11.657367 38.952319 35.269554 6.600648 41.076991 8.15874 79.930159 4.674279 116.573668a192.155331 192.155331 0 0 0-95.043659-10.056781l-3.54112-1.133158c7.733806-47.309362 5.382502-94.151296-7.08224-140.511638z" fill="#63B9FC" /><path d="M908.722191 148.302102l3.54112 1.133158c0 58.924235 5.665792 125.780579-4.249344 183.571656-4.815923 28.470604 4.674278 68.697726 4.249344 89.661156a6416.509276 6416.509276 0 0 0 4.957568 392.922666l-674.229231-0.991514c-5.43916 0-10.042616-1.628915-12.464742-4.390989l-4.815923-5.665792-0.991514-560.063524v-74.363519l1.133159-21.246719 682.869563-0.566579z m-505.105344 222.099041l67.139634-61.190552c13.682887-12.464742 17.13902-26.345932 10.34007-41.643571-26.487577-60.199038-138.245321 66.856344-157.650658 85.978392-13.512914 13.399598-13.555407 26.912511-0.141645 40.510412 14.447769 14.589414 167.849084 182.438498 158.217237 63.315224a18.258014 18.258014 0 0 0-5.949081-11.898163l-71.388978-65.156607a7.62049 7.62049 0 0 1-2.507112-5.127541 5.821601 5.821601 0 0 1 1.940533-4.801759z m264.649138-81.091646a31.870079 31.870079 0 0 0-22.068259-39.306431l-2.18133-0.609073a31.870079 31.870079 0 0 0-39.306431 22.054095l-52.422739 186.546197a31.870079 31.870079 0 0 0 22.054094 39.292266l2.18133 0.623237a31.870079 31.870079 0 0 0 39.306431-22.054095l52.436904-186.546196z m138.755242 67.479581a19.122048 19.122048 0 0 1 1.699738 29.887052c-14.872704 13.314611-133.146109 104.108925-38.244095 112.749258 4.348495 0.467428 8.923622-0.963185 12.748032-3.966055a1186.586788 1186.586788 0 0 0 80.02931-67.564568c31.58679-29.178828 65.298251-50.992127 21.954943-89.377866-27.47909-24.079615-122.806038-134.987491-149.293615-61.190552a14.051164 14.051164 0 0 0 1.841382 12.748032c16.048355 23.328898 39.136457 45.567131 69.264305 66.714699z m-305.386181 236.26352a15.722572 15.722572 0 0 0-15.722572-15.722572h-160.05862a15.722572 15.722572 0 0 0-15.722572 15.722572v3.966054c0 8.682826 7.039746 15.722572 15.722572 15.722573h160.05862a15.722572 15.722572 0 0 0 15.722572-15.722573v-3.966054z m191.347956 72.762932c0.28329-11.03413-15.580928-20.396851-35.439528-20.906772-19.872765-0.524086-36.20441 7.988767-36.4877 19.022896-0.28329 11.019965 15.580928 20.382686 35.439528 20.906772 19.8586 0.509921 36.190245-8.002931 36.4877-19.022896z m-110.199652-0.991514a16.572441 16.572441 0 0 0-16.529947-16.60077l-239.662996-0.424934a16.572441 16.572441 0 0 0-16.60077 16.544112v2.266317a16.572441 16.572441 0 0 0 16.529948 16.60077l239.662995 0.424934a16.572441 16.572441 0 0 0 16.60077-16.544112v-2.266317z m184.84646 69.306799c-0.141645-9.773491-12.634716-17.507297-27.889861-17.280665-15.255145 0.240796-27.47909 8.357043-27.337446 18.130534 0.141645 9.787655 12.634716 17.521461 27.904025 17.280665 15.24098-0.240796 27.47909-8.357043 27.337446-18.130534z m-330.032376-0.212467a15.155993 15.155993 0 0 0-15.198487-15.1135l-96.601751 0.339948a15.155993 15.155993 0 0 0-15.099335 15.212651v1.133158a15.155993 15.155993 0 0 0 15.212651 15.099336l96.601751-0.339948a15.155993 15.155993 0 0 0 15.099335-15.198487v-1.133158z m236.688455 0.665731a15.297638 15.297638 0 0 0-15.255145-15.325967l-162.891516-0.28329a15.297638 15.297638 0 0 0-15.325967 15.269309v0.849869a15.297638 15.297638 0 0 0 15.269309 15.325967l162.891516 0.283289a15.297638 15.297638 0 0 0 15.325967-15.269309v-0.849868z" fill="#3351C5" /><path d="M912.263311 149.43526c32.762441-4.631785 64.448382-1.274803 95.043659 10.056781l0.566579 6.51566 0.566579 78.471218-4.107699 573.094846-87.11155-1.983027a6416.509276 6416.509276 0 0 1-4.957568-392.922666c0.424934-20.96343-9.065267-61.190552-4.249344-89.661156 9.915136-57.791077 4.249344-124.647421 4.249344-183.571656z" fill="#2844AE" /><path d="M1007.873549 166.007701l131.021436 7.08224c-69.972529-18.980403-29.887052 44.051532-32.436658 71.388978h-98.018199l-0.566579-78.471218zM224.719469 170.1154v74.363519l-91.502538 2.97454c-3.937725 0.070822-7.08224 3.54112-7.08224 7.790464l-0.566579 552.414706c0 6.628976 4.461811 12.464742 10.906649 14.306124 30.779414 8.583675 60.524821 2.776238 89.236222-17.42231l4.815923 5.665792c2.422126 2.762074 7.025582 4.390989 12.464742 4.390989l674.229231 0.991514 87.11155 1.983027 102.125898 4.107699c2.549606 33.513159-3.172843 65.1991-17.13902 95.043658l-1011.202202-0.283289c-5.665792 0-10.34007-3.54112-15.155993-6.232371-7.181391-18.130534-10.821662-32.578303-10.906649-43.343308-0.382441-216.914841-0.424934-433.914669-0.141645-650.999484 0-29.745407 14.631907-44.717262 43.909887-44.901401l128.896764-0.849869z" fill="#7A6D79" /><path d="M1138.894985 173.089941c27.379939 4.532633 41.402774 19.207034 42.068505 44.051532 4.716772 171.956783 3.116186 404.438387-4.815923 697.458977l-40.793702 3.257831-46.034558-1.133159c13.966177-29.844559 19.688627-61.5305 17.13902-95.043658V244.478919c2.549606-27.337446-37.535871-90.36938 32.436658-71.388978z" fill="#685E67" /><path d="M224.719469 244.478919l0.991514 560.063524c-28.7114 20.198548-58.456807 26.005985-89.236222 17.42231a14.943526 14.943526 0 0 1-10.906649-14.306124l0.566579-552.414706c0-4.249344 3.144514-7.719641 7.08224-7.790464l91.502538-2.97454z" fill="#DDEBF0" /><path d="M1008.440128 244.478919h98.018199v577.202545l-102.125898-4.107699zM62.961112 910.209462c4.815923 2.691251 9.490201 6.232371 15.155993 6.232371l1011.202202 0.283289 46.034558 1.133159c16.430796 32.096711 15.014348 64.731672-4.249343 97.876554-348.54535-6.232371-697.841418-7.039746-1047.888204-2.407962-57.366143 0.849869-88.103063-26.912511-71.813912-85.411812a9.433543 9.433543 0 0 1 9.065267-6.657305 87.975583 87.975583 0 0 0 42.493439-11.048294z" fill="#CBE5E6" /><path d="M1176.147567 914.60045l32.719948 5.949082c4.376824 0.779046 7.790464 3.966054 8.640332 8.073753 13.966177 65.808172-14.83021 94.845356-86.403325 87.11155 19.263692-33.144882 20.68014-65.779843 4.249343-97.876554l40.793702-3.257831z" fill="#A8D3D8" /><path d="M325.856571 64.519787a17.42231 15.864217 74.4 1 0 9.370409 33.561034 17.42231 15.864217 74.4 1 0-9.370409-33.561034Z" fill="#F1EFF2" /><path d="M389.594012 81.289949m-16.85573 0a16.855731 16.855731 0 1 0 33.711461 0 16.855731 16.855731 0 1 0-33.711461 0Z" fill="#F1EFF2" /><path d="M447.764854 63.318241a17.847244 15.155993 88.9 1 0 0.685243 35.687911 17.847244 15.155993 88.9 1 0-0.685243-35.687911Z" fill="#F1EFF2" /><path d="M404.183426 380.316278l71.388978 65.156607c3.456133 3.172843 5.580805 7.422187 5.949081 11.898163 9.631846 119.123274-143.769468-48.72581-158.217237-63.315224-13.413762-13.5979-13.371269-27.110814 0.141645-40.510412 19.405337-19.122048 131.163081-146.17743 157.650658-85.978392 6.79895 15.297638 3.342817 29.178828-10.34007 41.643571l-67.139634 61.190552a5.821601 5.821601 0 0 0-1.940533 4.787594 7.62049 7.62049 0 0 0 2.507112 5.113377z" fill="#F1EFF2" /><path d="M613.349687 240.763155m30.681062 8.624057l2.181764 0.613267q30.681062 8.624058 22.057005 39.30512l-52.434271 186.540858q-8.624058 30.681062-39.30512 22.057004l-2.181764-0.613266q-30.681062-8.624058-22.057004-39.30512l52.43427-186.540858q8.624058-30.681062 39.30512-22.057005Z" fill="#F1EFF2" /><path d="M807.021227 356.803242c-30.127848-21.161733-53.21595-43.399966-69.264305-66.714699a14.051164 14.051164 0 0 1-1.841382-12.748032c26.487577-73.796939 121.814525 37.110937 149.293615 61.190552 43.343308 38.38574 9.631846 60.199038-21.954943 89.377867a1186.586788 1186.586788 0 0 1-80.02931 67.564568c-3.82441 2.988705-8.399536 4.419318-12.748032 3.966054-94.902014-8.640333 23.371391-99.434647 38.244095-112.749258a19.122048 19.122048 0 0 0-1.699738-29.887052z" fill="#F1EFF2" /><path d="M310.131282 577.330026m15.722572 0l160.05862 0q15.722572 0 15.722572 15.722572l0 3.966054q0 15.722572-15.722572 15.722573l-160.05862 0q-15.722572 0-15.722572-15.722573l0-3.966054q0-15.722572 15.722572-15.722572Z" fill="#FDDD44" /><path d="M621.054309 663.924726a35.977778 19.971916 1.5 1 0 71.930899 1.883577 35.977778 19.971916 1.5 1 0-71.930899-1.883577Z" fill="#FC9743" /><path d="M310.020771 647.772736m16.572416 0.028925l239.662631 0.41829q16.572416 0.028924 16.543491 16.601341l-0.003955 2.266313q-0.028924 16.572416-16.60134 16.543491l-239.662631-0.41829q-16.572416-0.028924-16.543491-16.60134l0.003955-2.266314q0.028924-16.572416 16.60134-16.543491Z" fill="#FC9743" /><path d="M712.405688 734.989599a17.7056 27.620735 89.1 1 0 55.234656-0.867695 17.7056 27.620735 89.1 1 0-55.234656 0.867695Z" fill="#28D1B3" /><path d="M310.643316 719.196424m15.155901-0.052905l96.601163-0.337203q15.155901-0.052904 15.208805 15.102997l0.003955 1.133151q0.052904 15.155901-15.102996 15.208806l-96.601163 0.337203q-15.155901 0.052904-15.208805-15.102997l-0.003956-1.133151q-0.052904-15.155901 15.102997-15.208806Z" fill="#28D1B3" /><path d="M480.840874 718.947642m15.297615 0.026699l162.891268 0.284299q15.297615 0.026699 15.270915 15.324314l-0.001483 0.849868q-0.026699 15.297615-15.324314 15.270915l-162.891268-0.284299q-15.297615-0.026699-15.270915-15.324314l0.001483-0.849868q0.026699-15.297615 15.324314-15.270915Z" fill="#28D1B3" /></svg>