<?xml version="1.0" standalone="no"?><!DOCTYPE svg PUBLIC "-//W3C//DTD SVG 1.1//EN" "http://www.w3.org/Graphics/SVG/1.1/DTD/svg11.dtd"><svg class="icon" width="200px" height="200.00px" viewBox="0 0 1024 1024" version="1.1" xmlns="http://www.w3.org/2000/svg"><path d="M534.210163 6.325082c-18.987113-0.949356-19.224452 4.746778-5.577464 10.680251 200.788717 86.035354 270.091678 334.529192 108.938559 494.139608-4.628109-23.615221-19.699129-40.940962-45.806409-36.787531-33.393584 5.387593-52.09589 27.93479-56.130652 67.641589-22.072519 4.355169-39.208388 1.98178-51.383874-7.120167-18.512435-34.651481-14.359004-76.304459-72.269698-61.114769-3.678753 0.996823-6.965897 3.346479-9.256217 6.645489-30.937127 45.094393-18.868443 72.471436 36.194183 82.119263a7.179502 7.179502 0 0 1 5.933473 6.882828c0.237339 10.561581-13.05364 170.409337 29.548694 118.076107 2.349655-2.883668 3.500749-6.704824 3.204075-10.680251a374.259725 374.259725 0 0 1 6.170812-104.666459c18.108959 6.170812 37.29781 6.289481 57.554685 0.356009l5.340126 113.329329c0.118669 3.773689 2.314054 6.965897 5.458795 7.950853 7.594845 2.302187 15.46263 2.575127 23.615221 0.830686l2.966737 2.966737-29.667364 2.966736-145.370082-2.966736c-11.866945-86.628702-49.366493-126.14563-101.818391-181.445596-194.617905-204.704809-45.925079-522.976285 232.354791-509.803976z m-130.061722 258.580741l-3.322745 26.700627 1.424034 57.080008c0.071202 3.560084 2.278454 6.977764 5.814803 9.018878 52.689238 30.308179 108.582551 36.122982 167.679939 17.44441 17.32574-1.257896 31.803414-7.867785 43.433021-19.817799 2.931136-2.931136 4.485705-6.692957 4.2721-10.324242l-4.746778-79.627204 58.74138-21.360502c4.485705-1.613905 7.749115-4.165298 8.66287-6.764159 4.746778-13.884326-32.990108-21.241832-42.127656-23.259213l-127.688333-39.991606a19.544859 19.544859 0 0 0-11.510937 0.237339 5228.042148 5228.042148 0 0 0-156.406341 51.146535c-37.380878 12.816301 46.637096 33.939464 55.774643 39.516928z" fill="#FDE265" /><path d="M534.210163 6.325082c271.87172 28.836677 365.50192 333.461167 178.004182 522.857616-56.249321 56.842669-81.169907 94.579555-91.968827 168.391956h-41.534309l-2.966737-2.966737 2.25472-123.178893a7.713515 7.713515 0 0 1 5.814803-7.476176c35.434699-7.832184 53.353787-25.430864 53.757263-52.807907 161.153119-159.610416 91.850158-408.104254-108.938559-494.139608-13.646987-5.933473-13.409648-11.629607 5.577464-10.680251z" fill="#FCD430" /><path d="M484.250323 534.878832c-10.37171 14.406472-10.525981 26.819297-0.474678 37.262208a374.259725 374.259725 0 0 0-6.170812 104.666459c0.296674 3.975427-0.85442 7.796583-3.204075 10.680251-42.602334 52.333229-29.311355-107.514526-29.548694-118.076107a7.179502 7.179502 0 0 0-5.933473-6.882828c-55.062627-9.647827-67.13131-37.02487-36.194183-82.119263 2.29032-3.299011 5.577464-5.648666 9.256217-6.645489 57.910694-15.18969 53.757263 26.463288 72.269698 61.114769z m-39.279589-19.224452a13.409648 13.409648 0 1 0-26.819297 0 13.409648 13.409648 0 0 0 26.819297 0zM637.571258 511.144941c-0.403476 27.377043-18.322564 44.975723-53.757263 52.807907a7.713515 7.713515 0 0 0-5.814803 7.476176l-2.25472 123.178893a46.684563 46.684563 0 0 1-23.615221-0.830686c-3.144741-0.984956-5.340125-4.177165-5.458795-7.950853l-5.340126-113.329329c8.306862-15.260892 6.408151-25.430864-5.696133-30.49805 4.034761-39.706799 22.737067-62.253996 56.130652-67.641589 26.10728-4.153431 41.178301 13.172309 45.806409 36.787531z m-31.447405 4.034761a13.290979 13.290979 0 1 0-26.581958 0 13.290979 13.290979 0 0 0 26.581958 0z" fill="#FC9743" /><path d="M484.250323 534.878832c12.175486 9.101947 29.311355 11.475336 51.383874 7.120167 12.104284 5.067186 14.002996 15.237158 5.696133 30.49805-20.256876 5.933473-39.445727 5.814803-57.554685-0.356009-10.051303-10.442912-9.897032-22.855737 0.474678-37.262208z" fill="#FB8628" /><path d="M403.673763 697.574654l145.370082 2.966736c51.502543-4.105963 65.185131 15.830505 41.059631 59.809405l-198.296658 6.408151c-43.077012-14.833682-35.956845-69.065622 11.866945-69.184292z" fill="#EAF6FF" /><path d="M578.711209 697.574654h41.534309c32.90704 2.539526 45.521603 18.595504 37.855556 48.179798-0.925622 3.275277-3.382079 6.336949-6.882829 8.544201-17.0172 10.680251-23.579621 26.225949-19.699129 46.637096 0.664549 3.500749 2.931136 6.740425 6.289481 9.018878 30.142041 21.123163 31.483006 43.789029 4.034761 67.997597-2.729397 2.420857-4.319568 5.909739-4.390769 9.612226-0.403476 16.305183-6.135211 30.106441-17.207071 41.41564 5.458795-12.816301 7.072699-25.822473 4.865447-39.042251-0.498412-3.037938-3.322745-5.494396-7.001498-6.052142l-45.331731-7.357506c20.648485-3.797423 30.450582-16.767994 29.430025-38.923581-0.557746-13.765657-14.323403-20.921425-41.296971-21.479171l-136.469872-2.848067 192.956533-2.373389a9.018879 9.018879 0 0 0 8.188192-5.577465c12.970571-31.399938 1.139227-46.399757-35.482167-44.975723 24.1255-43.9789 10.442912-63.915368-41.059631-59.809405l29.667364-2.966736z" fill="#C5E0FF" /><path d="M590.103476 760.350795c36.621394-1.424033 48.452738 13.575786 35.482167 44.975723a9.018879 9.018879 0 0 1-8.188192 5.577465l-192.956533 2.373389-32.6341-2.966737v-43.551689l198.296658-6.408151z" fill="#8DCAFC" /><path d="M391.806818 810.310635l32.6341 2.966737 136.469872 2.848067c26.973567 0.557746 40.739224 7.713515 41.296971 21.479171 1.020557 22.155587-8.78154 35.126158-29.430025 38.923581l-171.358692 3.322745c-3.678753 0.083069-6.586155 2.68193-6.52682 5.814803l0.356008 17.088401-0.949356 8.900209-4.509439-26.819296a14.88115 14.88115 0 0 0-5.814803-9.256218c-29.596162-22.309857-26.985434-44.061968 7.832184-65.2682z" fill="#EAF6FF" /><path d="M572.777736 876.528191l45.331731 7.357506c3.678753 0.557746 6.503086 3.014204 7.001498 6.052142 2.207252 13.219777 0.593347 26.225949-4.865447 39.042251l-15.30836 15.308359-35.126158 6.408151c-25.95301 2.610728-29.275754-5.257057-9.968235-23.615221 8.544201-8.140725 6.918429-12.258555-4.865447-12.341624l-138.843262-0.237339a17.776684 17.776684 0 0 1-10.680251-3.560083l-10.205573-8.188193-0.356008-17.088401c-0.059335-3.132874 2.848067-5.731735 6.52682-5.814803l171.358692-3.322745z" fill="#8DCAFC" /><path d="M395.248232 902.75414l10.205573 8.188193c2.848067 2.242853 6.598022 3.488882 10.680251 3.560083l138.843262 0.237339c11.783877 0.083069 13.409648 4.200899 4.865447 12.341624-19.30752 18.358165-15.984776 26.225949 9.968235 23.615221l-133.503137-2.966736c-19.544859-5.696134-33.547855-17.71735-42.008987-36.075515l0.949356-8.900209z" fill="#B6DBFD" /><path d="M604.937158 944.288449l-11.154929 12.816301c-3.488882 3.96356-5.660533 7.120167-6.52682 9.493557-29.192686 73.575062-152.964927 68.709614-150.947546-18.868443l133.503137 2.966736 35.126158-6.408151z" fill="#EAF6FF" /><path d="M643.979409 213.996627a1035.058715 1035.058715 0 0 1-210.044935 60.521422c-10.37171-6.087743-20.292477-9.291818-29.786033-9.612226-9.137548-5.577464-93.155522-26.700627-55.774643-39.516928a5228.042148 5228.042148 0 0 1 156.406341-51.146535c3.939826-1.234162 7.950853-1.305364 11.510937-0.237339l127.688333 39.991606z" fill="#918191" /><path d="M643.979409 213.996627c9.137548 2.017381 46.874434 9.374887 42.127656 23.259213-0.913755 2.598861-4.177165 5.150254-8.66287 6.764159l-58.74138 21.360502-102.411739 30.972727c-3.714354 1.162961-7.725381 1.162961-11.510937 0l-70.845665-21.835179a1035.058715 1035.058715 0 0 0 210.044935-60.521422z" fill="#7A6D79" /><path d="M404.148441 264.905823c9.493556 0.320408 19.414323 3.524483 29.786033 9.612226l70.845665 21.835179c3.785556 1.162961 7.796583 1.162961 11.510937 0l102.411739-30.972727 4.746778 79.627204c0.213605 3.631285-1.340965 7.393107-4.2721 10.324242-11.629607 11.950014-26.10728 18.559903-43.433021 19.817799-3.488882-11.700808-4.2721-25.466465-2.373389-41.29697a11.748276 11.748276 0 0 0-15.18969-12.578962c-20.529816 6.408151-41.534309 14.833682-63.962836 9.730895a284.688021 284.688021 0 0 1-93.392861-39.398259l3.322745-26.700627z" fill="#554E54" /><path d="M400.825696 291.60645a284.688021 284.688021 0 0 0 93.392861 39.398259c22.428527 5.102787 43.43302-3.322745 63.962836-9.730895a11.748276 11.748276 0 0 1 15.18969 12.578962c-1.898711 15.830505-1.115493 29.596162 2.373389 41.29697-59.097388 18.678572-114.990701 12.863769-167.679939-17.44441-3.53635-2.041115-5.743602-5.458795-5.814803-9.018878l-1.424034-57.080008z" fill="#685E67" /><path d="M431.549218 515.65438m-13.409648 0a13.409648 13.409648 0 1 0 26.819297 0 13.409648 13.409648 0 1 0-26.819297 0Z" fill="#FDE265" /><path d="M592.821007 515.179702m-13.290979 0a13.290979 13.290979 0 1 0 26.581958 0 13.290979 13.290979 0 1 0-26.581958 0Z" fill="#FDE265" /></svg>