<?xml version="1.0" standalone="no"?><!DOCTYPE svg PUBLIC "-//W3C//DTD SVG 1.1//EN" "http://www.w3.org/Graphics/SVG/1.1/DTD/svg11.dtd"><svg class="icon" width="200px" height="200.00px" viewBox="0 0 1024 1024" version="1.1" xmlns="http://www.w3.org/2000/svg"><path d="M559.318533 6.945078c-10.476673 35.741165-25.748757 68.269641-45.828063 97.561805a9.921539 9.921539 0 0 0 6.378132 15.354763c15.661859 2.834726 28.654351 2.433139 38.977477-1.181136l34.252934 0.590568a809.361395 809.361395 0 0 1-107.129004 120.475837l10.630221-39.331817a11.374336 11.374336 0 0 0-1.65359-9.508142 10.063276 10.063276 0 0 0-8.149836-4.311145l-61.891508-0.354341a8.858517 8.858517 0 0 1-7.701005-4.606429 10.228635 10.228635 0 0 1-0.212604-9.449085l47.835994-100.278417 30.945754-53.387332c2.244158-3.756011 5.090695-6.342698 7.795495-7.086814a138.429099 138.429099 0 0 1 55.749603-4.488315z" fill="#FDE265" /><path d="M559.318533 6.945078l42.993338 1.889817a7.760061 7.760061 0 0 1 6.826964 4.771788 11.610563 11.610563 0 0 1-0.212604 9.638067l-22.559691 48.190334-27.520461 47.245426c-10.323126 3.614275-23.315618 4.015861-38.977477 1.181136a9.921539 9.921539 0 0 1-6.378132-15.354763c20.079306-29.292164 35.35139-61.82064 45.828063-97.561805z" fill="#FCD430" /><path d="M464.827681 71.907539l-47.835994 100.278417a10.228635 10.228635 0 0 0 0.212604 9.449085 8.858517 8.858517 0 0 0 7.701005 4.606429l61.891508 0.354341a10.063276 10.063276 0 0 1 8.149836 4.311145c1.925251 2.704801 2.539442 6.212774 1.65359 9.508142l-10.630221 39.331817-2.952839 2.952839c-45.993422-7.559268-90.286009-9.295538-132.877761-5.196997-17.480808 1.724458-26.622798-7.287607-27.402347-27.048006l-3.070953-74.057206v-29.528391c-1.027588-23.386486 9.956974-35.162408 32.953685-35.315956 37.394755-0.318907 74.801321-0.200793 112.207887 0.354341zM586.36654 71.435084l85.15988 0.472455c-1.771703 41.694089 7.677382 114.570158-6.023792 151.06725a10.866448 10.866448 0 0 0 11.338903 14.646082c14.71695-1.736269 25.748757-1.181136 33.071798 1.65359l-165.358992-2.952839 88.939515-96.73501c12.673586-13.783853 9.519953-19.689531-9.449085-17.717035-8.740404 0.862229-19.063529 0-30.945754-2.598499l-34.252934-0.590568 27.520461-47.245426z" fill="#65E0C4" /><path d="M671.52642 71.907539c18.071375-0.118114 57.403193-8.386063 65.434915 14.291741l0.472455 60.119805c2.834726 21.024215 13.937401 92.246695-27.520461 92.955376-7.323041-2.834726-18.354848-3.389859-33.071798-1.65359a10.866448 10.866448 0 0 1-11.338903-14.646082c13.701174-36.497092 4.252088-109.373162 6.023792-151.06725z" fill="#28D1B3" /><path d="M736.961335 86.19928c9.685312 26.693666 134.885692 19.016284 165.122765 20.906101a9.330972 9.330972 0 0 1 8.740404 10.512107 317.016809 317.016809 0 0 0 13.464946 143.507982l-34.252934-6.141905-17.24458-0.472454c11.102675-36.142751 12.874379-72.994183 5.31511-110.554298a7.441155 7.441155 0 0 0-7.204928-6.023791c-44.410701-1.65359-88.904081 1.13389-133.468328 8.386063l-0.472455-60.119805z" fill="#A8D3D8" /><path d="M319.666109 106.869154v29.528391c-40.867294 4.488315-81.852701 4.724543-122.956221 0.708682a5.787565 5.787565 0 0 0-6.378133 5.787564l-0.118114 173.154487c-37.323887 0.590568-12.165697 23.622713-8.740403 39.449931 2.515819 11.256223 4.44107 22.713239 5.787564 34.371047l-12.28381 9.330972c-20.161986 4.169409-38.552268 1.21657-55.159036-8.858517-5.752131-35.43407 6.177339-61.147393 35.788411-77.128158a9.862483 9.862483 0 0 0 5.196997-8.504177l1.889817-189.099818c0-3.318991 2.622121-6.141905 6.141905-6.61436 51.178608-7.015946 101.459553-7.724627 150.831023-2.126044z" fill="#B0D7DE" /><path d="M593.099013 119.271078c11.882225 2.598498 22.20535 3.460727 30.945754 2.598499 18.969039-1.972497 22.122671 3.933182 9.449085 17.717035l-88.939515 96.73501c-5.669451 6.260019-112.916568 140.200802-61.537167 6.378132l2.952839-2.952839a809.361395 809.361395 0 0 0 107.129004-120.475837z" fill="#FCD430" /><path d="M872.791936 254.511111l17.24458 0.472454c-9.921539 8.338818-9.685312 15.827218 0.708681 22.441577 27.000761 17.008353 43.347678 39.87514 49.01713 68.623982l-76.18325-3.189067a12.035772 12.035772 0 0 0-9.803425 4.370202c-34.843502 40.74918 65.316802 28.111029 85.986675 25.394417-5.515904 29.835487-23.079391 53.4582-52.67865 70.868139-14.964989 8.811272-13.984646 15.543745 2.952839 20.19742l-17.717035 0.944908c-105.121073-42.40277-105.121073-168.075603 0.472455-210.124032z" fill="#FC9743" /><path d="M890.036516 254.983565l34.252934 6.141905c111.144865 34.016707 94.372739 175.162417-16.535899 203.509673l-17.717035-0.944908c-16.937485-4.653674-17.917828-11.386148-2.952839-20.19742 29.599259-17.40994 47.162747-41.032653 52.67865-70.868139 7.004134-8.905763 7.004134-17.76428 0-26.575552-5.669451-28.748842-22.016369-51.615628-49.01713-68.623982-10.393994-6.61436-10.630221-14.10276-0.708681-22.441577z" fill="#FA7621" /><path d="M190.213641 316.048278c36.378978 9.130179 50.15102 33.733234 41.339748 73.820978-14.646082 7.476589-29.410278 7.476589-44.292587 0a329.418734 329.418734 0 0 0-5.787564-34.371047c-3.425293-15.827218-28.583483-38.859363 8.740403-39.449931z" fill="#8DCAFC" /><path d="M939.762327 346.049124c7.004134 8.811272 7.004134 17.669789 0 26.575552-20.669874 2.716612-120.830177 15.354763-85.986675-25.394417 2.539442-2.976462 6.165528-4.606429 9.803425-4.370202l76.18325 3.189067z" fill="#FDE265" /><path d="M119.817956 390.341711c16.606767 10.075087 34.997049 13.027926 55.159036 8.858517 28.973258 11.964904 37.00498 33.461573 24.095167 64.490007l-79.254203 3.425293c-14.02008-9.212858-20.953346-21.732896-20.787987-37.560114 0-2.834726 1.346495-6.649794 3.779634-10.748334l17.008353-28.465369z" fill="#EAF6FF" /><path d="M187.260802 389.869256c14.882309 7.476589 29.646505 7.476589 44.292587 0l16.654013 25.748758c2.988273 4.559184 4.559184 7.913609 4.724543 10.039653 1.57091 20.787987-6.661605 33.733234-24.685736 38.859363l-29.17405-0.826795c12.909813-31.028434 4.87809-52.525103-24.095167-64.490007l12.28381-9.330972z" fill="#C5E0FF" /><path d="M199.072159 463.690235l29.17405 0.826795c7.866363 37.241207 16.098879 60.50958 24.685736 69.805117a1135.921781 1135.921781 0 0 1 49.489584 57.285079c1.65359 12.992492 7.393909 23.658147 17.24458 32.008776 30.945754 93.900284-23.032145 191.107749-122.601881 204.336468l-33.426139 1.889817c-1.346495-7.252173 0.980343-12.44917 6.968701-15.59099 74.647773-39.922385 110.199956-133.232102 67.206618-210.124033-15.000423-26.575552-46.300518-52.914877-66.497937-83.033836-6.141905-8.976631-19.571418-10.27588-40.276726-3.897748-12.685397 3.933182-18.709189 0.035434-18.071375-11.693243l6.850586-38.386909 79.254203-3.425293z" fill="#FCD430" /><path d="M872.319481 464.635143l17.717035-0.944908 17.717035 0.944908c6.61436 14.79963 7.594702 30.237073 2.952839 46.300518-10.79558 3.141821-20.63444 1.181136-29.528391-5.905678l-8.858518-40.39484z" fill="#A8D3D8" /><path d="M112.96737 505.502437c-0.637813 11.728677 5.385979 15.626425 18.071375 11.693243 20.705308-6.378133 34.13482-5.078883 40.276726 3.897748 20.19742 30.118959 51.497514 56.458284 66.497937 83.033836 42.993338 76.891931 7.441155 170.201648-67.206618 210.124033-5.988358 3.141821-8.315195 8.338818-6.968701 15.59099h-2.952839c-146.815162-24.685735-184.139048-191.107749-70.868139-283.236329 4.795411-3.862314 12.520038-17.563487 23.150259-41.103521z" fill="#FDE265" /><path d="M881.177999 505.029983c8.893951 7.086814 18.732811 9.047499 29.528391 5.905678l23.268372 0.944908c4.925336 0.224416 8.88214 1.122079 10.866448 2.480385 55.395262 37.442-86.104789 29.292164-89.766309 29.174051-4.110352 0-7.830929-1.181136-10.512108-3.30718-9.685312-7.795495-9.685312-16.11069 0-24.921962 2.409517-2.185101 6.224585-3.30718 10.512108-3.070953a43.028772 43.028772 0 0 0 26.103098-7.204927z" fill="#CBE5E6" /><path d="M302.421529 591.607226c14.71695 4.87809 20.469081 15.543745 17.24458 32.008776-9.850671-8.350629-15.590991-19.016284-17.24458-32.008776z" fill="#FCE783" /><path d="M919.564907 676.294652c-11.894036-4.889902-23.705393-5.551338-35.434069-2.00793l-11.811357-0.944909c7.323041-12.36649 10.27588-25.914116 8.858518-40.631066-0.401586-3.850502-3.212689-6.826964-6.61436-6.968701l-52.796764-1.771703c-4.334768-0.153548-7.937232-1.500042-9.803426-3.661521-34.961615-40.276726 112.089774-27.638574 161.579358-25.276303 4.015861 0.141736 7.4884 2.126044 9.094744 5.196997 17.835148 32.953685-49.607697 23.032145-63.899439 24.803849a8.208893 8.208893 0 0 0-7.086813 6.496246c-3.153632 16.216993-0.5197 31.134736 7.913608 44.765041z" fill="#CBE5E6" /><path d="M919.564907 676.294652c111.262979 34.016707 105.593527 173.981282-2.952839 204.690809l-35.434069-0.944908c-0.590568-18.189489 50.788833-43.820133 56.103943-87.640266 9.921539-10.476673 9.75618-20.480892-0.472454-30.000845-4.653674-33.071798-22.961277-58.903235-54.922808-77.482499-7.086814-4.18122-6.342698-7.724627 2.244158-10.630221 11.728677-3.543407 23.540034-2.881971 35.434069 2.00793z" fill="#30A7FB" /><path d="M872.319481 673.341813l11.811357 0.944909c-8.586856 2.905594-9.330972 6.449001-2.244158 10.630221 31.961531 18.579264 50.269133 44.410701 54.922808 77.482499a42.993338 42.993338 0 0 1-20.669874-1.29925c-3.106387-0.87404-5.13794-4.133975-4.842656-7.795495 1.889817-19.843079-6.189151-27.2488-24.213281-22.20535-2.716612 0.791361-4.783599 3.897748-5.196997 7.795495l-2.126044 18.189489a5.13794 5.13794 0 0 1-2.421328 3.696955 7.323041 7.323041 0 0 1-4.901713 1.027588c-18.354848-2.598498-25.914116 4.996204-22.677805 22.795918 0.5197 3.130009 3.614275 5.303299 7.086814 4.96077 17.953262-1.736269 26.374759 5.504092 25.276303 21.732896-0.295284 4.61824 0.69687 8.598668 2.716612 10.866448 5.114317 5.976546 11.338902 6.803341 18.661944 2.480384 2.775669-1.700835 4.488315-5.256054 4.488315-9.330971 0-18.508396 9.75618-26.150343 29.292164-22.914032-5.31511 43.820133-56.694511 69.450776-56.103943 87.640266l-8.858518 0.944908c-105.947868-39.922385-105.947868-169.020512 0-207.643648z" fill="#63B9FC" /><path d="M936.809488 762.399442c10.228635 9.519953 10.393994 19.524172 0.472454 30.000845-19.535984-3.236312-29.292164 4.405636-29.292164 22.914032 0 4.074918-1.712647 7.630136-4.488315 9.330971-7.323041 4.322956-13.547626 3.496162-18.661944-2.480384-2.019742-2.26778-3.011896-6.248208-2.716612-10.866448 1.098456-16.228804-7.323041-23.469165-25.276303-21.732896-3.472539 0.342529-6.567114-1.83076-7.086814-4.96077-3.236312-17.799714 4.322956-25.394417 22.677805-22.795918a7.323041 7.323041 0 0 0 4.901713-1.027588 5.13794 5.13794 0 0 0 2.421328-3.696955l2.126044-18.189489c0.413397-3.897748 2.480385-7.004134 5.196997-7.795495 18.02413-5.043449 26.103098 2.362271 24.213281 22.20535-0.295284 3.661521 1.736269 6.921455 4.842656 7.795495a42.993338 42.993338 0 0 0 20.669874 1.29925z" fill="#EAF6FF" /><path d="M197.064228 827.95247l-4.96077 137.602304a6.106471 6.106471 0 0 0 1.948874 4.653674 7.323041 7.323041 0 0 0 5.019827 1.960686l188.981704 0.35434c8.976631 8.976631 8.811272 18.815491-0.472454 29.528392l-217.092733 0.472454a8.858517 8.858517 0 0 1-8.976631-8.740404l-0.826795-163.941629h2.952839l33.426139-1.889817zM872.319481 880.985461l8.858518-0.944908 35.434069 0.944908-7.559268 113.152796c-0.295284 3.354425-2.834726 5.952924-5.905678 6.023792l-219.573118 4.724542 3.189066-65.316801 4.015861 22.677804a7.559268 7.559268 0 0 0 6.732474 6.260019c58.737876 4.724543 117.28677 5.504092 175.634871 2.362271a7.382098 7.382098 0 0 0 6.850587-6.260019c4.795411-29.055937 2.244158-56.930738-7.677382-83.624404z" fill="#A8D3D8" /><path d="M682.865322 930.711272c-14.728762-11.421582-30.520545-13.075172-47.363539-4.96077-3.04733 1.429174-5.067072 4.807222-5.196997 8.740404l-2.362271 72.521729c-0.141736 2.752046 2.220535 5.208808 5.433224 5.669452l20.433646 3.189066-101.813893 0.826795c-9.850671-31.418208-11.504261-63.03721-4.96077-94.845193 18.89817-3.189066 144.216663-18.071375 135.8306 8.858517z" fill="#FC9743" /><path d="M488.450394 919.37237l-2.952839 93.545944c-34.335613 8.740404-66.970392 5.114317-97.916146-10.866448 9.283726-10.7129 9.449085-20.55176 0.472454-29.528392l10.275881-39.686158c0.944909-3.779634 3.425293-6.649794 6.496246-7.441154 27.319668-7.559268 55.194469-9.567199 83.624404-6.023792z" fill="#F1EFF2" /><path d="M547.034722 921.852755c-6.543492 31.807983-4.889902 63.426985 4.96077 94.845193l-66.497937-3.779634 2.952839-93.545944c20.150174-5.515904 39.686158-4.689109 58.584328 2.480385z" fill="#CBE5E6" /><path d="M682.865322 930.711272l3.897748 8.858518-3.189066 65.316801c-6.378133 12.437358-16.299672 16.098879-29.764619 10.984562l-20.433646-3.189066c-3.212689-0.460643-5.57496-2.917405-5.433224-5.669452l2.362271-72.521729c0.129925-3.933182 2.149667-7.31123 5.196997-8.740404 16.842994-8.114402 32.634778-6.460812 47.363539 4.96077z" fill="#FA7621" /></svg>