<?xml version="1.0" standalone="no"?><!DOCTYPE svg PUBLIC "-//W3C//DTD SVG 1.1//EN" "http://www.w3.org/Graphics/SVG/1.1/DTD/svg11.dtd"><svg class="icon" width="200px" height="200.00px" viewBox="0 0 1024 1024" version="1.1" xmlns="http://www.w3.org/2000/svg"><path d="M548.846536 825.037148l-77.10295 2.965498c-152.54522-9.798006-272.268308-75.442271-359.181126-196.909072-18.741948-26.215003-11.150273-58.835482 27.519823-46.380389 2.170745 0.735444 5.219277 3.475564 8.303394 7.473055l35.704597 46.02453 44.126611 43.889371c122.024314 95.453452 250.489691 118.264063 385.396129 68.443695 261.675549-96.675237 334.508182-406.866335 162.983773-618.958756-12.016198-18.421674-27.472374-32.573031-46.380389-42.465932l-44.245232-37.246656c-3.890733-3.2146-6.524096-6.346166-7.117195-8.422014-6.405476-20.473799 0.830339-32.893305 21.707446-37.246656 3.582322-0.759168 7.508641 0.05931 10.913033 2.253778 351.114971 227.038532 238.188805 730.580103-162.627914 816.579548z" fill="#FDDD44" /><path d="M631.880482 107.386616l-0.47448 20.284007c-2.763844 29.821049-18.421674 40.496842-46.973489 32.027379a15.764588 15.764588 0 0 0-13.427776 2.135158c-4.033077 2.728258-6.84437 7.129057-7.686571 12.099233l-4.626177 27.638442c-0.53379 3.558598-2.728258 6.915541-6.049616 9.252353-22.134478 15.823898-53.058691 29.500775-92.760779 41.042494-28.148508 8.149189-32.656065 21.826066-13.522671 41.042493 2.6215 2.633362 6.144512 4.448247 10.082693 5.219277l100.352455 19.453667c4.329627 0.830339 7.793329 3.012946 9.370974 5.930996l25.977763 46.61763c2.218193 3.997491 5.266725 6.642716 8.066154 6.998575l58.479622 7.947535c4.294041 0.604962 7.781467 2.431708 9.489594 4.982037 12.2653 17.721816 12.656746 35.941837 1.186199 54.683784-1.743713 2.894326-4.982037 5.195553-9.015114 6.405476-42.228692 13.048191-31.31566 63.698898-10.675793 89.202182 2.846878 3.641632 2.099573 7.674709-2.253778 12.099232-88.727702 91.028929-193.896126 119.450262-315.528995 85.287724l39.500435-39.619054c2.253779-2.241917 6.334304-2.38426 9.964073-0.35586 28.551815 15.978104 58.479622 24.993218 89.795282 27.045342 49.986435-18.896154 59.903061-47.483555 29.7736-85.762204a12.336472 12.336472 0 0 1-2.253778-10.319933l23.842604-104.504152a17.911608 17.911608 0 0 0-1.186199-11.268892c-16.915201-37.875341-40.449394-40.876425-70.578854-9.015114-31.861311 18.908016-70.341614 17.520163-115.417185-4.151698a29.477051 29.477051 0 0 1-16.250929-20.877106c-8.540634-43.177652-9.252354-92.16768-63.817519-102.962093-2.668948-0.521928-6.54782 0.23724-10.794413 2.135159l-68.799555 30.48532c59.072721-200.467669 267.369306-297.973246 456.212223-201.179389zM450.937652 174.964386c-0.545652-9.015114-11.802682-15.681554-25.147424-14.863076-13.344741 0.818477-23.712123 8.789736-23.154609 17.816712 0.545652 9.015114 11.814544 15.681554 25.147424 14.863076 13.344741-0.818477 23.712123-8.789736 23.154609-17.816712z" fill="#63B9FC" /><path d="M730.216398 89.119148c18.908016 9.892902 34.364192 24.044258 46.380389 42.465932l-52.785865 49.938988-41.516973-44.482471 47.922449-47.922449z" fill="#F2671E" /><path d="M631.880482 107.386616l50.413467 29.654981 41.516973 44.482471c86.355304 118.311511 94.777318 241.593196 25.266043 369.856918l-88.015982-11.506132c92.606574-142.735353 83.674493-276.977519-26.808103-402.714637a12.44323 12.44323 0 0 1-2.846878-9.489594l0.47448-20.284007z" fill="#22B69F" /><path d="M631.406002 127.670623c-0.308412 3.724666 0.640548 6.879956 2.846878 9.489594 110.482596 125.737118 119.414676 259.979284 26.808103 402.714637l-11.387513 0.47448c-20.639867-25.503283-31.552899-76.15399 10.675793-89.202182 4.033077-1.209923 7.271401-3.51115 9.015114-6.405476 11.470547-18.741948 11.079101-36.961968-1.186199-54.683784-1.708127-2.550328-5.195553-4.377075-9.489594-4.982037l-58.479622-7.947535c-2.79943-0.35586-5.847962-3.001084-8.066154-6.998575l-25.977763-46.61763c-1.577645-2.91805-5.041347-5.100657-9.370974-5.930996l-100.352455-19.453667a19.489253 19.489253 0 0 1-10.082693-5.219277c-19.133394-19.216427-14.625836-32.893305 13.522671-41.042493 39.702088-11.541718 70.626302-25.218596 92.760779-41.042494 3.321358-2.336812 5.515826-5.693756 6.049616-9.252353l4.626177-27.638442c0.842201-4.970175 3.641632-9.370974 7.686571-12.099233 4.033077-2.728258 8.93208-3.499288 13.427776-2.135158 28.551815 8.469462 44.209645-2.206331 46.973489-32.027379z m15.77645 138.109176c-0.094896-4.151697-2.787568-8.066155-7.473055-10.913033-4.697349-2.823154-11.007929-4.329627-17.555749-4.175422-6.535958 0.142344-12.775366 1.933505-17.330371 4.982037-4.566867 3.03667-7.069747 7.081609-6.974851 11.233307 0.094896 4.151697 2.775706 8.066155 7.473055 10.901171 4.685487 2.835016 11.007929 4.341489 17.555749 4.187283 6.524096-0.142344 12.763504-1.933505 17.318508-4.982037 4.566867-3.03667 7.081609-7.081609 6.986714-11.233306z m53.378965 48.634168c-0.023724-8.706702-11.150273-15.740864-24.839012-15.693416-6.583406 0.023724-12.882124 1.708127-17.520162 4.685487-4.638039 2.965498-7.235815 6.998575-7.223954 11.185859 0.035586 8.706702 11.150273 15.729002 24.850874 15.681554 6.571544-0.023724 12.870262-1.708127 17.508301-4.673625 4.638039-2.97736 7.235815-6.998575 7.235815-11.185859z" fill="#28D1B3" /><path d="M776.596787 131.58508c171.524408 212.092422 98.691776 522.283519-162.983773 618.958756-134.906438 49.820368-263.371814 27.009756-385.396129-68.443695l48.278309-50.294847 38.076995 21.232966c156.815538 91.100101 334.033702 45.075571 434.504776-101.657274 69.511275-128.263722 61.08926-251.545408-25.266043-369.856918l52.785865-49.938988z" fill="#FFFFFF" /><path d="M450.74786 403.936423c20.331455 30.212494 24.993218 62.03822 13.997151 95.489037-16.488169 50.532087-13.878531 78.763629 6.405476 125.381258-31.31566-2.052125-61.243466-11.067239-89.795282-27.045342-3.62977-2.028401-7.710295-1.886057-9.964073 0.35586l-39.500435 39.619054c-2.135159 9.655662-7.900087 14.756318-17.318508 15.30197l-38.076995-21.232966-41.991453-44.956951c-61.20788-83.508426-80.815753-176.269205-58.835482-278.282338l68.799555-30.48532c4.246593-1.897919 8.125465-2.657086 10.794413-2.135159 54.565164 10.794413 55.276884 59.784441 63.817519 102.962093 1.779299 9.098148 7.805191 16.844029 16.250929 20.877106 45.075571 21.67186 83.555873 23.059713 115.417185 4.151698z m-183.62364 5.243c-0.23724-8.445738-11.482409-14.981696-25.099976-14.602112-6.535958 0.17793-12.763504 1.969091-17.318509 4.970174-4.543143 2.989222-7.034161 6.951127-6.915541 11.007929 0.23724 8.4576 11.470547 14.993558 25.088113 14.613975 6.54782-0.189792 12.775366-1.969091 17.318509-4.970175s7.034161-6.962989 6.915542-11.019791z m-12.692332 57.151079c23.652813 15.266384 39.073403 11.90944 46.26177-10.082694a7.117195 7.117195 0 0 0-3.795838-8.422014c-16.203481-7.591675-30.48532-7.069747-42.821792 1.542059a10.201313 10.201313 0 0 0 0.35586 16.962649z m175.201626 70.389062a14.234391 14.234391 0 0 0-14.210667-14.258115l-20.639867-0.035586a14.234391 14.234391 0 0 0-14.258114 14.210667v2.372398a14.234391 14.234391 0 0 0 14.210666 14.258115l20.639867 0.035586a14.234391 14.234391 0 0 0 14.258115-14.210667v-2.372398z" fill="#28D1B3" /><path d="M471.150487 624.806718c-20.284007-46.61763-22.893645-74.849171-6.405476-125.381258 10.996067-33.450818 6.334304-65.276543-13.997151-95.489037 30.12946-31.861311 53.663653-28.860227 70.578854 9.015114 1.613231 3.617908 2.028401 7.579813 1.186199 11.268892l-23.842604 104.504152c-0.830339 3.606046 0 7.401883 2.253778 10.319933 30.12946 38.278649 20.212835 66.86605-29.7736 85.762204z" fill="#22B69F" /><path d="M649.67347 540.349334l11.387513-0.47448 88.015982 11.506132c-100.471074 146.732844-277.689239 192.757374-434.504776 101.657274 9.418422-0.545652 15.18335-5.646308 17.318508-15.30197 121.632869 34.162538 226.801292 5.741204 315.528995-85.287724 4.353351-4.424523 5.100657-8.4576 2.253778-12.099232z" fill="#30A7FB" /><path d="M234.503741 586.848343l41.991453 44.956951-48.278309 50.294847-44.126611-43.889371zM548.846536 825.037148l-1.067579 63.698898c-20.877106 9.335388-44.992537 10.248761-72.358153 2.728259l-3.677218-63.461659 77.10295-2.965498z" fill="#F2671E" /><path d="M547.778957 888.736046c37.887203 7.994983 76.794538 10.486001 116.722003 7.473055l2.965499 58.361002h-361.790765c-9.370974-37.602515 4.626177-59.072721 44.838331-58.123762 41.754213 0.948959 83.389806-0.71172 124.906779-4.982036 27.365616 7.520503 51.481046 6.60713 72.358153-2.728259z" fill="#FDDD44" /><path d="M664.50096 896.209101c41.042493-5.930996 58.681276 11.707786 52.904486 52.904486l-8.422015 6.405476-41.516972-0.94896-2.965499-58.361002z" fill="#F8C52D" /><path d="M717.405446 949.113587l37.246656 11.980612a11.185859 11.185859 0 0 1 7.235815 7.828915c10.367381 38.041409-4.305903 54.019513-44.007991 47.922449l-8.896495-61.3265 8.422015-6.405476z" fill="#918191" /><path d="M305.675694 954.570103h361.790765l41.516972 0.94896 8.896495 61.3265-439.130954 0.355859a18.979188 18.979188 0 0 1-17.911608-12.810951c-12.644884-37.317828 2.301226-53.924617 44.83833-49.820368z" fill="#A69CA7" /><path d="M402.633306 177.900692a16.369549 24.198464 86.5 1 0 48.306659-2.954562 16.369549 24.198464 86.5 1 0-48.306659 2.954562Z" fill="#8DCAFC" /><path d="M597.842915 266.897076a15.65783 24.672944 88.7 1 0 49.333186-1.119527 15.65783 24.672944 88.7 1 0-49.333186 1.119527Z" fill="#A9ECDB" /><path d="M650.97844 314.58354a15.77645 24.791564 89.8 1 0 49.582826-0.173078 15.77645 24.791564 89.8 1 0-49.582826 0.173078Z" fill="#A9ECDB" /><path d="M217.787951 410.556328a15.30197 24.672944 88.4 1 0 49.326649-1.377818 15.30197 24.672944 88.4 1 0-49.326649 1.377818Z" fill="#22B69F" /><path d="M254.431888 466.330502a10.201313 10.201313 0 0 1-0.35586-16.962649c12.336472-8.611806 26.618311-9.133734 42.821792-1.542059a7.117195 7.117195 0 0 1 3.795838 8.422014c-7.188367 21.992134-22.608957 25.349077-46.26177 10.082694z" fill="#22B69F" /><path d="M380.551817 522.394893m14.234369 0.024844l20.639835 0.036023q14.234369 0.024844 14.209526 14.259213l-0.004141 2.372395q-0.024844 14.234369-14.259213 14.209525l-20.639835-0.036023q-14.234369-0.024844-14.209525-14.259213l0.00414-2.372395q0.024844-14.234369 14.259213-14.209525Z" fill="#A9ECDB" /></svg>