<?xml version="1.0" standalone="no"?><!DOCTYPE svg PUBLIC "-//W3C//DTD SVG 1.1//EN" "http://www.w3.org/Graphics/SVG/1.1/DTD/svg11.dtd"><svg class="icon" width="200px" height="147.13px" viewBox="0 0 1392 1024" version="1.1" xmlns="http://www.w3.org/2000/svg"><path d="M690.722704 8.062974c27.414111 25.688634 49.555036 53.489767 66.438903 83.371148-30.107144-11.723564-57.843773-8.062974-83.209888 10.965644-16.996749 12.691121-17.690164 26.172413-2.096373 40.476128 35.477084 32.364776 71.760466 31.558479 108.850144-2.418892 13.545796 78.581742-14.303715 135.135439-83.532407 169.644966-8.708012 4.354006-11.449423 10.159347-12.578239 19.189877l-20.157434 1.290076-52.409329-25.478997c-37.734717-29.671743-61.2786-70.905791-70.63165-123.686016 5.902097-95.788127 55.682896-153.567397 149.326273-173.353934z m-24.205047 206.718519c-0.387023-11.046274-11.304289-19.625278-24.398558-19.157625-13.078143 0.451527-23.382624 9.772324-22.995601 20.802472 0.387023 11.046274 11.320415 19.625278 24.398558 19.157625 13.078143-0.451527 23.382624-9.772324 22.995601-20.802472z m60.472303 37.267065a19.383389 19.383389 0 0 0-7.047039-14.335968 24.608196 24.608196 0 0 0-16.432341-5.644081c-12.739498 0.258015-22.866593 9.643317-22.624704 20.947605 0.112882 5.434444 2.644655 10.578621 7.047039 14.335968 4.41851 3.74122 10.320606 5.789215 16.448466 5.644081 12.723372-0.258015 22.850467-9.643317 22.608579-20.947605z" fill="#FC9743" /><path d="M690.722704 8.062974c113.945944 5.482822 172.596015 64.390908 175.934086 176.740383-11.401045 75.259796-53.28013 123.847276-125.62113 145.778564a134.73229 134.73229 0 0 1-56.440816-1.290076c1.128816-9.030531 3.870227-14.835872 12.578239-19.189877 69.228692-34.509527 97.078203-91.063225 83.532407-169.644966 5.902097-23.979284-1.935114-40.314868-23.543883-49.02288-16.883867-29.88138-39.024793-57.682514-66.438903-83.371148z" fill="#FA7621" /><path d="M757.161607 91.434122c21.608769 8.708012 29.44598 25.043596 23.543883 49.02288-37.089679 33.977371-73.373061 34.783668-108.850144 2.418892-15.593791-14.303715-14.900375-27.785007 2.096373-40.476128 25.366115-19.028618 53.102745-22.689208 83.209888-10.965644z" fill="#7A6D79" /><path d="M1297.380844 141.10204c2.676907 21.721651 3.386449 43.49168 2.096374 65.310086-3.386449 58.21467-81.113515 156.905468-112.559113 186.577212-225.763263 213.072143-481.79493 377.669688-768.078874 493.776508-124.331054 50.474215-229.79475 90.305305-347.836685 95.465609-9.143412 0.435401-14.513353 7.143795-16.125947 20.157434-138.360629-78.210845 68.212757-271.722213 145.939824-345.256533l64.503789-49.667918c11.933201 23.334246 14.835872 47.732804 8.708012 73.211801-33.219452 29.349224-109.817702 93.853014-116.5906 138.199369-3.225189 20.963732 5.740837 31.39722 26.930332 31.284338a376.895642 376.895642 0 0 0 161.581993-37.089679 2779.694053 2779.694053 0 0 0 653.100869-357.512254l77.243288-65.148827a380.846499 380.846499 0 0 0 107.882588-113.042891c20.415449-32.784051 11.288163-49.071258-27.414111-48.861621-56.553697 0.209637-110.688503 13.868315-162.38829 40.959907-25.26936-10.852763-44.08834-28.33329-56.440816-52.409329 114.703864-49.990437 234.519653-75.308174 359.447367-75.953212z" fill="#FC9743" /><path d="M1297.380844 141.10204c225.924523 13.384536-51.603032 297.684989-104.818658 341.386306a61.43986 61.43986 0 0 0-32.251894 32.251894l-44.830134 34.509528c-204.477013 158.034284-426.04753 284.94549-664.711551 380.733617-126.104908 56.118297-258.079662 80.25884-395.892008 72.405504 1.612595-13.01364 6.982535-19.722034 16.125947-20.157434 118.041935-5.160303 223.505631-44.991393 347.836685-95.465609 286.283944-116.106821 542.31561-280.704366 768.078874-493.776508 31.445597-29.671743 109.172664-128.362541 112.559113-186.577212 1.290076-21.818407 0.580534-43.588436-2.096374-65.310086z" fill="#FA7621" /><path d="M541.396431 181.416908c9.353049 52.780226 32.896933 94.014273 70.63165 123.686016-41.282425 5.966601 73.050542 83.532407-50.474215 106.915032-104.496139 19.673656-182.384465 56.602075-205.60583 167.871112-4.031487 19.351137 5.805341 40.637387 28.865446 29.671743 4.25725-2.031869 7.417936-6.531009 8.546752-12.094461 37.895976-186.254692 226.73082-91.434122 271.077176-211.733689 24.188921-3.66059 45.894446 0.59666 65.148827 12.739499 2.418892 152.551462-182.061946 62.084897-245.275659 184.803357-48.861621 94.659311-59.666005 146.101083-179.320535 157.873024-3.338071-24.833959-13.658677-44.991393-30.961819-60.472302 6.12786-25.478997 3.225189-49.877555-8.708012-73.211801l12.094461-113.849189c33.316207-151.583905 121.315502-255.644644 263.981758-312.198341z" fill="#A3B0E4" /><path d="M866.65679 184.803357l55.795778 28.865446c3.225189 25.914397-2.160877 50.103319-16.125948 72.566763l-27.41411-9.35305a8.546752 8.546752 0 0 0-10.643125 5.160304c-22.366689 57.730892-64.568293 92.51456-126.588687 104.334879-6.031104-18.270698-6.240742-36.880042-0.645038-55.795778 72.341-21.931288 114.220085-70.518768 125.62113-145.778564z" fill="#5169CC" /><path d="M922.452568 213.668803l15.480909 3.386449c12.352476 24.076039 31.171456 41.556566 56.440816 52.409329l65.148828 88.047672c-33.332333-5.047422-63.116958 1.886736-89.337749 20.802472l-18.867358 8.062974c-1.515839-36.00924-17.851424-63.100832-49.02288-81.274775l4.031486-18.867358c13.96507-22.463445 19.351137-46.652366 16.125948-72.566763z" fill="#8897DC" /><path d="M1076.294106 390.409186l-16.770985-32.896933-65.148828-88.047672c51.699787-27.091592 105.834593-40.750269 162.38829-40.959907 38.702274-0.209637 47.82956 16.07757 27.414111 48.861621a380.846499 380.846499 0 0 1-107.882588 113.042891z" fill="#FFFFFF" /><path d="M906.32662 286.235566l-4.031486 18.867358a411.308414 411.308414 0 0 1-71.276688 91.434122 18.30295 18.30295 0 0 0-5.805341 13.707055c3.547708 105.463696 105.624955-4.999044 126.104909-23.866402l18.867358-8.062974c4.289502 27.736629 13.916693 53.489767 28.865446 77.243288a2779.694053 2779.694053 0 0 1-653.100869 357.512254l-40.959906-71.921726c119.65453-11.771942 130.458914-63.213714 179.320535-157.873024 63.213714-122.71846 247.694552-32.251895 245.275659-184.803357l12.094461-12.094461c62.020394-11.820319 104.221998-46.603988 126.588687-104.334879a8.546752 8.546752 0 0 1 10.643125-5.160304l27.41411 9.35305z" fill="#6E80D5" /><path d="M612.028081 305.102924l52.409329 25.478997v55.15074c-44.346355 120.299567-233.181199 25.478997-271.077176 211.733689-1.128816 5.563452-4.289502 10.062591-8.546752 12.094461-23.060105 10.965644-32.896933-10.320606-28.865446-29.671743 23.221364-111.269037 101.10969-148.197456 205.60583-167.871112 123.524757-23.382624 9.19179-100.948431 50.474215-106.915032z" fill="#5169CC" /><path d="M902.295134 305.102924c31.171456 18.173943 47.507041 45.265534 49.02288 81.274775-20.479953 18.867358-122.5572 129.330098-126.104909 23.866402a18.30295 18.30295 0 0 1 5.805341-13.707055 411.308414 411.308414 0 0 0 71.276688-91.434122z" fill="#A3B0E4" /><path d="M664.43741 330.581921l20.157434-1.290076c18.38358 4.402384 37.186435 4.837784 56.440816 1.290076-5.595704 18.915736-5.386066 37.52508 0.645038 55.795778l-12.094461 12.094461c-19.254381-12.142838-40.959906-16.400088-65.148827-12.739499V330.581921z" fill="#8897DC" /><path d="M1059.523121 357.512253l16.770985 32.896933-77.243288 65.148827a201.62272 201.62272 0 0 1-28.865446-77.243288c26.22079-18.915736 56.005415-25.849894 89.337749-20.802472z" fill="#5169CC" /><path d="M277.414673 493.615249l-12.094461 113.849189-64.503789 49.667918-40.959907-26.607814c63.536233-34.187008 82.564851-83.097007 57.085854-146.746121 17.303142-5.595704 37.460576-2.30601 60.472303 9.836828z" fill="#3351C5" /><path d="M216.94237 483.778421c25.478997 63.649114 6.450379 112.559113-57.085854 146.746121-42.040345-72.679645-23.011727-121.589643 57.085854-146.746121z" fill="#5169CC" /><path d="M1192.562186 482.488346c106.108734 125.78239 76.75951 192.172915-88.047672 199.15545l4.031487-25.156478c72.082985-5.805341 109.656442-91.272862 51.764291-141.747078a61.43986 61.43986 0 0 1 32.251894-32.251894z" fill="#FCD430" /><path d="M1160.310292 514.74024c57.892151 50.474215 20.318694 135.941736-51.764291 141.747078 12.25572-33.977371 14.56173-69.712471 6.934157-107.23755l44.830134-34.509528z" fill="#FDE265" /><path d="M1115.480158 549.249768c7.627573 37.52508 5.321563 73.260179-6.934157 107.23755l-4.031487 25.156478c-60.956081 194.156406-196.68818 298.652545-407.180172 313.488417-4.095991-44.507615 14.400471-69.825352 55.473259-75.953212 115.671421-17.303142 196.946195-76.920769 243.824325-178.836757 2.354388-5.160303 2.709159-10.578621 0.967557-14.997131-5.595704-13.868315-15.480909-17.141882-29.671744-9.836828-4.047613 2.064121-7.563069 6.20849-9.836827 11.610682-34.670787 79.984699-82.242332 112.720372-168.032372 136.102996-49.667918 13.545796-93.159598 37.621835-130.458914 72.244244 10.643125-42.088723-105.141177 26.769073-116.106822 32.090636l-92.724197-37.573458c238.664021-95.788127 460.234538-222.699333 664.711551-380.733617z" fill="#8897DC" /><path d="M274.028224 680.676239c17.303142 15.480909 27.623748 35.638344 30.961819 60.472302l40.959906 71.921726a376.911768 376.911768 0 0 1-161.581993 37.089679c-21.189495 0.112882-30.155522-10.320606-26.930332-31.284338 6.772898-44.346355 83.371148-108.850145 116.5906-138.199369z" fill="#FFFFFF" /><path d="M697.334342 995.132213c-13.223277 26.333672-28.446171 27.688252-45.636431 4.031487l7.901715-63.697493c37.299316-34.622409 80.790996-58.698448 130.458914-72.244244 85.79004-23.382624 133.361585-56.118297 168.032372-136.102996 2.273759-5.402192 5.789215-9.546561 9.836827-11.610682 14.190834-7.305054 24.076039-4.031487 29.671744 9.836828 1.741602 4.41851 1.386831 9.836828-0.967557 14.997131-46.878129 101.915987-128.152904 161.533615-243.824325 178.836757-41.072788 6.12786-59.56925 31.445597-55.473259 75.953212z" fill="#5169CC" /><path d="M659.599626 935.466207l-7.901715 63.697493a321.164368 321.164368 0 0 1-108.205107-31.606857c10.965644-5.321563 126.749946-74.179358 116.106822-32.090636z" fill="#A3B0E4" /><path d="M619.137938 216.431214a19.996175 23.705143 88 1 0 47.381404-1.654595 19.996175 23.705143 88 1 0-47.381404 1.654595Z" fill="#7A6D79" /><path d="M680.890934 253.01527a20.479953 23.060105 88.8 1 0 46.110094-0.965868 20.479953 23.060105 88.8 1 0-46.110094 0.965868Z" fill="#7A6D79" /></svg>