<?xml version="1.0" standalone="no"?><!DOCTYPE svg PUBLIC "-//W3C//DTD SVG 1.1//EN" "http://www.w3.org/Graphics/SVG/1.1/DTD/svg11.dtd"><svg class="icon" width="200px" height="200.00px" viewBox="0 0 1024 1024" version="1.1" xmlns="http://www.w3.org/2000/svg"><path d="M891.3 307.5c-19.6 87.9-106.7 181.7-117.7 193.3-7.3 7.7-17.6 12.1-28.1 12.1s-20.8-4.4-28.1-12c-11.1-11.6-98.1-105.4-117.7-193.3H240.4v471.7c0-42.9-34.8-77.7-77.7-77.7-14.2 0-27.4 3.9-38.8 10.5v67.2c0 21.4 17.4 38.8 38.8 38.8h738.1V307.5h-9.5z" fill="#E6EBEF" /><path d="M162.7 179.8v521.7c42.9 0 77.7 34.8 77.7 77.7V257.5c0-42.9-34.7-77.7-77.7-77.7z" fill="#E6EBEF" /><path d="M773.6 447.2z m-28.2-32.5c-34.8-43.4-72.1-102.3-72.1-140.6 0-39.8 32.4-72.1 72.1-72.1s72.1 32.4 72.1 72.1c0.1 38.3-37.2 97.2-72.1 140.6z" fill="#FF7A51" /><path d="M745.6 235.3c-9.2 0-16.6 7.5-16.6 16.6v33.3c0 9.2 7.5 16.6 16.6 16.6s16.6-7.5 16.6-16.6V252c0.1-9.2-7.4-16.7-16.6-16.7z" fill="#4F3D3B" /><path d="M906.4 252h-35.3c-10.5-59.8-62.9-105.4-125.7-105.4-70.4 0-127.6 57.3-127.6 127.6 0 88.9 110.9 206.3 115.6 211.3 3.1 3.3 7.5 5.2 12.1 5.2s8.9-1.9 12.1-5.2c4.5-4.8 106.6-112.9 115-200.2h33.9c9.2 0 16.6 7.5 16.6 16.6v521.7c0 9.2-7.5 16.6-16.6 16.6H164.9c-33.3 0-61.7-26.1-63.2-58.1-0.1-1.5 0-3.1 0-4.6 0-1.1 0.1-2.2 0.2-3.2 0.1-0.9 0.2-1.9 0.3-2.8 0.1-1.2 0.3-2.3 0.5-3.5 0.1-0.8 0.3-1.6 0.5-2.3 0.3-1.3 0.6-2.6 1-3.8l0.6-1.8c0.5-1.4 0.9-2.7 1.5-4.1 0.2-0.5 0.4-0.9 0.6-1.4 0.6-1.4 1.3-2.7 2-4.1 0.2-0.4 0.5-0.8 0.7-1.2 0.7-1.3 1.5-2.6 2.3-3.8 0.3-0.4 0.6-0.9 0.9-1.3 0.8-1.2 1.7-2.3 2.6-3.4 0.4-0.5 0.8-0.9 1.2-1.4 0.9-1 1.8-2.1 2.8-3.1 0.4-0.4 0.8-0.8 1.2-1.1 1.1-1 2.2-2.1 3.3-3 0.1-0.1 0.3-0.2 0.4-0.3 10.5-8.6 23.9-13.7 38.5-13.7 33.7 0 61 27.4 61 61 0 9.2 7.5 16.6 16.6 16.6s16.6-7.5 16.6-16.6V436.1c0-9.2-7.5-16.6-16.6-16.6s-16.6 7.5-16.6 16.6v271.2c-16.5-14-37.8-22.5-61-22.5-3.1 0-6.1 0.2-9.1 0.5-1.4 0.1-2.7 0.4-4 0.5-1.6 0.2-3.1 0.4-4.7 0.7-1.7 0.3-3.4 0.8-5.1 1.2-1.1 0.3-2.2 0.5-3.2 0.8-1.9 0.5-3.8 1.2-5.6 1.8-0.8 0.3-1.5 0.6-2.3 0.9-2 0.8-3.9 1.6-5.9 2.5-0.6 0.3-1.1 0.6-1.7 0.8-2 1-4 2-6 3.2-0.4 0.2-0.7 0.4-1 0.7-4.3 2.6-8.5 5.5-12.4 8.8V257.5c0-33.7 27.4-61 61-61s61 27.4 61 61V359c0 9.2 7.5 16.6 16.6 16.6S257 368.1 257 359v-73.7h311.3c9.2 0 16.6-7.5 16.6-16.6 0-9.2-7.5-16.6-16.6-16.6H256.8c-2.9-49.4-43.9-88.8-94.1-88.8-52 0-94.3 42.3-94.3 94.3v521.7c0 0.4 0.1 0.7 0.1 1.1 0 1.1-0.1 2.3 0 3.4 2.4 50.4 44.7 89.8 96.4 89.8h741.5c27.5 0 49.9-22.4 49.9-49.9V301.9c0-27.5-22.4-49.9-49.9-49.9z m-161 197c-27.9-32.1-94.3-114.8-94.3-174.9 0-52 42.3-94.3 94.3-94.3s94.3 42.3 94.3 94.3c0.1 60.1-66.4 142.9-94.3 174.9z" fill="#4F3D3B" /><path d="M612.3 412.9h-55.5c-9.2 0-16.6 7.5-16.6 16.6s7.5 16.6 16.6 16.6h55.5c9.2 0 16.6-7.5 16.6-16.6s-7.4-16.6-16.6-16.6zM610.5 562.7c0-9.2-7.5-16.6-16.6-16.6h-137c-27.5 0-49.9-22.4-49.9-49.9s22.4-49.9 49.9-49.9h27.7c9.2 0 16.6-7.5 16.6-16.6s-7.5-16.6-16.6-16.6h-27.7c-45.9 0-83.2 37.3-83.2 83.2 0 45.9 37.3 83.2 83.2 83.2h137c9.2-0.1 16.6-7.6 16.6-16.8zM712.2 679.3h-83.6c-9.2 0-16.6 7.5-16.6 16.6 0 9.2 7.5 16.6 16.6 16.6h83.6c45.9 0 83.2-37.3 83.2-83.2s-37.3-83.2-83.2-83.2h-51c-9.2 0-16.6 7.5-16.6 16.6s7.5 16.6 16.6 16.6h51c27.5 0 49.9 22.4 49.9 49.9s-22.4 50.1-49.9 50.1zM503.5 679.3c-9.2 0-16.6 7.5-16.6 16.6 0 9.2 7.5 16.6 16.6 16.6H559c9.2 0 16.6-7.5 16.6-16.6 0-9.2-7.5-16.6-16.6-16.6h-55.5zM429.5 656.7c-6.5-6.5-17-6.5-23.5 0l-15.7 15.7-15.7-15.7c-6.5-6.5-17-6.5-23.5 0s-6.5 17 0 23.5l15.7 15.7-15.8 15.7c-6.5 6.5-6.5 17 0 23.5 3.3 3.3 7.5 4.9 11.8 4.9 4.3 0 8.5-1.6 11.8-4.9l15.7-15.7 15.7 15.7c3.3 3.3 7.5 4.9 11.8 4.9s8.5-1.6 11.8-4.9c6.5-6.5 6.5-17 0-23.5l-15.7-15.7 15.7-15.7c6.4-6.5 6.4-17-0.1-23.5z" fill="#4F3D3B" /></svg>