<?xml version="1.0" standalone="no"?><!DOCTYPE svg PUBLIC "-//W3C//DTD SVG 1.1//EN" "http://www.w3.org/Graphics/SVG/1.1/DTD/svg11.dtd"><svg class="icon" width="200px" height="200.00px" viewBox="0 0 1024 1024" version="1.1" xmlns="http://www.w3.org/2000/svg"><path d="M110.548985 45.179718a123.416323 123.416323 0 0 0 23.181217 56.652054c24.990771 40.448857 60.472224 67.059948 106.444361 79.833271 21.052329 13.246409 44.470089 10.053079 62.802173 16.084926 23.488722 7.652167 43.831423 16.877345 61.028101 27.675534l24.009117 17.385912-35.95454 62.56563c-31.779555-27.592744-67.615824-42.88525-107.508805-45.889346a366.440627 366.440627 0 0 1-90.122892-37.373798C80.543503 173.717198 40.059164 105.143375 32.962873 16.43974a6.68234 6.68234 0 0 1 5.322218-7.096291C58.864334 5.026539 78.651158 4.789996 97.657391 8.63382c2.743899 0.603185 5.109329 3.429874 6.031847 7.214563l6.859747 29.331335z" fill="#FC9743" /><path d="M364.004837 225.425503c-17.196678-10.798189-37.539378-20.023367-61.028101-27.675534-18.332084-6.031847-41.749844-2.838516-62.802173-16.084926 62.683902-0.473086 109.826927-27.237929 141.452729-80.306357a113.895467 113.895467 0 0 0 20.697515-56.178968l9.816535-32.761209a7.80592 7.80592 0 0 1 7.451106-5.677033h45.534532c4.447009 0 8.692956 1.927826 11.614263 5.310391 2.933134 3.382565 4.257774 7.876883 3.642762 12.323892-12.146484 83.416898-50.93954 150.441364-116.379168 201.061571z" fill="#FDE265" /><path d="M373.230015 44.706632l-38.438242 53.22218-201.061571 3.90296a123.416323 123.416323 0 0 1-23.181217-56.652054l262.68103-0.473086z" fill="#63B9FC" /><path d="M373.230015 44.706632l29.094792 0.473086a113.895467 113.895467 0 0 1-20.697515 56.178968l-46.835519-3.429874 38.438242-53.22218z" fill="#1A96F9" /><path d="M334.791773 97.928812l46.835519 3.429874c-31.625802 53.068428-78.768827 79.833271-141.452729 80.306357-45.972137-12.773323-81.453591-39.384414-106.444361-79.833271l201.061571-3.90296z" fill="#FFFFFF" /><path d="M674.822372 131.39965c-3.548145 6.942538-2.128887 11.235794 4.257774 12.891595 97.609479 25.86598 163.013626 84.729712 196.21244 176.579369-36.664169-55.658574-86.740327-90.241164-150.204821-103.724117l-14.783939-3.90296c-43.050831-9.225178-83.617959-3.146022-121.701387 18.213813-28.858249 8.834882-53.506032 24.600475-73.919695 47.308605-32.335432 28.385163-51.73196 63.866617-58.189584 106.444361a178.436231 178.436231 0 0 0-2.956788 79.833271c1.963307 48.101024 19.278257 87.840252 51.921194 119.217685 23.571512 26.575609 50.454627 45.818384 80.661171 57.716498 23.488722 13.565742 47.545148 20.153466 72.145623 19.751343l57.953041-2.010616c67.095429-13.400162 119.998277-49.271912 158.72037-107.627076-37.846884 88.549881-101.595229 150.559636-191.245036 186.041089-109.448458 2.53101-197.986512-42.175621-265.637817-134.119895l-36.664169-71.90908-17.031098 0.473086c3.701898-2.046097 7.80592-3.075059 12.300238-3.075059a6.540415 6.540415 0 0 0 4.257774-1.53753 4.577108 4.577108 0 0 0 1.655801-3.666417c-0.638666-19.550281-6.978019-36.61686-19.041713-51.211565 2.436393 1.419258 4.64807 1.182715 6.623204-0.709629 1.53753-1.419258 2.353603-5.180292 2.128888-9.816535l-1.892344-48.373049c-0.236543-4.305083-1.892344-7.853228-4.376046-9.343449-5.677033-3.228812-12.146484-3.701898-19.396529-1.419259-9.781054 1.738591-13.565742-1.37195-11.354065-9.343449 9.225178 7.096291 19.041714 8.870363 29.449607 5.322218 3.524491-1.182715 6.386662-4.009404 7.80592-7.687648a74.830386 74.830386 0 0 0 3.666417-44.470089l5.913575-3.90296 35.95454-73.446609c62.447359-87.828425 148.028625-134.001624 256.767454-138.495942z" fill="#30A7FB" /><path d="M674.822372 131.39965c315.784939 15.966654 420.218684 393.016236 159.193456 567.230175l-82.316973 35.008367-68.00612 4.494318c89.649807-35.481454 153.398152-97.491208 191.245036-186.041089 38.473723-77.183989 38.591995-154.261534 0.354815-231.220807-33.198814-91.849657-98.60296-150.713388-196.21244-176.579369-6.386662-1.655801-7.80592-5.949057-4.257774-12.891595z" fill="#1A96F9" /><path d="M710.303826 213.243537c-18.533146-5.274909-31.578494-2.010616-39.147871 9.816536-1.821381 2.850343-1.774073 6.800612 0.118271 10.289621 76.47436 145.320207 72.145623 288.109405-13.009866 428.379419-24.600475 0.402123-48.6569-6.1856-72.145623-19.751343l53.222181-64.10316a242.894205 242.894205 0 0 0 32.05158-89.17672c9.296141-35.481454 9.296141-70.962908 0-106.444361a219.653853 219.653853 0 0 0-35.481454-91.660423l-47.308605-59.135756c38.083427-21.359835 78.650556-27.438991 121.701387-18.213813z" fill="#FC9743" /><path d="M710.303826 213.243537l14.783939 3.90296c7.403797 21.608205 18.757862 39.975771 34.062195 55.114525 40.366067 114.250281 38.118909 227.010341-6.741476 338.256526l-36.191083 49.200949-57.953041 2.010616c85.155489-140.270014 89.484226-283.059211 13.009866-428.379419-1.892344-3.48901-1.939653-7.439278-0.118271-10.289621 7.569377-11.827151 20.614725-15.091445 39.147871-9.816536z" fill="#FB8628" /><path d="M725.087765 217.146497c63.464494 13.482952 113.540652 48.065543 150.204821 103.724117 38.23718 76.959273 38.118909 154.036818-0.354815 231.220807-38.722093 58.355164-91.624941 94.226914-158.72037 107.627076l36.191083-49.200949c113.138529-112.192357 115.385688-224.952417 6.741476-338.256526-15.304334-15.138754-26.658399-33.50632-34.062195-55.114525z" fill="#8DCAFC" /><path d="M154.427717 222.113901a366.440627 366.440627 0 0 0 90.122892 37.373798c-14.358162 9.225178-27.640052 14.831248-39.8575 16.794554-33.908443 4.896441-60.992619-5.830786-81.252529-32.169851l30.987137-21.998501z" fill="#FCD430" /><path d="M588.602439 231.45735l47.308605 59.135756c-38.249007 7.652167-76.758212 9.154215-115.551268 4.494318-3.98575-0.49674-7.048982-3.193331-7.332833-6.504933-0.319333-3.228812 0.236543-6.504933 1.655801-9.816536 20.413663-22.70813 45.061446-38.473723 73.919695-47.308605z" fill="#C5E0FF" /><path d="M123.44058 244.112402c20.25991 26.339066 47.344086 37.066292 81.252529 32.169851-32.489185 19.869614-58.426127 44.75394-77.822655 74.629325l-16.794555 51.566379c-9.225178 25.002598-9.071425 49.792307 0.473086 74.392782a95.799925 95.799925 0 0 0 20.697515 53.22218c27.912077 48.337567 69.188835 77.550631 123.830274 87.639191 3.276121 0.697802 7.096291-0.023654 10.762707-2.010616a44.387299 44.387299 0 0 1 18.686899-5.322218l-1.537529 4.257775a4.789996 4.789996 0 0 0 2.720245 5.913575l78.177469 33.707382c64.10316 48.727863 103.203722 114.770676 117.325341 198.104783 0.827901 5.168465-0.425777 10.443375-3.465356 14.40547a15.257025 15.257025 0 0 1-12.264755 6.1856l-46.835519-0.591357c-3.027751-0.08279-5.85444-2.720245-6.97802-6.504933l-9.343449-31.22368c-0.709629-21.844748-8.444586-40.732709-23.181217-56.652054-27.841114-50.85675-71.045698-79.289222-129.625577-85.273761l-93.907581-33.707381c-1.395604-0.461259-4.423355-0.319333-8.160735 0.354815l-4.376046 0.8279 2.128888-4.139503c1.241851-2.400912 0.792419-5.168465-1.064444-6.504933-137.786312-101.003872-150.086549-291.421007-20.697515-405.434745z" fill="#FDE265" /><path d="M388.013954 242.811415l30.040964 27.084177-35.95454 73.446609-30.040964-37.965156z" fill="#FB8628" /><path d="M352.059414 305.377045l30.040964 37.965156-5.913575 3.90296h-32.524666l-216.791683 3.666417c19.396528-29.875384 45.333471-54.75971 77.822655-74.629325 12.217447-1.963307 25.499338-7.569377 39.8575-16.794554 39.892981 3.004096 75.729249 18.296603 107.508805 45.889346z" fill="#FFFFFF" /><path d="M752.408484 610.517548c44.860385-111.246185 47.107543-224.006245 6.741476-338.256526 108.644211 113.304109 106.397053 226.064169-6.741476 338.256526z" fill="#C5E0FF" /><path d="M514.682744 278.765955c-1.419258 3.311602-1.975134 6.587723-1.655801 9.816536 0.283852 3.311602 3.347084 6.008193 7.332833 6.504933 38.793056 4.659898 77.302261 3.157849 115.551268-4.494318a219.653853 219.653853 0 0 1 35.481454 91.660423l-214.899338 2.956787c6.457625-42.577745 25.854153-78.059198 58.189584-106.444361z" fill="#8DCAFC" /><path d="M343.662137 347.245161a88.005833 88.005833 0 0 0-8.397278 46.835519c-2.211677 7.9715 1.573011 11.082041 11.354065 9.343449l-236.543025-0.946172 16.794555-51.566379 216.791683-3.666417z" fill="#63B9FC" /><path d="M343.662137 347.245161h32.524666a74.830386 74.830386 0 0 1-3.666417 44.470089c-1.419258 3.678244-4.281429 6.504933-7.80592 7.687648-10.407893 3.548145-20.224429 1.774073-29.449607-5.322218a88.005833 88.005833 0 0 1 8.397278-46.835519z" fill="#1A96F9" /><path d="M671.392498 382.253529c9.296141 35.481454 9.296141 70.962908 0 106.444361h-200.588485c-12.300237 0-18.06006-7.876883-17.267641-23.654303a178.436231 178.436231 0 0 1 2.956788-79.833271l214.899338-2.956787z" fill="#C5E0FF" /><path d="M110.075899 402.477957l236.543025 0.946172c7.250044-2.28264 13.719495-1.809554 19.396529 1.419259 2.483702 1.490221 4.139503 5.038366 4.376046 9.343449l1.892344 48.373049c0.224716 4.636243-0.591358 8.397277-2.128888 9.816535-1.975134 1.892344-4.186812 2.128887-6.623204 0.709629l-25.78319 1.300987-227.199576 2.483702c-9.544511-24.600475-9.698264-49.390184-0.473086-74.392782z" fill="#FFFFFF" /><path d="M453.536372 465.043587c-0.792419 15.77742 4.967404 23.654303 17.267641 23.654303h200.588485a242.894205 242.894205 0 0 1-32.05158 89.17672c-45.499051-7.72313-90.122893-5.594243-133.883352 6.386662-32.642937-31.377432-49.957887-71.116661-51.921194-119.217685z" fill="#8DCAFC" /><path d="M337.748561 474.387037v55.232796l-206.502061 0.473086a95.799925 95.799925 0 0 1-20.697515-53.22218l227.199576-2.483702z" fill="#63B9FC" /><path d="M337.748561 474.387037l25.78319-1.300987c12.063694 14.594705 18.403047 31.661284 19.041713 51.211565a4.577108 4.577108 0 0 1-1.655801 3.666417 6.540415 6.540415 0 0 1-4.257774 1.53753c-4.494317 0-8.598339 1.028962-12.300238 3.075059l-26.61109-2.956788v-55.232796z" fill="#1A96F9" /><path d="M131.2465 530.092919l206.502061-0.473086 26.61109 2.956788 17.031098-0.473086-11.590608 18.686899c-22.637168 28.3142-51.057812 48.183814-85.273761 59.608842a44.387299 44.387299 0 0 0-18.686899 5.322218c-3.666417 1.986961-7.486587 2.708418-10.762707 2.010616-54.641439-10.08856-95.918197-39.301624-123.830274-87.639191z" fill="#FFFFFF" /><path d="M381.390749 532.103535l36.664169 71.90908-21.170601 24.127388c-29.414125-18.367566-38.438242-44.150756-27.084176-77.349569l11.590608-18.686899z" fill="#FB8628" /><path d="M369.800141 550.790434c-11.354065 33.198814-2.329949 58.982003 27.084176 77.349569l-32.997752 26.138005-78.177469-33.707382a4.789996 4.789996 0 0 1-2.720245-5.913575l1.537529-4.257775c34.215949-11.425028 62.636593-31.294642 85.273761-59.608842z" fill="#FC9743" /><path d="M639.340918 577.87461l-53.222181 64.10316c-30.206544-11.898114-57.089659-31.140889-80.661171-57.716498 43.76046-11.980904 88.384301-14.109791 133.883352-6.386662z" fill="#C5E0FF" /><path d="M249.518013 692.716249l-56.652055 24.127389c-29.733458-2.992269-51.211565-17.858998-64.457974-44.588361l14.665667-12.063694 4.376046-0.8279c3.73738-0.66232 6.765131-0.804246 8.160735-0.354815l93.907581 33.707381z" fill="#FB8628" /><path d="M128.407984 672.255277c13.246409 26.729362 34.724516 41.596091 64.457974 44.588361-25.712227 14.831248-45.416261 35.209429-59.135756 61.146372a110.027988 110.027988 0 0 0-23.654303 56.178968l-9.106906 31.696766c-1.135407 3.749207-4.021231 6.35118-7.214562 6.504933l-42.104659 1.064443c-17.740727 0.473086-24.210179-8.870363-19.396528-28.030348 18.994405-75.764731 51.045985-133.481229 96.15474-173.149495z" fill="#FC9743" /><path d="M249.518013 692.716249c58.57988 5.996366 101.784464 34.41701 129.625577 85.273761-6.705995 1.584838-15.375297 1.028962-26.019732-1.655801l-219.393656 1.655801c13.719495-25.936943 33.423529-46.315124 59.135756-61.146372l56.652055-24.127389z" fill="#FFFFFF" /><path d="M834.015828 698.629825a101.92639 101.92639 0 0 0 6.386661 46.835519l-59.135756 21.643687c-5.913576-15.292507-15.77742-26.44551-29.567878-33.470839l82.316973-35.008367z" fill="#CBC5CB" /><path d="M840.402489 745.465344c5.203947 15.067791 15.055964 24.24566 29.567879 27.557262l-14.783939 8.870364-61.619459 23.181216-12.300237-37.965155 59.135756-21.643687z" fill="#E1DDE1" /><path d="M955.244128 878.993881c-14.358162 14.192582-33.75469 24.647783-58.189584 31.341951-22.235044-38.710266-37.456588-74.664806-45.652804-107.863619-1.348295-5.44049-0.08279-12.300237 3.784689-20.579243l14.783939-8.870364c11.590608-6.221082 23.689784-8.823055 36.309354-7.80592a11.401374 11.401374 0 0 1 8.870363 5.913576 344.560398 344.560398 0 0 1 40.094043 107.863619z" fill="#2844AE" /><path d="M353.123858 776.334209c-4.813651 19.396528-3.039578 38.674785 5.322218 57.834769h-248.370177a110.027988 110.027988 0 0 1 23.654303-56.178968l219.393656-1.655801z" fill="#63B9FC" /><path d="M353.123858 776.334209c10.644436 2.684763 19.313738 3.240639 26.019732 1.655801 14.73663 15.931173 22.471587 34.819133 23.181217 56.652054l-43.878731-0.473086c-8.361796-19.159985-10.135869-38.438242-5.322218-57.834769z" fill="#1A96F9" /><path d="M855.186429 781.89297c-3.867478 8.279006-5.132984 15.138754-3.784689 20.579243 8.196216 33.198814 23.417759 69.153353 45.652804 107.863619-28.14862 11.590608-76.994755 35.95454-109.401149 27.793806l-38.911328-94.853753a18.284776 18.284776 0 0 1 0.272025-14.334508c2.046097-4.600762 5.866267-8.255352 10.608954-10.135868l33.943924-13.719496 61.619459-23.181216z" fill="#3351C5" /><path d="M955.244128 878.993881l35.836268 110.110779c5.594243 17.350431 0.626839 26.303584-14.90221 26.847633l-53.813538 2.128887c-18.852479-10.478856-30.833383-26.61109-35.95454-48.373048a5.156638 5.156638 0 0 0-2.519183-3.347084 4.908268 4.908268 0 0 0-4.104022-0.307506 186.064744 186.064744 0 0 1-68.360934 12.53678c-5.203947-16.877345-13.128138-30.360297-23.772574-40.448857 32.406394 8.160734 81.252529-16.203197 109.401149-27.793806 24.434894-6.705995 43.831423-17.149369 58.189584-31.34195z" fill="#30A7FB" /><path d="M922.364648 1018.08118l-81.962159-2.483702c-4.115849-0.070963-7.782266-2.03427-9.698264-5.203946l-19.278256-31.815037c23.334969 0.16558 46.12589-4.021231 68.360934-12.53678a4.908268 4.908268 0 0 1 4.104022 0.319333c1.265505 0.709629 2.188023 1.927826 2.519183 3.358911 5.121156 21.761958 17.102061 37.882365 35.95454 48.373048z" fill="#63B9FC" /></svg>