<?xml version="1.0" standalone="no"?><!DOCTYPE svg PUBLIC "-//W3C//DTD SVG 1.1//EN" "http://www.w3.org/Graphics/SVG/1.1/DTD/svg11.dtd"><svg class="icon" width="200px" height="200.00px" viewBox="0 0 1024 1024" version="1.1" xmlns="http://www.w3.org/2000/svg"><path d="M219.928523 601.341275c-17.798262 14.698565-40.596036 23.497705-65.393614 23.497706-56.894444 0-102.989942-46.095498-102.989943-102.989943s46.095498-102.989942 102.989943-102.989942c6.699346 0 13.198711 0.599941 19.498096 1.799824l45.895518 180.682355zM796.972171 601.341275c17.798262 14.698565 40.596036 23.497705 65.493604 23.497706 56.894444 0 102.989942-46.095498 102.989942-102.989943s-46.095498-102.989942-102.989942-102.989942c-6.699346 0-13.198711 0.599941-19.498096 1.799824l-45.995508 180.682355z" fill="#E0C4B8" /><path d="M508.500342 432.957719m-336.667123 0a336.667122 336.667122 0 1 0 673.334245 0 336.667122 336.667122 0 1 0-673.334245 0Z" fill="#EFD0C2" /><path d="M630.7884 297.070989c-31.596914 0-61.693975-9.799043-87.191486-28.297236l8.1992-11.298897c23.097744 16.79836 50.395079 25.5975 78.992286 25.5975 74.292745 0 134.686847-60.394102 134.686847-134.686847S704.981154 13.898643 630.7884 13.898643c-19.298115 0-37.896299 3.999609-55.394591 11.898838L569.694366 13.098721C588.992481 4.39957 609.490479 0 630.7884 0c81.892003 0 148.58549 66.593497 148.585489 148.58549S712.680402 297.070989 630.7884 297.070989z" fill="#FF8700" /><path d="M399.111024 534.747779m-32.196855 0a32.196856 32.196856 0 1 0 64.393711 0 32.196856 32.196856 0 1 0-64.393711 0Z" fill="#380B04" /><path d="M617.889659 534.747779m-32.196856 0a32.196856 32.196856 0 1 0 64.393712 0 32.196856 32.196856 0 1 0-64.393712 0Z" fill="#380B04" /><path d="M770.374768 1023.90001C754.976272 915.210624 643.68714 830.818865 508.500342 830.818865S262.024412 915.210624 246.625915 1023.90001h523.748853z" fill="#46B0FE" /></svg>