<?xml version="1.0" standalone="no"?><!DOCTYPE svg PUBLIC "-//W3C//DTD SVG 1.1//EN" "http://www.w3.org/Graphics/SVG/1.1/DTD/svg11.dtd"><svg class="icon" width="200px" height="200.00px" viewBox="0 0 1024 1024" version="1.1" xmlns="http://www.w3.org/2000/svg"><path d="M626.264 342.552V120.416H393.736v222.136c0 148.984-132.928 99.68-132.928 199.392v420.056a46.056 46.056 0 0 0 46.056 46.056h406.264a46.056 46.056 0 0 0 46.064-46.064V541.944c0-99.712-132.928-50.4-132.928-199.392z" fill="#FF6376" /><path d="M626.264 120.416V37.856a21.984 21.984 0 0 0-21.92-21.912H415.648a21.984 21.984 0 0 0-21.92 21.92v82.552h232.536z" fill="#C3DDF7" /><path d="M510 98.112a15.944 15.944 0 0 1-15.944-15.944V54.192a15.944 15.944 0 1 1 31.888 0v27.976c0 8.8-7.136 15.944-15.944 15.944zM444.248 98.112a15.944 15.944 0 0 1-15.944-15.944V54.192a15.944 15.944 0 1 1 31.888 0v27.976c0 8.8-7.136 15.944-15.944 15.944zM575.752 98.112a15.944 15.944 0 0 1-15.944-15.944V54.192a15.944 15.944 0 1 1 31.888 0v27.976c0 8.8-7.144 15.944-15.944 15.944z" fill="#2F3953" /><path d="M673.208 885.84V724.592a21.32 21.32 0 0 0-21.256-21.256H368.04a21.32 21.32 0 0 0-21.256 21.256v161.248H673.2z" fill="#FFFFFF" /><path d="M556.928 833.4l-31.072-43.528 20.92-18.744a15.944 15.944 0 1 0-21.28-23.76L492 777.4v-19.44a15.944 15.944 0 1 0-31.888 0v84.712a15.944 15.944 0 1 0 31.888 0v-22.448l9.976-8.944 29 40.648a15.92 15.92 0 0 0 22.24 3.72 15.944 15.944 0 0 0 3.72-22.24z" fill="#866539" /><path d="M673.208 885.84v34.336a21.32 21.32 0 0 1-21.256 21.264H368.04a21.32 21.32 0 0 1-21.256-21.264v-34.336H673.2z" fill="#FFD553" /><path d="M367.992 546.552m-28.872 0a28.872 28.872 0 1 0 57.744 0 28.872 28.872 0 1 0-57.744 0Z" fill="#3F4963" /><path d="M398.872 638.96h-61.76a15.944 15.944 0 1 1 0-31.888h61.76a15.944 15.944 0 1 1 0 31.888z" fill="#FF9596" /><path d="M652 546.552m-28.872 0a28.872 28.872 0 1 0 57.744 0 28.872 28.872 0 1 0-57.744 0Z" fill="#3F4963" /><path d="M682.888 638.96h-61.76a15.944 15.944 0 1 1 0-31.888h61.76a15.944 15.944 0 1 1 0 31.888z" fill="#FF9596" /><path d="M481.296 614.4a44.696 44.696 0 0 1-44.64-44.64 15.944 15.944 0 1 1 31.888 0c0 7.032 5.72 12.752 12.752 12.752 7.04 0 12.76-5.72 12.76-12.752a15.944 15.944 0 1 1 31.888 0 44.696 44.696 0 0 1-44.64 44.64z" fill="#3F4963" /><path d="M538.696 614.4a44.696 44.696 0 0 1-44.64-44.64 15.944 15.944 0 1 1 31.888 0c0 7.032 5.72 12.752 12.752 12.752 7.04 0 12.76-5.72 12.76-12.752a15.944 15.944 0 1 1 31.888 0 44.688 44.688 0 0 1-44.64 44.64z" fill="#3F4963" /><path d="M393.744 205.872h232.536V301.44H393.744z" fill="#FFD553" /><path d="M710.304 452.216c-35.016-19.12-68.096-37.184-68.096-109.664V37.856A37.904 37.904 0 0 0 604.344 0H415.648a37.904 37.904 0 0 0-37.856 37.856V342.56c0 72.48-33.08 90.544-68.104 109.664C279.304 468.808 244.864 487.608 244.864 541.944v420.048c0 34.192 27.816 62 62 62h406.264c34.192 0 62-27.808 62-62V541.944c0.008-54.328-34.432-73.136-64.824-89.728zM409.68 37.864c0-3.24 2.736-5.976 5.968-5.976h188.696c3.24 0 5.976 2.736 5.976 5.968v66.616H409.68V37.864zM743.248 962a30.144 30.144 0 0 1-30.112 30.112H306.864a30.152 30.152 0 0 1-30.112-30.112V541.944c0-35.408 19.176-45.88 48.216-61.736C362.72 459.608 409.68 433.96 409.68 342.56V136.36h200.64V342.56c0 91.408 46.968 117.056 84.712 137.656 29.04 15.856 48.216 26.328 48.216 61.736v420.056zM651.952 687.392H368.04a37.248 37.248 0 0 0-37.2 37.2v195.584a37.248 37.248 0 0 0 37.2 37.208h283.92a37.248 37.248 0 0 0 37.2-37.2V724.584a37.248 37.248 0 0 0-37.2-37.2z m5.312 232.784c0 2.88-2.432 5.312-5.312 5.312H368.04a5.384 5.384 0 0 1-5.312-5.312V724.592c0-2.88 2.432-5.312 5.312-5.312h283.92c2.88 0 5.312 2.432 5.312 5.312v195.584z m-5.256-344.744a28.872 28.872 0 1 0 0-57.736 28.872 28.872 0 0 0 0 57.744zM481.296 614.4a44.416 44.416 0 0 0 28.704-10.496 44.416 44.416 0 0 0 28.696 10.496 44.696 44.696 0 0 0 44.64-44.64 15.944 15.944 0 1 0-31.88 0 12.768 12.768 0 0 1-25.512 0 15.944 15.944 0 1 0-31.888 0c0 7.032-5.72 12.752-12.76 12.752-7.032 0-12.752-5.72-12.752-12.752a15.944 15.944 0 1 0-31.888 0 44.696 44.696 0 0 0 44.64 44.64zM368 575.44a28.872 28.872 0 1 0 0-57.744 28.872 28.872 0 0 0 0 57.744z" fill="#000000" /></svg>