<?xml version="1.0" standalone="no"?><!DOCTYPE svg PUBLIC "-//W3C//DTD SVG 1.1//EN" "http://www.w3.org/Graphics/SVG/1.1/DTD/svg11.dtd"><svg class="icon" width="200px" height="200.00px" viewBox="0 0 1024 1024" version="1.1" xmlns="http://www.w3.org/2000/svg"><path d="M945.02763 967.771732a56.735033 56.735033 0 0 1-57.170897 56.226525h-697.383245a56.735033 56.735033 0 0 1-57.170897-56.226525V56.30636A56.735033 56.735033 0 0 1 190.3282 0.007192h697.383245a56.735033 56.735033 0 0 1 57.170897 56.226524z" fill="#2D404E" /><path d="M925.050506 941.837793a55.354795 55.354795 0 0 1-55.935948 54.773642H187.059216a55.354795 55.354795 0 0 1-55.935948-54.773642V54.780834A55.354795 55.354795 0 0 1 187.059216 0.007192h682.055342a55.427439 55.427439 0 0 1 55.935948 54.773642z" fill="#E2E5E7" /><path d="M155.67697 206.171114a51.432014 51.432014 0 1 0 51.432014-51.432015 51.432014 51.432014 0 0 0-51.432014 51.432015z" fill="#C6CBCB" /><path d="M163.813108 206.171114a43.586453 43.586453 0 0 0 86.591752 0 43.586453 43.586453 0 1 0-86.591752 0z" fill="#2D404E" /><path d="M175.436162 207.188131a30.147297 30.147297 0 1 0 30.147296-30.219941 30.147297 30.147297 0 0 0-30.147296 30.219941z" fill="#253744" /><path d="M223.308616 206.171114a23.46404 23.46404 0 0 1-23.464041 23.46404H102.428853a23.46404 23.46404 0 1 1 0-46.928081h97.415722a23.391396 23.391396 0 0 1 23.464041 23.464041z" fill="#586A73" /><path d="M87.536815 224.259491a23.246108 23.246108 0 0 0 14.892038 5.375663h97.415722a23.46404 23.46404 0 1 0 0-46.928081 29.057635 29.057635 0 0 1 11.695698 20.049768c1.59817 14.165597-15.10997 21.793226-27.750041 21.793227z" fill="#2D404E" opacity=".5" /><path d="M181.1024 188.228024H116.158586c-13.875021 0-26.079228 5.738883-28.621771 15.909055 0 0 8.644646-10.170172 31.672822-10.170172h61.892763z" fill="#C6CBCB" opacity=".3" /><path d="M155.67697 419.018291a51.432014 51.432014 0 1 0 102.864028 0 51.432014 51.432014 0 1 0-102.864028 0z" fill="#C6CBCB" /><path d="M163.813108 419.018291a43.586453 43.586453 0 0 0 86.591752 0 43.586453 43.586453 0 0 0-86.591752 0z" fill="#2D404E" /><path d="M175.436162 420.035309a30.147297 30.147297 0 1 0 30.147296-30.219941 30.147297 30.147297 0 0 0-30.147296 30.219941z" fill="#253744" /><path d="M223.308616 419.018291a23.46404 23.46404 0 0 1-23.464041 23.464041H102.428853a23.46404 23.46404 0 0 1 0-46.928081h97.415722a23.391396 23.391396 0 0 1 23.464041 23.46404z" fill="#586A73" /><path d="M87.536815 437.179313a23.609329 23.609329 0 0 0 14.892038 5.303019h97.415722a23.46404 23.46404 0 1 0 0-46.928081 29.057635 29.057635 0 0 1 11.695698 20.049768c1.59817 14.165597-15.10997 21.793226-27.750041 21.793227z" fill="#2D404E" opacity=".5" /><path d="M181.1024 401.075202H116.158586c-13.875021 0-26.079228 5.738883-28.621771 15.909055 0 0 8.644646-10.170172 31.672822-10.170172h61.892763z" fill="#C6CBCB" opacity=".3" /><path d="M155.67697 632.010758a51.432014 51.432014 0 1 0 51.432014-51.432015A51.432014 51.432014 0 0 0 155.67697 632.010758z" fill="#C6CBCB" /><path d="M163.813108 632.010758a43.586453 43.586453 0 0 0 86.591752 0 43.586453 43.586453 0 1 0-86.591752 0z" fill="#2D404E" /><path d="M175.436162 632.882487A30.147297 30.147297 0 1 0 205.583458 602.953122a30.147297 30.147297 0 0 0-30.147296 30.147297z" fill="#253744" /><path d="M223.308616 632.010758a23.46404 23.46404 0 0 1-23.464041 23.46404H102.428853a23.46404 23.46404 0 1 1 0-46.928081h97.415722A23.46404 23.46404 0 0 1 223.308616 632.010758z" fill="#586A73" /><path d="M87.536815 650.026491a23.609329 23.609329 0 0 0 14.892038 5.303019h97.415722a23.46404 23.46404 0 1 0 0-46.928081 29.057635 29.057635 0 0 1 11.695698 20.049768c1.59817 14.165597-15.10997 21.793226-27.750041 21.793227z" fill="#2D404E" opacity=".5" /><path d="M181.1024 613.92238H116.158586c-13.875021 0-26.079228 5.738883-28.621771 15.909055 0 0 8.644646-10.170172 31.672822-10.170172h61.892763z" fill="#C6CBCB" opacity=".3" /><path d="M925.050506 54.127037a55.064219 55.064219 0 0 0-55.935948-54.119845H770.681819l154.368687 130.759358V54.127037z" fill="#D1D5D5" /><path d="M797.70542 122.920989l127.345086 42.569435V130.76655z" fill="#C6CBCB" /><path d="M770.681819 76.791993a55.064219 55.064219 0 0 0 55.935948 54.119845h98.432739L770.681819 0.007192z" fill="#586A73" /><path d="M574.252205 865.706789z m-10.170172-1.162306z m7.264408 1.162306z m-5.012442-0.581153z m2.397255 0z m35.087095-4.286001h-0.799085z m-9.661664 1.96139z m-12.349495 1.961391z m17.144005-2.905764h-0.726441z m14.528817-3.268984z m-4.721865 1.089661h-0.726441z m-30.72845 5.448307z m7.845562-0.944373h-0.726441z" fill="#EB8923" /><path d="M352.615092 229.635154m22.083803 0l292.828319 0q22.083803 0 22.083803 22.083803l0 6.683256q0 22.083803-22.083803 22.083803l-292.828319 0q-22.083803 0-22.083803-22.083803l0-6.683256q0-22.083803 22.083803-22.083803Z" fill="#586A73" /><path d="M352.615092 342.160846m22.083803 0l292.828319 0q22.083803 0 22.083803 22.083803l0 6.683256q0 22.083803-22.083803 22.083803l-292.828319 0q-22.083803 0-22.083803-22.083803l0-6.683256q0-22.083803 22.083803-22.083803Z" fill="#586A73" /><path d="M352.615092 454.686539m22.083803 0l147.685431 0q22.083803 0 22.083803 22.083802l0 6.683257q0 22.083803-22.083803 22.083802l-147.685431 0q-22.083803 0-22.083803-22.083802l0-6.683257q0-22.083803 22.083803-22.083802Z" fill="#586A73" /><path d="M693.824374 563.434738c-93.275009 0-171.076827 72.644088-171.076828 165.846453a171.076827 171.076827 0 0 0 342.153655 0c-5.15773-93.275009-77.729174-165.846453-171.076827-165.846453z" fill="#ED9E43" /><path d="M693.824374 563.434738a163.449198 163.449198 0 0 0-18.015734 0.944374c84.485074 8.644646 148.19394 77.65653 153.061093 164.902079a172.820285 172.820285 0 0 1-153.061093 170.05981 164.320927 164.320927 0 0 0 18.015734 1.017018 172.529709 172.529709 0 0 0 171.076827-171.076828c-5.15773-93.275009-77.729174-165.846453-171.076827-165.846453z" fill="#EB8923" /><path d="M784.55684 755.215131l-62.18334 62.183339-25.933939-25.861295 41.479774-41.479774H582.388343v-36.322044h155.530992L696.439561 672.255582l25.933939-25.933939 62.18334 62.255983 5.15773 5.157731 15.545835 20.776209-20.703565 20.703565z" fill="#FFFFFF" /></svg>