<?xml version="1.0" standalone="no"?><!DOCTYPE svg PUBLIC "-//W3C//DTD SVG 1.1//EN" "http://www.w3.org/Graphics/SVG/1.1/DTD/svg11.dtd"><svg class="icon" width="200px" height="200.00px" viewBox="0 0 1024 1024" version="1.1" xmlns="http://www.w3.org/2000/svg"><path d="M819.4 945H219.3c-40.7 0-73.7-33-73.7-73.7s33-73.7 73.7-73.7h600.1c40.7 0 73.7 33 73.7 73.7s-33 73.7-73.7 73.7z" fill="#E6EBEF" /><path d="M161.6 687l77.7-131 33.8 0.1 22.3 41.5h117.2l53.9 89.4z" fill="#9ADCCF" /><path d="M317.3 482.6l22.2 41.3h31.1l-56.5-99.3-32.9 57.9z" fill="#309AA5" /><path d="M161.6 687l77.7-131 33.8 0.1 22.3 41.5h117.2l53.9 89.4z" fill="#9ADCCF" /><path d="M856.3 339.6h-1.8c-14.7-37-50.7-63.2-92.9-63.2-55.2 0-100 44.8-100 100s44.8 100 100 100h94.8c37.8 0 68.4-30.6 68.4-68.4-0.1-37.7-30.7-68.4-68.5-68.4z" fill="#FFFFFF" /><path d="M838.6 532.1c-4.2-7.7-13.7-10.5-21.4-6.3-7.7 4.2-10.5 13.7-6.3 21.4l87.3 160.9H539L372.4 419.5l51.5-95.7 117.9 1.1 31.8 59c2.8 5.1 8.1 8.3 13.9 8.3h59.3c7.7 56.4 56.2 100 114.7 100h94.8c46.4 0 84.2-37.8 84.2-84.2 0-43.6-33.2-79.5-75.7-83.8-19.6-39-59.1-63.6-103.3-63.6-58.5 0-107 43.6-114.7 100h-49.9l-31.7-58.9c-2.7-5.1-8-8.3-13.8-8.3l-110.6-1 101.6-188.7c4-7.5 11.1-8.3 13.9-8.3 2.8 0 9.8 0.8 13.9 8.3l77.4 142.7c4.2 7.7 13.8 10.5 21.4 6.3 7.7-4.2 10.5-13.7 6.3-21.4L598 88.7c-8.3-15.3-24.2-24.8-41.6-24.8h-0.1c-17.4 0-33.4 9.6-41.6 24.9L353.8 387.6C345 374 330.4 366 314.1 366c-17.1 0-32.5 8.9-41 23.7L84.6 716c-2.8 4.9-2.8 10.9 0 15.8s8 7.9 13.7 7.9h105.3c8.7 0 15.8-7.1 15.8-15.8 0-8.7-7.1-15.8-15.8-15.8h-77.9l100.6-174.2c1.1 0.3 2.3 0.4 3.5 0.5l56 0.6 17.9 33.2c2.8 5.1 8.1 8.3 13.9 8.3h107.2c0.6 0 1.2-0.1 1.8-0.2l76.1 131.8H286.4c-8.7 0-15.8 7.1-15.8 15.8 0 8.7 7.1 15.8 15.8 15.8h638.3c5.6 0 10.7-2.9 13.6-7.7s3-10.7 0.3-15.6l-100-184.3z m-77.1-239.9c34.7 0 65.4 20.9 78.2 53.2 2.4 6 8.2 10 14.7 10h1.8c29 0 52.6 23.6 52.6 52.6s-23.6 52.6-52.6 52.6h-94.8c-46.4 0-84.2-37.8-84.2-84.2s37.9-84.2 84.3-84.2zM326.9 544.9l-17.8-33.1c-2.7-5.1-8-8.2-13.7-8.3l-51.3-0.6 56.3-97.6c4.1-7.1 10.9-7.9 13.7-7.9 2.7 0 9.6 0.8 13.7 7.9l80.6 139.5h-81.5zM622 797.6c0-8.7-7.1-15.8-15.8-15.8H219.3c-8.7 0-15.8 7.1-15.8 15.8 0 8.7 7.1 15.8 15.8 15.8h386.9c8.8 0 15.8-7.1 15.8-15.8z" fill="#4F3D3B" /><path d="M761.5 781.8h-79.3c-8.7 0-15.8 7.1-15.8 15.8 0 8.7 7.1 15.8 15.8 15.8h79.3c11.6 0 21.1 9.4 21.1 21.1s-9.4 21.1-21.1 21.1h-400c-29 0-52.6 23.6-52.6 52.6s23.6 52.6 52.6 52.6h77.7c8.7 0 15.8-7.1 15.8-15.8 0-8.7-7.1-15.8-15.8-15.8h-77.7c-11.6 0-21.1-9.4-21.1-21.1s9.4-21.1 21.1-21.1h400.1c29 0 52.6-23.6 52.6-52.6s-23.6-52.6-52.7-52.6z" fill="#4F3D3B" /><path d="M693.1 929.2H517.3c-8.7 0-15.8 7.1-15.8 15.8 0 8.7 7.1 15.8 15.8 15.8h175.8c8.7 0 15.8-7.1 15.8-15.8 0-8.7-7.1-15.8-15.8-15.8z" fill="#4F3D3B" /><path d="M650.2 297l-93.9-174.5L475.8 272l97.6 0.5 36.1 67.1h20.2c4.4-15.5 11.4-29.8 20.5-42.6z" fill="#309AA5" /><path d="M761.5 513.3c-62.7 0-115.7-42.4-131.8-100h-64.2L529.3 346l-93.2-0.3-39.9 74.1L551.3 687H863l-95.3-173.7h-6.2z" fill="#9ADCCF" /><path d="M777.3 339.6c0-8.1 0.9-16 2.6-23.6-5.8-1.8-12-2.7-18.4-2.7-34.8 0-63.2 28.3-63.2 63.2s28.3 63.2 63.2 63.2H841c-37.6-17.7-63.7-55.8-63.7-100.1z" fill="#E6EBEF" /></svg>