<?xml version="1.0" standalone="no"?><!DOCTYPE svg PUBLIC "-//W3C//DTD SVG 1.1//EN" "http://www.w3.org/Graphics/SVG/1.1/DTD/svg11.dtd"><svg class="icon" width="200px" height="200.00px" viewBox="0 0 1024 1024" version="1.1" xmlns="http://www.w3.org/2000/svg"><path d="M351.731817 53.698054C395.495822 21.82427 451.05013 12.931584 504.006574 12.132241c29.875428 0.599507 61.149706 4.696138 87.128339 20.682989 9.592111 5.695316 17.385701 13.988495 23.580605 23.280852 25.179291 3.896795 50.558417 12.889399 69.542803 30.474935 27.677236 25.379126 40.466717 62.648473 44.163676 99.118477 6.39474 61.349541-5.895151 122.799-23.480687 181.350842 14.18833 10.99096 21.282496 29.375839 19.483974 47.161211-1.898439 20.1834-6.094987 41.066224-17.585536 58.152171-6.094987 9.192439-15.58718 15.687098-26.478222 17.88529-4.296466 30.774688-14.588002 60.650116-29.475757 87.927681-7.094165 12.789481-15.287426 25.578962-27.177647 34.471648-0.099918 35.171072-1.498767 70.541981 2.497946 105.613135 8.69285 25.578962 31.274278 43.06458 53.456033 56.653404 66.745103 37.968771 144.381249 54.155458 207.928983 98.219216 32.173538 21.482331 60.150527 50.85817 75.1382 87.028421 9.692028 22.481509 6.294823 30.874606 8.193261 55.154637-317.938502 0.099918-617.991714 0-935.930216 0 2.198192-37.768936 3.696959-59.750856 26.378305-90.425627 17.485618-24.180112 41.166142-43.06458 66.145596-58.951514 57.452746-35.570744 123.698261-52.856527 183.848788-83.131625 27.4774-14.787837 56.953157-33.47247 67.8442-64.446994 4.096631-34.971237 2.697781-70.442063 2.597863-105.613135-13.488906-10.0917-22.281674-24.779619-30.275099-39.167786-13.788659-25.878715-23.580605-54.05554-27.577318-83.131625-15.787015-2.797699-27.177647-15.58718-33.072799-29.775511-6.694494-15.487262-10.0917-32.273456-11.090878-48.959731-0.89926-16.886112 6.294823-33.972059 19.683811-44.363512-12.789481-51.157924-22.081838-103.714697-19.983564-156.571223 1.398849-32.673127 7.393919-65.646007 21.582249-95.3216 11.390631-24.579784 28.87625-46.062115 50.658334-61.749213z" fill="#EFD0C2" /><path d="M534.681345 198.279139s-158.669497 31.773867-206.23038 31.773867c0 0-39.667374 119.002123-23.780441 166.563005 0 0-112.507465-233.308109 58.751678-350.711547 0 0 179.15265-109.410012 250.593892 9.592111 0 0 190.343446 0 95.221682 317.239077l-47.560882-47.560882c-0.099918 0 63.347898-126.895631-126.995549-126.895631z" fill="#380B04" /><path d="M503.007396 801.083345c-50.758252 0-120.700726-47.960553-166.563005-39.667375-191.642378 34.871319-309.345569 141.58355-309.345569 261.784687h951.817149c0-118.102863-122.799-225.214765-309.34557-261.784687-48.759896-9.492193-112.207711 39.667374-166.563005 39.667375z" fill="#404C60" /></svg>