<?xml version="1.0" standalone="no"?><!DOCTYPE svg PUBLIC "-//W3C//DTD SVG 1.1//EN" "http://www.w3.org/Graphics/SVG/1.1/DTD/svg11.dtd"><svg class="icon" width="200px" height="200.00px" viewBox="0 0 1024 1024" version="1.1" xmlns="http://www.w3.org/2000/svg"><path d="M734.59101 353.4S522.99101 194 323.89101 256.3 12.79101 554.9 0.39101 679.4s273.8 136.9 336 136.9 286.2 12.4 360.9 0 273.8 0 273.8-136.9-24.9-179.1-236.5-326z" fill="#A0490D" /><path d="M834.19101 306s-87.1-99.6 37.3-124.5c0 0 49.8-12.4 74.7 49.8 0 0 37.3 0 62.2 24.9 24.9 24.9 24.9 124.5-37.3 124.5 0 0-37.3 0-49.8-12.4 0 0-62.2 37.3-74.7 99.6l-87.1-62.2c0-0.1 74.7-37.4 74.7-99.7z" fill="#E2E2E2" /><path d="M784.39101 368.3s-211.6-24.9-211.6 136.9 87.1 248.9 124.5 261.3 143.4 67.1 233.5-47.3c64.5-81.9 12.7-213.6-58.5-290.9-11.5-12.5-44.7 5.3-56.8-4-17.6-13.5-14.3-51.8-31.1-56z" fill="#B2510F" /><path d="M674.89101 481c9.8 0 17.8-7.5 17.8-16.7s-8-16.8-17.8-16.8-17.8 7.5-17.8 16.8c0 9.2 8 16.7 17.8 16.7zM656.99101 573.6c9.8 0 17.8-7.5 17.8-16.7s-8-16.8-17.8-16.8-17.8 7.6-17.8 16.8c0 9.2 8 16.7 17.8 16.7zM700.79101 655.4c9.8 0 17.8-7.5 17.8-16.7s-8-16.8-17.8-16.8-17.8 7.5-17.8 16.8c0 9.2 8 16.7 17.8 16.7zM742.99101 561.6c9.8 0 17.8-7.5 17.8-16.7s-8-16.8-17.8-16.8-17.8 7.6-17.8 16.8c0 9.2 8 16.7 17.8 16.7zM327.89101 350.4c9.5-3.7 20.2 1.1 23.9 10.6 3.7 9.6-1.1 20.3-10.7 23.9-0.2 0.1-86.1 31.3-145.5 132.3-5.2 8.8-16.5 11.8-25.3 6.6-8.8-5.2-11.8-16.5-6.6-25.3 66.1-112.4 163.9-148 164.2-148.1z" fill="#6B330A" /></svg>