<?xml version="1.0" standalone="no"?><!DOCTYPE svg PUBLIC "-//W3C//DTD SVG 1.1//EN" "http://www.w3.org/Graphics/SVG/1.1/DTD/svg11.dtd"><svg class="icon" width="200px" height="185.84px" viewBox="0 0 1102 1024" version="1.1" xmlns="http://www.w3.org/2000/svg"><path d="M869.47209 152.471922l-25.475676 1.019027-41.397974-1.019027c4.330865-24.966163 0.929862-48.365571-10.19027-70.185488a10.317649 10.317649 0 0 0-9.298622-5.604649l-469.007198 0.254757a9.808135 9.808135 0 0 0-9.043866 5.986784c-9.515165 21.998246-12.61046 44.289463-9.298621 66.87365l-34.519542 3.693973-31.844595-1.019027c-2.802324-87.381569 5.095135-145.848246 106.488327-145.848246L756.614845 6.368919c94.132624 0 129.79857 56.301244 112.857245 146.103003z" fill="#7A6D79" /><path d="M802.59844 152.471922c-37.028895 5.693814-50.823974 27.98503-41.397973 66.87365-138.16733 5.94857-276.321922 6.114162-414.489252 0.509513 7.044024-42.544379-9.935514-65.892836-50.951352-70.058109-3.311838-22.584187-0.216543-44.875404 9.298621-66.87365a9.808135 9.808135 0 0 1 9.043866-5.986784l469.007198-0.254757a10.317649 10.317649 0 0 1 9.298622 5.604649c11.120133 21.819917 14.521135 45.219325 10.19027 70.185488z" fill="#FFFFFF" /><path d="M295.759863 149.796976c41.015839 4.165273 57.995377 27.51373 50.951352 70.058109l-66.364136 2.674946c5.515484-27.424565-0.853435-50.441839-19.106758-69.039082l34.519542-3.693973z" fill="#FCD430" /><path d="M229.395726 152.471922l31.844595 1.019027c18.253322 18.597244 24.622241 41.614517 19.106758 69.039082h-82.795948c-16.724781-37.538409-6.114162-60.886866 31.844595-70.058109zM802.59844 152.471922l41.397974 1.019027 6.368919 69.039082-89.164866-3.184459c-9.426-38.88862 4.369078-61.179836 41.397973-66.87365z" fill="#FDE265" /><path d="M843.996414 153.490949l25.475676-1.019027c38.633863 3.566595 54.390569 26.023403 47.25738 67.383163l-66.364137 2.674946-6.368919-69.039082z" fill="#FCD430" /><path d="M346.711215 219.855085c138.16733 5.604649 276.321922 5.439057 414.489252-0.509513l89.164866 3.184459 66.364137-2.674946 78.592461 2.038055c12.100946 23.310244 23.182865 34.774298 24.456649 63.052298 4.076108 88.999275 0.127378 177.565463-11.84619 265.711303a120758.959552 120758.959552 0 0 1-431.940089 109.800164 97.113278 97.113278 0 0 1-49.804947-0.509513 12382.197653 12382.197653 0 0 0-504.29101-125.340327C6.865695 444.002822 2.751373 357.130767 9.540641 273.990897c6.114162-73.752083 136.422246-50.696596 188.01049-51.460866h82.795948l66.364136-2.674946z m131.072354 247.87833c-30.914733 17.412625-34.353949 37.156274-10.317649 59.230947 2.866014 2.700422 6.827481 4.203487 11.081919 4.203486l117.060732 0.254757 31.844596 1.019027-143.173301 3.439217a4.381816 4.381816 0 0 0-3.553856 1.910675 3.795876 3.795876 0 0 0-0.267495 3.821352c32.354109 69.675974 123.047516 49.677569 156.038517-9.680757 26.915052-27.004217 23.908922-48.403785-9.043865-64.198704-29.297028-66.10938-124.576057-70.695001-149.669598 0z" fill="#918191" /><path d="M995.321931 221.89314c54.900082-13.119973 98.845624 4.330865 100.246785 65.345109 2.038054 86.19695-1.528541 171.744271-10.699784 256.667438a167.311503 167.311503 0 0 0-76.936542 6.751054c11.973568-88.14584 15.922298-176.712028 11.84619-265.711303-1.273784-28.278001-12.355703-39.742055-24.456649-63.052298z" fill="#7A6D79" /><path d="M1007.93239 550.656741a167.311503 167.311503 0 0 1 76.936542-6.751054c-1.439376 48.569377-3.18446 181.514193-5.222513 398.82171-0.598678 58.50489-32.443274 82.757734-95.533786 72.733056-4.929543-0.853435-8.024838-2.802324-9.298622-5.859406-1.057241-2.751373 0.738795-6.993073 4.458244-10.572405 20.635298-19.781863 25.259133-43.856377 13.884243-72.223542l3.18446-57.320272c5.693814-84.66841 5.986784-169.375033 0.891648-254.11987a5.095135 5.095135 0 0 0-6.368919-4.713l-416.527305 106.488327c-14.6103 3.821351-29.768328 3.732187-45.474082-0.254757l-502.380335-126.868868-4.585621-55.409595a12382.197653 12382.197653 0 0 1 504.29101 125.340327 97.113278 97.113278 0 0 0 49.804947 0.509513 120758.959552 120758.959552 0 0 0 431.940089-109.800164z" fill="#685E67" /><path d="M26.481965 590.01666l502.380335 126.868868c15.705754 3.986943 30.863782 4.076108 45.474082 0.254757l416.527305-106.488327a5.095135 5.095135 0 0 1 6.368919 4.713c5.095135 84.744837 4.802165 169.45146-0.891648 254.11987l-11.718811-12.737838c-17.743808-12.317489-37.028895-15.323619-57.829785-9.043865l-114.767921-0.382135c-17.32346 0-25.819598 8.445187-25.475677 25.348298l0.636892 39.614676c0.140116 11.591433 9.731708 20.890054 21.526947 20.890055l124.448678-0.509514c17.998565 3.566595 34.990841 1.439376 50.951352-6.368919l9.043865 0.509514c11.374889 28.367165 6.751054 52.441679-13.884243 72.223542-3.719449 3.579333-5.515484 7.821033-4.458244 10.572405 1.273784 3.057081 4.369078 5.00597 9.298622 5.859406-389.268332-4.496457-684.365827-5.1843-885.279747-2.038054-62.670163 1.019027-72.733056-28.914892-72.987813-85.853029a21370.270967 21370.270967 0 0 1 0.636892-337.55271z" fill="#7A6D79" /><path d="M984.622147 856.74699c4.585622 23.182865 4.42003 46.365731-0.509514 69.548596-15.960511 7.808295-32.952787 9.935514-50.951352 6.368919 7.553538-29.551784 5.439057-57.867998-6.368919-84.96138 20.80089-6.279754 40.085976-3.273624 57.829785 9.043865z" fill="#FCD430" /><path d="M926.792362 847.703125c11.807976 27.093382 13.922457 55.409596 6.368919 84.96138l-124.448678 0.509514c-11.795238 0-21.38683-9.298622-21.526947-20.890055l-0.636892-39.614676c-0.343922-16.903111 8.152216-25.348298 25.475677-25.348298l114.767921 0.382135z" fill="#FCE783" /><path d="M984.622147 856.74699l11.718811 12.737838-3.18446 57.320272-9.043865-0.509514c4.929543-23.182865 5.095135-46.365731 0.509514-69.548596z" fill="#A69CA7" /><path d="M627.453167 467.733415a62.440882 62.440882 0 0 0-38.213515 1.019027l-111.456083-1.019027c25.093541-70.695001 120.37257-66.10938 149.669598 0z" fill="#685E67" /><path d="M627.453167 467.733415c32.952787 15.794919 35.958917 37.194487 9.043865 64.198704l-9.043865 0.509513-31.844596-1.019027c7.89746-22.253003 5.770241-43.143058-6.368919-62.670163 12.483081-4.330865 25.220919-4.674787 38.213515-1.019027z" fill="#FCD430" /><path d="M477.783569 467.733415l111.456083 1.019027c12.13916 19.527106 14.266379 40.41716 6.368919 62.670163l-117.060732-0.254757c-4.254438 0-8.215906-1.503065-11.081919-4.203486-24.0363-22.074673-20.597084-41.818322 10.317649-59.230947z" fill="#FDE265" /><path d="M627.453167 532.441632l9.043865-0.509513c-32.991001 59.358326-123.684408 79.356731-156.038517 9.680757a3.795876 3.795876 0 0 1 0.267495-3.821352 4.381816 4.381816 0 0 1 3.553856-1.910675l143.173301-3.439217z" fill="#685E67" /></svg>