<?xml version="1.0" standalone="no"?><!DOCTYPE svg PUBLIC "-//W3C//DTD SVG 1.1//EN" "http://www.w3.org/Graphics/SVG/1.1/DTD/svg11.dtd"><svg class="icon" width="200px" height="200.00px" viewBox="0 0 1024 1024" version="1.1" xmlns="http://www.w3.org/2000/svg"><path d="M799.521962 974.880603H210.446693a70.282921 70.282921 0 0 1-70.139925-70.139924V182.320905a68.781455 68.781455 0 0 1 2.573943-18.446586A70.35442 70.35442 0 0 0 91.187372 231.440302v722.13378a70.35442 70.35442 0 0 0 70.139924 70.139924h589.146767a70.35442 70.35442 0 0 0 67.565983-51.693338 68.924452 68.924452 0 0 1-18.518084 2.859935z" fill="#FCB670" /><path d="M745.183182 310.946516c-59.701159 0-108.248569-51.049853-108.248568-113.753945V0H254.489704a74.286831 74.286831 0 0 0-72.14188 75.859796v781.119955a74.215333 74.215333 0 0 0 72.14188 75.788298h606.163385a74.215333 74.215333 0 0 0 72.141879-75.788298V310.946516z" fill="#F9B04E" /><path d="M673.041303 197.192571a74.215333 74.215333 0 0 0 72.141879 75.788298h187.611786L673.041303 0z" fill="#EDA43A" /><path d="M636.934614 0h-8.579808l8.579808 9.008798V0z" fill="#D86100" opacity=".25" /><path d="M700.496686 310.946516h44.686496a107.676581 107.676581 0 0 1-95.235861-59.844156 77.575758 77.575758 0 0 1-21.449518-53.909789V0h-35.749197v197.192571c-0.500489 62.704092 48.046921 113.753945 107.74808 113.753945zM888.108472 856.979751a74.215333 74.215333 0 0 1-72.14188 75.788298h44.686497a74.215333 74.215333 0 0 0 72.141879-75.788298V310.946516h-44.686496z" fill="#D86100" opacity=".25" /><path d="M622.205944 675.159335H488.646944a145.14174 145.14174 0 0 1-128.697109-212.35023L405.780306 493.338919a90.731462 90.731462 0 0 0 82.866638 127.33864h133.559V573.417121L731.097999 646.059489l-108.892055 72.57087v-43.471024z m-120.403295-235.9447v43.685519L392.910595 410.400782l108.892054-72.57087v46.974445h131.986035a145.14174 145.14174 0 0 1 128.69711 211.992738l-45.758973-30.458315A90.731462 90.731462 0 0 0 670.324364 446.864963a89.444491 89.444491 0 0 0-36.321185-7.57883z" fill="#FF6845" /></svg>