<?xml version="1.0" standalone="no"?><!DOCTYPE svg PUBLIC "-//W3C//DTD SVG 1.1//EN" "http://www.w3.org/Graphics/SVG/1.1/DTD/svg11.dtd"><svg class="icon" width="200px" height="200.00px" viewBox="0 0 1024 1024" version="1.1" xmlns="http://www.w3.org/2000/svg"><path d="M540.6 863.4s-1.8 1.5-2.2 1.8c-2.1 1.7-4.2 3-6.3 4.1-0.7 0.4-1.4 0.7-2.1 1.1-2.3 1-4.6 1.8-6.9 2.4l-0.4 0.2-2.2 0.4-96.8 16.1c-2.2 0.4-4.4 0.5-6.5 0.5-10.6 0-20.6-4.1-28.1-11.6-9.1-9.1-13.2-22-11.1-34.7l16.4-98.7 0.2-0.6c0.6-2.3 1.3-4.6 2.3-6.8 0.4-0.9 0.8-1.6 1.2-2.3 1.1-2.1 2.4-4.2 4-6.1 0.4-0.5 0.8-0.9 1.1-1.3l1.8-2.1 189.5-189.5c0.1-10.2 4.1-20.2 11.6-27.7l52.3-52.3V169.2H379.8v125c0 13.6-6.9 26.2-18.3 33.5-6.4 4.1-13.8 6.3-21.4 6.3-5.8 0-11.4-1.2-16.7-3.7l-57.2-26.4-57.2 26.4c-5.3 2.4-10.9 3.7-16.7 3.7-7.6 0-15-2.2-21.4-6.3-11.5-7.4-18.3-19.9-18.3-33.5v-125h-17v727.5h522.9v-151L540.6 863.4z" fill="#E6EBEF" /><path d="M473.2 793.8l40.4 40.4 209-209-40.4-40.4-209 209z m418.1-417.7l-0.2-0.2-209 209 48.4 48.4 160.7-160.7c26.8-26.7 26.8-69.9 0.1-96.5z" fill="#9ADCCF" /><path d="M266.2 216.3L232.1 232V129.4h68.2V232z" fill="#FF7A51" /><path d="M425.3 146.5H664c9.4 0 17 7.6 17 17v200.4c0 9.4 7.6 17 17 17s17-7.6 17-17V163.5c0-28.2-22.9-51.1-51.1-51.1H425.3c-9.4 0-17 7.6-17 17s7.6 17.1 17 17.1zM95.7 783c9.4 0 17-7.6 17-17V163.5c0-9.4 7.6-17 17-17h45.5v147.8c0 5.8 3 11.2 7.9 14.4 4.9 3.1 11.1 3.6 16.3 1.1l66.7-30.8 66.7 30.8c2.3 1 4.7 1.6 7.1 1.6a17 17 0 0 0 9.2-2.7c4.9-3.1 7.9-8.5 7.9-14.4V89.6c0-9.4-7.6-17-17-17H192.3c-9.4 0-17 7.6-17 17v22.7h-45.5c-28.2 0-51.1 22.9-51.1 51.1v602.4c-0.1 9.6 7.6 17.2 17 17.2z m113.6-676.3H323v160.9l-49.7-22.9c-2.3-1-4.7-1.6-7.1-1.6s-4.9 0.5-7.1 1.6l-49.7 22.9V106.7zM698.1 728.7c-9.4 0-17 7.6-17 17v156.6c0 9.4-7.6 17-17 17H129.8c-9.4 0-17-7.6-17-17v-52.1c0-9.4-7.6-17-17-17s-17 7.6-17 17v52.1c0 28.2 22.9 51.1 51.1 51.1H664c28.2 0 51.1-22.9 51.1-51.1V745.7c0.1-9.4-7.6-17-17-17z" fill="#4F3D3B" /><path d="M578.8 265.8H431c-9.4 0-17 7.6-17 17s7.6 17 17 17h147.8c9.4 0 17-7.6 17-17s-7.6-17-17-17zM595.8 396.5c0-9.4-7.6-17-17-17H192.3c-9.4 0-17 7.6-17 17s7.6 17 17 17h386.5c9.4 0.1 17-7.6 17-17zM550.3 510.2c0-9.4-7.6-17-17-17h-341c-9.4 0-17 7.6-17 17s7.6 17 17 17h341c9.4 0 17-7.6 17-17zM192.3 606.8c-9.4 0-17 7.6-17 17s7.6 17 17 17h216c9.4 0 17-7.6 17-17s-7.6-17-17-17h-216zM931.5 480.5l-14.3-14.3c7.2-12.7 11.1-27 11.1-42 0-22.8-8.9-44.2-25-60.3-16.1-16.1-37.5-25-60.3-25s-44.2 8.9-60.3 25L622.1 524.7c-6.7 6.7-6.7 17.5 0 24.1l76.4 76.4-184.9 184.9-56.3-56.3 145.4-145.4c6.7-6.7 6.7-17.5 0-24.1-6.7-6.7-17.4-6.7-24.1 0L421.2 741.8c-0.2 0.2-0.3 0.4-0.5 0.6-0.3 0.3-0.5 0.6-0.8 0.9-0.7 0.8-1.3 1.7-1.7 2.7-0.2 0.3-0.3 0.6-0.5 0.9-0.6 1.3-1 2.6-1.2 4 0 0.1-0.1 0.1-0.1 0.2l-16.1 96.4c-0.9 5.4 0.9 11 4.8 14.9 3.2 3.2 7.6 5 12.1 5 0.9 0 1.9-0.1 2.8-0.2l96.4-16.1c0.1 0 0.1 0 0.2-0.1 1.4-0.2 2.7-0.7 4-1.2 0.3-0.1 0.6-0.3 0.9-0.5 0.9-0.5 1.8-1.1 2.7-1.7 0.3-0.3 0.6-0.5 0.9-0.8 0.2-0.2 0.4-0.3 0.6-0.5l197.7-197.7c2.3 1.1 4.8 1.7 7.3 1.7 4.4 0 8.7-1.7 12.1-5l152.7-152.7 12.1 12.1c1.1 1.1 1.3 2.4 1.3 3.3 0 0.9-0.3 2.1-1.5 3.2l-119 106.2c-7.9 7-12.5 17.1-12.8 27.7-0.3 10.5 3.8 20.9 11.3 28.3 3.3 3.3 7.7 5 12.1 5 4.4 0 8.7-1.7 12.1-5 6.7-6.7 6.7-17.5 0-24.1-1.1-1.1-1.3-2.4-1.3-3.3 0-0.9 0.3-2.1 1.5-3.2L930 536.5c7.9-7 12.5-17.1 12.8-27.7 0.3-10.5-3.8-20.8-11.3-28.3z m-493.6 349l6.7-40.2 16.8 16.8 16.8 16.8-40.3 6.6z m441.4-369L730.6 609.1l-72.3-72.3L807 388.1c9.7-9.7 22.5-15 36.2-15 13.7 0 26.5 5.3 36.2 15s15 22.5 15 36.2c-0.1 13.6-5.4 26.5-15.1 36.2z" fill="#4F3D3B" /></svg>