<?xml version="1.0" standalone="no"?><!DOCTYPE svg PUBLIC "-//W3C//DTD SVG 1.1//EN" "http://www.w3.org/Graphics/SVG/1.1/DTD/svg11.dtd"><svg class="icon" width="200px" height="191.76px" viewBox="0 0 1068 1024" version="1.1" xmlns="http://www.w3.org/2000/svg"><path d="M0.62344 217.658447v708.227702c0 53.927549 38.964992 98.113851 85.722983 98.113851h896.194825c47.225571 0 85.722983-44.186301 85.722983-98.113851V214.151598c-7.169559 2.18204-1067.640791 3.506849-1067.640791 3.506849z" fill="#BDEBFF" /><path d="M981.917808 0H85.722983C38.964992 0 0 44.186301 0 98.113851v122.817656h1067.640791V98.113851C1067.640791 44.186301 1028.675799 0 981.917808 0z" fill="#005691" /><path d="M61.486758 112.608828a20.807306 20.028006 0 1 0 41.614612 0 20.807306 20.028006 0 1 0-41.614612 0Z" fill="#FF441F" /><path d="M158.977169 112.608828a20.807306 20.028006 0 1 0 41.614612 0 20.807306 20.028006 0 1 0-41.614612 0Z" fill="#6FE513" /><path d="M256.46758 112.608828a20.807306 20.028006 0 1 0 41.614612 0 20.807306 20.028006 0 1 0-41.614612 0Z" fill="#FFF41F" /><path d="M0 220.931507h1067.640791v43.640791H0z" fill="#9FE6FF" /><path d="M271.741857 473.658447H126.324505V311.719939h145.417352z m-122.038356-23.378995h98.65936V335.098935H149.703501zM335.098935 377.103196h595.774733v31.171994H335.098935zM271.741857 711.344901H126.324505V549.328463h145.417352z m-122.038356-23.378995h98.65936V572.707458H149.703501zM335.098935 614.71172h595.774733v31.171994H335.098935zM271.741857 949.031355H126.324505V787.092846h145.417352z m-122.038356-23.378996h98.65936V810.471842H149.703501zM335.098935 852.398174h595.774733v31.171993H335.098935z" fill="#0D455E" /><path d="M181.888584 493.608524l-69.903196-113.621918 33.198174-20.417656 43.562861 70.838356L321.071537 293.016743l28.054795 27.041704-167.237748 173.550077zM181.888584 712.981431l-69.903196-113.621918 33.198174-20.417656 43.562861 70.838356L321.071537 512.38965l28.054795 27.041705-167.237748 173.550076z" fill="#FF441F" /></svg>