<?xml version="1.0" standalone="no"?><!DOCTYPE svg PUBLIC "-//W3C//DTD SVG 1.1//EN" "http://www.w3.org/Graphics/SVG/1.1/DTD/svg11.dtd"><svg class="icon" width="200px" height="200.00px" viewBox="0 0 1024 1024" version="1.1" xmlns="http://www.w3.org/2000/svg"><path d="M278.521074 32.22621h31.878195V485.133225h-31.878195z" fill="#C99071" /><path d="M310.329666 0h31.878195v485.133225h-31.878195z" fill="#F9CAA7" /><path d="M278.521074 32.22621L251.863108 0h113.870582l-23.525829 32.22621h-63.686787z" fill="#F9CAA7" /><path d="M134.860389 71.969549h31.878195v452.907014h-31.878195z" fill="#C99071" /><path d="M166.738584 39.812942h31.878195v485.133224h-31.878195z" fill="#F9CAA7" /><path d="M134.860389 72.039152l-26.657966-32.22621h113.940185l-23.525829 32.22621h-63.75639z" fill="#F9CAA7" /><path d="M521.85332 323.306145L150.312265 544.365416v479.634584h375.508429V325.95106l-3.967374-2.644915z" fill="#FF7352" /><path d="M873.766316 554.249048l-347.945622-228.297988v698.04894h347.945622V554.249048z" fill="#FF5736" /><path d="M734.281814 749.48559H317.289971l-34.801523-53.803154h486.594889l-34.801523 53.803154z" fill="#FFFFFF" opacity=".53" /><path d="M572.315528 546.244698H479.32586V456.665579h92.989668z m-86.029364-6.960304h79.069059V463.625884H486.286164z" fill="#FCFCFC" /><path d="M522.340542 460.145731h6.960304v82.688418h-6.960304z" fill="#FCFCFC" /><path d="M482.806012 497.940185h86.029364v6.960304H482.806012z" fill="#FCFCFC" /><path d="M317.289971 746.840674h86.516585v277.159326H317.289971z" fill="#52C1FF" /><path d="M403.806556 746.840674h330.475258v277.159326H403.806556z" fill="#45ABFF" /><path d="M29.898997 639.512779a27.841218 27.841218 0 0 1-14.964654-51.367048l492.232735-314.118542a27.841218 27.841218 0 0 1 30.41653 0.348015l472.047853 314.04894a27.841218 27.841218 0 0 1-30.834149 46.355628L521.85332 330.75367 44.863652 635.127787a27.841218 27.841218 0 0 1-14.964655 4.384992z" fill="#823500" /><path d="M317.289971 799.042958h86.516585v47.051659H317.289971z" fill="#A2DCFC" /><path d="M403.806556 799.042958h330.475258v47.051659H403.806556zM403.806556 895.234367h330.475258v47.051658H403.806556z" fill="#C2E6FF" /><path d="M317.289971 895.234367h86.516585v47.051658H317.289971zM317.289971 976.739532h86.516585v47.051659H317.289971z" fill="#A2DCFC" /><path d="M403.806556 976.739532h330.475258v47.051659H403.806556z" fill="#C2E6FF" /></svg>