<?xml version="1.0" standalone="no"?><!DOCTYPE svg PUBLIC "-//W3C//DTD SVG 1.1//EN" "http://www.w3.org/Graphics/SVG/1.1/DTD/svg11.dtd"><svg class="icon" width="200px" height="164.37px" viewBox="0 0 1246 1024" version="1.1" xmlns="http://www.w3.org/2000/svg"><path d="M1109.852257 776.607396c61.855396 0 112.002415 49.953811 112.002415 111.577359 0 61.613887-50.147019 111.567698-112.002415 111.567698H131.478219c-61.865057 0-112.002415-49.953811-112.002415-111.577359 0-61.613887 50.137358-111.567698 112.002415-111.558037h978.364377z" fill="#FDBA55" /><path d="M1109.852257 776.607396H131.49754a111.992755 111.992755 0 0 0-104.419019 71.196981h1187.183094a112.012075 112.012075 0 0 0-104.409358-71.196981z" fill="#FFD553" /><path d="M1198.350974 644.34717c0-17.765434-14.606491-32.304302-32.439548-32.304302H75.44803c-17.842717 0-32.439547 14.538868-32.439547 32.313962v99.946264c0 17.775094 14.59683 32.304302 32.439547 32.304302h1090.463396c17.842717 0 32.439547-14.538868 32.439548-32.304302V644.34717z" fill="#866539" /><path d="M273.717615 612.033208l110.978415 110.553358a27.667321 27.667321 0 0 0 38.892679 0l110.978416-110.553358H273.717615zM967.641842 612.033208L856.663426 722.586566a27.667321 27.667321 0 0 1-38.892679 0L706.782672 612.033208h260.85917z" fill="#FFD553" /><path d="M1136.505238 536.972075a27.532075 27.532075 0 0 0-27.493434-27.39683H641.159728a27.532075 27.532075 0 0 0-27.493434 27.39683v47.664302a27.532075 27.532075 0 0 0 27.503095 27.396831h467.832754a27.532075 27.532075 0 0 0 27.503095-27.396831v-47.664302z" fill="#46C79C" /><path d="M684.592785 536.972075a27.532075 27.532075 0 0 0-27.493434-27.39683H132.347653a27.532075 27.532075 0 0 0-27.503095 27.39683v47.664302a27.532075 27.532075 0 0 0 27.503095 27.396831h524.751698a27.532075 27.532075 0 0 0 27.503094-27.396831v-47.664302z" fill="#6CF5C5" /><path d="M104.844558 434.514113a27.532075 27.532075 0 0 1 27.503095-27.39683h542.159698a27.532075 27.532075 0 0 1 27.503094 27.39683v47.664302a27.532075 27.532075 0 0 1-27.503094 27.39683H132.347653a27.532075 27.532075 0 0 1-27.503095-27.39683V434.523774z" fill="#E2411C" /><path d="M537.0112 434.514113a27.532075 27.532075 0 0 1 27.503094-27.39683H1109.011804a27.532075 27.532075 0 0 1 27.493434 27.39683v47.664302a27.532075 27.532075 0 0 1-27.493434 27.39683H564.514294a27.532075 27.532075 0 0 1-27.503094-27.39683V434.523774z" fill="#FF6376" /><path d="M1176.991879 146.528604h-0.00966v-0.019321C1103.920785 73.71834 885.586596 19.407698 620.679728 19.407698S137.448332 73.71834 64.377238 146.509283A151.880453 151.880453 0 0 0 19.475804 254.45434c0 84.315774 68.608 152.662943 153.252226 152.662943h895.864755c84.634566 0 153.252226-68.34717 153.252226-152.662943 0-42.138566-17.14717-80.297057-44.862792-107.925736z" fill="#FDBA55" /><path d="M483.173917 159.367245c-10.752 0-19.475321-8.69434-19.475321-19.407698v-32.874264c0-10.723019 8.723321-19.407698 19.475321-19.407698 10.76166 0 19.484981 8.69434 19.484981 19.417358v32.864604c0 10.723019-8.723321 19.407698-19.484981 19.407698zM172.737691 203.708377c-10.76166 0-19.484981-8.69434-19.484982-19.407698v-32.864604c0-10.723019 8.723321-19.417358 19.484982-19.417358 10.76166 0 19.484981 8.69434 19.484981 19.417358v32.864604c0 10.723019-8.723321 19.417358-19.484981 19.417359zM620.679728 126.492981c-10.76166 0-19.484981-8.69434-19.484981-19.407698V74.211019c0-10.723019 8.723321-19.407698 19.484981-19.407698 10.76166 0 19.484981 8.69434 19.484981 19.417358v32.864604c0 10.723019-8.723321 19.417358-19.484981 19.417359zM755.432332 159.367245c-10.76166 0-19.484981-8.69434-19.484981-19.407698v-32.874264c0-10.723019 8.723321-19.407698 19.484981-19.407698 10.752 0 19.475321 8.69434 19.475321 19.417358v32.864604c0 10.723019-8.723321 19.407698-19.475321 19.407698zM1068.602445 220.15034c-10.76166 0-19.484981-8.69434-19.484981-19.417359v-32.864604c0-10.723019 8.723321-19.407698 19.484981-19.407698 10.76166 0 19.484981 8.69434 19.484981 19.407698v32.874265c0 10.723019-8.723321 19.407698-19.484981 19.407698z" fill="#FBD151" /><path d="M313.160936 208.654491a35.279698 35.144453 0 1 0 70.559396 0 35.279698 35.144453 0 1 0-70.559396 0Z" fill="#3F4963" /><path d="M857.619804 208.654491a35.279698 35.144453 0 1 0 70.559396 0 35.279698 35.144453 0 1 0-70.559396 0Z" fill="#3F4963" /><path d="M386.164408 331.466868h-75.476529c-10.752 0-19.475321-8.69434-19.475321-19.417359 0-10.713358 8.723321-19.398038 19.475321-19.398037h75.476529c10.76166 0 19.484981 8.69434 19.484981 19.407698 0 10.723019-8.723321 19.407698-19.484981 19.407698zM930.652257 331.466868h-75.476529c-10.76166 0-19.484981-8.69434-19.484981-19.417359 0-10.713358 8.723321-19.398038 19.484981-19.398037h75.476529c10.752 0 19.475321 8.69434 19.47532 19.407698 0 10.723019-8.723321 19.407698-19.47532 19.407698z" fill="#FF6376" /><path d="M576.502823 307.180679c-35.105811 0-63.661887-28.440151-63.661887-63.401056 0-10.723019 8.732981-19.407698 19.484981-19.407698 10.76166 0 19.484981 8.69434 19.484981 19.407698a24.662943 24.662943 0 0 0 24.691925 24.58566 24.662943 24.662943 0 0 0 24.682264-24.58566c0-10.723019 8.723321-19.407698 19.484981-19.407698 10.76166 0 19.484981 8.69434 19.484981 19.407698 0 34.960906-28.556075 63.401057-63.661887 63.401056z" fill="#3F4963" /><path d="M664.846974 307.180679c-35.105811 0-63.661887-28.440151-63.661887-63.401056 0-10.723019 8.723321-19.407698 19.484981-19.407698 10.76166 0 19.484981 8.69434 19.484981 19.407698a24.662943 24.662943 0 0 0 24.682264 24.58566 24.662943 24.662943 0 0 0 24.691925-24.58566c0-10.723019 8.723321-19.407698 19.484981-19.407698 10.76166 0 19.484981 8.69434 19.484981 19.407698 0 34.960906-28.556075 63.401057-63.661887 63.401056z" fill="#3F4963" /><path d="M892.909162 243.789283a35.212075 35.212075 0 0 0 35.279698-35.144453 35.212075 35.212075 0 0 0-35.279698-35.134792 35.212075 35.212075 0 0 0-35.270037 35.134792 35.202415 35.202415 0 0 0 35.270037 35.144453z m-316.406339 63.391396a63.545962 63.545962 0 0 0 44.167245-17.813736 63.565283 63.565283 0 0 0 44.167245 17.813736c35.105811 0 63.661887-28.440151 63.661887-63.401056 0-10.723019-8.732981-19.407698-19.494642-19.407698-10.752 0-19.475321 8.69434-19.47532 19.407698a24.662943 24.662943 0 0 1-24.691925 24.58566 24.672604 24.672604 0 0 1-24.682264-24.58566c0-10.723019-8.723321-19.407698-19.484981-19.407698-10.76166 0-19.484981 8.69434-19.484981 19.407698a24.662943 24.662943 0 0 1-24.682264 24.58566 24.672604 24.672604 0 0 1-24.691925-24.58566c0-10.723019-8.723321-19.407698-19.484981-19.407698-10.76166 0-19.475321 8.69434-19.475321 19.407698 0 34.960906 28.546415 63.401057 63.652227 63.401056z m-228.08151-63.391396a35.212075 35.212075 0 0 0 35.289359-35.144453 35.212075 35.212075 0 0 0-35.279698-35.134792 35.212075 35.212075 0 0 0-35.279699 35.134792 35.212075 35.212075 0 0 0 35.279699 35.144453z m845.650113 543.898566a51.644377 51.644377 0 0 0 23.764529-43.384755V644.35683c0-28.517434-23.29117-51.72166-51.914868-51.72166h-10.665057c0.454038-2.608302 0.734189-5.264906 0.734189-7.998793v-47.664302c0-10.24-3.352151-19.678189-8.96483-27.39683a46.398792 46.398792 0 0 0 8.96483-27.39683V434.523774c0-10.046792-3.226566-19.340075-8.655698-26.971774 55.750038-28.575396 94.005132-86.441057 94.005132-153.07834a170.602264 170.602264 0 0 0-50.572076-121.672452C1111.040483 53.373585 881.934974 0 620.679728 0 359.424483 0 130.328634 53.373585 50.591879 132.791547A170.602264 170.602264 0 0 0 0.000483 254.464c0 66.637283 38.255094 124.512604 94.014792 153.07834a46.379472 46.379472 0 0 0-8.655698 26.981434v47.664301a46.369811 46.369811 0 0 0 8.974491 27.38717 46.369811 46.369811 0 0 0-8.974491 27.39683v47.673963c0 2.724226 0.289811 5.390491 0.743849 7.989132H75.43837c-28.623698 0-51.914868 23.204226-51.914868 51.72166v99.946264c0 18.18083 9.47683 34.159094 23.745207 43.384755C18.403502 811.732528 0.000483 847.852679 0.000483 888.184755c0 72.220981 58.986264 130.975396 131.487396 130.975396h978.364378c72.491472 0 131.477736-58.754415 131.477735-130.975396 0.00966-40.332075-18.393358-76.452226-47.258566-100.496906zM38.970445 254.464c0-35.598491 13.910943-69.062038 39.182491-94.227321 71.757283-71.486792 294.863698-121.411623 542.526792-121.411622 247.006189 0 469.571623 49.65434 541.95683 120.84166l0.869434 0.888755a132.144302 132.144302 0 0 1 38.863699 93.898868c0 73.47683-60.010264 133.255245-133.767246 133.264905H172.737691c-73.756981 0-133.767245-59.788075-133.767246-133.255245z m664.373132 338.17117c0.454038-2.608302 0.734189-5.264906 0.734189-7.998793v-47.664302c0-2.724226-0.289811-5.390491-0.734189-7.989132H1109.011804c4.34717 0 8.018113 3.651623 8.018113 7.989132v47.664302a8.114717 8.114717 0 0 1-8.018113 7.989132H703.343577v0.009661z m217.261887 38.815396l-77.717736 77.408604a8.153358 8.153358 0 0 1-11.341283 0l-77.717736-77.408604h166.767095z m188.396679-141.283019H564.514294a8.114717 8.114717 0 0 1-8.018113-7.989132V434.523774a8.114717 8.114717 0 0 1 8.018113-7.989132H1109.011804c4.34717 0 8.018113 3.661283 8.018113 7.989132v47.664301a8.114717 8.114717 0 0 1-8.018113 7.989133zM132.347653 592.625509a8.114717 8.114717 0 0 1-8.018113-7.979471v-47.673963a8.114717 8.114717 0 0 1 8.018113-7.989132h524.751698c4.34717 0 8.018113 3.661283 8.018113 7.989132v47.664302a8.114717 8.114717 0 0 1-8.018113 7.989132H132.347653z m355.183094 38.825057l-77.708075 77.408604a8.153358 8.153358 0 0 1-11.341283 0l-77.708076-77.408604h166.757434z m30.739321-141.283019H132.347653a8.114717 8.114717 0 0 1-8.018113-7.989132V434.523774a8.114717 8.114717 0 0 1 8.018113-7.989132h385.912755c-0.444377 2.608302-0.734189 5.255245-0.734189 7.989132v47.664301c0 2.733887 0.289811 5.390491 0.734189 7.989133zM62.483804 644.34717c0-6.994113 5.941132-12.896604 12.964226-12.896604H265.66086L370.920332 736.313962a46.939774 46.939774 0 0 0 33.231698 13.679095 46.939774 46.939774 0 0 0 33.212378-13.679095l105.269132-104.863396h156.092377L803.995049 736.313962a46.920453 46.920453 0 0 0 33.222038 13.679095 46.949434 46.949434 0 0 0 33.222038-13.679095L975.698596 631.450566h190.21283c7.023094 0 12.954566 5.912151 12.954566 12.906264v99.946264c0 6.994113-5.931472 12.896604-12.944905 12.896604H75.44803c-7.023094 0-12.954566-5.902491-12.954566-12.896604V644.35683z m1047.368453 335.987924l-978.354717 0.009661c-51.016453 0-92.527094-41.346415-92.527095-92.16 0-50.813585 41.500981-92.16 92.527095-92.16h978.557585c50.919849 0.106264 92.314566 41.404377 92.314566 92.16 0 50.813585-41.500981 92.16-92.517434 92.16z" fill="#000000" /></svg>