<?xml version="1.0" standalone="no"?><!DOCTYPE svg PUBLIC "-//W3C//DTD SVG 1.1//EN" "http://www.w3.org/Graphics/SVG/1.1/DTD/svg11.dtd"><svg class="icon" width="200px" height="197.68px" viewBox="0 0 1036 1024" version="1.1" xmlns="http://www.w3.org/2000/svg"><path d="M1005.500459 5.955063l-41.566339 1.191012a5.955063 5.955063 0 0 0-5.835962 5.716861l-2.024721 79.202336c-0.154832 3.477757 2.262924 6.431468 5.478658 6.669671l8.217987 0.476405H61.622991a97.865504 97.865504 0 0 1-41.804542-4.525848 9.647202 9.647202 0 0 1-6.550569-7.741582C8.742032 61.456249 9.099336 37.83847 14.339791 16.07867a12.386531 12.386531 0 0 1 12.029227-9.647202L1005.500459 5.955063z" fill="#FCB982" /><path d="M1005.500459 5.955063l10.600012 0.833709c3.311015 0.202472 6.419558 2.977531 7.860683 7.026974 6.312367 18.341594 16.435974 89.206842-21.438226 85.395602h-32.752846l-8.217987-0.476405c-3.215734-0.238203-5.633489-3.191914-5.478658-6.669671l2.024721-79.202336a5.955063 5.955063 0 0 1 5.835962-5.716861l41.566339-1.191012z" fill="#FC9743" /><path d="M61.622991 99.211348h940.899937c-3.013262 6.66967-6.312367 9.373269-9.885405 8.098885a10.43327 10.43327 0 0 0-9.45664 1.262474 10.171247 10.171247 0 0 0-4.359106 8.384728l-0.119101 594.67258-20.84272 0.952811-44.662972-0.952811a236.832851 236.832851 0 0 1-0.95281-77.058513c0.678877-4.299555-0.95281-8.170346-3.81124-9.051696a10.754844 10.754844 0 0 0-6.669671 0.238203l-1.90562-21.080923c10.564282-15.721366 15.006758-33.348352 13.339341-52.880959-11.076417-128.152953-3.096633-264.047489-2.977531-389.580214 0-6.491019-5.240455-11.791025-11.791025-11.910126a21284.22848 21284.22848 0 0 0-833.708805 0.833709c-4.609219-13.732375-5.633489-31.049698-3.096632-51.928148z" fill="#E1DDE1" /><path d="M899.857643 604.677086l-255.472198-1.667418a15.602265 15.602265 0 0 0-10.719113 3.930342c-20.366315 18.103391 4.049443 25.130365 18.222493 25.011264 26.797783-0.119101 245.824996 3.573038 249.874438-6.193265a10.754844 10.754844 0 0 1 6.669671-0.238203c2.85843 0.881349 4.490117 4.75214 3.81124 9.051696-3.894611 25.642501-3.573038 51.332642 0.95281 77.058513-163.883331 5.478658-333.245319 0.833709-491.292688 2.977532-118.946426 1.584047-238.440718 0.559776-358.494786-3.096633l1.310113-560.371418a21284.22848 21284.22848 0 0 1 833.708805-0.833709c6.550569 0.119101 11.791025 5.419107 11.791025 11.910126-0.119101 125.532726-8.098886 261.427261 2.977531 389.580214 1.667418 19.532606-2.775059 37.159592-13.339341 52.880959zM166.074794 494.27022c35.96858 21.319125 42.042744-5.240455 59.193325-27.393289 2.251014-2.929891 5.812141-4.644949 9.647202-4.644949h123.984409c3.537307-0.01191 6.907873 2.024721 8.813493 5.359556l12.624734 22.033733c2.000901 3.370566 5.085624 5.883602 8.694392 7.026974 50.498933 16.674176 58.121414-24.65396 41.804541-60.384338a28695.49481 28695.49481 0 0 0-98.258538-212.714846c-21.319125-45.49668-54.071971-39.898921-74.319185 2.739329a9107.577904 9107.577904 0 0 0-104.809106 228.674415c-7.467649 16.829008-3.251464 29.930146 12.624733 39.303415z m551.915229-67.887717c49.629494-54.703208 99.652022-109.334955 150.067584-163.883331 39.065213-42.280947 16.316872-71.698957-35.730377-71.579856-67.089739 0.154832-134.262848 0.202472-201.519328 0.119102-3.954162 0-7.741582 1.119552-10.838215 3.215733-28.024526 19.377775-29.060707 39.934652-3.096632 61.694452 2.84652 2.382025 6.59821 3.692139 10.600012 3.692139l136.490041-0.119101c8.49192 0 9.849674 3.132363 4.049443 9.408999l-152.687813 166.503559c-41.447238 45.139377-2.262924 65.862996 41.804542 65.505691 68.042549-0.476405 136.454311-0.440675 205.211467 0.119102 3.930342 0.071461 7.59866-1.500676 10.004506-4.287646 76.820311-86.348412-126.009131-64.43378-151.973205-64.910185-4.76405-0.083371-5.562029-1.90562-2.382025-5.478658z m-211.762037-130.296776c-9.885404-1.071911-100.40236-3.81124-45.020275 29.418011a11.040687 11.040687 0 0 1 5.121354 9.051695l0.714607 34.301162c0.154832 4.216185 1.548316 7.979784 3.930342 10.600012 6.5863 7.062705 14.089679 7.146075 22.510138 0.238203 2.560677-2.131913 3.668319-5.895512 2.85843-9.766303-4.76405-20.87845 0.833709-37.790829 16.793277-50.737136 6.276636-5.002253 7.181806-10.957316 2.739329-17.865189-1.953261-2.929891-5.502478-4.859331-9.647202-5.240455z m59.038494 89.087741c9.825854 0.03573 19.258673-4.7045 26.238007-13.160689 6.979334-8.456189 10.921585-19.961371 10.957316-31.966778 0.047641-12.005407-3.81124-23.534409-10.731024-32.038238-6.919783-8.51574-16.316872-13.315521-26.154636-13.351251-9.813944-0.03573-19.258673 4.7045-26.238007 13.160689-6.967424 8.456189-10.909675 19.961371-10.957316 31.966777-0.03573 12.005407 3.81124 23.534409 10.742934 32.038239 6.907873 8.51574 16.316872 13.315521 26.142726 13.351251zM901.751353 564.420861a13.22024 13.22024 0 0 0-13.220239-13.22024h-86.467514a13.22024 13.22024 0 0 0-13.220239 13.22024v3.096632c0 7.300907 5.919333 13.22024 13.220239 13.22024h86.467514a13.22024 13.22024 0 0 0 13.220239-13.22024v-3.096632z" fill="#F1EFF2" /><path d="M899.857643 604.677086l1.90562 21.080923c-4.049443 9.766303-223.076656 6.074164-249.874438 6.193265-14.17305 0.119101-38.588808-6.907873-18.222493-25.011264a15.602265 15.602265 0 0 1 10.719113-3.930342l255.472198 1.667418z" fill="#CBC5CB" /><path d="M63.40951 711.510914c120.054068 3.656409 239.54836 4.680679 358.494786 3.096633 158.047369-2.143823 327.409358 2.501126 491.292688-2.977532l44.662972 0.952811-5.955063 94.328196-416.854402 3.930341c-10.087877-4.132814-20.009011-4.132814-29.775315 0l-476.405031-2.620227a9.718663 9.718663 0 0 1-8.694392-5.121355c-28.667673-55.584557-14.256421-86.110209 43.233757-91.588867z" fill="#FCB982" /><path d="M957.859956 712.582826l20.84272-0.952811c14.375522-1.822249 27.869694 0 40.494428 5.478658 3.334835 1.429215 5.764501 4.609219 6.431468 8.45619 4.204274 24.451488 4.085173 48.474212-0.357304 72.056261a11.612373 11.612373 0 0 1-11.31462 9.647201l-62.051755-0.357303 5.955063-94.328196z" fill="#FC9743" /><path d="M535.050491 810.841363l-0.476405 65.029287h-31.800036l2.501126-65.029287c9.766303-4.132814 19.687438-4.132814 29.775315 0z" fill="#7A6D79" /><path d="M502.77405 875.87065h31.800036c102.30798 37.516896 48.831516 171.744014-43.233757 136.37094-66.696704-25.725872-50.022528-112.66979 11.433721-136.37094z m56.930401 71.222552a39.660719 39.660719 0 1 0-79.321438 0 39.660719 39.660719 0 0 0 79.321438 0z" fill="#FC9743" /><path d="M166.074794 494.27022c-15.876198-9.373269-20.092382-22.474407-12.624733-39.303415a9107.577904 9107.577904 0 0 1 104.809106-228.674415c20.247214-42.63825 53.00006-48.236009 74.319185-2.739329 33.026779 70.746147 65.779625 141.647126 98.258538 212.714846 16.316872 35.730377 8.694392 77.058514-41.804541 60.384338a15.685636 15.685636 0 0 1-8.694392-7.026974l-12.624734-22.033733a10.278439 10.278439 0 0 0-8.813493-5.359556h-123.984409c-3.835061 0-7.396188 1.715058-9.647202 4.644949-17.150581 22.152834-23.224745 48.712414-59.193325 27.393289z m95.400107-109.334955a4.049443 4.049443 0 0 0 3.573038 5.835962l62.647262-0.357304a4.049443 4.049443 0 0 0 3.573037-5.835962l-31.561833-62.885464a4.049443 4.049443 0 0 0-7.265177 0l-30.966327 63.242768z" fill="#FB8628" /><path d="M717.990023 426.382503c-3.180004 3.573038-2.382025 5.395287 2.382025 5.478658 25.964074 0.476405 228.793516-21.438226 151.973205 64.910185a12.862936 12.862936 0 0 1-10.004506 4.287646c-68.757156-0.559776-137.168919-0.595506-205.211467-0.119102-44.067465 0.357304-83.251779-20.366315-41.804542-65.505691l152.687813-166.503559c5.800231-6.276636 4.442477-9.408999-4.049443-9.408999l-136.490041 0.119101a16.435974 16.435974 0 0 1-10.600012-3.692139c-25.964074-21.7598-24.927893-42.316677 3.096632-61.694452 3.096633-2.096182 6.884053-3.215734 10.838215-3.215733 67.25648 0.083371 134.42959 0.03573 201.519328-0.119102 52.04725-0.119101 74.79559 29.298909 35.730377 71.579856-50.415562 54.548376-100.438091 109.180123-150.067584 163.883331z" fill="#FCD430" /><path d="M461.207711 325.503738c-55.382085-33.229251 35.134871-30.489922 45.020275-29.418011 4.144724 0.381124 7.693941 2.310564 9.647202 5.240455 4.442477 6.907873 3.537307 12.862936-2.739329 17.865189-15.959569 12.946307-21.557328 29.858685-16.793277 50.737136 0.809889 3.870791-0.297753 7.634391-2.85843 9.766303-8.420459 6.907873-15.923838 6.824502-22.510138-0.238203-2.382025-2.620228-3.77551-6.383827-3.930342-10.600012l-0.714607-34.301162a11.040687 11.040687 0 0 0-5.121354-9.051695zM565.26648 385.173468c-9.825854-0.03573-19.234853-4.835511-26.142726-13.339341-6.919783-8.51574-10.778664-20.044742-10.742934-32.038238 0.047641-12.017317 3.989892-23.510588 10.957316-31.978688 6.979334-8.456189 16.424063-13.196419 26.238007-13.160689 9.825854 0.03573 19.234853 4.835511 26.154636 13.339341 6.907873 8.51574 10.778664 20.044742 10.731024 32.038238-0.03573 12.017317-3.977982 23.510588-10.957316 31.978688-6.979334 8.456189-16.412153 13.196419-26.238007 13.160689z m1.429215-32.907678a9.46855 9.46855 0 0 0 6.955513-4.120903c1.738878-2.441576 2.584497-5.633489 2.346295-8.884954-0.512135-6.753041-5.490568-11.886306-11.135968-11.457541a9.46855 9.46855 0 0 0-6.955513 4.120903 13.601364 13.601364 0 0 0-2.334385 8.873044c0.500225 6.764951 5.478658 11.898216 11.124058 11.469451z" fill="#30A7FB" /><path d="M788.855271 551.200621m13.22024 0l86.467513 0q13.22024 0 13.220239 13.22024l0 3.096632q0 13.22024-13.220239 13.22024l-86.467513 0q-13.22024 0-13.22024-13.22024l0-3.096632q0-13.22024 13.22024-13.22024Z" fill="#CBC5CB" /><path d="M520.043732 947.093202m-39.660719 0a39.660719 39.660719 0 1 0 79.321438 0 39.660719 39.660719 0 1 0-79.321438 0Z" fill="#FFFFFF" /><path d="M261.474901 384.935265l30.966327-63.242768a4.049443 4.049443 0 0 1 7.265177 0l31.561833 62.885464a4.049443 4.049443 0 0 1-3.573037 5.835962l-62.647262 0.357304a4.049443 4.049443 0 0 1-3.573038-5.835962z" fill="#F1EFF2" /><path d="M564.858819 327.801193a12.26743 11.910126 85.7 1 0 1.839592 24.465796 12.26743 11.910126 85.7 1 0-1.839592-24.465796Z" fill="#C5E0FF" /></svg>