<?xml version="1.0" standalone="no"?><!DOCTYPE svg PUBLIC "-//W3C//DTD SVG 1.1//EN" "http://www.w3.org/Graphics/SVG/1.1/DTD/svg11.dtd"><svg class="icon" width="200px" height="180.12px" viewBox="0 0 1137 1024" version="1.1" xmlns="http://www.w3.org/2000/svg"><path d="M1120.237833 68.659474h0.900183a16.366978 16.366978 0 0 0 16.366979-16.366978V17.512667a16.366978 16.366978 0 0 0-16.366979-16.366979H17.594502a16.366978 16.366978 0 0 0-16.366979 16.366979v34.452489a16.366978 16.366978 0 0 0 16.366979 16.366979h2.045872a16.366978 16.366978 0 0 1 16.366978 16.366978v628.819308a16.366978 16.366978 0 0 1-16.366978 16.366978H16.366978a16.366978 16.366978 0 0 0-16.366978 16.366979v34.534324a16.366978 16.366978 0 0 0 16.366978 16.366978h501.647887a18.249181 18.249181 0 0 1 2.209542 0h96.647007a18.249181 18.249181 0 0 1 2.209542 0h501.156877a16.366978 16.366978 0 0 0 16.366978-16.366978v-34.043315a16.366978 16.366978 0 0 0-16.366978-16.366978 16.366978 16.366978 0 0 1-16.366979-16.366979V85.271957a16.366978 16.366978 0 0 1 16.366979-16.612483z" fill="#2CDB8F" /><path d="M534.709182 814.502677v115.223528a16.366978 16.366978 0 0 1-16.366978 16.366978h-46.482218a16.366978 16.366978 0 0 0-16.366979 16.366978v44.436347a16.366978 16.366978 0 0 0 16.366979 16.366978h193.375849a16.366978 16.366978 0 0 0 16.366978-16.366978v-44.436347a16.366978 16.366978 0 0 0-16.366978-16.366978h-46.154879a16.366978 16.366978 0 0 1-16.366979-16.366978V814.502677a16.366978 16.366978 0 0 1 14.402941-16.366978H520.224407a16.366978 16.366978 0 0 1 14.484775 16.366978z" fill="#1CD384" /><path d="M665.31767 945.438504h-46.236714a16.366978 16.366978 0 0 1-16.366979-16.366978v-115.387198a16.366978 16.366978 0 0 1 16.366979-16.366978h-25.123312a16.366978 16.366978 0 0 0-16.366978 16.366978v115.141693a16.366978 16.366978 0 0 0 16.366978 16.366978h46.154879a16.366978 16.366978 0 0 1 16.366978 16.366979v45.00919a16.366978 16.366978 0 0 1-16.366978 16.366978h25.205147a16.366978 16.366978 0 0 0 16.366978-16.366978v-44.436346a16.366978 16.366978 0 0 0-16.366978-16.694318z" fill="#059959" opacity=".31" /><path d="M1120.237833 67.75929h0.900183a16.366978 16.366978 0 0 0 16.366979-16.366978V16.366978a16.366978 16.366978 0 0 0-16.366979-16.366978h-58.757452a16.366978 16.366978 0 0 1 16.366979 16.366978v34.779829a16.366978 16.366978 0 0 1-16.366979 16.366979h-0.982018a16.366978 16.366978 0 0 0-16.366979 16.366978v628.737473a16.366978 16.366978 0 0 0 16.366979 16.366978 16.366978 16.366978 0 0 1 16.366978 16.366979v34.534324a16.366978 16.366978 0 0 1-16.366978 16.366978h58.757452a16.366978 16.366978 0 0 0 16.366978-16.366978v-33.96148a16.366978 16.366978 0 0 0-16.366978-16.366978 16.366978 16.366978 0 0 1-16.366979-16.366979V84.371773a16.366978 16.366978 0 0 1 16.448814-16.612483z" fill="#009E5A" opacity=".16" /><path d="M901.902342 526.771198l-176.763367-162.851435a25.205147 25.205147 0 0 0-35.680012 1.554863L552.631024 515.559818a25.205147 25.205147 0 0 1-33.797811 3.191561l-137.646287-103.930313a25.123312 25.123312 0 0 0-32.733957 2.291377l-75.45177 75.45177a25.205147 25.205147 0 0 1-35.598178 0l-23.732119-23.732118a25.123312 25.123312 0 0 1 0-35.680013l126.844082-127.089587a25.286982 25.286982 0 0 1 32.733957-2.291377l135.109406 101.966275a25.123312 25.123312 0 0 0 33.797811-3.109726l142.147207-156.059138a25.205147 25.205147 0 0 1 35.843682-1.554863l238.794214 220.054024a25.123312 25.123312 0 0 1 1.391193 35.598177l-22.7501 24.550468a25.123312 25.123312 0 0 1-35.680012 1.554863z" fill="#FFFFFF" /><path d="M216.944298 472.350995l123.570686-123.488852a25.123312 25.123312 0 0 1 32.733957-2.291377l135.109406 101.966275a25.205147 25.205147 0 0 0 33.797811-3.109725l142.147207-156.059139a25.123312 25.123312 0 0 1 35.843682-1.554863l235.929993 217.435307 4.255414-4.582754a25.123312 25.123312 0 0 0-1.391193-35.598177L720.147047 245.013666a25.205147 25.205147 0 0 0-35.680013 1.554863L542.156158 402.627667a25.123312 25.123312 0 0 1-33.797811 3.109726L373.494446 303.771118a25.286982 25.286982 0 0 0-32.733957 2.291377L213.425398 433.152082a25.123312 25.123312 0 0 0 0 35.680013z" fill="#EAEAEA" opacity=".8" /><path d="M119.397107 154.995285a8.183489 8.183489 0 0 1-8.183489-8.183489v-81.834892a8.183489 8.183489 0 0 1 8.183489-8.183489H188.220251A8.183489 8.183489 0 0 1 188.220251 73.651403h-60.55782v73.651402a8.183489 8.183489 0 0 1-8.265324 7.69248zM119.397107 188.220251a8.183489 8.183489 0 0 1-8.183489-8.183489v-8.183489a8.183489 8.183489 0 1 1 16.366978 0v7.446975a8.183489 8.183489 0 0 1-8.183489 8.920003z" fill="#DEFFF0" /></svg>