<?xml version="1.0" standalone="no"?><!DOCTYPE svg PUBLIC "-//W3C//DTD SVG 1.1//EN" "http://www.w3.org/Graphics/SVG/1.1/DTD/svg11.dtd"><svg class="icon" width="200px" height="140.85px" viewBox="0 0 1454 1024" version="1.1" xmlns="http://www.w3.org/2000/svg"><path d="M1289.154339 13.477408c14.181452 27.038631 20.668712 54.865121 19.445017 83.47947l-94.878273 4.525995-481.934689 4.190737a8261.818943 8261.818943 0 0 0-566.755194-2.011554 8.968176 8.968176 0 0 0-8.716731 8.884361l-2.179183 327.715589-1.676295 327.715588c0 4.995358 3.7549 9.051991 8.381473 9.051991l181.207443 2.011553h867.48244l99.907156 0.670518c-5.816742 38.890034-2.514442 77.830357 9.890138 116.837732l-403.148844 1.173406-840.996986-5.196513c-6.604601-28.497008-9.890138-50.741437-9.890138-66.716524-0.56994-251.779444-0.234681-503.726518 1.005777-755.841222 0.100578-37.884257 19.042706-56.826386 56.826386-56.826386l1166.030503 0.335259z" fill="#7A6D79" /><path d="M1289.154339 13.477408c74.762738-18.774499 108.959147 14.751392 109.462035 89.011242 1.441613 263.396166-0.167629 527.077302-4.861254 791.043408l-74.427479 3.01733c-12.40458-39.007375-15.70688-77.947697-9.890138-116.837732l-4.190736-339.44965 3.352589-343.305128c1.223695-28.614348-5.263565-56.440838-19.445017-83.47947z" fill="#685E67" /><path d="M1308.599356 96.956878l-3.352589 343.305128-91.525684-3.520219v-335.258914z" fill="#2844AE" /><path d="M731.786394 105.67361l-4.190736 329.727142-180.201666 4.190736c3.905766-55.65298-15.87451-100.141838-59.340828-133.433048 44.136836-57.899214 33.123581-102.874198-33.023003-134.941713-85.273105 18.657159-103.377086 64.805548-54.311944 138.461932l-10.895915 6.872808c-34.866927 29.720703-52.199813 70.739631-51.965131 123.040021l-183.721885 0.670518 2.179183-327.715589c0-4.77744 3.855478-8.716732 8.716731-8.884361a8261.818943 8261.818943 0 0 1 566.755194 2.011554z" fill="#FDDD44" /><path d="M1213.721083 101.482873v335.258914l-4.190736 4.190737-88.005465-1.341036c3.235249-56.22292-16.545027-102.086339-59.340828-137.623784 48.042602-73.421702 28.429956-116.569524-58.837939-129.409941-60.799204 30.84382-71.4772 73.974879-32.017227 129.409941-6.93986 13.628275-15.42191 23.736331-25.479677 30.340932-25.043841 32.620692-34.933979 68.392818-29.670414 107.282852l-180.201666 1.341036-8.381473-5.531772 4.190736-329.727142 481.934689-4.190737z" fill="#3351C5" /><path d="M455.030161 171.216727l-12.069321 5.364143c-1.542191 0.670518-2.262998 2.564731-1.978028 5.196513 0.28497 2.665308 1.558954 5.766453 3.486693 8.549102 32.955951 47.707343 25.362337 89.346501-22.797606 124.883946l-20.953682-5.531772c-49.065142-73.656383-30.961161-119.804773 54.311944-138.461932z" fill="#A25041" /><path d="M1062.184054 301.967704c-17.886063 15.187229-38.621827 20.551371-62.190528 16.092428 51.73045-44.254177 52.853568-92.766141 3.352589-145.502369 87.267895 12.840416 106.880542 55.988239 58.837939 129.409941z" fill="#FDAE9E" /><path d="M455.030161 171.216727c66.146584 32.067515 77.159839 77.042498 33.023003 134.941713-20.350216 17.098205-42.477304 20.115535-66.381265 9.051991 48.159943-35.537445 55.753557-77.176602 22.797606-124.883946a19.579121 19.579121 0 0 1-3.486693-8.549102c-0.28497-2.631782 0.435837-4.525995 1.978028-5.196513l12.069321-5.364143z" fill="#883F2F" /><path d="M1003.346115 172.557763c49.500979 52.736227 48.377861 101.248192-3.352589 145.502369l-28.664638-16.092428c-39.459974-55.435061-28.781978-98.566121 32.017227-129.409941z" fill="#FFCEBF" /><path d="M971.328888 301.967704l28.664638 16.092428c23.568702 4.458944 44.304465-0.905199 62.190528-16.092428 42.7958 35.537445 62.576076 81.400864 59.340828 137.623784h-134.103566l51.294614-2.514442c5.397669-0.301733 10.476841-2.346812 14.047349-5.649113 3.553744-3.319063 5.263565-7.576851 4.72715-11.78435l-6.03466-46.936248c-0.603466-4.492469-4.928306-7.828296-10.057767-7.710955-34.649009 0.670518-66.498606-10.225397-95.548791-32.687744 10.057767-6.604601 18.539818-16.712657 25.479677-30.340932z" fill="#A8D3D8" /><path d="M488.053164 306.15844c43.466318 33.29121 63.246594 77.780068 59.340828 133.433048-20.786053 7.375696-41.739735 7.811533-62.861047 1.341036l-7.040437-66.884154a6.923097 6.923097 0 0 0-3.402878-5.230039 11.801114 11.801114 0 0 0-7.325407-1.642768c-40.465751 3.687848-66.113058-13.192438-76.941921-50.624096l10.895915-6.872808 20.953682 5.531772c23.903961 11.063544 46.031049 8.046214 66.381265-9.051991z" fill="#554E54" /><path d="M389.822302 316.551467c10.828863 37.431658 36.47617 54.311944 76.941921 50.624096a11.801114 11.801114 0 0 1 7.325407 1.642768c2.011553 1.290747 3.235249 3.18496 3.402878 5.230039l7.040437 66.884154-146.675774-1.341036c-0.234681-52.300391 17.098205-93.319319 51.965131-123.040021z" fill="#685E67" /><path d="M945.849211 332.308636c29.050185 22.462347 60.899782 33.358262 95.548791 32.687744 5.129461-0.117341 9.454301 3.218486 10.057767 7.710955l6.03466 46.936248c0.536414 4.190736-1.173406 8.465288-4.72715 11.78435-3.570507 3.3023-8.64968 5.364143-14.047349 5.649113l-51.294614 2.514442h-71.242519c-5.263565-38.890034 4.626573-74.66216 29.670414-107.282852z" fill="#DDEBF0" /><path d="M727.595658 435.400752l8.381473 5.531772a8.163555 8.163555 0 0 1-3.18496 3.520218c-2.497679 1.458376-4.03987 3.520219-4.023107 5.364143l3.01733 329.224253h-188.583139c6.923097-55.217143-11.231174-99.907156-54.479573-134.103565 55.988239-65.878377-5.196513-170.143899-75.433256-121.531357-46.047812 32.285433-51.411954 71.628067-16.092428 118.011138l-13.913245 25.144419c-33.643232 29.385444-47.388847 66.884153-41.236846 112.479365l-181.207443-2.011553c-4.626573 0-8.381473-4.056633-8.381473-9.051991l1.676295-327.715588 183.721885-0.670518 146.675774 1.341036c21.121312 6.470497 42.074994 6.03466 62.861047-1.341036l180.201666-4.190736z" fill="#28D1B3" /><path d="M1213.721083 436.741787l91.525684 3.520219 4.190736 339.44965-99.907156-0.670518v-338.108614z" fill="#FCA863" /><path d="M735.977131 440.932524l180.201666-1.341036h205.346085l88.005465 1.341036v338.108614h-88.005465c3.905766-56.558179-17.047916-99.856868-62.861046-129.912829 58.335051-59.340828 10.225397-167.797086-71.24252-125.722093-47.942025 36.207963-52.132761 78.115327-12.572209 125.722093l-4.861254 4.861254c-41.136269 30.27388-60.463945 71.963326-57.999792 125.051575h-180.201667l-3.01733-329.224253c-0.016763-1.843924 1.525428-3.905766 4.023107-5.364143a8.163555 8.163555 0 0 0 3.18496-3.520218z" fill="#FCB982" /><path d="M488.723682 644.937573c-25.043841 22.797606-50.406178 24.406849-76.103774 4.861254 67.554671-13.745615 69.901484-112.311736 0.670518-126.392611 70.236742-48.612543 131.421494 55.65298 75.433256 121.531357z" fill="#FDAE9E" /><path d="M1058.663836 649.128309c-17.098205 11.164122-35.269238 14.416133-54.479574 9.722509 27.323601-47.439136 64.70497-111.13833-16.762946-135.444602 81.467916-42.074994 129.57757 66.381265 71.24252 125.722093z" fill="#883F2F" /><path d="M413.290426 523.406216c69.230966 14.080874 66.884153 112.646995-0.670518 126.392611l-15.42191-8.381473c-35.319527-46.383071-29.955384-85.725704 16.092428-118.011138z" fill="#FFCEBF" /><path d="M987.421316 523.406216c81.467916 24.306271 44.086547 88.005465 16.762946 135.444602l-29.335155-9.722509c-39.560552-47.606766-35.369815-89.51413 12.572209-125.722093z" fill="#A25041" /><path d="M397.197998 641.417354l15.42191 8.381473c25.697596 19.545595 51.059933 17.936352 76.103774-4.861254 43.2484 34.196409 61.40267 78.886422 54.479573 134.103565h-54.479573c1.005777-23.920724-3.58727-46.047812-13.745616-66.381265a13.125386 13.125386 0 0 0-12.23695-6.705178c-33.643232 1.776872-60.128686-11.348514-79.456363-39.392922l13.913245-25.144419z" fill="#1A96F9" /><path d="M974.849107 649.128309l29.335155 9.722509c19.210336 4.693625 37.381369 1.441613 54.479574-9.722509 45.813131 30.055962 66.766813 73.35465 62.861046 129.912829h-62.861046l-5.699402-63.866823a10.828863 10.828863 0 0 0-8.549102-9.890138c-34.699298-6.705178-77.10955 2.179183-74.427479-51.294614l4.861254-4.861254z" fill="#6E80D5" /><path d="M969.987853 653.989563c-2.682071 53.473797 39.728181 44.589436 74.427479 51.294614a10.828863 10.828863 0 0 1 8.549102 9.890138l5.699402 63.866823h-146.675775c-2.464153-53.088249 16.863523-94.777695 57.999792-125.051575z" fill="#8897DC" /><path d="M383.284753 666.561773c19.327676 28.044408 45.813131 41.169795 79.456363 39.392922a13.125386 13.125386 0 0 1 12.23695 6.705178c10.158345 20.333453 14.751392 42.460541 13.745616 66.381265h-146.675775c-6.152001-45.595212 7.593614-83.093922 41.236846-112.479365z" fill="#30A7FB" /><path d="M75.181811 892.526281l840.996986 5.196513 419.073643 3.687848c5.330617 0 10.07453 2.883227 12.23695 7.375696 16.762946 35.638023 14.080874 70.62229-8.046214 104.93604-229.317097-6.705178-462.322042 0.335259-686.610256-2.179183-224.120584-2.682071-416.89446 7.543326-591.229095-2.346812-5.531772-0.335259-10.644471-2.531205-14.416133-6.20229-59.910768-57.329274-50.573807-94.157466 27.994119-110.467812z" fill="#CBE5E6" /><path d="M1319.327641 896.549388l74.427479-3.01733 36.878481 7.208066c5.196513 0.921962 9.286672 4.760677 10.393026 9.722509 18.774499 79.674281-15.086651 114.088608-101.583451 103.259745 22.127088-34.31375 24.80916-69.298018 8.046214-104.93604a13.443882 13.443882 0 0 0-12.23695-7.375696l-419.073643-3.687848 403.148844-1.173406z" fill="#A8D3D8" /></svg>