<?xml version="1.0" standalone="no"?><!DOCTYPE svg PUBLIC "-//W3C//DTD SVG 1.1//EN" "http://www.w3.org/Graphics/SVG/1.1/DTD/svg11.dtd"><svg class="icon" width="200px" height="200.00px" viewBox="0 0 1024 1024" version="1.1" xmlns="http://www.w3.org/2000/svg"><path d="M530.374089 9.664293l2.006019 273.998643c-31.234901 2.277422-62.387202 8.968086-93.456901 20.060193-6.608064-46.728451-8.732084-93.775504-6.372062-141.129361v-135.701309c-0.554605-5.038649 0.354003-9.440091 2.714027-13.216127 1.699216-2.832027 5.357252-4.554844 9.558092-4.484043l85.550825 0.472004z" fill="#5169CC" /><path d="M530.374089 9.664293c27.140262-8.26008 48.026463-2.950028 62.658604 15.930154l-0.236002 89.798866v50.150484l-6.844066 138.651337c-20.142794 5.982658-37.996366-0.861408-53.572517-20.532198L530.374089 9.664293z" fill="#3351C5" /><path d="M432.551145 26.892459v85.550825a1256.122114 1256.122114 0 0 0-177.237709 5.19205l-61.242591-2.714026 16.756162-4.248041c3.15063-0.778808 5.038649-4.094639 4.248041-7.434071-5.428052-23.045622-5.628654-45.229836-0.590006-66.552642a11.505111 11.505111 0 0 1 11.092107-8.968087l206.973996-0.826008zM745.726166 27.364464v87.556844l-152.929475 0.472005 0.236002-89.798866z" fill="#FC9743" /><path d="M745.726166 27.364464l50.268484-0.472005c8.448881-0.0472 15.623351 6.372061 16.756162 14.986145 3.06803 21.865611 2.006019 44.097025-3.186031 66.670643a4.531244 4.531244 0 0 0 0.826008 3.941238 4.790846 4.790846 0 0 0 3.658036 1.840818c199.893928 3.540034 245.79637 242.846342 67.850654 310.814997-7.080068-26.042851-6.100659-51.601898 2.950028-76.70074 42.716412-35.718944 50.185884-78.706759 22.420217-128.975243-25.252244-45.784442-94.40091-35.754345-137.353325-36.816355l-0.590006-55.578536c-0.070801-4.18904-1.805417-7.799875-4.602044-9.558093-5.274651-3.386633-11.599512-4.248041-18.998183-2.596025v-87.556844z" fill="#FA7621" /><path d="M432.551145 112.443284v50.150484l-173.107669-2.950028-4.13004-42.008406c58.764567-5.900057 117.847737-7.634674 177.237709-5.19205zM745.726166 114.921308c7.398671-1.652016 13.723532-0.790608 18.998183 2.596025 2.796627 1.758217 4.531244 5.369052 4.602044 9.558093l0.590006 55.578536-3.06803 153.991485-6.726064 91.096878c-40.356389 71.272687-97.43354 123.511791-171.219652 156.705512l-61.478593 9.322089-21.712209-8.732084c204.613973-67.142648 193.167863-230.574224 189.037823-415.600008a6.962067 6.962067 0 0 0-5.900057-6.726065c-32.804316-5.19205-64.818025-4.248041-96.052926 2.832028v-50.150484l152.929475-0.472005z" fill="#F8C52D" /><path d="M194.070845 114.921308l61.242591 2.714026 4.13004 42.008406-3.894038 23.600227c-36.580353-0.118001-79.650768-6.018058-110.567066 11.446111-61.242591 34.574333-59.590575 121.541172 1.888018 159.183535l-2.950028 70.800683c-173.225671-61.124589-139.595346-296.418859 50.150483-309.752988z" fill="#FA7621" /><path d="M259.443476 159.64374l173.107669 2.950028c-2.360023 47.353857-0.236002 94.40091 6.372062 141.129361-8.024077 15.021545-8.142079 30.916298-0.354004 47.67246a8.791085 8.791085 0 0 0 8.614083 4.956048c19.352187-1.805417 36.780955-9.558092 52.274505-23.246224a10.891505 10.891505 0 0 1 10.148097-2.596026 150.581252 150.581252 0 0 1 53.572517 26.786259c4.059239 3.13883 9.251289 4.425043 14.006735 3.469233 4.755446-0.944009 8.496082-4.035639 10.065497-8.30728 6.289461-16.520159 5.864657-32.603714-1.298012-48.262465l6.844066-138.651337c31.234901-7.080068 63.24861-8.024077 96.052926-2.832028a6.962067 6.962067 0 0 1 5.900057 6.726065c4.13004 185.025784 15.57615 348.457361-189.037823 415.600008-22.266815 6.053458-45.347837 4.873447-69.266668-3.540034-72.370098-29.110881-126.615221-78.435356-162.723569-147.973427l-14.278138-61.478593-3.894038-38.35037a659.095356 659.095356 0 0 0 0-150.451451l3.894038-23.600227z" fill="#FDDD44" /><path d="M255.549438 183.243967a659.095356 659.095356 0 0 1 0 150.451451l-45.194436-3.776036-50.976491 4.366042c-3.976638 0.354003-7.198069 2.548825-8.142079 5.546053l-4.366042 14.042136c-61.478593-37.642363-63.130609-124.609202-1.888018-159.183535 30.916298-17.464168 73.986714-11.564112 110.567066-11.446111zM769.916399 182.653962c42.952414 1.06201 112.101081-8.968086 137.353325 36.816355 27.765668 50.268485 20.296196 93.256299-22.420217 128.975243-16.284157-18.089574-37.087758-23.83623-62.422602-17.228166l-55.578536 5.428053 3.06803-153.991485z" fill="#FFFFFF" /><path d="M532.380108 283.662936c15.57615 19.67079 33.429722 26.514856 53.572517 20.532198 7.162669 15.658751 7.587473 31.742306 1.298012 48.262465-1.581215 4.271641-5.310051 7.351471-10.065497 8.30728a17.523169 17.523169 0 0 1-14.006735-3.469233 150.581252 150.581252 0 0 0-53.572517-26.786259 10.891505 10.891505 0 0 0-10.148097 2.596026c-15.493549 13.688132-32.922318 21.440807-52.274505 23.246224a8.791085 8.791085 0 0 1-8.614083-4.956048c-7.788075-16.756162-7.670074-32.650915 0.354004-47.67246 31.0697-11.092107 62.222-17.782771 93.456901-20.060193z" fill="#F8C52D" /><path d="M210.355002 329.919382a1263.213983 1263.213983 0 0 0-4.956047 248.628398c-15.458149 1.06201-62.304601 55.932539-57.230552 0.118001 4.802646-51.684498 3.386633-103.014993-4.248041-153.991485l2.950028-70.800683 4.366042-14.042136c0.944009-2.997229 4.16544-5.19205 8.142079-5.546053l50.976491-4.366042z" fill="#5169CC" /><path d="M210.355002 329.919382l45.194436 3.776036 3.894038 38.35037v59.000569l-0.236002 162.369566c0 18.018774-6.808666 21.74761-20.414197 11.210108l-33.394322-26.078251c-6.525463-82.836799-4.873447-165.708998 4.956047-248.628398z" fill="#3351C5" /><path d="M822.426905 331.217394l0.354004 246.622379c-10.620102 4.012039-59.826577 49.914481-56.758548 5.664054 3.457433-50.032483 1.498614-101.952983-5.900056-155.761502l6.726064-91.096878 55.578536-5.428053z" fill="#5169CC" /><path d="M822.426905 331.217394c25.334844-6.608064 46.138445-0.861408 62.422602 17.228166-9.050687 25.098842-10.030097 50.657889-2.950028 76.70074l-4.956048 165.319595c-0.153401 4.436843-1.522215 8.212879-3.776036 10.3841-14.632141 13.924134-37.878365-13.45213-50.386486-23.010222l-0.354004-246.622379z" fill="#3351C5" /><path d="M259.443476 372.045788l14.278138 61.478593-14.278138-2.478024z" fill="#FB8628" /><path d="M436.445183 581.497808c23.918831 8.413481 46.999853 9.593493 69.266668 3.540034l21.712209 8.732084a191.256245 191.256245 0 0 1-23.600227 75.756731l-32.450313-2.006019c-33.358922-16.838762-44.993834-45.513039-34.928337-86.02283z" fill="#FC9743" /><path d="M588.902653 584.447837c9.829495 41.146997-2.796627 70.800683-37.878365 88.972858l-47.200455-3.894038a191.256245 191.256245 0 0 0 23.600227-75.756731l61.478593-9.322089z" fill="#FA7621" /><path d="M471.37352 667.520638l32.450313 2.006019 47.200455 3.894038-0.472005 43.778422a186.335597 186.335597 0 0 1-75.75673-5.900057l-3.422033-43.778422z" fill="#F8C52D" /><path d="M474.795553 711.29906c24.697638 7.162669 49.949882 9.121488 75.75673 5.900057l0.472005 61.478593-82.600797-2.950029 6.372062-64.428621z" fill="#FDE265" /><path d="M676.105494 779.031713l-45.312437 7.19807c-2.997229 0.472005-5.510653 3.846837-6.136059 8.260079a658.823954 658.823954 0 0 0-2.832027 149.389441h-20.650199l-1.534015-86.494834c-0.059001-6.348461-4.484043-11.540511-10.148098-11.918115l-59.11857-3.894038-92.630894 2.242022c-7.28067 0.118001-13.145327 5.723055-13.216127 12.626122l-0.944009 87.202841-82.010791 0.236002 0.354003-149.389441c0.0472-8.30728 6.407462-15.080545 14.396139-15.340148l112.101081-3.422033 82.600797 2.950029c38.468371-4.248041 80.158173-4.13004 125.081206 0.354003z" fill="#7A6D79" /><path d="M676.105494 779.031713a815.505865 815.505865 0 0 1 8.968087 157.885523 8.767485 8.767485 0 0 0 5.19205 8.142078c28.638876 13.841533 37.087758 36.344351 25.370244 67.496651a8.673084 8.673084 0 0 1-8.142078 5.546054l-44.368428-0.472005c-3.422033-35.990347-4.366042-67.37865-41.300398-73.750711-4.720046-49.949882-3.776036-99.746362 2.832027-149.389441 0.625406-4.413243 3.13883-7.788075 6.136059-8.260079l45.312437-7.19807z" fill="#685E67" /><path d="M530.374089 841.572316a280.465105 280.465105 0 0 1 8.850085 105.257015l-115.641115-3.18603 0.944009-87.202841c0.070801-6.903067 5.935457-12.508121 13.216127-12.626122l92.630894-2.242022z" fill="#CBE5E6" /><path d="M530.374089 841.572316l59.11857 3.894038c5.664055 0.377604 10.089097 5.569654 10.148098 11.918115l1.534015 86.494834-61.950598 2.950028c3.693436-35.872346 0.743407-70.954084-8.850085-105.257015z" fill="#A8D3D8" /><path d="M423.583059 943.643301l115.641115 3.18603 61.950598-2.950028h20.650199c36.934356 6.372061 37.878365 37.760364 41.300398 73.750711l-339.725276 0.118001a17.169166 17.169166 0 0 1-16.402159-12.154117c-9.593493-30.361693 1.923419-50.941091 34.574334-61.714595l82.010791-0.236002z" fill="#918191" /></svg>