<?xml version="1.0" standalone="no"?><!DOCTYPE svg PUBLIC "-//W3C//DTD SVG 1.1//EN" "http://www.w3.org/Graphics/SVG/1.1/DTD/svg11.dtd"><svg class="icon" width="200px" height="195.42px" viewBox="0 0 1048 1024" version="1.1" xmlns="http://www.w3.org/2000/svg"><path d="M647.346794 1000.187937c-67.730286-21.926603-178.574222-21.926603-246.312635 0-67.730286 21.918476-143.62819-14.490413-168.651175-80.912254-25.022984-66.421841-94.12673-152.746667-153.567492-191.829334-59.440762-39.082667-78.181587-120.888889-41.650794-181.792508 36.522667-60.903619 61.19619-168.545524 54.808381-239.201524-6.379683-70.664127 46.136889-136.265143 116.711619-145.781841 70.57473-9.524825 170.439111-57.433397 221.915429-106.463492 51.476317-49.021968 135.720635-49.021968 187.188825 0 51.484444 49.038222 151.348825 96.938667 221.923556 106.463492 70.57473 9.516698 123.091302 75.117714 116.703492 145.781841-6.371556 70.656 18.285714 178.306032 54.816508 239.201524 36.522667 60.903619 17.781841 142.709841-41.658921 181.800635-59.432635 39.082667-128.536381 125.399365-153.567492 191.821207-25.022984 66.421841-100.920889 102.83073-168.659301 80.904127z" fill="#F0F8C6" /><path d="M221.200254 512.008127a303.006476 301.83619 0 1 0 606.012952 0 303.006476 301.83619 0 1 0-606.012952 0Z" fill="#FFD553" /><path d="M493.356698 524.694349c-26.055111 0-47.258413-21.113905-47.258412-47.071492 0-9.037206 7.354921-16.359619 16.416508-16.359619 9.069714 0 16.416508 7.322413 16.416508 16.359619 0 7.915683 6.477206 14.352254 14.425396 14.352254 7.94819 0 14.41727-6.436571 14.41727-14.352254 0-9.037206 7.354921-16.359619 16.416508-16.359619 9.077841 0 16.424635 7.322413 16.424635 16.359619 0 25.957587-21.203302 47.071492-47.258413 47.071492z" fill="#3F4963" /><path d="M555.032381 524.694349c-26.055111 0-47.258413-21.113905-47.258413-47.071492 0-9.037206 7.354921-16.359619 16.416508-16.359619 9.077841 0 16.424635 7.322413 16.424635 16.359619 0 7.915683 6.469079 14.352254 14.41727 14.352254s14.41727-6.436571 14.41727-14.352254c0-9.037206 7.346794-16.359619 16.416508-16.359619s16.424635 7.322413 16.424635 16.359619c0 25.957587-21.203302 47.071492-47.258413 47.071492z" fill="#3F4963" /><path d="M709.973333 550.977016h-66.356825a16.384 16.384 0 0 1-16.416508-16.359619c0-9.029079 7.346794-16.351492 16.416508-16.351492h66.356825c9.069714 0 16.416508 7.314286 16.416508 16.359619a16.384 16.384 0 0 1-16.416508 16.351492z" fill="#FF6376" /><path d="M707.811556 476.111238a16.392127 16.392127 0 0 1-16.424635-16.359619c0-8.013206-6.542222-14.531048-14.587937-14.531048-8.045714 0-14.596063 6.517841-14.596063 14.531048a16.392127 16.392127 0 0 1-16.416508 16.359619 16.392127 16.392127 0 0 1-16.424635-16.359619c0-26.055111 21.276444-47.250286 47.437206-47.250286 26.152635 0 47.429079 21.195175 47.429079 47.250286a16.384 16.384 0 0 1-16.416507 16.359619z" fill="#3F4963" /><path d="M404.772571 550.977016h-66.356825a16.392127 16.392127 0 0 1-16.416508-16.359619c0-9.029079 7.354921-16.351492 16.416508-16.351492h66.356825c9.069714 0 16.416508 7.314286 16.416508 16.359619a16.384 16.384 0 0 1-16.416508 16.351492z" fill="#FF6376" /><path d="M402.610794 476.111238a16.392127 16.392127 0 0 1-16.416508-16.359619c0-8.013206-6.550349-14.531048-14.596064-14.531048s-14.596063 6.517841-14.596063 14.531048a16.392127 16.392127 0 0 1-16.416508 16.359619 16.392127 16.392127 0 0 1-16.416508-16.359619c0-26.055111 21.268317-47.250286 47.429079-47.250286 26.152635 0 47.429079 21.195175 47.42908 47.250286a16.392127 16.392127 0 0 1-16.416508 16.359619z" fill="#3F4963" /><path d="M654.587937 888.937651a29.362794 29.249016 0 1 0 58.725587 0 29.362794 29.249016 0 1 0-58.725587 0Z" fill="#3F4963" opacity=".2" /><path d="M739.124825 802.084571a29.362794 29.249016 0 1 0 58.725588 0 29.362794 29.249016 0 1 0-58.725588 0Z" fill="#3F4963" opacity=".2" /><path d="M797.850413 261.193143a29.362794 29.249016 0 1 0 58.725587 0 29.362794 29.249016 0 1 0-58.725587 0Z" fill="#3F4963" opacity=".2" /><path d="M513.235302 888.937651a29.362794 29.249016 0 1 0 58.725587 0 29.362794 29.249016 0 1 0-58.725587 0Z" fill="#3F4963" opacity=".2" /><path d="M513.235302 119.72673a29.362794 29.249016 0 1 0 58.725587 0 29.362794 29.249016 0 1 0-58.725587 0Z" fill="#3F4963" opacity=".2" /><path d="M110.990222 630.10946a29.362794 29.249016 0 1 0 58.725588 0 29.362794 29.249016 0 1 0-58.725588 0Z" fill="#3F4963" opacity=".2" /><path d="M676.798984 412.501333c-26.160762 0-47.437206 21.195175-47.437206 47.250286 0 9.029079 7.346794 16.359619 16.416508 16.359619s16.424635-7.33054 16.424635-16.359619c0-8.013206 6.542222-14.539175 14.596063-14.539175 8.045714 0 14.587937 6.525968 14.587937 14.539175 0 9.029079 7.346794 16.359619 16.416508 16.359619 9.077841 0 16.424635-7.33054 16.424634-16.359619 0-26.055111-21.276444-47.250286-47.429079-47.250286z m-305.200762 0c-26.152635 0-47.437206 21.195175-47.437206 47.250286 0 9.029079 7.354921 16.359619 16.416508 16.359619 9.077841 0 16.424635-7.33054 16.424635-16.359619 0-8.013206 6.550349-14.539175 14.596063-14.539175s14.587937 6.525968 14.587937 14.539175c0 9.029079 7.354921 16.359619 16.416508 16.359619 9.077841 0 16.424635-7.33054 16.424635-16.359619 0-26.055111-21.276444-47.250286-47.42908-47.250286z m214.267937 48.761905c-9.069714 0-16.416508 7.314286-16.416508 16.359619 0 7.907556-6.469079 14.352254-14.41727 14.352254a14.401016 14.401016 0 0 1-14.41727-14.360381 16.384 16.384 0 0 0-16.416508-16.351492c-9.077841 0-16.424635 7.314286-16.424635 16.359619 0 7.907556-6.469079 14.352254-14.41727 14.352254a14.409143 14.409143 0 0 1-14.417269-14.360381 16.384 16.384 0 0 0-16.416508-16.351492c-9.077841 0-16.424635 7.314286-16.424635 16.359619 0 25.94946 21.203302 47.063365 47.258412 47.063365 11.784127 0 22.552381-4.33981 30.841905-11.475301a47.112127 47.112127 0 0 0 30.833778 11.475301c26.055111 0 47.258413-21.113905 47.258413-47.071492a16.384 16.384 0 0 0-16.416508-16.351492z m-61.667556-267.459048c-176.136127 0-319.431111 142.742349-319.431111 318.19581 0 175.445333 143.294984 318.19581 319.431111 318.19581S843.629714 687.45346 843.629714 512 700.326603 193.812317 524.190476 193.812317z m0 603.672381C366.177524 797.476571 237.608635 669.419683 237.608635 512c0-157.411556 128.568889-285.476571 286.589968-285.476571 158.021079 0 286.581841 128.065016 286.581841 285.476571 0 157.419683-128.560762 285.476571-286.581841 285.476571z m501.126095-260.217904c-34.515302-57.539048-58.579302-162.57219-52.549079-229.343492 7.184254-79.425016-51.525079-152.754794-130.860698-163.458032-66.690032-8.996571-164.124444-55.742984-212.780699-102.074921C601.16927 15.750095 563.898921 1.080889 524.190476 1.080889c-39.708444 0-76.970667 14.669206-104.943746 41.301333-48.648127 46.331937-146.08254 93.078349-212.764444 102.074921-79.335619 10.703238-138.036825 84.033016-130.868826 163.458032 6.030222 66.763175-18.033778 171.796317-52.557206 229.343492C-18.00127 605.720381 2.941968 697.157079 69.762032 741.099683c56.165587 36.929016 123.595175 121.157079 147.244698 183.91365 22.056635 58.571175 79.693206 97.905778 143.416889 97.905778 15.587556 0 30.96381-2.413714 45.673651-7.184254 31.175111-10.085587 73.110349-15.636317 118.085079-15.636317 44.990984 0 86.918095 5.55073 118.08508 15.636317 14.726095 4.77054 30.102349 7.184254 45.689904 7.184254 63.715556 0 121.360254-39.334603 143.416889-97.897651 23.649524-62.764698 91.079111-146.992762 147.244699-183.921777 66.820063-43.934476 87.771429-135.379302 46.705777-203.841016z m-64.796444 176.542476c-62.041397 40.79746-133.770159 130.389333-159.890286 199.728762-17.286095 45.860571-62.561524 76.678095-112.672508 76.678095-12.141714 0-24.096508-1.877333-35.539301-5.583238-34.352762-11.117714-79.888254-17.237333-128.227556-17.237333s-93.874794 6.119619-128.235682 17.237333c-11.442794 3.705905-23.397587 5.583238-35.531175 5.583238-50.119111 0-95.386413-30.809397-112.672508-76.678095-26.120127-69.339429-97.848889-158.931302-159.890286-199.728762-52.370286-34.434032-68.786794-106.105905-36.603936-159.760254C89.396825 490.471619 114.996825 378.741841 108.332698 304.98946c-5.623873-62.252698 40.391111-119.72673 102.56254-128.113777 73.662984-9.939302 177.31454-59.652063 231.050159-110.83581 21.829079-20.788825 51.03746-32.231619 82.253206-32.231619 31.207619 0 60.424127 11.442794 82.24508 32.231619 53.743746 51.183746 157.395302 100.896508 231.066412 110.83581 62.171429 8.395175 108.186413 65.861079 102.56254 128.113777-6.664127 73.752381 18.935873 185.482159 57.059555 249.051429 32.182857 53.654349 15.766349 125.318095-36.603936 159.760254z" fill="#000000" /></svg>