<?xml version="1.0" standalone="no"?><!DOCTYPE svg PUBLIC "-//W3C//DTD SVG 1.1//EN" "http://www.w3.org/Graphics/SVG/1.1/DTD/svg11.dtd"><svg class="icon" width="200px" height="177.32px" viewBox="0 0 1155 1024" version="1.1" xmlns="http://www.w3.org/2000/svg"><path d="M209.627226 11.447358c17.405339 39.898393 44.182784 71.897439 80.332334 95.997139l-20.083083 4.418278c-22.051226-6.239145-43.433015-5.301934-64.131981 2.811632L128.759343 10.911809a184.496594 184.496594 0 0 1 80.867883 0.535549z" fill="#3351C5" /><path d="M939.98203 11.581245a240.876504 240.876504 0 0 1-60.918686 95.863252c-12.719286-1.071098-24.903024 3.882729-35.881776 3.748842-184.416262-1.606647-368.819135-2.851798-553.222008-3.748842-36.14955-24.0997-62.926995-56.098747-80.332334-95.997139l730.354804 0.133887z" fill="#5169CC" /><path d="M1026.33929 8.100177l-76.449605 106.57423c-18.12833-8.207287-37.274203-10.255761-57.437619-6.158812l-13.388722-1.071098a240.876504 240.876504 0 0 0 60.918686-95.863252l86.35726-3.481068z" fill="#3351C5" /><path d="M1026.33929 8.100177l67.077499 89.838327-388.942385 515.465811a237.234771 237.234771 0 0 0-103.227049-37.354536c89.436665-110.055298 174.053391-223.671996 253.850176-340.876871a835.737438 835.737438 0 0 0 94.792154-120.498501l76.449605-106.57423z" fill="#63B9FC" /><path d="M128.759343 10.911809l76.985153 103.762598a887.525016 887.525016 0 0 0 97.336012 120.09684l43.781122-2.409971c-39.362844-1.7807-48.868837 10.670812-28.517979 37.354536a79450.606435 79450.606435 0 0 0 228.277717 298.434621c1.941365 2.543857 5.837483 4.257614 10.57709 4.686053l34.007355 3.213293-23.430264 1.071098c-43.647235 0.62927-82.300476 13.710052-115.946336 39.228957a100.803691 100.803691 0 0 0-19.413647-33.471806 3343.699521 3343.699521 0 0 1-20.083084-22.760828c-116.481884-155.121737-232.963769-310.297029-349.445653-465.525877l65.872514-83.679514z" fill="#B6DBFD" /><path d="M62.886829 94.591323c116.481884 155.228847 232.963769 310.404139 349.445653 465.525877 0.267774 0.361496 6.962136 7.952901 20.083084 22.760828a100.803691 100.803691 0 0 1 19.413647 33.471806c-24.996745 16.253909-46.954249 39.590452-65.872514 70.023018L11.74191 191.525673c-6.18559-8.167121-6.734527-18.770989-1.338873-25.974121l52.483792-70.960229z" fill="#63B9FC" /><path d="M1093.416789 97.938504c24.180033 24.0997 42.214642 48.82867 54.090438 74.173522 1.727145 3.815786 1.204985 8.287619-1.338872 11.648188l-372.206482 499.934893-69.487469-70.290792 388.942385-515.465811z" fill="#30A7FB" /><path d="M269.876477 111.862775a436.646402 436.646402 0 0 1 81.403431 102.691501c10.617257 18.396105 4.632498 22.94827-17.940888 13.656497-7.417352-3.025851-17.49906-0.84349-30.258512 6.560474a887.525016 887.525016 0 0 1-97.336012-120.09684c20.698965-8.113566 42.080754-9.050776 64.131981-2.811632z" fill="#213894" /><path d="M289.95956 107.444497c184.402873 0.897044 368.805746 2.142196 553.222008 3.748842 10.978752 0.133887 23.16249-4.81994 35.881776-3.748842l13.388722 1.071098a23.082157 23.082157 0 0 1-9.238218 3.34718c-4.60572 0.669436-8.367951 2.731299-10.309317 5.623264-22.894715 33.070144-67.211386 68.818033-50.743257 113.80414a7032.533527 7032.533527 0 0 0-475.299644 1.071097l-43.781122 2.409971c12.759452-7.403963 22.84116-9.586325 30.258512-6.560474 22.573386 9.291773 28.558145 4.739608 17.940888-13.656497a436.646402 436.646402 0 0 0-81.403431-102.691501l20.083083-4.418278z" fill="#2844AE" /><path d="M892.452066 108.515595c20.163416-4.096949 39.309289-2.048475 57.437619 6.158812a835.737438 835.737438 0 0 1-94.792154 120.498501l-32.936257-3.882729c-16.468128-44.986107 27.848542-80.733996 50.743257-113.80414 1.941365-2.891964 5.703596-4.953827 10.309317-5.623264 3.293626-0.441828 6.373032-1.553092 9.238218-3.34718z" fill="#213894" /><path d="M822.161274 231.290179l32.936257 3.882729a5021.413542 5021.413542 0 0 1-253.850176 340.876871h-10.041542l-34.007355-3.213293c-4.739608-0.428439-8.635726-2.142196-10.57709-4.686053a79450.606435 79450.606435 0 0 1-228.277717-298.434621c-20.350858-26.683724-10.844865-39.135235 28.517979-37.354536a7032.533527 7032.533527 0 0 1 475.299644-1.071097z" fill="#FFFFFF" /><path d="M567.775549 577.120877c-9.372106 3.347181-8.301008 7.765459-0.133887 10.577091 76.663824 26.697112 125.318441 78.953296 145.937073 156.781939-42.134309-76.128275-105.235358-103.53499-189.316534-82.206756-108.9842 66.274176-120.900163 207.659084 6.694361 262.954507 85.152274 23.925647 146.419068-4.552166 183.827158-85.420048-17.405339 80.600109-64.627363 133.673004-141.652682 159.191909a10.295927 10.295927 0 0 0-5.248379 3.668509c-1.138041 1.633424-1.432593 3.414124-0.776546 4.900273l4.016617 9.773767c-167.359029-18.476437-262.151184-178.739443-185.166031-330.969216 18.918265-30.432566 40.875769-53.769109 65.872514-70.023018 33.645859-25.518905 72.299101-38.599687 115.946336-39.228957z" fill="#FB8628" /><path d="M567.775549 577.120877l23.430264-1.071098h10.041542a237.234771 237.234771 0 0 1 103.227049 37.354536l69.487469 70.290792c59.713702 192.262053-7.899346 303.48217-202.839143 333.646961l-4.016617-9.773767c-0.656047-1.486148-0.361496-3.266848 0.776546-4.900273a10.295927 10.295927 0 0 1 5.248379-3.668509c77.02532-25.518905 124.247343-78.5918 141.652682-159.191909 5.703596-31.235889 5.301934-63.007327-1.204985-95.327703-20.618632-77.828643-69.273249-130.084826-145.937073-156.781939-8.167121-2.811632-9.238218-7.22991 0.133887-10.577091z" fill="#F2671E" /><path d="M713.578735 744.479907c6.506919 32.320376 6.908581 64.091814 1.204985 95.327703-37.40809 80.867883-98.674884 109.345695-183.827158 85.420048 49.270498-9.372106 85.82171-33.471806 102.557614-83.143965 30.432566-90.775538-5.984759-150.703459-109.251975-179.810542 84.081176-21.328235 147.182225 6.07848 189.316534 82.206756z" fill="#F8C52D" /><path d="M524.262201 662.273151c103.267216 29.107082 139.68454 89.035004 109.251975 179.810542-16.735903 49.67216-53.287115 73.77186-102.557614 83.143965-127.594524-55.295423-115.678561-196.680331-6.694361-262.954507z" fill="#FDE265" /></svg>