<?xml version="1.0" standalone="no"?><!DOCTYPE svg PUBLIC "-//W3C//DTD SVG 1.1//EN" "http://www.w3.org/Graphics/SVG/1.1/DTD/svg11.dtd"><svg class="icon" width="200px" height="191.58px" viewBox="0 0 1069 1024" version="1.1" xmlns="http://www.w3.org/2000/svg"><path d="M628 343l79.1 50.8 72-72.1-93.2-36.6zM877 620.6l43.5-43.6-36.6-93.1-57.7 57.7zM603.9 564.4l46.9 90.2 36.1-36.1-9-63.1L921.3 312c17.9-17.9 32.4-61.4 14.4-79.4-0.4-0.4-0.9-0.8-1.4-1.1L602.2 563.6l1.7 0.8z" fill="#9ADCCF" /><path d="M767.5 516.3L715.7 568l6.5 45.4c1.6 11.1-2.2 22.4-10.1 30.3L676 679.9c-6.6 6.6-15.8 10.5-25.2 10.5-1.8 0-3.6-0.1-5.4-0.4-11.2-1.7-21-8.8-26.2-18.8L577.5 591l-80.2-41.7c-10.1-5.2-17.1-15-18.8-26.2-1.7-11.2 2-22.7 10-30.7l36.1-36.1c6.7-6.7 15.7-10.5 25.2-10.5 1.7 0 3.4 0.1 5.1 0.4l45.4 6.5L623 430H319.4v336.7h489.7V581l-41.6-64.7z" fill="#E6EBEF" /><path d="M844.8 685c-8.5 0-15.3 6.8-15.3 15.3v71.4c0 8.4-6.9 15.3-15.3 15.3H299v-25.5c0-8.5-6.9-15.3-15.3-15.3s-15.3 6.8-15.3 15.3V787H110.2c-8.4 0-15.3-6.9-15.3-15.3V424.9c0-8.4 6.9-15.3 15.3-15.3h158.1v25.5c0 8.5 6.9 15.3 15.3 15.3s15.3-6.9 15.3-15.3v-25.5H559c8.5 0 15.3-6.9 15.3-15.3S567.5 379 559 379H110.2c-25.3 0-45.9 20.6-45.9 45.9v346.9c0 25.3 20.6 45.9 45.9 45.9h703.9c25.3 0 45.9-20.6 45.9-45.9v-71.4c0.1-8.5-6.8-15.4-15.2-15.4z" fill="#4F3D3B" /><path d="M299 500.4c0-8.5-6.9-15.3-15.3-15.3s-15.3 6.9-15.3 15.3v65.3c0 8.5 6.9 15.3 15.3 15.3s15.3-6.8 15.3-15.3v-65.3zM283.7 615.6c-8.5 0-15.3 6.8-15.3 15.3v65.3c0 8.5 6.9 15.3 15.3 15.3s15.3-6.8 15.3-15.3v-65.3c0-8.4-6.9-15.3-15.3-15.3zM467.3 472.5h-102c-8.5 0-15.3 6.9-15.3 15.3s6.9 15.3 15.3 15.3h102c8.5 0 15.3-6.9 15.3-15.3s-6.8-15.3-15.3-15.3zM528.5 618.7H365.3c-8.5 0-15.3 6.8-15.3 15.3s6.9 15.3 15.3 15.3h163.2c8.5 0 15.3-6.8 15.3-15.3s-6.8-15.3-15.3-15.3zM350 710.5c0 8.5 6.9 15.3 15.3 15.3h244.8c8.5 0 15.3-6.8 15.3-15.3s-6.8-15.3-15.3-15.3H365.3c-8.5 0-15.3 6.9-15.3 15.3zM863.8 391.1l68.3-68.3c23.2-23.2 39.5-75.9 14.4-101-25.1-25.1-77.8-8.8-101 14.4l-68.3 68.3L595 232.8c-5.7-2.2-12.1-0.9-16.4 3.4l-43.3 43.3c-3.3 3.3-4.9 7.9-4.4 12.5s3 8.7 6.9 11.2l146.5 94.2-76.9 76.9-55.6-7.9c-4.8-0.7-9.6 0.9-13 4.3l-36.1 36.1c-3.4 3.4-5 8.3-4.3 13.2 0.7 4.8 3.7 9 8.1 11.2l85.9 44.7 44.7 85.9c2.3 4.3 6.4 7.3 11.2 8.1 0.8 0.1 1.6 0.2 2.3 0.2 4 0 7.9-1.6 10.8-4.5l36.1-36.1c3.4-3.4 5-8.2 4.3-13l-7.9-55.5 76.9-76.9L865 630.6c2.5 3.9 6.6 6.4 11.2 6.9 0.5 0.1 1.1 0.1 1.6 0.1 4 0 7.9-1.6 10.8-4.5l43.3-43.3c4.3-4.3 5.6-10.8 3.4-16.4l-71.5-182.3zM570.4 287.7l22.8-22.8 160.4 63.2-47.1 47.1-136.1-87.5z m92.3 269.9l7.9 55.5-15.9 15.9-37.3-71.6c-1.5-2.8-3.7-5.1-6.5-6.5l-71.6-37.3 15.9-15.9 55.6 7.9c4.8 0.7 9.6-0.9 13-4.3l168.1-168.1 0.1-0.1 75.3-75.3c15.2-15.2 48.6-23.5 57.7-14.4 9.1 9.1 0.7 42.5-14.4 57.7l-75.3 75.3-72.3 72.3-96 95.9c-3.4 3.4-5 8.2-4.3 13z m217.9 40.3l-87.5-136.1 47.1-47.1 63.2 160.4-22.8 22.8z" fill="#4F3D3B" /><path d="M115.4 430H248v336.7H115.4z" fill="#FF7A51" /></svg>