<?xml version="1.0" standalone="no"?><!DOCTYPE svg PUBLIC "-//W3C//DTD SVG 1.1//EN" "http://www.w3.org/Graphics/SVG/1.1/DTD/svg11.dtd"><svg class="icon" width="200px" height="199.80px" viewBox="0 0 1025 1024" version="1.1" xmlns="http://www.w3.org/2000/svg"><path d="M939.367258 7.348993l-8.178718 0.474129a5.748809 5.748809 0 0 0-4.065652 2.133578 5.985873 5.985873 0 0 0-1.268294 4.504222l7.586057 64.007359A95.596176 95.596176 0 0 0 883.064489 79.416538l-364.48635-2.963304h-8.889911l-419.2482 3.437433a13.512665 13.512665 0 0 0-13.275601 13.631196l0.355597 400.283058v35.559644l-0.118533 399.571864c0 10.015966 8.178718 18.135418 18.253951 18.135419l399.216268-0.355597h35.559644l355.477906 0.355597 44.568087 0.59266a205.30953 205.30953 0 0 1-5.926607 70.171031l-892.428528 0.237064C14.662426 1018.072603 5.926607 1009.336784 5.926607 991.876999V41.841848C5.926607 17.815382 17.779822 5.843635 41.486251 5.926607l897.881007 1.422386z" fill="#FCC99F" /><path d="M939.367258 7.348993l48.716712 0.711193c20.707566 0.320037 31.055422 10.667893 31.055423 31.055422l0.118532 947.19038c0 19.439272-7.977213 29.360413-23.943494 29.751569l-70.763691 1.777982c6.00958-22.912264 7.977213-46.31051 5.926607-70.171031 10.667893-1.65945 16.084812-7.977213 16.238904-18.965143 1.65945-137.106133 2.015046-274.164854 1.06679-411.188015v-20.743125c0.948257-133.07604 0.675633-266.187641-0.829725-399.334801-0.082973-10.110792-4.587194-16.440409-13.512665-18.965143l-7.586057-64.007359a5.985873 5.985873 0 0 1 1.268294-4.504222 5.748809 5.748809 0 0 1 4.065652-2.133578l8.178718-0.474129z" fill="#FCB982" /><path d="M509.688228 76.453234c-9.399599 6.791892-14.140885 15.883308-14.223857 27.262394-1.339413 100.278196-1.268294 228.802602 0.237064 385.585071 0 3.342607-2.65512 6.045139-5.926607 6.04514l-412.254804-1.540918-0.355597-400.283058c0-7.479378 5.926607-13.560078 13.275601-13.631196l419.2482-3.437433zM364.486349 330.349091c15.409179 3.081836 29.716009 1.457945 42.908637-4.859818 3.330753-1.588331 5.902901-4.587194 7.111929-8.29725 13.832701-44.485114-2.844772-63.497671-50.020566-57.013962-77.994152 15.290647 14.34239-126.592332-95.892506-80.364795-3.970827 1.65945-6.614094 4.859818-6.756332 8.178718l-3.200368 61.87378c-0.142239 3.840442-2.370643 6.898571-5.096882 6.993397l-61.162588 2.963303c-4.231598 0.154092-7.752002 1.706863-9.364039 4.148625-10.347856 15.492152-12.599967 32.394836-6.756333 50.731759 3.034423 9.482572 12.031013 15.942574 22.284044 16.00184l53.220933 0.59266c3.010717 0.023706 5.499892 2.666973 5.689543 6.04514l3.674497 63.414698c0.225211 3.496698 2.643267 6.697066 6.282204 8.29725 17.151602 7.348993 33.66313 8.498755 49.546437 3.437433 7.289727-2.28767 12.268077-9.281067 12.327343-17.305694l0.592661-56.89543a6.6378 6.6378 0 0 1 6.282203-6.6378l28.329183-1.303854z" fill="#28D1B3" /><path d="M509.688228 76.453234h8.889911c22.758172 30.107165 9.008443 353.936988 9.245508 414.032787 0 3.271487 2.607707 5.926607 5.808075 5.926607l343.506159-0.118532 70.64516 0.474129v20.743125c-23.232301 13.2756-46.820198 17.187161-70.763692 11.734683l-341.372581-0.592661a6.163672 6.163672 0 0 0-6.163671 5.926607 6761.192148 6761.192148 0 0 0 0.948257 412.136272h-35.559644l-0.592661-410.713886c0-3.271487-2.702533-5.926607-6.045139-5.926607l-410.713886-0.711193v-35.559644l412.254804 1.540918c3.271487 0 5.926607-2.702533 5.926607-6.04514-1.505358-156.78247-1.576478-285.306876-0.237064-385.585071 0.082973-11.379086 4.824258-20.470502 14.223857-27.262394z" fill="#169A8D" /><path d="M518.578139 76.453234L883.064489 79.416538l-5.926608 416.877558-343.506159 0.118532a5.867341 5.867341 0 0 1-5.808075-5.926607c-0.237064-60.095798 13.512665-383.925621-9.245508-414.032787z m278.550544 183.724827l-174.360787-0.237064a9.69593 9.69593 0 0 0-8.771379 5.096882c-9.636663 19.202208-9.684076 38.439975-0.118532 57.725155a10.015966 10.015966 0 0 0 8.771379 5.571011l166.774729 1.777982c52.308236 11.142022 72.186077-8.498755 59.62167-58.910477a13.038536 13.038536 0 0 0-6.874865-8.415782c-14.377949-6.957837-29.395972-7.823122-45.042215-2.607707z" fill="#28D1B3" /><path d="M933.440651 78.468281c8.925471 2.524735 13.429692 8.854351 13.512665 18.965143 1.505358 133.14716 1.777982 266.25876 0.829725 399.334801l-70.64516-0.474129L883.064489 79.416538a95.596176 95.596176 0 0 1 50.376162-0.948257zM947.783041 517.51135c0.948257 137.023161 0.592661 274.081882-1.06679 411.188015-0.154092 10.98793-5.571011 17.305693-16.238904 18.965143l-44.568087-0.59266-8.889911-417.825815c23.943494 5.452479 47.531391 1.540918 70.763692-11.734683z" fill="#22B69F" /><path d="M494.87171 946.716251l-399.216268 0.355597c-10.075232 0-18.253951-8.119452-18.253951-18.135419l0.118533-399.571864 410.713886 0.711193c3.342607 0 6.045139 2.65512 6.045139 5.926607l0.592661 410.713886zM320.036795 656.312493l-19.439272 17.66129a6.222938 6.222938 0 0 1-8.534315-0.237064l-37.456158-36.744966a22.521108 22.521108 0 0 0-27.855054-2.844771c-64.955616 41.130655-11.02349 60.332862 13.868261 92.21801 1.920221 2.406203 1.612037 6.068846-0.711193 8.652846l-43.975426 48.124052a9.079562 9.079562 0 0 0-1.303854 10.075232c7.194901 15.326206 16.238904 26.634173 27.143861 33.900194 12.007306 7.977213 23.315273 6.756332 33.900194-3.674497l36.744966-36.270836a6.34147 6.34147 0 0 1 8.771378-0.118533l19.32074 17.898354c22.60408 34.054286 44.888124 38.167351 66.852131 12.327344 21.691383-25.484411 14.816518-48.005519-13.512665-62.703506-27.65355-14.780959-28.803312-29.751569-3.437432-44.923683 40.775058-28.210651 40.775058-54.915943 0-80.127731a17.99318 17.99318 0 0 0-11.142022-2.726239c-17.933914 1.979487-31.019863 11.817655-39.23414 29.514504zM877.019349 529.246033l8.889911 417.825815-355.477906-0.355597a6761.192148 6761.192148 0 0 1-0.948257-412.136272c0.118532-3.3189 2.844772-5.926607 6.163671-5.926607l341.372581 0.592661z m-24.654686 115.687374a35.678176 35.678176 0 1 0-71.356352 0 35.678176 35.678176 0 0 0 71.356352 0z m-102.648839 154.565919l36.507901 34.729919c2.512881 2.28767 6.602241 2.61956 10.312297 0.829725 49.072309-23.149328 51.407392-50.968823 6.993397-83.446631L683.574887 632.487532a9.601104 9.601104 0 0 0-9.9567-2.252111c-18.645107 6.317763-31.648083 16.5945-38.997077 30.818358a24.014613 24.014613 0 0 0 4.148626 27.973587l110.946088 110.47196z m-67.207726 13.157068a35.796708 35.796708 0 1 0-71.593417 0 35.796708 35.796708 0 0 0 71.593417 0z" fill="#28D1B3" /><path d="M364.486349 260.178061a201.267584 201.267584 0 0 1 0 70.17103l-28.329183 1.303854a6.6378 6.6378 0 0 0-6.282203 6.6378l-0.592661 56.89543c-0.059266 8.024626-5.037616 15.018023-12.327343 17.305694-15.883308 5.061323-32.394836 3.911561-49.546437-3.437433-3.638937-1.600184-6.056993-4.800552-6.282204-8.29725l-3.674497-63.414698c-0.189651-3.378166-2.678827-6.021433-5.689543-6.04514l-53.220933-0.59266c-10.253031-0.059266-19.249621-6.519268-22.284044-16.00184-5.843635-18.336923-3.591524-35.239607 6.756333-50.731759 1.612037-2.441762 5.132442-3.994533 9.364039-4.148625l61.162588-2.963303c2.726239-0.094826 4.954644-3.152955 5.096882-6.993397l3.200368-61.87378c0.142239-3.3189 2.785505-6.519268 6.756332-8.178718 110.234896-46.227537 17.898354 95.655442 95.892506 80.364795z" fill="#F1EFF2" /><path d="M789.424093 330.112027c15.883308-20.387529 18.455455-43.702802 7.70459-69.933966 15.646243-5.215414 30.664266-4.35013 45.042215 2.607707a13.038536 13.038536 0 0 1 6.874865 8.415782c12.564407 50.411722-7.313433 70.052498-59.62167 58.910477zM364.486349 260.178061c47.175794-6.483708 63.853267 12.528848 50.020566 57.013962a13.856408 13.856408 0 0 1-7.111929 8.29725c-13.192628 6.317763-27.499458 7.941654-42.908637 4.859818a201.267584 201.267584 0 0 0 0-70.17103z" fill="#CBE5E6" /><path d="M797.128683 260.178061c10.750866 26.231164 8.178718 49.546437-7.70459 69.933966l-166.774729-1.777982a10.015966 10.015966 0 0 1-8.771379-5.571011c-9.565544-19.28518-9.518131-38.522947 0.118532-57.725155a9.69593 9.69593 0 0 1 8.771379-5.096882l174.360787 0.237064z" fill="#F1EFF2" /><path d="M816.686487 644.933407m-35.678176 0a35.678176 35.678176 0 1 0 71.356352 0 35.678176 35.678176 0 1 0-71.356352 0Z" fill="#CBE5E6" /><path d="M370.412957 709.651959c-4.658313-28.838871-21.454318-46.618693-50.376162-53.339466 8.214278-17.696849 21.300227-27.535018 39.23414-29.514504 3.698203-0.379303 7.609764 0.580808 11.142022 2.726239 40.775058 25.211787 40.775058 51.91708 0 80.127731z" fill="#CBE5E6" /><path d="M320.036795 656.312493c28.921844 6.720773 45.717849 24.500595 50.376162 53.339466-25.365879 15.172115-24.216117 30.142725 3.437432 44.923683-9.399599 25.840008-27.179421 42.636013-53.339466 50.376162l-19.32074-17.898354a6.34147 6.34147 0 0 0-8.771378 0.118533l-36.744966 36.270836c-10.584921 10.430829-21.892887 11.65171-33.900194 3.674497-10.904957-7.266021-19.94896-18.573987-27.143861-33.900194a9.079562 9.079562 0 0 1 1.303854-10.075232l43.975426-48.124052c2.32323-2.584001 2.631414-6.246644 0.711193-8.652846-24.891751-31.885147-78.823877-51.087355-13.868261-92.21801a22.521108 22.521108 0 0 1 27.855054 2.844771l37.456158 36.744966c2.370643 2.32323 6.116259 2.429909 8.534315 0.237064l19.439272-17.66129zM803.529419 751.612339c-6.957837 28.601807-24.891751 44.568087-53.813595 47.886987l-110.946088-110.47196a24.014613 24.014613 0 0 1-4.148626-27.973587c7.348993-14.223858 20.351969-24.500595 38.997077-30.818358a9.601104 9.601104 0 0 1 9.9567 2.252111l119.954532 119.124807z" fill="#F1EFF2" /><path d="M803.529419 751.612339c44.413995 32.477808 42.078912 60.297303-6.993397 83.446631-3.710056 1.789835-7.799415 1.457945-10.312297-0.829725l-36.507901-34.729919c28.921844-3.3189 46.855757-19.28518 53.813595-47.886987zM373.850389 754.575642c28.329183 14.697986 35.204047 37.219094 13.512665 62.703506-21.964007 25.840008-44.24805 21.726942-66.852131-12.327344 26.160045-7.740149 43.939867-24.536154 53.339466-50.376162z" fill="#CBE5E6" /><path d="M646.711389 812.656394m-35.796708 0a35.796708 35.796708 0 1 0 71.593417 0 35.796708 35.796708 0 1 0-71.593417 0Z" fill="#CBE5E6" /></svg>