<?xml version="1.0" standalone="no"?><!DOCTYPE svg PUBLIC "-//W3C//DTD SVG 1.1//EN" "http://www.w3.org/Graphics/SVG/1.1/DTD/svg11.dtd"><svg class="icon" width="200px" height="200.00px" viewBox="0 0 1024 1024" version="1.1" xmlns="http://www.w3.org/2000/svg"><path d="M835.7 756.8c-21.8 0-37.1-2.2-45.5-6.6-3.5-1.8-6.2-3.2-6.2-13.6 0-15.3 7-45.3 20.3-73.2 13.9-29.1 27.6-40.4 31.7-41.2 3.7 0.7 17.4 12.1 31.3 41.2 13.3 27.8 20.3 57.9 20.3 73.2 0 10.4-2.8 11.8-6.2 13.6-8.6 4.3-23.9 6.6-45.7 6.6z" fill="#9ADCCF" /><path d="M280.2 757.7h72.4v108.7h-72.4zM176.6 488.5H456v98.3H176.6z" fill="#FF7A51" /><path d="M352.5 198.7V416h108.7c37.1 0 67.3 30.2 67.3 67.3V830H632V198.7H352.5z" fill="#FFF370" /><path d="M280.1 530H218c-8.6 0-15.5 6.9-15.5 15.5S209.4 561 218 561h62.1c8.6 0 15.5-7 15.5-15.5 0-8.6-6.9-15.5-15.5-15.5zM393.9 266h196.7c8.5 0 15.4-7 15.4-15.5s-6.9-15.5-15.5-15.5H393.9c-8.6 0-15.5 7-15.5 15.5s6.9 15.5 15.5 15.5zM393.9 348.8h196.7c8.5 0 15.4-7 15.4-15.5s-6.9-15.5-15.5-15.5H393.9c-8.6 0-15.5 7-15.5 15.5s6.9 15.5 15.5 15.5zM414.6 530h-62.1c-8.6 0-15.5 6.9-15.5 15.5s6.9 15.5 15.5 15.5h62.1c8.6 0 15.6-7 15.5-15.5 0-8.6-6.9-15.5-15.5-15.5zM280.1 612.8H218c-8.6 0-15.5 6.9-15.5 15.5s6.9 15.5 15.5 15.5h62.1c8.6 0 15.5-7 15.5-15.5 0-8.6-6.9-15.5-15.5-15.5zM414.6 612.8h-62.1c-8.6 0-15.5 6.9-15.5 15.5s6.9 15.5 15.5 15.5h62.1c8.6 0 15.6-7 15.5-15.5 0-8.6-6.9-15.5-15.5-15.5z" fill="#4F3D3B" /><path d="M942.5 850.8h-93.1v-42.5c32.4-1.2 89.9-9.9 89.9-71.8 0-26.9-11-67-27.4-99.8-15.1-30.3-40.6-66.3-76.1-66.3-63.3 0-103.5 116.8-103.5 166.1 0 59.4 53.1 69.8 86 71.6v42.7H683.7V193.6c0-25.7-20.9-46.6-46.6-46.6H347.4c-25.7 0-46.6 20.9-46.6 46.6v186.3c0 8.6 6.9 15.5 15.5 15.5s15.5-7 15.5-15.5V193.6c0-8.6 7-15.5 15.5-15.5h289.8c8.6 0 15.5 7 15.5 15.5v657.2H507.8V706.6c0-8.6-6.9-15.5-15.5-15.5s-15.5 6.9-15.5 15.5v144.2h-72.4v-98.3c0-25.7-20.9-46.6-46.6-46.6H275c-25.7 0-46.6 20.9-46.6 46.6v98.3H156V483.4c0-8.6 7-15.5 15.5-15.5h289.8c8.6 0 15.5 7 15.5 15.5v143.2c0 8.6 6.9 15.5 15.5 15.5s15.5-6.9 15.5-15.5V483.4c0-25.7-20.9-46.6-46.6-46.6H171.4c-25.7 0-46.6 20.9-46.6 46.6v367.4H83.4c-8.6 0-15.5 6.9-15.5 15.5s6.9 15.5 15.5 15.5h859c8.6 0 15.5-6.9 15.5-15.5 0.1-8.6-6.9-15.5-15.4-15.5z m-569.3 0H259.4v-98.3c0-8.6 7-15.5 15.5-15.5h82.8c8.6 0 15.5 7 15.5 15.5v98.3z m460.5-124.2c-8.6 0-15.5 6.9-15.5 15.5v34.8c-45-3-54.9-18.4-54.9-40.4 0-45.8 39.1-135 72.4-135 33.3 0 72.4 89.2 72.4 135 0 22.6-10.5 38.2-58.9 40.6v-35c0-8.6-6.9-15.5-15.5-15.5z" fill="#4F3D3B" /></svg>