<?xml version="1.0" standalone="no"?><!DOCTYPE svg PUBLIC "-//W3C//DTD SVG 1.1//EN" "http://www.w3.org/Graphics/SVG/1.1/DTD/svg11.dtd"><svg class="icon" width="200px" height="200.00px" viewBox="0 0 1024 1024" version="1.1" xmlns="http://www.w3.org/2000/svg"><path d="M628.063619 385.650095a34.719886 34.719886 0 0 1-34.447887-39.74387l44.079856-300.263015a34.783886 34.783886 0 0 1 68.815774 10.055967l-44.087856 300.271015a34.759886 34.759886 0 0 1-34.359887 29.679903z" fill="#46C79C" /><path d="M835.654938 353.010202c1.999993-15.13595-8.879971-27.51991-24.175921-27.51991h-602.958021c-15.29595 0-26.183914 12.383959-24.175921 27.51991l82.719729 625.517947c1.999993 15.12795 16.159947 27.51991 31.455896 27.51991h422.958613c15.29595 0 29.455903-12.383959 31.455896-27.51991l82.719729-625.517947z" fill="#C3DDF7" /><path d="M847.2789 285.002425h-63.399792c0-35.775883-29.063905-64.783787-64.911787-64.783788H301.032692c-35.855882 0-64.911787 29.007905-64.911787 64.783788H172.721113a27.879909 27.879909 0 0 0-27.823908 27.767909v76.343749a27.871909 27.871909 0 0 0 27.823908 27.759909h674.557787a27.871909 27.871909 0 0 0 27.815909-27.759909v-76.343749a27.871909 27.871909 0 0 0-27.823909-27.759909zM481.208101 567.857497c-24.695919 0-44.775853-20.047934-44.775853-44.687854 0-8.815971 7.159977-15.959948 15.991947-15.959947s15.991948 7.143977 15.991948 15.959947a12.799958 12.799958 0 0 0 25.583916 0c0-8.815971 7.159977-15.959948 15.999948-15.959947 8.823971 0 15.983948 7.143977 15.983947 15.959947 0 24.639919-20.079934 44.687853-44.775853 44.687854z" fill="#3F4963" /><path d="M538.783912 567.857497c-24.695919 0-44.775853-20.047934-44.775853-44.687854 0-8.815971 7.159977-15.959948 15.983948-15.959947 8.831971 0 15.999948 7.143977 15.999947 15.959947a12.799958 12.799958 0 0 0 25.583916 0c0-8.815971 7.159977-15.959948 15.991948-15.959947s15.991948 7.143977 15.991947 15.959947c0 24.639919-20.079934 44.687853-44.775853 44.687854z" fill="#3F4963" /><path d="M683.415438 592.449416h-61.959797a15.975948 15.975948 0 0 1-15.983948-15.959948c0-8.823971 7.159977-15.967948 15.983948-15.967947h61.959797a15.975948 15.975948 0 0 1 0 31.919895z" fill="#FF9596" /><path d="M681.399444 522.401646a15.975948 15.975948 0 0 1-15.999947-15.959948 12.959957 12.959957 0 0 0-25.919915 0 15.975948 15.975948 0 0 1-15.999948 15.959948 15.975948 15.975948 0 0 1-15.983947-15.959948c0-24.735919 20.159934-44.863853 44.943852-44.863853 24.791919 0 44.959852 20.127934 44.959853 44.863853a15.983948 15.983948 0 0 1-15.999948 15.959948z" fill="#3F4963" /><path d="M398.536372 592.449416h-61.951796a15.975948 15.975948 0 0 1-15.999948-15.959948c0-8.823971 7.159977-15.967948 15.999948-15.967947h61.951796c8.831971 0 15.991948 7.143977 15.991948 15.967947a15.975948 15.975948 0 0 1-15.991948 15.959948z" fill="#FF9596" /><path d="M396.520379 522.401646a15.975948 15.975948 0 0 1-15.999948-15.959948 12.959957 12.959957 0 0 0-25.919915 0 15.975948 15.975948 0 0 1-15.999947 15.959948 15.975948 15.975948 0 0 1-15.983948-15.959948c0-24.735919 20.159934-44.863853 44.943853-44.863853 24.783919 0 44.951853 20.127934 44.951852 44.863853a15.983948 15.983948 0 0 1-15.999947 15.959948z" fill="#3F4963" /><path d="M217.536966 637.993267c-11.727962 0-20.063934 9.487969-18.527939 21.09593l29.503903 223.119268c1.535995 11.599962 12.383959 21.095931 24.111921 21.095931h514.742311c11.727962 0 22.575926-9.487969 24.111921-21.095931l29.511903-223.119268c1.535995-11.599962-6.799978-21.095931-18.535939-21.09593H217.536966z" fill="#866539" /><path d="M401.496363 770.656831a108.487644 108.271645 0 1 0 216.975288 0 108.487644 108.271645 0 1 0-216.975288 0Z" fill="#FFFFFF" /><path d="M524.383959 715.313013c-7.951974 0-14.399953 6.431979-14.399952 14.367953 0-7.935974-6.439979-14.367953-14.383953-14.367953-12.25596 0-32.519893 27.671909-32.519893 60.655801 0 32.991892 14.383953 45.75985 32.519893 45.75985 7.943974 0 14.391953-6.431979 14.391953-14.367953 0 7.935974 6.439979 14.367953 14.391952 14.367953 18.13594 0 32.511893-12.767958 32.511894-45.75985 0-32.983892-20.255934-60.655801-32.511894-60.655801z" fill="#866539" /><path d="M623.479634 522.401646a15.975948 15.975948 0 0 0 15.999948-15.959948 12.967957 12.967957 0 0 1 25.919915 0c0 8.815971 7.159977 15.959948 15.999947 15.959948a15.975948 15.975948 0 0 0 15.983948-15.959948c0-24.735919-20.159934-44.863853-44.943853-44.863853-24.791919 0-44.959852 20.127934-44.959852 44.863853 0.008 8.807971 7.167976 15.959948 15.999947 15.959948zM847.2789 269.042477h-48.999839c-7.439976-36.903879-40.167868-64.783787-79.30374-64.783787h-18.103941l21.47193-146.23952C726.399297 30.37926 707.16736 4.587345 679.455451 0.531358c-27.679909-4.015987-53.519824 15.16795-57.575812 42.79186l-23.631922 160.935472H301.032692c-39.135872 0-71.863764 27.879909-79.31174 64.783787H172.721113c-24.159921 0-43.815856 19.615936-43.815856 43.727857v76.335749c0 24.103921 19.655936 43.719857 43.815856 43.719857h6.04798l25.359917 191.81537a33.887889 33.887889 0 0 0-12.863958 9.023971c-6.495979 7.391976-9.455969 17.423943-8.119973 27.519909l29.503903 223.119268c2.159993 16.319946 14.703952 29.663903 30.279901 33.68789l8.279973 62.615794c3.06399 23.207924 23.839922 41.391864 47.311844 41.391865h422.958613c23.455923 0 44.239855-18.18394 47.311844-41.391865l8.279973-62.615794c15.567949-4.031987 28.103908-17.375943 30.255901-33.69589l29.511903-223.119267c1.327996-10.087967-1.631995-20.119934-8.127973-27.51991-3.503989-3.983987-7.927974-7.023977-12.847958-9.007971l25.367917-191.81537h6.04798c24.159921 0 43.815856-19.615936 43.815856-43.727857v-76.335749c-0.008-24.111921-19.663935-43.727857-43.823856-43.727857zM653.519536 47.955203a18.783938 18.783938 0 0 1 37.167878 5.431982l-22.159928 150.879505h-37.959875l22.959925-156.319487zM301.040692 236.178585H718.959321a48.991839 48.991839 0 0 1 46.215848 32.863892H254.816844a48.991839 48.991839 0 0 1 46.215848-32.863892z m-48.407841 651.165863c-3.687988 0-7.775974-3.575988-8.255973-7.223976l-29.511903-223.119268c-0.088-0.695998-0.08-1.663995 0.463998-2.287992 0.551998-0.631998 1.511995-0.759998 2.215993-0.759998h249.727181C419.608303 671.385157 385.520415 717.113007 385.520415 770.640831c0 53.527824 34.095888 99.263674 81.759732 116.695617H252.616851z m257.359156-209.007314c51.007833 0 92.503696 41.407864 92.503696 92.311697 0 50.895833-41.495864 92.319697-92.495696 92.319697-50.999833 0-92.495696-41.423864-92.495697-92.319697 0-50.903833 41.495864-92.319697 92.495697-92.319697z m227.095254 298.095022c-0.943997 7.135977-8.383972 13.647955-15.599948 13.647955h-422.958613c-7.223976 0-14.655952-6.511979-15.599948-13.647955l-7.559976-57.159812h469.278461l-7.559976 57.159812z m68.047777-319.430952l-29.503903 223.119268c-0.479998 3.647988-4.575985 7.223976-8.255973 7.223976H552.711866c47.663844-17.431943 81.759732-63.159793 81.759732-116.695617 0-53.527824-34.095888-99.263674-81.759732-116.695617h249.735181c0.703998 0 1.663995 0.136 2.215993 0.759998 0.551998 0.623998 0.559998 1.591995 0.463998 2.287992z m-21.18393-34.975885H236.056905l-25.015917-189.199379H808.959026l-25.015918 189.199379z m75.159753-232.919236c0 6.511979-5.303983 11.799961-11.831961 11.799962H172.721113a11.823961 11.823961 0 0 1-11.823961-11.799962v-76.335749c0-6.511979 5.311983-11.799961 11.831961-11.799962h674.557787c6.519979 0 11.823961 5.287983 11.823961 11.799962v76.335749zM481.200101 567.857497c10.959964 0 20.999931-3.959987 28.791906-10.511966a44.607854 44.607854 0 0 0 28.783905 10.511966c24.695919 0 44.783853-20.047934 44.783853-44.687854a15.975948 15.975948 0 0 0-15.999947-15.967947 15.975948 15.975948 0 0 0-15.983948 15.967947 12.799958 12.799958 0 0 1-25.591916 0A15.975948 15.975948 0 0 0 510.000007 507.201696a15.975948 15.975948 0 0 0-15.991948 15.967947 12.799958 12.799958 0 0 1-25.583916 0 15.975948 15.975948 0 0 0-15.999948-15.967947 15.975948 15.975948 0 0 0-15.983947 15.967947c-0.008 24.639919 20.079934 44.687853 44.767853 44.687854zM338.600569 522.401646a15.975948 15.975948 0 0 0 15.991947-15.959948 12.967957 12.967957 0 0 1 25.919915 0c0 8.815971 7.159977 15.959948 15.999948 15.959948a15.975948 15.975948 0 0 0 15.991947-15.959948c0-24.735919-20.167934-44.863853-44.951852-44.863853s-44.951853 20.127934-44.951853 44.863853c0 8.807971 7.167976 15.959948 15.999948 15.959948z" fill="#000000" /></svg>