<?xml version="1.0" standalone="no"?><!DOCTYPE svg PUBLIC "-//W3C//DTD SVG 1.1//EN" "http://www.w3.org/Graphics/SVG/1.1/DTD/svg11.dtd"><svg class="icon" width="200px" height="184.84px" viewBox="0 0 1108 1024" version="1.1" xmlns="http://www.w3.org/2000/svg"><path d="M231.251663 578.08908c0 223.476477 144.2818 404.630294 322.069042 404.630294s322.069041-181.153816 322.069041-404.630294S731.188102 173.458787 553.080235 173.458787s-321.828571 181.153816-321.828572 404.630293z" fill="#52A3E4" /><path d="M24.768376 553.080235C8.015656 553.080235 0 537.048924 0 520.296204c0-41.360783 16.51225-132.17816 74.305127-231.251664 8.015656-16.51225 24.768376-16.51225 41.280626-8.015655s24.768376 33.024501 8.015656 41.280626C74.305127 421.142544 57.792877 495.527828 57.792877 528.552329 57.792877 545.064579 41.280626 553.080235 24.768376 553.080235z m115.585753-272.53229c-8.015656 0-16.51225 0-16.51225-8.015655a28.776204 28.776204 0 0 1-8.015656-41.280627A681.330724 681.330724 0 0 1 322.069041 57.792877c16.51225-8.015656 33.024501 0 41.280626 16.51225s0 33.024501-16.51225 41.280626C280.547945 148.610254 222.995538 198.227162 165.202661 264.516634c0 8.015656-8.336282 16.031311-24.848532 16.031311zM437.654795 82.561252c-16.51225 0-24.768376-8.015656-33.024501-24.768375a45.368611 45.368611 0 0 1 24.768375-41.280627C478.935421 0 537.048924 0 594.601331 0c24.768376 8.015656 33.024501 24.768376 33.024501 41.280626a35.509354 35.509354 0 0 1-33.024501 33.024501 342.749432 342.749432 0 0 0-156.946536 8.015656z m396.454324 57.792877c-8.015656 0-8.015656 0-16.51225-8.015655-49.616908-33.024501-107.409785-49.536751-165.202662-66.049002-8.015656 8.015656-24.768376-8.015656-16.51225-24.768376 0-16.51225 16.51225-24.768376 33.024501-24.768376 66.049002 16.51225 123.841879 33.024501 181.714912 74.305127 16.51225 8.015656 16.51225 24.768376 8.015655 41.280627 0.24047 8.015656-16.271781 8.015656-24.527906 8.015655zM1082.113503 635.881957a35.509354 35.509354 0 0 1-33.024501-33.024501c-8.015656-181.714912-66.049002-322.069041-165.122505-412.886419a23.485871 23.485871 0 0 1 0-41.360783 23.405714 23.405714 0 0 1 41.280626 0c107.009002 99.153659 172.897691 256.020039 181.314129 454.247202 8.256125 16.51225-8.416438 33.024501-24.447749 33.024501zM891.901996 990.975499h-8.015655c-16.51225-8.015656-24.768376-24.768376-16.512251-41.280626 0 0 16.51225-49.536751 41.280626-148.610255s8.015656-231.251663 8.015656-231.251663a361.18544 361.18544 0 0 0-214.739413-330.325166c-16.51225-8.015656-24.768376-24.768376-16.512251-41.280627s24.768376-24.768376 41.280627-16.51225a416.81409 416.81409 0 0 1 247.763914 379.861918s16.51225 140.354129-8.015656 247.763914-49.536751 156.86638-49.536752 156.866379q-12.584579 24.768376-25.008845 24.768376zM338.581292 272.53229c-8.015656 0-16.51225-8.015656-24.768376-16.512251s0-24.768376 8.015655-33.024501c90.817378-66.129159 198.227162-90.897534 305.556791-66.129158 16.51225 0 24.768376 16.592407 24.768376 33.104657s-16.51225 24.768376-33.024501 24.768376c-90.817378-16.51225-181.714912 0-256.020039 57.792877zM33.024501 743.211585c-16.51225 0-24.768376-8.015656-33.024501-24.768376 0-16.51225 8.015656-33.024501 24.768376-33.024501a158.469511 158.469511 0 0 0 66.049002-41.280626 381.144423 381.144423 0 0 0 57.792876-82.561252 421.142544 421.142544 0 0 1 90.897535-256.020039c8.015656-16.51225 33.024501-24.768376 41.280626-8.015656 16.51225 8.015656 16.51225 24.768376 8.015655 41.280626-49.536751 66.049002-82.561252 140.354129-82.561252 222.995538v8.015656c0 8.015656-24.768376 82.561252-74.385284 115.585753a378.338943 378.338943 0 0 1-90.576908 57.792877z" fill="#0970C1" /><path d="M99.073503 850.62137c-8.015656 0-16.51225-8.015656-24.768376-16.512251-8.015656-16.51225-8.015656-33.024501 8.015656-41.360782 0 0 107.409785-74.305127 140.434285-99.073503 8.015656-8.015656 33.024501-49.536751 41.280627-90.817378 0-66.049002 41.280626-181.714912 82.561252-231.251663a189.570254 189.570254 0 0 1 57.792877-49.536752c33.024501-16.51225 74.305127-33.024501 115.66591-33.024501C537.048924 280.547945 553.080235 289.04454 553.080235 305.556791s-8.015656 33.024501-24.768376 33.024501a139.712877 139.712877 0 0 0-82.641409 24.768375 505.467241 505.467241 0 0 0-49.536751 41.280627c-32.784031 41.280626-74.064658 148.449941-74.064658 206.483287v8.015656c-8.015656 24.768376-33.024501 99.073503-66.049002 132.098004-24.768376 16.51225-132.17816 90.897534-140.434286 99.153659z m652.394207-396.454325a30.299178 30.299178 0 0 1-24.768375-8.015656A213.537065 213.537065 0 0 0 611.113581 355.093542c-16.51225-8.015656-24.768376-24.768376-16.51225-41.280626 0-16.51225 24.768376-24.768376 41.280626-16.512251 57.792877 24.768376 115.585753 66.049002 148.610254 107.329629 8.015656 16.51225 8.015656 33.024501-8.015655 41.280626a30.299178 30.299178 0 0 1-24.768376 8.015655z m24.768376 313.812916c-24.768376-8.015656-33.024501-24.768376-33.024501-41.280626 8.015656-24.768376 8.015656-41.280626 16.512251-49.536752 8.015656-33.024501 8.015656-107.329628 8.015655-107.329628 0-16.51225 0-41.280626-8.015655-57.792877a45.528924 45.528924 0 0 1 24.768375-41.360783c16.592407-8.015656 33.104658 8.015656 41.360783 24.848533a228.606497 228.606497 0 0 1 8.015656 74.305127s-8.015656 82.561252-8.015656 115.585753c0 8.015656-8.015656 24.768376-8.015655 49.536752-16.75272 16.51225-25.089002 33.024501-41.601253 33.024501z" fill="#0970C1" /><path d="M710.187084 1007.48775h-8.015655c-16.51225-8.015656-24.768376-24.768376-16.512251-41.280627 0 0 24.768376-90.817378 49.536752-173.458786 0-16.51225 24.768376-24.768376 41.280626-24.768376s24.848532 16.51225 24.848532 41.360783a1409.15225 1409.15225 0 0 1-49.616908 173.37863c-16.75272 16.51225-25.008845 24.768376-41.521096 24.768376zM578.08908 1015.743875c-24.768376-8.015656-33.024501-24.768376-33.024501-41.280626l90.817378-371.605793c16.51225-49.536751-16.51225-99.073503-66.049002-115.585753-49.536751-8.015656-107.409785 24.768376-115.66591 74.305127l-82.561252 239.507788-165.122505 132.098004c-16.51225 16.51225-41.280626 16.51225-49.616908 0s-8.015656-33.024501 8.015655-41.280626l157.187006-123.922035L396.374168 553.080235c0-41.280626 33.024501-82.641409 66.049002-99.15366a131.857534 131.857534 0 0 1 123.922035-16.27178 150.854638 150.854638 0 0 1 115.585754 189.971037l-90.817378 371.605792c0 8.256125-16.51225 16.51225-33.024501 16.512251z" fill="#0970C1" /><path d="M396.374168 1024h-16.51225c-16.51225-8.015656-16.51225-24.768376-8.015656-41.280626l90.576908-165.122505 49.616908-231.251664c0-16.51225 16.51225-24.768376 33.024501-24.768375s24.768376 16.51225 24.768376 33.024501l-49.536751 247.763914-99.15366 173.37863a83.202505 83.202505 0 0 1-24.768376 8.256125z" fill="#0970C1" /></svg>