<?xml version="1.0" standalone="no"?><!DOCTYPE svg PUBLIC "-//W3C//DTD SVG 1.1//EN" "http://www.w3.org/Graphics/SVG/1.1/DTD/svg11.dtd"><svg class="icon" width="200px" height="196.92px" viewBox="0 0 1040 1024" version="1.1" xmlns="http://www.w3.org/2000/svg"><path d="M847.782766 403.009016a40.009143 40.009143 0 0 1-28.298159-68.307302l91.908063-91.91619a110.502603 110.502603 0 0 0 32.58108-78.652953 110.526984 110.526984 0 0 0-32.58108-78.661079 40.01727 40.01727 0 0 1 56.588191-56.58819A190.017016 190.017016 0 0 1 1024.000163 164.132571a190.025143 190.025143 0 0 1-56.019302 135.24927l-91.899937 91.899937a39.887238 39.887238 0 0 1-28.298158 11.727238z" fill="#46C79C" /><path d="M854.04867 234.422857c-25.892571-25.900698-59.814603-36.51454-75.69473-40.277333-6.867302-1.633524-8.728381 0.300698-7.111111 7.111111 3.762794 15.872 14.376635 49.794032 40.277334 75.69473 25.892571 25.892571 59.814603 36.506413 75.686603 40.269206 6.810413 1.625397 8.736508-0.24381 7.119238-7.111111-3.770921-15.872-14.384762-49.794032-40.277334-75.69473z" fill="#6CF5C5" /><path d="M976.359782 356.725841c25.892571 25.892571 36.506413 59.814603 40.277333 75.686603 1.625397 6.867302-0.308825 8.728381-7.119238 7.119239-15.872-3.762794-49.794032-14.384762-75.69473-40.277334-25.892571-25.900698-36.506413-59.814603-40.269207-75.686603-1.625397-6.81854 0.24381-8.744635 7.111111-7.127365 15.872 3.779048 49.794032 14.384762 75.694731 40.28546z" fill="#6CF5C5" /><path d="M893.927782 316.84673c-105.593905-105.602032-276.805079-105.602032-382.398985 0C309.09375 519.273651 285.021623 749.088508 123.814766 749.145397a107.186794 107.186794 0 0 0-76.076699 31.492063c-41.992127 41.984-41.984 110.055619 0 152.039619 125.854476 125.846349 494.811429 117.955048 846.197842-233.423238 105.593905-105.602032 105.593905-276.805079 0-382.407111z" fill="#FF6376" /><path d="M520.11902 486.692571m-30.695619 0a30.695619 30.695619 0 1 0 61.391238 0 30.695619 30.695619 0 1 0-61.391238 0Z" fill="#3F4963" /><path d="M552.960163 584.232635h-65.666032a16.253968 16.253968 0 0 1 0-32.49981h65.666032a16.253968 16.253968 0 1 1 0 32.49981z" fill="#FF9596" /><path d="M640.593432 558.120635a46.811429 46.811429 0 0 1-46.762666-46.75454 16.253968 16.253968 0 1 1 32.491682 0c0 7.866921 6.404063 14.262857 14.270984 14.262857s14.262857-6.404063 14.262858-14.270984a16.253968 16.253968 0 1 1 32.491682 0 46.811429 46.811429 0 0 1-46.75454 46.762667z" fill="#3F4963" /><path d="M701.618956 558.120635a46.811429 46.811429 0 0 1-46.762666-46.75454 16.253968 16.253968 0 1 1 32.491682 0c0 7.866921 6.404063 14.262857 14.270984 14.262857 7.858794 0 14.262857-6.404063 14.262857-14.270984a16.245841 16.245841 0 1 1 32.491683 0 46.811429 46.811429 0 0 1-46.75454 46.762667z" fill="#3F4963" /><path d="M854.893877 584.232635h-65.649778a16.253968 16.253968 0 0 1 0-32.49981h65.649778a16.253968 16.253968 0 1 1 0 32.49981z" fill="#FF9596" /><path d="M852.75648 509.862603a16.253968 16.253968 0 0 1-16.253968-16.253968c0-7.956317-6.469079-14.433524-14.433524-14.433524s-14.433524 6.477206-14.433524 14.441651a16.245841 16.245841 0 1 1-32.499809 0 46.982095 46.982095 0 0 1 46.933333-46.933333 46.982095 46.982095 0 0 1 46.933333 46.933333c0 8.97219-7.273651 16.245841-16.245841 16.245841z" fill="#3F4963" /><path d="M520.127147 456.005079a30.695619 30.695619 0 1 0 0 61.399365 30.695619 30.695619 0 0 0 0-61.391238z m467.707936-110.770793a149.861587 149.861587 0 0 0-23.608889-19.114667l15.246223-15.246222C1018.668861 271.668825 1040.254131 219.558603 1040.254131 164.132571s-21.58527-107.536254-60.781714-146.732698a55.897397 55.897397 0 0 0-39.781588-16.481524c-15.034921 0-29.159619 5.851429-39.781587 16.481524a56.336254 56.336254 0 0 0 0 79.563175 94.362413 94.362413 0 0 1 27.818667 67.169523c0 25.372444-9.882413 49.225143-27.818667 67.169524l-15.254349 15.254349a149.658413 149.658413 0 0 0-19.122794-23.625142c-28.281905-28.290032-64.406349-40.082286-83.431619-44.592762-9.248508-2.202413-16.644063-0.617651-21.967238 4.705523-5.315048 5.315048-6.89981 12.702476-4.705524 21.967239 1.29219 5.436952 3.478349 13.377016 6.875429 22.576761a289.239365 289.239365 0 0 0-59.578921-6.176507c-76.564317 0-148.545016 29.809778-202.686984 83.951746-38.058667 38.058667-73.224127 80.335238-107.495619 129.251555-29.769143 42.479746-54.962794 84.382476-77.190095 121.368381-61.732571 102.692571-106.33346 176.891937-191.593651 176.924445a122.96127 122.96127 0 0 0-87.511365 36.246349A122.936889 122.936889 0 0 0 0.000163 856.65727c0 33.060571 12.873143 64.138159 36.246349 87.511365 50.874921 50.874921 134.095238 78.896762 234.300952 78.913016h0.048762c204.938159 0 436.337778-113.859048 634.823111-312.344381 54.133841-54.133841 83.951746-126.11454 83.951746-202.686984 0-20.268698-2.113016-40.20419-6.176508-59.578921 9.191619 3.397079 17.131683 5.583238 22.568635 6.867302 2.698159 0.650159 5.233778 0.958984 7.606857 0.958984 5.786413 0 10.597587-1.893587 14.360381-5.664508 5.323175-5.315048 6.907937-12.702476 4.713651-21.967238-4.518603-19.017143-16.310857-55.141587-44.600889-83.431619z m-64.950857-90.957207a126.659048 126.659048 0 0 0 37.335365-90.144508c0-34.052063-13.263238-66.064254-37.335365-90.144508a23.79581 23.79581 0 0 1 0-33.613206 23.617016 23.617016 0 0 1 16.806603-6.956698c6.347175 0 12.312381 2.470603 16.806603 6.956698a173.884952 173.884952 0 0 1 51.256889 123.757714c0 46.75454-18.204444 90.697143-51.256889 123.757715l-22.381714 22.389841a199.558095 199.558095 0 0 0-25.136762-8.484571 199.76127 199.76127 0 0 0-8.476444-25.136762l22.381714-22.381715z m-80.327111-8.370793c6.948571 6.948571 12.645587 14.628571 17.334857 22.324825a283.534222 283.534222 0 0 0-56.360635-28.663873 157.874794 157.874794 0 0 1-11.142095-24.259048c14.953651 5.428825 34.450286 14.872381 50.167873 30.606223z m39.887238 441.856c-103.115175 103.115175-213.008254 181.881905-326.639746 234.114031-97.783873 44.942222-196.396698 68.705524-285.200254 68.705524h-0.040635c-90.217651-0.008127-167.245206-25.307429-211.342222-69.396317a90.656508 90.656508 0 0 1-26.729651-64.528254c0-24.380952 9.492317-47.299048 26.729651-64.528254a90.697143 90.697143 0 0 1 64.601397-26.737778C227.393178 765.35873 278.503782 680.342349 343.202702 572.708571c45.624889-75.881651 97.328762-161.889524 179.809524-244.378412 47.997968-48.006095 111.827302-74.443175 179.703873-74.443175 67.892825 0 131.714032 26.437079 179.720127 74.443175s74.443175 111.827302 74.443175 179.712c0 67.892825-26.428952 131.714032-74.443175 179.720127z m88.762921-280.519111a283.526095 283.526095 0 0 0-28.663873-56.360635 119.239111 119.239111 0 0 1 22.324825 17.334857c15.725714 15.717587 25.16927 35.214222 30.598095 50.159746a156.59073 156.59073 0 0 1-24.259047-11.133968zM732.127655 495.104c-8.980317 0-16.253968 7.273651-16.253969 16.253968 0 7.866921-6.395937 14.262857-14.25473 14.262857a14.279111 14.279111 0 0 1-14.262857-14.270984 16.245841 16.245841 0 1 0-32.499809 0c0 7.866921-6.395937 14.270984-14.262858 14.270984a14.279111 14.279111 0 0 1-14.262857-14.270984 16.245841 16.245841 0 1 0-32.499809 0 46.811429 46.811429 0 0 0 46.762666 46.762667 46.518857 46.518857 0 0 0 30.508699-11.402159 46.518857 46.518857 0 0 0 30.516825 11.402159 46.811429 46.811429 0 0 0 46.75454-46.75454c0-8.980317-7.273651-16.253968-16.253968-16.253968z m89.941333-48.428698a46.990222 46.990222 0 0 0-46.925206 46.933333 16.245841 16.245841 0 1 0 32.491682 0c0-7.964444 6.477206-14.441651 14.441651-14.441651 7.964444 0 14.433524 6.477206 14.433524 14.441651a16.245841 16.245841 0 1 0 32.499809 0 46.990222 46.990222 0 0 0-46.94146-46.933333z" fill="#000000" /></svg>