<?xml version="1.0" standalone="no"?><!DOCTYPE svg PUBLIC "-//W3C//DTD SVG 1.1//EN" "http://www.w3.org/Graphics/SVG/1.1/DTD/svg11.dtd"><svg class="icon" width="200px" height="200.00px" viewBox="0 0 1024 1024" version="1.1" xmlns="http://www.w3.org/2000/svg"><path d="M167.9 401.2h688.2c-13.1-29.8-33.5-57.3-59.9-81.3 0.1-3.2 0.2-6.4 0.2-9.6 0-156.7-127-283.7-283.7-283.7s-283.7 127-283.7 283.7c0 2.8 0 5.5 0.1 8.3-26.9 24.3-47.9 52.2-61.2 82.6z" fill="#FF8700" /><path d="M578.5 718.3V693c108.1-31.4 187.6-137.6 187.6-263.9 0-9.5-0.4-18.8-1.3-28.1H259.2c-0.9 9.2-1.3 18.6-1.3 28.1 0 126.2 79.5 232.4 187.6 263.9v25.3c0 31.2-23.2 57.4-54.2 61.4C194.9 805.3 41.3 891.8 0 1001h1024c-41.3-109.2-195-195.7-391.3-221.3-31-4-54.2-30.2-54.2-61.4z" fill="#EFD0C2" /><path d="M518.7 809.7c-47.7 0-94.2-36.6-138.3-30.6C163 808.8 0 905.4 0 1009.2h1024c0-106-160.3-204.5-381.7-231.9-39.5-4.9-80.9 32.4-123.6 32.4z" fill="#1177CC" /><path d="M345.4 1009.2l-92-203.6c-11.4 3.3-22.5 6.7-33.2 10.4l87.3 193.2h37.9zM731.3 1009.2l62.6-199.4c-10.8-3.4-21.9-6.7-33.2-9.7l-65.7 209.1h36.3z" fill="#1442B2" /></svg>