<?xml version="1.0" standalone="no"?><!DOCTYPE svg PUBLIC "-//W3C//DTD SVG 1.1//EN" "http://www.w3.org/Graphics/SVG/1.1/DTD/svg11.dtd"><svg class="icon" width="200px" height="200.00px" viewBox="0 0 1024 1024" version="1.1" xmlns="http://www.w3.org/2000/svg"><path d="M574.8 628.7v40.9c0 33.9-27.5 61.4-61.4 61.4S452 703.5 452 669.6v-40.9M544.1 628.7h-61.4c-101.7 0-184.1-82.4-184.1-184.1V291.2h429.6v153.4c0 101.7-82.4 184.1-184.1 184.1zM298.6 480.4h-20.5c-28.2 0-51.1-22.9-51.1-51.1 0-28.2 22.9-51.1 51.1-51.1h20.5v102.2zM728.2 480.4h20.5c28.2 0 51.1-22.9 51.1-51.1 0-28.2-22.9-51.1-51.1-51.1h-20.5v102.2z" fill="#FFFFFF" /><path d="M417.6 685.1c-0.8-5-1.3-10.2-1.3-15.4v-12.4c-16.3-4.3-31.9-10.5-46.5-18.2h-45.5c-8.5 0-15.3 6.9-15.3 15.3V730c28.3-27.1 66.5-44 108.6-44.9zM718 729.8v-75.6c0-8.5-6.9-15.3-15.3-15.3h-45.5c-14.6 7.8-30.2 13.9-46.5 18.2v12.4c0 5.3-0.5 10.4-1.3 15.4 41.9 1.1 80.1 18 108.6 44.9z" fill="#9ADCCF" /><path d="M605.4 720.8h-9.6c-17.2 27.6-47.7 46-82.5 46s-65.3-18.5-82.5-46h-9.6c-70.5 0-127.8 57.4-127.8 127.8v56.3h439.8v-56.3c0.1-70.5-57.3-127.8-127.8-127.8z" fill="#FFF370" /><path d="M430.1 262.9c26.6-1.6 54.6-2.4 83.3-2.4 112.4 0 214.1 12.6 265.4 33 12.7 5 19.1 19.8 14.2 33-3.8 10.2-13.1 16.4-23 16.4-2.9 0-5.9-0.5-8.8-1.7-45.4-18-142.6-29.6-247.8-29.6S311 323.3 265.6 341.3c-12.7 5.1-27-1.6-31.9-14.7-4.9-13.2 1.5-28 14.2-33 25.1-10 62.3-18.1 106.9-23.8" fill="#FF7A51" /><path d="M701.5 237.8c-53.6-8.4-119.6-13.1-188.1-13.1s-134.5 4.7-188.1 13.1c8.7-67.9 66.8-120.5 137-120.5h102.3c70.1 0 128.2 52.7 136.9 120.5z" fill="#FFF370" /><path d="M395.8 808V671.5c-30.4 4.4-58.3 16.4-81.8 34v235.1h81.8v-59.3M631 671.5v269.2h81.8V705.5c-23.4-17.6-51.4-29.6-81.8-34z" fill="#9ADCCF" /><path d="M736.9 495.8h11.8c36.7 0 66.5-29.8 66.5-66.5s-29.8-66.5-66.5-66.5h-5.1v-11.5c4.3 1.4 8.3 2.8 12 4.2 4.6 1.8 9.5 2.8 14.5 2.8 16.5 0 31.6-10.6 37.4-26.5 7.7-20.9-2.6-44.5-23-52.6-8.9-3.5-19.2-6.8-30.7-9.9v-14c0-104.3-84.9-189.2-189.2-189.2H462.3C358 66.1 273.1 151 273.1 255.3v14c-11.6 3.1-21.9 6.4-30.7 9.9-20.4 8.1-30.7 31.7-23 52.6 3.9 10.4 11.5 18.6 21.5 23 5.1 2.3 10.5 3.4 16 3.4 4.9 0 9.8-0.9 14.5-2.8 3.6-1.4 7.7-2.8 12-4.2v11.5h-5.1c-36.7 0-66.5 29.8-66.5 66.5s29.8 66.5 66.5 66.5h11.8c9.4 35.5 28.5 67.2 54.1 92h-19.9c-36.7 0-66.5 29.8-66.5 66.5v122c-9.8 22.1-15.3 46.6-15.3 72.4v92c0 8.5 6.9 15.3 15.3 15.3h295.8c8.5 0 15.3-6.9 15.3-15.3s-6.9-15.3-15.3-15.3H411.1v-44c0-8.5-6.9-15.3-15.3-15.3s-15.3 6.9-15.3 15.3v44h-51.1V713.4c15.6-10.6 32.9-18.5 51.1-23.2V808c0 8.5 6.9 15.3 15.3 15.3s15.3-6.9 15.3-15.3V700.7c3.4-0.2 6.8-0.4 10.2-0.4h21.8c2.1 4.9 4.7 9.4 7.8 13.7 0.2 0.3 0.5 0.7 0.7 1 0.3 0.4 0.6 0.8 1 1.3l1.2 1.5c0.3 0.3 0.5 0.6 0.8 0.9 1.4 1.7 3 3.4 4.5 5l0.4 0.4c0.7 0.7 1.5 1.4 2.3 2.2l0.3 0.3c1.7 1.6 3.5 3.1 5.4 4.5 0.1 0.1 0.3 0.2 0.4 0.3 0.8 0.6 1.6 1.2 2.5 1.8 0.2 0.1 0.3 0.2 0.5 0.3 1 0.6 1.9 1.3 2.9 1.9 0.9 0.6 1.9 1.1 2.8 1.6 0.3 0.2 0.6 0.3 0.9 0.5 0.7 0.4 1.4 0.7 2.1 1.1 0.3 0.2 0.6 0.3 1 0.5 1 0.5 1.9 0.9 2.9 1.3 0.3 0.1 0.7 0.3 1 0.4 0.7 0.3 1.4 0.6 2 0.8 0.4 0.2 0.9 0.3 1.3 0.5 0.6 0.2 1.3 0.4 1.9 0.6 0.4 0.1 0.9 0.3 1.3 0.4 1 0.3 2 0.6 2.9 0.8 0.4 0.1 0.9 0.2 1.3 0.3 0.7 0.2 1.4 0.3 2 0.5 0.5 0.1 0.9 0.2 1.4 0.3 0.8 0.2 1.5 0.3 2.3 0.4 0.3 0.1 0.7 0.1 1 0.2 1.1 0.2 2.2 0.3 3.3 0.4 0.4 0 0.7 0.1 1.1 0.1 0.8 0.1 1.7 0.1 2.5 0.2 0.4 0 0.7 0 1.1 0.1 1.2 0.1 2.3 0.1 3.5 0.1s2.3 0 3.5-0.1c0.4 0 0.7 0 1.1-0.1 0.8-0.1 1.7-0.1 2.5-0.2 0.4 0 0.7-0.1 1.1-0.1 1.1-0.1 2.2-0.3 3.3-0.4 0.3-0.1 0.7-0.1 1-0.2 0.8-0.1 1.6-0.3 2.3-0.4 0.5-0.1 0.9-0.2 1.4-0.3 0.7-0.1 1.4-0.3 2-0.5 0.4-0.1 0.9-0.2 1.3-0.3 1-0.3 2-0.5 2.9-0.8 0.4-0.1 0.9-0.3 1.3-0.4 0.6-0.2 1.3-0.4 1.9-0.6 0.5-0.2 0.9-0.3 1.3-0.5 0.7-0.3 1.4-0.5 2-0.8 0.3-0.1 0.7-0.3 1-0.4 1-0.4 1.9-0.9 2.9-1.3 0.3-0.2 0.6-0.3 1-0.5 0.7-0.4 1.4-0.7 2.1-1.1 0.3-0.2 0.6-0.3 0.9-0.5 0.9-0.5 1.9-1.1 2.8-1.6 1-0.6 2-1.2 2.9-1.9 0.2-0.1 0.3-0.2 0.5-0.3 0.8-0.6 1.7-1.2 2.5-1.8 0.1-0.1 0.3-0.2 0.4-0.3 1.9-1.4 3.7-2.9 5.4-4.5l0.3-0.3c0.8-0.7 1.5-1.4 2.3-2.2l0.4-0.4c1.6-1.6 3.1-3.3 4.5-5 0.3-0.3 0.5-0.6 0.8-0.9l1.2-1.5c0.3-0.4 0.6-0.8 1-1.3 0.2-0.3 0.5-0.7 0.7-1 3-4.3 5.7-8.9 7.8-13.7h21.8c3.4 0 6.8 0.1 10.2 0.4v240c0 8.5 6.9 15.3 15.3 15.3h138.1c8.5 0 15.3-6.9 15.3-15.3v-92c0-25.8-5.5-50.2-15.3-72.4v-122c0-36.7-29.8-66.5-66.5-66.5h-19.9c25.7-24.8 44.7-56.5 54.2-92z m-453.6-51.2v20.5h-5.1c-19.7 0-35.8-16.1-35.8-35.8s16.1-35.8 35.8-35.8h5.1v51.1z m465.3-51.1c19.7 0 35.8 16.1 35.8 35.8s-16.1 35.8-35.8 35.8h-5.1v-71.6h5.1zM260 327c-2.8 1.1-5.1 0.5-6.6-0.1-2.4-1.1-4.2-3.1-5.2-5.7-2-5.3 0.5-11.5 5.5-13.4 10.3-4.1 23.1-7.9 37.8-11.4 18.7-4.4 40.7-8.3 65.3-11.4 8.4-1.1 14.3-8.8 13.3-17.2-1.1-8.4-8.8-14.3-17.2-13.3-17.7 2.3-34.1 4.9-49.2 7.8v-7c0-87.4 71.1-158.5 158.5-158.5h102.3c87.4 0 158.5 71.1 158.5 158.5v7c-55.8-10.9-130.2-17.2-209.7-17.2-28.6 0-57 0.8-84.2 2.4-8.5 0.5-14.9 7.8-14.4 16.2 0.5 8.5 7.8 14.9 16.2 14.4 26.7-1.6 54.4-2.4 82.4-2.4 86.4 0 166 7.5 220.4 20.1 0.6 0.2 1.3 0.4 2 0.5 14.4 3.4 27 7.2 37.4 11.3 4.9 2 7.5 8.1 5.5 13.4-1.8 5-7.1 7.7-11.8 5.8-47-18.6-146.5-30.7-253.4-30.7-106.9 0.2-206.4 12.3-253.4 30.9z m54 117.6V343.5c50-10.3 122.4-16.6 199.4-16.6s149.5 6.2 199.4 16.6v101.1c0 93.1-75.7 168.8-168.8 168.8h-61.4c-92.9 0-168.6-75.7-168.6-168.8z m245.4 225c0 3.6-0.4 7.1-1.2 10.5-0.1 0.3-0.2 0.7-0.3 1-2.4 9.4-7.7 17.5-14.6 23.5l-0.3 0.3c-0.3 0.3-0.7 0.6-1 0.8-0.2 0.2-0.4 0.3-0.6 0.5-0.3 0.2-0.7 0.5-1 0.7-0.2 0.2-0.4 0.3-0.7 0.5-0.3 0.2-0.7 0.5-1 0.7-0.2 0.1-0.4 0.3-0.7 0.4-0.3 0.2-0.7 0.4-1 0.7-0.2 0.1-0.3 0.2-0.5 0.3-0.8 0.5-1.6 0.9-2.4 1.3-0.1 0.1-0.3 0.1-0.4 0.2l-1.2 0.6c-0.2 0.1-0.4 0.2-0.7 0.3-0.4 0.2-0.8 0.3-1.2 0.5-0.2 0.1-0.5 0.2-0.7 0.3-0.4 0.2-0.8 0.3-1.2 0.4-0.2 0.1-0.5 0.2-0.7 0.3-0.4 0.1-0.8 0.3-1.2 0.4-0.2 0.1-0.5 0.1-0.7 0.2l-2.1 0.6c-0.3 0.1-0.6 0.2-1 0.2-0.3 0.1-0.7 0.1-1 0.2-0.4 0.1-0.7 0.1-1.1 0.2-0.3 0.1-0.6 0.1-1 0.1-0.4 0.1-0.8 0.1-1.2 0.2-0.3 0-0.6 0.1-0.9 0.1-0.5 0-0.9 0.1-1.4 0.1h-0.8c-0.7 0-1.4 0.1-2.2 0.1s-1.5 0-2.2-0.1h-0.8c-0.5 0-0.9-0.1-1.4-0.1-0.3 0-0.6-0.1-0.9-0.1-0.4 0-0.8-0.1-1.2-0.2-0.3 0-0.6-0.1-1-0.1-0.4-0.1-0.7-0.1-1.1-0.2-0.3-0.1-0.7-0.1-1-0.2-0.3-0.1-0.6-0.1-1-0.2l-2.1-0.6c-0.2-0.1-0.5-0.1-0.7-0.2-0.4-0.1-0.8-0.3-1.2-0.4-0.3-0.1-0.5-0.2-0.7-0.3-0.4-0.1-0.8-0.3-1.2-0.4-0.2-0.1-0.5-0.2-0.7-0.3-0.4-0.2-0.8-0.3-1.2-0.5-0.2-0.1-0.4-0.2-0.7-0.3l-1.2-0.6c-0.1-0.1-0.3-0.1-0.4-0.2-0.8-0.4-1.6-0.9-2.4-1.3-0.2-0.1-0.3-0.2-0.5-0.3-0.4-0.2-0.7-0.4-1-0.7-0.2-0.1-0.5-0.3-0.7-0.4-0.3-0.2-0.7-0.5-1-0.7-0.2-0.2-0.4-0.3-0.7-0.5-0.3-0.2-0.7-0.5-1-0.7-0.2-0.2-0.4-0.3-0.6-0.5-0.3-0.3-0.7-0.5-1-0.8l-0.3-0.3c-7-6-12.2-14.1-14.6-23.5-0.1-0.3-0.2-0.7-0.3-1-0.8-3.4-1.2-6.9-1.2-10.5v-26.2c5.1 0.4 10.2 0.6 15.3 0.6h61.4c5.2 0 10.3-0.2 15.3-0.6v26.2zM298.6 925.3H273v-76.7c0-30.8 9.4-59.4 25.6-83.1v159.8z m122.8-255.7c-3.5 0-6.9 0.1-10.3 0.3-0.4-3.9-2.2-7.5-5.2-10.1-3.4-2.9-7.8-4.2-12.2-3.6-32.1 4.6-62.9 17.4-88.9 37-3.9 2.9-6.1 7.4-6.1 12.3v13c-3.5 3.3-7 6.8-10.2 10.4v-74.7c0-19.7 16.1-35.8 35.8-35.8H384c0.3 0 0.7 0 1-0.1 16 9 33.3 15.9 51.7 20.3v30.9h-15.3z m276.1 255.7h-51.1V690.2c18.2 4.7 35.6 12.6 51.1 23.2v211.9z m56.2-76.7v76.7h-25.6V765.5c16.2 23.7 25.6 52.3 25.6 83.1z m-51.1-230.1c19.7 0 35.8 16.1 35.8 35.8V729c-3.3-3.6-6.7-7.1-10.2-10.4v-13c0-4.8-2.3-9.4-6.1-12.3-26-19.6-56.7-32.4-88.9-37-4.4-0.6-8.9 0.7-12.2 3.6-3 2.6-4.8 6.2-5.2 10-3.4-0.2-6.8-0.3-10.3-0.3h-15.3v-30.9c18.3-4.3 35.6-11.2 51.6-20.2h60.8z" fill="#4F3D3B" /><path d="M436.7 449.7c8.5 0 15.3-6.9 15.3-15.3v-20.5c0-8.5-6.9-15.3-15.3-15.3s-15.3 6.9-15.3 15.3v20.5c0 8.5 6.8 15.3 15.3 15.3zM590.1 449.7c8.5 0 15.3-6.9 15.3-15.3v-20.5c0-8.5-6.9-15.3-15.3-15.3-8.5 0-15.3 6.9-15.3 15.3v20.5c0 8.5 6.8 15.3 15.3 15.3zM452.5 507c10.6 24.2 34.5 39.9 60.9 39.9s50.3-15.7 60.9-39.9c3.4-7.8-0.1-16.8-7.9-20.2s-16.8 0.2-20.2 7.9a35.76 35.76 0 0 1-32.8 21.5c-14.2 0-27.1-8.4-32.8-21.5-3.4-7.8-12.4-11.3-20.2-7.9-7.8 3.4-11.3 12.5-7.9 20.2z" fill="#4F3D3B" /></svg>