<?xml version="1.0" standalone="no"?><!DOCTYPE svg PUBLIC "-//W3C//DTD SVG 1.1//EN" "http://www.w3.org/Graphics/SVG/1.1/DTD/svg11.dtd"><svg class="icon" width="200px" height="200.00px" viewBox="0 0 1024 1024" version="1.1" xmlns="http://www.w3.org/2000/svg"><path d="M549.3 702.8c-16 0-29.9-10.8-33.9-26.2-4-15.4 2.9-31.7 16.8-39.4l189.5-105.8c5.2-2.9 11.1-4.4 17.1-4.4 6 0 11.9 1.5 17.1 4.4l49.9 27.8 95.9-55.4c7.2-4.1 9.6-13.4 5.5-20.5l-37.9-65.7c-45.1 9.1-93.1-10.9-117.3-52.9s-17.6-93.5 12.8-128.1L726.9 171c-4.1-7.2-13.4-9.6-20.5-5.5L125.1 501.1c-7.2 4.1-9.6 13.4-5.5 20.5l37.9 65.7c45.1-9.1 93.1 10.9 117.3 52.9s17.6 93.5-12.8 128.1l37.9 65.7c4.1 7.2 13.4 9.6 20.5 5.5L557 702.8h-7.7zM357.8 453.4l269-155.3 50.1 86.8-269 155.3-50.1-86.8z" fill="#FFF370" /><path d="M573.7 444.5l-165.8 95.7-50.1-86.8 269-155.3 50.1 86.8-48.7 28.1" fill="#FF7A51" /><path d="M583.5 838h310.6v50.1H583.5zM645.7 613.9l-96.4 53.8h379L738.8 562l-39.1 21.8M713.7 838V667.7h50.1V838M813.9 738.5v-70.8H864V838h-50.1v-38.8M663.7 767.9V838h-50.1V667.7h50.1v37" fill="#E6EBEF" /><path d="M615.2 420.5c4.1 7.2 13.3 9.7 20.5 5.5l48.7-28.1c7.2-4.1 9.7-13.3 5.5-20.5l-50.1-86.8c-4.1-7.2-13.3-9.7-20.5-5.5l-269 155.3c-3.5 2-6 5.3-7 9.1s-0.5 7.9 1.5 11.4l50.1 86.8c2.8 4.8 7.8 7.5 13 7.5 2.5 0 5.1-0.7 7.5-2l165.8-95.7c7.2-4.1 9.7-13.3 5.5-20.5-4.1-7.2-13.3-9.7-20.5-5.5l-152.8 88.2-35.1-60.7 242.9-140.3 35.1 60.7-35.6 20.6c-7.2 4.2-9.7 13.4-5.5 20.5zM950.6 458.2L898 367.1c-2-3.5-5.3-6-9.1-7-3.9-1-8-0.5-11.4 1.5-13.9 8-30.1 10.2-45.6 6-15.5-4.2-28.5-14.1-36.5-28-16.6-28.7-6.7-65.5 22-82.1 3.5-2 6-5.3 7-9.1s0.5-7.9-1.5-11.4l-52.6-91.1c-8.7-15.1-22.7-25.8-39.5-30.3s-34.4-2.2-49.4 6.5L606 165.5c-7.2 4.1-9.7 13.3-5.5 20.5 4.1 7.2 13.3 9.7 20.5 5.5l75.3-43.4c8.1-4.7 17.6-5.9 26.6-3.5 9 2.4 16.6 8.2 21.3 16.3l45.7 79.2c-33.3 27.5-42.9 75.9-20.6 114.6 12 20.9 31.5 35.8 54.7 42 18.3 4.9 37.3 4 54.8-2.6l45.7 79.2c4.7 8.1 5.9 17.6 3.5 26.6-2.4 9-8.2 16.6-16.3 21.3L858.3 552c-7.2 4.1-9.7 13.3-5.5 20.5 2.8 4.8 7.8 7.5 13 7.5 2.5 0 5.1-0.7 7.5-2l53.5-30.9c15.1-8.7 25.8-22.7 30.3-39.5 4.5-16.7 2.2-34.3-6.5-49.4z" fill="#4F3D3B" /><path d="M562.3 740.3c-4.1-7.2-13.3-9.7-20.5-5.5L452 786.7 439.4 765c-4.1-7.2-13.3-9.7-20.5-5.5-7.2 4.1-9.7 13.3-5.5 20.5l12.5 21.7-95.4 55.1c-8.1 4.7-17.5 5.9-26.6 3.5-9-2.4-16.6-8.2-21.3-16.3l-45.7-79.2c33.3-27.5 42.9-75.9 20.6-114.6-12-20.9-31.5-35.8-54.7-42-18.4-4.9-37.3-4-54.8 2.6l-45.7-79.2c-4.7-8.1-5.9-17.6-3.5-26.6 2.4-9 8.2-16.6 16.3-21.3l95.4-55.1 12.5 21.7c2.8 4.8 7.8 7.5 13 7.5 2.5 0 5.1-0.7 7.5-2 7.2-4.1 9.7-13.3 5.5-20.5l-12.5-21.7 320.3-184.9c7.2-4.1 9.7-13.3 5.5-20.5-4.1-7.2-13.3-9.7-20.5-5.5L100 457.7c-15.1 8.7-25.8 22.7-30.3 39.5s-2.2 34.4 6.5 49.4l52.6 91.1c2 3.5 5.3 6 9.1 7 3.9 1 8 0.5 11.4-1.5 13.9-8 30.1-10.2 45.6-6 15.5 4.2 28.5 14.1 36.5 28 16.6 28.7 6.7 65.5-22 82.1-3.5 2-6 5.3-7 9.1s-0.5 7.9 1.5 11.4l52.6 91.1c8.7 15.1 22.7 25.8 39.5 30.3 5.6 1.5 11.3 2.2 17 2.2 11.3 0 22.4-3 32.5-8.8l211.3-122c7.2-3.9 9.6-13.1 5.5-20.3z" fill="#4F3D3B" /><path d="M342.7 627.6c-7.2 4.1-9.7 13.3-5.5 20.5l38.1 65.9c2.8 4.8 7.8 7.5 13 7.5 2.5 0 5.1-0.7 7.5-2 7.2-4.1 9.7-13.3 5.5-20.5l-38.1-65.9c-4.1-7.2-13.3-9.7-20.5-5.5zM266.6 495.7c-7.2 4.1-9.7 13.3-5.5 20.5l38.1 65.9c2.8 4.8 7.8 7.5 13 7.5 2.5 0 5.1-0.7 7.5-2 7.2-4.1 9.7-13.3 5.5-20.5l-38.1-65.9c-4.2-7.2-13.3-9.6-20.5-5.5zM564.5 530.8L443 600.9c-7.2 4.1-9.7 13.3-5.5 20.5 2.8 4.8 7.8 7.5 13 7.5 2.5 0 5.1-0.7 7.5-2l121.5-70.1c7.2-4.1 9.7-13.3 5.5-20.5-4.2-7.2-13.3-9.7-20.5-5.5zM934.1 873.1h-25V838c0-8.3-6.7-15-15-15h-15V682.8h49.3c6.8 0 12.8-4.6 14.5-11.2 1.7-6.6-1.2-13.6-7.2-16.9L746.1 548.9c-4.5-2.5-10.1-2.5-14.6 0l-39 21.8c-7.2 4-9.8 13.2-5.8 20.4 4 7.2 13.2 9.8 20.4 5.8l31.7-17.7 131.8 73.5H607l46-25.7c7.2-4 9.8-13.2 5.8-20.4-4.1-7.2-13.2-9.8-20.4-5.8L542 654.6c-6 3.3-8.9 10.3-7.2 16.9 1.7 6.6 7.7 11.2 14.5 11.2h49.3V823h-15c-8.3 0-15 6.7-15 15v35.1h-25c-8.3 0-15 6.7-15 15s6.7 15 15 15h90.2c8.3 0 15-6.7 15-15s-6.7-15-15-15h-35.1v-20H764c8.3 0 15-6.7 15-15V682.8h20v55.7c0 8.3 6.7 15 15 15s15-6.7 15-15v-55.7h20V823h-20v-23.8c0-8.3-6.7-15-15-15s-15 6.7-15 15V838c0 8.3 6.7 15 15 15h65v20H693.7c-8.3 0-15 6.7-15 15s6.7 15 15 15h240.4c8.3 0 15-6.7 15-15s-6.7-14.9-15-14.9zM698.7 823h-20v-55.1c0-8.3-6.7-15-15-15s-15 6.7-15 15V823h-20V682.8h20v21.9c0 8.3 6.7 15 15 15s15-6.7 15-15v-21.9h20V823z m50.1 0h-20V682.8h20V823z" fill="#4F3D3B" /></svg>