<?xml version="1.0" standalone="no"?><!DOCTYPE svg PUBLIC "-//W3C//DTD SVG 1.1//EN" "http://www.w3.org/Graphics/SVG/1.1/DTD/svg11.dtd"><svg class="icon" width="200px" height="199.80px" viewBox="0 0 1025 1024" version="1.1" xmlns="http://www.w3.org/2000/svg"><path d="M210.4 260.7S184 273.9 184 300.3s19.8 46.2 6.6 59.5c-13.2 13.2-66.1 66.1-66.1 79.3v13.2l26.4 13.2 26.4 26.4s0 92.5 26.4 118.9c26.4 26.4 145.3 0 145.3 0s66.2 13.2 53 132.1-79.3 171.8-79.3 171.8h211.4S428.4 809 507.7 676.9c0 0 52.8-39.6 66.1-79.3s0-105.7-158.5-118.9c0 0-92.5-13.2-79.3-79.3s26.4-79.3 26.4-92.5-39.6-79.3-152-46.2z" fill="#EFD0C2" /><path d="M133.1 444.1l29.1 9.1s25.4 30.9 30.9 43.6c0 0-10.2 70.3 28.5 106.9 0 0 9.6 14.8 107.8 0.3s106.4 100.1 59.5 244.6-260.6 119.9-319.1 43c0 0-57.9-45.5 0-133.9s12.9-113-16.4-137.1-91-138.1-18.4-218.2S135.4 298 139.7 240.2c0 0 0.6-36-10.3-66.9 0 0-18.2-141.8 172.7-112.7 0 0 7.3 5.5 30.9-9.1s248-56.4 413 73.6c0 0 93.9 69.5 112.2 213.3 0 0-9.5 53.5 48.9 89.6 58.4 36.1 131.4 119.9 53.1 212.5s-208.6 58.8-202.5 154.7c0 0 9.1 77.9 122.1 63.3 0 0 31.8-10.8 30.6-44.5-1.2-33.7-24.5-34.6-59.1-18.2 0 0-28.2-66.1 79.3-66.1 52.8 0 105.3 35.9 92.5 105.7s-23.4 189.3-302.2 159.8c0 0-170.1-17-233.5-125.1s9.5-202 37.5-229.5c28.1-27.5 77.8-93.2-27-131.3 0 0-50.1-15.8-83.9-13.3s-107.5-25.3-88.8-102.3c18.7-77 52.3-94.9-12.7-117.7-65-22.8-135.5-16.7-117.5 39.3s-16 71-16 71-40.5 41.4-45.9 57.8z" fill="#380B04" /></svg>