<?xml version="1.0" standalone="no"?><!DOCTYPE svg PUBLIC "-//W3C//DTD SVG 1.1//EN" "http://www.w3.org/Graphics/SVG/1.1/DTD/svg11.dtd"><svg class="icon" width="200px" height="200.00px" viewBox="0 0 1024 1024" version="1.1" xmlns="http://www.w3.org/2000/svg"><path d="M650.152 929.96c-43.088 0-78.016-34.928-78.016-78.016V752.368H447.856v99.576c0 43.088-34.928 78.016-78.008 78.016h280.304z" fill="#89AAED" /><path d="M689.152 1007.968a39.008 39.008 0 1 0 0-78.008H330.848a39.008 39.008 0 1 0 0 78h358.304zM212.464 55.72a39.68 39.68 0 0 1 39.688-39.68h515.696a39.68 39.68 0 0 1 39.688 39.68V506.48c0 164.056-133.472 297.536-297.536 297.536S212.464 670.536 212.464 506.48V55.72z" fill="#B5CCF8" /><path d="M656.856 179.592h-6.664a66.912 66.912 0 0 0-66.912-66.92H436.736a66.912 66.912 0 0 0-66.912 66.92h-6.68c-45.872 0-83.064 37.184-83.064 83.056s37.192 83.064 83.064 83.064h293.712c45.872 0 83.056-37.192 83.056-83.064 0-45.872-37.184-83.056-83.056-83.056z" fill="#FFFFFF" /><path d="M739.92 262.648V506.48c0 126.976-102.936 229.92-229.92 229.92-126.976 0-229.92-102.944-229.92-229.92V262.648h459.84z" fill="#FF9596" /><path d="M367.184 411.576m-29.032 0a29.032 29.032 0 1 0 58.064 0 29.032 29.032 0 1 0-58.064 0Z" fill="#3F4963" /><path d="M398.24 504.496h-62.112a16.032 16.032 0 0 1 0-32.072h62.12a16.032 16.032 0 0 1 0 32.072z" fill="#FF6376" /><path d="M652.816 411.576m-29.032 0a29.032 29.032 0 1 0 58.064 0 29.032 29.032 0 1 0-58.064 0Z" fill="#3F4963" /><path d="M683.872 504.496h-62.12a16.032 16.032 0 0 1 0-32.072h62.12a16.032 16.032 0 0 1 0 32.072z" fill="#FF6376" /><path d="M481.136 479.792a44.944 44.944 0 0 1-44.896-44.896 16.032 16.032 0 0 1 32.064 0c0 7.072 5.76 12.824 12.832 12.824 7.072 0 12.824-5.752 12.824-12.824a16.032 16.032 0 0 1 32.072 0 44.944 44.944 0 0 1-44.896 44.896z" fill="#3F4963" /><path d="M538.864 479.792a44.944 44.944 0 0 1-44.896-44.896 16.032 16.032 0 0 1 32.064 0c0 7.072 5.76 12.824 12.832 12.824 7.072 0 12.824-5.752 12.824-12.824a16.032 16.032 0 0 1 32.064 0 44.944 44.944 0 0 1-44.888 44.896z" fill="#3F4963" /><path d="M514.768 120.856m-58.728 0a58.728 58.728 0 1 0 117.456 0 58.728 58.728 0 1 0-117.456 0Z" fill="#FF6376" /><path d="M528.128 123.52a16.032 16.032 0 0 1-11.336-27.376l52.736-52.728a16.032 16.032 0 1 1 22.672 22.68l-52.736 52.728a16 16 0 0 1-11.336 4.704z" fill="#725E24" /><path d="M481.136 479.792a44.68 44.68 0 0 0 28.864-10.56 44.688 44.688 0 0 0 28.864 10.56 44.944 44.944 0 0 0 44.896-44.896 16.032 16.032 0 1 0-32.064 0c0 7.072-5.76 12.824-12.832 12.824-7.072 0-12.824-5.752-12.824-12.824a16.032 16.032 0 1 0-32.072 0c0 7.072-5.76 12.824-12.832 12.824-7.072 0-12.824-5.752-12.824-12.824a16.032 16.032 0 1 0-32.072 0 44.936 44.936 0 0 0 44.896 44.896z m342.432 26.688V55.72A55.784 55.784 0 0 0 767.848 0H252.152A55.784 55.784 0 0 0 196.424 55.72V506.48c0 145.92 100.2 268.88 235.4 303.704v41.76c0 34.176-27.8 61.976-61.976 61.976h-39.008a55.104 55.104 0 0 0-55.04 55.04 55.104 55.104 0 0 0 55.04 55.04h358.32a55.104 55.104 0 0 0 55.04-55.04 55.104 55.104 0 0 0-55.04-55.04h-39.016c-34.168 0-61.968-27.8-61.968-61.976v-41.76c135.2-34.824 235.392-157.784 235.392-303.704z m-134.416 439.512a22.992 22.992 0 0 1 22.976 22.968 23 23 0 0 1-22.976 22.968H330.848a22.992 22.992 0 0 1-22.976-22.968 22.992 22.992 0 0 1 22.968-22.968h358.32z m-109.648-32.072H440.496a93.632 93.632 0 0 0 23.392-61.976v-35.288a314.68 314.68 0 0 0 92.216 0v35.288c0 23.728 8.856 45.416 23.4 61.976zM510 787.984c-155.216 0-281.504-126.288-281.504-281.504V55.72A23.68 23.68 0 0 1 252.16 32.08h515.696a23.68 23.68 0 0 1 23.656 23.648V506.48c0 155.224-126.288 281.504-281.504 281.504z m142.816-347.376a29.04 29.04 0 1 0 0-58.072 29.04 29.04 0 0 0 0 58.072z m103.136-177.96c0-51.984-40.248-94.752-91.216-98.784-7.232-37.536-39.864-66.136-79.232-67.176a74.64 74.64 0 0 0-7.792-16.104l14.496-14.496a16.04 16.04 0 0 0-22.68-22.672l-14.496 14.496a74.296 74.296 0 0 0-40.264-11.824c-32.752 0-60.64 21.176-70.72 50.552h-7.312c-40.368 0-74.08 28.976-81.456 67.224-50.976 4.016-91.232 46.784-91.232 98.784V506.48c0 135.616 110.328 245.944 245.952 245.944 135.616 0 245.952-110.328 245.952-245.944V262.64zM514.76 78.16c5.904 0 11.528 1.2 16.64 3.376L516.8 96.16a16.032 16.032 0 1 0 22.672 22.68l14.624-14.616c2.168 5.12 3.376 10.744 3.376 16.64a42.752 42.752 0 0 1-42.704 42.704 42.752 42.752 0 0 1-42.696-42.704 42.744 42.744 0 0 1 42.696-42.696zM363.136 195.624h6.68a16.032 16.032 0 0 0 16.04-16.032 50.936 50.936 0 0 1 50.88-50.88h3.68c3.936 37.552 35.768 66.912 74.344 66.912 38.464 0 70.216-29.192 74.312-66.576 25.336 2.88 45.088 24.448 45.088 50.544 0 8.856 7.176 16.032 16.032 16.032h6.664c31.432 0 57.864 21.752 65.072 50.984H298.072c7.2-29.232 33.64-50.984 65.064-50.984z m360.744 310.848c0 117.936-95.944 213.888-213.88 213.888-117.936 0-213.88-95.952-213.88-213.888V278.68h427.76V506.48z m-356.696-65.864a29.04 29.04 0 1 0 0-58.072 29.04 29.04 0 0 0 0 58.072z" fill="#000000" /></svg>