<?xml version="1.0" standalone="no"?><!DOCTYPE svg PUBLIC "-//W3C//DTD SVG 1.1//EN" "http://www.w3.org/Graphics/SVG/1.1/DTD/svg11.dtd"><svg class="icon" width="200px" height="170.10px" viewBox="0 0 1204 1024" version="1.1" xmlns="http://www.w3.org/2000/svg"><path d="M0 0m84.453608 0l1035.23233 0q84.453608 0 84.453608 84.453608l0 669.801567q0 84.453608-84.453608 84.453609l-1035.23233 0q-84.453608 0-84.453608-84.453609l0-669.801567q0-84.453608 84.453608-84.453608Z" fill="#D6E0E8" /><path d="M47.716289 33.190268m84.453608 0l939.799752 0q84.453608 0 84.453609 84.453608l0 603.421031q0 84.453608-84.453609 84.453608l-939.799752 0q-84.453608 0-84.453608-84.453608l0-603.421031q0-84.453608 84.453608-84.453608Z" fill="#8DDFFF" /><path d="M712.112825 955.001402H492.026722l19.67769-116.292618h180.730722l19.677691 116.292618z" fill="#244F60" /><path d="M693.533031 838.708784h-33.274722l17.650804 116.292618h33.190268l-17.56635-116.292618z" fill="#19355E" opacity=".47" /><path d="M413.82268 955.001402h376.663093a68.998598 68.998598 0 0 1 68.998598 68.998598h-515.16701a68.998598 68.998598 0 0 1 69.505319-68.998598z" fill="#2E5A70" /><path d="M790.485773 955.001402h-41.466721a68.914144 68.914144 0 0 1 68.914144 68.914144h41.551175a68.914144 68.914144 0 0 0-68.998598-68.914144z" fill="#19355E" opacity=".47" /><path d="M602.069773 780.604701m-24.913814 0a24.913814 24.913814 0 1 0 49.827629 0 24.913814 24.913814 0 1 0-49.827629 0Z" fill="#FFFFFF" /><path d="M1133.53633 755.690887v-41.551176H0v41.551176a83.017897 83.017897 0 0 0 83.017897 83.017897h967.500536a83.017897 83.017897 0 0 0 83.017897-83.017897z" fill="#2E5A70" /><path d="M1167.48668 824.520577a78.457402 78.457402 0 0 1-14.103752 7.685279 78.457402 78.457402 0 0 0 14.103752-7.685279zM1203.717278 764.136247a77.866227 77.866227 0 0 1-3.378144 16.215093 77.866227 77.866227 0 0 0 3.378144-16.215093zM1121.037196 0h-70.518763a83.017897 83.017897 0 0 1 83.017897 83.017897v631.121814h70.603216V83.017897A83.102351 83.102351 0 0 0 1121.037196 0zM1173.905155 819.791175a84.453608 84.453608 0 0 0 20.184412-24.491546 84.453608 84.453608 0 0 1-20.184412 24.491546z" fill="#F0F5FF" opacity=".33" /><path d="M1133.53633 755.690887a83.017897 83.017897 0 0 1-83.017897 83.017897h70.518763a82.257814 82.257814 0 0 0 32.345732-6.502928 78.457402 78.457402 0 0 0 14.103752-7.685279 69.75868 69.75868 0 0 0 6.418475-4.729402 84.453608 84.453608 0 0 0 20.184412-24.491546 83.355711 83.355711 0 0 0 6.249567-14.948289 77.866227 77.866227 0 0 0 3.378144-16.215093c0-2.786969 0.422268-5.573938 0.422268-8.44536v-41.551176h-70.603216z" fill="#0459A5" /><path d="M1133.53633 755.690887a83.017897 83.017897 0 0 1-83.017897 83.017897h70.518763a82.257814 82.257814 0 0 0 32.345732-6.502928 78.457402 78.457402 0 0 0 14.103752-7.685279 69.75868 69.75868 0 0 0 6.418475-4.729402 84.453608 84.453608 0 0 0 20.184412-24.491546 83.355711 83.355711 0 0 0 6.249567-14.948289 77.866227 77.866227 0 0 0 3.378144-16.215093c0-2.786969 0.422268-5.573938 0.422268-8.44536v-41.551176h-70.603216z" fill="#153D4C" /><path d="M583.321072 383.166021c0 114.688-68.914144 213.498722-202.68866 213.498721-129.382928 0-197.114722-93.996866-197.114721-212.147464 0-119.924124 74.825897-212.06301 202.68866-212.06301 120.515299 0 197.114722 84.538062 197.114721 210.711753z m-307.833402 0c0 80.484289 35.386062 141.37534 108.438433 141.37534 79.301938 0 107.340536-66.380536 107.340536-139.855175 0-78.372948-31.923464-139.770722-108.776247-139.770722-74.488082 0-107.002722 57.597361-107.002722 137.828289zM731.368247 495.48932l-32.176824 95.179216H611.528577L751.637113 178.450474h111.901031l146.104743 412.218062h-93.743506l-33.781443-95.179216zM862.778062 422.268041c-29.305402-87.07167-47.969649-142.642144-57.935175-179.717278h-0.591176C793.863918 283.426309 773.510598 348.03332 750.032495 422.268041z" fill="#FF9831" /></svg>