<?xml version="1.0" standalone="no"?><!DOCTYPE svg PUBLIC "-//W3C//DTD SVG 1.1//EN" "http://www.w3.org/Graphics/SVG/1.1/DTD/svg11.dtd"><svg class="icon" width="200px" height="200.00px" viewBox="0 0 1024 1024" version="1.1" xmlns="http://www.w3.org/2000/svg"><path d="M149.4 901.544l-38.48-149.36L468.688 48.496c11.104-21.616 25.744-32.432 40.376-32.44 14.64 0.008 29.28 10.824 40.376 32.44l357.784 703.696-38.48 149.36h-719.36z" fill="#FFD553" /><path d="M377.72 524.536c66.048 0 119.6-53.648 119.6-119.832s-53.552-119.832-119.6-119.832c-10.848 0-21.344 1.472-31.336 4.184l-80.456 158.24c17.144 45.152 60.72 77.24 111.792 77.24zM584.08 121.408c0-1.688-0.056-3.36-0.128-5.04l-34.512-67.872c-11.104-21.616-25.736-32.432-40.376-32.44-14.64 0.008-29.272 10.824-40.376 32.44L385.776 211.584a118.976 118.976 0 0 0 78.72 29.656c66.048 0 119.592-53.656 119.592-119.832z m-37.52 237.12c0 66.184 53.544 119.84 119.6 119.84 32.832 0 62.568-13.28 84.184-34.744L646.96 240.264c-56.912 9.208-100.384 58.648-100.384 118.272zM471.52 760.24c-66.048 0-119.6 53.656-119.6 119.832 0 7.336 0.704 14.512 1.96 21.48h235.28c1.264-6.968 1.96-14.144 1.96-21.48 0-66.176-53.552-119.832-119.6-119.832zM265.48 545.52c-20.552 0-39.88 5.192-56.776 14.336L146.968 681.28c7.784 58.64 57.856 103.896 118.512 103.896 66.048 0 119.6-53.648 119.6-119.832 0-66.176-53.552-119.832-119.6-119.832z m543.984 14.376a118.888 118.888 0 0 0-56.848-14.376c-66.048 0-119.592 53.648-119.592 119.824 0 66.176 53.544 119.832 119.6 119.832 60.68 0 110.768-45.296 118.512-103.976l-61.68-121.304z" fill="#FF6376" /><path d="M509.064 1007.944h-0.008c-160.248 0-319-39.176-460-113.384-8.96-4.72-8.928-12.08-6.704-16l68.52-126.376c121.384 66.064 259.08 100.992 398.192 100.992h-0.016c139.12 0 276.808-34.92 398.192-100.992l68.52 126.384c2.232 3.912 2.264 11.28-6.704 16-141 74.208-299.752 113.376-460 113.376z" fill="#FDBA55" /><path d="M263.976 622.96a28.168 28.112 90 1 0 56.224 0 28.168 28.112 90 1 0-56.224 0Z" fill="#3F4963" /><path d="M697.896 622.96a28.168 28.112 90 1 0 56.224 0 28.168 28.112 90 1 0-56.224 0Z" fill="#3F4963" /><path d="M322.168 721.92h-60.16a16.04 16.04 0 0 1-16.016-16.064c0-8.872 7.176-16.056 16.024-16.056h60.144c8.856 0 16.032 7.192 16.032 16.056a16.04 16.04 0 0 1-16.024 16.064zM756.08 721.92h-60.152a16.048 16.048 0 0 1-16.024-16.064c0-8.872 7.176-16.056 16.024-16.056h60.152c8.848 0 16.032 7.192 16.032 16.056a16.048 16.048 0 0 1-16.032 16.064z" fill="#FF9596" /><path d="M473.84 702.448c-28.24 0-51.224-23.016-51.224-51.32 0-8.872 7.176-16.064 16.032-16.064 8.848 0 16.024 7.192 16.024 16.064a19.208 19.208 0 0 0 19.168 19.2 19.216 19.216 0 0 0 19.176-19.2c0-8.872 7.176-16.064 16.032-16.064 8.848 0 16.024 7.192 16.024 16.064 0 28.296-22.976 51.32-51.224 51.32z" fill="#3F4963" /><path d="M544.248 702.448c-28.24 0-51.224-23.016-51.224-51.32 0-8.872 7.176-16.064 16.024-16.064s16.024 7.192 16.024 16.064a19.208 19.208 0 0 0 19.176 19.2 19.208 19.208 0 0 0 19.168-19.2c0-8.872 7.176-16.064 16.032-16.064 8.848 0 16.024 7.192 16.024 16.064 0 28.296-22.976 51.32-51.224 51.32z" fill="#3F4963" /><path d="M989.776 870.792l-68.368-126.104L563.704 41.152C545.32 5.36 521.592 0 509.064 0c-12.504 0-36.232 5.36-54.64 41.2L97 744.16l-0.224 0.36-68.456 126.272c-3.36 6-4.152 13.28-2.192 20.024 1.544 5.288 5.48 12.704 15.472 17.96C184.824 984.16 346.464 1024 509.04 1024c162.6 0 324.24-39.84 467.448-115.224 10-5.256 13.936-12.672 15.472-17.96a26.224 26.224 0 0 0-2.192-20.032zM482.96 55.84c7.624-14.856 17.4-23.728 26.12-23.728 8.728 0 18.496 8.872 26.096 23.664l350.624 689.6c-115.632 60.04-245.528 91.728-376.736 91.728-131.2 0-261.088-31.68-376.704-91.712L482.952 55.848z m26.104 936.032c-156.504 0-312.08-38.112-450.12-110.264l58.448-107.792c120.216 62.464 255.28 95.408 391.68 95.408 136.392 0 271.448-32.944 391.664-95.408l58.44 107.792c-138.04 72.152-293.6 110.264-450.112 110.264zM292.096 594.8a28.136 28.136 0 0 0-28.12 28.16 28.144 28.144 0 0 0 28.112 28.176 28.144 28.144 0 0 0 28.12-28.168 28.144 28.144 0 0 0-28.12-28.168z m433.912 56.336a28.144 28.144 0 0 0 28.112-28.168 28.144 28.144 0 0 0-28.112-28.168 28.144 28.144 0 0 0-28.12 28.16 28.144 28.144 0 0 0 28.12 28.176z m-130.528-0.008a16.04 16.04 0 0 0-16.032-16.064 16.04 16.04 0 0 0-16.024 16.064 19.216 19.216 0 0 1-19.176 19.2 19.208 19.208 0 0 1-19.168-19.2 16.04 16.04 0 0 0-16.032-16.064 16.04 16.04 0 0 0-16.024 16.064 19.216 19.216 0 0 1-19.176 19.2 19.208 19.208 0 0 1-19.168-19.2 16.04 16.04 0 0 0-16.024-16.064 16.04 16.04 0 0 0-16.032 16.064c0 28.296 22.984 51.32 51.224 51.32 13.632 0 26.016-5.36 35.2-14.088a50.968 50.968 0 0 0 35.2 14.088c28.24 0 51.232-23.024 51.232-51.32z" fill="#000000" /></svg>