<?xml version="1.0" standalone="no"?><!DOCTYPE svg PUBLIC "-//W3C//DTD SVG 1.1//EN" "http://www.w3.org/Graphics/SVG/1.1/DTD/svg11.dtd"><svg class="icon" width="200px" height="200.00px" viewBox="0 0 1024 1024" version="1.1" xmlns="http://www.w3.org/2000/svg"><path d="M697.319616 189.028181c-8.208831 7.427038-18.087858 9.405212-29.613388 5.922678-47.144514-134.444783-174.126724-242.00061-275.99678-65.267909-12.710066 22.115278-25.34906 44.183175-37.905137 66.215537l-29.613389-6.870306c23.927618-45.604618 47.736782-97.131914 83.272849-131.483445 130.891177-126.745302 240.223807 4.619689 289.855845 131.483445z" fill="#FDDD44" /><path d="M667.706228 194.950859l-71.072132 21.677c-9.867181-8.599728-15.955694-19.615908-18.241848-33.048542l-3.316699-49.632039c-0.225062-4.406472-1.539896-8.137759-3.67206-10.423912-13.740612-14.925148-31.982459-19.426383-54.725542-13.503705l-43.354001 2.487524c-16.109683 0.947628-24.247442 10.305459-24.401432 28.073492l-0.35536 45.486165c-2.842885 13.586623-9.748727 23.773628-20.729372 30.561017l-74.033471-20.729372c12.556077-22.032361 25.195071-44.100258 37.905137-66.215537 101.870056-176.732702 228.852266-69.176875 275.99678 65.267909z" fill="#FFFFFF" /><path d="M516.677947 110.019661l8.884017 76.047181a186.007615 186.007615 0 0 1-76.99481 0l0.35536-45.486165c0.15399-17.768033 8.291749-27.125864 24.401432-28.073492l43.354001-2.487524z" fill="#FCA863" /><path d="M516.677947 110.019661c22.743082-5.922678 40.98493-1.421443 54.725542 13.503705 2.132164 2.286154 3.446998 6.017441 3.67206 10.423912l3.316699 49.632039c-11.051717 6.32542-25.50305 7.34412-43.354 3.079793l-9.476284-0.592268-8.884017-76.047181z" fill="#FC9743" /><path d="M324.190922 189.028181l29.613389 6.870306 74.033471 20.729372c12.236252 6.633399 16.026766 17.3416 11.371541 32.100913l-91.32769-23.216897-35.536066-5.922677c-56.300974-5.756843-97.641264-5.756843-124.020871 0-157.543226 34.588438-95.473564 181.707751-27.00741 266.520495-3.707596 11.063562-10.15147 18.478754-19.307929 22.269268-38.769848-45.557237-62.626394-85.00227-71.545946-118.3351-52.356471-194.856096 112.767783-214.519386 253.727511-201.01568z" fill="#5169CC" /><path d="M578.392248 183.579317c2.286154 13.432633 8.374666 24.448813 18.241848 33.048542-12.402087 10.187006-12.402087 20.066032 0 29.613388-10.423913 9.950099-13.385252 21.487475-8.884017 34.588438l-8.884016 0.947628-41.458744-6.870306-2.369071-88.247897c17.850951 4.264328 32.302284 3.245627 43.354-3.079793z" fill="#A8D3D8" /><path d="M448.567154 186.066842c25.668885 5.377791 51.325925 5.377791 76.99481 0l9.476284 0.592268 2.369071 88.247897-88.840165 3.908967-2.961339-0.947628-6.396492-29.139574c4.655225-14.759313 0.864711-25.467514-11.371541-32.100913 10.980644-6.787389 17.886487-16.974394 20.729372-30.561017z" fill="#DDEBF0" /><path d="M883.883963 514.775453c-12.875901 2.534906-18.952569 10.589748-18.241847 24.164525a248.148349 248.148349 0 0 0-65.149455 65.149455l-2.487524-0.473815a68.442463 68.442463 0 0 0-26.65205-19.781743l71.545947-71.545946c9.950099-6.313574 15.718787-15.043601 17.294218-26.178236 65.149454-63.728012 135.155505-224.587938-2.842885-261.782353-47.381421-12.710066-97.759718-13.302334-151.146734-1.776803l-23.690711 2.961338-85.878826 20.729372c-12.402087-9.547356-12.402087-19.426383 0-29.613388l71.072132-21.677c11.525531 3.482534 21.404557 1.50436 29.613388-5.922678 259.176375-30.087203 348.845715 110.99098 186.564347 325.747272z" fill="#28D1B3" /><path d="M312.345567 219.589198l-15.280508 76.520995-29.139575 0.473815c-29.850296-17.175765-67.163165-51.882656-87.063361 4.501235-13.029891 15.244972-22.269268 33.013005-27.718132 53.304099-2.902112 10.909572 2.084783 22.754928 12.31917 29.258027l40.274208 25.467514 12.319169 23.216897-56.739252 53.777913c-68.466154-84.812744-130.535816-231.932058 27.00741-266.520495 26.379606-5.756843 67.719897-5.756843 124.020871 0zM860.193252 486.109693l-50.816574-53.777913 9.357831-20.255558c30.087203-19.781743 87.774083-43.235547 38.02359-89.313979-5.602853-16.583498-14.960684-31.579717-28.073492-45.012351-7.592873-7.782398-19.047331-9.642119-27.718131-4.501235l-44.420083 26.296689c-11.217552 5.377791-21.238722 5.211956-30.087203-0.473814a203.112308 203.112308 0 0 0-20.255557-76.520995c53.387017-11.525531 103.765313-10.933263 151.146734 1.776803 137.99839 37.194416 67.99234 198.054342 2.842885 261.782353z" fill="#FFFFFF" /><path d="M312.345567 219.589198l35.536066 5.922677-26.652049 87.892537c-11.762438-0.864711-19.81728-6.633399-24.164525-17.294219l15.280508-76.520995zM706.203633 222.550537a203.112308 203.112308 0 0 1 20.255557 76.520995c-4.584153 10.897727-12.16518 14.854076-22.743082 11.845355l-21.203186-85.405012 23.690711-2.961338z" fill="#FDDD44" /><path d="M347.881633 225.511875l91.32769 23.216897 6.396492 29.139574-94.762843 51.290389c-12.236252-1.101618-22.115278-6.34911-29.613388-15.754323l26.652049-87.892537zM682.512922 225.511875l21.203186 85.405012c-5.531781 11.537376-14.569787 18.597208-27.125864 21.203187l-88.840165-51.290389c-4.501235-13.100963-1.539896-24.638339 8.884017-34.588438l85.878826-20.729372z" fill="#FFFFFF" /><path d="M267.925484 296.584008l-15.280508 35.062251-2.961339 5.922678c-3.873431 3.079792-8.374666 3.719442-13.503705 1.895257-22.589093-7.817935-41.020466-20.610918-55.317809-38.378951 19.900197-56.383892 57.213066-21.677 87.063361-4.501235z" fill="#FC9743" /><path d="M856.758099 322.762243a152.473414 152.473414 0 0 0-59.226776 47.381421l-2.487525-0.473814a259.744952 259.744952 0 0 1-38.497405-70.124504l44.420083-26.296689c8.6708-5.140884 20.125259-3.281163 27.718131 4.501235 13.112808 13.432633 22.470639 28.428853 28.073492 45.012351z" fill="#FCA863" /><path d="M537.407319 274.907007l41.458744 6.870306 0.473814 26.178236a281.279808 281.279808 0 0 0-0.473814 91.327689l-47.262968 25.112154-8.528656-96.539646a6.929533 6.929533 0 0 0-6.396492-6.278039l-67.636979-4.738142-3.435153-3.435153 2.961339-34.588438 88.840165-3.908967z" fill="#F8C52D" /><path d="M445.605815 277.868346l2.961339 0.947628-2.961339 34.588438a219.494435 219.494435 0 0 0-71.545947 41.932558l-23.216896-12.319169v-13.859066l94.762843-51.290389z" fill="#28D1B3" /><path d="M578.866063 281.777313l8.884016-0.947628 88.840165 51.290389 2.487525 11.371541-25.704421 11.845355-74.033471-47.381421z" fill="#5169CC" /><path d="M267.925484 296.584008l29.139575-0.473815c4.347245 10.66082 12.402087 16.429508 24.164525 17.294219 7.49811 9.405212 17.377136 14.652705 29.613388 15.754323v13.859066l-29.139574 44.893896c1.539896-25.467514-35.65452-39.089673-55.080903-48.210596-2.01371-0.900247-5.591008-0.947628-9.831645-0.118454-3.636524 0.710721-5.010585-1.930793-4.145874-7.936388l15.280508-35.062251z" fill="#A8D3D8" /><path d="M180.862123 301.085243c14.297344 17.768033 32.728717 30.561017 55.317809 38.378951 5.129039 1.824185 9.630274 1.184536 13.503705-1.895257a297.034131 297.034131 0 0 1-43.946268 71.545946l-40.274208-25.467514c-10.234387-6.5031-15.221282-18.348455-12.31917-29.258027 5.448863-20.291094 14.688241-38.059127 27.718132-53.304099z" fill="#FCA863" /><path d="M726.45919 299.071532c8.84848 5.685771 18.869651 5.851606 30.087203 0.473814a259.744952 259.744952 0 0 0 38.497405 70.124504c-18.15893 25.668885-42.84465 40.795404-74.033471 45.367711l-41.932558-71.545946-2.487525-11.371541c12.556077-2.605978 21.594083-9.66581 27.125864-21.203187 10.577902 3.00872 18.15893-0.947628 22.743082-11.845355z" fill="#DDEBF0" /><path d="M579.339877 307.955549l74.033471 47.381421-9.357831 6.396492-65.149454 37.549776a281.279808 281.279808 0 0 1 0.473814-91.327689zM445.605815 313.404412l3.435153 3.435153-0.947629 79.956149-74.033471-41.458744a219.494435 219.494435 0 0 1 71.545947-41.932558z" fill="#FFFFFF" /><path d="M449.040968 316.839565l67.636979 4.738142a6.929533 6.929533 0 0 1 6.396492 6.278039l8.528656 96.539646c-1.895257 7.900852-8.682645 11.537376-20.374011 10.897727l-63.135745-38.497405 0.947629-79.956149z" fill="#FDDD44" /><path d="M856.758099 322.762243c49.750493 46.078432-7.936388 69.532236-38.02359 89.313979l-21.203186-41.932558a152.473414 152.473414 0 0 1 59.226776-47.381421z" fill="#FC9743" /><path d="M252.644976 331.646259c-0.864711 6.005595 0.50935 8.647109 4.145874 7.936388 4.240637-0.829175 7.817935-0.781793 9.831645 0.118454 19.426383 9.120924 56.620799 22.743082 55.080903 48.210596l-33.522356 68.110794-13.859066 2.961338c-7.735017-10.731892-17.768033-13.859066-30.087202-9.35783-3.944503-12.556077-12.67453-18.312919-26.178236-17.294219l-12.319169-23.216897a297.034131 297.034131 0 0 0 43.946268-71.545946l2.961339-5.922678z" fill="#DDEBF0" /><path d="M350.842972 343.017801l23.216896 12.319169 74.033471 41.458744 63.135745 38.497405-44.893897 30.087202-98.197996-54.370181a11.786129 11.786129 0 0 0-15.754323 4.264328l-34.114623 56.028531-11.845356-2.961339-18.241847-12.319169 33.522356-68.110794 29.139574-44.893896z" fill="#3351C5" /><path d="M679.077769 343.491615l41.932558 71.545946 14.806694 43.472454-14.806694 12.792984a255.409552 255.409552 0 0 0-74.507285 40.98493l-132.786434 76.520995-68.110793 38.497405-71.545947 41.932558-29.613388 17.768033-23.216896 14.33288-23.690711 9.831645-14.806694-39.445033v-10.897727l389.475284-227.66773a6.704471 6.704471 0 0 0 2.961339-8.64711l-31.153285-62.780383 9.357831-6.396492 25.704421-11.845355z" fill="#22B69F" /><path d="M644.015517 361.733462l31.153285 62.780383c1.480669 3.091638 0.189526 6.870306-2.961339 8.64711l-389.475284 227.66773a189.051872 189.051872 0 0 0-53.304099-57.213067v-4.975049a70.041586 70.041586 0 0 0 32.574727-14.806694l15.280508-12.31917 29.139574-15.280508 79.956149-46.433793 79.956149-44.420083 44.893897-30.087202c11.691366 0.639649 18.478754-2.996875 20.374011-10.897727l47.262968-25.112154 65.149454-37.549776z" fill="#28D1B3" /><path d="M795.043798 369.66985l2.487525 0.473814 21.203186 41.932558-9.357831 20.255558c-16.50058 1.184536-23.252433 8.931398-20.255558 23.216896-13.657695-5.211956-26.49806-3.908967-38.497405 3.908968l-14.806694-0.947629-14.806694-43.472454c31.188821-4.572307 55.874541-19.698826 74.033471-45.367711z" fill="#A8D3D8" /><path d="M466.335187 465.380321l-79.956149 44.420083-68.110793-38.497405 34.114623-56.028531a11.786129 11.786129 0 0 1 15.754323-4.264328l98.197996 54.370181z" fill="#5169CC" /><path d="M218.056538 432.33178c13.503705-1.018701 22.233732 4.738142 26.178236 17.294219a305.562787 305.562787 0 0 0-59.700591 62.66193c-12.236252 4.264328-18.988105 12.994355-20.255558 26.178235-28.109028 28.120874-49.750493 62.744847-64.912547 103.883766-58.98987 160.030751 118.927368 181.470844 221.863506 160.623019l23.69071-3.908967 103.173045-29.139574 0.473815 26.178235-8.884017 8.884017-79.956149 21.677-32.574727 5.922678c-121.888707 21.558547-325.628819-14.33288-255.385861-196.751353 16.583498-43.034176 40.001765-85.523466 70.242957-127.456024 9.15646-3.790514 15.600333-11.205706 19.307929-22.269268l56.739252-53.777913z" fill="#28D1B3" /><path d="M809.376678 432.33178l50.816574 53.777913c-1.575432 11.134634-7.34412 19.864661-17.294218 26.178236l-53.777914-56.739253c-2.996875-14.285499 3.754978-22.032361 20.255558-23.216896z" fill="#5169CC" /><path d="M274.321976 458.983829l2.961339 112.530876-15.280508 12.31917a276.612738 276.612738 0 0 1-77.468624-71.545946c16.903322-23.690711 36.803519-44.574072 59.700591-62.66193 12.31917-4.501235 22.352186-1.374061 30.087202 9.35783z" fill="#FFFFFF" /><path d="M288.181042 456.022491l18.241847 12.319169c-4.027421 29.376481-4.027421 58.68189 0 87.892537l-29.139574 15.280508-2.961339-112.530876 13.859066-2.961338z" fill="#FDDD44" /><path d="M789.12112 455.548676l53.777914 56.739253-71.545947 71.545946-24.164525-12.31917 3.435153-112.057061c11.999345-7.817935 24.83971-9.120924 38.497405-3.908968z" fill="#FFFFFF" /><path d="M750.623715 459.457644l-3.435153 112.057061-32.100913-18.241847c6.787389-26.841575 8.765563-54.16881 5.922678-81.969859l14.806694-12.792984 14.806694 0.947629z" fill="#FDDD44" /><path d="M306.422889 468.34166l11.845356 2.961339 68.110793 38.497405-79.956149 46.433793c-4.027421-29.210646-4.027421-58.516055 0-87.892537zM721.010327 471.302999c2.842885 27.801049 0.864711 55.128284-5.922678 81.969859l-68.584607-40.984929a255.409552 255.409552 0 0 1 74.507285-40.98493z" fill="#FFFFFF" /><path d="M184.534183 512.287929a276.612738 276.612738 0 0 0 77.468624 71.545946 70.041586 70.041586 0 0 1-32.574727 14.806694l-65.149455-60.174405c1.267453-13.183881 8.019306-21.913907 20.255558-26.178235z" fill="#5169CC" /><path d="M646.503042 512.287929l68.584607 40.984929 32.100913 18.241847 24.164525 12.31917a68.442463 68.442463 0 0 1 26.65205 19.781743l-32.574727 24.63834c-28.310399 12.911437-36.365241-7.699481-55.080903-18.715662a1026.68433 1026.68433 0 0 0-75.454913-40.629569 10.897727 10.897727 0 0 0-10.423913 0.473814l-66.33399 41.103384-44.420083-21.677001 132.786434-76.520995z" fill="#3351C5" /><path d="M883.883963 514.775453c94.289029 111.227887 142.144264 274.693791-47.381421 320.416863-28.345935 6.870306-75.727357 6.005595-142.144265-2.605978l-26.652049-5.922678-79.956149-21.677-11.845355-14.806695 3.435153-20.255557 103.173045 29.139574 26.65205 2.961339c214.282478 34.351531 302.056562-90.616969 156.477144-263.085343-0.710721-13.574777 5.365946-21.629619 18.241847-24.164525z" fill="#5169CC" /><path d="M164.278625 538.466164l65.149455 60.174405v4.975049a167.83684 167.83684 0 0 0-43.946269 53.777914 161.629874 161.629874 0 0 1-24.9937 33.048541c-49.395132 50.105853 41.695651 38.852766 63.017291 31.627099l70.598318-5.448863a319.587688 319.587688 0 0 0 27.125864 86.35264c-102.936138 20.847825-280.853376-0.592268-221.863506-160.623019 15.162055-41.138919 36.803519-75.762893 64.912547-103.883766zM865.642116 538.939978c145.579417 172.468374 57.805334 297.436873-156.477144 263.085343l21.203186-82.443674h73.085842l53.067192 11.134634c3.399617 0.675185 7.379656-0.450124 10.897727-3.079792 26.415142-19.781743-13.385252-53.422553-25.467514-70.242957l-41.458744-53.304099a248.148349 248.148349 0 0 1 65.149455-65.149455z" fill="#FFFFFF" /><path d="M765.43041 628.253958v2.01371c-18.715661 24.48435-30.407027 52.285399-35.062252 83.391302l-23.690711-14.806694-21.203186-12.31917-32.100913-20.255558-74.507285-40.984929-20.729372-14.806694 66.33399-41.103384a10.897727 10.897727 0 0 1 10.423913-0.473814 1026.68433 1026.68433 0 0 1 75.454913 40.629569c18.715661 11.01618 26.770503 31.627099 55.080903 18.715662z" fill="#5169CC" /><path d="M513.716608 588.808924l44.420083 21.677001 20.729372 14.806694 0.473814 88.366351c-4.347245 11.063562-4.347245 21.913907 0 32.574727v23.690711l-3.435153 20.255557c-10.980644 1.741267-21.677-0.071072-32.100913-5.448863l-6.396492-3.435153-3.079793-2.605978a10.400222 10.400222 0 0 1-3.790513-6.870306c-2.842885-21.677 3.67206-126.745302-14.33288-136.813855-2.902112-1.551742-6.740007-0.829175-9.476284 1.776803-16.192601 15.481879-35.417613 24.365896-57.686881 26.65205l-3.435153-36.128334 68.110793-38.497405z" fill="#F8C52D" /><path d="M229.42808 603.615618a189.051872 189.051872 0 0 1 53.304099 57.213067v10.897727l-71.072133 18.715661-26.178235-33.048541a167.83684 167.83684 0 0 1 43.946269-53.777914z" fill="#FCDBBE" /><path d="M798.005137 603.615618l2.487524 0.473815 41.458744 53.304099a79.269118 79.269118 0 0 0-28.66576 35.536066 150.222797 150.222797 0 0 0-47.855235-62.66193v-2.01371l32.574727-24.63834z" fill="#FCC99F" /><path d="M578.866063 625.292619l74.507285 40.984929a309.448063 309.448063 0 0 1-74.033471 47.381422l-0.473814-88.366351zM445.605815 627.306329l3.435153 36.128334-3.908967 47.262968-71.072133-41.458744z" fill="#FFFFFF" /><path d="M765.43041 630.267668a150.222797 150.222797 0 0 1 47.855235 62.66193l-9.831645 26.652049h-73.085842v-5.922677c4.655225-31.105903 16.34659-58.906952 35.062252-83.391302z" fill="#FCDBBE" /><path d="M537.407319 781.295949c-29.767378-6.313574-56.857706-1.018701-81.259138 15.872776a5.034276 5.034276 0 0 1-4.975049 0.236907l-2.605978-1.302989-0.473815-26.178235v-20.729372l-2.961338-38.497405 3.908967-47.262968c22.269268-2.286154 41.49428-11.17017 57.686881-26.65205 2.736277-2.605978 6.574172-3.328545 9.476284-1.776803 18.00494 10.068552 11.489995 115.136854 14.33288 136.813855a10.400222 10.400222 0 0 0 3.790513 6.870306l3.079793 2.605978z" fill="#FDDD44" /><path d="M185.481811 657.393532l26.178235 33.048541 11.845356 31.627099c-21.32164 7.225667-112.412422 18.478754-63.017291-31.627099a161.629874 161.629874 0 0 0 24.9937-33.048541zM841.951405 657.393532c12.082262 16.820405 51.882656 50.461214 25.467514 70.242957-3.518071 2.629669-7.49811 3.754978-10.897727 3.079792l-53.067192-11.134634 9.831645-26.652049a79.269118 79.269118 0 0 1 28.66576-35.536066z" fill="#685E67" /><path d="M653.373348 666.277548l32.100913 20.255558-106.134384 59.700591c-4.347245-10.66082-4.347245-21.511165 0-32.574727a309.448063 309.448063 0 0 0 74.033471-47.381422z" fill="#28D1B3" /><path d="M374.059868 669.238887l71.072133 41.458744 2.961338 38.497405-103.646859-62.188116z" fill="#5169CC" /><path d="M282.732179 671.726412l14.806694 39.445033-3.435153 5.448864-70.598318 5.448863-11.845356-31.627099z" fill="#FCC99F" /><path d="M344.44648 687.00692l103.646859 62.188116v20.729372l-103.173045 29.139574-23.69071-97.724182zM685.474261 686.533106l21.203186 12.31917-24.164525 100.211706-103.173045-29.139574v-23.690711z" fill="#FFFFFF" /><path d="M706.677447 698.852276l23.690711 14.806694v5.922677l-21.203186 82.443674-26.65205-2.961339zM321.229584 701.3398l23.69071 97.724182-23.69071 3.908967a319.587688 319.587688 0 0 1-27.125864-86.35264l3.435153-5.448864 23.690711-9.831645z" fill="#FDDD44" /><path d="M537.407319 781.295949l6.396492 3.435153a229.645904 229.645904 0 0 1-42.99864 72.967389c-9.867181 1.030546-18.395837 3.518071-25.585968 7.462574-6.041131-13.622159-19.426383-58.752963-35.536066-60.174405l8.884017-8.884017 2.605978 1.302989c1.610968 0.805484 3.49438 0.710721 4.975049-0.236907 24.401432-16.891477 51.49176-22.186351 81.259138-15.872776z" fill="#FCDBBE" /><path d="M543.803811 784.731102c10.423913 5.377791 21.120269 7.190131 32.100913 5.448863l11.845355 14.806695-4.027421 0.592267a7.699481 7.699481 0 0 0-5.922677 4.382782l-28.547307 57.213066c-13.977519-13.420788-30.122739-16.583498-48.447503-9.476284a229.645904 229.645904 0 0 0 42.99864-72.967389z" fill="#FCC99F" /><path d="M439.683137 804.98666c16.109683 1.421443 29.494935 46.552247 35.536066 60.174405 11.608448 15.872776 16.820405 66.570897 47.262968 54.370181 3.707596-1.421443 6.621554-4.169565 8.054842-7.581028l18.715661-44.775443 28.547307-57.213066a7.699481 7.699481 0 0 1 5.922677-4.382782l4.027421-0.592267 79.956149 21.677c-22.743082 64.083372-79.719242 163.228997-158.490855 159.793844-74.270378-3.198246-129.943548-96.065832-149.488385-159.793844l79.956149-21.677z" fill="#FFFFFF" /><path d="M359.726988 826.66366c19.544836 63.728012 75.218007 156.595598 149.488385 159.793844 78.771613 3.435153 135.747772-95.710471 158.490855-159.793844l26.652049 5.922678c-16.974394 58.362066-46.433793 106.726652-88.366351 145.105603-125.32386 114.66304-240.579167-41.458744-278.839665-145.105603l32.574727-5.922678z" fill="#FDDD44" /><path d="M500.805171 857.698491c18.324765-7.107213 34.469984-3.944503 48.447503 9.476284l-18.715661 44.775443a14.17889 14.17889 0 0 1-8.054842 7.581028c-30.442563 12.200716-35.65452-38.497405-47.262968-54.370181 7.190131-3.944503 15.718787-6.432028 25.585968-7.462574z" fill="#685E67" /></svg>