<?xml version="1.0" standalone="no"?><!DOCTYPE svg PUBLIC "-//W3C//DTD SVG 1.1//EN" "http://www.w3.org/Graphics/SVG/1.1/DTD/svg11.dtd"><svg class="icon" width="200px" height="199.42px" viewBox="0 0 1027 1024" version="1.1" xmlns="http://www.w3.org/2000/svg"><path d="M43.457077 955.473612V858.477807c0-10.988196-8.89045-19.778753-19.878646-19.778753-10.988196 0-19.778753 8.89045-19.778753 19.778753v145.74344c0 10.988196 8.89045 19.778753 19.778753 19.778753H169.321871c10.988196 0 19.778753-8.89045 19.778753-19.778753 0-10.988196-8.89045-19.878646-19.778753-19.878646H70.328212L207.281095 847.789289l-27.969955-27.969954L43.457077 955.473612z" fill="#E72853" /><path d="M507.15896 634.018925c10.988196 0 19.778753 8.89045 19.778753 19.778753 0 10.988196-8.89045 19.878646-19.778753 19.878646-42.454395-0.099893-80.913082-17.281436-108.783143-45.051604-0.099893-0.099893-0.199785-0.099893-0.299678-0.199786-0.099893-0.099893-0.099893-0.199785-0.199785-0.299678-27.770169-27.870061-44.951712-66.328748-45.051605-108.783143 0-10.988196 8.89045-19.878646 19.878646-19.878646 10.988196 0 19.778753 8.89045 19.778753 19.878646 0 24.47371 7.79163 47.049459 20.877573 65.6295l239.043215-239.243001c-82.511365-44.851819-186.999122-36.560726-262.018534 27.07092-95.197737-82.411472-238.543752-74.220271-323.852112 18.380255-85.208467 92.600527-81.512438 236.146327 8.390986 324.251683l104.188079 104.188079 27.969954 27.969954 169.218223 169.218223c3.69603 3.69603 8.790557 5.793776 13.984977 5.793776 5.19442 0.099893 10.288947-1.798068 14.08487-5.494098L705.745635 715.131792c90.902351-91.002244 90.902351-238.443859 0-329.545995-6.29324-6.29324-12.786265-12.087016-19.578968-17.481222l-244.737099 245.13667c18.679934 12.98605 41.255682 20.77768 65.729392 20.77768z" fill="#F95D82" /><path d="M1006.822212 190.295581H836.305385V19.778753c0-10.988196-8.89045-19.778753-19.778753-19.778753-10.988196 0-19.878646 8.89045-19.878646 19.778753v181.70481L730.119452 268.111989V125.864794c0-10.988196-8.89045-19.778753-19.778754-19.778754-10.988196 0-19.878646 8.89045-19.878646 19.778754v181.804702l-38.059116 38.159009-239.043215 239.342893c-13.085943-18.580041-20.77768-41.255682-20.877573-65.6295 0-10.988196-8.89045-19.878646-19.778753-19.878646-10.988196 0-19.878646 8.89045-19.878646 19.878646 0.099893 42.454395 17.281436 80.913082 45.051605 108.783143 0.099893 0.099893 0.099893 0.199785 0.199785 0.299679 0.099893 0.099893 0.199785 0.099893 0.299678 0.199785 27.870061 27.770169 66.328748 44.951712 108.783143 45.051605 10.988196 0 19.778753-8.89045 19.778753-19.878646 0-10.988196-8.89045-19.778753-19.778753-19.778754-24.47371 0-47.049459-7.79163-65.629499-20.877573l244.936884-244.836991 32.26534-32.26534h182.004487c10.988196 0 19.778753-8.89045 19.778753-19.878646 0-10.988196-8.89045-19.778753-19.778753-19.778753H758.289191l66.528534-66.528534h182.004487c10.988196 0 19.878646-8.89045 19.878646-19.878646 0-11.088089-8.89045-19.878646-19.878646-19.878646z" fill="#E72853" /></svg>