<?xml version="1.0" standalone="no"?><!DOCTYPE svg PUBLIC "-//W3C//DTD SVG 1.1//EN" "http://www.w3.org/Graphics/SVG/1.1/DTD/svg11.dtd"><svg class="icon" width="200px" height="200.00px" viewBox="0 0 1024 1024" version="1.1" xmlns="http://www.w3.org/2000/svg"><path d="M509.072 848.959934c0 71.751994-58.383995 129.91199-130.39999 129.91199-72.031994 0-130.41599-58.159995-130.415989-129.90399V175.031986c0-71.743994 58.383995-129.90399 130.407989-129.90399 72.023994 0 130.40799 58.159995 130.40799 129.91199v673.919948z" fill="#FDBA55" /><path d="M509.072 848.959934c0 71.751994 58.391995 129.91199 130.41599 129.91199s130.40799-58.159995 130.40799-129.90399V175.031986c0-71.743994-58.383995-129.90399-130.40799-129.90399-72.023994 0-130.41599 58.159995-130.41599 129.91199v673.919948z" fill="#FDBA55" /><path d="M611.071992 906.455929c0 56.111996-45.663996 101.599992-101.999992 101.599992-56.327996 0-101.999992-45.487996-101.999992-101.599992V117.543991c0-56.111996 45.671996-101.599992 101.999992-101.599992 56.335996 0 101.999992 45.479996 101.999992 101.599992v788.911938z" fill="#FF6376" /><path d="M480.272002 317.439975c-24.703998 0-44.799997-20.023998-44.799996-44.639996 0-8.799999 7.159999-15.935999 15.999999-15.935999 8.831999 0 15.999999 7.135999 15.999998 15.943999 0 7.031999 5.736 12.743999 12.799999 12.743999 7.055999 0 12.799999-5.72 12.799999-12.743999 0-8.799999 7.159999-15.943999 15.999999-15.943999s15.999999 7.135999 15.999999 15.943999c0 24.607998-20.095998 44.623997-44.799997 44.623996z" fill="#3F4963" /><path d="M537.879998 317.439975c-24.703998 0-44.807996-20.023998-44.807997-44.639996 0-8.799999 7.159999-15.935999 15.999999-15.935999s15.999999 7.135999 15.999999 15.943999c0 7.031999 5.744 12.743999 12.799999 12.743999 7.063999 0 12.799999-5.72 12.799999-12.743999 0-8.799999 7.167999-15.943999 16.007999-15.943999s15.999999 7.135999 15.999998 15.943999c0 24.607998-20.095998 44.623997-44.799996 44.623996z" fill="#3F4963" /><path d="M357.912012 341.983973H295.920017c-8.839999 0-15.999999-7.135999-15.999999-15.935998s7.159999-15.935999 15.999999-15.935999h61.991995c8.831999 0 15.999999 7.135999 15.999999 15.935999s-7.167999 15.935999-15.999999 15.935998z" fill="#FF6376" /><path d="M355.888012 272.039979c-8.839999 0-15.999999-7.135999-15.999999-15.935999a12.959999 12.959999 0 0 0-12.975999-12.927999 12.959999 12.959999 0 0 0-12.975999 12.927999c0 8.799999-7.159999 15.935999-15.999998 15.935999s-15.999999-7.135999-15.999999-15.935999c0-24.703998 20.175998-44.799997 44.975996-44.799997s44.975996 20.087998 44.975997 44.799997c0 8.799999-7.159999 15.935999-15.999999 15.935999z" fill="#3F4963" /><path d="M722.231984 341.983973H660.239988c-8.839999 0-15.999999-7.135999-15.999998-15.935998s7.159999-15.935999 15.999998-15.935999h61.991996c8.839999 0 15.999999 7.135999 15.999998 15.935999s-7.159999 15.935999-15.999998 15.935998z" fill="#FF6376" /><path d="M720.207984 272.039979c-8.839999 0-15.999999-7.135999-15.999999-15.935999a12.959999 12.959999 0 0 0-12.975999-12.927999 12.959999 12.959999 0 0 0-12.967999 12.927999c0 8.799999-7.159999 15.935999-15.999999 15.935999s-15.999999-7.135999-15.999998-15.935999c0-24.703998 20.167998-44.799997 44.967996-44.799997 24.799998 0 44.983996 20.087998 44.983996 44.799997 0 8.799999-7.167999 15.935999-15.999998 15.935999z" fill="#3F4963" /><path d="M509.056 903.359929c-2.712 0-5.464-0.688-7.983999-2.135999-28.439998-16.359999-44.103997-39.143997-44.103997-64.151995 0-24.999998 15.663999-47.783996 44.103997-64.135995 17.863999-10.279999 28.111998-23.591998 28.111998-36.543998 0-12.943999-10.247999-26.255998-28.111998-36.535997-28.439998-16.351999-44.103997-39.135997-44.103997-64.135995 0-25.007998 15.663999-47.791996 44.103997-64.151995 17.863999-10.271999 28.103998-23.583998 28.111998-36.535997 0-12.943999-10.247999-26.263998-28.111998-36.535997-28.439998-16.351999-44.103997-39.135997-44.103997-64.143995 0-24.999998 15.663999-47.783996 44.103997-64.143995a16.031999 16.031999 0 0 1 21.863998 5.84 15.903999 15.903999 0 0 1-5.855999 21.767998c-17.863999 10.271999-28.103998 23.591998-28.103998 36.535997 0 12.951999 10.239999 26.263998 28.103998 36.535997 28.439998 16.359999 44.103997 39.143997 44.103996 64.143995 0 25.007998-15.663999 47.791996-44.103996 64.143995-17.863999 10.271999-28.103998 23.591998-28.103998 36.535997 0 12.951999 10.239999 26.271998 28.103998 36.535997 28.439998 16.359999 44.103997 39.143997 44.103996 64.143995 0 25.007998-15.663999 47.791996-44.103996 64.151995-17.863999 10.271999-28.103998 23.583998-28.103998 36.535998 0 12.943999 10.239999 26.263998 28.103998 36.535997a15.903999 15.903999 0 0 1 5.855999 21.775998 16.015999 16.015999 0 0 1-13.879999 7.967999z" fill="#FBD151" /><path d="M326.912014 211.295983c-24.799998 0-44.975996 20.095998-44.975996 44.799997 0 8.799999 7.159999 15.943999 15.999999 15.943999s15.999999-7.135999 15.999998-15.935999c0-7.127999 5.824-12.927999 12.975999-12.927999a12.959999 12.959999 0 0 1 12.975999 12.927999c0 8.799999 7.159999 15.935999 15.999999 15.935999s15.999999-7.135999 15.999999-15.935999c0-24.703998-20.175998-44.799997-44.975997-44.799997zM639.48799 29.199998c-15.519999 0-30.679998 2.424-45.231996 7.135999A117.863991 117.863991 0 0 0 509.072 0a117.863991 117.863991 0 0 0-85.183993 36.327997 146.263989 146.263989 0 0 0-45.223997-7.135999C297.920017 29.191998 232.240022 94.615993 232.240022 175.031986v673.927948c0 80.423994 65.679995 145.847989 146.415988 145.847988 15.519999 0 30.679998-2.416 45.231997-7.127999A117.863991 117.863991 0 0 0 509.072 1023.99992c33.455997 0 63.679995-13.967999 85.183994-36.319997 14.543999 4.712 29.703998 7.127999 45.231996 7.127999 80.735994 0 146.407989-65.423995 146.407989-145.839988V175.039986c0-80.423994-65.679995-145.847989-146.407989-145.847988zM378.66401 962.935925c-63.087995 0-114.415991-51.127996-114.415991-113.967991V175.031986c0-62.839995 51.327996-113.959991 114.415991-113.959991 8.655999 0 17.159999 0.976 25.455998 2.856a116.423991 116.423991 0 0 0-13.047999 53.615996v788.911938c0 19.303998 4.728 37.519997 13.039999 53.615996-8.287999 1.88-16.791999 2.864-25.447998 2.864z m216.407984-56.479996c0 47.231996-38.575997 85.663993-85.999994 85.663993s-85.999993-38.431997-85.999993-85.663993V117.543991c0-47.231996 38.583997-85.663993 85.999993-85.663993 47.423996 0 85.999993 38.431997 85.999994 85.663993v788.911938z m158.823987-57.487995c0 62.839995-51.327996 113.967991-114.407991 113.967991-8.663999 0-17.167999-0.984-25.455998-2.864a116.431991 116.431991 0 0 0 13.039999-53.615996V117.543991c0-19.303998-4.72-37.527997-13.039999-53.615996 8.295999-1.88 16.799999-2.856 25.455998-2.856 63.079995 0 114.407991 51.119996 114.407991 113.959991v673.935948zM550.679997 272.799979c0 7.031999-5.744 12.743999-12.799999 12.743999-7.063999 0-12.799999-5.72-12.799999-12.743999 0-8.799999-7.167999-15.943999-15.999999-15.943999-8.847999 0-16.007999 7.135999-16.007999 15.943999 0 7.031999-5.744 12.743999-12.799999 12.743999-7.063999 0-12.799999-5.72-12.799999-12.743999 0-8.799999-7.167999-15.943999-15.999998-15.943999-8.847999 0-15.999999 7.135999-15.999999 15.943999 0 24.607998 20.087998 44.623997 44.799996 44.623996 10.959999 0 21.007998-3.952 28.799998-10.487999a44.695997 44.695997 0 0 0 28.799998 10.487999c24.711998 0 44.807996-20.015998 44.807996-44.623996 0-8.799999-7.159999-15.943999-15.999998-15.943999s-15.999999 7.135999-15.999999 15.943999z m95.575993-16.703999c0 8.799999 7.167999 15.935999 15.999998 15.935999 8.847999 0 16.007999-7.135999 16.007999-15.935999a12.959999 12.959999 0 1 1 25.943998 0c0 8.799999 7.159999 15.935999 15.999999 15.935999s15.999999-7.135999 15.999998-15.935999c0-24.703998-20.167998-44.799997-44.975996-44.799997-24.799998 0-44.975996 20.087998-44.975996 44.799997z" fill="#000000" /></svg>