<?xml version="1.0" standalone="no"?><!DOCTYPE svg PUBLIC "-//W3C//DTD SVG 1.1//EN" "http://www.w3.org/Graphics/SVG/1.1/DTD/svg11.dtd"><svg class="icon" width="200px" height="194.68px" viewBox="0 0 1052 1024" version="1.1" xmlns="http://www.w3.org/2000/svg"><path d="M656.398158 87.755986l-39.833544 53.152122-8.675404-0.488755c-2.932531-49.290956-26.466091-86.998416-70.625118-113.146816 29.325309-61.949714 106.304244 29.814064 119.134066 60.483449z" fill="#F8C52D" /><path d="M537.264092 27.272537c44.159027 26.1484 67.692587 63.85586 70.625118 113.146816-31.842398 13.51408-61.619805 8.015584-89.320002-16.495486-5.44962-35.605812 0.782008-67.814776 18.694884-96.65133z" fill="#FDDD44" /><path d="M656.398158 87.755986c7.575705 36.485571 9.579601 72.531263 5.987251 108.137076l-42.032943 14.05171c-9.933948-22.079514-11.192493-45.087662-3.787852-69.036664l39.833544-53.152122z" fill="#FA7621" /><path d="M607.88921 140.419353l8.675404 0.488755c-7.40464 23.949002-6.146096 46.95715 3.787852 69.036664-15.224723 12.133346-33.430852 14.613779-54.618387 7.453516-21.822917-27.12591-37.548614-58.284051-47.164871-93.474421 27.700198 24.51107 57.477605 30.009566 89.320002 16.495486z" fill="#FC9743" /><path d="M565.734079 217.398288c21.187535 7.160263 39.393665 4.679831 54.618387-7.453516l42.032943-14.05171c16.214452 9.530725 26.563842 23.619092 31.035951 42.27732L553.5152 271.405731a111.008512 111.008512 0 0 0-16.617675 48.631137c-8.797593 87.853737-28.469987 174.852153-41.055432 262.217135-3.494599 24.19338-10.630424 46.224018-21.383037 66.104133-57.184352 105.6933-103.982657 173.752454-229.837107 197.579267-11.803437 2.272711-14.943689 8.431026-9.408536 18.450507C39.589167 808.058879-18.694884 639.316166 15.395787 452.489512c15.640165-85.287773 29.691875-170.819923 47.042683-254.519241 4.887551-23.386934 18.536039-30.877106 40.933243-22.482737a1347.705652 1347.705652 0 0 0 415.68625 85.165584c26.47831 1.221888 42.032942-13.196389 46.676116-43.25483zM144.060579 355.227239c-54.984954 46.187361 23.215869 86.998416 57.673107 107.526131 26.759344 16.006731 44.965473-5.865062 38.24509-32.990972-7.893396-31.451394-25.537456-56.903318-52.907745-76.367991-14.735968-10.434922-29.080931-9.823978-43.010452 1.832832z m233.991525 140.761481a230.716866 230.716866 0 0 0 88.953436-18.572696c50.097402-21.383038 28.958742-87.487171-26.881533-74.779537-34.21286 7.893396-59.82363 28.592176-76.856746 62.071904-10.752613 21.089784-5.816186 31.524707 14.784843 31.280329zM223.727667 772.501943c119.256255 24.19338 213.585998-56.695597 249.387312-163.855162 2.859218-8.553215-0.036657-11.937844-8.675404-10.14167l-76.49018 16.373298c-105.485579 7.893396-199.851978-18.132816-283.111417-78.078635-9.933948-7.172482-14.784843-4.643174-14.540465 7.575705 1.710643 102.63858 46.187361 178.676662 133.430154 228.126464z" fill="#F1EFF2" /><path d="M565.123135 1014.069172c-4.154419-6.194971-3.738977-11.290244 1.221888-15.273598 2.492651-2.028334 6.573757-2.956969 11.241368-2.565964 56.781129 4.802019 110.874104-5.217461 162.266708-30.058442 126.428737-61.265457 198.397932-161.985674 215.907585-302.172867 22.971492-33.56526 21.798479-65.089966-3.543475-94.574121 4.643174-43.829118-7.453516-81.793173-36.290069-113.879948 12.707634-41.226496-1.380733-67.863652-42.27732-79.911466a47.971317 47.971317 0 0 1-15.640165-15.15141c-30.425008-46.798305-89.320003-81.377731-141.372425-97.995406-2.895874-0.879759-4.960865-2.737029-5.131929-4.643174l-0.244378-3.910041c45.087662-52.2968 96.040386-42.643886 149.314696-5.987251 362.411939 249.63169 154.202248 822.330529-295.452484 766.123688z" fill="#FCB982" /><path d="M693.42136 238.170382l15.762354 15.762353-10.14167 12.218879-58.039673 18.328317-66.715077 15.762354c-17.350808-0.818665-24.266693-10.434922-20.772094-28.836554l139.90616-33.235349z" fill="#A8D3D8" /><path d="M709.183714 253.932735h2.077209l0.244378 3.910041c0.171064 1.906145 2.236055 3.763415 5.131929 4.643174 52.052423 16.617675 110.947418 51.197101 141.372425 97.995406 3.995573 6.182753 9.213034 11.241368 15.640165 15.15141l-33.601917 6.109439c-45.698606 37.878524-44.476718 72.616795 3.665664 104.227035 34.701615 9.359661 58.772806-0.782008 72.213573-30.425008 28.836553 32.086775 40.933243 70.050831 36.290069 113.879948-18.401631-10.923677-37.511957-12.793166-57.306541-5.620684-39.711355 17.472996-50.219591 86.754038-2.932531 103.005147 16.458829 8.553215 37.719678 7.612361 63.782547-2.810342-17.509653 140.187194-89.478848 240.90741-215.907585 302.172867-51.392603 24.84098-105.485579 34.860461-162.266708 30.058442-4.667612-0.391004-8.748717 0.537631-11.241368 2.565964-4.960865 3.983354-5.376307 9.078627-1.221888 15.273598-73.472117-12.793166-139.661782-41.996286-198.556777-87.609359 38.208433-7.08695 71.81035-23.386934 100.805748-48.875515 43.499208 0.562068 65.05331-20.979815 64.637868-64.637867 18.328318-27.370288 97.751029-189.148241 54.496199-208.209692l27.003721-20.894282 36.167881 115.957158c6.842572 22.067295 22.360548 32.783251 46.553927 32.135651 30.143973-0.733133 45.942984-17.314151 47.409249-49.730836 25.5008-10.34939 36.253413-27.859043 32.25784-52.541178-5.77953-35.605812-23.949002-119.549508-54.496199-251.831088-2.688153-36.986546-10.141669-74.217469-22.360548-111.68055l10.14167-12.218879z m184.505066 540.196623a56.695597 56.695597 0 1 0-113.391193 0 56.695597 56.695597 0 0 0 113.391193 0z m-255.252373 25.415267c-50.903848 38.526124-50.097402 74.975039 2.443775 109.358964 112.535872 10.996991 91.030646-131.597322-2.443775-109.358964z" fill="#FCC99F" /><path d="M699.042044 266.151614c12.218879 37.463082 19.672395 74.694005 22.360548 111.68055-16.617675-1.710643-32.050119 0.610944-46.30955 6.964761l-34.090671-100.316994 58.039673-18.328317z" fill="#CBE5E6" /><path d="M553.5152 271.405731c-3.494599 18.401631 3.421286 28.017889 20.772094 28.836554l15.395787 67.814776c1.063042 4.887551 1.466265 8.797593 1.221888 11.730124-1.710643 16.617675 7.013636 22.678239 26.1484 18.206129-8.382151 3.910041-11.43687 10.703738-9.164159 20.405527-8.137773-5.376307-12.829823-3.910041-14.05171 4.398796-10.667081 75.268292-21.053128 136.973629-31.158141 185.116011-0.513193 2.83478 0.024438 5.302993 1.344077 6.231628 1.063042 0.806446 2.443776 1.050824 4.154419 0.733133a495.145617 495.145617 0 0 1-85.53215 151.758472l-64.637868 58.528428a533.781711 533.781711 0 0 1-112.535872 43.254831l-70.258552-4.03223c-5.535152-10.01948-2.3949-16.177795 9.408536-18.450507 125.85445-23.826813 172.652755-91.885967 229.837107-197.579267 10.752613-19.880115 17.888438-41.910754 21.383037-66.104133 12.585445-87.364982 32.257839-174.363398 41.055432-262.217135a111.008512 111.008512 0 0 1 16.617675-48.631137z" fill="#E1DDE1" /><path d="M641.002371 284.479931l34.090671 100.316994-58.039673 13.196389c-19.134764 4.47211-27.859043-1.588454-26.1484-18.206129 0.244378-2.932531-0.158845-6.842572-1.221888-11.730124l-15.395787-67.814776 66.715077-15.762354z" fill="#F1EFF2" /><path d="M721.402592 377.832164c30.547196 132.28158 48.716669 216.225276 54.496199 251.831088 3.995573 24.682135-6.75704 42.191788-32.25784 52.541178l-29.691875 1.344076c-7.001417-83.259439-21.627415-163.366407-43.865774-240.345342a7.209138 7.209138 0 0 0-7.697893-4.887551l-44.843285 5.00974-9.652914-24.926512c-2.272711-9.70179 0.782008-16.495486 9.164159-20.405527l58.039673-13.196389c14.259431-6.353817 29.691875-8.675404 46.30955-6.964761z" fill="#2844AE" /><path d="M873.64982 375.632766c40.896587 12.047814 54.984954 38.68497 42.27732 79.911466-13.440766 29.642999-37.511957 39.784669-72.213573 30.425008 43.91465-38.697189 42.692762-73.43546-3.665664-104.227035l33.601917-6.109439z" fill="#22B69F" /><path d="M840.047903 381.742205c46.358425 30.791574 47.580313 65.529846 3.665664 104.227035-48.142382-31.610239-49.36427-66.348511-3.665664-104.227035z" fill="#28D1B3" /><path d="M607.88921 418.398841l9.652914 24.926512 29.569686 91.64159-33.601916 48.875514-27.003721 20.894282-18.328318 10.14167c-1.710643 0.317691-3.091376 0.073313-4.154419-0.733133-1.319639-0.928635-1.85727-3.396848-1.344077-6.231628 10.105013-48.142382 20.491059-109.847719 31.158141-185.116011 1.221888-8.308837 5.913937-9.775103 14.05171-4.398796z" fill="#FFFFFF" /><path d="M713.949076 683.548506c-39.014879-40.982119-61.289895-90.505234-66.837266-148.581563l-29.569686-91.64159 44.843285-5.00974a7.209138 7.209138 0 0 1 7.697893 4.887551c22.238359 76.978935 36.864357 157.085903 43.865774 240.345342z" fill="#3351C5" /><path d="M647.11181 534.966943c5.547371 58.07633 27.822387 107.599445 66.837266 148.581563l29.691875-1.344076c-1.466265 32.416685-17.265275 48.997703-47.409249 49.730836-24.19338 0.647601-39.711355-10.068356-46.553927-32.135651l-36.167881-115.957158 33.601916-48.875514z" fill="#FCB982" /><path d="M952.217209 569.42418c25.341954 29.484154 26.514967 61.008861 3.543475 94.574121-26.062868 10.422703-47.323717 11.363557-63.782547 2.810342 48.875514-32.098994 49.853025-66.434043 2.932531-103.005147 19.794583-7.172482 38.904909-5.302993 57.306541 5.620684z" fill="#FCD430" /><path d="M894.910668 563.803496c46.920494 36.571104 45.942984 70.906152-2.932531 103.005147-47.28706-16.251109-36.778825-85.53215 2.932531-103.005147z" fill="#FDE265" /><path d="M586.506173 604.736739c43.25483 19.061451-36.167881 180.839403-54.496199 208.209692-4.227732-25.5008-18.646009-40.615552-43.25483-45.33204l-6.109439-0.97751a495.145617 495.145617 0 0 0 85.53215-151.758472l18.328318-10.14167z" fill="#FCB982" /><path d="M482.645705 766.636881l6.109439 0.97751-10.019481 15.884542c-1.832832 2.871436-1.502922 6.964761 0.855322 10.386047 26.759344 38.856034-11.11918 52.052423-21.871793 80.155844-23.619092-7.416859-36.852138-23.704624-39.711355-48.875515l64.637868-58.528428z" fill="#685E67" /><path d="M488.755144 767.614391c24.608821 4.716487 39.027098 19.83124 43.25483 45.33204 0.415442 43.658053-21.13866 65.199936-64.637868 64.637867l-9.652914-3.543474c10.752613-28.103421 48.631137-41.29981 21.871793-80.155844-2.358244-3.421286-2.688153-7.51461-0.855322-10.386047l10.019481-15.884542z" fill="#554E54" /><path d="M418.007837 825.165309c2.859218 25.17089 16.092263 41.458655 39.711355 48.875515l9.652914 3.543474c-28.995399 25.488581-62.597315 41.788565-100.805748 48.875515l-61.094393-58.039673a533.781711 533.781711 0 0 0 112.535872-43.254831z" fill="#FCB982" /><path d="M201.733686 462.75337c-34.457238-20.527716-112.658061-61.338771-57.673107-107.526131 13.929522-11.65681 28.274485-12.267754 43.010452-1.832832 27.370288 19.464674 45.014349 44.916598 52.907745 76.367991 6.720383 27.12591-11.485746 48.997703-38.24509 32.990972zM378.052104 495.98872c-20.601029 0.244378-25.537456-10.190545-14.784843-31.280329 17.033117-33.479727 42.643886-54.178508 76.856746-62.071904 55.840275-12.707634 76.978935 53.396499 26.881533 74.779537a230.716866 230.716866 0 0 1-88.953436 18.572696zM387.949395 614.878409c-30.706042 71.187187-83.650443 116.849136-158.845421 136.973629-5.865062 1.539579-7.649018 8.431026-5.376307 20.649905-87.242793-49.449802-131.719511-125.487883-133.430154-228.126464-0.244378-12.218879 4.606517-14.748186 14.540465-7.575705 83.259439 59.945818 177.625838 85.97203 283.111417 78.078635z" fill="#685E67" /><path d="M223.727667 772.501943c-2.272711-12.218879-0.488755-19.110326 5.376307-20.649905 75.194979-20.124493 128.13938-65.786442 158.845421-136.973629l76.49018-16.373298c8.638747-1.796175 11.534621 1.588454 8.675404 10.14167-35.801314 107.159565-130.131057 188.048542-249.387312 163.855162z" fill="#554E54" /><path d="M837.005403 794.129358m-56.695597 0a56.695597 56.695597 0 1 0 113.391193 0 56.695597 56.695597 0 1 0-113.391193 0Z" fill="#FB8628" /><path d="M640.880182 928.903589c42.27732-39.344789 41.470874-75.805923-2.443775-109.358964 93.474421-22.238359 114.979648 120.355954 2.443775 109.358964z" fill="#1A96F9" /><path d="M638.436407 819.544625c43.91465 33.553041 44.721096 70.014174 2.443775 109.358964-52.541178-34.383924-53.347624-70.832839-2.443775-109.358964z" fill="#63B9FC" /></svg>