<?xml version="1.0" standalone="no"?><!DOCTYPE svg PUBLIC "-//W3C//DTD SVG 1.1//EN" "http://www.w3.org/Graphics/SVG/1.1/DTD/svg11.dtd"><svg class="icon" width="200px" height="200.00px" viewBox="0 0 1024 1024" version="1.1" xmlns="http://www.w3.org/2000/svg"><path d="M782.1 508.7c-21 19.6-49.2 31.6-80.1 31.6-30.9 0-59.1-12-80.1-31.6-21 19.6-49.2 31.6-80.1 31.6-30.9 0-59.1-12-80.1-31.6-21 19.6-49.2 31.6-80.1 31.6s-59.1-12-80.1-31.6c-14.7 13.8-33.1 23.7-53.4 28.4v112.8l23.1 173.3h40.9V593.7h160.1v229.5h373.6V539.1c-24.2-3.4-46.4-14.3-63.7-30.4z m0 245.1H547.2V593.7H782v160.1z" fill="#9ADCCF" /><path d="M392.5 593.7h80.1v266.9h-80.1zM547.2 668.4H782v85.4H547.2z" fill="#E6EBEF" /><path d="M903.3 374.6l-76.5-161.4c-2.6-5.6-8.3-9.2-14.5-9.2H271.4c-6.2 0-11.8 3.6-14.5 9.2l-76.5 161.5c-1 2.1-1.5 4.5-1.5 6.9v39.1c0 23.7 18.2 43.9 40.6 44.9 0.7 0 1.4 0.1 2.1 0.1 23.5 0 42.7-19.2 42.7-42.7 0-20.6 16.7-37.4 37.4-37.4s37.4 16.7 37.4 37.4c0 23.5 19.2 42.7 42.7 42.7 23.5 0 42.7-19.2 42.7-42.7 0-20.6 16.7-37.4 37.4-37.4 20.6 0 37.4 16.7 37.4 37.4 0 23.5 19.2 42.7 42.7 42.7 23.5 0 42.7-19.2 42.7-42.7 0-20.6 16.7-37.4 37.4-37.4s37.4 16.7 37.4 37.4c0 23.5 19.2 42.7 42.7 42.7s42.7-19.2 42.7-42.7c0-20.6 16.7-37.4 37.4-37.4s37.4 16.7 37.4 37.4c0 23.5 19.2 42.7 42.7 42.7 1.6 0 3.3-0.1 4.9-0.3 21.2-2.3 37.8-21.9 37.8-44.7v-39.1c-0.3-2.5-0.8-4.8-1.8-7z" fill="#FFF370" /><path d="M232.3 812.5H82.9l21.3-160.1H211z" fill="#FF7A51" /><path d="M360.4 748.4c8.8 0 16-7.2 16-16v-21.3c0-8.8-7.2-16-16-16s-16 7.2-16 16v21.3c0 8.9 7.2 16 16 16zM664.6 631c-8.8 0-16 7.2-16 16v53.4c0 8.8 7.2 16 16 16s16-7.2 16-16V647c0.1-8.8-7.1-16-16-16z" fill="#4F3D3B" /><path d="M701 844.5H488.5V593.7c0-8.8-7.2-16-16-16H312.4c-8.8 0-16 7.2-16 16v250.8h-10.7c-8.8 0-16 7.2-16 16s7.2 16 16 16H701c8.8 0 16-7.2 16-16s-7.2-16-16-16z m-244.5 0H328.4V609.7h128.1v234.8z" fill="#4F3D3B" /><path d="M951.5 351.8L875 190.3c-11.4-24.1-36-39.7-62.7-39.7H707.9c-8.8 0-16 7.2-16 16s7.2 16 16 16h104.5c14.4 0 27.6 8.4 33.8 21.4l76.5 161.4c2.4 5 3.6 10.5 3.6 16v39.1c0 33.5-25 62.5-56.8 65.9-18.5 2-36.3-3.7-50-16-13.5-12.1-21.3-29.5-21.3-47.7 0-8.8-7.2-16-16-16s-16 7.2-16 16c0 35.3-28.7 64-64 64s-64-28.7-64-64c0-8.8-7.2-16-16-16s-16 7.2-16 16c0 35.3-28.7 64-64 64s-64-28.7-64-64c0-8.8-7.2-16-16-16s-16 7.2-16 16c0 35.3-28.7 64-64 64s-64-28.7-64-64c0-8.8-7.2-16-16-16s-16 7.2-16 16c0 17.7-7 34.1-19.8 46.4-12.8 12.2-29.6 18.5-47.3 17.6-33.6-1.6-60.9-31.3-60.9-66.2v-39.1c0-5.5 1.2-11 3.6-16L238.3 204c6.2-13 19.4-21.4 33.8-21.4h350.7c8.8 0 16-7.2 16-16s-7.2-16-16-16H271.4c-26.7 0-51.3 15.6-62.7 39.7l-76.5 161.4c-4.4 9.2-6.7 19.5-6.7 29.7v39.1c0 44.8 29.1 82.6 69.4 94.4V587c0 8.8 7.2 16 16 16s16-7.2 16-16v-68.3c22.8-1.2 44.2-10.3 61-26.3 5.3-5 9.8-10.6 13.8-16.5 17.2 25.9 46.7 43.1 80 43.1 33.4 0 62.8-17.1 80.1-43.1 17.2 25.9 46.7 43.1 80.1 43.1 33.4 0 62.8-17.1 80.1-43.1 17.2 25.9 46.7 43.1 80.1 43.1 33.4 0 62.9-17.2 80.1-43.2 4.5 6.8 9.7 13.1 15.9 18.6 17.7 15.9 40.7 24.5 64.4 24.5 1.7 0 3.4-0.2 5.1-0.3v325.9h-85.4c-8.8 0-16 7.2-16 16s7.2 16 16 16h101.4c8.8 0 16-7.2 16-16V511.3c34.8-14.9 58.7-50.1 58.7-90.8v-39.1c-0.1-10.1-2.4-20.4-6.8-29.6z" fill="#4F3D3B" /><path d="M456.6 229.3l-10.7 122.8c-0.8 8.8 5.8 16.6 14.6 17.3 0.5 0 0.9 0.1 1.4 0.1 8.2 0 15.2-6.3 15.9-14.6l10.7-122.8c0.8-8.8-5.8-16.6-14.6-17.3-8.7-0.8-16.6 5.7-17.3 14.5zM603.9 214.8c-8.8 1.1-15 9.2-13.8 17.9l16 122.8c1.1 8.1 7.9 13.9 15.9 13.9 0.7 0 1.4 0 2.1-0.1 8.8-1.1 15-9.2 13.8-17.9l-16-122.8c-1.2-8.7-9.4-14.9-18-13.8zM329.3 225.5l-42.7 122.8c-2.9 8.3 1.5 17.5 9.9 20.4 1.7 0.6 3.5 0.9 5.3 0.9 6.6 0 12.8-4.1 15.1-10.8L359.5 236c2.9-8.3-1.5-17.5-9.9-20.4-8.3-2.9-17.4 1.5-20.3 9.9zM782.1 369.5c1.7 0 3.5-0.3 5.3-0.9 8.4-2.9 12.8-12 9.9-20.4l-42.7-122.8c-2.9-8.4-12-12.8-20.4-9.9-8.4 2.9-12.8 12-9.9 20.4L767 358.7c2.2 6.7 8.4 10.8 15.1 10.8zM782.1 769.8c8.8 0 16-7.2 16-16V593.7c0-8.8-7.2-16-16-16H547.2c-8.8 0-16 7.2-16 16v160.1c0 8.8 7.2 16 16 16h234.9zM563.2 609.7H766v128.1H563.2V609.7zM226.9 650.2c-1.1-8-7.8-13.9-15.9-13.9H104.2c-8 0-14.8 5.9-15.9 13.9L67 810.4c-0.6 4.6 0.8 9.2 3.8 12.7s7.4 5.5 12 5.5h5.3v32c0 8.8 7.2 16 16 16s16-7.2 16-16v-32H195v32c0 8.8 7.2 16 16 16s16-7.2 16-16v-32h5.3c4.6 0 9-2 12-5.5s4.4-8.1 3.8-12.7l-21.2-160.2z m-108.6 18.2H197l17 128.1H101.2l17.1-128.1z" fill="#4F3D3B" /></svg>