<?xml version="1.0" standalone="no"?><!DOCTYPE svg PUBLIC "-//W3C//DTD SVG 1.1//EN" "http://www.w3.org/Graphics/SVG/1.1/DTD/svg11.dtd"><svg class="icon" width="200px" height="200.00px" viewBox="0 0 1024 1024" version="1.1" xmlns="http://www.w3.org/2000/svg"><path d="M516.190996 1024c-1.59657 0-4.09121-0.798285-4.889495-1.59657-22.651335-18.560125-54.18359-29.935685-84.119275-40.413175-38.816605-13.770415-78.431495-27.54083-102.779186-58.2748-5.68778-7.28435-9.679205-14.5687-13.770415-21.85305l-2.394855 9.679205c-0.798285 3.19314-4.09121 4.889495-7.28435 5.68778-3.19314 0-6.486065-1.59657-8.082635-4.09121-8.082635-13.770415-22.651335-24.247905-37.220035-34.825181-15.366985-11.37556-31.532255-22.651335-41.311245-38.816605-8.88092-14.5687-11.275775-29.935685-13.770415-45.30267l-2.394855-12.173845c-1.59657 1.59657-3.19314 2.394855-5.68778 2.394855-2.394855 0-4.889495-0.798285-6.486065-3.19314-23.44962-29.1374-27.54083-70.34886-12.97213-121.33931 8.88092-31.532255 22.651335-62.266225 40.413174-91.403625 2.394855-3.19314 6.486065-4.889495 10.47749-3.19314 4.09121 1.59657 5.68778 6.486065 4.09121 10.47749-4.889495 13.770415-4.889495 35.623465 0.798285 50.99045 12.97213 34.82518 26.742545 63.06451 43.706101 86.613916 1.59657 1.59657 2.394855 3.19314 2.394854 5.68778 0 4.889495-3.19314 8.082635-8.082635 8.082635h-0.798285c-2.394855 0-5.68778-0.798285-8.082634-1.59657 7.28435 7.28435 14.5687 14.5687 22.651335 21.054765 19.458195 15.366985 45.30267 23.44962 71.147144 23.44962 21.85305 0 42.907815-5.68778 59.87137-16.16527 4.09121-2.394855 8.082635-4.889495 12.173846-8.082635 6.486065-4.09121 12.97213-8.88092 20.25648-12.173845 4.889495-2.394855 10.47749-4.889495 16.16527-5.68778h45.30267c5.68778 0.798285 10.47749 3.19314 16.16527 5.68778 7.28435 3.19314 13.770415 8.082635 20.25648 12.97213 4.09121 2.394855 8.082635 5.68778 12.173845 8.082635 17.76184 10.47749 38.01832 16.16527 59.87137 16.16527 26.742545 0 51.788735-8.082635 71.147145-23.44962 8.082635-6.486065 15.366985-12.97213 22.651335-21.054765-6.486065 1.59657-12.97213 2.394855-18.560124 2.394855-3.19314 0-5.68778-1.59657-7.284351-4.091211-1.59657-2.394855-1.59657-5.68778 0-8.082634 31.532255-49.39388 49.39388-105.972325 51.788736-161.852271 0-4.09121 3.19314-7.28435 8.082635-8.082635 4.09121 0 8.082635 3.19314 8.082635 7.28435 1.59657 14.5687 7.28435 29.1374 15.366985 42.907815 3.19314 5.68778 7.28435 11.37556 11.275774 16.963555 5.68778 7.28435 10.47749 14.5687 15.366985 22.651335 15.366985 28.339115 16.16527 62.266225 2.394855 91.403625-3.19314 6.486065-7.28435 12.97213-10.47749 18.659911-6.486065 10.47749-12.173845 20.25648-14.5687 29.935685-1.59657 7.28435-0.798285 15.366985-0.798285 24.247905 0 5.68778 0.798285 11.37556 0 17.761839-0.798285 21.054765-11.37556 37.220035-27.54083 43.7061-2.394855 0.798285-5.68778 0.798285-7.28435-0.798284-2.394855-1.59657-3.19314-4.09121-3.19314-6.486066v-7.28435c-9.679205 33.128825-25.04619 63.862795-57.476515 81.724421-12.97213 7.28435-26.742545 11.275775-40.413175 16.16527-8.082635 2.394855-16.16527 4.889495-24.247905 8.082635-28.339115 11.37556-48.49581 30.73397-54.981875 51.788735-0.798285 3.19314-4.09121 5.68778-7.28435 5.68778s-6.486065-2.394855-8.082635-5.68778c-2.394855-7.28435-6.486065-14.5687-10.477489-21.054766-0.798285 10.47749-1.59657 21.054765-1.59657 31.532255v1.59657c-1.59657 3.292925-4.78971 6.585851-9.679205 6.585851z" fill="#E2E2E2" /><path d="M284.887936 728.634574c-5.68778 0-12.173845-0.798285-18.65991-1.59657-2.394855 0-4.09121-1.59657-5.68778-3.193139-18.560125-25.04619-33.128825-54.981875-46.89924-91.403625-1.59657-4.09121-2.394855-8.082635-3.19314-13.770416v-1.596569c0.798285-40.413175 8.082635-79.329565 23.44962-115.65153 1.59657-3.19314 4.09121-4.889495 7.28435-4.889496h482.1641c3.19314 0 6.486065 1.59657 7.28435 4.889496 7.28435 17.76184 12.97213 36.42175 16.963555 56.67823v2.394855c-3.19314 57.476515-21.85305 114.05496-54.18359 165.04541-1.59657 2.394855-4.09121 3.19314-6.486065 4.09121H679.639836c-27.54083 0-50.99045-8.88092-68.75229-25.04619-3.19314-5.68778-7.28435-10.47749-11.37556-15.366984-4.889495-5.68778-8.88092-10.47749-13.770415-15.366985-11.37556-9.679205-25.844475-15.366985-42.907815-15.366985-19.458195 0-39.61489 7.28435-54.981875 19.458195-3.19314 2.394855-7.28435 2.394855-10.47749 0-15.366985-12.173845-34.82518-19.458195-54.981875-19.458195-16.963555 0-31.532255 4.889495-42.907815 15.366985-4.889495 4.09121-9.679205 9.679205-13.770415 15.366985-4.09121 4.889495-8.082635 10.47749-13.770415 14.5687-16.16527 16.763984-39.61489 24.846619-67.055935 24.846618z" fill="#EFD0C2" /><path d="M483.860456 591.928279c-19.458195 0-34.82518 12.97213-34.82518 28.339115 0 16.16527 15.366985 28.339115 34.82518 28.339115s34.82518-12.97213 34.82518-28.339115-15.366985-28.339115-34.82518-28.339115z" fill="#F9BAA0" /><path d="M614.080686 786.111089c-25.04619 0-48.49581-6.486065-68.75229-18.560124-4.09121-2.394855-8.88092-5.68778-12.97213-8.082635-6.486065-4.09121-12.173845-8.082635-18.659911-11.375561-9.679205-4.889495-18.560125-6.486065-25.844474-4.09121-1.59657 0.798285-3.19314 1.59657-4.889496 1.59657-2.394855 0.798285-4.09121 0-5.68778-1.59657l-0.798285-0.798285c-7.28435-1.59657-16.16527 0-25.046189 4.889495-6.486065 3.19314-12.173845 7.28435-18.659911 11.375561-4.09121 3.19314-8.082635 5.68778-12.97213 8.082635-20.25648 12.173845-43.7061 18.560125-68.75229 18.560124-29.935685 0-59.073085-9.679205-81.72442-26.742545-11.37556-8.88092-21.054765-18.560125-29.935685-28.339115-5.68778-5.68778-11.37556-12.173845-17.76184-17.76184-3.19314-2.394855-3.19314-7.28435-0.798285-10.47749 2.394855-3.19314 6.486065-4.889495 10.47749-2.394854 16.16527 8.082635 34.82518 12.173845 52.58702 12.173845 16.16527 0 39.61489-3.19314 57.476515-21.054765 4.09121-4.09121 8.082635-8.88092 12.173845-13.770415 4.889495-5.68778 9.679205-12.173845 15.366985-16.963555 14.5687-12.173845 32.33054-19.458195 53.385305-19.458196s42.907815 7.28435 59.871371 19.458196c16.963555-12.173845 38.816605-19.458195 59.87137-19.458196s39.61489 6.486065 53.385305 19.458196c5.68778 4.889495 10.47749 11.37556 15.366985 16.963555 4.09121 4.889495 8.082635 9.679205 12.173845 13.770415 17.76184 16.963555 41.311245 21.054765 57.476515 21.054765 17.76184 0 36.42175-4.09121 52.58702-12.173845 3.19314-1.59657 8.082635-0.798285 10.47749 2.394854 2.394855 3.19314 1.59657 8.082635-0.798285 10.47749l-17.76184 17.76184c-8.88092 9.679205-18.65991 20.25648-29.935685 28.339115-21.85305 17.861625-50.99045 26.742545-80.926135 26.742545z" fill="#F4F4F4" /><path d="M731.428571 363.020074H225.016566c-2.394855 0-4.889495-0.798285-5.68778-2.394855-1.59657-1.59657-2.394855-4.09121-2.394855-6.486065 0-3.19314 33.128825-317.916975 418.301306-317.916975 27.54083 0 57.476515 1.59657 87.4122 4.889495 2.394855 0 5.68778 2.394855 6.486065 4.889495 0.798285 2.394855 0.798285 5.68778-0.798285 8.082635-6.486065 9.679205-10.47749 21.85305-10.477489 34.026896 0 7.28435 1.59657 15.366985 4.09121 21.85305 0.798285 2.394855 0.798285 4.889495-0.798285 7.28435-36.42175 58.2748-82.522705 165.04541 13.770415 230.60456 3.19314 1.59657 4.09121 5.68778 3.19314 8.88092-0.199571 3.791853-3.392711 6.286494-6.685637 6.286494z" fill="#E22A20" /><path d="M750.088482 520.781134H216.03586c-32.33054 0-58.2748-25.844475-58.2748-58.2748v-65.55915c0-32.33054 25.844475-58.2748 58.2748-58.2748h533.952836c32.33054 0 58.2748 25.844475 58.2748 58.2748v65.55915c-0.798285 31.532255-26.64276 58.2748-58.175014 58.2748z" fill="#EFEFEF" /><path d="M631.942311 609.290976c-16.16527 0-29.536543-13.371273-29.536542-29.436757 0-16.16527 13.371273-29.536543 29.536542-29.536542 16.16527 0 29.436757 13.371273 29.436757 29.536542 0.598714 16.065484-12.772559 29.436757-29.436757 29.436757z" fill="#380B04" /><path d="M780.024167 173.626973c-46.89924 0-85.715845-38.816605-85.715845-85.715845 0-46.89924 38.01832-85.715845 85.715845-85.715844 46.89924 0 85.715845 38.816605 85.715845 85.715844 0 46.89924-38.816605 85.715845-85.715845 85.715845z" fill="#EFEFEF" /><path d="M305.842916 609.290976c-16.16527 0-29.536543-13.371273-29.536543-29.536542 0-16.16527 13.371273-29.536543 29.536543-29.536543 16.16527 0 29.536543 13.371273 29.536542 29.536543 0 16.16527-13.371273 29.536543-29.536542 29.536542z" fill="#380B04" /></svg>