<?xml version="1.0" standalone="no"?><!DOCTYPE svg PUBLIC "-//W3C//DTD SVG 1.1//EN" "http://www.w3.org/Graphics/SVG/1.1/DTD/svg11.dtd"><svg class="icon" width="200px" height="150.15px" viewBox="0 0 1364 1024" version="1.1" xmlns="http://www.w3.org/2000/svg"><path d="M784.170847 9.327839c0.411057 12.015521 4.047333 22.924349 10.908828 32.726485 3.541417 5.027547 5.027547 10.260623 3.952474 13.912708l-14.861302 50.907866-39.524741 5.217265a261.78026 261.78026 0 0 0-133.751721 7.272553c-54.069845-28.141615-61.136868-61.611165-21.18526-100.392841 3.841805-3.762755 8.663823-5.912901 13.438411-6.00776l181.023311-3.636276z" fill="#EAF6FF" /><path d="M784.170847 9.327839c101.278194 9.280409 112.977518 47.540358 35.097969 114.779845-7.067024-12.964115-18.766347-18.703107-35.097969-17.232786l14.861302-50.907866c1.075073-3.652086-0.411057-8.885162-3.952474-13.912708a59.603308 59.603308 0 0 1-10.908828-32.726485z" fill="#C5E0FF" /><path d="M1158.232988 7.904948c17.912612 33.311451 17.960042 65.658499 0.158099 97.072762l-38.259948 7.114453a393.271166 393.271166 0 0 0-133.751721 3.320079c-51.650931-24.457909-60.235704-55.540165-25.770131-93.278387 3.636276-3.952474 8.410865-6.276529 13.280313-6.482058L1158.232988 7.904948z" fill="#EAF6FF" /><path d="M1158.232988 7.904948c99.602345 11.066927 113.246286 47.11349 40.947631 108.139689l-40.789532-11.066927c17.801943-31.414264 17.754513-63.761311-0.158099-97.072762zM744.646106 112.092163l-3.952474 85.689637h-126.479168l-3.320079-78.417084a261.78026 261.78026 0 0 1 133.751721-7.272553z" fill="#C5E0FF" /><path d="M784.170847 106.874898c16.331623-1.47032 28.030946 4.268672 35.097969 17.232786 4.205432 24.663438 3.05131 49.216207-3.478177 73.674116h-75.097007l3.952474-85.689637 39.524741-5.217265z" fill="#8DCAFC" /><path d="M1120.131139 112.092163l-7.904948 85.689637-123.159091 0.632396-2.687682-83.001954a393.271166 393.271166 0 0 1 133.751721-3.320079z" fill="#C5E0FF" /><path d="M1158.391087 104.97771l40.789532 11.066927-3.952474 81.737163h-83.001954l7.904948-85.689637z" fill="#8DCAFC" /><path d="M412.638288 116.044637c37.627553 32.568386 43.097777 71.191962 16.442292 115.886539l-189.244456 2.845781c-81.262866-4.58487-98.495653-108.139689-7.746849-118.099924 22.544912-2.529583 82.733186-2.735112 180.549013-0.632396z" fill="#EAF6FF" /><path d="M412.638288 116.044637c78.828142-16.552961 115.933968 12.22105 111.301669 86.322033l-63.239585 39.52474c-5.375365-7.478081-15.920565-10.798159-31.619792-9.960234 26.655485-44.694576 21.185261-83.318152-16.442292-115.886539z" fill="#C5E0FF" /><path d="M614.214464 197.7818h201.576175l173.276461 0.632396 123.159091-0.632396h83.001954l79.049481 1.264792-7.904948 110.669273-67.192059 3.952474-209.481123-3.952474-166.636305 3.320078-203.94766-3.320078a7.462271 7.462271 0 0 0-5.580893 2.403104 8.742873 8.742873 0 0 0-2.324055 5.976141l-0.316198 50.275469-1.264791 233.195968-2.845782-235.725551-1.106692-47.903985a8.221146 8.221146 0 0 0-8.379245-7.904948l-73.990314-0.316198c-21.817657 2.213385-42.686719-0.632396-62.607189-8.537344V241.89141l63.239585-39.52474 90.274507-4.58487z" fill="#FCB982" /><path d="M1274.277626 199.046592c26.655485-5.802232 50.797196-2.418914 72.409324 10.118333 4.268672 2.434724 6.877305 7.114453 6.798255 12.17362l-1.264791 70.354038c-0.126479 5.312125-3.478177 9.738896-8.063047 10.59263l-58.022319 11.383126-19.76237-3.952474 7.904948-110.669273z" fill="#FC9743" /><path d="M429.08058 231.931176c15.699227-0.837924 26.244428 2.482154 31.619792 9.960234v59.287111c-20.552865 102.874994 0.094859 195.094118 61.974793 276.673182l71.144533 154.146487-70.512137-3.320079-27.667318-1.264791c9.960235-11.383125-88.061121-195.410316-100.550939-220.70615-28.774011-58.338517-20.710964-135.807008-20.710964-199.995186a8.063047 8.063047 0 0 0-7.904948-7.904948l-127.111565-5.533463 0.474297-58.496616 189.244456-2.845781z" fill="#8DCAFC" /><path d="M239.361827 293.273573l127.111565 5.533463c4.410961 0.158099 7.904948 3.652086 7.904948 7.904948 0 64.188178-8.063047 141.656669 20.710964 199.995186 12.489818 25.295834 110.511174 209.323024 100.550939 220.70615l-122.526695 1.264791-8.537344-8.537344c-25.453933-89.642111-146.557737-69.879741-133.751721 4.58487l-18.655677 8.379245-111.775966-1.739088c40.473334-80.424941 80.946668-160.897313 121.420002-241.417114 28.457813-56.441329 16.916589-134.700315 17.548985-196.675107z" fill="#C5E0FF" /><path d="M460.700372 301.178521c19.920469 7.904948 40.789532 10.750729 62.607189 8.537344l0.632396 62.607188-1.264792 205.52865c-61.879933-81.579064-82.527658-173.798188-61.974793-276.673182z" fill="#FFFFFF" /><path d="M523.307561 309.715865l73.990314 0.316198a8.221146 8.221146 0 0 1 8.379245 7.904948l1.106692 47.903985-82.843855 6.482057-0.632396-62.607188z" fill="#F2671E" /><path d="M823.063191 313.035943c2.845781 96.124168 1.47032 192.137667-4.110573 288.056307-5.059167 85.057241-46.322996 132.645028-134.858414 113.673153 65.769168-56.757527 56.599428-96.756564 56.757527-176.438441a11.541224 11.541224 0 0 1 7.430652-10.750729c36.141422-13.802039 36.410191-29.358977 0.790494-46.639194a14.418625 14.418625 0 0 1-7.746849-11.225026l-5.217265-38.101849 3.952474-35.572267c8.537344-36.204662-106.084403-26.718724-129.166852-27.667318l0.316198-50.275469c0-2.245005 0.837924-4.410961 2.324055-5.976141a7.462271 7.462271 0 0 1 5.580893-2.403104l203.94766 3.320078z" fill="#3351C5" /><path d="M989.699496 309.715865l-3.320078 54.70224c-4.901068 115.570341-28.299714 317.304615 73.832215 347.817714 64.283038 15.699227 109.088283-6.687586 134.384117-67.192058l0.632395 256.278416-509.236753 8.537344-76.361798-154.146487 3.320078-101.499533c19.8098 25.81756 43.524644 46.006798 71.144532 60.551902 88.535418 18.971875 129.799247-28.615912 134.858414-113.673153 5.580893-95.91864 6.956354-191.932139 4.110573-288.056307l166.636305-3.320078z" fill="#FFFFFF" /><path d="M989.699496 309.715865l209.481123 3.952474-4.584869 331.375422c-25.295834 60.504472-70.101079 82.891285-134.384117 67.192058 28.141615-27.983516 50.27547-48.220183 52.963152-91.2231 1.264792-21.34336-2.213385-87.428725 14.861302-97.863257 28.774011-12.853446 28.774011-25.137735 0-36.837058-11.288266-19.082545-15.446268-39.951607-12.489818-62.607188v-19.762371c11.857422-46.006798-98.653752-34.93987-129.166851-39.52474l3.320078-54.70224z" fill="#3351C5" /><path d="M1266.372678 309.715865l19.76237 3.952474v587.653838l-19.76237 9.16974-71.144533-9.16974-0.632395-256.278416 4.584869-331.375422zM606.783812 365.840996l2.845782 235.725551 3.320078 52.646954-3.320078 101.499533-15.809896-23.714844-71.144533-154.146487 1.264792-205.52865z" fill="#FB8628" /><path d="M986.379418 364.418105c30.513099 4.58487 141.024273-6.482057 129.166851 39.52474-31.208735-16.964019-46.117467-12.647917-44.742006 12.964115a12.252669 12.252669 0 0 0 8.063047 10.908829c12.11038 4.221242 24.34724 2.845781 36.678959-4.110573-2.956451 22.655581 1.201552 43.524644 12.489818 62.607188-43.745983 13.485841-43.745983 25.770131 0 36.837058-17.074688 10.434531-13.596511 76.519897-14.861302 97.863257-2.687682 43.002917-24.821537 63.239584-52.963152 91.2231-102.131929-30.513099-78.733283-232.247374-73.832215-347.817714zM610.894385 368.370579c23.082448 0.948594 137.704195-8.537344 129.166852 27.667318-45.058204-22.291954-78.575184 44.10961-3.952474 35.572267l5.217265 38.101849a14.418625 14.418625 0 0 0 7.746849 11.225026c35.619696 17.280216 35.350928 32.837154-0.790494 46.639194a11.541224 11.541224 0 0 0-7.430652 10.750729c-0.158099 79.681876 9.011641 119.680913-56.757527 176.438441-27.619888-14.545104-51.334733-34.734342-71.144532-60.551902l-3.320078-52.646954 1.264791-233.195968z m95.175575 232.247374c-30.46567-8.742873-39.951607-1.691659-28.457813 21.185261 19.288073 38.259949 83.792449-5.375365 28.457813-21.185261z" fill="#5169CC" /><path d="M740.061237 396.037897l-3.952474 35.572267c-74.62271 8.537344-41.10573-57.86422 3.952474-35.572267z" fill="#6E80D5" /><path d="M1115.546269 403.942845v19.762371c-12.331719 6.956354-24.568579 8.331815-36.678959 4.110573a12.252669 12.252669 0 0 1-8.063047-10.908829c-1.375461-25.612032 13.533271-29.928133 44.742006-12.964115zM1128.036087 486.312404c28.774011 11.699323 28.774011 23.983612 0 36.837058-43.745983-11.066927-43.745983-23.351217 0-36.837058z" fill="#8897DC" /><path d="M364.576204 720.140767a350.347298 350.347298 0 0 1-133.751721 4.58487c-12.806016-74.464611 108.297788-94.226981 133.751721-4.58487z" fill="#EAF6FF" /><path d="M364.576204 720.140767l8.537344 8.537344c-47.429688 101.183335-101.088476 102.653655-160.944742 4.426771l18.655677-8.379245a350.347298 350.347298 0 0 0 133.751721-4.58487z" fill="#C6F1E5" /><path d="M212.168806 733.104882c59.856267 98.226884 113.515054 96.756564 160.944742-4.426771l122.526695-1.264791 27.667318 1.264791-6.640156 4.742969c-3.478177 2.466344-4.284482 7.936568-1.897188 12.964115 36.995157 79.365678 119.048518 188.295863 79.20758 255.171723a6.940544 6.940544 0 0 0-0.632396 5.802232 4.711349 4.711349 0 0 0 3.952474 3.209409l32.726485 2.687682v2.687683c-173.813998-1.264792-347.501516-2.482154-521.094176-3.636277-96.598465-0.632396-124.265783-49.643074-81.737163-133.593622a11958.763511 11958.763511 0 0 0 73.199819-147.348231l111.775966 1.739088z m289.479197 129.483049a45.848699 45.848699 0 1 0-91.697397 0 45.848699 45.848699 0 0 0 91.697397 0z m-315.407427 8.584774c-0.300388-12.300099-11.983901-22.023185-26.117948-21.706987a27.667318 27.667318 0 0 0-17.960042 6.956354c-4.711349 4.268672-7.272552 10.007664-7.146073 15.920565 0.284578 12.300099 11.968091 22.023185 26.117948 21.706988a27.667318 27.667318 0 0 0 17.944232-6.956355c4.711349-4.268672 7.272552-10.007664 7.146073-15.920565z m101.97383 45.753839c-0.01581-5.280505-2.845781-10.339672-7.857518-14.070807s-11.809992-5.818042-18.908636-5.802232c-14.750633 0.03162-26.702915 8.964211-26.671295 19.967899 0 5.280505 2.829971 10.339672 7.841709 14.070807s11.825802 5.818042 18.908635 5.802232c14.750633-0.03162 26.702915-8.964211 26.687105-19.967899z" fill="#65E0C4" /><path d="M523.307561 728.678111l70.512137 3.320079 15.809896 23.714844 76.361798 154.146487c12.537248 52.378186-6.11843 86.843759-55.967032 103.39672l-32.726485-2.687682a4.711349 4.711349 0 0 1-3.952474-3.209409 6.940544 6.940544 0 0 1 0.632396-5.802232c39.840938-66.875861-42.212423-175.806045-79.20758-255.171723-2.387294-5.027547-1.58099-10.497771 1.897188-12.964115l6.640156-4.742969z" fill="#28D1B3" /><path d="M1195.228145 901.322177l71.144533 9.16974c6.323958 30.244331 6.007761 60.125035-0.948594 89.64211a6.719206 6.719206 0 0 0 1.075073 5.501844 7.051214 7.051214 0 0 0 4.932688 2.877401l66.717761 7.588751-708.125246-0.158099v-2.687683c49.848602-16.552961 68.50428-51.018535 55.967032-103.39672l509.236753-8.537344z" fill="#FCB982" /><path d="M1286.135048 901.322177l54.860339 10.59263c4.363531 0.869544 8.189526 4.822018 9.960235 10.276433 10.434531 32.568386 6.165859 63.87198-12.806016 93.910783l-66.717761-7.588751a7.051214 7.051214 0 0 1-4.932688-2.877401 6.719206 6.719206 0 0 1-1.075073-5.501844c6.956354-29.517076 7.272552-59.39778 0.948594-89.64211l19.76237-9.16974z" fill="#FC9743" /><path d="M706.06996 600.617953c55.334636 15.809896-9.16974 59.445209-28.457813 21.185261-11.493794-22.87692-2.007857-29.928133 28.457813-21.185261z" fill="#8897DC" /><path d="M455.799305 862.587931m-45.848699 0a45.848699 45.848699 0 1 0 91.697397 0 45.848699 45.848699 0 1 0-91.697397 0Z" fill="#C6F1E5" /><path d="M135.023105 872.33874a22.291954 25.612032 88.7 1 0 51.210879-1.162138 22.291954 25.612032 88.7 1 0-51.210879 1.162138Z" fill="#28D1B3" /><path d="M234.776998 917.020607a19.920469 26.718724 89.9 1 0 53.437367-0.093266 19.920469 26.718724 89.9 1 0-53.437367 0.093266Z" fill="#C6F1E5" /></svg>