<?xml version="1.0" standalone="no"?><!DOCTYPE svg PUBLIC "-//W3C//DTD SVG 1.1//EN" "http://www.w3.org/Graphics/SVG/1.1/DTD/svg11.dtd"><svg class="icon" width="200px" height="200.00px" viewBox="0 0 1024 1024" version="1.1" xmlns="http://www.w3.org/2000/svg"><path d="M703.082358 188.564349l-32.580545 8.885603c-17.143291-65.39804-53.195145-114.873079-108.167411-148.448812-90.04078-55.09074-175.81647 77.245511-193.9431 148.448812l-29.618678-5.923736c10.662724-39.641638 28.149591-75.503933 52.484297-107.575036 128.900485-169.063411 258.748767-29.974102 311.825437 104.613169z" fill="#FC9743" /><path d="M670.501813 197.449952l-145.486944 45.849713a17.771207 17.771207 0 0 1-11.136623 0.118475l-145.486944-45.968188c18.126631-71.203301 103.902321-203.539552 193.9431-148.448812 54.972266 33.575733 91.02412 83.050772 108.167411 148.448812z" fill="#FFFFFF" /><path d="M907.451233 177.664675c0.781933 9.797859 4.383564 18.091088 10.781199 24.879689 3.080342 3.317292 5.10626 6.717516 5.805261 9.714927 8.411704 40.518351-20.022226 40.873775-22.510195 71.084826-28.836744-10.105893-44.78344-30.68495-47.863783-61.725324 7.973348-7.345432 11.089233-16.065171 9.359502-26.182911l44.428016-17.771207z" fill="#FDDD44" /><path d="M907.451233 177.664675c49.285479 7.345432 66.890821 36.810092 52.839721 88.382134-9.714926 3.009258-17.463172 9.08701-23.221043 18.245106l-35.542413-0.947798c2.487969-30.211051 30.921899-30.566475 22.510195-71.084826-0.699001-2.99741-2.724918-6.397634-5.805261-9.714927-6.397634-6.788601-9.999266-15.081831-10.781199-24.879689z" fill="#F8C52D" /><path d="M338.772624 191.526216l29.618678 5.923736 145.486944 45.968188a17.771207 17.771207 0 0 0 11.136623-0.118475l145.486944-45.849713 32.580545-8.885603c53.621654-2.369494 106.935273-0.071085 159.940859 6.871533 1.729731 10.11774-1.386154 18.837479-9.359502 26.182911a344.808796 344.808796 0 0 0-138.733886 0.473899l-29.618677 5.923735a453.284241 453.284241 0 0 0-122.028952 32.343596c-4.584971 1.895595-4.703446 3.957055-0.355424 6.160685 12.795269 6.753058 122.50285 62.673122 118.948609 70.610927-23.576467 0.473899-41.821573 3.435767-63.620919-8.767128a1042.162788 1042.162788 0 0 0-93.476547-46.797511 13.683829 13.683829 0 0 0-10.781198-0.118475c-45.968188 19.311378-102.599099 64.331768-152.476952 53.432095-4.111072-0.864865-4.26509-2.369494-0.473899-4.502039l111.484702-63.028546c3.471309-1.895595 3.471309-3.743801 0-5.568311-37.99484-19.263988-77.648325-30.519085-118.948609-33.765293l-32.580545-5.923735c-97.504686-21.917821-251.640284-3.554241-222.140082 138.259986l-8.885603 5.923736-20.259175 3.435767c-36.490211-179.963085 145.723894-196.786494 269.056066-178.185965z" fill="#F2671E" /><path d="M321.001418 222.092692l-26.182911 112.077075c2.760461 16.823409-0.355424 31.47873-9.359502 43.954118l-36.371736 1.777121c-3.09219 0.14217-5.734176 3.032953-6.27916 6.871533l-5.212887 36.253261-63.028546 60.066678a6.504262 6.504262 0 0 1-4.26509 1.848206 5.035175 5.035175 0 0 1-3.909665-1.611256l-23.102568-25.235114c27.012234-53.704586 12.202895-86.285131-44.428017-97.741636-29.500203-141.814228 124.635395-160.177808 222.140082-138.259986zM853.663715 221.618793c3.080342 31.040374 19.027038 51.619431 47.863783 61.725324l35.542413 0.947798c20.851549 70.137028-17.889681 146.908641-62.436173 197.497341a8.364315 8.364315 0 0 1-6.587194 2.760461 10.816741 10.816741 0 0 1-7.155872-3.115885l-59.592779-58.408032-4.26509-34.950039c-0.521289-3.945208-2.559054-7.12033-5.331362-8.29323-10.982606-4.656056-22.747144-6.196227-35.305463-4.620514l-14.809339-38.504281-26.65681-114.565044a344.808796 344.808796 0 0 1 138.733886-0.473899z" fill="#FFFFFF" /><path d="M321.001418 222.092692l32.580545 5.923735-26.41986 96.675364c-1.279527 4.596819-3.317292 8.10367-5.568312 9.596451-7.902263 5.449837-16.823409 5.414294-26.775284-0.118475l26.182911-112.077075zM714.929829 222.092692l26.65681 114.565044-29.144779-2.487969-27.130708-106.15334z" fill="#FC9743" /><path d="M353.581963 228.016427c41.300284 3.246207 80.953769 14.501305 118.948609 33.765293 3.471309 1.824511 3.471309 3.672716 0 5.568311l-111.484702 63.028546c-3.791191 2.132545-3.637174 3.637174 0.473899 4.502039 49.877853 10.899673 106.508764-34.120717 152.476952-53.432095 3.471309-1.433544 7.369127-1.386154 10.781198 0.118475a1042.162788 1042.162788 0 0 1 93.476547 46.797511c21.799347 12.202895 40.044452 9.241027 63.620919 8.767128l15.283238 3.435767-0.473899 40.99225h-95.253667c-30.803425-0.118475-28.43393 25.945962 0.947797 27.960031a412.884365 412.884365 0 0 0 97.741636-4.738988c9.075163 12.08442 8.091823 22.273246-2.961867 30.566475-24.287316-3.317292-141.814228-15.046288-114.209621 20.140701 2.452427 3.198817 6.018515 5.047023 9.596451 4.975938l104.61317-2.369495c12.001488 9.714926 12.001488 19.903751 0 30.566476a468.152817 468.152817 0 0 0-100.34808-2.487969c-27.367658 2.132545-20.733074 24.761214 2.132545 27.249183 31.822307 3.317292 63.573529 2.653834 95.253667-2.01407 11.527589 16.906341 12.510929 34.997429 2.961868 54.261417-49.403954 3.909665-143.946773-14.809339-170.129684 36.490211a8.068128 8.068128 0 0 1-6.27916 4.502039l-4.265089 0.473899-3.435767-9.359502c16.586459-50.114802 6.397634-142.643551 6.397634-197.615817 0-3.601631 1.326917-7.30989 3.791191-10.544249 8.684196-11.207708 7.061093-18.162173-4.857463-20.851549a17.297308 17.297308 0 0 1-9.477977-5.449837c-18.008156-21.562397-40.7553-30.163661-68.241433-25.827487-6.243617 1.03073-6.954465 3.554241-2.132545 7.582382 19.974836 17.060358 30.282136 33.457258 30.9219 49.167005 2.049612 53.716434 2.843393 107.503952 2.369494 161.362555-0.071085 4.2177-2.428732 7.665314-5.568312 8.174755l-11.965945 1.895595-165.390696 5.449837-3.435766-192.995303c9.004078-12.475387 12.119963-27.130709 9.359502-43.954118 9.951876 5.532769 18.873021 5.568311 26.775284 0.118475 2.251019-1.492781 4.288785-4.999633 5.568312-9.596451l26.41986-96.675364z m102.942676 166.196324a14.453915 14.453915 0 0 0-14.631627-14.276203l-90.988577 1.113662a14.453915 14.453915 0 0 0-14.276203 14.631627l0.023695 1.421697a14.453915 14.453915 0 0 0 14.631627 14.276202l90.988577-1.113662a14.453915 14.453915 0 0 0 14.264355-14.631627l-0.011847-1.421696z m0.710848 52.14072a14.216965 14.216965 0 0 0-14.181423-14.240661l-92.884173-0.165864a14.216965 14.216965 0 0 0-14.24066 14.19327v1.184747a14.216965 14.216965 0 0 0 14.193271 14.24066l92.884172 0.165865a14.216965 14.216965 0 0 0 14.24066-14.19327v-1.184747z m-0.355424 52.152567a14.572389 14.572389 0 0 0-14.584237-14.536847l-91.462476 0.154017a14.572389 14.572389 0 0 0-14.548695 14.596084v1.421697a14.572389 14.572389 0 0 0 14.596085 14.548694l91.462476-0.154017a14.572389 14.572389 0 0 0 14.548694-14.607932v-1.421696z" fill="#F1EFF2" /><path d="M685.311152 228.016427l27.130708 106.15334-15.283237 6.397635-15.283238-3.435767c3.554241-7.937806-106.15334-63.857869-118.948609-70.610927-4.348022-2.20363-4.229547-4.26509 0.355424-6.160685a453.284241 453.284241 0 0 1 122.028952-32.343596z" fill="#FFFFFF" /><path d="M960.290954 266.046809c35.542413 81.155176-17.297308 178.778338-68.359908 241.688409a6.990008 6.990008 0 0 0 0 9.004078c48.693106 58.644982 96.793838 151.17373 74.283643 226.286696-29.855627 99.755706-172.499178 103.072998-262.658432 91.699426-10.271757-6.468719-21.135888-8.447247-32.580545-5.923736l-142.998976-45.494288a19.868209 19.868209 0 0 0-11.373572-0.355424l-106.745714 31.514272c-10.662724-4.336174-16.432442-12.392455-17.297307-24.16884l78.311783-23.813417c9.312112-2.843393 9.430587-6.314702 0.355424-10.425775a734.578745 734.578745 0 0 1-120.607255-68.952281l55.801589 2.487969a576.059583 576.059583 0 0 0 110.299955 51.418024c3.684563 1.232137 7.641619 1.232137 11.255097 0a357.604065 357.604065 0 0 0 95.135193-50.944125c20.685684-4.738988 41.418759-5.047023 62.199223-0.947798l-119.185559 68.952281c-3.246207 1.895595-3.163275 3.601631 0.23695 5.094413 34.037784 15.484645 71.558725 27.095166 112.550974 34.831565l36.016312 6.634584c209.818712 37.438008 304.480005-95.727566 157.926789-262.539958a5.283972 5.283972 0 0 0-3.897818-1.741578 6.006668 6.006668 0 0 0-4.158463 1.623103l-63.976343 59.237355 0.473899-41.940047 43.243269-39.807503c2.464274-2.227325 2.665681-6.350244 0.473899-9.714926a157.974179 157.974179 0 0 0-43.717168-45.257339v-41.466149l59.592779 58.408032a10.816741 10.816741 0 0 0 7.155872 3.115885c2.606444 0.059237 4.975938-0.93595 6.587194-2.760461 44.546491-50.588701 83.287721-127.360313 62.436173-197.497341 5.757871-9.158095 13.506117-15.235848 23.221043-18.245106z" fill="#F2671E" /><path d="M712.44186 334.169767l29.144779 2.487969 14.809339 38.504281c-19.192903 38.148857-5.331362 154.372547-9.359502 198.919039a77.553545 77.553545 0 0 0-43.954118-5.449837l-5.923735-2.961868c9.549062-19.263988 8.565722-37.355076-2.961868-54.261417 7.179567-6.942618 8.174755-14.524999 2.961868-22.747144 12.001488-10.662724 12.001488-20.851549 0-30.566476v-22.747144c11.05369-8.29323 12.037031-18.482055 2.961867-30.566475 4.419107-8.530179 3.269902-16.266578-3.435766-23.221043l0.473899-40.99225 15.283237-6.397635zM513.048923 597.775998c-11.136623-15.081831-25.791944-24.121451-43.954118-27.130709l-14.809338-4.975938 11.965945-1.895595c3.13958-0.509441 5.497227-3.957055 5.568312-8.174755 0.473899-53.858603-0.319882-107.646122-2.369494-161.362555-0.639763-15.709747-10.947063-32.106646-30.9219-49.167005-4.821921-4.02814-4.111072-6.551651 2.132545-7.582382 27.486133-4.336174 50.233277 4.26509 68.241433 25.827487 2.298409 2.689376 5.639396 4.608666 9.477977 5.449837 11.918556 2.689376 13.541659 9.643841 4.857463 20.851549a17.534257 17.534257 0 0 0-3.791191 10.544249c0 54.972266 10.188825 147.501014-6.397634 197.615817z" fill="#E1DDE1" /><path d="M98.861336 360.352678c56.630911 11.456504 71.44025 44.03705 44.428017 97.741636l-23.694942 12.795269-5.923736-0.947798-5.923736-12.202895c-1.634951-3.400224-1.587561-7.191415 0.118475-10.07035 18.008156-31.040374 12.037031-58.171083-17.889681-81.392126l8.885603-5.923736z" fill="#F8C52D" /><path d="M89.975733 366.276414c29.926712 23.221043 35.897837 50.351752 17.889681 81.392126-1.706036 2.878935-1.753426 6.670126-0.118475 10.07035l5.923736 12.202895c-36.099244 0-56.476894-15.875611-61.13295-47.626833-3.080342-20.851549 8.174755-34.71309 17.178833-52.602771l20.259175-3.435767z" fill="#FDDD44" /><path d="M756.395978 375.162017c12.558319-1.575714 24.322858-0.035542 35.305463 4.620514 2.772308 1.1729 4.810073 4.348022 5.331362 8.29323l4.26509 34.950039v41.466149a289.161225 289.161225 0 0 0 0 94.779768l-0.473899 41.940047-3.317292 75.823815c-0.213254 4.004445-2.819698 7.179567-6.04221 7.345432l-43.954118 1.77712c5.99482-19.027038 5.01148-37.473551-2.961867-55.327689 5.129955-18.636072 5.959278-37.556483 2.487969-56.749386 4.02814-44.546491-9.833401-160.770182 9.359502-198.919039z" fill="#3351C5" /><path d="M285.459005 378.123885l3.435766 192.995303c-4.667904 19.512785-2.653834 37.283991 6.042211 53.313619 1.812663 3.305444 5.319514 5.343209 9.122552 5.331362l167.997139 0.118475h225.10195l47.389884 0.947798c7.973348 17.854139 8.956688 36.300651 2.961867 55.327689l-2.961867 0.947798-32.580546 2.961868c-8.767129-4.893006-17.652732-5.212887-26.656809-0.947798a147.465472 147.465472 0 0 0-62.199223 0.947798c-72.198488-5.520921-144.420672-5.686786-216.690245-0.473899l-55.801589-2.487969-20.733074 2.961868c-11.065538-5.212887-21.917821-5.212887-32.580545 0l-49.640904-6.397635a7.226957 7.226957 0 0 1-6.397634-6.516109l-6.160685-76.890086c5.129955-13.186235 5.959278-26.846369 2.487969-40.99225l-2.487969-95.253667a74.757542 74.757542 0 0 0 2.487969-40.99225l5.212887-36.253261c0.544984-3.838581 3.18697-6.729364 6.27916-6.871533l36.371736-1.777121z" fill="#5169CC" /><path d="M696.684724 381.559652c6.705669 6.954465 7.854873 14.690864 3.435766 23.221043a412.884365 412.884365 0 0 1-97.741636 4.738988c-29.381728-2.01407-31.751222-28.078506-0.947797-27.960031h95.253667z" fill="#CBC5CB" /><path d="M237.595222 423.0258a74.757542 74.757542 0 0 1-2.487969 40.99225l-40.99225 43.00632c-2.345799 2.487969-2.440579 6.551651-0.236949 9.714926 11.610522 17.060358 26.182911 31.241781 43.717168 42.532421 3.471309 14.14588 2.641986 27.806014-2.487969 40.99225l-59.35583-59.118881a6.27916 6.27916 0 0 0-4.134767-1.8719 5.070718 5.070718 0 0 0-3.921513 1.516476c-42.532421 45.02039-101.058928 148.567287-58.408032 206.975319 40.115537 54.972266 98.997468 74.722 176.645793 59.237355 7.416517 12.32137 9.241027 22.39172 5.449836 30.211051-241.096035 29.381728-283.391507-158.637637-147.14559-317.275274a7.937806 7.937806 0 0 0 0.710848-9.477977l-25.353587-39.570553 23.694942-12.795269 23.102568 25.235114c0.959645 1.066272 2.369494 1.658646 3.909665 1.599408 1.540171-0.035542 3.080342-0.710848 4.26509-1.836358l63.028546-60.066678z" fill="#FA7621" /><path d="M697.158623 435.34717v22.747144l-104.61317 2.369495c-3.577936 0.071085-7.144025-1.777121-9.596451-4.975938-27.604607-35.186989 89.922305-23.457993 114.209621-20.140701z" fill="#CBC5CB" /><path d="M235.107253 464.01805l2.487969 95.253667a151.612087 151.612087 0 0 1-43.717168-42.532421c-2.20363-3.163275-2.10885-7.226957 0.236949-9.714926l40.99225-43.00632zM801.297893 464.491949a157.974179 157.974179 0 0 1 43.717168 45.257339c2.191782 3.364682 1.990375 7.487602-0.473899 9.714926l-43.243269 39.807503a289.161225 289.161225 0 0 1 0-94.779768z" fill="#FFFFFF" /><path d="M697.158623 488.66079c5.212887 8.222145 4.2177 15.804526-2.961868 22.747144-31.680137 4.667904-63.43136 5.331362-95.253667 2.01407-22.865619-2.487969-29.500203-25.116639-2.132545-27.249183a468.152817 468.152817 0 0 1 100.34808 2.487969z" fill="#CBC5CB" /><path d="M235.107253 600.263967l6.160685 76.890086a7.226957 7.226957 0 0 0 6.397634 6.516109l49.640904 6.397635a197.13007 197.13007 0 0 0 17.771206 76.060764l-29.144778 40.873775c-77.648325 15.484645-136.530256-4.26509-176.645793-59.237355-42.650896-58.408032 15.875611-161.954929 58.408032-206.975319a5.070718 5.070718 0 0 1 3.921513-1.516476 6.27916 6.27916 0 0 1 4.134767 1.8719l59.35583 59.118881zM714.929829 804.632842l29.618678-117.526913 2.961867-0.947798 43.954118-1.77712c3.222512-0.165865 5.828956-3.340987 6.04221-7.345432l3.317292-75.823815 63.976343-59.237355a6.018515 6.018515 0 0 1 4.158463-1.623103 5.283972 5.283972 0 0 1 3.897818 1.741578c146.553216 166.812392 51.891923 299.977966-157.926789 262.539958z" fill="#FFFFFF" /><path d="M454.285467 565.669351l14.809338 4.975938c-11.373572-1.895595-17.226223 1.03073-17.534257 8.767129-0.14217 2.926325 1.599409 6.516109 4.738989 9.714926 10.899673 10.982606 16.148103 24.571655 15.757136 40.7553l-167.997139-0.118475a10.366537 10.366537 0 0 1-9.122552-5.331362c-8.696044-16.029628-10.710114-33.800835-6.042211-53.313619l165.390696-5.449837zM697.158623 565.669351l5.923735 2.961868-5.923735 61.251425h-174.750198l-5.923735-22.747144 4.265089-0.473899a8.068128 8.068128 0 0 0 6.27916-4.502039c26.182911-51.29955 120.72573-32.580545 170.129684-36.490211z" fill="#CBC5CB" /><path d="M703.082358 568.631219a77.553545 77.553545 0 0 1 43.954118 5.449837c3.471309 19.192903 2.641986 38.113314-2.487969 56.749386l-47.389884-0.947798 5.923735-61.251425zM469.094805 570.645289c18.162173 3.009258 32.817495 12.048878 43.954118 27.130709l3.435767 9.359502 5.923735 22.747144h-50.351752c0.390967-16.183645-4.857463-29.772695-15.757136-40.7553-3.13958-3.198817-4.881158-6.788601-4.738989-9.714926 0.308034-7.736399 6.160685-10.662724 17.534257-8.767129z" fill="#B6ADB6" /><path d="M329.887021 690.067797l10.544249 64.331767c0.509441 3.080342 3.613479 5.746023 7.819331 6.753059a78.465801 78.465801 0 0 1 44.309542 29.144779c0.864865 11.776386 6.634584 19.832666 17.297307 24.16884l-30.092576 46.915986-26.182911 15.283237-24.168841-9.359502c44.546491-42.72198 39.760113-76.45173-14.33544-101.177402a197.13007 197.13007 0 0 1-17.771206-76.060764c10.662724-5.212887 21.515007-5.212887 32.580545 0z" fill="#F8C52D" /><path d="M350.620095 687.105929c37.982992 26.775284 78.193309 49.759378 120.607255 68.952281 9.075163 4.111072 8.956688 7.582381-0.355424 10.425775l-78.311783 23.813417a78.465801 78.465801 0 0 0-44.309542-29.144779c-4.205852-1.007035-7.30989-3.672716-7.819331-6.753059l-10.544249-64.331767 20.733074-2.961868zM623.111929 690.067797a357.604065 357.604065 0 0 1-95.135193 50.944125 17.605342 17.605342 0 0 1-11.255097 0 576.059583 576.059583 0 0 1-110.299955-51.418024c72.269573-5.212887 144.491757-5.047023 216.690245 0.473899zM711.967961 690.067797c-3.246207 38.705688-14.264355 74.686457-33.054444 107.930461-40.99225-7.736399-78.51319-19.34692-112.550974-34.831565-3.400224-1.492781-3.483156-3.198817-0.23695-5.094413l119.185559-68.952281c9.004078-4.26509 17.889681-3.945208 26.656809 0.947798z" fill="#FFFFFF" /><path d="M744.548507 687.105929l-29.618678 117.526913-36.016312-6.634584c18.790089-33.244004 29.808237-69.224773 33.054444-107.930461l32.580546-2.961868z" fill="#FC9743" /><path d="M315.077682 766.128561c54.095553 24.725672 58.881931 58.455422 14.33544 101.177402-17.060358-3.791191-29.737152-13.814151-38.030382-30.092576 3.791191-7.819331 1.96668-17.889681-5.449836-30.211051l29.144778-40.873775z" fill="#FDDD44" /><path d="M670.975712 828.801682c-51.181075 171.669855-203.065653 228.774665-291.210838 32.580546l30.092576-46.915986 106.745714-31.514272c3.388377-0.995188 7.35728-0.876713 11.373572 0.355424l142.998976 45.494288z" fill="#FFFFFF" /><path d="M703.556257 834.725418c-35.305464 101.058928-136.364391 241.21451-258.630292 157.926789-41.549081-28.350998-71.997081-67.009296-91.344002-115.986742l26.182911-15.283237c88.145184 196.19412 240.029763 139.08931 291.210838-32.580546 11.444657-2.523511 22.308788-0.544984 32.580545 5.923736z" fill="#FC9743" /><path d="M336.459286 381.226898m14.452835-0.176583l90.981787-1.111608q14.452836-0.176583 14.62942 14.276253l0.017369 1.42159q0.176583 14.452836-14.276253 14.629419l-90.981787 1.111608q-14.452836 0.176583-14.629419-14.276252l-0.017369-1.421591q-0.176583-14.452836 14.276252-14.629419Z" fill="#CBC5CB" /><path d="M335.955171 431.924031m14.216943 0.024813l92.884032 0.162113q14.216944 0.024813 14.19213 14.241757l-0.002068 1.184745q-0.024813 14.216944-14.241757 14.192131l-92.884031-0.162114q-14.216944-0.024813-14.19213-14.241756l0.002068-1.184746q0.024813-14.216944 14.241756-14.19213Z" fill="#CBC5CB" /><path d="M336.258073 484.145549m14.572367-0.025434l91.462337-0.159632q14.572367-0.025434 14.597801 14.546934l0.002481 1.421694q0.025434 14.572367-14.546933 14.597801l-91.462337 0.159632q-14.572367 0.025434-14.597801-14.546934l-0.002481-1.421694q-0.025434-14.572367 14.546933-14.597801Z" fill="#CBC5CB" /></svg>