<?xml version="1.0" standalone="no"?><!DOCTYPE svg PUBLIC "-//W3C//DTD SVG 1.1//EN" "http://www.w3.org/Graphics/SVG/1.1/DTD/svg11.dtd"><svg class="icon" width="200px" height="200.00px" viewBox="0 0 1024 1024" version="1.1" xmlns="http://www.w3.org/2000/svg"><path d="M687.712 610.872c0 23.36-19.12 42.48-42.488 42.48H500.76c-23.368 0-42.488-19.12-42.488-42.48V58.512c0-23.368 19.12-42.48 42.488-42.48h144.464c23.368 0 42.48 19.12 42.48 42.48v552.352z" fill="#FFD553" /><path d="M874.976 632.592c-3.24 23.144-24.816 39.432-47.96 36.2l-143.072-20c-23.144-3.24-39.44-24.824-36.2-47.968l76.48-547.032c3.24-23.144 24.816-39.432 47.96-36.192l143.072 20c23.144 3.232 39.432 24.816 36.2 47.96l-76.48 547.032z" fill="#FFD553" /><path d="M539.888 663.552c1.904 23.28-15.6 43.896-38.888 45.8L357.016 721.12c-23.288 1.904-43.904-15.6-45.808-38.88l-44.992-550.528c-1.904-23.288 15.6-43.904 38.888-45.8l143.984-11.76c23.288-1.912 43.904 15.584 45.808 38.88l44.992 550.512zM810.92 719.792c-1.424 23.328-21.68 41.24-45 39.816l-144.192-8.824c-23.32-1.424-41.24-21.68-39.816-45.008l33.728-551.32c1.424-23.32 21.68-41.24 45.008-39.816l144.192 8.824c23.328 1.424 41.24 21.68 39.816 45l-33.736 551.328z" fill="#FDBA55" /><path d="M407.544 598.064c4.824 22.872-9.936 45.52-32.8 50.344l-141.36 29.816c-22.864 4.816-45.52-9.944-50.344-32.816L69.056 104.96c-4.824-22.872 9.944-45.52 32.808-50.344l141.352-29.816c22.864-4.824 45.52 9.936 50.344 32.808l113.984 540.464z" fill="#FFD553" /><path d="M715.76 351.504c-23.376 0-46.48 18.696-51.36 41.552l-20.984 98.368c-4.872 22.848-27.984 41.552-51.352 41.552H450.344c-23.376 0-46.48-18.704-51.36-41.552l-20.976-98.36c-4.88-22.856-27.984-41.56-51.36-41.56H130.336c-23.368 0-39.48 18.88-35.808 41.96l91.176 572.552c3.68 23.08 25.808 41.96 49.168 41.96h572.672c23.376 0 45.496-18.88 49.176-41.96l91.176-572.552c3.68-23.072-12.44-41.96-35.808-41.96H715.76z" fill="#FF6376" /><path d="M168.856 860.28L180 930.24h682.408l11.144-69.944z" fill="#FFD553" /><path d="M297.272 655.864m-29.016 0a29.016 29.016 0 1 0 58.032 0 29.016 29.016 0 1 0-58.032 0Z" fill="#3F4963" /><path d="M745.128 655.864m-29.016 0a29.016 29.016 0 1 0 58.032 0 29.016 29.016 0 1 0-58.032 0Z" fill="#3F4963" /><path d="M328.32 757.272h-62.08a16.024 16.024 0 0 1 0-32.056h62.08a16.024 16.024 0 0 1 0 32.056zM776.168 757.272h-62.08a16.024 16.024 0 1 1 0-32.056h62.08a16.024 16.024 0 0 1 0 32.056z" fill="#FF9596" /><path d="M484.872 737.216a52.416 52.416 0 0 1-52.352-52.352 16.024 16.024 0 0 1 32.048 0 20.32 20.32 0 0 0 20.304 20.304c11.2 0 20.312-9.112 20.312-20.304a16.024 16.024 0 1 1 32.048 0 52.416 52.416 0 0 1-52.36 52.352z" fill="#3F4963" /><path d="M557.536 737.216a52.416 52.416 0 0 1-52.352-52.352 16.024 16.024 0 1 1 32.048 0 20.32 20.32 0 0 0 20.304 20.304c11.2 0 20.304-9.112 20.304-20.304a16.024 16.024 0 1 1 32.056 0 52.416 52.416 0 0 1-52.36 52.352z" fill="#3F4963" /><path d="M917.472 21.72L774.408 1.72c-31.944-4.472-61.584 17.896-66.056 49.856l-4.616 33.008V58.512C703.736 26.248 677.488 0 645.224 0H500.76c-32.264 0-58.512 26.248-58.512 58.512v0.112L312.392 69.232l-3.152-14.944a58.096 58.096 0 0 0-25.336-36.904 58.088 58.088 0 0 0-43.992-8.272L98.552 38.92a58.12 58.12 0 0 0-36.904 25.344 58.096 58.096 0 0 0-8.272 43.992l49.464 234.536c-4.8 2.808-9.12 6.384-12.752 10.64-9.728 11.4-13.888 26.912-11.4 42.56l91.176 572.544c4.96 31.104 33.512 55.464 65 55.464h572.672c31.488 0 60.04-24.368 65-55.464l91.168-572.552c2.496-15.632-1.656-31.144-11.392-42.552a50.536 50.536 0 0 0-20.152-14.216l35.16-251.44c4.472-31.952-17.896-61.584-49.84-66.056zM803.864 139.464c7.008 0.424 13.464 3.592 18.16 8.912 4.712 5.32 7.064 12.104 6.64 19.12l-10.28 167.984H715.752c-31.096 0-60.536 23.824-67.016 54.24L627.744 488.08c-2.016 9.448-9.096 18.168-17.896 23.504l21.784-356.144a26.256 26.256 0 0 1 8.912-18.16 26.288 26.288 0 0 1 19.12-6.64l144.192 8.824zM474.296 58.512a26.496 26.496 0 0 1 26.472-26.464h144.456a26.496 26.496 0 0 1 26.464 26.464v40.752l-10.056-0.616a58.064 58.064 0 0 0-42.32 14.616 58.104 58.104 0 0 0-19.664 40.216l-22.232 363.464h-33.424l-33.12-405.216A58.104 58.104 0 0 0 490.4 71.92a58.88 58.88 0 0 0-16.088-9.728v-3.68z m-23.896 31.6a26.272 26.272 0 0 1 19.248 6.24 26.272 26.272 0 0 1 9.28 17.984l32.904 402.608h-61.496c-15.72 0-32.392-13.488-35.68-28.864l-20.968-98.36c-2.968-13.912-10.744-26.432-21.28-35.936l-53.352-252.936L450.4 90.112zM84.744 101.64a26.256 26.256 0 0 1 3.76-19.88 26.264 26.264 0 0 1 16.672-11.472l141.352-29.816a26.264 26.264 0 0 1 19.88 3.76 26.256 26.256 0 0 1 11.472 16.672l58.064 275.28a62.296 62.296 0 0 0-9.28-0.704H134.056l-49.32-233.84z m847.32 289.304L840.88 963.504c-2.464 15.424-17.728 28.448-33.352 28.448H234.88c-15.624 0-30.888-13.024-33.344-28.448L110.352 390.944c-1.032-6.448 0.432-12.384 4.128-16.712 3.68-4.32 9.32-6.704 15.848-6.704h196.328c15.72 0 32.4 13.496 35.68 28.88l20.976 98.352c6.488 30.416 35.928 54.24 67.024 54.24h141.728c31.104 0 60.544-23.824 67.024-54.24L680.08 396.4c3.28-15.376 19.952-28.872 35.68-28.872h196.32c6.536 0 12.168 2.384 15.856 6.704 3.696 4.32 5.16 10.264 4.136 16.72z m3.52-307.6l-35.256 252.136h-49.832l10.16-166.032a58.12 58.12 0 0 0-14.616-42.312 58.112 58.112 0 0 0-40.216-19.664l-72.304-4.424 6.576-47.04a26.48 26.48 0 0 1 29.872-22.544l143.064 20a26.496 26.496 0 0 1 22.552 29.872zM297.28 626.832a29.016 29.016 0 1 0 0 58.032 29.016 29.016 0 0 0 0-58.032z m447.848 0a29.016 29.016 0 1 0 0 58.032 29.016 29.016 0 0 0 0-58.032z m-151.264 42a16.024 16.024 0 0 0-16.024 16.024c0 11.2-9.112 20.304-20.304 20.304a20.328 20.328 0 0 1-20.304-20.304 16.024 16.024 0 1 0-32.056 0c0 11.2-9.112 20.304-20.304 20.304a20.328 20.328 0 0 1-20.304-20.304 16.024 16.024 0 1 0-32.056 0 52.416 52.416 0 0 0 52.352 52.352 52.16 52.16 0 0 0 36.336-14.704 52.16 52.16 0 0 0 36.328 14.712 52.416 52.416 0 0 0 52.352-52.36 16.008 16.008 0 0 0-16.016-16.024z" fill="#000000" /></svg>