<?xml version="1.0" standalone="no"?><!DOCTYPE svg PUBLIC "-//W3C//DTD SVG 1.1//EN" "http://www.w3.org/Graphics/SVG/1.1/DTD/svg11.dtd"><svg class="icon" width="200px" height="200.00px" viewBox="0 0 1024 1024" version="1.1" xmlns="http://www.w3.org/2000/svg"><path d="M642.566785 7.312519c-39.757386 16.328926-63.422497 45.910315-70.995333 88.744166l-288.714352 0.709953c-4.30705 0-8.046138 1.585562-10.057672 4.25972-3.230288 4.176892-4.886845 9.430547-4.969674 15.737299 2.295516-51.826593-20.588646-88.744166-68.628821-110.752719l443.365852 1.301581z" fill="#E1DDE1" /><path d="M675.106312 255.796183l-5.916277-8.874416c9.07557-27.605352 3.987571-44.490408-15.263997-50.643337-52.181569-16.683903-80.579702-40.112363-82.354586-100.221745 7.572835-42.833851 31.237946-72.415239 70.995333-88.744166 143.173921-11.240928 167.075683 162.106009 39.40241 191.450747a7.572835 7.572835 0 0 0-5.916278 7.217859l-0.946605 49.815058z m28.75311-153.231593a34.196085 34.196085 0 1 0-68.39217 0 34.196085 34.196085 0 0 0 68.39217 0zM199.200933 6.010938c48.040175 22.008553 70.924337 58.926126 68.628821 110.752719-10.956946 49.54291-41.53227 77.302085-91.702304 83.30119a3.857413 3.857413 0 0 0-3.313116 2.839814l-0.591628 2.603162-3.076464-4.141395c-1.585562-2.106195-4.673859-3.70359-8.51944-4.378045-124.478483-20.825298-108.977836-195.828792 38.574131-190.977445z m7.572835 96.908629a34.314411 34.314411 0 1 0-68.628821 0 34.314411 34.314411 0 0 0 68.628821 0z" fill="#F1EFF2" /><path d="M571.571452 96.056685c1.774883 60.109382 30.173016 83.537841 82.354586 100.221745 19.251568 6.152929 24.339567 23.037985 15.263997 50.643337-8.436612 14.435718-22.079548 18.541614-40.940642 12.305857-17.902656 2.756985-28.043156-7.064036-30.409668-29.463063-0.153823-1.656558-1.727553-6.425078-4.733022-14.317392l-21.771902-58.334498c-2.993637-7.892314-9.051905-13.145969-15.145671-13.134136l-275.816867 0.236651a6.744557 6.744557 0 0 0-6.626231 6.034603c-7.016705 53.246499-35.734317 87.288761-86.141003 102.114953-3.005469 0.851944-6.188426-1.06493-7.099534-4.25972-1.656558-5.596799-4.094064-9.939347-7.336184-13.015811l-0.946605-2.958139v-26.623249l0.591628-2.603162a3.857413 3.857413 0 0 1 3.313116-2.839814c50.170035-5.999106 80.745358-33.758281 91.702304-83.30119 0.082828-6.306752 1.739386-11.560407 4.969674-15.737299 2.011534-2.674158 5.750622-4.25972 10.057672-4.25972l288.714352-0.709953z" fill="#A69CA7" /><path d="M628.249393 259.227624l-23.665111 4.969674c-133.471225 1.183256-272.385426-7.809487-404.910047 0.828279-21.215772 1.419907-30.054691-8.554938-26.504924-29.936366 3.24212 3.076464 5.679627 7.419012 7.336184 13.015811 0.911107 3.19479 4.094064 5.111664 7.099534 4.25972 50.406686-14.826192 79.124298-48.868454 86.141003-102.114953a6.744557 6.744557 0 0 1 6.626231-6.034603l275.816867-0.236651c6.093766-0.011833 12.152034 5.241822 15.145671 13.134136l21.771902 58.334498c3.005469 7.892314 4.579199 12.660834 4.733022 14.317392 2.366511 22.399027 12.507011 32.220048 30.409668 29.463063z" fill="#B6ADB6" /><path d="M172.222706 232.131072l0.946605 2.958139c-3.549767 21.381428 5.289152 31.356272 26.504924 29.936366 132.524621-8.637765 271.438822 0.354977 404.910047-0.828279 16.802229-2.12986 27.297705 5.170827 31.474597 21.890227 5.679627 22.801334 1.301581 40.550167-13.134136 53.2465l-417.689207-0.236651c-54.027448 10.175998-75.018401-9.501542-62.949195-59.044452 0.828279-3.372278 3.395943-6.330417 6.981208-8.046138 15.938452-7.726659 23.594116-21.026451 22.955157-39.875712z" fill="#E1DDE1" /><path d="M867.85864 244.43693a231.882589 231.882589 0 0 1 43.898781 70.522031c7.182361 20.908125 7.182361 41.615097 0 62.120916l-35.14269 15.382322c-3.774585 1.739386-6.590733 4.555534-7.809486 7.809486-6.507905 19.050414 17.03888 18.577112 26.149947 30.054691l-9.821021 23.665111-41.177293 23.073483c-3.336781 1.869544-5.620464 5.206324-6.058268 8.838919a9.430547 9.430547 0 0 0 3.928408 9.02824c13.962415 9.785523 17.867159 22.754004 11.71423 38.929107 0.55613 13.725764-9.738193 22.446358-30.882969 26.149948-10.803123 6.070101-27.13205 7.217859-48.98678 3.431441l5.916278-14.790695c34.432736-6.152929 60.582684-108.149557 78.804819-162.934288 6.94571-20.825298 8.921747-40.739488 5.916278-59.754405a472.80525 472.80525 0 0 0-18.10381-75.491704l21.653576-6.034603z" fill="#FA7621" /><path d="M867.85864 244.43693c30.764644 12.77916 45.401515 36.290448 43.898781 70.522031a231.882589 231.882589 0 0 0-43.898781-70.522031z" fill="#FCC99F" /><path d="M669.190035 246.921767l5.916277 8.874416c31.320774 19.16874 37.710354 44.372083 19.16874 75.61003a12.696332 12.696332 0 0 1-8.992742 5.916277l-45.673664 7.217859-16.683903-5.206324c14.435718-12.696332 18.813763-30.445165 13.134136-53.2465-4.176892-16.719401-14.672369-24.020088-31.474597-21.890227l23.665111-4.969674c18.861093 6.235757 32.50403 2.12986 40.940642-12.305857z" fill="#CBC5CB" /><path d="M846.205064 250.471533a472.80525 472.80525 0 0 1 18.10381 75.491704c3.005469 19.014917 1.029432 38.929107-5.916278 59.754405-18.222135 54.784732-44.372083 156.781359-78.804819 162.934288a3740.341768 3740.341768 0 0 1 63.659148-182.103028c5.087999-13.134137 7.572835-30.764644-13.489113-28.279807-3.490604 0.378642-6.555236 2.887144-7.927812 6.507905-28.398133 72.296914-65.079055 192.279026-81.526307 206.951395l-38.574131-47.448548 0.354977-19.878693c18.541614-74.935574 41.496772-135.127783 68.865472-180.564796 16.565578-27.368701 41.650595-45.164864 75.255053-53.364825z" fill="#FC9743" /><path d="M205.235536 339.097374l417.689207 0.236651 16.683903 5.206324 0.473302 153.349918c-22.162376 8.909914-44.845385 9.903849-68.037193 2.958139l-1.774884-103.771511a6.212092 6.212092 0 0 0-6.271254-6.034603l-358.289779-2.12986a80.224726 80.224726 0 0 1-0.473302-49.815058z" fill="#B6ADB6" /><path d="M779.587777 548.65193l-5.916278 14.790695-18.695437 56.204638c-7.016705 21.925725-18.849261 25.877799-35.497667 11.832555l20.825298-79.751423c16.447252-14.672369 53.128174-134.654481 81.526307-206.951395 1.372576-3.620762 4.437208-6.129264 7.927812-6.507905 21.061949-2.484837 18.577112 15.145671 13.489113 28.279807a3740.341768 3740.341768 0 0 0-63.659148 182.103028zM911.757421 377.079877c0.792781 19.878693-4.804018 37.627526-16.802229 53.246499-9.111068-11.477579-32.657853-11.004277-26.149947-30.054691 1.218753-3.253953 4.034901-6.070101 7.809486-7.809486l35.14269-15.382322z" fill="#FCC99F" /><path d="M572.044755 500.848406c-6.862882 4.413543-13.761262 4.413543-20.706972 0 9.111068-58.334498-85.667701-69.930403-85.786027 0l-38.455806 6.862883-41.413944-2.958139-11.359253 2.484836c13.370788-70.403705-85.904352-79.633098-86.141003 1.893209-0.473302 163.999218-0.236651 328.436241 0.709953 493.299236 0.023665 3.549767 2.508502 6.507905 5.797952 6.862882l61.410963 6.271255h-136.074388a13.015811 13.015811 0 0 1-12.779159-12.77916 11449.33446 11449.33446 0 0 1-1.538233-613.872976l358.289779 2.12986c3.431441 0 6.212092 2.68599 6.271254 6.034603l1.774884 103.771511z" fill="#CBC5CB" /><path d="M374.322753 507.237986c-39.911209 22.399027-50.761663 55.93249-32.539527 100.576721-19.997019 31.829574 9.229393 85.549376 37.509201 50.288361l0.946604 17.748833-5.916278 341.250899-18.222135-1.538232-61.410963-6.271255c-3.28945-0.354977-5.774287-3.313116-5.797952-6.862882-0.946604-164.862995-1.183256-329.300018-0.709953-493.299236 0.236651-81.526307 99.511791-72.296914 86.141003-1.893209zM551.337783 500.848406h-85.786027c0.118326-69.930403 94.897095-58.334498 85.786027 0z" fill="#7A6D79" /><path d="M885.134171 453.991487a161.715535 161.715535 0 0 1-31.592923 79.869749c6.152929-16.175103 2.248186-29.143584-11.71423-38.929107a9.430547 9.430547 0 0 1-3.928408-9.02824c0.437805-3.632595 2.721488-6.981208 6.058268-8.838919l41.177293-23.073483z" fill="#FC9743" /><path d="M702.084539 484.401154l-0.354977 19.878693c-10.566472-2.756985-19.050414-1.301581-25.439994 4.378046a6.626231 6.626231 0 0 0-2.08253 4.555534 6.152929 6.152929 0 0 0 1.727553 4.555534l29.226412 29.936365c2.839813 2.922641 4.082232 6.567068 3.19479 9.466044l-19.878693 66.262311c-1.100428 3.715422 0 7.513673 2.721488 9.347718 8.51944 5.762454 17.949987 5.32465 28.279807-1.301581 16.648405 14.045243 28.480961 10.09317 35.497667-11.832555 4.81585 18.541614 2.839813 36.290448-5.916278 53.246499-7.927812-0.473302-272.858728-18.10381-220.440508 23.42846 2.768818 2.12986 6.567068 3.313116 10.767626 3.313116l212.631021-0.118326c7.655663 10.022174 7.655663 19.878693 0 29.581389-65.232878 0-130.311933-0.946604-195.237165-2.839814-13.84409-0.354977-45.318687 2.958139-29.463063 24.730041 2.094362 2.887144 5.703292 4.614697 9.702695 4.614697l215.470835 0.591628c8.365617 10.09317 7.383515 18.967586-2.958139 26.623249l-209.436231-0.236651c-4.188725 0-7.986975 1.301581-10.6493 3.668092-7.726659 6.94571-7.809487 14.554043-0.236651 22.836832 2.413841 2.567665 6.152929 4.023069 10.294323 4.023069l210.027859-1.656558 5.916278 50.288361-145.185455 2.603162c-6.235757 0.070995-11.595904 3.881078-13.134137 9.347719-11.950881 44.845385 2.721488 55.613011-35.379341 92.767235l-54.784731 2.721487c-20.825298-6.306752-33.793778-20.269167-38.929108-41.887246l-5.916277-260.316219v-56.204639c8.51944-42.443376-3.14746-76.793285-35.024365-103.061557l38.455806-6.862883h85.786027c6.94571 4.413543 13.84409 4.413543 20.706972 0 23.191809 6.94571 45.874817 5.951775 68.037193-2.958139 25.960627 11.595904 46.620268 7.099533 62.002591-13.489113z m-41.887246 108.267883a14.672369 14.672369 0 0 0-14.696034-14.648704l-106.019697 0.189321a14.672369 14.672369 0 0 0-14.648704 14.696034v1.656557a14.672369 14.672369 0 0 0 14.707867 14.648704l106.019696-0.189321a14.672369 14.672369 0 0 0 14.636872-14.696034v-1.656557z" fill="#FEF4C8" /><path d="M385.682006 504.75315l-0.354976 5.916277c-0.212986 3.644427 0.993935 6.756389 3.076464 7.927813 35.615992 19.878693 23.901762 58.926126 23.901762 91.702304l-32.539527 0.946605-37.982503-3.431442c-18.222135-44.644232-7.371682-78.177694 32.539527-100.576721l11.359253-2.484836z" fill="#FDE265" /><path d="M385.682006 504.75315l41.413944 2.958139c31.876904 26.268273 43.543804 60.618181 35.024365 103.061557-16.636573 4.733022-33.249481 4.579199-49.815059-0.473302 0-32.776179 11.71423-71.823611-23.901762-91.702304-2.08253-1.171423-3.28945-4.283385-3.076464-7.927813l0.354976-5.916277z" fill="#FCD430" /><path d="M701.729562 504.279847l38.574131 47.448548-20.825298 79.751423c-10.329821 6.626231-19.760368 7.064036-28.279807 1.301581-2.721488-1.834046-3.821915-5.632296-2.721488-9.347718l19.878693-66.262311c0.887442-2.898976-0.354977-6.543403-3.19479-9.466044l-29.226412-29.936365a6.152929 6.152929 0 0 1-1.727553-4.555534 6.626231 6.626231 0 0 1 2.08253-4.555534c6.38958-5.679627 14.873522-7.135031 25.439994-4.378046zM822.658279 560.011184c-5.916278 101.759977-7.608333 203.3188-5.087999 304.688302l-62.120916-2.958139-5.916278-50.288361c12.234862-9.548872 12.234862-19.085912 0-28.634784 10.341653-7.655663 11.323756-16.53008 2.958139-26.623249 11.122602-10.258826 10.968779-19.287065-0.473302-27.096552 7.655663-9.702695 7.655663-19.559214 0-29.581389 10.175998-10.412649 9.193896-19.287065-2.958139-26.62325 8.756091-16.956052 10.732128-34.704885 5.916278-53.246499l18.695437-56.204638c21.85473 3.786418 38.183656 2.63866 48.98678-3.431441z" fill="#FCE783" /><path d="M341.783226 607.814707l37.982503 3.431442a111.651993 111.651993 0 0 1-0.473302 46.856919c-28.279807 35.261015-57.506219-18.458786-37.509201-50.288361z" fill="#685E67" /><path d="M379.765729 611.246149l32.539527-0.946605c16.565578 5.052501 33.178485 5.206324 49.815059 0.473302v56.204639l-65.434032-0.946605c-2.827981-0.082828-6.247589 1.763051-9.229393 4.969673a18.553447 18.553447 0 0 1-7.217859 4.851348l-0.946604-17.748833a111.651993 111.651993 0 0 0 0.473302-46.856919z" fill="#B6ADB6" /><path d="M462.120315 666.977485l5.916277 260.316219c-7.96331 29.664216-7.809487 59.079949 0.473303 88.270864l-94.187142 1.538232 5.916278-341.250899c2.768818-1.029432 5.170827-2.63866 7.217859-4.851348 2.981804-3.206623 6.401412-5.052501 9.229393-4.969673l65.434032 0.946605z" fill="#CBC5CB" /><path d="M749.059784 672.893762c12.152034 7.336184 13.134137 16.210601 2.958139 26.62325l-212.631021 0.118326c-4.200557 0-7.998807-1.183256-10.767626-3.313116-52.418221-41.53227 212.512696-23.901762 220.440508-23.42846zM752.017923 729.098401c11.442081 7.809487 11.595904 16.837726 0.473302 27.096552l-215.470835-0.591628c-3.999404 0-7.608333-1.727553-9.702695-4.614697-15.855624-21.771902 15.618973-25.085018 29.463063-24.730041 64.925232 1.893209 130.004287 2.839813 195.237165 2.839814zM749.533086 782.818202c12.234862 9.548872 12.234862 19.085912 0 28.634784l-210.027859 1.656558c-4.141394 0-7.880482-1.455404-10.294323-4.023069-7.572835-8.282789-7.490008-15.891122 0.236651-22.836832 2.662325-2.366511 6.460575-3.668092 10.6493-3.668092l209.436231 0.236651z" fill="#FCD430" /><path d="M755.449364 861.741347l62.120916 2.958139 65.079055-2.011535-0.709954 62.594219c0 4.472706-1.183256 8.365617-3.313115 10.885951l-15.97395 19.287065c-2.958139 3.526102-4.16506 7.40718-3.076464 9.821021 1.976037 4.650194 6.709059 5.951775 14.199066 3.904743l-5.916278 4.969674-224.818553-2.011535c-27.995826 3.076464-55.092378 1.183256-81.289656-5.679626 38.100828-37.154224 23.42846-47.92185 35.379341-92.767235 1.538232-5.466641 6.89838-9.276723 13.134137-9.347719l145.185455-2.603162z" fill="#FDE265" /><path d="M882.649335 862.687951c19.014917-1.029432 37.118726 1.774883 54.311429 8.401115 3.549767 1.337079 6.247589 4.342548 7.217859 8.046138 9.158398 35.497666-0.662623 63.386999-29.463063 83.656166l-40.940642 6.38958c-7.490008 2.047032-12.22303 0.745451-14.199066-3.904743-1.088595-2.413841 0.118326-6.294919 3.076464-9.821021l15.97395-19.287065c2.12986-2.520334 3.313116-6.413245 3.313115-10.885951l0.709954-62.594219z" fill="#FCD430" /><path d="M468.036592 927.293704c5.135329 21.618079 18.10381 35.580494 38.929108 41.887246l36.325945 7.099534c4.023069 0.804614 7.170529 3.10013 8.282789 6.034603 3.952074 10.566472 3.869246 21.653576-0.236651 33.249481h-82.827888c-8.282789-29.190914-8.436612-58.606647-0.473303-88.270864z" fill="#7A6D79" /><path d="M561.750431 966.459463c26.197278 6.862882 53.29383 8.756091 81.289656 5.679626 8.046138 60.93766-57.387894 43.898781-91.702304 43.425479 4.105897-11.595904 4.188725-22.683009 0.236651-33.249481-1.11226-2.934474-4.25972-5.22999-8.282789-6.034603l-36.325945-7.099534 54.784731-2.721487z" fill="#B6ADB6" /><path d="M914.71556 962.79137c-12.77916 12.069207-28.398133 15.855624-46.85692 11.359254l5.916278-4.969674 40.940642-6.38958z" fill="#FCE783" /><path d="M172.459358 102.919567m-34.314411 0a34.314411 34.314411 0 1 0 68.628821 0 34.314411 34.314411 0 1 0-68.628821 0Z" fill="#CBC5CB" /><path d="M669.663337 102.56459m-34.196085 0a34.196085 34.196085 0 1 0 68.39217 0 34.196085 34.196085 0 1 0-68.39217 0Z" fill="#CBC5CB" /><path d="M524.805908 578.233145m14.672346-0.025608l106.019535-0.18504q14.672346-0.025608 14.697955 14.646739l0.002891 1.656555q0.025608 14.672346-14.646738 14.697954l-106.019535 0.18504q-14.672346 0.025608-14.697955-14.646739l-0.002891-1.656555q-0.025608-14.672346 14.646738-14.697954Z" fill="#FC9743" /></svg>