<?xml version="1.0" standalone="no"?><!DOCTYPE svg PUBLIC "-//W3C//DTD SVG 1.1//EN" "http://www.w3.org/Graphics/SVG/1.1/DTD/svg11.dtd"><svg class="icon" width="200px" height="200.00px" viewBox="0 0 1024 1024" version="1.1" xmlns="http://www.w3.org/2000/svg"><path d="M714.85067 5.93322c70.403584 31.564728 128.240609 76.063875 173.487342 133.497441-62.737864-56.092658-135.669-77.808242-218.81714-65.146751-227.598304 65.858738-252.280498 352.077252-35.361988 450.806026 24.599129 11.154453 50.432367 14.951713 77.487848 11.391781 59.723789 5.850155 111.864923-9.659282 156.399669-46.516442-30.935807 52.68699-76.099475 85.948619-135.514736 99.796754-8.187843 1.89863-41.05788 15.545035-0.593322 19.460961-74.366975-1.507038-140.735969-23.780344-199.11885-66.808053l-55.890929-58.857539C334.293964 279.691972 467.079419 15.189042 714.85067 5.93322z" fill="#30A7FB" /><path d="M714.85067 5.93322c131.480147 8.140377 221.463355 61.420689 269.961493 159.840936 35.836646 72.539543 42.398787 149.39847 19.698289 230.564914-33.854951 120.717286-124.716276 191.678593-272.572109 212.88392-40.464558-3.915925-7.594521-17.56233 0.593322-19.460961 59.415261-13.848135 104.578929-47.109764 135.514736-99.796754 109.325505-109.812029 116.089375-226.648989 20.291611-350.534614C843.091279 81.997095 785.254254 37.497948 714.85067 5.93322z" fill="#1A96F9" /><path d="M888.338012 139.430661c95.797764 123.885625 89.033893 240.722586-20.291611 350.534614-44.534746 36.85716-96.67588 52.366596-156.399669 46.516442 85.284099-30.140756 140.735969-87.97778 166.367478-173.487341 9.101559-30.378084 9.73048-60.566306 1.89863-90.540931 7.274127-5.778956 7.119864-11.557912-0.474658-17.325002-29.666098-106.489426-99.64249-166.770937-209.91731-180.844533 83.14814-12.661491 156.079275 9.054093 218.81714 65.146751z" fill="#C5E0FF" /><path d="M669.520872 74.28391c110.27482 14.073597 180.251212 74.355108 209.91731 180.844533l-29.19144-9.374487c-7.036798-7.440257-15.782364-10.252603-26.224831-8.425172l-98.847439-32.039385a18.926971 18.926971 0 0 0-11.154453-0.118665l-152.839737 49.839045c-4.236319 1.352774-7.202929 4.271918-7.475856 7.357192-0.593322 6.645206 55.772264 25.156851 65.621409 31.3274l-2.96661 35.599317c-30.496749 88.998294 119.732372 80.929115 160.196929 68.232026 17.716594-1.661301 32.751372-8.425172 45.092469-20.291611 2.622483-2.491952 3.975257-6.241747 3.678596-10.205138l-5.221233-70.367984a147.974497 147.974497 0 0 1 59.806854-24.207536c7.83185 29.974625 7.202929 60.162847-1.89863 90.540931-25.631509 85.509561-81.083379 143.346586-166.367478 173.487341-27.055481 3.559932-52.88872-0.237329-77.487848-11.391781-216.918509-98.728774-192.236315-384.947288 35.361988-450.806026z" fill="#EAF6FF" /><path d="M824.021911 237.328784l5.458562 8.425172-164.231519 58.145552-45.923119-10.205137c-9.849145-6.170548-66.214731-24.682194-65.621409-31.3274 0.272928-3.085274 3.239538-6.004418 7.475856-7.357192l152.839737-49.839045c3.476867-1.091712 7.369059-1.044247 11.154453 0.118665l98.847439 32.039385z" fill="#918191" /><path d="M824.021911 237.328784c10.442467-1.827432 19.188032 0.984914 26.224831 8.425172h-20.766269l-5.458562-8.425172z" fill="#B6ADB6" /><path d="M829.480473 245.753956h20.766269l29.19144 9.374487c7.594521 5.767089 7.748785 11.546045 0.474658 17.325002a147.974497 147.974497 0 0 0-59.806854 24.207536c-46.041784 7.238528-104.068672 45.329798-154.857032 7.238527l164.231519-58.145552z" fill="#7A6D79" /><path d="M619.325835 293.694371l45.923119 10.205137c50.78836 38.09127 108.815248 0 154.857032-7.238527l5.221233 70.367984c0.296661 3.963391-1.056113 7.713185-3.678596 10.205138-12.341097 11.866439-27.375875 18.63031-45.092469 20.291611l-1.89863-49.601716a4.627911 4.627911 0 0 0-2.017295-3.548065 5.138168 5.138168 0 0 0-4.153253-0.723853l-49.008394 12.578425c-2.836079 0.688253-6.858802 0.355993-11.391782-0.949315l-91.727575-25.987502 2.96661-35.599317z" fill="#554E54" /><path d="M616.359225 329.293688l91.727575 25.987502c4.53298 1.305308 8.555703 1.637569 11.391782 0.949315l49.008394-12.578425a5.138168 5.138168 0 0 1 4.153253 0.723853c1.19851 0.830651 1.93423 2.135959 2.017295 3.548065l1.89863 49.601716c-40.464558 12.69709-190.693678 20.766269-160.196929-68.232026z" fill="#685E67" /><path d="M476.928564 483.557398l55.890929 58.857539-35.599318 30.615413a138.077887 138.077887 0 0 1-47.940415-44.973805 127.754085 127.754085 0 0 0 27.648804-44.499147z" fill="#CBC5CB" /><path d="M449.27976 528.056545a138.077887 138.077887 0 0 0 47.940415 44.973805l-42.007195 49.957709-10.086473-9.137158-42.837846-43.787161 46.991099-42.007195z" fill="#E1DDE1" /><path d="M402.288661 570.06374l42.837846 43.787161a473.92185 473.92185 0 0 0-99.67809 92.202233l-73.21593-77.131855c22.225841-32.597109 49.684781-61.669885 82.353088-87.218329 5.873887-4.556713 14.405857-3.892192 20.054283 1.542638l27.648803 26.818152z" fill="#3351C5" /><path d="M445.126507 613.850901l10.086473 9.137158 29.666098 33.700688c2.219024 2.539418 2.219024 6.526542 0 9.611815a352.14845 352.14845 0 0 1-88.523636 84.726376 166.9608 166.9608 0 0 1-50.907025-44.973804 473.92185 473.92185 0 0 1 99.67809-92.202233z" fill="#2844AE" /><path d="M272.232487 628.921279l73.21593 77.131855a166.9608 166.9608 0 0 0 50.907025 44.973804 16556.767988 16556.767988 0 0 0-256.315088 232.463545c-47.228428 43.787161-96.592815 51.856339-130.76816-11.035789 6.087483-15.272107 17.479265-23.851543 34.175345-25.750173 4.022723-0.474658 7.63012-2.005428 10.323802-4.390582l220.241112-204.458748a8.187843 8.187843 0 0 0-2.017295-13.409077c-23.412485-11.154453-35.516253-29.155841-36.311304-53.992298l36.548633-41.532537z" fill="#30A7FB" /><path d="M235.683854 670.453816c0.795051 24.836457 12.898819 42.837846 36.311304 53.992298a8.187843 8.187843 0 0 1 2.017295 13.409077L53.771341 942.313939c-2.693682 2.385154-6.301079 3.915925-10.323802 4.390582-16.69608 1.89863-28.087862 10.478066-34.175345 25.750173-6.9656-29.120242-1.779966-52.88872 15.545036-71.3173a12361.82746 12361.82746 0 0 0 210.866624-230.683578z" fill="#63B9FC" /></svg>