<?xml version="1.0" standalone="no"?><!DOCTYPE svg PUBLIC "-//W3C//DTD SVG 1.1//EN" "http://www.w3.org/Graphics/SVG/1.1/DTD/svg11.dtd"><svg class="icon" width="200px" height="200.00px" viewBox="0 0 1024 1024" version="1.1" xmlns="http://www.w3.org/2000/svg"><path d="M631.456 16.04c-40.152 0-72.704 32.488-72.704 72.56v62.88c0 40.064 32.552 72.56 72.704 72.56 40.16 0 72.704-32.488 72.704-72.56v-62.88c0-40.072-32.544-72.56-72.704-72.56z m0 98.16a25.616 25.616 0 0 1-25.64-25.6 25.616 25.616 0 0 1 25.648-25.584 25.616 25.616 0 0 1 25.64 25.592 25.616 25.616 0 0 1-25.648 25.592z" fill="#9090B5" /><path d="M742.664 228.152c-3.68-10.696-15.968-19.44-27.304-19.44H308.624c-11.328 0-23.616 8.752-27.296 19.44l-20.08 58.224c-3.68 10.688-6.704 28.68-6.704 40v531.64c0 11.304 3.016 29.304 6.704 39.992l20.08 58.224c3.68 10.696 15.968 19.44 27.296 19.44H715.36c11.328 0 23.624-8.752 27.304-19.44l20.08-58.224c3.68-10.688 6.696-28.688 6.696-40V326.376c0-11.304-3.016-29.304-6.704-40l-20.072-58.216z" fill="#FF6376" /><path d="M445.616 698.648a67.288 67.16 0 1 0 134.576 0 67.288 67.16 0 1 0-134.576 0Z" fill="#FFFFFF" /><path d="M558.744 553.784a35.056 34.984 0 1 0 70.112 0 35.056 34.984 0 1 0-70.112 0Z" fill="#FFFFFF" /><path d="M262.24 900.872l19.08 55.36c3.688 10.696 15.976 19.44 27.304 19.44h128.24c133.384-88.96 287.072-212.824 332.576-376.528V412.392c-69.384 249.616-390.344 406.608-507.2 488.48z" fill="#FFD553" /><path d="M572.64 752.56c-90.688 77.472-189.952 139.36-269.712 189.08l-21.92 13.68 0.32 0.912c3.68 10.696 15.968 19.44 27.296 19.44h0.4l10.936-6.816c80.664-50.296 181.056-112.888 273.584-191.92C670.712 711.024 728.864 645.184 769.44 577.6v-68.92c-37.584 83.032-102.248 163.12-196.8 243.88z" fill="#FFB446" /><path d="M752.448 239a30.32 30.32 0 0 0 30.352-30.288 30.32 30.32 0 0 0-30.352-30.288H271.552a30.32 30.32 0 0 0-30.344 30.288 30.32 30.32 0 0 0 30.344 30.288h480.896z" fill="#C3DDF7" /><path d="M752.448 945.376a30.32 30.32 0 0 1 30.352 30.296 30.32 30.32 0 0 1-30.352 30.288H271.552a30.32 30.32 0 0 1-30.344-30.288 30.32 30.32 0 0 1 30.344-30.296h480.896z" fill="#9090B5" /><path d="M332.288 357.472a30.36 30.304 0 1 0 60.72 0 30.36 30.304 0 1 0-60.72 0Z" fill="#3F4963" /><path d="M395.128 453.76h-64.96a16.056 16.056 0 0 1-16.08-16.04c0-8.856 7.2-16.04 16.08-16.04h64.96c8.88 0 16.072 7.184 16.072 16.04 0 8.856-7.2 16.04-16.072 16.04z" fill="#FF9596" /><path d="M481.816 427.984c-25.504 0-46.256-20.712-46.256-46.16 0-8.864 7.2-16.048 16.072-16.048 8.88 0 16.072 7.184 16.072 16.04a14.112 14.112 0 0 0 28.224 0c0-8.856 7.2-16.04 16.072-16.04 8.88 0 16.072 7.184 16.072 16.04 0 25.456-20.744 46.168-46.256 46.168z" fill="#3F4963" /><path d="M542.184 427.984c-25.504 0-46.256-20.712-46.256-46.16 0-8.864 7.2-16.048 16.072-16.048 8.88 0 16.072 7.184 16.072 16.04a14.112 14.112 0 0 0 28.216 0c0-8.856 7.2-16.04 16.08-16.04 8.872 0 16.064 7.184 16.064 16.04 0.008 25.456-20.744 46.168-46.248 46.168z" fill="#3F4963" /><path d="M693.816 453.76H628.88a16.056 16.056 0 0 1-16.072-16.04c0-8.856 7.2-16.04 16.072-16.04h64.944c8.88 0 16.08 7.184 16.08 16.04a16.056 16.056 0 0 1-16.08 16.04z" fill="#FF9596" /><path d="M691.704 380.336a16.056 16.056 0 0 1-16.08-16.04 14.28 14.28 0 0 0-28.56 0c0 8.864-7.192 16.04-16.072 16.04a16.056 16.056 0 0 1-16.072-16.04c0-25.544 20.832-46.336 46.432-46.336s46.424 20.784 46.424 46.336c0 8.864-7.2 16.04-16.08 16.04z" fill="#3F4963" /><path d="M321.584 782.2a16.056 16.056 0 0 1-16.064-16.04V652c0-8.864 7.192-16.048 16.064-16.048 8.88 0 16.08 7.184 16.08 16.04V766.16c0 8.864-7.2 16.04-16.08 16.04zM367.48 782.2a16.056 16.056 0 0 1-16.072-16.04v-63.384c0-8.856 7.2-16.04 16.08-16.04 8.872 0 16.064 7.184 16.064 16.04v63.384c0 8.864-7.2 16.04-16.072 16.04z" fill="#FFFFFF" /><path d="M768.008 932.024l9.928-28.8c4.248-12.32 7.576-32.184 7.576-45.208V326.368c0-13.024-3.32-32.88-7.576-45.208l-9.92-28.8c17.96-6.4 30.856-23.544 30.856-43.648 0-25.544-20.824-46.32-46.424-46.32h-32.904c0.448-3.6 0.688-7.248 0.688-10.92v-62.864C720.24 39.752 680.408 0 631.456 0S542.696 39.752 542.696 88.608v62.864c0 3.68 0.24 7.312 0.688 10.912H271.56c-25.6 0-46.432 20.784-46.432 46.328 0 20.096 12.896 37.24 30.856 43.648l-9.928 28.8c-4.248 12.32-7.584 32.176-7.584 45.208v531.648c0 13.04 3.336 32.896 7.584 45.216l9.928 28.8c-17.96 6.4-30.856 23.552-30.856 43.648 0 25.544 20.824 46.32 46.424 46.32h480.896c25.6 0 46.424-20.776 46.424-46.32 0-20.104-12.896-37.256-30.864-43.656zM574.832 88.608c0-31.168 25.408-56.528 56.632-56.528 31.224 0 56.624 25.36 56.624 56.528v62.864c0 3.704-0.352 7.344-1.048 10.912H575.888a56.896 56.896 0 0 1-1.056-10.912v-62.864zM752.448 989.92H271.56a14.272 14.272 0 0 1-14.28-14.24c0-7.864 6.4-14.256 14.272-14.256h480.896c7.872 0 14.28 6.4 14.28 14.256s-6.408 14.24-14.28 14.24z m-276.664-60.584H289.056l-7.64-22.152c18.272-12.304 40.616-26.24 65.88-41.984 74.096-46.208 166.32-103.704 249.84-177.368 71.296-62.88 122.936-125.92 156.24-190.936v99.952c-32.216 113.336-123.064 222.16-277.592 332.488z m277.584-246.104v174.784c0 9.52-2.72 25.768-5.832 34.776l-12.6 36.544H530c54.88-41.656 100.12-82.464 137.48-123.92 35.936-39.872 64.616-80.744 85.888-122.184zM461.68 698.656c0-28.184 22.976-51.12 51.216-51.12a51.024 51.024 0 0 1 46.76 30.232c-25.696 21.736-52.12 42.04-78.464 61.008a51.04 51.04 0 0 1-19.512-40.12z m122.872-42.64a83.12 83.12 0 0 0-71.656-40.56c-45.968 0-83.36 37.32-83.36 83.2 0 22.544 9.12 43.68 24.704 59.088-43.584 30.088-86.184 56.672-123.984 80.24-21.632 13.488-41.152 25.664-58.024 36.752-0.984-6.096-1.616-12.176-1.616-16.72V326.368c0-9.52 2.728-25.768 5.84-34.776l12.6-36.544h445.888l12.6 36.544c3.112 9.008 5.832 25.264 5.832 34.776v83.752c-24 84.456-79.272 165.008-168.824 245.904zM752.448 222.96H271.56A14.28 14.28 0 0 1 257.28 208.72c0-7.856 6.4-14.24 14.272-14.24h480.896c7.872 0 14.28 6.384 14.28 14.24s-6.408 14.248-14.28 14.248zM631.464 130.24c23 0 41.712-18.672 41.712-41.632 0-22.96-18.72-41.632-41.72-41.632s-41.712 18.672-41.712 41.632c0 22.96 18.72 41.632 41.712 41.632z m0-51.184c5.272 0 9.568 4.288 9.568 9.552a9.568 9.568 0 0 1-19.136 0c0-5.264 4.288-9.552 9.56-9.552zM362.64 327.168a30.336 30.336 0 0 0-30.36 30.304c0 16.736 13.6 30.304 30.36 30.304a30.336 30.336 0 0 0 30.36-30.304c0-16.736-13.592-30.304-30.36-30.304z m225.792 54.648c0-8.856-7.2-16.04-16.072-16.04-8.88 0-16.072 7.184-16.072 16.04a14.112 14.112 0 0 1-28.216 0c0-8.856-7.2-16.04-16.08-16.04-8.88 0-16.064 7.184-16.064 16.04a14.112 14.112 0 0 1-28.224 0c0-8.856-7.2-16.04-16.08-16.04-8.88 0-16.072 7.184-16.072 16.04 0 25.456 20.76 46.168 46.264 46.168a46.072 46.072 0 0 0 30.184-11.256 46.08 46.08 0 0 0 30.184 11.256c25.496 0 46.248-20.712 46.248-46.16z m5.36 120.936c-28.2 0-51.136 22.888-51.136 51.032 0 28.136 22.936 51.032 51.136 51.032 28.192 0 51.128-22.896 51.128-51.04 0-28.136-22.936-51.024-51.128-51.024z m0 69.976a18.992 18.992 0 0 1-18.984-18.944 18.992 18.992 0 0 1 37.968 0 18.992 18.992 0 0 1-18.984 18.944z m67.552-254.768c-25.6 0-46.432 20.784-46.432 46.336 0 8.864 7.2 16.04 16.072 16.04 8.88 0 16.072-7.176 16.072-16.04a14.288 14.288 0 0 1 28.56 0c0 8.864 7.2 16.04 16.08 16.04 8.872 0 16.064-7.176 16.064-16.04 0-25.552-20.824-46.336-46.416-46.336z" fill="#000000" /></svg>