<?xml version="1.0" standalone="no"?><!DOCTYPE svg PUBLIC "-//W3C//DTD SVG 1.1//EN" "http://www.w3.org/Graphics/SVG/1.1/DTD/svg11.dtd"><svg class="icon" width="200px" height="200.00px" viewBox="0 0 1024 1024" version="1.1" xmlns="http://www.w3.org/2000/svg"><path d="M509.544 328.024c-26.76 0-48.448-21.728-48.448-48.544V64.464a48.496 48.496 0 0 1 48.448-48.536 48.488 48.488 0 0 1 48.448 48.544v215.008c0 26.816-21.688 48.544-48.448 48.544z" fill="#866539" /><path d="M564.016 87.392c-54.304 54.408-64.6 137.656-66.288 177.232-0.728 17.12 5.28 22.984 22.216 22.256 39.496-1.688 122.584-12 176.88-66.416 54.304-54.4 64.6-137.656 66.28-177.216 0.736-16.976-5.136-22.992-22.216-22.272-39.488 1.696-122.576 12.016-176.88 66.416z" fill="#46C79C" /><path d="M509.096 1008.072c69.208 0 448.52-133.152 448.52-540.984 0-135.144-109.336-244.704-244.224-244.704-121.584 0-179.048 30.528-204.296 30.528-25.256 0-82.72-30.528-204.304-30.528-134.88 0-244.224 109.56-244.224 244.704 0 407.832 379.312 540.984 448.528 540.984z" fill="#FFB446" /><path d="M762.024 512.2h-61.584a15.912 15.912 0 0 1-15.896-15.92c0-8.8 7.12-15.928 15.896-15.928h61.584c8.784 0 15.896 7.12 15.896 15.92s-7.12 15.928-15.896 15.928z" fill="#FF6376" /><path d="M473.056 492.28c-28.64 0-51.944-23.344-51.944-52.048 0-8.8 7.12-15.92 15.896-15.92 8.784 0 15.896 7.12 15.896 15.92a20.184 20.184 0 0 0 20.144 20.184 20.184 20.184 0 0 0 20.144-20.184c0-8.8 7.12-15.92 15.896-15.92 8.784 0 15.896 7.12 15.896 15.92 0 28.696-23.296 52.04-51.928 52.04z" fill="#3F4963" /><path d="M545.136 492.28c-28.64 0-51.944-23.344-51.944-52.048 0-8.8 7.12-15.92 15.896-15.92 8.784 0 15.904 7.12 15.904 15.92a20.192 20.192 0 0 0 20.144 20.184 20.184 20.184 0 0 0 20.136-20.184c0-8.8 7.12-15.92 15.896-15.92 8.784 0 15.896 7.12 15.896 15.92 0.008 28.696-23.288 52.04-51.928 52.04zM760.016 442.304a15.912 15.912 0 0 1-15.896-15.92c0-7.128-5.784-12.92-12.888-12.92-7.112 0-12.88 5.792-12.88 12.912 0 8.8-7.12 15.928-15.904 15.928a15.912 15.912 0 0 1-15.896-15.92c0-24.696 20.04-44.776 44.68-44.776s44.688 20.08 44.688 44.768c0 8.8-7.12 15.928-15.904 15.928z" fill="#3F4963" /><path d="M317.752 512.2H256.16a15.912 15.912 0 0 1-15.896-15.92c0-8.8 7.12-15.928 15.896-15.928h61.592c8.776 0 15.896 7.12 15.896 15.92s-7.12 15.928-15.896 15.928z" fill="#FF6376" /><path d="M315.736 442.304a15.912 15.912 0 0 1-15.896-15.92c0-7.128-5.784-12.92-12.88-12.92-7.12 0-12.888 5.792-12.888 12.912 0 8.8-7.12 15.928-15.904 15.928a15.912 15.912 0 0 1-15.896-15.92c0-24.696 20.048-44.776 44.688-44.776 24.64 0 44.68 20.08 44.68 44.768 0 8.8-7.12 15.928-15.904 15.928z" fill="#3F4963" /><path d="M286.96 381.608c-24.64 0-44.688 20.08-44.688 44.768 0 8.8 7.12 15.928 15.896 15.928a15.912 15.912 0 0 0 15.896-15.92c0-7.12 5.784-12.92 12.888-12.92s12.888 5.8 12.888 12.912c0 8.8 7.12 15.928 15.896 15.928a15.912 15.912 0 0 0 15.896-15.92c0-24.696-20.04-44.776-44.68-44.776z m294.216 42.696a15.912 15.912 0 0 0-15.904 15.928 20.184 20.184 0 0 1-20.136 20.184 20.192 20.192 0 0 1-20.144-20.184c0-8.8-7.12-15.92-15.896-15.92a15.912 15.912 0 0 0-15.896 15.92 20.192 20.192 0 0 1-20.144 20.184 20.192 20.192 0 0 1-20.144-20.184c0-8.8-7.12-15.92-15.896-15.92a15.912 15.912 0 0 0-15.896 15.92c0 28.696 23.296 52.04 51.936 52.04a51.696 51.696 0 0 0 36.04-14.616 51.68 51.68 0 0 0 36.04 14.624c28.64 0 51.936-23.344 51.936-52.048 0-8.8-7.12-15.92-15.896-15.92z m147.696-217.36c22.344-31.416 46.744-83.44 50.12-163.008 0.368-8.48-0.176-20.8-9.08-29.736C761 5.264 748.712 4.712 740.216 5.064c-82.864 3.552-135.776 30-166.64 53.12C570.408 25.568 542.904 0 509.544 0c-35.48 0-64.344 28.92-64.344 64.472v157.336c-33.28-7.656-79.12-15.344-140.408-15.344C161.36 206.464 44.672 323.376 44.672 467.088c0 222.76 111.04 359.936 204.176 435.792 105.112 85.6 221.36 121.12 260.24 121.12 38.88 0 155.136-35.52 260.24-121.12 93.144-75.856 204.176-213.032 204.176-435.792 0.008-138.504-108.384-252.096-244.64-260.152zM575.256 98.656c51.416-51.52 133.44-60.36 166.312-61.768 2.752-0.112 4.48 0.024 5.496 0.176 0.152 1.016 0.288 2.736 0.16 5.504-1.368 32.456-9.976 112.696-59.464 164.352-71.24 2.584-118.928 15.464-148.64 23.504-9.232 2.496-17.088 4.6-23.016 5.712 5.024-39.408 19.256-97.512 59.152-137.488zM476.992 64.464a32.616 32.616 0 0 1 32.56-32.616 32.616 32.616 0 0 1 32.544 32.616v23.336c-38.112 45.16-52.304 103.64-57.504 144.112l-5.52-1.488-2.08-0.56V64.472z m272.288 813.68c-97.704 79.568-206.336 113.992-240.184 113.992-33.856 0-142.48-34.424-240.192-113.992-56.736-46.192-101.784-100.664-133.92-161.896-38.824-74.008-58.52-157.84-58.52-249.168 0-126.144 102.432-228.768 228.32-228.768 81.416 0 132.32 13.76 166 22.872 16.432 4.44 28.296 7.648 38.304 7.648 10.016 0 21.88-3.2 38.312-7.648 33.68-9.112 84.576-22.88 166-22.88 125.888 0 228.32 102.632 228.32 228.776 0 91.328-19.696 175.16-58.528 249.168-32.12 61.232-77.176 115.704-133.912 161.896z m-18.048-496.544c-24.64 0-44.688 20.08-44.688 44.768 0 8.8 7.12 15.928 15.896 15.928a15.912 15.912 0 0 0 15.904-15.92c0-7.12 5.776-12.92 12.88-12.92 7.112 0 12.888 5.8 12.888 12.912 0 8.8 7.12 15.928 15.896 15.928a15.912 15.912 0 0 0 15.904-15.92c0-24.696-20.04-44.776-44.68-44.776z" fill="#000000" /></svg>