<?xml version="1.0" standalone="no"?><!DOCTYPE svg PUBLIC "-//W3C//DTD SVG 1.1//EN" "http://www.w3.org/Graphics/SVG/1.1/DTD/svg11.dtd"><svg class="icon" width="200px" height="200.00px" viewBox="0 0 1024 1024" version="1.1" xmlns="http://www.w3.org/2000/svg"><path d="M512 16.024C238.08 16.024 16.024 238.08 16.024 512c0 273.92 222.056 495.976 495.976 495.976 273.92 0 495.976-222.056 495.976-495.976C1007.976 238.08 785.92 16.024 512 16.024z m0 673.232c-97.896 0-177.256-79.36-177.256-177.256S414.104 334.744 512 334.744 689.256 414.104 689.256 512 609.896 689.256 512 689.256z" fill="#FDBA55" /><path d="M512 16.024C238.08 16.024 16.024 238.08 16.024 512c0 20.44 1.256 40.584 3.664 60.376 38.224 42.784 93.808 69.728 155.696 69.728 67.68 0 127.832-32.232 165.976-82.16A177.152 177.152 0 0 1 334.728 512c0-97.896 79.36-177.256 177.264-177.256 97.896 0 177.256 79.36 177.256 177.256 0 16.624-2.336 32.688-6.608 47.944 38.136 49.936 98.288 82.16 165.968 82.16 61.888 0 117.472-26.944 155.696-69.728 2.4-19.792 3.664-39.936 3.664-60.376C1007.976 238.08 785.92 16.024 512 16.024z" fill="#866539" /><path d="M780.16 439.184a15.976 15.976 0 0 1-11.328-4.696l-46.112-46.104a16.024 16.024 0 1 1 22.656-22.656l46.112 46.104a16.024 16.024 0 0 1-11.328 27.352z" fill="#FF9596" /><path d="M912.208 416.136a15.976 15.976 0 0 1-11.328-4.696l-46.112-46.104a16.024 16.024 0 1 1 22.656-22.664l46.112 46.104a16.024 16.024 0 0 1-11.328 27.36z" fill="#FF6376" /><path d="M809.624 567.72a15.976 15.976 0 0 1-11.328-4.688l-46.112-46.104a16.024 16.024 0 1 1 22.656-22.664l46.104 46.104a16.024 16.024 0 0 1-11.32 27.36z" fill="#FFD553" /><path d="M538.76 277.328a15.968 15.968 0 0 1-11.328-4.696l-46.112-46.104a16.016 16.016 0 1 1 22.664-22.656l46.104 46.104a16.016 16.016 0 0 1-11.328 27.352z" fill="#FF9596" /><path d="M173.12 416.136a15.968 15.968 0 0 1-11.328-4.696l-46.112-46.104a16.024 16.024 0 1 1 22.656-22.664l46.112 46.104a16.016 16.016 0 0 1-11.328 27.36z" fill="#FFFFFF" /><path d="M150.064 567.72a15.976 15.976 0 0 1-11.328-4.696l-46.104-46.104a16.016 16.016 0 1 1 22.656-22.656l46.104 46.104a16.016 16.016 0 0 1-11.328 27.36z" fill="#FF9596" /><path d="M315.488 341.792a16.016 16.016 0 0 1-11.328-27.352l46.104-46.104a16.024 16.024 0 1 1 22.656 22.656l-46.104 46.112c-3.128 3.128-7.232 4.696-11.328 4.696z" fill="#FFD553" /><path d="M419.968 139a16.016 16.016 0 0 1-11.336-27.352l46.112-46.104a16.024 16.024 0 1 1 22.664 22.656l-46.112 46.112a15.968 15.968 0 0 1-11.328 4.688z" fill="#FBD151" /><path d="M230.64 489.568a16.024 16.024 0 0 1-11.328-27.36l46.096-46.104a16.024 16.024 0 1 1 22.664 22.656l-46.112 46.112c-3.12 3.128-7.224 4.696-11.328 4.696z" fill="#6CF5C5" /><path d="M656.464 253.144a16.016 16.016 0 0 1-11.328-27.352l46.104-46.112a16.024 16.024 0 0 1 22.664 22.664l-46.104 46.104a15.968 15.968 0 0 1-11.336 4.696z" fill="#FFD553" /><path d="M775.888 295.688a16.016 16.016 0 0 1-11.328-27.352l46.104-46.104a16.024 16.024 0 1 1 22.656 22.656l-46.104 46.104c-3.128 3.136-7.232 4.696-11.328 4.696zM577.52 162.056a16.016 16.016 0 0 1-11.328-27.352l46.104-46.104a16.016 16.016 0 1 1 22.656 22.656l-46.104 46.112c-3.12 3.12-7.224 4.688-11.328 4.688z" fill="#FFFFFF" /><path d="M901.84 544.672a16.016 16.016 0 0 1-11.328-27.352l46.112-46.112a16.024 16.024 0 0 1 22.656 22.656l-46.104 46.112a15.96 15.96 0 0 1-11.328 4.696zM340.24 208.16a15.976 15.976 0 0 1-11.328-4.688L282.8 157.36a16.016 16.016 0 1 1 22.664-22.656l46.104 46.112a16.016 16.016 0 0 1-11.328 27.352z" fill="#6CF5C5" /><path d="M242 296.112a15.976 15.976 0 0 1-11.328-4.696l-46.112-46.112a16.024 16.024 0 1 1 22.664-22.656l46.104 46.104a16.024 16.024 0 0 1-11.328 27.36z" fill="#FF6376" /><path d="M288.112 763.512m-29.016 0a29.016 29.016 0 1 0 58.032 0 29.016 29.016 0 1 0-58.032 0Z" fill="#3F4963" /><path d="M735.888 763.512m-29.016 0a29.016 29.016 0 1 0 58.032 0 29.016 29.016 0 1 0-58.032 0Z" fill="#3F4963" /><path d="M319.152 864.912h-62.072a16.024 16.024 0 1 1 0-32.04h62.072a16.024 16.024 0 1 1 0 32.04zM766.92 864.912h-62.072a16.024 16.024 0 1 1 0-32.04h62.08a16.024 16.024 0 1 1 0 32.04z" fill="#FF6376" /><path d="M469.92 844.864a52.4 52.4 0 0 1-52.352-52.344 16.024 16.024 0 1 1 32.048 0 20.32 20.32 0 0 0 20.304 20.304 20.32 20.32 0 0 0 20.304-20.304 16.024 16.024 0 1 1 32.04 0 52.4 52.4 0 0 1-52.344 52.344z" fill="#3F4963" /><path d="M542.568 844.864a52.4 52.4 0 0 1-52.344-52.344 16.024 16.024 0 1 1 32.04 0 20.32 20.32 0 0 0 20.304 20.304 20.32 20.32 0 0 0 20.304-20.304 16.024 16.024 0 1 1 32.04 0 52.4 52.4 0 0 1-52.344 52.344z" fill="#3F4963" /><path d="M578.896 776.496a16.024 16.024 0 0 0-16.024 16.024 20.32 20.32 0 0 1-20.304 20.304 20.32 20.32 0 0 1-20.296-20.304 16.024 16.024 0 1 0-32.048 0 20.32 20.32 0 0 1-20.304 20.304 20.32 20.32 0 0 1-20.304-20.304 16.024 16.024 0 1 0-32.04 0 52.4 52.4 0 0 0 52.344 52.344 52.152 52.152 0 0 0 36.328-14.704 52.152 52.152 0 0 0 36.32 14.704 52.4 52.4 0 0 0 52.352-52.344 16.024 16.024 0 0 0-16.024-16.024z m-290.784-41.992a29.008 29.008 0 1 0 0 58.024 29.008 29.008 0 0 0 0-58.024z m447.776 0a29.008 29.008 0 1 0 0 58.024 29.008 29.008 0 0 0 0-58.024z m138.152-584.544C777.336 53.256 648.76 0 512 0 375.24 0 246.664 53.256 149.96 149.96 53.256 246.664 0 375.24 0 512c0 136.76 53.256 265.336 149.96 362.04C246.664 970.744 375.24 1024 512 1024c136.76 0 265.336-53.256 362.04-149.96C970.744 777.336 1024 648.76 1024 512c0-136.76-53.256-265.336-149.96-362.04z m-22.656 701.416C760.72 942.04 640.2 991.96 512 991.96c-128.2 0-248.72-49.928-339.376-140.584-65.856-65.848-110.184-147.472-129.536-236.352a225.024 225.024 0 0 0 132.296 43.096c61.144 0 118.16-24.176 160.232-67.128C365.872 658.296 433.552 705.28 512 705.28c78.456 0 146.128-46.984 176.392-114.288 42.072 42.96 99.08 67.128 160.224 67.128 47.872 0 94.16-15.352 132.296-43.096-19.344 88.88-63.68 170.504-129.536 236.352zM350.752 512c0-88.904 72.336-161.232 161.24-161.232 88.904 0 161.232 72.32 161.232 161.232 0 88.904-72.32 161.232-161.232 161.232S350.768 600.912 350.768 512z m497.856 114.08c-58 0-111.656-25.376-148.44-69.864A193.2 193.2 0 0 0 705.28 512c0-106.576-86.704-193.28-193.28-193.28-106.576 0-193.28 86.704-193.28 193.28 0 15.208 1.776 30.016 5.112 44.216-36.784 44.488-90.448 69.864-148.448 69.864a192.976 192.976 0 0 1-140.384-60.72 487.84 487.84 0 0 1-2.96-53.36c0-128.2 49.928-248.728 140.584-339.376C263.272 81.96 383.8 32.048 512 32.048s248.728 49.92 339.376 140.576C942.032 263.272 991.952 383.8 991.952 512c0 17.96-1.016 35.76-2.944 53.36a192.984 192.984 0 0 1-140.392 60.72z" fill="#000000" /></svg>