<?xml version="1.0" standalone="no"?><!DOCTYPE svg PUBLIC "-//W3C//DTD SVG 1.1//EN" "http://www.w3.org/Graphics/SVG/1.1/DTD/svg11.dtd"><svg class="icon" width="200px" height="200.00px" viewBox="0 0 1024 1024" version="1.1" xmlns="http://www.w3.org/2000/svg"><path d="M557.24582 108.19113l-0.472193-64.45429 51.232898-31.754953c17.789856-11.025697 26.525419-7.366205 26.206689 10.978478l-1.416578 104.354565a12.347837 12.347837 0 0 1-5.07607 9.679949c-17.116982 12.631152-57.371401-23.019389-70.474746-28.803749zM831.70777 44.209032l0.472193 61.503087-52.531427 33.997867c-17.707223 11.486085-26.714296 6.764159-27.033027-14.165778-0.625655-32.109097-0.861751-64.336242-0.708289-96.681435 0.236096-44.386105 66.697205 8.145322 79.80055 15.346259z" fill="#7A6D79" /><path d="M556.773627 43.73684l0.472193 64.45429-32.935434-2.479011c-5.666311-19.359897-5.512849-38.885061 0.472192-58.551883l31.991049-3.423396zM831.70777 44.209032h29.512038c7.082889 20.847303 6.103089 41.198805-2.951204 61.030894l-26.088641 0.472193-0.472193-61.503087z" fill="#63B9FC" /><path d="M861.219808 44.209032c77.675683 10.069507 118.083565 55.163901 121.23545 135.283181 6.69333 168.017933-53.558446 304.753106-180.731718 410.217323a130.384182 130.384182 0 0 1-37.893457-43.795864c121.270865-101.049217 172.468348-229.804335 153.580644-386.253548-4.48583-36.240782-22.193052-55.718727-59.142123-54.420198 9.054293-19.832089 10.034093-40.18359 2.951204-61.030894zM524.782578 47.160236c-5.985041 19.666822-6.138504 39.191986-0.472192 58.551883-32.970848 0.861751-51.504408 15.61777-55.600679 44.268056-22.346515 155.587463 26.832345 285.275161 147.560188 389.086705-25.970593-15.110163-42.14319-7.99186-48.51779 21.366715-0.460388 2.290134-0.035414 5.595482 1.180482 9.325804 1.499212 4.721926-1.416578 5.619092-8.735563 2.715107-106.951624-103.882373-175.773696-261.122509-152.164067-411.04366 10.86043-69.176216 43.323671-113.444273 116.749621-114.27061z" fill="#8DCAFC" /><path d="M191.768746 704.806483l-0.944386-82.633705 2.951204-2.951204c-2.2075 15.02753 1.971404 21.40213 12.513104 19.1238 3.423396-0.826337 6.221138-3.706712 7.318985-7.555081 24.872745-86.021687-7.401619-139.107941-96.799483-159.246955 163.024496-48.51779 233.971435 166.211796 74.960576 233.263145z" fill="#E1DDE1" /><path d="M116.80817 471.543338c89.397864 20.139014 121.672229 73.225268 96.799483 159.246955-1.097848 3.84837-3.895589 6.728745-7.318985 7.555081-10.5417 2.278329-14.720604-4.096271-12.513104-19.1238 20.776475-46.510971 7.165523-70.946939-40.84466-73.307902-33.761771 14.401874-41.470315 38.837842-23.137438 73.307902l4.958023 141.657781c-0.826337-35.76859-7.200937-54.538246-39.073938-75.668865-83.223946-55.010438-67.64159-171.760059 21.130619-213.667152z" fill="#F1EFF2" /><path d="M616.269895 539.06688l3.423396 3.423396c-3.069252 17.305859-11.096526 32.227145-24.081822 44.740249-14.401874 2.124867-26.206689-2.797741-35.414445-14.756019 7.318985 2.903985 10.234775 2.006819 8.735563-2.715107-1.215896-3.730322-1.640869-7.03567-1.180482-9.325804 6.3746-29.358575 22.547197-36.476879 48.51779-21.366715z" fill="#63B9FC" /><path d="M704.333815 539.539072l38.129553 57.607498c2.042233 3.092862 2.715107 7.01206 1.888771 10.86043-4.875389 22.901341-18.80507 35.485274-41.789046 37.775408-34.080501-0.31873-37.267801 11.639548-9.5619 35.886638 7.791178 23.763093-1.88877 37.374044-29.039845 40.84466l-2.951204 8.853611-0.472192-4.131685a9.502876 9.502876 0 0 0-4.013638-6.728745c-19.041167-13.622757-26.560834-32.90002-22.547196-57.843594 0.63746-4.025442-0.708289-7.755763-3.423397-9.443852l-27.977411-18.061367c-4.096271-2.656083-7.047475-5.477434-8.263371-7.909226-6.610696-13.622757-6.173918-26.962198 1.29853-40.018323 12.985297-12.513104 21.012571-27.43439 24.081822-44.740249 27.623267-8.499467 55.836775-9.491071 84.640524-2.951204z" fill="#F1EFF2" /><path d="M763.830083 545.913672c9.443852 17.541955 22.075004 32.144511 37.893457 43.795864-0.625655 28.721115-12.985297 47.762282-37.06712 57.135305-4.1671 1.664479-7.342595 4.155295-8.853611 6.964841-4.332367 8.027274-5.07607 16.408693-2.242915 25.144256 1.404773 4.497635 1.310334 8.617515-0.236096 10.978478l-29.512038 45.920731c-17.789856-11.17916-37.739994-15.629575-59.850412-13.339441 27.151075-3.470616 36.831023-17.081567 29.039845-40.84466 12.359641-6.138504 15.546941-18.108586 9.5619-35.886638 22.983975-2.290134 36.913657-14.874067 41.789046-37.775408 0.826337-3.84837 0.153463-7.767568-1.888771-10.86043l-38.129553-57.607498c21.248667-9.845216 41.080756-7.720349 59.496268 6.3746z" fill="#E1DDE1" /><path d="M152.930904 545.913672c14.012315 22.193052 15.61777 44.657615 4.839974 67.405494a10.388237 10.388237 0 0 1-8.499467 5.902408l-8.145322 0.472193-11.332623-0.472193c-18.332878-34.47006-10.624334-58.906027 23.137438-73.307902z" fill="#8DCAFC" /><path d="M152.930904 545.913672c48.010183 2.360963 61.621135 26.79693 40.84466 73.307902l-2.951204 2.951204c-17.23503 4.721926-33.797186 3.895589-49.698271-2.479011l8.145322-0.472193a10.388237 10.388237 0 0 0 8.499467-5.902408c10.777796-22.747879 9.172341-45.212442-4.839974-67.405494z" fill="#63B9FC" /><path d="M141.126089 619.693767c15.901086 6.3746 32.463241 7.200937 49.698271 2.479011l0.944386 82.633705c-2.443597 77.439587 26.171275 144.089573 85.821005 199.973567 5.819774 5.347581 10.659748 6.563477 14.519923 3.659493 17.317664 22.901341 40.018323 35.804004 68.113782 38.719793 1.652674 0.165267 3.305348-0.354144 4.48583-1.416577 1.180482-1.062433 1.747113-2.538035 1.534626-4.013638l-3.305348-21.484763c113.680369 134.810988 218.27103-123.006173 57.961642-114.978899-44.232642 2.195696-67.795053 30.692519-70.710842 85.466861l-38.129553-12.867248a8.440443 8.440443 0 0 0-9.325804 2.715107l-11.096526 13.575538c-25.616449-196.904315 300.904736-202.570626 270.212217 10.978478-0.708289 5.347581 0.790923 6.445429 4.485829 3.305348l27.387171-22.783293c24.235285 16.998934 28.957211 40.325248 14.165778 70.002553-184.863404 140.595347-435.833772 30.810567-473.136987-194.779448l-4.958023-141.657781 11.332623 0.472193z" fill="#7A6D79" /><path d="M702.563093 645.782408c5.985041 17.778051 2.797741 29.748134-9.5619 35.886638-27.705901-24.24709-24.518601-36.205368 9.5619-35.886638z" fill="#30A7FB" /><path d="M663.961348 722.513706c22.110419-2.290134 42.060556 2.160281 59.850412 13.339441-7.000255 91.994924-45.64922 165.267411-115.923284 219.805656 14.791433-29.677305 10.069507-53.00362-14.165778-70.002553 41.234219-41.080756 63.663368-92.514336 67.287446-154.288933l2.951204-8.853611z" fill="#867A84" /><path d="M362.938564 920.244358l-12.7492-29.512038c2.915789-54.774342 26.4782-83.271165 70.710842-85.466861 160.309389-8.027274 55.718727 249.789887-57.961642 114.978899z" fill="#FFFFFF" /><path d="M350.189364 890.73232l12.7492 29.512038 3.305348 21.484763a4.544854 4.544854 0 0 1-1.534626 4.013638c-1.180482 1.062433-2.833156 1.581845-4.48583 1.416577-28.09546-2.915789-50.796119-15.818452-68.113782-38.719793l-0.472193-14.283826 11.096526-13.575538a8.440443 8.440443 0 0 1 9.325804-2.715107l38.129553 12.867248z" fill="#6B626B" /></svg>