<?xml version="1.0" standalone="no"?><!DOCTYPE svg PUBLIC "-//W3C//DTD SVG 1.1//EN" "http://www.w3.org/Graphics/SVG/1.1/DTD/svg11.dtd"><svg class="icon" width="200px" height="200.00px" viewBox="0 0 1024 1024" version="1.1" xmlns="http://www.w3.org/2000/svg"><path d="M398.302947 908.730277a112.4029 112.4029 0 1 0 224.732669 0H398.302947z" fill="#FF761A" /><path d="M510.705848 1001.095185a112.256637 112.256637 0 0 1-110.501485-92.438039h-1.901416a112.4029 112.4029 0 1 0 224.732669 0h-1.828284a112.329769 112.329769 0 0 1-110.501484 92.438039z" fill="#EF670A" /><path d="M904.006301 740.089362H117.405394a56.164884 56.164884 0 0 0 0 112.329768h786.600907a56.164884 56.164884 0 1 0 0-112.329768z" fill="#005691" /><path d="M769.51773 163.082932C610.968942 33.128506 452.639548 62.966101 378.191824 88.854602A393.446716 393.446716 0 0 0 117.405394 459.191808v280.897554h786.600907V459.191808A392.349746 392.349746 0 0 0 769.51773 163.082932z" fill="#138EE2" /><path d="M769.51773 163.082932C668.230797 80.444496 567.30952 62.307919 488.035126 66.988326c70.571762 4.168488 152.990805 28.448099 235.482979 96.094606A392.349746 392.349746 0 0 1 858.372332 459.191808v280.897554h45.999626V459.191808A392.349746 392.349746 0 0 0 769.51773 163.082932z" fill="#006AA5" opacity=".51" /><path d="M564.749923 80.444496c0-44.463867-29.691332-80.444496-66.330144-80.444496s-66.330143 35.980629-66.330143 80.444496z" fill="#0984C9" /><path d="M290.726717 278.411087h-2.340203a11.774149 11.774149 0 0 1-9.14142-13.894958c6.216166-30.568908 34.225476-88.342683 95.509556-88.342683a11.774149 11.774149 0 1 1 0 23.475166C317.200269 199.429218 302.573997 268.318959 302.573997 269.050273a11.774149 11.774149 0 0 1-11.84728 9.360814zM271.346907 330.334352h-2.340204a11.627886 11.627886 0 0 1-9.14142-13.821827c0.585051-3.071517 1.023839-5.192327 1.316365-6.654953a9.580208 9.580208 0 0 1 0.365657-3.510306 11.84728 11.84728 0 0 1 14.626272-9.433945c11.335361 2.632729 9.360814 12.139806 6.947479 24.279611a11.774149 11.774149 0 0 1-11.774149 9.14142z" fill="#FFFFFF" /></svg>