<?xml version="1.0" standalone="no"?><!DOCTYPE svg PUBLIC "-//W3C//DTD SVG 1.1//EN" "http://www.w3.org/Graphics/SVG/1.1/DTD/svg11.dtd"><svg class="icon" width="200px" height="200.00px" viewBox="0 0 1024 1024" version="1.1" xmlns="http://www.w3.org/2000/svg"><path d="M738.998876 55.834447l0.472873 173.66251c0.082753 17.106171-8.003371 30.145636-24.234727 39.130218-44.2136 24.435698-78.816062 15.131927-103.795564-27.899491l-2.009709-80.388363c-0.141862-3.499258 2.151571-6.856655 5.792691-8.51171 9.847575-4.575044 19.89612-4.764193 30.145636-0.59109a10.970647 10.970647 0 0 1 6.620218 8.275272c2.837236 13.358655-2.364364 109.588255 38.066255 64.42891 2.364364-2.659909 3.664764-6.407425 3.664764-10.521419l0.709309-129.448909c0-3.948487-1.394975-7.625073-3.9012-10.284982-26.563626-27.982244-46.459746-23.998291-59.700182 11.940036a10.261338 10.261338 0 0 1-7.8024 6.738437 87.1268 87.1268 0 0 1-39.130219-2.364364c29.708229-99.303273 81.416862-110.687684 155.102255-34.165055z" fill="#FB8628" /><path d="M611.441458 240.727684c-9.930327 68.093673 72.467746 113.1348 112.780146 54.143928 7.41228-10.79332 11.029756-10.131298 10.876072 2.009709l-3.546545 368.604292a13342.340481 13342.340481 0 0 0-445.327893-1.3004c-16.550546 0.236436-28.254146 11.230727-13.004 25.062255 2.577156 2.364364 6.348316 3.664764 10.521419 3.664763l445.800765-2.009709c9.540207 6.620218 9.421989 17.29532-0.354655 32.037128-7.093091-4.255855-13.004-6.383782-17.732727-6.383782H280.666984c-4.149458 0-7.849687 1.725985-9.930327 4.610509-5.757225 7.956084-5.000629 15.096462 2.246145 21.397491 2.577156 2.281611 6.383782 3.546545 10.639636 3.546545l442.963529-2.246145c14.576302 5.993662 14.458084 15.758484-0.354654 29.318109a7715.864317 7715.864317 0 0 0-393.666547-2.955454c-20.569964 0.354655-75.068546-20.688182-58.754437 23.880072a8.4526 8.4526 0 0 0 8.038837 5.556255l451.357019-4.492291c5.047916 57.926909 0.555625 114.789855-13.476872 170.588837-162.821902-1.501371-323.681383-1.572302-482.56662-0.236436-5.438036 0-8.984582 3.073673-13.358655 5.674472l-2.837236-3.310109a8.984582 8.984582 0 0 0-7.211309-2.955454c-29.672764 1.655055-42.322109-15.368364-42.440328-44.2136-1.501371-197.507117-1.3004-394.34039 0.591091-590.499821l129.330692 5.083382c-1.572302 24.352946 5.118847 43.066884 20.097091 56.153637-32.474535 19.068593-46.140557 47.606462-41.02171 85.589964 0.472873 3.440149 3.440149 6.017305 6.974873 6.029127h92.683055c13.796062 6.230098 26.008 5.319818 36.647636-2.719018 2.908167-2.246145 4.610509-5.875444 4.61051-9.812109 0.236436-33.727647-13.358655-60.917829-40.785273-81.570546 11.266193-15.368364 18.997662-33.018338 23.170763-52.961746 7.565964-80.471117 9.575673-161.04863 6.029128-241.756182l174.2536-4.255855a87.1268 87.1268 0 0 0 39.130219 2.364364 10.261338 10.261338 0 0 0 7.8024-6.738437c13.240436-35.938327 33.136556-39.92228 59.700182-11.940036 2.506225 2.659909 3.9012 6.336495 3.9012 10.284982l-0.709309 129.448909c0 4.113993-1.3004 7.861509-3.664764 10.521419-40.430618 45.159346-35.229018-51.070255-38.066255-64.42891a10.970647 10.970647 0 0 0-6.620218-8.275272c-10.249516-4.173102-20.298062-3.983953-30.145636 0.59109-3.64112 1.655055-5.934553 5.012451-5.792691 8.51171l2.009709 80.388363z m108.169636 131.505906a10.876073 10.876073 0 0 0-10.899716-10.864251l-65.256437 0.118219a10.876073 10.876073 0 0 0-10.86425 10.887894l0.011821 6.383782a10.876073 10.876073 0 0 0 10.899717 10.864251l65.256436-0.118218a10.876073 10.876073 0 0 0 10.852429-10.887895v-6.383782z m-0.354654 56.744728a13.831527 13.831527 0 0 0-13.937924-13.736953l-60.054836 0.425585a13.831527 13.831527 0 0 0-13.725131 13.926102v1.418619a13.831527 13.831527 0 0 0 13.937923 13.736952l60.054837-0.425585a13.831527 13.831527 0 0 0 13.725131-13.926102v-1.418618z m0.472873 52.997211a10.757855 10.757855 0 0 0-10.734211-10.781498l-66.675055-0.118219a10.757855 10.757855 0 0 0-10.781498 10.746033v5.2016a10.757855 10.757855 0 0 0 10.734211 10.769677l66.675054 0.118218a10.757855 10.757855 0 0 0 10.781499-10.734211v-5.2016z m-286.088001 62.655636a14.3044 14.3044 0 0 0-14.328044-14.268934l-139.024582 0.236436a14.3044 14.3044 0 0 0-14.280757 14.328044v0.709309a14.3044 14.3044 0 0 0 14.328044 14.280756l139.024582-0.236436a14.3044 14.3044 0 0 0 14.280757-14.328044v-0.709309z m135.714473 50.360946a11.7036 11.7036 0 0 0-11.727244-11.668134l-278.049164 0.472872a11.7036 11.7036 0 0 0-11.679957 11.727244v6.147345a11.7036 11.7036 0 0 0 11.727244 11.691779l278.049164-0.484695a11.7036 11.7036 0 0 0 11.679957-11.727244v-6.147345z m118.099964 280.484459a16.786982 16.786982 0 0 0-16.692407-16.869734l-69.748728-0.366477a16.786982 16.786982 0 0 0-16.881556 16.692408v1.655054a16.786982 16.786982 0 0 0 16.692407 16.881557l69.748727 0.354654a16.786982 16.786982 0 0 0 16.881557-16.692407v-1.655055z" fill="#F1EFF2" /><path d="M738.998876 55.834447c0.555625 13.157684 4.728727 24.270193 12.531128 33.337528 2.246145 2.636265 5.910909 4.232211 10.048545 4.374073 30.500291 1.501371 44.296353 19.269564 41.376364 53.3164l0.945745 785.559821c0 23.643636-10.166764 35.193553-30.500291 34.637927l-53.671054-1.3004a512.47582 512.47582 0 0 0 13.476872-170.588837l-6.974872-21.988582c14.812738-13.559626 14.930956-23.324447 0.354654-29.318109l2.6008-20.924618c9.776644-14.741807 9.894862-25.416909 0.354655-32.037128-1.737807-11.029756-1.063964-19.506 2.009709-25.416909l3.546545-368.604292c0.153684-12.141007-3.463793-12.803029-10.876072-2.009709-40.3124 58.990873-122.710473 13.949746-112.780146-54.143928 24.979502 43.031418 59.581964 52.335189 103.795564 27.899491 16.231356-8.984582 24.31748-22.024047 24.234727-39.130218l-0.472873-173.66251z" fill="#CBE5E6" /><path d="M409.643021 94.255357c3.546545 80.707553 1.536836 161.285066-6.029128 241.756182l-34.992582-0.236436-23.643636-0.945746 9.575673-189.267309 55.089673-51.306691z" fill="#A8D3D8" /><path d="M354.553348 145.562048l-9.575673 189.267309-43.740727 0.472873-129.330692-5.083382z" fill="#CBE5E6" /><path d="M802.954913 146.862448c40.667055-7.8024 51.070255 11.585382 50.7156 48.351236-1.655055 263.39011-1.655055 525.326136 0 785.796257 0.153684 24.352946-11.940036 36.564884-36.292982 36.647637-184.183928 0.472873-368.285103 0.555625-552.315347 0.236436-31.292353-0.082753-45.041127-15.640266-41.258146-46.696182 4.374073-2.6008 7.920618-5.674473 13.358655-5.674472 158.885237-1.335865 319.744717-1.264935 482.56662 0.236436l53.671054 1.3004c20.333527 0.555625 30.500291-10.994291 30.500291-34.637927l-0.945745-785.559821z" fill="#A8D3D8" /><path d="M344.977675 334.829357l23.643636 0.945746-24.116509 61.591673-23.170763-5.910909c-14.978244-13.086753-21.669393-31.800691-20.097091-56.153637l43.740727-0.472873z" fill="#A25041" /><path d="M368.621311 335.775103l34.992582 0.236436c-4.173102 19.943407-11.904571 37.593382-23.170763 52.961746-10.876073 9.611138-22.851575 12.412909-35.938328 8.393491l24.116509-61.591673z" fill="#883F2F" /><path d="M380.44313 388.973285c27.426618 20.652716 41.021709 47.842898 40.785273 81.570546 0 3.936665-1.702342 7.565964-4.61051 9.812109-10.639636 8.038836-22.851575 8.949116-36.647636 2.719018 2.518047-20.960084-2.99092-38.10172-16.550546-51.424909-2.458938-2.458938-6.277385-3.676585-10.4032-3.310109-26.870993 2.447116-37.439698-9.847575-31.682472-36.884073l23.170763 5.910909c13.086753 4.019418 25.062255 1.217647 35.938328-8.393491z" fill="#6E80D5" /><path d="M321.334039 391.455867c-5.757225 27.036498 4.81148 39.331189 31.682472 36.884073 4.125815-0.366476 7.944262 0.851171 10.4032 3.310109 13.559626 13.323189 19.068593 30.464826 16.550546 51.424909h-92.683055a7.033982 7.033982 0 0 1-6.974873-6.029127c-5.118847-37.983502 8.547175-66.521371 41.02171-85.589964z" fill="#8897DC" /><path d="M731.551131 665.485613c-3.073673 5.910909-3.747516 14.387153-2.009709 25.416909l-445.800765 2.009709c-4.173102 0-7.944262-1.3004-10.521419-3.664763-15.250146-13.831527-3.546545-24.825818 13.004-25.062255a13342.340481 13342.340481 0 0 1 445.327893 1.3004zM729.186767 722.93965l-2.6008 20.924618-442.963529 2.246145c-4.255855 0-8.06248-1.264935-10.639636-3.546545-7.246775-6.301029-8.003371-13.441407-2.246145-21.397491 2.08064-2.884524 5.780869-4.610509 9.930327-4.610509h430.787056c4.728727 0 10.639636 2.127927 17.732727 6.383782zM726.231313 773.182377l6.974872 21.988582-451.357019 4.492291a8.4526 8.4526 0 0 1-8.038837-5.556255c-16.314109-44.568255 38.184473-23.525418 58.754437-23.880072a7715.864317 7715.864317 0 0 1 393.666547 2.955454z" fill="#A8D3D8" /><path d="M632.578025 361.504399m10.876057-0.018982l65.256337-0.113894q10.876056-0.018982 10.895038 10.857074l0.011142 6.383772q0.018982 10.876056-10.857074 10.895038l-65.256337 0.113894q-10.876056 0.018982-10.895039-10.857073l-0.011141-6.383773q-0.018982-10.876056 10.857074-10.895038Z" fill="#28D1B3" /><path d="M631.438104 415.760703m13.83119-0.096562l60.053373-0.419258q13.83119-0.096561 13.927752 13.734629l0.009904 1.418583q0.096561 13.83119-13.734629 13.927752l-60.053373 0.419258q-13.83119 0.096561-13.927752-13.734628l-0.009903-1.418584q-0.096561-13.83119 13.734628-13.927752Z" fill="#28D1B3" /><path d="M631.561931 471.057981m10.757838 0.018776l66.674953 0.11637q10.757838 0.018776 10.739063 10.776614l-0.009079 5.201592q-0.018776 10.757838-10.776614 10.739062l-66.674953-0.11637q-10.757838-0.018776-10.739062-10.776614l0.009078-5.201592q0.018776-10.757838 10.776614-10.739062Z" fill="#28D1B3" /><path d="M265.982472 530.626759m14.304378-0.024966l139.024371-0.242643q14.304378-0.024966 14.329344 14.279412l0.001238 0.709308q0.024966 14.304378-14.279412 14.329344l-139.024371 0.242644q-14.304378 0.024966-14.329344-14.279413l-0.001238-0.709308q-0.024966-14.304378 14.279412-14.329344Z" fill="#7688D4" /><path d="M267.873859 583.823506m11.703582-0.020427l278.048741-0.485287q11.703582-0.020427 11.724009 11.683155l0.010729 6.147337q0.020427 11.703582-11.683156 11.724008l-278.048741 0.485287q-11.703582 0.020427-11.724009-11.683155l-0.010729-6.147336q-0.020427-11.703582 11.683156-11.724009Z" fill="#7688D4" /><path d="M584.225995 858.147431m16.786751 0.087896l69.747772 0.365202q16.786752 0.087896 16.698856 16.874648l-0.008666 1.655032q-0.087896 16.786752-16.874648 16.698855l-69.747771-0.365202q-16.786752-0.087896-16.698856-16.874647l0.008666-1.655032q0.087896-16.786752 16.874647-16.698856Z" fill="#B0D7DE" /></svg>