<?xml version="1.0" standalone="no"?><!DOCTYPE svg PUBLIC "-//W3C//DTD SVG 1.1//EN" "http://www.w3.org/Graphics/SVG/1.1/DTD/svg11.dtd"><svg class="icon" width="200px" height="172.10px" viewBox="0 0 1190 1024" version="1.1" xmlns="http://www.w3.org/2000/svg"><path d="M1036.915315 375.420541c-104.687856 43.20173-210.777946 78.801874-325.604324 74.724324-115.536721-4.086775-229.578955-44.198054-319.589477-116.791351-73.405117-59.19827-126.201081-140.057369-167.843748-223.462631-8.579459-17.158919-17.324973-38.736721-29.493045-56.403027-16.393225-23.828757-124.162306-5.267604-127.095928 26.845405-6.273153 68.774054 11.05182 169.181405 23.192216 216.054775 20.756757 80.185658 60.683532 155.288216 114.595748 218.296505a580.967784 580.967784 0 0 0 105.924036 96.495855 600.174703 600.174703 0 0 0 131.422558 70.139388c133.064649 50.692613 285.022559 52.316252 417.469117-1.23618 55.665009-22.574126 108.304144-54.087495 153.018811-94.134199 22.823207-20.443099 43.570739-43.20173 61.338523-68.119063 5.553586-7.822991 43.930523-59.438126 38.173982-68.515747 11.808288-29.243964-2.490811-62.491676-31.900829-74.235388a57.971315 57.971315 0 0 0-43.598414 0.341334z" fill="#FFD553" /><path d="M662.961586 586.890378c-72.648649 0-142.603532-15.895063-208.812973-47.556036C331.121009 480.505081 250.649369 382.477838 204.8 310.613333c-53.552432-83.968-87.159928-176.220252-87.685766-240.750702a18.496577 18.496577 0 0 1 18.395099-18.588829h0.156829c10.166198 0 18.45045 8.155099 18.542703 18.284396 0.470486 57.141045 32.629622 144.005766 81.92 221.303928 43.247856 67.805405 118.968505 160.177586 234.09009 215.224505 84.115604 40.221982 174.882595 52.888216 269.773261 37.648144 111.385369-17.878486 228.582631-74.382991 348.335279-167.936a18.62573 18.62573 0 0 1 26.042811 3.108901 18.367423 18.367423 0 0 1-3.136576 25.895207c-124.743495 97.455279-247.660396 156.450595-365.328144 175.343856a521.594234 521.594234 0 0 1-82.953226 6.743639z" fill="#2F3953" opacity=".2" /><path d="M194.384721 53.487856c-16.393225-23.828757-29.326991-43.109477-75.739099-29.90818-46.402883 13.192072-48.423207 24.631351-51.356829 56.74436-0.83027 9.132973-1.23618 18.819459-1.309982 28.856505l140.177297-35.812325a193.609802 193.609802 0 0 0-11.771387-19.88036z" fill="#866539" /><path d="M1035.05182 391.131099c-91.717189 66.246342-186.552505 125.416937-299.183279 148.027964-113.313441 22.758631-233.619604 10.129297-338.150631-39.640793-85.241081-40.581766-155.528072-107.012613-215.556613-178.471207-12.361802-14.723459-25.922883-33.672072-41.882522-48.044973-21.531676-19.372973-121.994378 23.598126-117.317189 55.50818 10.000144 68.340468 50.36973 161.98573 73.137585 204.763099 38.948901 73.183712 95.370378 136.976144 162.557694 185.786811a582.785153 582.785153 0 0 0 125.601441 69.327568 601.521586 601.521586 0 0 0 144.245622 37.804973c141.265874 18.505802 289.432216-15.074018 405.706955-97.805838 48.856793-34.825225 92.658162-77.657946 126.78227-126.95755 17.398775-25.166414 32.251387-52.094847 43.690667-80.443964 3.588613-8.893117 28.810378-67.962234 21.088865-75.462342 4.640288-31.181261-17.038991-60.20382-48.404757-64.816432a57.96209 57.96209 0 0 0-42.316108 10.424504z" fill="#FDBA55" /><path d="M608.292901 699.899387c-32.887928 0-65.905009-3.413333-98.977442-10.24-133.664288-27.611099-235.52-103.451676-297.430486-162.225585-72.334991-68.663351-127.317333-150.140541-143.479928-212.641442a18.432 18.432 0 0 1 13.348901-22.444973 18.551928 18.551928 0 0 1 22.583351 13.265874c14.308324 55.351351 66.57845 131.939171 133.166126 195.141189 58.404901 55.443604 154.282667 126.948324 279.358271 152.788181 91.385081 18.884036 182.548757 9.42818 270.944865-28.109262 103.765333-44.05045 203.812901-126.976 297.347459-246.451892a18.62573 18.62573 0 0 1 26.033586-3.228828 18.376649 18.376649 0 0 1 3.247279 25.876756C1016.988829 526.105369 911.996541 612.822486 802.382414 659.354523c-63.589477 27.002234-128.562739 40.544865-194.098738 40.544864z" fill="#2F3953" opacity=".2" /><path d="M140.288 273.00209c-21.540901-19.372973-38.616793-35.148108-80.656144-11.568432-42.048577 23.579676-41.338234 35.166559-36.67027 67.076612 1.328432 9.077622 3.201153 18.588829 5.479783 28.367568l127.935424-67.251892a193.166991 193.166991 0 0 0-16.088793-16.623856z" fill="#866539" /><path d="M1038.852613 413.437694c-64.548901 92.648937-134.411532 179.633586-233.204469 237.97391-99.392577 58.690883-217.134126 86.283532-332.338739 73.635747-93.940468-10.313802-182.355027-49.926919-262.752864-97.667459-16.559279-9.824865-35.655495-23.256793-55.498955-31.596397-26.753153-11.217874-107.30782 62.344072-92.298379 90.942271 32.14991 61.209369 101.366775 136.348829 137.068397 169.236757 61.089441 56.273874 135.537009 97.971892 215.169153 121.975927a585.506595 585.506595 0 0 0 141.588757 24.179316c49.198126 2.214054 99.595532-1.503712 148.701405-11.688361 139.485405-28.930306 268.195748-109.282018 350.438631-225.556756 34.539243-48.921369 61.65218-103.719207 77.464216-161.459892 8.081297-29.474595 13.145946-59.770234 14.520504-90.28728 0.433586-9.566559 4.612613-73.617297-5.166126-78.146882-5.987171-30.969081-36.070631-51.227676-67.214991-45.277406a57.657658 57.657658 0 0 0-36.47654 23.736505z" fill="#FFD553" /><path d="M385.162378 802.751423a35.037405 34.83445 0 1 0 70.074811 0 35.037405 34.83445 0 1 0-70.074811 0Z" fill="#3F4963" /><path d="M457.681874 913.444901h-74.973406c-10.24 0-18.542703-8.256577-18.542702-18.450451 0-10.184649 8.302703-18.432 18.542702-18.432h74.973406c10.24 0 18.542703 8.247351 18.542703 18.441226 0 10.184649-8.302703 18.441225-18.542703 18.441225z" fill="#FF6376" /><path d="M729.881369 802.751423a35.037405 34.83445 0 1 0 70.074811 0 35.037405 34.83445 0 1 0-70.074811 0Z" fill="#3F4963" /><path d="M802.41009 913.444901h-74.973405c-10.24 0-18.542703-8.256577-18.542703-18.450451 0-10.184649 8.302703-18.432 18.542703-18.432h74.973405c10.24 0 18.542703 8.247351 18.542703 18.441226 0 10.184649-8.302703 18.441225-18.542703 18.441225z" fill="#FF6376" /><path d="M557.729441 883.804252c-29.437694 0-53.395604-23.801081-53.395603-53.063495 0-10.193874 8.302703-18.45045 18.551928-18.450451 10.24 0 18.551928 8.256577 18.551928 18.450451 0 8.920793 7.306378 16.181045 16.291747 16.181045 8.976144 0 16.282523-7.260252 16.282523-16.181045 0-10.193874 8.302703-18.45045 18.542703-18.450451 10.249225 0 18.551928 8.256577 18.551928 18.450451 0 29.262414-23.948685 53.063495-53.377154 53.063495z" fill="#3F4963" /><path d="M627.389117 883.804252c-29.428468 0-53.377153-23.801081-53.377153-53.063495 0-10.193874 8.302703-18.45045 18.542703-18.450451 10.249225 0 18.551928 8.256577 18.551928 18.450451 0 8.920793 7.306378 16.181045 16.282522 16.181045 8.985369 0 16.282523-7.260252 16.282523-16.181045 0-10.193874 8.302703-18.45045 18.551928-18.450451 10.24 0 18.551928 8.256577 18.551927 18.450451 0 29.262414-23.948685 53.063495-53.386378 53.063495z" fill="#3F4963" /><path d="M155.057586 595.783495c-26.753153-11.208649-48.118775-20.48-79.964253 15.581406-31.854703 36.070631-27.334342 46.771892-12.324901 75.360865 4.262054 8.118198 9.19755 16.485477 14.603532 24.972684l98.405477-105.518126a196.866306 196.866306 0 0 0-20.719855-10.396829zM1063.022703 494.407495c2.786018 1.291532 5.701189 2.361658 8.763964 3.201154 30.10191 8.321153 61.292396-9.206775 69.668901-39.142631l25.719927-92.049297c8.376505-29.945081-9.252901-60.969514-39.373261-69.262991-30.12036-8.321153-61.310847 9.216-69.668901 39.14263l-25.738378 92.049298c-7.509333 26.900757 5.968721 54.687135 30.627748 66.061837z" fill="#866539" /><path d="M1177.987459 314.589405a74.53982 74.53982 0 0 0-45.295855-35.212684 75.877477 75.877477 0 0 0-20.157118-2.739892c-33.607495 0-63.368072 22.50955-72.362666 54.714811l-7.204901 25.793729a73.340541 73.340541 0 0 0-3.238054 1.245406c-98.064144 40.461838-204.421766 77.362739-317.84591 73.34054-113.866955-4.040649-223.44418-44.068901-308.565333-112.704576C342.043676 269.607207 288.74955 198.526847 240.409369 101.689658c-2.177153-4.354306-4.381982-9.059171-6.734414-14.040793-3.487135-7.417081-7.094198-15.101694-11.153297-22.841658h-0.018451a207.807423 207.807423 0 0 0-12.887639-21.73463l-0.295208-0.433586C195.833081 23.044613 180.537658 0.839495 145.223495 0.839495c-9.529658 0-19.926486 1.632865-31.76245 5.000073-54.244324 15.424577-61.107892 33.118559-64.733405 72.805477a366.942559 366.942559 0 0 0-1.383784 30.387892v0.009225H47.325405c-0.332108 47.758991 6.734414 98.589982 12.426379 131.533261-3.05355 1.44836-6.153225 2.998198-9.335928 4.797118-49.142775 27.546523-51.688937 46.347532-45.913946 85.794594 1.346883 9.169874 3.28418 19.216144 5.765766 29.871279v0.009226C26.919207 432.330955 62.906811 510.505514 79.613694 541.88973a547.378739 547.378739 0 0 0 17.168144 29.862054c-12.09427 4.898595-23.782631 13.920865-35.720072 27.43582-37.223784 42.159279-33.376865 60.729658-14.824937 96.06227 4.317405 8.21045 9.483532 17.066667 15.369225 26.301117v0.009225c39.410162 61.836685 99.355676 123.802523 125.536865 147.926487 62.334847 57.417802 139.236324 101.016216 222.383279 126.090378a601.761441 601.761441 0 0 0 174.541261 25.6c42.297658 0 84.198631-4.262054 124.918775-12.703135 146.727207-30.434018 278.601802-115.361441 361.841009-233.019964 37.26991-52.786739 64.244468-109.042162 80.176433-167.207207 8.662486-31.614847 13.764036-63.349622 15.157045-94.318703l0.156829-3.053549c1.21773-23.385946 2.103351-51.569009-1.060901-69.01391l19.714306-70.508397a73.847928 73.847928 0 0 0-6.983496-56.762811zM85.674667 81.984577c1.208505-13.192072 2.177153-21.504 5.54436-25.802955 3.874595-4.963171 14.197622-9.686486 32.454342-14.880289 8.358054-2.380108 15.609081-3.579387 21.550126-3.579387 14.640432 0 20.470775 6.928144 32.214487 23.921009L85.407135 85.148829l0.276757-3.164252z m110.444396 12.961441l3.948396 8.321153c2.435459 5.184577 4.741766 10.083171 7.103424 14.824937 50.766414 101.661982 107.289369 176.755315 172.788468 229.578955 91.32973 73.654198 208.739171 116.588396 330.604397 120.905802a518.088649 518.088649 0 0 0 18.487351 0.332108c76.089658 0 148.304721-16.476252 216.802018-39.354811-64.816432 40.94155-135.18645 75.75755-213.748468 91.52346-111.680577 22.426523-227.613982 8.865441-326.462271-38.192433-71.144937-33.865802-139.614559-90.683964-209.32036-173.655639-3.127351-3.726991-6.365405-7.76764-9.787964-12.048145-5.073874-6.328505-10.304577-12.878414-15.987315-19.391423l-0.027676 0.027676-0.21218-0.276757a210.030703 210.030703 0 0 0-17.666306-18.201369l-0.396685-0.369009c-14.483604-13.035243-30.895279-27.804829-55.812613-27.804829-0.221405 0-0.433586 0.027676-0.645765 0.027675-6.485333-38.376937-10.424505-76.218811-11.208649-107.741405l111.532973-28.505946zM41.227532 325.862631c-1.918847-13.109045-2.924396-21.430198-0.654991-26.384145 2.619964-5.71964 11.531532-12.703135 28.081585-21.983711 11.190198-6.273153 20.526126-9.446631 27.767928-9.446631 9.732613 0 16.965189 5.747315 29.29009 16.78991L41.698018 328.999207a292.531892 292.531892 0 0 1-0.479712-3.136576z m8.625585 40.57254l101.818811-53.524757c1.964973 2.417009 3.920721 4.843243 5.830342 7.232577 3.560937 4.455784 6.937369 8.662486 10.332253 12.721586 73.192937 87.132252 145.740108 147.086991 221.783639 183.286774 72.72245 34.613045 153.969009 52.362378 236.396397 52.362379 37.804973 0 75.859027-3.736216 113.433369-11.282451 96.994018-19.465225 180.998919-65.360721 257.365333-116.837477-53.84764 73.552721-116.385441 145.352649-200.72245 195.159639-97.971892 57.842162-211.903423 83.119279-320.834883 71.163388-78.414414-8.61636-161.921153-39.74227-255.280433-95.176649-4.225153-2.509261-8.671712-5.286054-13.376576-8.228901a593.10818 593.10818 0 0 0-21.69773-13.155171v0.018451l-0.01845-0.009226a210.51964 210.51964 0 0 0-22.70328-11.374702l-0.507387-0.212181c-7.001946-2.942847-14.14227-5.904144-21.587027-8.062846a513.107027 513.107027 0 0 1-27.675676-45.877045c-17.177369-32.251387-46.67964-98.70991-62.547027-158.212613z m29.27164 311.757261c-6.16245-11.743712-9.870991-19.271495-9.382054-24.695927 0.571964-6.263928 6.669838-15.775135 19.197693-29.972757 15.304649-17.315748 24.76973-19.317622 30.563172-19.317622 7.315604 0 15.885838 3.394883 25.738378 7.509333l-64.622703 69.281442c-0.507387-0.950198-1.014775-1.881946-1.494486-2.804469z m1050.144288-169.218306c-0.073802 1.420685-0.138378 2.555387-0.166054 3.321081-1.282306 28.24764-5.95027 57.270198-13.893189 86.265081-14.797261 54.032144-39.945225 106.422198-74.742775 155.703352-77.860901 110.075387-201.442018 189.578378-339.054703 218.112a581.20764 581.20764 0 0 1-144.051892 11.319351 564.454631 564.454631 0 0 1-137.059171-23.413622c-77.814775-23.450523-149.725405-64.198342-207.945802-117.843027-26.919207-24.797405-76.846126-77.824-111.606774-128.784144l78.312937-83.968 7.776864 4.824793c4.898595 3.072 9.529658 5.959495 14.114595 8.690162 98.018018 58.201946 186.414126 90.960721 270.234523 100.167496 19.003964 2.084901 38.137081 3.118126 57.316324 3.118126 98.802162 0 198.729802-27.398919 286.535495-79.23546 85.324108-50.378955 148.784432-120.739748 203.084109-193.425297a74.576721 74.576721 0 0 0 36.993153 37.297586 75.739099 75.739099 0 0 0 31.753225 6.983495c15.599856 0 30.350991-4.898595 42.60209-13.33045l-0.202955 4.197477z m19.954162-147.492901l-25.719928 92.040072a38.118631 38.118631 0 0 1-52.749838 24.17009 37.574342 37.574342 0 0 1-20.563027-44.401009l25.738379-92.067747a38.10018 38.10018 0 0 1 46.836468-26.291892 37.703495 37.703495 0 0 1 22.924685 17.804684c5.000072 8.800865 6.245477 19.003964 3.533261 28.745802zM420.107532 767.907748c-19.354523 0-35.037405 15.590631-35.037406 34.83445s15.682883 34.843676 35.037406 34.843676 35.037405-15.590631 35.037405-34.843676c0-19.234595-15.682883-34.83445-35.037405-34.83445z m242.023783 44.382558c-10.24 0-18.542703 8.256577-18.542702 18.450451 0 8.920793-7.306378 16.181045-16.282523 16.181045a16.254847 16.254847 0 0 1-16.291748-16.19027c0-10.184649-8.302703-18.441225-18.542702-18.441226-10.24 0-18.542703 8.256577-18.542703 18.450451 0 8.920793-7.306378 16.181045-16.291748 16.181045a16.254847 16.254847 0 0 1-16.291748-16.19027c0-10.184649-8.302703-18.441225-18.542702-18.441226-10.249225 0-18.551928 8.256577-18.551928 18.450451 0 29.253189 23.948685 53.063495 53.386378 53.063495a53.294126 53.294126 0 0 0 34.834451-12.942991 53.294126 53.294126 0 0 0 34.83445 12.942991c29.428468 0 53.377153-23.801081 53.377153-53.07272 0-10.184649-8.302703-18.441225-18.542702-18.441226z m102.704433-44.382558c-19.354523 0-35.046631 15.590631-35.046631 34.83445s15.682883 34.843676 35.046631 34.843676c19.345297 0 35.037405-15.590631 35.037405-34.843676 0-19.234595-15.682883-34.83445-35.037405-34.83445z" fill="#000000" /></svg>