<?xml version="1.0" standalone="no"?><!DOCTYPE svg PUBLIC "-//W3C//DTD SVG 1.1//EN" "http://www.w3.org/Graphics/SVG/1.1/DTD/svg11.dtd"><svg class="icon" width="200px" height="200.00px" viewBox="0 0 1024 1024" version="1.1" xmlns="http://www.w3.org/2000/svg"><path d="M928.556285 66.451314a316.591694 316.591694 0 0 0-132.594545 66.001038l-26.661102-49.885883c-1.303432-2.488369 0.296234-6.055032 3.673307-8.176071 4.419818-2.760905 7.311067-6.955585 8.650047-12.560341l95.150509-54.15166a13.15281 13.15281 0 0 1 16.233648 2.48837c16.980159 18.330988 28.829538 37.088555 35.548136 56.284547z" fill="#685E67" /><path d="M781.623992 61.830057c-1.33898 5.604756-4.230228 9.799436-8.650047 12.560341-3.377073 2.121039-4.976739 5.687702-3.673307 8.176071l26.661102 49.885883 1.8959 4.858246-54.270153 27.727545a467.65942 467.65942 0 0 0-53.322203-106.644406c-5.924689-9.005528-5.059685-16.624678 2.606863-22.8693 20.77196-16.909063 35.311148-18.094001 43.605713-3.554814l18.722018 33.059766c1.872202 3.199332 5.7114 4.858245 9.597996 4.147282a39.813912 39.813912 0 0 0 16.826118-7.346614z" fill="#918191" /><path d="M690.265284 58.393737a467.65942 467.65942 0 0 1 53.322203 106.644406c-33.652235 30.654342-41.55577 67.185976-23.698757 109.606751l-200.37299 111.858133c-3.495567 1.895901-7.405862 2.405424-10.901428 1.421925l-14.337748-4.147282-15.167204-31.400853 0.829456-12.560342c12.406299-0.628017 22.952246-5.569208 31.637841-14.811723 18.129549 26.187126 120.034204-46.805045 141.718566-60.43183 8.76854-5.53366 9.088473-12.880274 0.94795-22.039844l31.519347-15.759673c23.544715-11.766433 31.720786-26.270072 24.528213-43.487219a417.287712 417.287712 0 0 0-50.596846-89.344314c14.065212-8.851486 24.255678-20.700864 30.571397-35.548135z" fill="#E1DDE1" /><path d="M928.556285 66.451314c33.296753 42.302281-36.496086 66.593507-79.746317 89.344314-19.195993 0-36.176152-6.161677-50.952328-18.48503l-1.8959-4.858246a316.591694 316.591694 0 0 1 132.594545-66.001038z" fill="#554E54" /><path d="M659.693887 93.941872a417.287712 417.287712 0 0 1 50.596846 89.344314c7.192573 17.217147-0.983498 31.720786-24.528213 43.487219l-31.519347 15.759673-6.517158-2.132888c-3.554814-1.208637-7.465108-0.865005-10.782934 0.94795-22.395325 12.086366-124.181486 61.024299-125.366424 83.656612-8.685594 9.242515-19.231541 14.183706-31.637841 14.811723l-61.142793-89.818288c-0.710963-11.529445 2.962345-19.871408 11.019922-25.002189 48.736494-30.962426 125.366424-74.651084 229.877942-131.054126z" fill="#F1EFF2" /><path d="M797.85764 137.310598c14.776175 12.323354 31.756334 18.48503 50.952328 18.48503 27.964533 33.17826 37.005609 70.823735 27.135076 112.924577-18.959006 36.105056-49.411908 53.049667-91.358708 50.833833-28.59255-4.656806-50.158419-19.63442-64.697606-44.909144-17.857013-42.420775-9.953478-78.952409 23.698757-109.606751l54.270153-27.727545z m34.718679 97.757372a37.207048 37.207048 0 1 0-74.414097 0 37.207048 37.207048 0 0 0 74.414097 0z" fill="#685E67" /><path d="M654.243173 242.533078c8.140523 9.15957 7.82059 16.506184-0.94795 22.039844-21.684363 13.626785-123.589017 86.618957-141.718566 60.43183 1.184938-22.632313 102.971099-71.570246 125.366424-83.656612 3.317826-1.812955 7.228121-2.156587 10.782934-0.94795l6.517158 2.132888z" fill="#63B9FC" /><path d="M418.796023 249.998187l61.142793 89.818288-0.829456 12.560342c-18.804964-6.315719-36.614579-2.606863-53.440697 11.138415l-16.826118-23.698757-26.661101-59.246892c6.955585-12.797329 19.160445-22.987794 36.614579-30.571396z" fill="#CBC5CB" /><path d="M875.945044 268.720205a100.980403 100.980403 0 0 1 24.646707 44.435169c-16.1981 21.091894-37.088555 33.095314-62.683212 36.02211-9.953478-22.359777-27.727546-32.230309-53.322203-29.623446 41.9468 2.215834 72.399702-14.728777 91.358708-50.833833z" fill="#A69CA7" /><path d="M382.181444 280.569583l26.661101 59.246892c-8.294565 21.482923-24.089786 32.348803-47.397513 32.585791-5.687702-7.583602-12.560341-8.567101-20.617919-2.962344 4.348722-14.456242 5.415166-29.267965 3.199332-44.43517-0.37918-2.903098 1.078293-6.339417 3.910295-9.242515l34.244704-35.192654z" fill="#F1EFF2" /><path d="M900.591751 313.155374c101.904655 199.780521 28.675496 424.207749-162.217991 537.369313-17.383038-25.35767-20.736412-53.239257-10.071971-83.656612 144.917899-87.092932 178.570133-272.298717 109.60675-417.690591 25.594657-2.926796 46.485112-14.930217 62.683212-36.02211z" fill="#B6ADB6" /><path d="M408.842545 339.816475l16.826118 23.698757 21.210387 32.111816c-26.542608 5.33222-40.050899 24.646707-68.133926 14.811723l-17.300092-38.036505c23.307727-0.236988 39.102949-11.102868 47.397513-32.585791z" fill="#E1DDE1" /><path d="M479.10936 352.376817l15.167204 31.400853c-14.3022 14.065212-30.097421 18.011055-47.397514 11.849378l-21.210387-32.111816c16.826117-13.745279 34.635733-17.454134 53.440697-11.138415z" fill="#B6ADB6" /><path d="M361.445032 372.402266l17.300092 38.036505-39.102949 21.684363c-3.05714 1.71816-7.05038 1.256034-10.071971-1.184938-32.230309-25.594657-28.474056-46.094082 11.256909-61.498274 8.057577-5.604756 14.930217-4.621258 20.617919 2.962344z" fill="#918191" /><path d="M340.234644 624.675534l-4.858245 61.853755c-0.272536 3.898446 1.433775 7.346615 4.265776 8.650046 7.42956 3.400772 15.522686 4.585709 24.291226 3.554814l-65.645557 8.413059a278.021967 278.021967 0 0 0-94.321052-5.450714c-53.322203-8.294565-138.282247 24.646707-125.129437-68.489408a10.249712 10.249712 0 0 1 10.190466-8.887034l251.206823 0.355482z" fill="#8DCAFC" /><path d="M340.234644 624.675534l46.923539 1.8959c3.24673 0.082946 6.244622 2.938646 7.346614 6.991133 8.685594 30.89133-1.504871 52.61124-30.571396 65.171582-8.76854 1.030896-16.861666-0.154042-24.291226-3.554814-2.832001-1.303432-4.538312-4.751601-4.265776-8.650046l4.858245-61.853755z" fill="#63B9FC" /><path d="M203.966792 701.696494c31.910376-3.554814 63.358627-1.741859 94.321052 5.450714l21.684363 23.698757c-29.386459 15.795221-60.159294 17.92811-92.306658 6.398664l-23.698757-35.548135z" fill="#A69CA7" /><path d="M319.972207 730.845965c53.085215 50.478352 116.123909 81.251188 189.11608 92.306658l68.963383 4.621257c1.51672 0.118494 2.903098 0.865005 3.756253 2.014395a3.827349 3.827349 0 0 1 0.509523 3.791801l-19.906956 47.871489c-53.796178 3.874747-105.850498 1.066444-156.174808-8.413059-71.961275-31.756334-131.492553-77.02096-178.570133-135.793877 32.147364 11.529445 62.9202 9.396557 92.306658-6.398664z" fill="#B6ADB6" /><path d="M663.130207 733.808309l5.924689 40.99885c-12.643287 7.666548-14.610284 16.861666-5.924689 27.609051l2.962345 79.035355h-103.682062l19.906956-47.871489a3.827349 3.827349 0 0 0-0.509523-3.791801 5.166329 5.166329 0 0 0-3.756253-2.014395l-68.963383-4.621257 71.333259-0.473975c3.554814 0 6.706748-2.251382 7.820589-5.569208 13.828225-39.967954 38.783016-67.742897 74.888072-83.301131z" fill="#E1DDE1" /><path d="M663.130207 733.808309c34.043264-3.791801 55.775024 7.228121 65.171582 33.059766-10.664441 30.417355-7.311067 58.298942 10.071971 83.656612-8.531552 6.315719-13.863773 15.64118-15.996661 27.964533l-56.284547 2.962345-2.962345-79.035355c28.047479-2.215834 30.014476-11.410951 5.924689-27.609051l-5.924689-40.99885z" fill="#CBC5CB" /><path d="M669.054896 774.807159c24.089786 16.1981 22.12279 25.393218-5.924689 27.609051-8.685594-10.747386-6.718598-19.942504 5.924689-27.609051z" fill="#918191" /><path d="M406.235682 873.038506c50.32431 9.479503 102.37863 12.287805 156.174808 8.413059h103.682062l56.284547-2.962345 26.661102 3.910295c7.666548 21.885802 10.628892 44.281127 8.887034 67.185976h-471.012794c-11.221361-23.935744-7.856138-44.352224 10.071972-61.261287 2.559466-2.488369 6.315719-3.744404 10.308959-3.436319 34.12621 2.523918 67.10303-1.421925 98.94231-11.849379z" fill="#F1EFF2" /><path d="M749.038201 882.399515c50.561298-8.294565 73.264707 13.117262 68.133926 64.223631l-59.246892 2.962345a163.711013 163.711013 0 0 0-8.887034-67.185976z" fill="#E1DDE1" /><path d="M817.172127 946.623146l2.962345 2.962345-6.635652 1.421925a5.14263 5.14263 0 0 0-3.483717 2.523918 5.403317 5.403317 0 0 0-0.426578 4.348722c6.718598 20.226889 5.296672 40.169393-4.265776 59.839361l-557.513257 0.355481a15.937414 15.937414 0 0 1-15.04871-10.901428c-15.795221-46.212576 2.251382-65.408569 54.151659-57.587979h471.012794l59.246892-2.962345z" fill="#8DCAFC" /><path d="M820.134472 949.585491c46.923539-1.978846 60.396282 17.92811 40.40638 59.720867-1.895901 3.922144-5.118931 6.457911-8.294565 6.517159l-46.923538 1.8959c9.562448-19.669968 10.984374-39.612472 4.265776-59.839361a5.403317 5.403317 0 0 1 0.426578-4.348722 5.14263 5.14263 0 0 1 3.483717-2.523918l6.635652-1.421925z" fill="#63B9FC" /><path d="M795.369271 235.06797m-37.207049 0a37.207048 37.207048 0 1 0 74.414097 0 37.207048 37.207048 0 1 0-74.414097 0Z" fill="#423F43" /></svg>