<?xml version="1.0" standalone="no"?><!DOCTYPE svg PUBLIC "-//W3C//DTD SVG 1.1//EN" "http://www.w3.org/Graphics/SVG/1.1/DTD/svg11.dtd"><svg class="icon" width="200px" height="188.41px" viewBox="0 0 1087 1024" version="1.1" xmlns="http://www.w3.org/2000/svg"><path d="M977.633484 210.338179l-2.649413 31.035983-1.0093 6.308127-37.34411 2.649413c2.86389-5.134815 0.756975-9.500039-6.308127-13.120904A6963.490659 6963.490659 0 0 0 583.123237 75.848916c11.695267-29.610347-2.233077-52.899951-41.759799-69.894044 113.38227 59.208078 251.694258 128.017124 414.948578 206.401907 8.919691 4.289526 16.022642 3.620865 21.321468-2.0186z" fill="#CBC5CB" /><path d="M541.363438 5.954872c39.526722 16.994093 53.455066 40.283697 41.759799 69.894044-25.648843 36.83946-50.755188 36.549286-75.319033-0.883138-8.415041-10.938292-7.569752-26.960934 2.52325-48.067926C515.96692 18.230486 526.312248 11.253698 541.363438 5.954872z" fill="#867A84" /><path d="M510.327454 26.897852c-10.093003 21.106992-10.938292 37.129634-2.52325 48.067926a5912.73337 5912.73337 0 0 0-365.997515 172.211861H113.420119l0.50465-24.727857 396.402685-195.55193z" fill="#CBC5CB" /><path d="M507.804204 74.965778c24.563846 37.432424 49.67019 37.722598 75.319033 0.883138 116.914821 50.465014 232.643715 104.248103 347.199297 161.361882 7.065102 3.620865 9.172016 7.986088 6.308127 13.120904l-794.823972-3.154063A5912.73337 5912.73337 0 0 1 507.804204 74.965778z" fill="#FFFFFF" /><path d="M113.924769 222.449782l-0.50465 24.727857-31.540634-3.154064v-21.573793c0-4.339991 1.185928-8.402425 3.406389-11.606953 12.780265-18.41973 22.330769-14.54654 28.638895 11.606953zM1008.669468 238.220099c-10.093003 8.667366-21.321468 9.714515-33.685397 3.154063l2.649413-31.035983c23.970882-16.565141 34.31621-7.279578 31.035984 27.88192z" fill="#FA7621" /><path d="M1008.669468 238.220099c0 2.270926 0.794824 4.504003 2.397088 6.686614 1.980752 2.750343 6.181964 3.911039 10.597653 2.901738 21.863967-5.046501 40.334162-0.164011 55.385353 14.634854 2.826041 2.826041 4.415689 6.812777 4.415689 11.102304l-0.883138 719.12645c0 16.237118-8.036553 24.349369-24.097044 24.349369l-72.543458-0.252325 6.308127-71.534158c12.616254 1.51395 18.92438-4.289526 18.92438-17.031942 0.088314-198.239191 0.037849-396.440534-0.126162-594.604028 0-4.693246-2.119531-8.629517-5.298827-9.840677l-10.345328-4.037202a175.857958 175.857958 0 0 0-19.42903-72.038807l1.0093-6.308127c12.363928 6.560452 23.592394 5.513303 33.685397-3.154063z" fill="#FCB982" /><path d="M81.879485 244.023575l31.540634 3.154064h28.38657l794.823972 3.154063 37.34411-2.649413a175.857958 175.857958 0 0 1 19.42903 72.038807l-59.927204 4.163364-845.415148-0.378488c-3.406388 0-6.181964 2.826041-6.181964 6.308127l0.126163 605.580169c0 3.343307 2.712495 6.055802 6.055801 6.055801l848.569212-0.378487 53.619077 4.163363-6.308127 71.534158c-316.794126 0.630813-633.588251 2.901738-950.382377-3.154064C15.391829 1013.274401 6.308127 1004.064536 6.308127 985.985444V283.512449c0-22.456931 11.190617-33.016735 33.559234-31.666796 9.928992 0.592964 23.933033-2.018601 42.012124-7.822078z" fill="#FCC99F" /><path d="M993.403801 319.721096l10.345328 4.037202c3.179296 1.21116 5.298826 5.147431 5.298827 9.840677 0.164011 198.163494 0.214476 396.364836 0.126162 594.604028 0 12.742416-6.308127 18.545893-18.92438 17.031942l-53.619077-4.163363-3.784877-237.185566c4.541851-48.86275 3.494702-97.52364-3.154063-145.970053a1111.264842 1111.264842 0 0 0 3.784876-234.031503l59.927204-4.163364z" fill="#E1DDE1" /><path d="M933.476597 323.88446a1111.264842 1111.264842 0 0 1-3.784876 234.031503c-20.690656-47.348799-50.805653-84.528899-90.332375-111.527681-42.983576-28.853372-90.458538-41.292998-142.437502-37.344111-40.536023 3.696562-77.804435 17.322116-111.780006 40.876662a9.525271 9.525271 0 0 1-10.597653 0.252325C365.240539 316.693196 146.348541 528.015442 254.848321 749.178366c75.609207 102.027642 173.599648 129.102122 293.958707 81.248672 3.116215-1.261625 6.396441-3.620865 9.840677-7.065101a34.707313 34.707313 0 0 1 18.167405-10.219166c3.557783-0.643429 7.721147 0.353255 11.606954 2.775576 37.937074 23.80687 79.356235 37.129634 124.270097 39.993524 85.19756-4.201212 150.221731-41.885962 195.047279-113.041632 4.125515-12.275615 12.490091-25.270356 25.106344-38.984223l3.784877 237.185566-848.569212 0.378487a6.055802 6.055802 0 0 1-6.055801-6.055801l-0.126163-605.580169c0-3.482086 2.775576-6.308127 6.181964-6.308127l845.415148 0.378488zM167.543847 700.60579c4.125515-87.720811 4.415689-175.492086 0.883137-263.301211-0.50465-14.508692 4.794176-22.835419 14.004042-32.171446a9.336028 9.336028 0 0 0-3.154064-15.139505c-36.965623-15.013342-43.27375 4.037201-43.399912 35.073185-0.416336 101.687003-0.037849 203.46232 1.135463 305.313335 0.340639 24.980182 15.265667 31.414471 44.7877 19.302868a6.938939 6.938939 0 0 0 2.270926-11.228466c-10.723815-10.723815-17.284267-21.447631-16.527292-37.84876z m14.180669 109.938033a15.391829 15.391829 0 0 0-14.634855-16.123572l-12.591021-0.618196a15.391829 15.391829 0 0 0-16.123572 14.634854l-0.151395 3.015284a15.391829 15.391829 0 0 0 14.634855 16.123572l12.591021 0.618197a15.391829 15.391829 0 0 0 16.123572-14.634854l0.151395-3.015285z m54.073262 47.058626a13.625554 13.625554 0 0 0-13.650786-13.612938l-69.894045 0.126163a13.625554 13.625554 0 0 0-13.600321 13.650786v4.037201a13.625554 13.625554 0 0 0 13.650786 13.600321l69.894045-0.126162a13.625554 13.625554 0 0 0 13.600321-13.650787v-4.037201z" fill="#F1EFF2" /><path d="M696.921844 409.044171c-11.606953 7.481438-11.606953 12.578405 0 15.265667 39.362711 9.083703 70.020207 25.901168 91.972488 50.465014-10.597653 5.715163-17.952929 14.420378-22.078444 26.115645-1.223777 3.406388-0.996684 7.632833 0.630813 11.859278 14.294215 37.180099 3.06575 60.394006-33.685397 69.641719-4.352607 1.072382-8.04917 3.040517-10.597653 5.677315-20.602342 21.535945-17.536592 39.072537 9.209865 52.609777 3.330691 1.71581 7.54452 2.119531 11.859278 1.135463 30.44302-6.812777 50.755188 1.261625 60.936505 24.223206 10.345328 23.466232 17.662755 30.026683 37.34411 42.138287-23.554545 64.090568-67.875444 106.317168-132.975312 126.667185l-14.256366-64.21673c-1.173312-5.38714-2.611564-9.121551-4.289526-11.228466-11.859278-14.723168-25.396518-26.153494-40.624337-34.316209a26.746457 26.746457 0 0 1-14.004041-19.681356 8605.50867 8605.50867 0 0 0-23.466232-150.259579c-6.686614-40.876661-47.563276-39.993524-55.006865 1.892438a10905.552614 10905.552614 0 0 0-20.816818 122.377659c-0.643429 4.289526-2.737727 7.960856-5.803477 10.219165-50.086526 36.713298-52.988265-37.596435-51.726639-63.964405a14.256366 14.256366 0 0 0-4.163364-10.976141l-67.623119-63.333592a15.555841 15.555841 0 0 0-11.102303-3.784876c-43.27375 1.640113-94.874226 10.723815-87.682962 69.137069 1.261625 9.840678 8.894459 17.650139 18.672056 19.050543 17.662755 2.611564 33.773711 8.793529 48.320251 18.545892 3.507318 2.371856 6.09365 5.803477 7.317427 9.714516 5.803477 18.003394 3.318075 34.278361-7.44359 48.824901-2.119531 2.851273-5.652082 5.046501-9.96684 6.181964l-111.023031 30.152846c-108.49978-221.162924 110.392218-432.48517 319.695864-299.005208 3.280226 2.069066 7.468822 1.968136 10.597653-0.252325 33.975571-23.554545 71.243984-37.180099 111.780006-40.876662z m-220.342868 68.455792c-0.580348-4.516619-3.431621-8.541204-7.935623-11.203233-4.491386-2.662029-10.26963-3.734411-16.035258-2.990052-12.02329 1.564415-20.77897 10.446258-19.555193 19.845366 0.580348 4.516619 3.431621 8.541204 7.935623 11.203233 4.491386 2.662029 10.26963 3.734411 16.035258 2.990053 12.02329-1.564415 20.77897-10.446258 19.555193-19.845367zM490.772262 512.118962c-60.305692 16.022642 16.90578 58.539416 20.186005 16.90578a16.148804 16.148804 0 0 0-20.186005-16.90578z m277.658507 202.200695c-0.176628-4.239061-2.649413-8.225797-6.888475-11.051838-4.239061-2.826041-9.891143-4.289526-15.707235-4.037201-5.816093 0.252325-11.329396 2.169996-15.316132 5.336675-3.986736 3.179296-6.131499 7.34266-5.942255 11.594337 0.176628 4.239061 2.649413 8.225797 6.888474 11.051839 4.239061 2.826041 9.891143 4.289526 15.707236 4.037201 5.816093-0.252325 11.329396-2.169996 15.316131-5.336676 3.986736-3.179296 6.131499-7.34266 5.942256-11.594337z" fill="#63B9FC" /><path d="M696.921844 409.044171c51.978964-3.948887 99.453926 8.490739 142.437502 37.344111l-42.012124 28.38657h-8.45289c-21.952281-24.563846-52.609777-41.381312-91.972488-50.465014-11.606953-2.687262-11.606953-7.784228 0-15.265667z" fill="#30A7FB" /><path d="M839.359346 446.388282c39.526722 26.998783 69.641719 64.178882 90.332375 111.527681 6.648766 48.446413 7.695915 97.107303 3.154063 145.970053-12.616254 13.713868-20.98083 26.708609-25.106344 38.984223l-56.773141-34.694697a307.458098 307.458098 0 0 0 0-129.316598c11.190617-16.237118 6.976788-26.746457-12.616253-31.540634a208.067253 208.067253 0 0 0-41.002824-72.543458l42.012124-28.38657z" fill="#22B69F" /><path d="M788.894332 474.774852h8.45289a208.067253 208.067253 0 0 1 41.002824 72.543458c-14.130204-0.252325-22.204606 5.046501-24.223207 15.896479a11.455558 11.455558 0 0 0 3.911039 10.597653c9.172016 8.074402 20.148157 9.752364 32.928421 5.046502a307.458098 307.458098 0 0 1 0 129.316598h-8.45289c-19.681355-12.111603-26.998783-18.672055-37.34411-42.138287-10.181317-22.961581-30.493485-31.035984-60.936505-24.223206-4.314759 0.984068-8.528587 0.580348-11.859278-1.135463-26.746457-13.53724-29.812207-31.073832-9.209865-52.609777 2.548483-2.636797 6.245045-4.604933 10.597653-5.677315 36.751146-9.247714 47.979612-32.46162 33.685397-69.641719-1.627497-4.226445-1.854589-8.45289-0.630813-11.859278 4.125515-11.695267 11.480791-20.400482 22.078444-26.115645zM709.538097 834.842727c-7.481438 10.004689-6.434289 17.031942 3.154064 21.069144-44.913862-2.86389-86.333023-16.186653-124.270097-39.993524-3.885806-2.422321-8.04917-3.419005-11.606954-2.775576a34.707313 34.707313 0 0 0-18.167405 10.219166c-3.444237 3.444237-6.724463 5.803477-9.840677 7.065101-120.359058 47.85345-218.349499 20.77897-293.958707-81.248672l111.023031-30.152846c4.314759-1.135463 7.84731-3.330691 9.96684-6.181964 10.761664-14.54654 13.247066-30.821507 7.44359-48.824901a18.381881 18.381881 0 0 0-7.317427-9.714516 116.094765 116.094765 0 0 0-48.320251-18.545892 22.015362 22.015362 0 0 1-18.672056-19.050543c-7.191265-58.413254 44.409212-67.496956 87.682962-69.137069 4.27691-0.164011 8.263646 1.198544 11.102303 3.784876l67.623119 63.333592c2.800808 2.649413 4.327375 6.648766 4.163364 10.976141-1.261625 26.36797 1.640113 100.677703 51.726639 63.964405 3.06575-2.258309 5.160048-5.929639 5.803477-10.219165 6.724463-40.964975 13.663403-81.753323 20.816818-122.377659 7.44359-41.885962 48.320251-42.769099 55.006865-1.892438a8605.50867 8605.50867 0 0 1 23.466232 150.259579A26.746457 26.746457 0 0 0 650.367868 725.081322c15.227818 8.162716 28.765058 19.593042 40.624337 34.316209 1.677962 2.106914 3.116215 5.841325 4.289526 11.228466l14.256366 64.21673z m-107.238154-108.689024c-0.126163-8.982772-10.345328-16.136188-22.810187-15.95956-5.99272 0.088314-11.707883 1.879822-15.896479 4.996036-4.201212 3.103598-6.522603 7.279578-6.459522 11.594337 0.126163 8.982772 10.345328 16.136188 22.810186 15.959561 5.99272-0.088314 11.707883-1.879822 15.89648-4.996037 4.201212-3.103598 6.522603-7.279578 6.459522-11.594337z m-140.79739 17.498744c0.252325-8.705215-9.537888-16.047874-21.863967-16.413746-12.32608-0.378488-22.532629 6.383824-22.784954 15.101655-0.252325 8.705215 9.525271 16.047874 21.851351 16.413746 12.32608 0.378488 22.532629-6.383824 22.784954-15.101655z m56.016166 37.24318c-0.189244-8.995389-10.1687-16.073107-22.29292-15.820782-12.111603 0.252325-21.78827 7.74638-21.611642 16.729152 0.189244 8.995389 10.1687 16.073107 22.29292 15.820782 12.111603-0.252325 21.78827-7.74638 21.611642-16.729152z" fill="#28D1B3" /><path d="M838.350046 547.31831c19.593042 4.794176 23.80687 15.303516 12.616253 31.540634-12.780265 4.705863-23.756405 3.027901-32.928421-5.046502a11.455558 11.455558 0 0 1-3.911039-10.597653c2.018601-10.849978 10.093003-16.148804 24.223207-15.896479z" fill="#A9ECDB" /><path d="M842.513409 708.175542h8.45289l56.773141 34.694697c-44.825549 71.15567-109.849719 108.840419-195.047279 113.041632-9.588353-4.037201-10.635502-11.064454-3.154064-21.069144 65.099868-20.350017 109.420767-62.576617 132.975312-126.667185z" fill="#30A7FB" /><path d="M167.543847 700.60579c-0.756975 16.40113 5.803477 27.124945 16.527292 37.84876a6.938939 6.938939 0 0 1-2.270926 11.228466c-29.522033 12.111603-44.447061 5.677314-44.7877-19.302868-1.173312-101.851015-1.551799-203.626332-1.135463-305.313335 0.126163-31.035984 6.434289-50.086526 43.399912-35.073185a9.336028 9.336028 0 0 1 3.154064 15.139505c-9.209865 9.336028-14.508692 17.662755-14.004042 32.171446 3.532551 87.809124 3.242377 175.5804-0.883137 263.301211z" fill="#FCB982" /><path d="M433.046495 483.153361a17.158105 21.952281 82.6 1 0 43.538888-5.654715 17.158105 21.952281 82.6 1 0-43.538888 5.654715Z" fill="#8DCAFC" /><path d="M510.958267 529.024742c-3.280226 41.633637-80.491697-0.883138-20.186005-16.90578a16.148804 16.148804 0 0 1 20.186005 16.90578z" fill="#8DCAFC" /><path d="M724.570695 716.15991a16.022642 21.952281 87.6 1 0 43.86605-1.838532 16.022642 21.952281 87.6 1 0-43.86605 1.838532Z" fill="#30A7FB" /><path d="M557.135956 726.784419a16.274967 22.583094 89.2 1 0 45.161785-0.630619 16.274967 22.583094 89.2 1 0-45.161785 0.630619Z" fill="#A9ECDB" /><path d="M416.850845 742.333932a22.330769 15.770317 1.7 1 0 44.64188 1.32494 22.330769 15.770317 1.7 1 0-44.64188-1.32494Z" fill="#22B69F" /><path d="M473.618971 781.809546a16.274967 21.952281 88.8 1 0 43.894933-0.919468 16.274967 21.952281 88.8 1 0-43.894933 0.919468Z" fill="#A9ECDB" /><path d="M139.125889 793.052374m15.373453 0.751887l12.601192 0.616301q15.373454 0.751887 14.621566 16.125341l-0.147912 3.024286q-0.751887 15.373454-16.125341 14.621566l-12.601192-0.616301q-15.373454-0.751887-14.621566-16.125341l0.147912-3.024286q0.751887-15.373454 16.125341-14.621566Z" fill="#B6ADB6" /><path d="M138.625396 844.137391m13.625533-0.023781l69.893938-0.121988q13.625533-0.023781 13.649314 13.601752l0.007046 4.037195q0.023781 13.625533-13.601752 13.649314l-69.893938 0.121988q-13.625533 0.023781-13.649314-13.601752l-0.007046-4.037195q-0.023781-13.625533 13.601752-13.649314Z" fill="#B6ADB6" /></svg>