<?xml version="1.0" standalone="no"?><!DOCTYPE svg PUBLIC "-//W3C//DTD SVG 1.1//EN" "http://www.w3.org/Graphics/SVG/1.1/DTD/svg11.dtd"><svg class="icon" width="200px" height="172.25px" viewBox="0 0 1189 1024" version="1.1" xmlns="http://www.w3.org/2000/svg"><path d="M1042.082866 363.243702c-21.417574 15.72185-24.865348 39.249462-10.343323 70.610416l-130.463777 3.999418-3.447774-72.403259 94.744836-0.827465a12.205121 12.205121 0 0 0 10.343322-6.343905c50.199593-91.848705 103.984871-317.33314-80.953739-306.576085-0.179284-10.122665-3.627058-16.507943-10.343322-19.169624-3.447774-1.37911-7.79197 0.468897-10.343323 4.413151-27.306372 41.097469-72.265348 48.130928-110.880419 77.368053l-24.961886-55.853942c-1.558394-3.502939-0.137911-7.723014 3.309864-9.92959 31.029968-19.307536 89.228397-53.233634 125.636893-36.822229 4.509689 2.0135 8.826302 2.840966 12.963631 2.482398 222.174571-18.617981 198.591796 222.450393 134.739017 349.052663z" fill="#CBE5E6" /><path d="M921.962411 51.702822c0.551644 55.44021-59.439628 72.265348-101.364562 90.745418-4.302822 1.88938-9.005586 1.737678-12.549898-0.413733-9.653768-6.068083-15.528775-15.308118-17.652604-27.720105 38.615071-29.237125 83.574047-36.270585 110.880419-77.368053 2.551353-3.944254 6.895548-5.792261 10.343323-4.413151 6.716264 2.661682 10.164038 9.04696 10.343322 19.169624z" fill="#A8D3D8" /><path d="M659.672452 67.682383a30.202502 20.135002 5.8 1 0 60.095774 6.104306 30.202502 20.135002 5.8 1 0-60.095774-6.104306Z" fill="#FCE783" /><path d="M680.948807 151.498934a18.755892 29.788769 64.9 1 0 53.95156-25.272758 18.755892 29.788769 64.9 1 0-53.95156 25.272758Z" fill="#FCE783" /><path d="M763.98156 170.384386a18.066337 30.478324 31.5 1 0-31.849761 51.974086 18.066337 30.478324 31.5 1 0 31.849761-51.974086Z" fill="#FCE783" /><path d="M204.273728 224.643178c9.92959 23.072505 9.750306 45.869188-0.551644 68.40384l-78.747164 3.999419-64.956066-0.551644 13.791097-59.853361a9.598603 9.598603 0 0 1 8.826302-7.585103l121.637475-4.413151z" fill="#F1EFF2" /><path d="M204.273728 224.643178l48.682572-1.792843c-12.687809 24.355077-16.273494 48.723945-10.757056 73.092814-13.515275 3.213326-26.340995 2.247949-38.47716-2.896131 10.301949-22.534652 10.481234-45.331336 0.551644-68.40384z" fill="#FDE265" /><path d="M252.9563 222.850335c42.297294 7.350655 51.358045 30.561071 27.168461 69.64504l-17.238871 3.447774h-20.686646c-5.516439-24.368868-1.930754-48.737737 10.757056-73.092814z" fill="#F8C52D" /><path d="M203.722084 293.047018c12.136165 5.144079 24.961885 6.109456 38.47716 2.896131h20.686646c10.026127 0 12.329241 1.323945 6.895548 3.999418a164.348502 164.348502 0 0 0 0 64.956066l-13.239453 7.447193-3.861507-3.447774c-1.792843-1.654932-5.323363-2.427233-9.515857-2.068665l-114.190283 8.964213-7.447192-7.447192 3.447774-71.299971 78.747164-3.999419z" fill="#CBC5CB" /><path d="M280.124761 292.495375c39.442537 6.426651 49.606576 28.451033 30.478324 66.059354l-40.821647 6.343904a164.348502 164.348502 0 0 1 0-64.956066c5.433692-2.675473 3.130579-3.999418-6.895548-3.999418l17.238871-3.447774z" fill="#B6ADB6" /><path d="M60.018854 296.494793l64.956066 0.551644-3.447774 71.299971h-51.716613c-31.622985-18.397323-34.891475-42.338668-9.791679-71.851615z" fill="#FC9743" /><path d="M828.320863 299.390923c5.337155 94.234565 5.337155 188.469131 0 282.717487-13.970381-3.585685-26.520279-3.130579-37.649694 1.37911a1442.755604 1442.755604 0 0 0-230.725052-0.827466c-27.582194-8.826302-54.378295-6.53698-80.402095 6.895548a133.304743 133.304743 0 0 1-27.582194-51.716613c8.371196-34.119174 7.267908-67.990108-3.309863-101.640384 13.791097-2.620308 7.309281-92.676171 7.998836-110.466687a26.203084 26.203084 0 0 1 26.065173-25.099796l345.604889-1.241199z" fill="#F1EFF2" /><path d="M828.320863 299.390923c57.012395-13.060169 80.181438 8.964213 69.507129 66.059354l3.447774 72.403259 2.89613 99.433809-33.926098 66.059354c-5.875007-19.307536-19.85918-26.39616-41.924935-21.238289 5.337155-94.248356 5.337155-188.482922 0-282.717487zM310.603085 358.554729l8.688391 68.128019c0.468897 4.082165 3.227117 7.254117 6.619726 7.585103l30.064592 3.034041-99.985453-2.344486c12.329241-20.879721 12.508525-41.74565 0.551644-62.61158l13.239453-7.447193 40.821647-6.343904z" fill="#E1DDE1" /><path d="M256.541985 372.345826c11.956881 20.86593 11.777597 41.731859-0.551644 62.61158a505.16788 505.16788 0 0 1-123.568228-0.551644c-11.667268-19.031714-12.82572-38.573698-3.447775-58.612162l114.190283-8.964213c4.192493-0.358569 7.723014 0.413733 9.515857 2.068665l3.861507 3.447774z" fill="#F1EFF2" /><path d="M1042.082866 363.243702c53.647367-4.551062 41.23538 39.85627 40.821646 71.16206a126.257492 126.257492 0 0 1-51.164969-0.551644c-14.522025-31.360954-11.074251-54.888566 10.343323-70.610416z" fill="#A8D3D8" /><path d="M69.810533 368.346408h51.716613l7.447192 7.447192c-9.377946 20.038464-8.219494 39.580448 3.447775 58.612162-25.375618 5.240617-50.833983 5.047541-76.402677-0.551644-21.141752-29.237125-16.549316-51.082223 13.791097-65.50771z" fill="#30A7FB" /><path d="M56.019436 433.854118c25.568694 5.599185 51.027059 5.792261 76.402677 0.551644a505.16788 505.16788 0 0 0 123.568228 0.551644l99.985453 2.344486 92.676171-1.103287c10.577771 33.650276 11.681059 67.521211 3.309863 101.640384l-299.404714 0.551644h-82.746581l-50.199593-4.137329c-3.916672-0.330986-7.29549-3.764969-8.274658-8.412569a185.32476 185.32476 0 0 1-1.37911-73.92028c0.827466-5.006168 3.847716-8.840093 7.585103-9.653768l38.477161-8.412569zM1031.739543 433.854118a126.257492 126.257492 0 0 0 51.164969 0.551644l42.476579 3.447774c-7.033459 31.029968 4.688973 75.4373-14.342741 99.433809l-72.403259 1.103288-134.463195-1.103288-2.89613-99.433809 130.463777-3.999418z" fill="#FCB982" /><path d="M1125.381091 437.853536l49.78586 3.309863c4.040791 0.275822 7.17137 4.137329 7.17137 8.826302l0.137911 71.851615c0.013791 4.27524-2.620308 8.30224-6.757637 10.343323-11.667268 5.792261-24.037882 7.860925-37.098051 6.205994l-27.582194-1.103288c19.031714-23.996509 7.309281-68.403841 14.342741-99.433809z" fill="#FC9743" /><path d="M69.810533 538.390633h82.746581l-2.482397 89.917952a7.723014 7.723014 0 0 0 4.688973 7.309281l4.688973 2.206576-57.784696 7.723014c3.958045-30.809311-7.805761-48.503288-35.305209-53.095723l3.447775-54.0611zM1038.635091 538.390633l72.403259-1.103288 27.582194 1.103288-9.515857 3.447774c-4.192493 1.544603-7.074833 4.371778-7.17137 7.033459l-1.103288 51.027059a197.033402 197.033402 0 0 1-81.643294 0l-0.551644-61.508292z" fill="#E1DDE1" /><path d="M559.946117 582.660054l-0.551644 45.372709c-27.485656 8.17812-53.730114 5.695723-78.747163-7.447193l-1.103288-31.029968c26.0238-13.432528 52.819901-15.72185 80.402095-6.895548z" fill="#CBC5CB" /><path d="M790.671169 583.48752l0.275822 40.545825c2.758219 31.526448 0.924003 61.273844-5.516439 89.228397l-222.036661 0.413733-3.999418-85.642712 0.551644-45.372709a1442.755604 1442.755604 0 0 1 230.725052 0.827466z" fill="#FFFFFF" /><path d="M828.320863 582.10841c22.065755-5.15787 36.049927 1.930754 41.924935 21.238289l-0.551644 16.687228c-24.906721 19.210998-51.16497 20.548734-78.747163 3.999418l-0.275822-40.545825c11.129415-4.509689 23.679313-4.964795 37.649694-1.37911z" fill="#CBC5CB" /><path d="M66.362758 592.451733c27.499447 4.592435 39.263253 22.286413 35.305209 53.095723-19.210998 10.839802-37.180797 26.244457-53.923189 46.200174-16.452779 19.666104-22.975967 15.487402-19.583358-12.549898 1.848007-15.170207 0.965377-30.119756-2.620309-44.821065-5.323363-32.091883 8.274658-46.062264 40.821647-41.924934z" fill="#3351C5" /><path d="M283.020891 703.332152c-13.791097-2.951295-23.858598-10.343323-30.202502-22.203666-2.206576-4.137329-4.964795-7.585103-8.274658-10.343323l-36.822229-30.064591c-2.38586-44.407332 17.611231-59.122433 59.991271-44.13151a13.515275 13.515275 0 0 1 8.41257 8.964213c9.295199 31.719523 11.584521 64.307885 6.895548 97.778877z" fill="#2844AE" /><path d="M1039.186735 599.898925c27.223625 5.695723 54.43346 5.695723 81.643294 0l0.413733 389.046844a22.962176 22.962176 0 0 1-15.721851 21.789933c-23.169043 7.902299-43.579866 5.516439-61.23247-7.17137a13.446319 13.446319 0 0 1-5.378528-11.032878l0.275822-392.632529z" fill="#F1EFF2" /><path d="M480.64731 620.58557c25.01705 13.142915 51.261507 15.625313 78.747163 7.447193l3.999418 85.642712a216.906372 216.906372 0 0 0 0 79.298807l-3.034041 195.557754c-0.068955 10.067501-5.737096 18.921385-14.342741 22.341577-20.769392 8.357405-39.85627 6.109456-57.233052-6.757637-3.116788-2.247949-5.006168-6.41286-5.102706-11.170789l-4.413151-196.247309c6.992086-26.851266 7.088624-54.529997 0.275822-83.022403 5.061333-30.809311 5.433692-61.839279 1.103288-93.089905zM869.694154 620.033927c5.792261 21.3762-8.964213 85.504801 15.032296 91.572883-17.004423 22.520861-22.065755 47.89648-15.170207 76.126855 0.910212 3.668432 4.344196 6.495607 8.688391 7.17137l35.58103 5.378528c-16.273494-3.406401-29.237125-1.475647-38.890893 5.792261-3.116788 2.427233-4.964795 6.6611-4.964795 11.44661l-0.137911 173.629911c0 8.564271-5.792261 16.025255-14.066919 18.066337-30.340413 7.626477-51.206343 3.034041-62.61158-13.791097-2.206576-3.199534-3.199534-7.723014-2.758219-12.687809 5.337155-64.363049 2.675473-126.326448-7.998836-185.903987 11.860343-26.39616 12.880885-54.254175 3.034041-83.574047 6.440442-27.954553 8.274658-57.70195 5.516439-89.228397 27.582194 16.549316 53.840442 15.21158 78.747163-3.999418z" fill="#E1DDE1" /><path d="M25.541111 634.376667c3.585685 14.701309 4.468315 29.650858 2.620309 44.821065-3.39261 28.0373 3.130579 32.216002 19.583358 12.549898 16.742392-19.955717 34.712191-35.360373 53.923189-46.200174l57.784696-7.723014-1.517021 10.0675c-0.441315 2.868548 2.523771 7.033459 7.447192 10.481234 66.88682 47.165551 66.748909 132.808263 55.578121 207.004365l-54.612744-2.896131-71.16206 2.896131c-4.606226 0.137911-8.260867 3.613267-8.274658 7.860925l0.965377 69.920861c0 3.958045 3.709805 7.17137 8.274658 7.171371l77.092232 0.689555 47.717195-2.896131c3.034041 25.554903-4.826884 47.206925-23.582776 64.956067l-127.843468 0.413733c-27.66494 0.179284-42.338668-13.749724-43.9936-41.787024-6.426651-110.246029-6.426651-222.684842 0-337.330231z m164.072681 128.670935a17.514693 17.514693 0 0 0-0.648182-24.741228l-24.603317-23.362118a17.514693 17.514693 0 0 0-24.76881 0.648181l-23.541402 24.823975a17.514693 17.514693 0 0 0 0.648181 24.755019l24.617108 23.348327a17.514693 17.514693 0 0 0 24.755019-0.648182l23.541403-24.823974z" fill="#5169CC" /><path d="M159.452663 637.824442l48.268839 2.89613 36.822229 30.064591c3.309863 2.758219 6.068083 6.205994 8.274658 10.343323 6.343905 11.860343 16.411405 19.252371 30.202502 22.203666 0.551644 77.685249 0.786093 155.370498 0.689555 233.069538-0.137911 59.025895-23.031132 92.814082-86.332267 76.678499 18.755892-17.749142 26.616817-39.401164 23.582776-64.956067 5.985336-27.582194 5.985336-55.164388 0-82.746581 11.170789-74.196101 11.308699-159.838813-55.578121-207.004365-4.923422-3.447774-7.888507-7.612686-7.447192-10.481234l1.517021-10.0675z" fill="#3351C5" /><path d="M785.430552 713.261742c9.846843 29.319872 8.826302 57.177888-3.034041 83.574047l-219.00262-3.861507a216.906372 216.906372 0 0 1 0-79.298807l222.036661-0.413733zM479.544022 713.675475c6.812802 28.492406 6.716264 56.171138-0.275822 83.022403-95.434391 11.170789-79.160896-103.84696 0.275822-83.022403z" fill="#FCB982" /><path d="M884.72645 711.60681c56.915857 12.039628 66.610998 41.593948 29.099214 88.676753l-35.58103-5.378528c-4.344196-0.675764-7.778179-3.502939-8.688391-7.17137-6.895548-28.230375-1.834216-53.605994 15.170207-76.126855z" fill="#FC9743" /><path d="M166.348211 862.48141c8.095374 28.864766 10.398487 58.377713 6.895549 88.538843l-77.092232-0.689555c-4.564853 0-8.274658-3.213326-8.274658-7.171371l-0.965377-69.920861c0.013791-4.247658 3.668432-7.723014 8.274658-7.860925l71.16206-2.896131z" fill="#8DCAFC" /><path d="M166.348211 862.48141l54.612744 2.896131c5.985336 27.582194 5.985336 55.164388 0 82.746581l-47.717195 2.896131a227.842712 227.842712 0 0 0-6.895549-88.538843z" fill="#63B9FC" /><path d="M151.651509 702.896683m12.704709 12.056319l24.609123 23.353185q12.704709 12.056319 0.64839 24.761029l-23.543048 24.809196q-12.056319 12.704709-24.761029 0.64839l-24.609122-23.353185q-12.704709-12.056319-0.648391-24.761028l23.543049-24.809197q12.056319-12.704709 24.761028-0.64839Z" fill="#B6ADB6" /></svg>