<?xml version="1.0" standalone="no"?><!DOCTYPE svg PUBLIC "-//W3C//DTD SVG 1.1//EN" "http://www.w3.org/Graphics/SVG/1.1/DTD/svg11.dtd"><svg class="icon" width="200px" height="200.00px" viewBox="0 0 1024 1024" version="1.1" xmlns="http://www.w3.org/2000/svg"><path d="M843.208 502.624H728.912l-16.4-144.6c-1.024-8.96-4.744-17.32-10.264-24.272l-27.68 104.76s-22.616 146.184-59.032 146.184c-36.4 0-60.208-155.784-60.208-155.784V314.304H468.632v114.608s-23.8 155.784-60.208 155.784c-36.416 0-59.04-146.184-59.04-146.184L321.72 333.76c-5.52 6.96-9.24 15.304-10.256 24.264l-16.408 144.6H180.76c45 29.36 100.424 122.168 94.632 173.416l-32.48 286.232c-2.72 24.048 14.96 43.72 39.304 43.72h459.552c24.344 0 42.024-19.68 39.296-43.72L748.56 675.744c-5.56-51.304 49.728-143.816 94.648-173.12z" fill="#6CF5C5" /><path d="M761.84 78.504c-25.88 0-50.8 4-74.216 11.4A244.672 244.672 0 0 0 511.984 16a244.68 244.68 0 0 0-175.64 73.904 245.888 245.888 0 0 0-74.208-11.4c-135.168 0-244.736 108.928-244.736 243.304S126.96 565.12 262.136 565.12a244.696 244.696 0 0 0 175.64-73.896 245.92 245.92 0 0 0 74.208 11.4c25.872 0 50.8-4.008 74.216-11.4a244.68 244.68 0 0 0 175.632 73.896c135.168 0 244.736-108.936 244.736-243.312S897 78.504 761.84 78.504z" fill="#46C79C" /><path d="M332 737.672a30.408 30.232 0 1 0 60.816 0 30.408 30.232 0 1 0-60.816 0Z" fill="#3F4963" /><path d="M394.936 833.728h-65.064a16.048 16.048 0 0 1-16.096-16c0-8.848 7.2-16.008 16.096-16.008h65.064c8.896 0 16.096 7.16 16.096 16s-7.2 16.008-16.096 16.008z" fill="#FF6376" /><path d="M631.16 737.672a30.408 30.232 0 1 0 60.816 0 30.408 30.232 0 1 0-60.816 0Z" fill="#3F4963" /><path d="M694.104 833.728H629.04a16.048 16.048 0 0 1-16.096-16c0-8.848 7.2-16.008 16.096-16.008h65.064c8.896 0 16.104 7.16 16.104 16s-7.208 16.008-16.104 16.008z" fill="#FF6376" /><path d="M481.76 808.008c-25.544 0-46.328-20.664-46.328-46.056 0-8.84 7.2-16 16.096-16s16.096 7.16 16.096 16c0 7.744 6.344 14.048 14.136 14.048 7.8 0 14.136-6.304 14.136-14.048 0-8.84 7.2-16 16.096-16s16.104 7.16 16.104 16c0 25.392-20.792 46.056-46.336 46.056z" fill="#3F4963" /><path d="M542.224 808.008c-25.544 0-46.328-20.664-46.328-46.056 0-8.84 7.2-16 16.096-16s16.096 7.16 16.096 16c0 7.744 6.344 14.048 14.136 14.048 7.792 0 14.136-6.304 14.136-14.048 0-8.84 7.2-16 16.096-16 8.888 0 16.096 7.16 16.096 16 0 25.392-20.784 46.056-46.328 46.056z" fill="#3F4963" /><path d="M227.232 289.504a30.408 30.232 0 1 0 60.816 0 30.408 30.232 0 1 0-60.816 0Z" fill="#28785C" /><path d="M346.576 164.232a30.408 30.232 0 1 0 60.816 0 30.408 30.232 0 1 0-60.816 0Z" fill="#28785C" /><path d="M92.672 254.936a30.408 30.232 0 1 0 60.816 0 30.408 30.232 0 1 0-60.816 0Z" fill="#28785C" /><path d="M517.192 101.232a30.408 30.232 0 1 0 60.816 0 30.408 30.232 0 1 0-60.816 0Z" fill="#28785C" /><path d="M476.368 254.936a30.408 30.232 0 1 0 60.816 0 30.408 30.232 0 1 0-60.816 0Z" fill="#28785C" /><path d="M437.472 391.744a30.408 30.232 0 1 0 60.816 0 30.408 30.232 0 1 0-60.816 0Z" fill="#28785C" /><path d="M598.648 319.744a30.408 30.232 0 1 0 60.816 0 30.408 30.232 0 1 0-60.816 0Z" fill="#28785C" /><path d="M770.464 482.456a30.408 30.232 0 1 0 60.816 0 30.408 30.232 0 1 0-60.816 0Z" fill="#28785C" /><path d="M316.16 427.488a30.408 30.232 0 1 0 60.816 0 30.408 30.232 0 1 0-60.816 0Z" fill="#28785C" /><path d="M887.616 310.888a30.408 30.232 0 1 0 60.816 0 30.408 30.232 0 1 0-60.816 0Z" fill="#28785C" /><path d="M755.608 289.504a30.408 30.232 0 1 0 60.816 0 30.408 30.232 0 1 0-60.816 0Z" fill="#28785C" /><path d="M826.808 391.744a30.408 30.232 0 1 0 60.816 0 30.408 30.232 0 1 0-60.816 0Z" fill="#28785C" /><path d="M196.816 462.904a30.408 30.232 0 1 0 60.816 0 30.408 30.232 0 1 0-60.816 0Z" fill="#28785C" /><path d="M346.576 301.056a30.408 30.232 0 1 0 60.816 0 30.408 30.232 0 1 0-60.816 0Z" fill="#28785C" /><path d="M196.816 176.392a30.408 30.232 0 1 0 60.816 0 30.408 30.232 0 1 0-60.816 0Z" fill="#28785C" /><path d="M572.456 194.464a30.408 30.232 0 1 0 60.816 0 30.408 30.232 0 1 0-60.816 0Z" fill="#28785C" /><path d="M755.608 164.232a30.408 30.232 0 1 0 60.816 0 30.408 30.232 0 1 0-60.816 0Z" fill="#28785C" /><path d="M663.704 230.632a30.408 30.232 0 1 0 60.816 0 30.408 30.232 0 1 0-60.816 0Z" fill="#28785C" /><path d="M839.32 224.704a30.408 30.232 0 1 0 60.816 0 30.408 30.232 0 1 0-60.816 0Z" fill="#28785C" /><path d="M675.464 421.976a30.408 30.232 0 1 0 60.816 0 30.408 30.232 0 1 0-60.816 0Z" fill="#28785C" /><path d="M108.064 374.184a30.408 30.232 0 1 0 60.816 0 30.408 30.232 0 1 0-60.816 0Z" fill="#28785C" /><path d="M336.144 945.392a16.08 16.08 0 0 0-18 13.864l-5.96 46.736h32.456l5.44-42.712a16.024 16.024 0 0 0-13.936-17.888z m-2.024-281.8c1.848 0 3.728-0.32 5.568-1a15.976 15.976 0 0 0 9.528-20.552l-17.952-48.368a16.12 16.12 0 0 0-20.68-9.472 15.976 15.976 0 0 0-9.52 20.56l17.952 48.368c2.4 6.456 8.552 10.464 15.104 10.464z m84.272 239.12a16.08 16.08 0 0 0-18 13.864l-11.4 89.424h32.456l10.888-85.4a16.016 16.016 0 0 0-13.944-17.888z m232.184 0a16.024 16.024 0 0 0-13.952 17.896l10.888 85.392h32.456l-11.4-89.416a16.056 16.056 0 0 0-18-13.872z m51.136-329.488a16.16 16.16 0 0 0-22.56 3.08l-39.384 51.648a15.944 15.944 0 0 0 3.104 22.424c2.904 2.192 6.32 3.248 9.712 3.248 4.864 0 9.672-2.184 12.84-6.336l39.384-51.648a15.936 15.936 0 0 0-3.096-22.416z m-220.64 7.424a16.048 16.048 0 0 0-15.856 16.24l0.584 37.416a16.056 16.056 0 0 0 16.088 15.76h0.256a16.048 16.048 0 0 0 15.848-16.256l-0.584-37.408a16.08 16.08 0 0 0-16.336-15.76z m50.952-54.68a16.048 16.048 0 0 0-16.096 16v57.24c0 8.84 7.2 16 16.096 16a16.048 16.048 0 0 0 16.096-16v-57.232c0-8.84-7.2-16-16.096-16z" fill="#46C79C" /><path d="M572.448 745.944a16.048 16.048 0 0 0-16.096 16c0 7.76-6.336 14.056-14.136 14.056a14.104 14.104 0 0 1-14.128-14.048c0-8.84-7.2-16-16.096-16a16.048 16.048 0 0 0-16.104 16c0 7.744-6.336 14.048-14.128 14.048a14.112 14.112 0 0 1-14.136-14.048c0-8.84-7.208-16-16.104-16a16.048 16.048 0 0 0-16.096 16c0 25.4 20.784 46.056 46.328 46.056A46.248 46.248 0 0 0 512 796.776a46.24 46.24 0 0 0 30.224 11.232c25.544 0 46.32-20.656 46.32-46.056 0.016-8.84-7.2-16-16.08-16zM362.408 707.44c-16.8 0-30.416 13.536-30.416 30.232 0 16.696 13.616 30.24 30.416 30.24 16.792 0 30.4-13.544 30.4-30.24 0-16.704-13.608-30.24-30.4-30.24z m660.256-385.624c0-142.984-117-259.304-260.824-259.304-23.656 0-47.04 3.144-69.64 9.36C643.44 25.44 579.84 0 511.984 0c-67.856 0-131.464 25.44-180.208 71.864a262.536 262.536 0 0 0-69.64-9.36C118.312 62.496 1.304 178.816 1.304 321.8c0 131.168 98.464 239.88 225.768 256.96 22.264 36.128 34.864 73.032 32.32 95.472l-32.464 286.24c-1.84 16.216 2.952 31.608 13.488 43.336 10.544 11.728 25.392 18.184 41.808 18.184h459.544c16.424 0 31.272-6.456 41.808-18.184 10.536-11.72 15.328-27.12 13.488-43.336L764.56 674.04c-2.432-22.464 10.168-59.288 32.336-95.264 127.304-17.08 225.768-125.8 225.768-256.96z m-257.6 642.256c0.8 7.04-1.152 13.584-5.504 18.424-4.352 4.84-10.672 7.512-17.8 7.512H282.216c-7.12 0-13.448-2.672-17.792-7.512-4.352-4.84-6.304-11.384-5.504-18.424l32.472-286.24c2.88-25.536-6.648-60.408-25.928-96.736a261.304 261.304 0 0 0 99.68-20.856c9.144 20.424 22.688 40.472 43.28 40.472 23.688 0 41.888-26.696 58.288-86a263.472 263.472 0 0 0 90.544 0c16.4 59.312 34.592 86 58.288 86 20.592 0 34.136-20.048 43.28-40.48a261.28 261.28 0 0 0 99.688 20.864c-19.184 36.152-28.72 70.904-25.952 96.456l32.504 286.52zM393.92 545.72a260.872 260.872 0 0 0 38.136-27.184c-11.808 38.312-21.112 47.76-23.776 49.792-1.896-1.32-7.184-6.208-14.36-22.608z m197.976-27.184a260.664 260.664 0 0 0 38.128 27.184c-7.168 16.4-12.464 21.288-14.352 22.608-2.664-2.032-11.968-11.48-23.776-49.792z m169.928 30.576c-62.36 0-120.632-24.52-164.08-69.04a16.152 16.152 0 0 0-16.432-4.104 229.888 229.888 0 0 1-69.336 10.64c-23.64 0-46.968-3.576-69.336-10.64a16.16 16.16 0 0 0-16.424 4.104c-43.456 44.52-101.736 69.04-164.088 69.04-126.08 0-228.64-101.968-228.64-227.304s102.56-227.296 228.64-227.296c23.64 0 46.968 3.576 69.328 10.64a16.16 16.16 0 0 0 16.432-4.104C391.352 56.528 449.624 32 511.984 32s120.64 24.52 164.088 69.04a16.16 16.16 0 0 0 16.432 4.112 229.648 229.648 0 0 1 69.328-10.64c126.072 0 228.64 101.96 228.64 227.296 0 125.328-102.568 227.296-228.64 227.296zM661.576 707.44c-16.8 0-30.408 13.536-30.408 30.232 0 16.696 13.608 30.24 30.4 30.24 16.8 0 30.416-13.544 30.416-30.24 0-16.704-13.616-30.24-30.408-30.24z" fill="#000000" /></svg>