<?xml version="1.0" standalone="no"?><!DOCTYPE svg PUBLIC "-//W3C//DTD SVG 1.1//EN" "http://www.w3.org/Graphics/SVG/1.1/DTD/svg11.dtd"><svg class="icon" width="200px" height="200.00px" viewBox="0 0 1024 1024" version="1.1" xmlns="http://www.w3.org/2000/svg"><path d="M886.417765 49.656981L82.836669 43.491205l47.220822-37.596197A25.866183 25.866183 0 0 1 146.299048 0.030002H936.571091a8.271163 8.271163 0 0 1 5.413852 15.038478z" fill="#E57FC0" /><path d="M934.240127 937.378364l-60.153914 75.192392L870.627363 52.664676l60.98103-50.754864a8.271163 8.271163 0 0 1 13.459438 6.466545l-4.73712 909.827947a33.460615 33.460615 0 0 1-6.090584 19.17406z" fill="#D672AD" /><path d="M64.339341 36.573504m37.596196 0l745.306992 0q37.596196 0 37.596196 37.596197l0 912.234103q0 37.596196-37.596196 37.596196l-745.306992 0q-37.596196 0-37.596196-37.596196l0-912.234103q0-37.596196 37.596196-37.596197Z" fill="#EA8EBC" /><path d="M415.863774 488.329397h-27.219646l27.219646-34.738885V406.06892h-22.557717v-20.903485h22.557717v-12.857899h26.918877v12.857899h23.384834V406.06892h-23.384834v18.046174h29.024263l-29.024263 37.596196v41.280624a21.354639 21.354639 0 0 1-1.87981 9.023087 24.21195 24.21195 0 0 1-5.03789 7.519239 23.535219 23.535219 0 0 1-7.519239 4.962698 22.557718 22.557718 0 0 1-8.872703 1.804617h-21.730601l7.970394-18.121366h3.609234a5.940199 5.940199 0 0 0 4.586736-2.030195 6.466546 6.466546 0 0 0 1.955002-4.73712z m51.356404 17.519828l16.843096-6.767316q8.045586-3.15808 15.038479-6.767315a172.942502 172.942502 0 0 1-15.489633-13.008284 96.095877 96.095877 0 0 1-12.933092-15.564825h26.542915a140.309004 140.309004 0 0 0 10.978089 9.549434c3.609235 2.857311 7.519239 5.489045 11.128474 7.895201a141.060928 141.060928 0 0 0 14.211362-10.226165 127.225528 127.225528 0 0 0 13.609823-12.933092h-79.703935V439.905497h104.818194v18.121366a99.404343 99.404343 0 0 1-14.286554 18.948483 133.842458 133.842458 0 0 1-17.895789 15.038479c5.03789 2.406157 10.150973 4.737121 15.038478 6.842507s10.902897 4.436351 16.767904 6.692123V526.376748c-8.722318-2.782119-17.519827-5.940199-26.39253-9.323857a232.494877 232.494877 0 0 1-26.016568-11.95559 238.88623 238.88623 0 0 1-26.016568 11.95559c-8.947895 3.383658-17.820597 6.541738-26.618107 9.323857z m0.375962-70.530464l6.541739-13.685016v-48.047938H560.60913v39.400813a6.466546 6.466546 0 0 0 6.692123 6.692123h4.661928l-7.519239 15.640018h-5.413853a23.084064 23.084064 0 0 1-9.098279-1.804618 23.535219 23.535219 0 0 1-7.519239-4.962698 22.557718 22.557718 0 0 1-6.692123-16.241556V391.030442h-36.543503v30.076957L492.935977 435.318761zM407.442227 610.216265V592.546053l-19.7756 1.052694v-18.121367l64.214303-3.15808v18.121366l-19.098867 0.827116v18.948483h19.324445v18.121367H432.782063v95.193568h-25.339836V628.337632H387.666627v-18.121367z m-19.399638 113.314935l3.609235-88.050291h15.038479L402.705106 723.5312z m64.815843 0h-15.038479l-3.609235-88.050291h15.038479zM544.292381 646.684575h28.798686v54.514485a20.7531 20.7531 0 0 1-1.87981 8.947895 24.061566 24.061566 0 0 1-5.03789 7.519239 24.738297 24.738297 0 0 1-7.51924 4.887505 23.911181 23.911181 0 0 1-8.872702 1.729425H530.532173l5.263467-14.286554h2.255772a6.090584 6.090584 0 0 0 4.586736-1.87981 6.541738 6.541738 0 0 0 1.955002-4.887506v-42.032547H485.416737v62.484878h-29.174648V646.684575z m25.866182-49.702171H459.174592v-14.737709h37.596197L492.935977 572.093722h33.836576l4.887506 10.150973h38.498504zM463.610944 605.629529V601.56914h102.111268v17.29425a21.880986 21.880986 0 0 1-1.804617 8.947895 22.557718 22.557718 0 0 1-4.887506 7.519239 22.557718 22.557718 0 0 1-7.519239 4.887506 22.557718 22.557718 0 0 1-8.872702 1.804617H463.610944v-36.393118z m46.092936 103.314347h-21.05387v-39.325621h52.033136v18.271751a20.828293 20.828293 0 0 1-21.05387 21.05387zM537.073911 616.607619h-45.115436v10.752512H530.532173a6.165776 6.165776 0 0 0 4.586736-1.87981 6.541738 6.541738 0 0 0 1.879809-4.887506z m-27.370031 67.673153v9.850203a8.571933 8.571933 0 0 0 3.082888-0.601539 18.346944 18.346944 0 0 0 3.233273-1.503848 9.624626 9.624626 0 0 0 2.556541-1.955002 3.684427 3.684427 0 0 0 1.052694-2.406157V684.280772zM434.135526 770.601638l-2.932503 5.940199h47.596784v14.286555h-16.617519l9.248664 15.038478h-27.144453l-9.323857-15.038478h-10.902897l-6.992892 14.361746h-29.024264l17.068673-34.5885z m-46.092937 49.927748h31.580805v-7.970393h26.768492v7.970393H477.897498v17.294251h-31.505612v84.365864h-26.768492v-84.365864h-31.580805z m0 101.660115l6.767316-77.222587h20.828292l-6.767315 77.222587z m89.478947 0h-20.602715l-6.767316-77.222587h20.828293z m94.967992-131.361109h-16.617519l9.248664 15.038478H538.051412l-9.323857-15.038478H517.749466l-6.992892 14.361746h-29.024264l17.068673-34.5885h29.024264l-2.932504 5.940199h47.596785z m-26.542915 29.24984h26.918877v82.711632a19.775599 19.775599 0 0 1-1.428656 7.519239 19.399637 19.399637 0 0 1-3.985197 6.165776 18.87329 18.87329 0 0 1-6.015391 4.210774 16.391942 16.391942 0 0 1-7.519239 1.57904h-71.132003v-102.186461h63.161609z m0 18.121367h-36.242733v9.925395h36.242733z m0 28.046762h-36.242733v10.075781h36.242733z m0 28.197147h-36.242733v9.925396h33.31023q2.932503 0 2.932503-3.383658z" fill="#E1F9FF" /><path d="M148.329243 150.414786a32.859075 32.859075 0 0 0 32.859075 32.859076h47.4464l-69.628156-56.920641a32.558306 32.558306 0 0 0-10.677319 24.061565z" fill="#C6589A" /><path d="M767.989748 117.85648h-586.50066a32.633498 32.633498 0 0 0-22.181756 8.79751l69.628155 56.920641h539.054261a32.859075 32.859075 0 1 0 0-65.718151z" fill="#AF357E" /><path d="M64.339341 261.097988h820.499384v26.467722H64.339341z" fill="#CC609B" /><path d="M764.230128 570.43949m-62.184108 0a62.184108 62.184108 0 1 0 124.368216 0 62.184108 62.184108 0 1 0-124.368216 0Z" fill="#FCE8FA" /><path d="M764.230128 570.43949m-51.807558 0a51.807558 51.807558 0 1 0 103.615116 0 51.807558 51.807558 0 1 0-103.615116 0Z" fill="#CCC2CA" /><path d="M753.92877 539.385032m10.37655 0l0 0q10.37655 0 10.376551 10.37655l0 41.431008q0 10.37655-10.376551 10.37655l0 0q-10.37655 0-10.37655-10.37655l0-41.431008q0-10.37655 10.37655-10.37655Z" fill="#393A3A" /></svg>