<?xml version="1.0" standalone="no"?><!DOCTYPE svg PUBLIC "-//W3C//DTD SVG 1.1//EN" "http://www.w3.org/Graphics/SVG/1.1/DTD/svg11.dtd"><svg class="icon" width="200px" height="200.00px" viewBox="0 0 1024 1024" version="1.1" xmlns="http://www.w3.org/2000/svg"><path d="M262.904 594a37.096 37.096 0 0 1-36.832-41.848c16.224-125.648 77.64-241.312 172.92-325.704a525.024 525.024 0 0 1 348.4-132.016c26.648 0 53.432 2.016 79.6 5.984a37.096 37.096 0 0 1 31.104 42.24l-0.528 3.472c-0.6 3.936-1.824 7.76-3.632 11.304-44.048 86.28-66.376 179.52-66.376 277.12 0 7.184 0.12 14.48 0.376 21.672a37.096 37.096 0 0 1-74.152 2.576 695.848 695.848 0 0 1-0.416-24.24c0-92.576 17.92-181.664 53.36-265.528a450.88 450.88 0 0 0-318.544 112.96C366.328 354.48 313.576 453.8 299.648 561.648a37.096 37.096 0 0 1-36.744 32.344z" fill="#46C79C" /><path d="M258.808 774m-234.104 0a234.104 234.104 0 1 0 468.208 0 234.104 234.104 0 1 0-468.208 0Z" fill="#FF6376" /><path d="M111.088 735.016m-30.032 0a30.032 30.032 0 1 0 60.064 0 30.032 30.032 0 1 0-60.064 0Z" fill="#3F4963" /><path d="M143.208 830.456H78.952a15.896 15.896 0 1 1 0-31.792h64.256a15.896 15.896 0 1 1 0 31.792z" fill="#FF9596" /><path d="M406.536 735.016m-30.032 0a30.032 30.032 0 1 0 60.064 0 30.032 30.032 0 1 0-60.064 0Z" fill="#3F4963" /><path d="M438.664 830.456h-64.256a15.896 15.896 0 1 1 0-31.792h64.256a15.896 15.896 0 1 1 0 31.792z" fill="#FF9596" /><path d="M228.96 804.912a45.808 45.808 0 0 1-45.76-45.76 15.896 15.896 0 1 1 31.792 0c0 7.704 6.264 13.96 13.96 13.96 7.696 0 13.96-6.256 13.96-13.952a15.896 15.896 0 1 1 31.792 0 45.808 45.808 0 0 1-45.752 45.752z" fill="#3F4963" /><path d="M288.664 804.912a45.808 45.808 0 0 1-45.752-45.76 15.896 15.896 0 1 1 31.8 0c0 7.704 6.256 13.96 13.952 13.96s13.96-6.256 13.96-13.952a15.896 15.896 0 1 1 31.792 0 45.808 45.808 0 0 1-45.752 45.752z" fill="#3F4963" /><path d="M761.192 674.416m-234.104 0a234.104 234.104 0 1 0 468.208 0 234.104 234.104 0 1 0-468.208 0Z" fill="#FF6376" /><path d="M731.328 705.336a45.808 45.808 0 0 1-45.752-45.752 15.896 15.896 0 1 1 31.792 0c0 7.696 6.264 13.96 13.96 13.96 7.704 0 13.96-6.264 13.96-13.96a15.896 15.896 0 1 1 31.792 0 45.8 45.8 0 0 1-45.752 45.752z" fill="#3F4963" /><path d="M791.04 705.336a45.8 45.8 0 0 1-45.752-45.752 15.896 15.896 0 1 1 31.8 0c0 7.696 6.256 13.96 13.952 13.96s13.96-6.264 13.96-13.96a15.896 15.896 0 1 1 31.792 0 45.8 45.8 0 0 1-45.752 45.752z" fill="#3F4963" /><path d="M941.04 730.88h-64.24a15.896 15.896 0 1 1 0-31.792h64.24a15.896 15.896 0 1 1 0 31.8z" fill="#FF9596" /><path d="M938.944 658.12a15.896 15.896 0 0 1-15.896-15.896c0-7.792-6.336-14.128-14.128-14.128s-14.12 6.336-14.12 14.128a15.896 15.896 0 1 1-31.8 0 45.976 45.976 0 0 1 45.92-45.92 45.976 45.976 0 0 1 45.92 45.92c0 8.776-7.112 15.896-15.896 15.896z" fill="#3F4963" /><path d="M645.568 730.88h-64.24a15.896 15.896 0 1 1 0-31.792h64.24a15.896 15.896 0 1 1 0 31.8z" fill="#FF9596" /><path d="M643.472 658.12a15.896 15.896 0 0 1-15.896-15.896c0-7.792-6.336-14.128-14.128-14.128-7.784 0-14.12 6.336-14.12 14.128a15.896 15.896 0 1 1-31.8 0 45.976 45.976 0 0 1 45.92-45.92 45.976 45.976 0 0 1 45.92 45.92c0 8.776-7.112 15.896-15.896 15.896z" fill="#3F4963" /><path d="M829.68 290.64c34.528 34.52 87.352 41.064 112.456 42.136 10.864 0.464 14.584-3.36 14.12-14.12-1.064-25.112-7.608-77.936-42.128-112.456-34.528-34.52-87.352-41.064-112.448-42.128-10.776-0.464-14.6 3.264-14.136 14.12 1.072 25.104 7.624 77.928 42.144 112.448z" fill="#6CF5C5" /><path d="M913.92 142.512c34.52-34.528 41.064-87.344 42.136-112.456 0.464-10.856-3.36-14.584-14.128-14.12-25.104 1.072-77.928 7.616-112.448 42.136-34.52 34.52-41.072 87.344-42.136 112.44-0.464 10.776 3.264 14.6 14.12 14.136 25.104-1.072 77.928-7.624 112.448-42.136z" fill="#6CF5C5" /><path d="M613.448 596.296a45.976 45.976 0 0 0-45.92 45.92 15.896 15.896 0 1 0 31.8 0c0-7.784 6.336-14.12 14.128-14.12 7.784 0 14.12 6.336 14.12 14.128a15.896 15.896 0 1 0 31.8 0 45.976 45.976 0 0 0-45.92-45.92zM111.088 704.992a30.032 30.032 0 1 0 0.008 60.08 30.032 30.032 0 0 0 0-60.08zM803.52 428.024a597.96 597.96 0 0 1 14.736-126.336l0.192 0.2c37.744 37.744 93.28 45.504 123.016 46.776 0.648 0.024 1.536 0.064 2.6 0.064 5 0 13.912-0.84 20.608-7.544 8.12-8.12 7.632-19.472 7.472-23.2-1.264-29.736-9.024-85.272-46.768-123.024a134.92 134.92 0 0 0-26.832-20.656 135.752 135.752 0 0 0 26.624-20.552c37.744-37.744 45.504-93.272 46.776-123.016 0.16-3.648 0.632-14.752-7.12-22.848C957.248 0 946.976 0 943.608 0c-0.76 0-1.552 0.016-2.352 0.048-29.744 1.272-85.272 9.024-123.024 46.776-10.224 10.216-18.232 21.744-24.512 33.696a540.896 540.896 0 0 0-405.264 134.024c-92.328 81.76-154.12 192.744-174.848 313.552C97.264 549.416 8.8 651.576 8.8 774 8.8 911.84 120.96 1024 258.8 1024c137.856 0 250-112.144 250-250 0-116.472-80.056-214.584-188.024-242.232 18.912-91.48 67.496-175.488 137.936-237.872a435 435 0 0 1 284.624-109.36c-30.232 78.848-45.632 162.192-45.856 248.12-107.096 28.24-186.312 125.92-186.312 241.768 0 137.856 112.16 250 250.008 250s250-112.152 250-250c0.008-123.424-89.904-226.24-207.672-246.4zM902.88 217.44c30.008 30 36.16 77.664 37.368 99.32-21.656-1.208-69.32-7.368-99.32-37.368-22.552-22.552-31.632-55.08-35.264-79.04 14.384-0.824 33.744-3.176 54.008-9.256 17.544 6.392 32.088 15.216 43.208 26.344z m-62.16-148.136c30-30 77.672-36.16 99.328-37.36-1.208 21.648-7.368 69.32-37.368 99.312-30 30-77.68 36.16-99.32 37.376 1.192-21.64 7.336-69.304 37.36-99.328zM477.016 774c0 120.32-97.888 218.2-218.208 218.2S40.6 894.32 40.6 774s97.888-218.208 218.208-218.208S477.016 653.68 477.016 774z m-39.376-503.904c-75.704 67.048-127.888 157.392-148.104 255.792a250.984 250.984 0 0 0-42.912-1.592c21.016-110.136 78.344-211.048 162.912-285.944a509.128 509.128 0 0 1 337.856-128.024c11.2 0 22.48 0.424 33.728 1.152a230.048 230.048 0 0 0-8.512 42.8 15.792 15.792 0 0 0-5.2-1.128 466.72 466.72 0 0 0-329.76 116.944z m335.36-73.96c2.336 20.816 7.944 47.336 20.912 72.008a625.888 625.888 0 0 0-22.16 156.52 251.312 251.312 0 0 0-42.376 1.776c0.92-79.736 15.576-157.064 43.624-230.304z m-11.816 696.496c-120.32 0-218.2-97.888-218.2-218.208s97.888-218.208 218.2-218.208c120.32 0 218.208 97.888 218.208 218.208s-97.888 218.208-218.208 218.208zM406.536 765.064a30.032 30.032 0 1 0 0-60.072 30.032 30.032 0 0 0 0 60.08z m414.36-121.376c-8.784 0-15.896 7.12-15.896 15.896 0 7.696-6.264 13.952-13.96 13.952a13.968 13.968 0 0 1-13.952-13.952 15.896 15.896 0 1 0-31.8 0c0 7.696-6.256 13.952-13.952 13.952a13.976 13.976 0 0 1-13.96-13.952 15.896 15.896 0 1 0-31.8 0 45.808 45.808 0 0 0 45.76 45.752c11.408 0 21.832-4.224 29.848-11.16a45.504 45.504 0 0 0 29.856 11.16 45.8 45.8 0 0 0 45.76-45.752c0-8.776-7.12-15.896-15.904-15.896zM242.912 759.16c0 7.696-6.264 13.952-13.96 13.952a13.976 13.976 0 0 1-13.96-13.952 15.896 15.896 0 1 0-31.792 0 45.808 45.808 0 0 0 45.76 45.752 45.52 45.52 0 0 0 29.848-11.16 45.52 45.52 0 0 0 29.856 11.16 45.8 45.8 0 0 0 45.752-45.76 15.896 15.896 0 1 0-31.8 0c0 7.704-6.256 13.96-13.952 13.96a13.968 13.968 0 0 1-13.96-13.952 15.896 15.896 0 1 0-31.792 0z m666.008-162.864a45.976 45.976 0 0 0-45.92 45.92 15.896 15.896 0 1 0 31.8 0c0-7.784 6.328-14.12 14.12-14.12 7.792 0 14.128 6.336 14.128 14.128a15.896 15.896 0 1 0 31.8 0 45.976 45.976 0 0 0-45.92-45.92z" fill="#000000" /></svg>