<?xml version="1.0" standalone="no"?><!DOCTYPE svg PUBLIC "-//W3C//DTD SVG 1.1//EN" "http://www.w3.org/Graphics/SVG/1.1/DTD/svg11.dtd"><svg class="icon" width="200px" height="200.00px" viewBox="0 0 1024 1024" version="1.1" xmlns="http://www.w3.org/2000/svg"><path d="M591.1 161.6c0 43.9-35.6 79.5-79.5 79.5s-79.5-35.6-79.5-79.5h159zM591.1 797.5c0 43.9-35.6 79.5-79.5 79.5s-79.5-35.6-79.5-79.5h159z" fill="#FF7A51" /><path d="M315.6 638.5c0 43.9-35.6 79.5-79.5 79.5s-79.5-35.6-79.5-79.5h159z" fill="#9ADCCF" /><path d="M866.6 638.5c0 43.9-35.6 79.5-79.5 79.5s-79.5-35.6-79.5-79.5h159zM315.6 320.6c0 43.9-35.6 79.5-79.5 79.5s-79.5-35.6-79.5-79.5h159z" fill="#FFF370" /><path d="M866.6 320.6c0 43.9-35.6 79.5-79.5 79.5s-79.5-35.6-79.5-79.5h159z" fill="#9ADCCF" /><path d="M601.7 924.6H177.8c-8.8 0-15.9 7.1-15.9 15.9s7.1 15.9 15.9 15.9h423.9c8.8 0 15.9-7.1 15.9-15.9s-7.1-15.9-15.9-15.9zM845.4 924.6h-159c-8.8 0-15.9 7.1-15.9 15.9s7.1 15.9 15.9 15.9h159c8.8 0 15.9-7.1 15.9-15.9s-7.1-15.9-15.9-15.9zM834.6 555.9c-40.9-23.6-92-13.3-121.1 21.9l-87.6-50.6c4.9-13.2 7.6-27.5 7.6-42.3 0-18.2-4-35.4-11.2-50.9l91.2-52.6c18.4 22.3 45.7 34.6 73.6 34.6 6.5 0 12.9-0.7 19.3-2 4.7 21.4 7.2 43.4 7.2 65.6 0 7-0.2 14.1-0.7 21-0.6 8.8 6 16.3 14.8 17h1.1c8.3 0 15.3-6.4 15.8-14.8 0.5-7.7 0.8-15.5 0.8-23.2 0-26.2-3.1-52.2-9.1-77.5 44.2-26.8 59.1-84.2 33.2-129.2-12.7-22.1-33.3-37.8-57.9-44.4-24-6.4-48.9-3.3-70.6 8.6-38.1-36.1-84.1-62.6-134.1-77.5-1.1-51.6-43.4-93.3-95.3-93.3s-94.2 41.7-95.3 93.3c-14.8 4.4-29.4 9.8-43.5 16.3-8 3.7-11.5 13.1-7.8 21.1 2.7 5.8 8.4 9.3 14.5 9.3 2.2 0 4.5-0.5 6.6-1.4 11.3-5.2 23-9.6 35-13.4 10.9 33.2 39.6 58.3 74.7 64.2V364c-31.2 4.1-58.7 20-77.9 43l-92.3-53.3c6.9-18.4 8-38.5 2.8-57.9-3.9-14.7-11.2-27.8-21-38.8 8.8-8.1 18.1-15.7 27.7-22.7 7.1-5.1 8.7-15.1 3.6-22.2s-15.1-8.7-22.2-3.6c-12 8.7-23.5 18.2-34.4 28.5-21.7-11.9-46.6-15.1-70.6-8.6-24.6 6.6-45.2 22.4-57.9 44.4-25.9 44.9-11 102.4 33.2 129.2-6 25.3-9.1 51.3-9.1 77.5 0 26.2 3.1 52.2 9.1 77.5-44.2 26.8-59.1 84.2-33.2 129.2 12.7 22.1 33.3 37.8 57.9 44.4 8.2 2.2 16.6 3.3 24.8 3.3 15.9 0 31.6-4 45.8-11.9 16.1 15.2 33.6 28.8 52.2 40.5L269 875c-4.4 7.6-1.8 17.3 5.8 21.7 2.5 1.5 5.3 2.2 8 2.2 5.5 0 10.8-2.8 13.8-7.9l65.7-112.9c17.4 8.7 35.5 15.9 54.2 21.5 1.1 51.6 43.4 93.3 95.3 93.3s94.2-41.7 95.3-93.3c19-5.7 37.4-13 55.1-21.9L727.9 891c3 5.1 8.3 7.9 13.8 7.9 2.7 0 5.5-0.7 8-2.2 7.6-4.4 10.2-14.1 5.8-21.7l-65.8-113.1c18.3-11.6 35.5-24.9 51.4-39.9 14.2 7.8 29.9 11.9 45.8 11.9 8.3 0 16.6-1.1 24.8-3.3 24.6-6.6 45.2-22.4 57.9-44.4 26.2-45.6 10.6-104-35-130.3zM725.5 304.1c4.4-16.4 14.9-30.1 29.6-38.6 9.8-5.7 20.7-8.5 31.7-8.5 5.5 0 11.1 0.7 16.6 2.2 16.4 4.4 30.1 14.9 38.6 29.6 17.5 30.4 7.1 69.3-23.3 86.9-30.4 17.5-69.3 7.1-86.9-23.3-8.4-14.8-10.7-31.9-6.3-48.3zM602.2 191.4c42.2 13.2 81 35.7 113.7 65.7-9.8 11-17.1 24.2-21 38.8-5.2 19.4-4.1 39.5 2.8 57.9l-92.3 53.3c-19.2-23.1-46.7-38.9-77.9-43V255.5c35.1-5.9 63.7-31 74.7-64.1z m-0.5 293.4c0 9.1-1.4 17.8-3.9 26.1l-70.3-40.6v-74.1c42.1 7.6 74.2 44.4 74.2 88.6zM448 161.6c0-35.1 28.5-63.6 63.6-63.6s63.6 28.5 63.6 63.6-28.5 63.6-63.6 63.6-63.6-28.5-63.6-63.6z m63.6 336.3l71.6 41.4c-16.5 21.6-42.4 35.7-71.6 35.7-29.2 0-55.2-14-71.6-35.7l71.6-41.4z m-15.9-101.7v74.1l-70.3 40.6c-2.5-8.3-3.9-17-3.9-26.1 0-44.2 32.1-81 74.2-88.6zM181.2 288.8c8.5-14.7 22.2-25.2 38.6-29.6 5.5-1.5 11-2.2 16.6-2.2 11 0 21.9 2.9 31.7 8.5 14.7 8.5 25.2 22.2 29.6 38.6 4.4 16.4 2.1 33.5-6.3 48.3-17.5 30.4-56.5 40.8-86.9 23.3-30.4-17.6-40.8-56.6-23.3-86.9zM297.7 655c-4.4 16.4-14.9 30.1-29.6 38.6-14.7 8.5-31.8 10.7-48.2 6.4-16.4-4.4-30.1-14.9-38.6-29.6-17.5-30.4-7.1-69.3 23.3-86.9 10-5.8 20.9-8.5 31.7-8.5 22 0 43.4 11.4 55.2 31.8 8.3 14.6 10.6 31.7 6.2 48.2z m-80.9-109.8c-4.8-21.5-7.2-43.5-7.2-65.7 0-22.2 2.4-44.2 7.2-65.6 6.4 1.3 12.9 2 19.3 2 27.9 0 55.2-12.3 73.6-34.6l91.2 52.6c-7.1 15.5-11.2 32.7-11.2 50.9 0 14.9 2.7 29.1 7.6 42.3l-87.6 50.6c-22.7-27.4-58.7-39.6-92.9-32.5zM350.4 735c-15.2-9.6-29.6-20.7-43-33 9.8-11 17.1-24.2 21-38.8 5.2-19.4 4.1-39.5-2.8-57.9l86.6-50c7.4 10.5 16.5 19.7 26.8 27.4L350.4 735z m70.6 32.7c-14.7-4.6-29.1-10.4-42.9-17.2l88.6-152.4c9.2 3.6 18.8 6.2 28.9 7.5v97.9c-35 5.9-63.6 31-74.6 64.2z m90.6 93.3c-35.1 0-63.6-28.5-63.6-63.6s28.5-63.6 63.6-63.6 63.6 28.5 63.6 63.6-28.5 63.6-63.6 63.6z m90.6-93.3c-10.9-33.2-39.6-58.3-74.7-64.2v-97.9c10.4-1.4 20.4-4 29.9-7.9L646 750.1c-14.1 7-28.8 12.9-43.8 17.6z m71.4-33.3L585 582.1c10-7.5 18.7-16.6 26-26.8l86.6 50c-6.9 18.4-8 38.5-2.8 57.9 3.9 14.7 11.2 27.8 21 38.8-13.1 12.1-27.2 22.9-42.2 32.4zM842 670.3c-8.5 14.7-22.2 25.2-38.6 29.6-16.4 4.4-33.5 2.1-48.2-6.4-14.7-8.5-25.2-22.2-29.6-38.6-4.4-16.4-2.1-33.5 6.3-48.3 11.8-20.4 33.2-31.8 55.2-31.8 10.8 0 21.7 2.7 31.7 8.5 30.3 17.7 40.7 56.6 23.2 87z" fill="#4F3D3B" /></svg>