<?xml version="1.0" standalone="no"?><!DOCTYPE svg PUBLIC "-//W3C//DTD SVG 1.1//EN" "http://www.w3.org/Graphics/SVG/1.1/DTD/svg11.dtd"><svg class="icon" width="200px" height="199.80px" viewBox="0 0 1025 1024" version="1.1" xmlns="http://www.w3.org/2000/svg"><path d="M977 335.3c-17.4-9.6-41.2-18.8-70-27 11.2 17.7 17.7 38.2 17.7 60.2 0 21-5.9 40.8-16.3 58 28.1-8.2 51.5-17.2 68.6-26.7 20.3-11.1 31.9-22.9 31.9-32.2-0.1-9.4-11.7-21.1-31.9-32.3zM49 399.7c4.3 2.4 9 4.7 14 7-2.6-9-3.9-18.5-3.9-28.3 0-20.1 5.8-38.9 15.9-55.3-9.8 3.9-18.5 8-26 12.1-20.3 11.1-31.9 22.9-31.9 32.2 0 9.5 11.7 21.2 31.9 32.3zM590 224c-8.1 0-16.1 0.5-24 1.6 38.2 26.7 65.2 66.9 73.1 113.2 9.1-2.5 18.6-4.2 28.3-5.1 7.9-23.8 23.6-44.5 44.5-59.6l-3.2-3.2C677.1 240.7 634.9 224 590 224z" fill="#FFFFFF" /><path d="M793.3 264.6c-49.7 0-92.2 28.5-108.4 68.4 74.2 0.5 137 48.6 159.7 115.2 10.5-2.1 20.7-4.3 30.5-6.5 20.7-18.8 33.5-44.6 33.5-73.1 0-57.4-51.8-104-115.3-104zM287.1 438.4c-5.9 8.6-13.1 16.4-21.3 23.3 12.2 1.6 24.7 3 37.6 4.4-6.3-8.7-11.8-18-16.3-27.7zM237.8 277.7c17 7.8 31.8 19.1 43.2 32.8 5.9-16.4 14.3-31.7 24.7-45.5-3.6-0.3-7.3-0.5-11-0.5-20.3 0.1-39.7 4.8-56.9 13.2z" fill="#FFFFFF" /><path d="M792.4 394.1c-29-29-67.7-45-108.7-45-14.6 0-28.9 2-42.6 5.9 0.3 4 0.5 8.1 0.5 12.2 0 40.5-14.4 77.7-38.7 107.4 84.1-3.5 161.1-11.7 225.7-23.5-7.6-21.2-19.8-40.6-36.2-57z" fill="#FFFFFF" /><path d="M352.2 768.9l3.2 28.6c0 0.3 0.1 0.6 0.1 0.9 0 5.1 4.2 9.3 9.3 9.3 0.6 0 1.1 0.1 1.6 0.2 0.8 0.2 76.7 15.8 146.5 15.8 74.7 0 145.7-15.6 146.4-15.8 0.6-0.1 1.2-0.2 1.8-0.2 5.2 0 9.4-4.2 9.4-9.3 0-0.3 0-0.6 0.1-0.9l3.2-28.6C623.2 783 569.2 790.7 513 790.7c-56.2 0-110.2-7.7-160.8-21.8z" fill="#FF664D" /><path d="M292.6 327.4c8.6 15.3 13.4 32.7 13.4 51 0 14.9-3.2 29.2-9 42.2 6.5 17.2 16.1 33.3 28.5 47.6 58 5.3 121.3 8.2 187.4 8.2 22.9 0 45.4-0.4 67.5-1 29-29.6 44.9-67.8 44.9-108.2 0-42.4-17.5-82.4-49.2-112.5-32-30.3-74.5-47-119.8-47s-87.9 16.7-119.8 47c-21.5 20.5-36.5 45.5-43.9 72.7zM75.3 378.5c0 16.4 4.6 31.8 12.6 45.3 40.4 14 93.1 25.8 154.6 34.8 28.6-17.3 47.4-46.7 47.4-80 0-53.2-48.1-96.5-107.3-96.5-59.2-0.1-107.3 43.2-107.3 96.4z" fill="#FFFFFF" /><path d="M878.7 457.3C780.8 480.1 651 492.6 513 492.6s-267.8-12.5-365.7-35.3c-57-13.3-99.1-28.9-126.2-46.8 5.6 37.2 17.2 73.5 34.6 108.3 24.8 49.6 60.4 94.3 105.7 132.6 45.5 38.5 98.6 68.8 157.8 90 61.4 22 126.6 33.1 193.8 33.1 67.3 0 132.5-11.1 193.9-33.1 59.1-21.2 112.2-51.4 157.8-90 45.3-38.4 80.9-83 105.7-132.6 17.4-34.8 29-71.1 34.6-108.3-27.2 17.9-69.3 33.5-126.3 46.8z" fill="#FF664D" /><path d="M1024.5 362.4c-5.3-29.1-55.4-55.5-134.9-75.6-24-23.6-58.3-38.4-96.4-38.4-20.5 0-39.8 4.3-57.1 11.9-5.7-0.6-11.4-1.3-17.2-1.8-33.2-31.3-78.7-50.6-129-50.6-15.4 0-30.3 1.8-44.6 5.2-26.4-13.7-56.7-21.6-89-21.6-54.9 0-104.3 22.7-138.2 58.8-7.6-1.2-15.4-1.9-23.4-1.9-28.1 0-54.4 8-76.7 21.7-0.3 0.1-0.7 0.1-1 0.2-11-2.9-22.5-4.5-34.5-4.5-33.9 0-64.6 12.5-87 32.7-55.5 18.2-89.7 40.2-94 63.9-0.3-1.7-0.5-3.4-0.5-5.1 0 2.7 0 5.3 0.1 8-0.1 0.8-0.1 1.5-0.1 2.2 0 1.3 0.1 2.6 0.3 3.9C8 551.8 145.1 704.3 335.4 763.9l4 35c0.3 13.5 11.1 24.5 24.6 25 8.2 1.7 81.4 16 149 16 72.2 0 140.9-14.2 149.1-16 13.5-0.5 24.3-11.5 24.5-25l4-35c190.3-59.6 327.4-212.1 334.1-392.5 0.2-1.3 0.3-2.6 0.3-3.9 0-0.7 0-1.5-0.1-2.2 0.1-2.7 0.1-5.3 0.1-8 0 1.8-0.2 3.5-0.5 5.1z m-54.2 156.4c-24.8 49.6-60.4 94.3-105.7 132.6-45.5 38.5-98.6 68.8-157.8 90-61.4 22-126.6 33.1-193.9 33.1-67.3 0-132.5-11.1-193.8-33.1-59.1-21.2-112.2-51.4-157.8-90-45.3-38.4-80.9-83-105.7-132.6-17.4-34.8-29-71.1-34.6-108.3 27.1 17.9 69.2 33.5 126.2 46.8 97.9 22.8 227.7 35.3 365.7 35.3 137.9 0 267.8-12.5 365.7-35.3 57-13.3 99.1-28.9 126.2-46.8-5.5 37.2-17.1 73.5-34.5 108.3zM456.4 207.7c45.3 0 87.9 16.7 119.8 47 31.7 30.1 49.2 70 49.2 112.5 0 40.5-15.9 78.7-44.9 108.2-22.1 0.7-44.6 1-67.5 1-66.2 0-129.4-2.9-187.4-8.2-12.5-14.3-22.1-30.4-28.5-47.6 5.8-13 9-27.3 9-42.2 0-18.4-4.8-35.7-13.4-51 7.4-27.3 22.4-52.3 43.9-72.7 31.9-30.3 74.5-47 119.8-47z m520.6 192c-17.1 9.4-40.4 18.5-68.6 26.7 10.4-17.2 16.3-36.9 16.3-58 0-21.9-6.4-42.5-17.7-60.2 28.8 8.3 52.6 17.5 70 27 20.3 11.1 31.9 22.9 31.9 32.2-0.1 9.5-11.7 21.2-31.9 32.3z m-711.3 62c8.2-6.8 15.4-14.7 21.3-23.3 4.5 9.7 10 18.9 16.2 27.6-12.7-1.3-25.2-2.8-37.5-4.3z m337.2 12.9c24.2-29.7 38.7-67 38.7-107.4 0-4.1-0.2-8.2-0.5-12.2 13.7-3.9 28-5.9 42.6-5.9 41.1 0 79.7 16 108.7 45 16.4 16.4 28.6 35.8 36.2 57-64.6 11.8-141.6 20.1-225.7 23.5z m305.7-106.2c0 28.5-12.8 54.4-33.5 73.1-9.8 2.3-19.9 4.5-30.5 6.5-22.7-66.6-85.5-114.6-159.7-115.2 16.1-39.8 58.6-68.4 108.4-68.4 63.5 0.2 115.3 46.8 115.3 104zM708.7 271c1.1 1 2.2 2.1 3.2 3.2-20.9 15-36.7 35.7-44.5 59.6-9.7 0.9-19.1 2.7-28.3 5.1-7.9-46.3-34.9-86.5-73.1-113.2 7.9-1.1 15.9-1.6 24-1.6 44.9-0.1 87.1 16.6 118.7 46.9z m-403-6c-10.4 13.8-18.8 29.1-24.7 45.5-11.4-13.8-26.2-25-43.2-32.8 17.2-8.4 36.5-13.2 57-13.2 3.7 0.1 7.3 0.2 10.9 0.5z m-15.8 113.5c0 33.3-18.8 62.7-47.4 80-61.5-8.9-114.2-20.8-154.6-34.8-8-13.5-12.6-28.9-12.6-45.3 0-53.2 48.1-96.5 107.3-96.5 59.1 0.1 107.3 43.4 107.3 96.6zM49 335.3c7.5-4.1 16.2-8.2 26-12.1-10.1 16.3-15.9 35.2-15.9 55.3 0 9.8 1.4 19.2 3.9 28.3-5-2.3-9.7-4.6-14-7-20.3-11.1-31.9-22.9-31.9-32.2 0-9.4 11.7-21.1 31.9-32.3z m621.5 462.2c0 0.3-0.1 0.6-0.1 0.9 0 5.1-4.2 9.3-9.4 9.3-0.6 0-1.2 0.1-1.8 0.2-0.7 0.2-71.7 15.8-146.4 15.8-69.7 0-145.7-15.7-146.5-15.8-0.5-0.1-1.1-0.2-1.6-0.2-5.2 0-9.3-4.2-9.3-9.3 0-0.3 0-0.6-0.1-0.9l-3.2-28.6c50.6 14.1 104.6 21.8 160.8 21.8 56.2 0 110.2-7.7 160.8-21.8l-3.2 28.6z" fill="#CA3A2A" /></svg>