<?xml version="1.0" standalone="no"?><!DOCTYPE svg PUBLIC "-//W3C//DTD SVG 1.1//EN" "http://www.w3.org/Graphics/SVG/1.1/DTD/svg11.dtd"><svg class="icon" width="200px" height="200.00px" viewBox="0 0 1024 1024" version="1.1" xmlns="http://www.w3.org/2000/svg"><path d="M840.467923 71.593008c86.991505 0 157.584611 70.593106 157.584611 157.584611v794.822381H26.947368V229.177619c0-86.991505 70.593106-157.584611 157.584611-157.584611h655.935944z" fill="#F3DAB8" /><path d="M506.400547 472.553852h-49.195196v78.192364h49.195196v360.664779h78.192364V472.553852h-78.192364z m0 0" fill="#CA3A2A" /><path d="M406.110341 145.985744c9.699053 0 18.998145-3.799629 25.797481-10.698956 6.799336-6.799336 10.698955-16.098428 10.698955-25.79748v-72.992872c0-20.098037-16.398399-36.496436-36.496436-36.496436s-36.496436 16.198418-36.496436 36.496436v72.992872c0 9.699053 3.799629 18.998145 10.698955 25.79748 6.799336 6.899326 16.098428 10.698955 25.797481 10.698956zM625.188946 145.985744c9.699053 0 18.998145-3.799629 25.797481-10.698956 6.799336-6.799336 10.698955-16.098428 10.698955-25.79748v-72.992872c0-20.098037-16.198418-36.496436-36.496436-36.496436-20.098037 0-36.496436 16.198418-36.496436 36.496436v72.992872c0 9.699053 3.799629 18.998145 10.698956 25.79748 6.899326 6.899326 16.098428 10.698955 25.79748 10.698956z" fill="#380B04" /><path d="M26.947368 336.767113h971.105166v48.595254H26.947368z" fill="#FEC401" /></svg>