<?xml version="1.0" standalone="no"?><!DOCTYPE svg PUBLIC "-//W3C//DTD SVG 1.1//EN" "http://www.w3.org/Graphics/SVG/1.1/DTD/svg11.dtd"><svg class="icon" width="200px" height="199.42px" viewBox="0 0 1027 1024" version="1.1" xmlns="http://www.w3.org/2000/svg"><path d="M559.47183 6.475864c-10.23758 0.083329-13.142195 3.416495-8.690039 9.999497 1.809433 2.714149 5.344969 4.642623 9.642372 5.237831 137.612119 20.356118 261.177326 123.327124 328.435844 240.345042 167.253483 290.461565 5.11879 650.324398-307.60356 741.748366-17.141994 4.999748-18.451452 9.166205-3.928373 12.499371-196.502011 13.261237-349.470499-49.164191-458.905465-187.252477-143.326117-180.705187-150.468614-423.312019-16.784869-611.63587 105.232797-148.004453 257.84416-218.322341 457.83409-210.94176z m-83.329138 919.477513c106.423213 10.082826 201.608896-16.820582 285.580859-80.710222a7.285347 7.285347 0 0 0 2.761766-4.321211 5.035461 5.035461 0 0 0-1.095183-4.368827l-26.308199-29.165198c-2.392737-2.618916-6.571098-2.976041-9.880455-0.833292l-58.449438 38.331403c-5.952081 2.023708-215.465342 60.949312-164.396484 4.999749 1.749912-1.964187 5.54734-3.48792 10.356621-4.166457l86.42422-13.094579c3.48792-0.488071 6.368727-3.511728 7.142497-7.499622 7.737706-39.164695-55.473397-2.737957-37.617153-40.23607 1.4285-3.166507 4.595007-5.737806 8.690038-7.023455 36.902904-11.737504 71.377358-28.56999 103.447173-50.47365 3.583153-2.440353 7.487718-3.511728 10.832788-2.97604 9.356672 1.511829 13.332662 7.106785 11.904162 16.784869-0.595208 4.285499-2.749862 7.868651-5.83304 9.761413l-58.330396 35.355363c-3.726003 2.237983-6.17826 5.26164-6.547289 8.09483-3.452207 28.927115 15.594453 22.73695 30.950822 12.856496a3449.421556 3449.421556 0 0 0 100.35209-67.139477c13.332662 14.844491 13.094579 27.260532-0.714249 37.260029a6.618714 6.618714 0 0 0-2.618916 4.047415 4.880707 4.880707 0 0 0 1.071374 4.166457l26.546283 30.474656a5.273544 5.273544 0 0 0 4.166457 1.761816 6.761564 6.761564 0 0 0 4.523581-1.999899c217.846174-214.393967 152.730405-548.186684-116.422709-685.560719a11.832738 11.832738 0 0 0-9.773317-0.488071c-3.190316 1.249937-5.702094 3.809332-6.904415 7.03536l-11.785121 31.665072a9.701892 9.701892 0 0 0 5.237832 12.380329c24.284492 10.594705 126.422206 63.449186 110.827753 97.37605-20.153747-9.201918-34.998238-6.023506-44.521568 9.52333a8.344818 8.344818 0 0 0 0.952333 9.761413c6.190165 7.142498 60.235062 58.687521 18.808577 59.639854-3.523632 0.083329-7.130593-1.714199-9.761413-4.880706-37.37907-45.950067-83.757687-79.472189-139.15966-100.590174-3.928374-1.464212-7.142498-3.845044-9.166205-6.785372-38.331403-57.020938 101.304423 19.403785 103.566214 20.832284 3.154603 2.083228 7.142498 2.083228 9.999496 0 13.415991-9.761413 13.535033-19.201414 0.357125-28.331907-54.997231-37.855237-118.244046-57.497105-189.752351-58.925604-4.214074-0.071425-7.868651-1.928474-9.642371-4.880707-3.880757-6.583002-3.642674-12.975537 0.71425-19.165702 2.023708-2.761766 5.702094-4.440253 9.880454-4.523581a351.601344 351.601344 0 0 1 98.328383 12.142246c4.023607 1.071375 8.261489 0.654729 11.7256-1.166608 3.464111-1.821337 5.856848-4.880707 6.618714-8.475764l6.785373-32.617405c0.690441-3.226028-1.666583-6.535385-5.356873-7.499623-132.457616-33.486409-253.796745-11.427996-364.02929 66.187144a7.213922 7.213922 0 0 0-2.618916 8.928122 86.186137 86.186137 0 0 0 25.712991 31.307947 8.154351 8.154351 0 0 0 9.761414 0.119042 394.932496 394.932496 0 0 1 113.446668-55.235314c12.142246-3.571249 47.378567-7.261539 28.808074 18.689535a17.261036 17.261036 0 0 1-9.404289 6.309206c-81.662555 23.177404-147.218778 69.282226-196.656764 138.326368a11.249434 11.249434 0 0 1-9.404289 4.761665c-44.759651-2.380833 18.451452-64.282478 34.998238-82.257763 2.618916-2.833191 3.452207-6.725852 2.142749-9.999496-5.237832-12.856496-14.094528-23.1655-26.546282-30.950823a7.440102 7.440102 0 0 0-9.285247 1.071375c-134.517036 141.350026-163.682235 304.151352-87.495594 488.427788a7.094881 7.094881 0 0 0 7.975788 4.523582c14.284995-2.77367 26.617707-9.797126 37.021946-21.070368a9.166205 9.166205 0 0 0 1.666583-9.880455c-4.166457-9.642372-45.592942-92.733426-2.380833-77.258014 3.356974 1.130895 6.071123 4.106936 7.261539 7.975788 17.927669 57.223309 48.0452 107.018421 90.352594 149.39724 19.76091 19.76091 1.309458 42.854985-20.47516 21.546534a484.737498 484.737498 0 0 1-52.140232-59.639854c-2.261791-3.011753-6.154452-3.999799-8.928122-2.261791l-32.26028 20.47516a5.440202 5.440202 0 0 0-2.499874 3.880757 6.666331 6.666331 0 0 0 1.190416 4.809281c73.960562 108.173125 177.050609 169.991441 309.270142 185.466852z" fill="#28D1B3" /><path d="M559.47183 6.475864c404.741526 39.045653 600.564999 506.16499 351.291836 821.863381-84.043387 106.506542-195.192553 169.158149-333.435592 187.966726-14.523078-3.333166-13.21362-7.499622 3.928373-12.499371 312.722349-91.423968 474.857043-451.286801 307.60356-741.748366-67.258518-117.017918-190.823725-219.988923-328.435844-240.345042-4.297403-0.595208-7.832939-2.523682-9.642372-5.237831-4.452157-6.583002-1.547541-9.916167 8.690039-9.999497z" fill="#22B69F" /><path d="M770.294548 278.247895c9.832838-1.904666 15.189711 1.666583 16.07062 10.713746 0.476167 4.606911 1.583254 8.261489 3.333165 10.951829a292.306711 292.306711 0 0 1 40.593194 102.375798c-31.272235 0.476167-47.307142 16.511073-48.092816 48.092817l-115.113252 17.856243c-16.034907-44.997734-44.962022-78.876981-86.781345-101.661547l15.594453-33.68878a8.047214 8.047214 0 0 1 4.571199-4.20217 5.963985 5.963985 0 0 1 5.547339 0.749962l56.187648 42.616902c3.428399 2.607012 7.380581 3.571249 10.594704 2.618916 7.690089-2.380833 11.618463-7.809131 11.785121-16.308703 0.071425-3.48792-1.618966-7.166306-4.642623-10.118538-37.617154-37.450495-82.852971-59.758896-135.707453-66.901393-14.880203-2.023708-27.498615 7.261539-17.856244 22.855992 1.857049 2.91652 5.40449 4.773569 9.52333 4.999748 33.962576 2.226078 38.688528 17.546736 14.165954 45.950068l-73.92485 2.499874c-58.413725 18.094327-97.257008 55.949564-116.541751 113.56571l-37.617153-10.832788a5.654477 5.654477 0 0 1-3.404591-2.809382 5.416394 5.416394 0 0 1-0.2857-4.333115c24.522575-66.818064 70.305984-112.565761 137.374036-137.254994 3.761715-1.392787 6.511577-4.356923 7.261539-7.856747 9.404288-41.426486-62.734936-2.499874-77.377056 8.332913-3.297453 2.464162-7.213922 3.309357-10.475663 2.261791-10.95183-3.40459-17.582448-11.106584-19.879952-23.094075-0.654729-3.083178 1.107087-6.547289 4.40454-8.690039l29.760407-19.403785a12.618412 12.618412 0 0 0 5.833039-9.404288c2.261791-19.522827-16.427744-18.33241-28.450948-11.427996-54.128227 31.034152-95.828508 74.281974-125.112748 129.755371-15.118286 28.689032 13.332662 42.140735 29.165198 12.023205a322.840887 322.840887 0 0 1 47.378567-67.37756c2.535587-2.749862 6.404439-3.618865 9.52333-2.14275 9.201918 4.606911 15.546836 11.86845 19.04666 21.784618 1.083279 3.226028 0.071425 7.03536-2.618916 9.880455-39.367065 41.664569-60.758845 91.626339-64.163436 149.873406-0.226179 3.987894 1.273745 7.725801 4.047415 10.118538 13.01125 11.035159 21.379876 7.821035 25.117783-9.642372 0.797579-3.559345 3.809332-5.999698 7.023456-5.713998l31.665072 2.737958c2.714149 0.297604 5.011652 3.095082 5.594957 6.785372l3.214124 19.998993c8.963834 70.472642 46.819071 117.256001 113.56571 140.350076 4.202169 6.987743 10.356621 10.047113 18.451452 9.166206 3.606961-0.380933 6.844893 1.559445 7.499622 4.523581a60.949312 60.949312 0 0 1-0.714249 30.236573 6.737756 6.737756 0 0 1-7.737706 4.642624c-43.973976-7.618664-83.019629-25.784416-117.136959-54.521065-3.237932-2.714149-7.17821-3.69029-10.23758-2.499874-20.832284 8.213872-1.666583 40.593194-36.426737 47.497609-3.499824 0.738058-7.261539-0.785675-9.642372-3.928374a459.584002 459.584002 0 0 1-52.140232-83.091054c-15.713495-32.26028-42.49786-17.380077-29.046156 12.618412 34.998238 78.329389 92.328684 133.648033 172.015148 165.944025 14.284995 5.83304 30.117531-0.357125 24.998741-17.975285-0.916621-3.011753-3.702195-5.844944-7.618664-7.737706l-62.853978-30.950822a8.511476 8.511476 0 0 1-4.642623-8.928122c1.821337-12.213671 8.52338-19.951376 20.118035-23.213117 3.392686-0.904716 7.416293-0.130946 11.070871 2.142749 60.711229 37.462399 125.826998 46.47385 195.347307 27.022449 13.92787-3.928374 20.594201-16.427744 9.642371-27.498615-1.845145-1.928474-5.713998-2.77367-10.237579-2.261791l-43.21211 4.880706c-3.368878 0.416646-6.559194-2.166558-7.380581-5.952081-2.940328-14.118337-0.166658-26.498666 8.332914-37.140987 87.852719-19.998993 132.648083-75.710474 134.397994-167.134442l115.589418-21.308451c11.975587 17.070569 27.260532 24.45115 45.831026 22.141743 18.249081 36.117229 16.856294 71.710675-4.166457 106.780338-50.235566-52.378315-117.732167 62.853978-47.61665 86.305178 12.618412 21.427493 7.094881 36.510066-16.546786 45.235817a3449.421556 3449.421556 0 0 1-100.35209 67.139477c-15.35637 9.880455-34.40303 16.070619-30.950822-12.856496 0.369029-2.833191 2.821287-5.856848 6.547289-8.09483l58.330396-35.355363c3.083178-1.892762 5.237832-5.475915 5.83304-9.761413 1.4285-9.678084-2.547491-15.273041-11.904162-16.784869-3.34507-0.535687-7.249635 0.535687-10.832788 2.97604a394.587275 394.587275 0 0 1-103.447173 50.47365c-4.095032 1.28565-7.261539 3.856949-8.690038 7.023455-17.856244 37.498112 45.354859 1.071375 37.617153 40.23607-0.773771 3.987894-3.654578 7.011552-7.142497 7.499622l-86.42422 13.094579c-4.809282 0.678537-8.606709 2.20227-10.356621 4.166457-51.068857 55.949564 158.444403-2.976041 164.396484-4.999749-54.521064 49.997483-118.732117 77.019931-192.60935 81.067347-132.219533-15.475411-235.30958-77.293727-309.270142-185.466852a6.666331 6.666331 0 0 1-1.190416-4.809281 5.440202 5.440202 0 0 1 2.499874-3.880757l32.26028-20.47516c2.77367-1.738008 6.666331-0.749962 8.928122 2.261791a484.737498 484.737498 0 0 0 52.140232 59.639854c21.784617 21.308451 40.236069-1.785624 20.47516-21.546534-42.307394-42.378819-72.424925-92.17393-90.352594-149.39724-1.190416-3.868853-3.904565-6.844893-7.261539-7.975788-43.21211-15.475411-1.785624 67.615643 2.380833 77.258014a9.166205 9.166205 0 0 1-1.666583 9.880455c-10.404238 11.273242-22.73695 18.296698-37.021946 21.070368a7.094881 7.094881 0 0 1-7.975788-4.523582c-76.18664-184.276436-47.021442-347.077762 87.495594-488.427788a7.440102 7.440102 0 0 1 9.285247-1.071375c12.451754 7.785322 21.308451 18.094327 26.546282 30.950823 1.309458 3.273645 0.476167 7.166306-2.142749 9.999496-16.546786 17.975285-79.757889 79.87693-34.998238 82.257763 3.559345 0.154754 7.082977-1.63087 9.404289-4.761665 49.437987-69.044143 114.99421-115.148964 196.656764-138.326368a17.261036 17.261036 0 0 0 9.404289-6.309206c18.570494-25.951074-16.665828-22.260784-28.808074-18.689535a394.932496 394.932496 0 0 0-113.446668 55.235314 8.154351 8.154351 0 0 1-9.761414-0.119042 86.186137 86.186137 0 0 1-25.712991-31.307947 7.213922 7.213922 0 0 1 2.618916-8.928122c110.232545-77.61514 231.571673-99.673553 364.02929-66.187144 3.69029 0.964237 6.047315 4.273594 5.356873 7.499623l-6.785373 32.617405a12.546987 12.546987 0 0 1-6.618714 8.475764 16.249182 16.249182 0 0 1-11.713696 1.166608 351.601344 351.601344 0 0 0-98.328382-12.142246c-4.190265 0.083329-7.856747 1.761816-9.880455 4.523581-4.368828 6.190165-4.606911 12.5827-0.71425 19.165702 1.761816 2.952232 5.416394 4.809282 9.642372 4.880707 71.4964 1.4285 134.75512 21.070368 189.75235 58.925604 13.166004 9.130493 13.046962 18.570494-0.357125 28.331907a8.773368 8.773368 0 0 1-9.999496 0c-2.261791-1.4285-141.897617-77.853223-103.566214-20.832284 2.011803 2.940328 5.225927 5.321161 9.166205 6.785372 55.390068 21.117984 101.78059 54.640106 139.15966 100.590174 2.618916 3.166507 6.225877 4.964036 9.761413 4.880706 41.426486-0.952333-12.618412-52.497357-18.808577-59.639854a8.344818 8.344818 0 0 1-0.952333-9.761413c9.52333-15.546836 24.355917-18.725248 44.521568-9.52333zM198.751897 536.603934c22.713142 1.273745 42.414531-20.737051 43.997785-49.164191 1.595158-28.415236-15.534932-52.497357-38.248074-53.759198-22.713142-1.273745-42.414531 20.737051-43.997785 49.164191-1.595158 28.42714 15.534932 52.497357 38.248074 53.759198z m477.856892 136.028865a9.463809 9.463809 0 0 0 9.166205-2.737958c31.34366-34.355413 50.664116-74.793853 57.973272-121.303416 2.023708-13.451704-2.380833-30.950823-19.998993-24.641616-3.249836 1.166608-5.713998 4.40454-6.428248 8.451955-8.654326 43.973976-26.427241 83.495796-53.330648 118.565459-2.583203 3.464111-3.40459 7.440102-2.142749 10.356621 2.380833 5.559244 7.297252 9.332863 14.761161 11.308955z" fill="#F1EFF2" /><path d="M766.128091 740.1294c23.641667-8.725751 29.165198-23.808325 16.546786-45.235817 49.759399 7.142498 68.806059-48.449941 47.61665-86.305178 21.022751-35.069663 22.415538-70.663109 4.166457-106.780338 50.830774-16.070619 36.902904-81.424472-4.166457-99.518799a292.306711 292.306711 0 0 0-40.593194-102.375798c-1.749912-2.690341-2.856999-6.344919-3.333165-10.951829-0.880908-9.047164-6.237781-12.618412-16.07062-10.713746 15.594453-33.926863-86.543261-86.781345-110.827753-97.37605a9.701892 9.701892 0 0 1-5.237831-12.380329l11.785121-31.665072c1.190416-3.214124 3.702195-5.785423 6.89251-7.03536a11.832738 11.832738 0 0 1 9.761413 0.488071c269.153115 137.374035 334.268883 471.166752 116.422709 685.560719a6.773468 6.773468 0 0 1-4.523581 1.999899 5.285448 5.285448 0 0 1-4.166457-1.761816l-26.546283-30.474656a4.880707 4.880707 0 0 1-1.05947-4.166457 6.618714 6.618714 0 0 1 2.618916-4.047415c13.808829-9.999497 14.046912-22.415538 0.714249-37.260029z" fill="#E1DDE1" /><path d="M359.600941 471.214369l-2.97604 53.568731-3.214124-19.998993c-0.583304-3.69029-2.880807-6.487769-5.594957-6.785372l-31.665072-2.737958c-3.214124-0.2857-6.225877 2.154653-7.023456 5.713998-3.737907 17.463406-12.106533 20.67753-25.117783 9.642372a12.392233 12.392233 0 0 1-4.047415-10.118538c3.40459-58.247067 24.796371-108.208837 64.163436-149.873406 2.690341-2.845095 3.702195-6.654427 2.618916-9.880455-3.499824-9.916167-9.844742-17.177707-19.04666-21.784618-3.118891-1.476116-6.987743-0.607112-9.52333 2.14275a322.840887 322.840887 0 0 0-47.378567 67.37756c-15.832536 30.117531-44.283485 16.665828-29.165198-12.023205 29.28424-55.473397 70.984521-98.72122 125.112748-129.755371 12.023204-6.904414 30.712739-8.094831 28.450948 11.427996a12.618412 12.618412 0 0 1-5.833039 9.404288l-29.760407 19.403785c-3.297453 2.142749-5.059269 5.606861-4.40454 8.690039 2.297503 11.987492 8.928122 19.689485 19.879952 23.094075 3.261741 1.047566 7.17821 0.202371 10.475663-2.261791 14.64212-10.832788 86.781345-49.759399 77.377056-8.332913-0.749962 3.499824-3.499824 6.46396-7.261539 7.856747-67.068052 24.689233-112.851461 70.43693-137.374036 137.254994a5.416394 5.416394 0 0 0 0.2857 4.333115 5.654477 5.654477 0 0 0 3.404591 2.809382l37.617153 10.832788zM580.304114 366.576781l-30.236572-11.427996c24.522575-28.403332 19.796622-43.723989-14.165954-45.950068-4.11884-0.226179-7.666281-2.083228-9.52333-4.999748-9.642372-15.594453 2.976041-24.8797 17.856244-22.855992 52.854482 7.142498 98.090299 29.450898 135.707453 66.901393 3.023657 2.952232 4.714048 6.630619 4.642623 10.118538-0.166658 8.499572-4.095032 13.92787-11.785121 16.308703-3.214124 0.952333-7.166306-0.011904-10.594704-2.618916l-56.187648-42.616902a5.963985 5.963985 0 0 0-5.547339-0.749962 8.047214 8.047214 0 0 0-4.571199 4.20217l-15.594453 33.68878z" fill="#B6ADB6" /><path d="M550.067542 355.148785l30.236572 11.427996c41.819323 22.784567 70.746438 56.663814 86.781345 101.661547l5.952081 32.736447c-1.749912 91.423968-46.545275 147.135449-134.397994 167.134442l-44.64061-0.952333c30.593698-16.784869 63.687269-32.022197 84.995721-58.687521 81.186388-101.78059 13.332662-224.393463-102.851965-250.820704l73.92485-2.499874z" fill="#22B69F" /><path d="M476.142692 357.648659c116.184626 26.427241 184.038353 149.040115 102.851965 250.820704-21.308451 26.665324-54.402023 41.902652-84.995721 58.687521l-23.808325-2.023708c-66.746639-23.094075-104.601876-69.877434-113.56571-140.350076l2.97604-53.568731c19.284743-57.616147 58.128026-95.471383 116.541751-113.56571z m8.451956 110.589669c-35.164896 33.736397-33.176901 64.484848 5.952081 92.25726 45.711984 24.641616 94.161926-29.522323 70.234559-72.49635-16.665828-29.760406-46.9024-38.569487-76.18664-19.76091z" fill="#28D1B3" /><path d="M830.291527 402.289268c41.069361 18.094327 54.997231 83.448179 4.166457 99.518799-18.570494 2.309408-33.855438-5.071173-45.831026-22.141743l-6.428247-29.284239c0.785675-31.581743 16.820582-47.61665 48.092816-48.092817z m-0.892812 67.258518c3.595057-1.05947 6.535385-3.845044 8.154351-7.737705 1.618966-3.904565 1.797529-8.594805 0.488071-13.046962-2.737957-9.273343-11.023254-14.999245-18.522877-12.785071-3.606961 1.071375-6.547289 3.845044-8.166255 7.737706a19.784718 19.784718 0 0 0-0.488071 13.046962c2.737957 9.273343 11.023254 14.999245 18.534781 12.78507z" fill="#FB8628" /><path d="M782.198711 450.382085l6.428247 29.284239-115.589418 21.308451-5.952081-32.736447z" fill="#B6ADB6" /><path d="M830.291527 608.588405c21.189409 37.855237 2.142749 93.447676-47.61665 86.305178-70.115517-23.4512-2.618916-138.683493 47.61665-86.305178z m-35.676775 54.568681c7.60676 1.1428 14.92782-5.559244 16.344415-14.987341 0.690441-4.523582-0.107137-9.082876-2.20227-12.677933-2.095133-3.595057-5.333065-5.916369-8.987642-6.475865-7.60676-1.1428-14.92782 5.559244-16.344416 14.999245-0.690441 4.523582 0.107137 9.082876 2.20227 12.666029 2.095133 3.595057 5.333065 5.916369 8.987643 6.475865z" fill="#FB8628" /><path d="M470.190611 665.133176l23.808325 2.023708 44.64061 0.952333c-8.499572 10.642321-11.273242 23.02265-8.332914 37.140987 0.821387 3.785524 4.011703 6.368727 7.380581 5.952081l43.21211-4.880706c4.523582-0.511879 8.392435 0.333317 10.237579 2.261791 10.95183 11.070871 4.285499 23.570242-9.642371 27.498615-69.520309 19.451402-134.636078 10.439951-195.347307-27.022449-3.654578-2.273695-7.678185-3.047466-11.070871-2.142749-11.594654 3.261741-18.296698 10.999446-20.118035 23.213117a8.511476 8.511476 0 0 0 4.642623 8.928122l62.853978 30.950822c3.916469 1.892762 6.702043 4.725953 7.618664 7.737706 5.11879 17.618161-10.713746 23.808325-24.998741 17.975285-79.686464-32.295993-137.016911-87.614636-172.015148-165.944025-13.451704-29.99849 13.332662-44.878693 29.046156-12.618412a459.584002 459.584002 0 0 0 52.140232 83.091054c2.380833 3.142699 6.142548 4.666432 9.642372 3.928374 34.760155-6.904414 15.594453-39.283736 36.426737-47.497609 3.05937-1.190416 6.999648-0.214275 10.23758 2.499874 34.11733 28.736648 73.162983 46.9024 117.136959 54.521065a6.737756 6.737756 0 0 0 7.737706-4.642624 60.949312 60.949312 0 0 0 0.714249-30.236573c-0.654729-2.964136-3.892661-4.904515-7.499622-4.523581-8.094831 0.880908-14.249283-2.178462-18.451452-9.166206z" fill="#B6ADB6" /><path d="M476.142692 925.953377c73.877233-4.047415 138.088285-31.069864 192.60935-81.067347l58.449438-38.331403c3.309357-2.142749 7.487718-1.785624 9.880455 0.833292l26.308199 29.165198a5.035461 5.035461 0 0 1 1.095183 4.368827 7.285347 7.285347 0 0 1-2.761766 4.321211c-83.971962 63.88964-179.157646 90.793048-285.580859 80.710222z" fill="#E1DDE1" /><path d="M198.751897 536.603934c-22.713142-1.261841-39.843232-25.332058-38.248074-53.759198 1.583254-28.42714 21.284643-50.437937 43.997785-49.164191 22.713142 1.273745 39.843232 25.343962 38.248074 53.759198-1.583254 28.42714-21.284643 50.437937-43.997785 49.164191z m-9.023355-60.151733c-4.606911 8.975739-2.904616 17.070569 5.11879 24.284491a8.80908 8.80908 0 0 0 10.23758 1.190416c25.593949-14.404037-1.904666-51.783107-15.35637-25.474907z" fill="#FB8628" /><path d="M819.517761 435.975768a17.499119 14.165953 73.6 1 0 9.881453 33.574298 17.499119 14.165953 73.6 1 0-9.881453-33.574298Z" fill="#FCD430" /><path d="M490.546729 560.495588c42.057406-36.664821 40.069411-67.413272-5.952081-92.25726 29.28424-18.808577 59.520813-9.999497 76.18664 19.76091 23.927367 42.974027-24.522575 97.137966-70.234559 72.49635z" fill="#FA7621" /><path d="M484.594648 468.238328c46.021492 24.843987 48.009487 55.592439 5.952081 92.25726-39.128982-27.772411-41.116977-58.520863-5.952081-92.25726z" fill="#FC9743" /><path d="M676.608789 672.632799c-7.46391-1.976091-12.380329-5.74971-14.761161-11.308955-1.261841-2.91652-0.440454-6.89251 2.142749-10.356621 26.903407-35.069663 44.676322-74.591482 53.330648-118.565459 0.71425-4.047415 3.178411-7.285347 6.428248-8.451955 17.618161-6.309206 22.022701 11.189913 19.998993 24.641616-7.309156 46.509563-26.629612 86.948003-57.973272 121.303416a9.463809 9.463809 0 0 1-9.166205 2.737958z" fill="#B6ADB6" /><path d="M799.77909 629.019557a13.92787 17.261036 8.6 1 0-5.162269 34.133919 13.92787 17.261036 8.6 1 0 5.162269-34.133919Z" fill="#FCD430" /><path d="M189.728542 476.452201c13.451704-26.308199 40.950319 11.070871 15.35637 25.474907a8.80908 8.80908 0 0 1-10.23758-1.190416c-8.023406-7.213922-9.725701-15.308753-5.11879-24.284491z" fill="#FCD430" /></svg>