<?xml version="1.0" standalone="no"?><!DOCTYPE svg PUBLIC "-//W3C//DTD SVG 1.1//EN" "http://www.w3.org/Graphics/SVG/1.1/DTD/svg11.dtd"><svg class="icon" width="200px" height="200.00px" viewBox="0 0 1024 1024" version="1.1" xmlns="http://www.w3.org/2000/svg"><path d="M512 984.816c140.392 0 254.2-113.584 254.2-253.712 0-248.2-113.944-617.36-254.208-617.36-140.256 0-254.208 369.16-254.208 617.36 0 140.128 113.808 253.712 254.208 253.712z" fill="#FFD553" /><path d="M334 503.744a30.072 30.016 0 1 0 60.144 0 30.072 30.016 0 1 0-60.144 0Z" fill="#3F4963" /><path d="M396.248 599.12h-64.344c-8.792 0-15.92-7.12-15.92-15.888 0-8.776 7.136-15.888 15.92-15.888h64.344c8.8 0 15.92 7.112 15.92 15.888s-7.128 15.888-15.92 15.888z" fill="#FF6376" /><path d="M629.856 503.744a30.072 30.016 0 1 0 60.144 0 30.072 30.016 0 1 0-60.144 0Z" fill="#3F4963" /><path d="M692.088 599.12h-64.336c-8.8 0-15.92-7.12-15.92-15.888 0-8.776 7.12-15.888 15.92-15.888h64.336c8.8 0 15.92 7.112 15.92 15.888s-7.128 15.888-15.92 15.888z" fill="#FF6376" /><path d="M482.104 573.584c-25.256 0-45.816-20.512-45.816-45.72 0-8.776 7.128-15.888 15.92-15.888s15.92 7.12 15.92 15.888a13.976 13.976 0 0 0 27.952 0c0-8.776 7.12-15.888 15.92-15.888 8.792 0 15.92 7.12 15.92 15.888 0 25.208-20.56 45.72-45.816 45.72z" fill="#3F4963" /><path d="M541.896 573.584c-25.264 0-45.816-20.512-45.816-45.72 0-8.776 7.128-15.888 15.92-15.888 8.8 0 15.92 7.12 15.92 15.888a13.976 13.976 0 0 0 27.944 0c0-8.776 7.128-15.888 15.92-15.888s15.92 7.12 15.92 15.888c0 25.208-20.552 45.72-45.808 45.72z" fill="#3F4963" /><path d="M522.192 376.144c-8.792 0-15.92-7.12-15.92-15.888v-157.2c0-8.776 7.128-15.88 15.92-15.88 8.8 0 15.92 7.112 15.92 15.88v157.2c0 8.776-7.12 15.888-15.92 15.888zM581.232 376.144c-8.8 0-15.92-7.12-15.92-15.888v-114.48c0-8.776 7.12-15.88 15.92-15.88 8.792 0 15.92 7.112 15.92 15.88v114.48a15.904 15.904 0 0 1-15.92 15.888z" fill="#2F3953" /><path d="M629.848 348.36H494.36a15.904 15.904 0 0 1-15.92-15.88c0-8.784 7.136-15.888 15.92-15.888h135.488c8.8 0 15.92 7.112 15.92 15.888s-7.128 15.88-15.92 15.88zM609.064 289.44H494.352a15.904 15.904 0 0 1-15.92-15.88c0-8.776 7.136-15.888 15.92-15.888h114.696c8.8 0 15.92 7.12 15.92 15.888 0 8.776-7.12 15.888-15.92 15.888zM481.504 813.192c-8.8 0-15.92-7.112-15.92-15.888V657.8c0-8.776 7.128-15.88 15.92-15.88s15.92 7.112 15.92 15.88v139.504c0 8.776-7.12 15.888-15.92 15.888zM422.472 813.192c-8.8 0-15.92-7.112-15.92-15.888v-114.48c0-8.768 7.12-15.88 15.92-15.88 8.792 0 15.92 7.112 15.92 15.888v114.48c0 8.768-7.128 15.88-15.92 15.88z" fill="#2F3953" /><path d="M509.336 785.416H373.848c-8.792 0-15.92-7.112-15.92-15.888s7.136-15.888 15.92-15.888h135.488c8.8 0 15.92 7.12 15.92 15.888 0 8.776-7.12 15.888-15.92 15.888zM509.336 726.496H394.64c-8.8 0-15.92-7.12-15.92-15.888 0-8.776 7.128-15.888 15.92-15.888h114.696c8.8 0 15.92 7.12 15.92 15.888 0 8.776-7.12 15.888-15.92 15.888z" fill="#2F3953" /><path d="M420.664 725.912c88.504 88.32 165.464 215.56 110.96 269.944-54.48 54.4-181.976-22.4-270.472-110.744C172.648 796.792 140.256 677.2 129.416 621.072c-4.672-24.096 2.344-31.32 26.68-26.648 56.264 10.84 176.08 43.168 264.568 131.488z" fill="#46C79C" /><path d="M603.328 725.912c-88.496 88.32-165.456 215.56-110.96 269.944 54.488 54.4 181.976-22.4 270.48-110.744 88.504-88.32 120.896-207.904 131.736-264.04 4.664-24.096-2.352-31.32-26.68-26.648-56.264 10.84-176.08 43.168-264.576 131.488z" fill="#6CF5C5" /><path d="M618.936 885.424a15.896 15.896 0 0 1-11.256-27.12L786.568 679.76a15.944 15.944 0 0 1 22.512 0 15.872 15.872 0 0 1 0 22.472l-178.88 178.536a15.896 15.896 0 0 1-11.264 4.656z" fill="#46C79C" /><path d="M405.064 885.424c-4.08 0-8.152-1.552-11.264-4.656L214.92 702.24a15.872 15.872 0 0 1 0-22.472 15.944 15.944 0 0 1 22.504 0l178.888 178.536a15.872 15.872 0 0 1-11.256 27.12z" fill="#28785C" /><path d="M364.056 465.76a30.048 30.048 0 0 0-30.072 30.008 30.048 30.048 0 0 0 30.08 30.016 30.048 30.048 0 0 0 30.064-30.016 30.048 30.048 0 0 0-30.072-30.008zM482.088 565.6a45.6 45.6 0 0 0 29.888-11.152 45.616 45.616 0 0 0 29.896 11.16c25.264 0 45.816-20.52 45.816-45.728 0-8.776-7.128-15.888-15.92-15.888s-15.92 7.12-15.92 15.888a13.976 13.976 0 0 1-27.944 0c0-8.776-7.128-15.888-15.92-15.888-8.8 0-15.92 7.12-15.92 15.888a13.976 13.976 0 0 1-27.952 0c0-8.776-7.12-15.888-15.92-15.888-8.792 0-15.92 7.12-15.92 15.888 0 25.208 20.552 45.728 45.816 45.728z m177.808-39.816a30.048 30.048 0 0 0 30.08-30.016 30.048 30.048 0 0 0-30.08-30.008 30.04 30.04 0 0 0-30.072 30.008 30.04 30.04 0 0 0 30.08 30.016zM237.408 671.776a15.944 15.944 0 0 0-22.512 0 15.872 15.872 0 0 0 0 22.472l178.88 178.536c3.12 3.104 7.192 4.656 11.264 4.656 4.08 0 8.144-1.552 11.256-4.656a15.872 15.872 0 0 0 0-22.464L237.408 671.776z m667.608-92.2c-5.68-6.88-14.16-10.368-25.16-10.368-4.384 0-9.28 0.536-14.992 1.632a623.96 623.96 0 0 0-91.152 24.944c-14.456-117.16-45.76-235.872-86.904-328.624-46.704-105.296-100.84-165.52-157.496-175.728 6.712-33.944 36.8-59.656 72.704-59.656 40.88 0 74.136 33.192 74.136 73.984 0 8.776 7.12 15.888 15.92 15.888 8.792 0 15.92-7.12 15.92-15.888C707.984 47.44 660.44 0 602.016 0c-37.936 0-71.32 20.072-90.04 50.128C493.256 20.072 459.864 0 421.936 0 363.52 0 315.968 47.44 315.968 105.76c0 8.776 7.128 15.888 15.92 15.888 8.8 0 15.92-7.112 15.92-15.888 0-40.8 33.256-73.984 74.128-73.984 35.912 0 66 25.712 72.72 59.664-56.672 10.2-110.8 70.416-157.52 175.72C296 359.92 264.696 478.64 250.24 595.784a623.584 623.584 0 0 0-91.16-24.944c-11.36-2.184-27.72-3.84-38.456 6.88-10.736 10.72-9.056 27.04-6.864 38.376 12.192 63.12 46.088 182.432 136.12 272.264 43.048 42.984 91.28 79.784 135.792 103.632 37.296 19.984 69.92 30.008 97.456 30.008 10.32 0 19.92-1.44 28.8-4.248 8.752 2.768 18.32 4.176 28.688 4.176h0.008c73.552 0 171.736-71.952 233.456-133.568 90.032-89.84 123.92-209.144 136.112-272.256 2.208-11.424 3.624-25.896-5.176-36.528zM366.256 280.024c45.296-102.136 97.048-158.376 145.712-158.376 48.672 0 100.416 56.24 145.72 158.376 40.256 90.744 71.888 212.4 85.384 327.696-50.352 21.256-104.616 52.664-151.016 98.968-30.576 30.528-58.144 63.864-80.064 96.448-22.024-32.68-49.84-66.248-80.088-96.448-46.408-46.312-100.672-77.712-151.04-98.976 13.512-115.296 45.136-236.944 85.392-327.688z m113.56 578.824c-31.944 67.488-23.344 107.504-6.88 130.624-20.352-2.28-44.936-10.856-72.208-25.472-41.84-22.416-87.424-57.264-128.336-98.104C188.368 782.056 156.528 669.632 145.032 610.08c-0.88-4.488-1.08-7.36-1.072-9.096 1.688 0.016 4.608 0.192 9.104 1.056 59.68 11.504 172.344 43.312 256.32 127.12 32.616 32.552 62.176 69.08 84.048 103.76a373.728 373.728 0 0 0-13.624 25.92z m399.12-248.768c-11.504 59.552-43.352 171.968-127.368 255.816-74.456 74.32-159.232 124.256-210.944 124.256h-0.008c-15.8 0-27.904-4.424-37.016-13.52-13.728-13.696-24.008-42.904 5-104.216 21.36-45.144 59.984-97.36 105.968-143.256C698.544 645.36 811.2 613.544 870.88 602.04a49.936 49.936 0 0 1 8.96-1.056H880c0 1.736-0.2 4.608-1.064 9.096z m-92.392 61.696l-178.88 178.544a15.872 15.872 0 0 0 11.256 27.12c4.072 0 8.144-1.552 11.256-4.656l178.888-178.536a15.872 15.872 0 0 0 0-22.472 15.952 15.952 0 0 0-22.512 0z" fill="#000000" /></svg>