<?xml version="1.0" standalone="no"?><!DOCTYPE svg PUBLIC "-//W3C//DTD SVG 1.1//EN" "http://www.w3.org/Graphics/SVG/1.1/DTD/svg11.dtd"><svg class="icon" width="200px" height="200.00px" viewBox="0 0 1024 1024" version="1.1" xmlns="http://www.w3.org/2000/svg"><path d="M508.213034 0.023163v732.038057h142.943577v-2.504121a120.406488 120.406488 0 0 1 53.908162-99.399695A344.594881 344.594881 0 0 0 508.213034 0.023163z" fill="#FF9C39" /><path d="M508.213034 0.023163h-9.877367a344.66444 344.66444 0 0 0-179.114214 630.2038 120.8934 120.8934 0 0 1 53.699485 100.164843v1.87809H508.213034z" fill="#FFCB39" /><path d="M652.965143 732.06122H508.213034v84.374968h137.726658a22.050177 22.050177 0 0 0 22.050177-22.050177v-47.64786a14.676932 14.676932 0 0 0-15.024726-14.676931z" fill="#2EB9FF" /><path d="M372.920938 732.06122h-2.643239a22.050177 22.050177 0 0 0-22.050178 22.050177v40.274614a22.050177 22.050177 0 0 0 22.050178 22.050177H508.213034v-84.374968z" fill="#5FD9FF" /><path d="M508.213034 1024h46.604475a82.635995 82.635995 0 0 0 82.635995-82.635995v-42.222263a82.635995 82.635995 0 0 0-82.635995-82.705554H508.213034z" fill="#2EB9FF" /><path d="M469.329598 816.436188a82.635995 82.635995 0 0 0-82.635995 82.705554v42.222263a82.635995 82.635995 0 0 0 82.635995 82.635995H508.213034v-207.563812z" fill="#48CBFF" /><path d="M370.277699 816.436188a22.119736 22.119736 0 0 0-22.050178 22.119736v40.274613a22.050177 22.050177 0 0 0 22.050178 22.050178H508.213034v-84.444527z" fill="#2793FF" /><path d="M645.661456 816.436188H508.213034v84.444527h137.726658a22.050177 22.050177 0 0 0 22.050177-22.050178v-40.274613a22.119736 22.119736 0 0 0-22.328413-22.119736z" fill="#0068FF" /><path d="M507.656562 502.308112l-153.446974-182.939955 22.53709-18.920026L508.213034 457.164374l137.865776-156.994478 22.119736 19.476497-160.541984 182.661719z" fill="#FFF48D" /><path d="M493.257866 479.701464h29.423423v252.359756h-29.423423z" fill="#FFF48D" /></svg>