<?xml version="1.0" standalone="no"?><!DOCTYPE svg PUBLIC "-//W3C//DTD SVG 1.1//EN" "http://www.w3.org/Graphics/SVG/1.1/DTD/svg11.dtd"><svg class="icon" width="200px" height="200.00px" viewBox="0 0 1024 1024" version="1.1" xmlns="http://www.w3.org/2000/svg"><path d="M714.8 369.8m-309.5 0a309.5 309.5 0 1 0 619 0 309.5 309.5 0 1 0-619 0Z" fill="#FC751A" /><path d="M996 733.5L818.4 467.2c-8.8-13.2-28.1-13.2-36.9 0L652.9 660 369.6 235c-8.8-13.2-28.1-13.2-36.9 0L0.3 733.5H996z" fill="#D2D7DB" /><path d="M934.6 838.8H61.7c-11.1 0-20.1-9-20.1-20.1 0-11.1 9-20.1 20.1-20.1h872.9c11.1 0 20.1 9 20.1 20.1 0 11-9 20.1-20.1 20.1zM841.7 962.6H154.6c-11.1 0-20.1-9-20.1-20.1 0-11.1 9-20.1 20.1-20.1h687.1c11.1 0 20.1 9 20.1 20.1 0 11.1-9 20.1-20.1 20.1z" fill="#009145" /></svg>