<?xml version="1.0" standalone="no"?><!DOCTYPE svg PUBLIC "-//W3C//DTD SVG 1.1//EN" "http://www.w3.org/Graphics/SVG/1.1/DTD/svg11.dtd"><svg class="icon" width="200px" height="180.12px" viewBox="0 0 1137 1024" version="1.1" xmlns="http://www.w3.org/2000/svg"><path d="M0 506.510163l91.916773 51.056024V222.555835L0 279.744954v226.765209z" fill="#0C4A6D" /><path d="M73.039584 234.344122v312.708188l18.877189 10.513877V222.555835l-18.877189 11.788287z" fill="#146082" /><path d="M629.239605 61.98026v634.974447c0 60.773395 232.898304 77.659318 232.898304 46.993844V15.066067C862.376861-15.838359 629.239605 1.286516 629.239605 61.98026z" fill="#5ABCFF" /><path d="M838.402035 2.401624V756.772295c14.735358-2.389517 23.895175-6.610998 23.895175-12.664443V15.066067c0.079651-6.133095-9.159817-10.274925-23.895175-12.664443z" fill="#2E95CE" /><path d="M917.900906 523.379896m13.560728-10.844775l19.159193-15.321977q13.560728-10.844776 24.405503 2.715952l100.786767 126.02768q10.844776 13.560728-2.715952 24.405503l-19.159193 15.321977q-13.560728 10.844776-24.405504-2.715952l-100.786767-126.02768q-10.844776-13.560728 2.715953-24.405503Z" fill="#FF9545" /><path d="M917.962394 188.82484m10.844775-13.560727l100.786767-126.02768q10.844776-13.560728 24.405503-2.715952l19.159194 15.321976q13.560728 10.844776 2.715952 24.405503l-100.786767 126.02768q-10.844776 13.560728-24.405504 2.715952l-19.159193-15.321976q-13.560728-10.844776-2.715952-24.405503Z" fill="#FF9545" /><path d="M941.065002 389.835298m0.027275-17.363806l0.038536-24.532349q0.027275-17.363806 17.39108-17.336531l161.371882 0.253483q17.363806 0.027275 17.336531 17.39108l-0.038536 24.53235q-0.027275 17.363806-17.39108 17.33653l-161.371882-0.253482q-17.363806-0.027275-17.336531-17.391081Z" fill="#FF9545" /><path d="M113.183478 554.858067l93.430134 14.894659 104.820167 389.013447a89.447605 89.447605 0 0 0 67.862297 62.366406L332.14293 589.506071z" fill="#FF761A" /><path d="M599.370636 632.278434L345.603879 591.895588 493.833614 978.439867a86.420882 86.420882 0 0 0 14.098153-72.561681L426.847473 604.958284l172.523163 27.559101z" fill="#FFC73B" /><path d="M332.14293 589.506071l47.153146 431.387556a111.032912 111.032912 0 0 0 54.003095-1.035457 108.245142 108.245142 0 0 0 60.534443-41.657255L345.603879 591.895588z" fill="#FFAF3B" /><path d="M374.357739 392.052276c-116.369502-52.011831-197.453795-63.720466-260.935309-55.038553v217.844344l485.868555 77.420367v-191.161399C542.420469 446.135021 467.947174 434.107783 374.357739 392.052276z" fill="#0090FF" /><path d="M113.183478 219.847716V337.013723c63.720466-8.602263 144.565808 3.026722 260.93531 55.038553C467.947174 434.107783 542.420469 446.135021 599.370636 441.117035V144.259312z" fill="#1DA2FC" /></svg>