<?xml version="1.0" standalone="no"?><!DOCTYPE svg PUBLIC "-//W3C//DTD SVG 1.1//EN" "http://www.w3.org/Graphics/SVG/1.1/DTD/svg11.dtd"><svg class="icon" width="200px" height="199.80px" viewBox="0 0 1025 1024" version="1.1" xmlns="http://www.w3.org/2000/svg"><path d="M646 483.8m-379 0a379 379 0 1 0 758 0 379 379 0 1 0-758 0Z" fill="#FEC401" /><path d="M696.381996 715.076121a54.1 27.1 19.962 1 0 18.503709-50.943624 54.1 27.1 19.962 1 0-18.503709 50.943624Z" fill="#E4E4E4" /><path d="M522.6 457.4l-171 7.3s-195.9 19.4-285 87.4-73.2 90.8-35.5 94.6" fill="#E4E4E4" /><path d="M668.3 672.6s121.2-6.9 62.4-120.2c0 0-69.8-120.9-244.1-90.8 0 0-91.6 11-116.5 16.1S117.6 521.2 29.5 649.1c0 0-36.9 58.6 78.4 29.3 115.2-29.3 196.4-110.3 196.4-110.3s56.3-53.3 184.8-74.9c-0.1 0-46 151.1 179.2 179.4z" fill="#EFEFEF" /><path d="M663.6 672s63.9 25.3 69.6 63.6c0 0-4.8 7.3-26.6 10.1s-234.7 14.7-294.5 32.2-144.3 38.6-296.6 119.8c0 0-43.9 26.7-61.8 18.8-17.9-8-2-103 176.1-208.4 0 0 130.3-69.4 311.2-78.3" fill="#EFEFEF" /><path d="M283.6 684.5s-7.9-37.2-41.9-24.6c-14.3 5.3-32.5 24.4-13.9 49.4" fill="#E4E4E4" /></svg>