<?xml version="1.0" standalone="no"?><!DOCTYPE svg PUBLIC "-//W3C//DTD SVG 1.1//EN" "http://www.w3.org/Graphics/SVG/1.1/DTD/svg11.dtd"><svg class="icon" width="200px" height="200.00px" viewBox="0 0 1024 1024" version="1.1" xmlns="http://www.w3.org/2000/svg"><path d="M570.3 788.5c0-81.1 50.8-150.6 122.2-178.3V225.3h-542V831h424.6c-3.1-13.7-4.8-27.9-4.8-42.5z" fill="#E6EBEF" /><path d="M480 140.3c0-32.3-26.2-58.4-58.4-58.4s-58.4 26.2-58.4 58.4h-79.7v47.8h276.3v-47.8H480z" fill="#9ADCCF" /><path d="M246.2 379.4m-42.5 0a42.5 42.5 0 1 0 85 0 42.5 42.5 0 1 0-85 0Z" fill="#FF7A51" /><path d="M246.2 581.3m-42.5 0a42.5 42.5 0 1 0 85 0 42.5 42.5 0 1 0-85 0Z" fill="#FF7A51" /><path d="M761.6 788.5m-116.9 0a116.9 116.9 0 1 0 233.8 0 116.9 116.9 0 1 0-233.8 0Z" fill="#FF7A51" /><path d="M246.2 437.8c32.2 0 58.4-26.2 58.4-58.4S278.4 321 246.2 321s-58.4 26.2-58.4 58.4 26.1 58.4 58.4 58.4z m0-85c14.6 0 26.6 11.9 26.6 26.6S260.9 406 246.2 406c-14.6 0-26.6-11.9-26.6-26.6s11.9-26.6 26.6-26.6zM246.2 639.7c32.2 0 58.4-26.2 58.4-58.4s-26.2-58.4-58.4-58.4-58.4 26.2-58.4 58.4c-0.1 32.2 26.1 58.4 58.4 58.4z m0-85c14.6 0 26.6 11.9 26.6 26.6 0 14.6-11.9 26.6-26.6 26.6-14.6 0-26.6-11.9-26.6-26.6 0-14.7 11.9-26.6 26.6-26.6zM421.5 129.6c-8.8 0-15.9 7.1-15.9 15.9v21.3c0 8.8 7.1 15.9 15.9 15.9s15.9-7.1 15.9-15.9v-21.3c0.1-8.7-7.1-15.9-15.9-15.9zM543.7 852.3H145.2c-8.8 0-15.9-7.2-15.9-15.9V762c0-8.8-7.1-15.9-15.9-15.9s-15.9 7.1-15.9 15.9v74.4c0 26.4 21.5 47.8 47.8 47.8h398.5c8.8 0 15.9-7.1 15.9-15.9s-7.2-16-16-16zM639.4 204h58.4c8.8 0 15.9 7.2 15.9 15.9V560c0 8.8 7.1 15.9 15.9 15.9s15.9-7.1 15.9-15.9V220c0-26.4-21.5-47.8-47.8-47.8h-58.4c-8.8 0-15.9 7.1-15.9 15.9s7.2 15.9 16 15.9z" fill="#4F3D3B" /><path d="M559.7 124.3h-65.5c-7.3-33.4-37.1-58.4-72.7-58.4s-65.4 25.1-72.7 58.4h-65.5c-8.8 0-15.9 7.1-15.9 15.9v31.9H145.2c-26.4 0-47.8 21.5-47.8 47.8v464c0 8.8 7.1 15.9 15.9 15.9s15.9-7.1 15.9-15.9V220c0-8.8 7.2-15.9 15.9-15.9h122.2V236c0 8.8 7.1 15.9 15.9 15.9h276.3c8.8 0 15.9-7.1 15.9-15.9v-95.6c0.2-8.9-6.9-16.1-15.7-16.1z m-16 95.7H299.3v-63.8h63.8c8.8 0 15.9-7.1 15.9-15.9 0-23.4 19.1-42.5 42.5-42.5s42.5 19.1 42.5 42.5c0 8.8 7.1 15.9 15.9 15.9h63.8V220z" fill="#4F3D3B" /><path d="M357.7 358.1h138.2c8.8 0 15.9-7.1 15.9-15.9s-7.1-15.9-15.9-15.9H357.7c-8.8 0-15.9 7.1-15.9 15.9s7.1 15.9 15.9 15.9zM559.7 400.6h-202c-8.8 0-15.9 7.1-15.9 15.9s7.1 15.9 15.9 15.9h201.9c8.8 0 15.9-7.1 15.9-15.9 0.1-8.7-7-15.9-15.8-15.9zM761.6 618.5c-93.8 0-170 76.3-170 170s76.3 170 170 170 170-76.3 170-170-76.3-170-170-170z m0 308.2c-76.2 0-138.2-62-138.2-138.2s62-138.2 138.2-138.2 138.2 62 138.2 138.2-62 138.2-138.2 138.2zM357.7 560h138.2c8.8 0 15.9-7.1 15.9-15.9s-7.1-15.9-15.9-15.9H357.7c-8.8 0-15.9 7.1-15.9 15.9s7.1 15.9 15.9 15.9zM559.7 602.5h-202c-8.8 0-15.9 7.1-15.9 15.9s7.1 15.9 15.9 15.9h201.9c8.8 0 15.9-7.1 15.9-15.9 0.1-8.7-7-15.9-15.8-15.9z" fill="#4F3D3B" /><path d="M761.6 708.8c-8.8 0-15.9 7.1-15.9 15.9v74.4c0 8.8 7.1 15.9 15.9 15.9s15.9-7.1 15.9-15.9v-74.4c0-8.8-7.1-15.9-15.9-15.9zM761.6 833.7c-8.8 0-15.9 7.1-15.9 15.9v5.3c0 8.8 7.1 15.9 15.9 15.9s15.9-7.1 15.9-15.9v-5.3c0-8.8-7.1-15.9-15.9-15.9z" fill="#4F3D3B" /></svg>