<?xml version="1.0" standalone="no"?><!DOCTYPE svg PUBLIC "-//W3C//DTD SVG 1.1//EN" "http://www.w3.org/Graphics/SVG/1.1/DTD/svg11.dtd"><svg class="icon" width="200px" height="200.00px" viewBox="0 0 1024 1024" version="1.1" xmlns="http://www.w3.org/2000/svg"><path d="M937.714493 526.567597H86.285507v-117.800031c0-155.087247 85.006369-298.244706 221.867551-373.402372l15.32315 27.836173C196.795112 132.858075 118.098276 265.265469 118.098276 408.767566v85.987262h787.803448v-85.987262c0-145.371097-80.194688-278.587066-209.288251-347.647284l15.005022-28.061513A430.108631 430.108631 0 0 1 874.977062 186.992803a423.242376 423.242376 0 0 1 62.737431 221.774763z" fill="#33241A" /><path d="M746.930668 1016.046808H275.902863a39.408067 39.408067 0 0 1-39.275514-36.120748L189.968622 422.844716h642.883032L786.166416 979.92606a39.408067 39.408067 0 0 1-39.235748 36.120748z" fill="#AEE4F5" /><path d="M746.930668 1024H275.902863a47.639621 47.639621 0 0 1-47.202195-43.411174L181.326153 414.891524h660.181225L794.119609 980.588826a47.639621 47.639621 0 0 1-47.188941 43.411174zM198.624346 430.797908l45.929685 548.465386a31.640449 31.640449 0 0 0 31.348832 28.830322H746.930668a31.640449 31.640449 0 0 0 31.348833-28.830322L824.209186 430.797908z" fill="#33241A" /><path d="M784.748097 422.844716l-46.658727 557.081344a39.408067 39.408067 0 0 1-39.275514 36.120748h48.116812a39.408067 39.408067 0 0 0 39.235748-36.120748L832.86491 422.844716z" fill="#64CAE2" /><path d="M234.108839 422.844716l46.658727 557.081344a39.408067 39.408067 0 0 0 39.275514 36.120748h-48.116813a39.408067 39.408067 0 0 1-39.275514-36.120748L185.992026 422.844716z" fill="#FFFFFF" /><path d="M305.356185 7.953192l413.274375 0 0 84.83405-413.274375 0 0-84.83405Z" fill="#FF7997" /><path d="M676.22679 100.740434H347.77321a50.370217 50.370217 0 0 1 0-100.740434h328.45358a50.370217 50.370217 0 0 1 0 100.740434zM347.77321 15.906384a34.463833 34.463833 0 0 0 0 68.927666h328.45358a34.463833 34.463833 0 0 0 0-68.927666z" fill="#33241A" /><path d="M676.22679 5.302128H347.77321a42.417025 42.417025 0 0 0-42.417025 42.417025 42.735152 42.735152 0 0 0 1.590638 11.492363 42.417025 42.417025 0 0 1 40.826387-30.937918h328.45358a42.417025 42.417025 0 0 1 40.826387 30.937918 42.218195 42.218195 0 0 0 1.590638-11.492363 42.417025 42.417025 0 0 0-42.417025-42.417025z" fill="#FFFFFF" /><path d="M676.22679 94.364625H347.77321a42.417025 42.417025 0 0 1-42.417025-42.417025 42.562833 42.562833 0 0 1 1.590638-11.479107 42.417025 42.417025 0 0 0 40.826387 30.924662h328.45358a42.417025 42.417025 0 0 0 40.826387-30.924662 42.045876 42.045876 0 0 1 1.590638 11.479107 42.417025 42.417025 0 0 1-42.417025 42.417025z" fill="#E85D88" /><path d="M574.081292 969.255527h-57.35577a7.953192 7.953192 0 0 1 0-15.906384H574.081292a7.953192 7.953192 0 0 1 0 15.906384zM782.415161 969.255527H639.032362a7.953192 7.953192 0 0 1 0-15.906384h143.382799a7.953192 7.953192 0 0 1 0 15.906384z" fill="#33241A" /><path d="M746.930668 1024H275.902863a47.639621 47.639621 0 0 1-47.202195-43.411174L181.326153 414.891524h660.181225L794.119609 980.588826a47.639621 47.639621 0 0 1-47.188941 43.411174zM198.624346 430.797908l45.929685 548.465386a31.640449 31.640449 0 0 0 31.348832 28.830322H746.930668a31.640449 31.640449 0 0 0 31.348833-28.830322L824.209186 430.797908z" fill="#33241A" /><path d="M142.67364 375.364159l738.65272 0 0 79.492155-738.65272 0 0-79.492155Z" fill="#AEE4F5" /><path d="M841.58691 462.809507H182.426345a47.719153 47.719153 0 1 1 0-95.438306h659.160565a47.719153 47.719153 0 0 1 0 95.438306z m-659.160565-79.531922a31.812769 31.812769 0 1 0 0 63.625537h659.160565a31.812769 31.812769 0 0 0 0-63.625537z" fill="#33241A" /><path d="M841.58691 370.062031H182.426345a39.765961 39.765961 0 0 0-39.765961 39.765961 39.553876 39.553876 0 0 0 2.279915 13.25532 39.765961 39.765961 0 0 1 37.472791-26.510641h659.17382a39.765961 39.765961 0 0 1 37.472791 26.510641 39.885259 39.885259 0 0 0 2.266659-13.25532 39.765961 39.765961 0 0 0-39.73945-39.765961z" fill="#FFFFFF" /><path d="M841.58691 461.841868H182.426345a39.765961 39.765961 0 0 1-39.765961-39.765961 39.553876 39.553876 0 0 1 2.279915-13.25532 39.765961 39.765961 0 0 0 37.472791 26.510641h659.17382a39.765961 39.765961 0 0 0 37.472791-26.510641 39.885259 39.885259 0 0 1 2.266659 13.25532 39.765961 39.765961 0 0 1-39.73945 39.765961z" fill="#64CAE2" /><path d="M841.58691 462.809507H182.426345a47.719153 47.719153 0 1 1 0-95.438306h659.160565a47.719153 47.719153 0 0 1 0 95.438306z m-659.160565-79.531922a31.812769 31.812769 0 1 0 0 63.625537h659.160565a31.812769 31.812769 0 0 0 0-63.625537z" fill="#33241A" /><path d="M267.154352 454.856314v172.809611a25.46347 25.46347 0 0 0 50.781132 2.743851v-33.138301a25.569513 25.569513 0 1 1 51.086004-1.749702v26.948066l0.172319 214.39155h-0.185574v13.02998a25.476726 25.476726 0 1 0 50.940196 0V637.978564a25.46347 25.46347 0 1 1 50.92694 0V672.044737a25.46347 25.46347 0 0 0 50.688345 3.472894V530.61047a25.46347 25.46347 0 1 1 50.92694 0l0.251851 68.675814v4.13566a25.46347 25.46347 0 1 0 50.92694 0V454.856314z" fill="#F7C11C" /><path d="M394.484958 883.268265a33.456428 33.456428 0 0 1-33.416662-33.429918V828.855175h0.172319l-0.159064-206.438357h0.106043c-0.106043-1.325532-0.106043-2.651064-0.106043-4.042873v-22.905193a17.497023 17.497023 0 0 0-34.967535-0.994149v0.543468a18.21281 18.21281 0 0 0-0.159063 2.200383v34.039662a33.416662 33.416662 0 0 1-66.647751-3.592191V446.903122h372.474499v156.505566a33.403407 33.403407 0 0 1-61.279345 18.438151l-5.434681 10.882618-0.265107-28.194066v-4.930979l-0.251851-68.927666a17.510278 17.510278 0 1 0-35.020556 0v145.424119l-0.079532 0.543468a33.416662 33.416662 0 0 1-66.515197-4.599596v-34.066173a17.510278 17.510278 0 1 0-35.020556 0v211.859783a33.456428 33.456428 0 0 1-33.429918 33.429918zM376.97468 844.76156v5.076787a17.523533 17.523533 0 1 0 35.033812 0V637.978564a33.416662 33.416662 0 1 1 66.833324 0V672.044737a17.510278 17.510278 0 0 0 34.781961 2.876404V530.61047a33.416662 33.416662 0 1 1 66.833324 0l0.251852 68.636048h-5.408171H580.708953v4.13566a17.510278 17.510278 0 1 0 35.020556 0V462.809507h-340.661731v164.856418a17.510278 17.510278 0 0 0 34.874748 2.266659v-32.71413a32.342981 32.342981 0 0 1 0.251851-3.976596 33.403407 33.403407 0 0 1 66.740537 2.173872v20.625279l0.172319 228.667529zM572.75576 599.273029l-7.104851-3.552426z" fill="#33241A" /><path d="M428.630663 612.515093a25.543002 25.543002 0 0 0-25.46347 25.463471v211.846528a25.543002 25.543002 0 0 1-15.084554 23.223321 25.185108 25.185108 0 0 0 10.378915 2.253404 25.556257 25.556257 0 0 0 25.476726-25.476725V637.978564a25.529747 25.529747 0 0 1 15.071299-23.210066 25.185108 25.185108 0 0 0-10.378916-2.253405zM326.763527 569.978771a27.637343 27.637343 0 0 0-25.609279 27.213172v33.138301A25.622534 25.622534 0 0 1 286.215503 650.836224a25.185108 25.185108 0 0 0 10.378915 2.240149 25.556257 25.556257 0 0 0 25.317662-22.719618v-33.138301a28.75079 28.75079 0 0 1 15.243618-24.959768 25.26464 25.26464 0 0 0-10.392171-2.279915zM530.259204 505.146999a25.556257 25.556257 0 0 0-25.476726 25.463471v144.933671a25.582768 25.582768 0 0 1-14.832703 19.737172 25.185108 25.185108 0 0 0 10.378916 2.253405 25.556257 25.556257 0 0 0 25.185108-21.990577V530.61047a25.529747 25.529747 0 0 1 15.084554-23.210066 25.185108 25.185108 0 0 0-10.339149-2.253405zM606.901465 454.856314v148.552374a25.529747 25.529747 0 0 1-15.084554 23.223322 25.185108 25.185108 0 0 0 10.378916 2.253404 25.543002 25.543002 0 0 0 25.46347-25.476726V454.856314z" fill="#EBA017" /><path d="M386.253404 847.187283v-13.02998h0.185575l-0.172319-214.391549v-26.948066A25.529747 25.529747 0 0 0 360.789934 567.327707c-5.713043 0 2.26666 1.922021-1.988298 5.129809a25.43696 25.43696 0 0 1 10.219852 20.333661v26.948066l0.172319 214.39155h1.139958l-1.325532 13.02998c0 14.010874-1.789468 25.476726 12.20815 25.476725a25.26464 25.26464 0 0 0 15.243618-5.143064 25.46347 25.46347 0 0 1-10.206597-20.307151zM284.386268 625.01486V452.20525h-17.231916v172.80961c0 14.010874-1.789468 25.46347 12.20815 25.463471a25.291151 25.291151 0 0 0 15.270129-5.116554 25.410449 25.410449 0 0 1-10.246363-20.346917zM589.987677 600.757624v-4.13566l-0.251851-68.675814A25.383938 25.383938 0 0 0 549.028737 507.678766c6.190235 4.652617 23.475172 12.035831 23.475172 20.320406l1.577383 68.636048h-1.325532v4.13566c0 14.010874-1.789468 25.476726 12.20815 25.476725a25.26464 25.26464 0 0 0 15.243619-5.143064 25.423704 25.423704 0 0 1-10.219852-20.346917zM488.120541 669.393673v-34.066173a25.543002 25.543002 0 0 0-25.463471-25.463471 25.26464 25.26464 0 0 0-15.243618 5.143065c6.176979 4.652617 23.475172 12.035831 23.475172 20.320406V669.393673c0 14.010874-1.789468 25.46347 12.20815 25.46347a25.291151 25.291151 0 0 0 15.256874-5.129809 25.43696 25.43696 0 0 1-10.233107-20.333661z" fill="#FFFFFF" /><path d="M394.484958 883.268265a33.456428 33.456428 0 0 1-33.416662-33.429918V828.855175h0.172319l-0.159064-206.438357h0.106043c-0.106043-1.325532-0.106043-2.651064-0.106043-4.042873v-22.905193a17.497023 17.497023 0 0 0-34.967535-0.994149v0.543468a18.21281 18.21281 0 0 0-0.159063 2.200383v34.039662a33.416662 33.416662 0 0 1-66.647751-3.592191V446.903122h372.474499v156.505566a33.403407 33.403407 0 0 1-61.279345 18.438151l-5.434681 10.882618-0.265107-28.194066v-4.930979l-0.251851-68.927666a17.510278 17.510278 0 1 0-35.020556 0v145.424119l-0.079532 0.543468a33.416662 33.416662 0 0 1-66.515197-4.599596v-34.066173a17.510278 17.510278 0 1 0-35.020556 0v211.859783a33.456428 33.456428 0 0 1-33.429918 33.429918zM376.97468 844.76156v5.076787a17.523533 17.523533 0 1 0 35.033812 0V637.978564a33.416662 33.416662 0 1 1 66.833324 0V672.044737a17.510278 17.510278 0 0 0 34.781961 2.876404V530.61047a33.416662 33.416662 0 1 1 66.833324 0l0.251852 68.636048h-5.408171H580.708953v4.13566a17.510278 17.510278 0 1 0 35.020556 0V462.809507h-340.661731v164.856418a17.510278 17.510278 0 0 0 34.874748 2.266659v-32.71413a32.342981 32.342981 0 0 1 0.251851-3.976596 33.403407 33.403407 0 0 1 66.740537 2.173872v20.625279l0.172319 228.667529zM572.75576 599.273029l-7.104851-3.552426zM676.22679 100.740434H347.77321a50.370217 50.370217 0 0 1 0-100.740434h328.45358a50.370217 50.370217 0 0 1 0 100.740434zM347.77321 15.906384a34.463833 34.463833 0 0 0 0 68.927666h328.45358a34.463833 34.463833 0 0 0 0-68.927666z" fill="#33241A" /></svg>