<?xml version="1.0" standalone="no"?><!DOCTYPE svg PUBLIC "-//W3C//DTD SVG 1.1//EN" "http://www.w3.org/Graphics/SVG/1.1/DTD/svg11.dtd"><svg class="icon" width="200px" height="200.00px" viewBox="0 0 1024 1024" version="1.1" xmlns="http://www.w3.org/2000/svg"><path d="M205.385582 560.33449H83.085404V298.509529h122.300178a58.969586 58.969586 0 0 1 39.770185 55.774257v150.276446a58.969586 58.969586 0 0 1-39.770185 55.774258z" fill="#F7C11C" /><path d="M206.770681 568.562804H74.857089V290.281214h131.913592l1.371386 0.452558a67.1979 67.1979 0 0 1 45.255729 63.550014v150.276446a67.280183 67.280183 0 0 1-45.255729 63.563728z m-115.456963-16.456629h112.645623a50.741271 50.741271 0 0 0 32.913257-47.545943V354.283786a50.741271 50.741271 0 0 0-32.913257-47.545943H91.313718z" fill="#33241A" /><path d="M204.014196 298.509529H186.652453a58.969586 58.969586 0 0 1 39.770186 55.774257v150.276446a58.969586 58.969586 0 0 1-39.770186 55.774258h17.361743a58.969586 58.969586 0 0 0 39.770186-55.774258V354.283786a58.969586 58.969586 0 0 0-39.770186-55.774257z" fill="#EBA017" /><path d="M87.885254 298.509529H107.770346V560.348203H87.885254z" fill="#FFFFFF" /><path d="M206.770681 568.562804H74.857089V290.281214h131.913592l1.371386 0.452558a67.1979 67.1979 0 0 1 45.255729 63.550014v150.276446a67.280183 67.280183 0 0 1-45.255729 63.563728z m-115.456963-16.456629h112.645623a50.741271 50.741271 0 0 0 32.913257-47.545943V354.283786a50.741271 50.741271 0 0 0-32.913257-47.545943H91.313718z" fill="#33241A" /><path d="M496.585625 72.683443h56.679371v142.624114h-56.679371z" fill="#FF7997" /><path d="M561.49331 223.535872h-73.136V64.455129h73.136z m-56.679371-16.456629h40.222743V80.911757h-40.222743z" fill="#33241A" /><path d="M496.585625 72.683443h16.634908v142.624114h-16.634908z" fill="#FFFFFF" /><path d="M537.38435 72.683443h16.634908v142.624114h-16.634908z" fill="#E85D88" /><path d="M561.49331 223.535872h-73.136V64.455129h73.136z m-56.679371-16.456629h40.222743V80.911757h-40.222743z" fill="#33241A" /><path d="M765.541791 119.310557l-115.1964-13.124161a1107.736812 1107.736812 0 0 0-250.963586 0l-115.1964 13.124161a54.375444 54.375444 0 0 1-54.224591-54.224591 54.375444 54.375444 0 0 1 54.348016-54.224591l115.1964 13.124161a1107.736812 1107.736812 0 0 0 250.963586 0l115.1964-13.124161a54.389157 54.389157 0 0 1 54.238305 54.224591A54.389157 54.389157 0 0 1 765.541791 119.310557z" fill="#F7C11C" /><path d="M765.541791 127.538872H764.664104l-115.1964-13.124162a1100.852456 1100.852456 0 0 0-249.05736 0L284.775101 127.538872h-0.466271a62.452905 62.452905 0 1 1 0-124.905811h0.932542l115.1964 13.124161a1100.852456 1100.852456 0 0 0 249.05736 0l115.580388-13.124161h0.466271a62.452905 62.452905 0 1 1 0 124.905811zM283.856272 19.089689a45.996277 45.996277 0 0 0 0 91.992554l114.647846-13.069306a1116.198262 1116.198262 0 0 1 252.787529 0L766.03549 111.082243a45.996277 45.996277 0 0 0 0-91.992554l-114.675274 13.069306a1117.802783 1117.802783 0 0 1-252.787529 0z" fill="#33241A" /><path d="M765.541791 9.489989l-115.1964 13.124161a1107.736812 1107.736812 0 0 1-250.963586 0l-115.1964-13.124161a54.375444 54.375444 0 0 0-54.224591 54.224591 53.991456 53.991456 0 0 0 1.371385 12.342472 54.416585 54.416585 0 0 1 52.784637-41.88212l115.1964 13.124161a1107.736812 1107.736812 0 0 0 250.963586 0l115.1964-13.124161a54.416585 54.416585 0 0 1 52.784636 41.88212 53.991456 53.991456 0 0 0 1.453669-12.342472 54.389157 54.389157 0 0 0-54.169736-54.224591z" fill="#FFFFFF" /><path d="M765.541791 120.681943l-115.1964-13.124161a1107.736812 1107.736812 0 0 0-250.963586 0l-115.1964 13.124161a54.375444 54.375444 0 0 1-54.224591-54.224591 53.813175 53.813175 0 0 1 1.371385-12.342472A54.416585 54.416585 0 0 0 284.30883 95.997l115.1964-13.124161a1107.736812 1107.736812 0 0 1 250.963586 0l115.1964 13.124161a54.416585 54.416585 0 0 0 52.784636-41.88212 53.813175 53.813175 0 0 1 1.453669 12.342472A54.389157 54.389157 0 0 1 765.541791 120.681943z" fill="#EBA017" /><path d="M765.541791 127.538872H764.664104l-115.1964-13.124162a1100.852456 1100.852456 0 0 0-249.05736 0L284.775101 127.538872h-0.466271a62.452905 62.452905 0 1 1 0-124.905811h0.932542l115.1964 13.124161a1100.852456 1100.852456 0 0 0 249.05736 0l115.580388-13.124161h0.466271a62.452905 62.452905 0 1 1 0 124.905811zM283.856272 19.089689a45.996277 45.996277 0 0 0 0 91.992554l114.647846-13.069306a1116.198262 1116.198262 0 0 1 252.787529 0L766.03549 111.082243a45.996277 45.996277 0 0 0 0-91.992554l-114.675274 13.069306a1117.802783 1117.802783 0 0 1-252.787529 0z" fill="#33241A" /><path d="M444.02041 8.228314l161.823515 0 0 111.082243-161.823515 0 0-111.082243Z" fill="#F7C11C" /><path d="M565.388046 127.538872h-80.911757a48.725334 48.725334 0 0 1-48.684193-48.684193v-30.170486A48.725334 48.725334 0 0 1 484.476289 0h80.911757a48.739048 48.739048 0 0 1 48.684193 48.684193v30.170486a48.739048 48.739048 0 0 1-48.684193 48.684193z m-80.911757-111.082243a32.254992 32.254992 0 0 0-32.227565 32.227564v30.170486a32.254992 32.254992 0 0 0 32.227565 32.227564h80.911757a32.268706 32.268706 0 0 0 32.227564-32.227564v-30.170486a32.268706 32.268706 0 0 0-32.227564-32.227564z" fill="#33241A" /><path d="M565.388046 8.228314h-80.911757a40.565589 40.565589 0 0 0-40.455879 40.455879v20.570786a40.565589 40.565589 0 0 1 40.455879-40.455879h80.911757a40.579303 40.579303 0 0 1 40.455879 40.455879v-20.570786A40.579303 40.579303 0 0 0 565.388046 8.228314z" fill="#FFFFFF" /><path d="M565.388046 120.681943h-80.911757a40.565589 40.565589 0 0 1-40.455879-40.455879v-20.570785a40.565589 40.565589 0 0 0 40.455879 40.455878h80.911757a40.579303 40.579303 0 0 0 40.455879-40.455878v20.570785a40.579303 40.579303 0 0 1-40.455879 40.455879z" fill="#EBA017" /><path d="M565.388046 127.538872h-80.911757a48.725334 48.725334 0 0 1-48.684193-48.684193v-30.170486A48.725334 48.725334 0 0 1 484.476289 0h80.911757a48.739048 48.739048 0 0 1 48.684193 48.684193v30.170486a48.739048 48.739048 0 0 1-48.684193 48.684193z m-80.911757-111.082243a32.254992 32.254992 0 0 0-32.227565 32.227564v30.170486a32.254992 32.254992 0 0 0 32.227565 32.227564h80.911757a32.268706 32.268706 0 0 0 32.227564-32.227564v-30.170486a32.268706 32.268706 0 0 0-32.227564-32.227564z" fill="#33241A" /><path d="M735.055887 355.36718h-77.154161a58.873589 58.873589 0 0 1-34.49035-11.409929l-0.891401-0.644551A58.02333 58.02333 0 0 1 598.301303 301.704857l-8.46145-86.3973h-129.829085l-8.46145 86.3973A58.02333 58.02333 0 0 1 427.303218 343.3127l-0.891401 0.644551a58.859875 58.859875 0 0 1-34.462923 11.409929h-146.738271v148.109658h120.17453a135.671189 135.671189 0 0 1 70.585223 20.310222c24.684943 15.085243 55.541121 23.985536 89.016647 23.985536s64.31799-8.941435 89.002933-23.985536a135.671189 135.671189 0 0 1 70.585222-20.310222h36.36915a40.826153 40.826153 0 0 1 40.826152 40.826153v116.828349h148.109658v-130.994764a174.769396 174.769396 0 0 0-174.824251-174.769396z" fill="#AEE4F5" /><path d="M918.053597 669.359654h-164.566286V544.302991a32.625266 32.625266 0 0 0-32.597839-32.597839h-36.369149a127.703438 127.703438 0 0 0-66.306499 19.103403c-27.030012 16.456629-59.285004 25.192356-93.254229 25.192356s-66.265358-8.708299-93.254229-25.192356a127.703438 127.703438 0 0 0-66.306499-19.103403h-128.471414v-164.566286h154.966586a50.357283 50.357283 0 0 0 29.704215-9.77798l0.946256-0.671979a49.863585 49.863585 0 0 0 20.817635-35.656029l9.188284-93.843924H597.355047l9.188284 93.843924a49.808729 49.808729 0 0 0 20.817635 35.656029l0.946257 0.685693a50.384711 50.384711 0 0 0 29.649359 9.846549h77.15416c100.906561 0 182.99771 82.091149 182.99771 182.99771z m-148.109658-16.456629h131.653029v-122.766449a166.719361 166.719361 0 0 0-166.541081-166.541081h-77.154161a66.676773 66.676773 0 0 1-39.2902-12.973309l-0.836546-0.60341a66.224216 66.224216 0 0 1-27.66085-47.491087l-7.734615-78.991817h-114.908409l-7.734616 78.991817a66.251644 66.251644 0 0 1-27.647136 47.491087l-0.836545 0.60341a66.745343 66.745343 0 0 1-39.290201 12.973309h-138.509957v131.653028h111.946216a144.105211 144.105211 0 0 1 74.87766 21.503329c24.451807 14.906963 53.744606 22.792431 84.72421 22.79243s60.258688-7.885468 84.724209-22.79243a143.9955 143.9955 0 0 1 74.863946-21.503329h36.369149a49.123036 49.123036 0 0 1 49.054468 49.054468z" fill="#33241A" /><path d="M778.035115 531.89195c-0.685693-23.656404-34.600062-49.904726-55.3217-48.807618h-36.369149a127.223453 127.223453 0 0 0-72.409166 19.1994c-24.684943 15.085243-55.541121 23.985536-89.002933 23.985536s-64.331704-8.941435-89.016647-23.985536a135.671189 135.671189 0 0 0-70.585222-20.310222h-120.174531v20.118228h120.174531a135.671189 135.671189 0 0 1 70.585222 20.310223c24.684943 15.085243 55.541121 23.985536 89.016647 23.985536s64.31799-8.941435 89.002933-23.985536a135.671189 135.671189 0 0 1 70.585223-20.310223h36.369149c16.909186 0 48.917328 15.085243 44.803172 139.497355 8.050034 3.935877 2.057079-1.947368 14.056703 3.085618z" fill="#64CAE2" /><path d="M761.715625 639.655439h148.109657v20.118229h-148.109657z" fill="#64CAE2" /><path d="M735.055887 352.624409h-77.154161a58.873589 58.873589 0 0 1-34.49035-11.409929l-0.891401-0.644551A58.02333 58.02333 0 0 1 598.301303 298.962086l-8.46145-86.3973h-129.829085l-8.46145 86.3973A58.02333 58.02333 0 0 1 427.303218 340.569929l-0.891401 0.644551a58.859875 58.859875 0 0 1-34.462923 11.409929h-146.738271v27.427714h146.738271a58.859875 58.859875 0 0 0 34.462923-11.409929c0.301705-0.219422 37.781676-24.287241 41.278711-62.302053 1.467383-15.976644 6.335802-71.833184 6.335802-71.833184h101.715678s3.497034 59.367288 8.914007 81.734589c5.485543 22.669006 24.163816 42.005544 37.86396 51.756097l0.891401 0.644551a58.873589 58.873589 0 0 0 34.476636 11.409929h77.154161a174.769396 174.769396 0 0 1 174.783109 174.769396v-27.427714a174.769396 174.769396 0 0 0-174.769395-174.769396z" fill="#FFFFFF" /><path d="M918.053597 669.359654h-164.566286V544.302991a32.625266 32.625266 0 0 0-32.597839-32.597839h-36.369149a127.703438 127.703438 0 0 0-66.306499 19.103403c-27.030012 16.456629-59.285004 25.192356-93.254229 25.192356s-66.265358-8.708299-93.254229-25.192356a127.703438 127.703438 0 0 0-66.306499-19.103403h-128.471414v-164.566286h154.966586a50.357283 50.357283 0 0 0 29.704215-9.77798l0.946256-0.671979a49.863585 49.863585 0 0 0 20.817635-35.656029l9.188284-93.843924H597.355047l9.188284 93.843924a49.808729 49.808729 0 0 0 20.817635 35.656029l0.946257 0.685693a50.384711 50.384711 0 0 0 29.649359 9.846549h77.15416c100.906561 0 182.99771 82.091149 182.99771 182.99771z m-148.109658-16.456629h131.653029v-122.766449a166.719361 166.719361 0 0 0-166.541081-166.541081h-77.154161a66.676773 66.676773 0 0 1-39.2902-12.973309l-0.836546-0.60341a66.224216 66.224216 0 0 1-27.66085-47.491087l-7.734615-78.991817h-114.908409l-7.734616 78.991817a66.251644 66.251644 0 0 1-27.647136 47.491087l-0.836545 0.60341a66.745343 66.745343 0 0 1-39.290201 12.973309h-138.509957v131.653028h111.946216a144.105211 144.105211 0 0 1 74.87766 21.503329c24.451807 14.906963 53.744606 22.792431 84.72421 22.79243s60.258688-7.885468 84.724209-22.79243a143.9955 143.9955 0 0 1 74.863946-21.503329h36.369149a49.123036 49.123036 0 0 1 49.054468 49.054468z" fill="#33241A" /><path d="M730.859446 661.13134l210.05515 0 0 82.050007-210.05515 0 0-82.050007Z" fill="#FF7997" /><path d="M924.457968 751.423375H747.316075a24.684943 24.684943 0 0 1-24.684943-24.684943v-49.150464a24.684943 24.684943 0 0 1 24.684943-24.684943h177.141893a24.684943 24.684943 0 0 1 24.684943 24.684943v49.150464a24.684943 24.684943 0 0 1-24.684943 24.684943z m-177.141893-82.063721a8.228314 8.228314 0 0 0-8.228314 8.228314v49.150464a8.228314 8.228314 0 0 0 8.228314 8.228315h177.141893a8.228314 8.228314 0 0 0 8.228314-8.228315v-49.150464a8.228314 8.228314 0 0 0-8.228314-8.228314z" fill="#33241A" /><path d="M924.457968 661.13134H747.316075a16.456629 16.456629 0 0 0-16.456629 16.456628v19.885093a16.456629 16.456629 0 0 1 16.456629-16.456628h177.141893a16.456629 16.456629 0 0 1 16.456628 16.456628v-19.885093a16.456629 16.456629 0 0 0-16.456628-16.456628z" fill="#FFFFFF" /><path d="M924.457968 744.443022H747.316075a16.456629 16.456629 0 0 1-16.456629-16.456629v-19.885093a16.456629 16.456629 0 0 0 16.456629 16.456629h177.141893a16.456629 16.456629 0 0 0 16.456628-16.456629v19.885093a16.456629 16.456629 0 0 1-16.456628 16.456629z" fill="#E85D88" /><path d="M924.457968 751.423375H747.316075a24.684943 24.684943 0 0 1-24.684943-24.684943v-49.150464a24.684943 24.684943 0 0 1 24.684943-24.684943h177.141893a24.684943 24.684943 0 0 1 24.684943 24.684943v49.150464a24.684943 24.684943 0 0 1-24.684943 24.684943z m-177.141893-82.063721a8.228314 8.228314 0 0 0-8.228314 8.228314v49.150464a8.228314 8.228314 0 0 0 8.228314 8.228315h177.141893a8.228314 8.228314 0 0 0 8.228314-8.228315v-49.150464a8.228314 8.228314 0 0 0-8.228314-8.228314z" fill="#33241A" /><path d="M888.815653 945.8173c0 60.190119-30.993317 69.940671-52.921775 69.940672s-52.935489-9.764266-52.935488-69.940672 52.935489-122.670452 52.935488-122.670452 52.921775 62.480333 52.921775 122.670452z" fill="#AEE4F5" /><path d="M835.893878 1024c-22.847286 0-61.163803-10.161968-61.163803-78.168986 0-62.494047 52.633784-125.344654 54.855429-127.991429l6.280947-7.419196 6.267232 7.419196c2.249073 2.646774 54.855429 65.497382 54.855429 127.991429 0.054855 68.007018-38.261661 78.168986-61.095234 78.168986z m0-187.482141c-13.631574 18.349141-44.707174 65.031111-44.707174 109.299441 0 41.525559 14.618972 61.712357 44.707174 61.712358s44.69346-20.200512 44.693461-61.712358c0-44.350614-31.061886-90.977728-44.693461-109.272013z" fill="#33241A" /><path d="M871.906467 945.8173c0-44.967738-29.525934-91.19715-44.474039-111.71308 5.060413-6.952926 8.46145-10.971086 8.46145-10.971086s52.921775 62.480333 52.921775 122.670452-30.993317 69.940671-52.921775 69.940672a67.005906 67.005906 0 0 1-8.46145-0.521127c20.653069-2.633061 44.474039-16.648623 44.474039-69.405831z" fill="#64CAE2" /><path d="M835.893878 1001.769838c-20.749066 0-49.603021-8.763155-52.661211-60.656391-0.17828 2.537064-0.274277 5.074127-0.274277 7.611191 0 60.203833 30.993317 69.940671 52.935488 69.940672s52.921775-9.750552 52.921775-69.940672c0-2.537064-0.095997-5.074127-0.274277-7.611191-3.05819 51.893235-31.912146 60.65639-52.647498 60.656391z" fill="#64CAE2" /><path d="M799.867576 945.8173c0-44.967738 29.525934-91.19715 44.474038-111.71308-5.060413-6.952926-8.447736-10.971086-8.447736-10.971086s-52.935489 62.480333-52.935488 122.670452 30.993317 69.940671 52.935488 69.940672a66.937337 66.937337 0 0 0 8.447736-0.521127c-20.707924-2.633061-44.474039-16.648623-44.474038-69.405831z" fill="#FFFFFF" /><path d="M835.893878 1024c-22.847286 0-61.163803-10.161968-61.163803-78.168986 0-62.494047 52.633784-125.344654 54.855429-127.991429l6.280947-7.419196 6.267232 7.419196c2.249073 2.646774 54.855429 65.497382 54.855429 127.991429 0.054855 68.007018-38.261661 78.168986-61.095234 78.168986z m0-187.482141c-13.631574 18.349141-44.707174 65.031111-44.707174 109.299441 0 41.525559 14.618972 61.712357 44.707174 61.712358s44.69346-20.200512 44.693461-61.712358c0-44.350614-31.061886-90.977728-44.693461-109.272013zM180.001232 359.481338H145.497167a8.228314 8.228314 0 1 1 0-16.456629h34.504065a8.228314 8.228314 0 1 1 0 16.456629zM180.001232 411.593995H145.497167a8.228314 8.228314 0 1 1 0-16.456629h34.504065a8.228314 8.228314 0 1 1 0 16.456629zM180.001232 463.706652H145.497167a8.228314 8.228314 0 1 1 0-16.456629h34.504065a8.228314 8.228314 0 1 1 0 16.456629zM180.001232 515.819309H145.497167a8.228314 8.228314 0 1 1 0-16.456628h34.504065a8.228314 8.228314 0 1 1 0 16.456628zM554.334677 264.128889h-58.818733a8.228314 8.228314 0 0 1 0-16.456629h58.818733a8.228314 8.228314 0 0 1 0 16.456629zM568.048534 296.356453h-38.069667a8.228314 8.228314 0 0 1 0-16.456628h38.069667a8.228314 8.228314 0 0 1 0 16.456628zM499.808381 296.356453h-18.006294a8.228314 8.228314 0 0 1 0-16.456628h18.006294a8.228314 8.228314 0 0 1 0 16.456628z" fill="#33241A" /><path d="M472.851456 429.432842l52.083454-52.083453 52.083454 52.083453-52.083454 52.083454-52.083454-52.083454Z" fill="#F7C11C" /><path d="M524.932167 482.851197a24.78094 24.78094 0 0 1-17.553737-7.254631l-28.62082-28.62082a24.835795 24.835795 0 0 1 0-35.107474l28.62082-28.62082a24.808368 24.808368 0 0 1 35.093761 0l28.620819 28.62082a24.849509 24.849509 0 0 1 0 35.107474L542.499618 475.596566a24.78094 24.78094 0 0 1-17.567451 7.254631z m0-90.415461a8.365453 8.365453 0 0 0-5.924386 2.454781L490.386961 423.511337a8.379167 8.379167 0 0 0 0 11.821345l28.634534 28.620819a8.365453 8.365453 0 0 0 11.821345 0l28.62082-28.620819a8.379167 8.379167 0 0 0 0-11.821345L530.84284 394.959086a8.351739 8.351739 0 0 0-5.910673-2.52335z" fill="#33241A" /></svg>