<?xml version="1.0" standalone="no"?><!DOCTYPE svg PUBLIC "-//W3C//DTD SVG 1.1//EN" "http://www.w3.org/Graphics/SVG/1.1/DTD/svg11.dtd"><svg class="icon" width="200px" height="200.00px" viewBox="0 0 1024 1024" version="1.1" xmlns="http://www.w3.org/2000/svg"><path d="M354.454365 1015.391341c-176.793162 0-321.38994-144.639821-321.38994-321.38994V83.317472c0-9.469525 11.478212-15.395152 17.217318-17.217318 73.8336-23.229032 304.172622-57.391061 304.172622-57.391061s230.382065 34.162029 304.172621 57.391061c5.739106 1.822166 17.217318 7.747793 17.217318 17.217318v610.655234c0.086087 176.778815-144.568082 321.418635-321.389939 321.418635z" fill="#F7C11C" /><path d="M354.454365 1024c-87.808323 0-170.58058-34.434636-233.093793-96.933501S24.455766 781.766681 24.455766 693.972706V83.317472c0-14.347765 14.606025-22.712512 23.243379-25.438587C121.331876 34.735939 343.793975 1.592602 353.234805 0.186521L354.454365 0l1.262603 0.186521c9.426482 1.434777 231.902928 34.549419 305.607398 57.692364 8.608659 2.726075 23.24338 11.133866 23.24338 25.438587v610.655234c0 87.793975-34.434636 170.58058-96.94785 233.093793S442.291383 1024 354.454365 1024z m0-1006.596161C336.003139 20.172958 122.393611 52.441082 52.864341 74.307076c-5.294325 1.664341-11.191257 5.739106-11.191257 9.010396v610.655234c0 172.488833 140.335491 312.781281 312.781281 312.78128s312.781281-140.321143 312.78128-312.78128V83.317472c0-3.242595-5.911279-7.346056-11.205604-9.010396C586.586857 52.441082 372.991677 20.172958 354.454365 17.403839z" fill="#33241A" /><path d="M87.227238 693.972706V83.317472c0-9.469525 11.478212-15.395152 17.217319-17.217318C162.710831 47.778058 318.498865 22.626426 381.571641 12.912989 364.727364 10.215609 354.454365 8.709093 354.454365 8.709093s-230.339022 34.162029-304.172622 57.391061c-5.810845 1.822166-17.217318 7.747793-17.217318 17.217318v610.655234c0 176.778815 144.639821 321.38994 321.38994 321.389939q13.67342 0 27.074232-1.162169C217.332773 1000.369231 87.227238 861.640689 87.227238 693.972706z" fill="#FFFFFF" /><path d="M625.139302 693.972706V83.317472c0-9.469525-11.478212-15.395152-17.217318-17.217318C549.65571 47.778058 393.867675 22.626426 330.7949 12.912989c16.844276-2.625641 27.074233-4.132156 27.074233-4.132157s230.382065 34.162029 304.172621 57.391061c5.739106 1.822166 17.217318 7.747793 17.217318 17.217318v610.583495c0 176.778815-144.639821 321.38994-321.389939 321.389939q-13.687768 0-27.074233-1.162169C495.062463 1000.369231 625.139302 861.640689 625.139302 693.972706z" fill="#EBA017" /><path d="M354.454365 1024c-87.808323 0-170.58058-34.434636-233.093793-96.933501S24.455766 781.766681 24.455766 693.972706V83.317472c0-14.347765 14.606025-22.712512 23.243379-25.438587C121.331876 34.735939 343.793975 1.592602 353.234805 0.186521L354.454365 0l1.262603 0.186521c9.426482 1.434777 231.902928 34.549419 305.607398 57.692364 8.608659 2.726075 23.24338 11.133866 23.24338 25.438587v610.655234c0 87.793975-34.434636 170.58058-96.94785 233.093793S442.291383 1024 354.454365 1024z m0-1006.596161C336.003139 20.172958 122.393611 52.441082 52.864341 74.307076c-5.294325 1.664341-11.191257 5.739106-11.191257 9.010396v610.655234c0 172.488833 140.335491 312.781281 312.781281 312.78128s312.781281-140.321143 312.78128-312.78128V83.317472c0-3.242595-5.911279-7.346056-11.205604-9.010396C586.586857 52.441082 372.991677 20.172958 354.454365 17.403839z" fill="#33241A" /><path d="M354.497408 275.850133m-150.5511 0a150.5511 150.5511 0 1 0 301.1022 0 150.5511 150.5511 0 1 0-301.1022 0Z" fill="#AEE4F5" /><path d="M354.454365 435.009892a159.159759 159.159759 0 1 1 159.260193-159.159759 159.34628 159.34628 0 0 1-159.260193 159.159759z m0-301.1022a141.942441 141.942441 0 1 0 142.042875 141.942441 142.042875 142.042875 0 0 0-142.042875-141.942441z" fill="#33241A" /><path d="M354.454365 160.293232a150.651534 150.651534 0 0 1 149.532408 133.046827 153.076307 153.076307 0 0 0 1.018691-17.489926 150.5511 150.5511 0 1 0-301.102199 0 153.076307 153.076307 0 0 0 1.018691 17.489926A150.5511 150.5511 0 0 1 354.454365 160.293232z" fill="#FFFFFF" /><path d="M354.454365 394.133109A150.651534 150.651534 0 0 0 504.029816 261.129326a153.076307 153.076307 0 0 1 1.018692 17.489926 150.5511 150.5511 0 0 1-301.1022 0 153.076307 153.076307 0 0 1 1.018691-17.489926A150.5511 150.5511 0 0 0 354.454365 394.133109z" fill="#64CAE2" /><path d="M354.454365 435.009892a159.159759 159.159759 0 1 1 159.260193-159.159759 159.34628 159.34628 0 0 1-159.260193 159.159759z m0-301.1022a141.942441 141.942441 0 1 0 142.042875 141.942441 142.042875 142.042875 0 0 0-142.042875-141.942441z" fill="#33241A" /><path d="M354.454365 435.009892a159.159759 159.159759 0 1 1 159.260193-159.159759 159.34628 159.34628 0 0 1-159.260193 159.159759z m0-301.1022a141.942441 141.942441 0 1 0 142.042875 141.942441 142.042875 142.042875 0 0 0-142.042875-141.942441z" fill="#33241A" /><path d="M961.077876 329.09469l-649.925067 17.217318-28.69553-70.461875 28.69553-70.476222 649.925067 17.217318 28.69553 53.258904-28.69553 53.244557z" fill="#AEE4F5" /><path d="M305.428051 355.078492l-32.268124-79.228359L305.428051 196.564383l5.954323 0.157825 654.903741 17.346448 33.258119 61.695391-33.258119 61.69539z m-13.67342-79.228359l25.122937 61.69539 638.977721-16.930363 24.161637-44.765027-24.132941-44.779375-638.977722-16.930363z" fill="#33241A" /><path d="M311.152809 226.422082l649.925067 17.217318 23.028163 42.727645 5.667367-10.516912-28.69553-53.258904-649.925067-17.217318-28.69553 70.476222 4.289982 10.516912 24.405548-59.944963z" fill="#FFFFFF" /><path d="M311.152809 324.058624l649.925067-17.217318 23.028163-42.727645 5.667367 10.516912-28.69553 53.258904-649.925067 17.217319-28.69553-70.476223 4.289982-10.516912 24.405548 59.944963z" fill="#64CAE2" /><path d="M305.428051 355.078492l-32.268124-79.228359L305.428051 196.564383l5.954323 0.157825 654.903741 17.346448 33.258119 61.695391-33.258119 61.69539z m-13.67342-79.228359l25.122937 61.69539 638.977721-16.930363 24.161637-44.765027-24.132941-44.779375-638.977722-16.930363z" fill="#33241A" /><path d="M354.497408 275.850133m-39.298529 0a39.298529 39.298529 0 1 0 78.597058 0 39.298529 39.298529 0 1 0-78.597058 0Z" fill="#F7C11C" /><path d="M354.454365 319.452991a43.602858 43.602858 0 1 1 43.602858-43.602858A43.660249 43.660249 0 0 1 354.454365 319.452991z m0-78.597057a34.994199 34.994199 0 1 0 34.994199 34.994199A35.037243 35.037243 0 0 0 354.454365 240.855934z" fill="#33241A" /><path d="M354.454365 252.520667a39.327224 39.327224 0 0 1 38.480706 31.292476 39.772005 39.772005 0 0 0 0.817822-8.006053 39.298529 39.298529 0 0 0-78.597057 0 39.772005 39.772005 0 0 0 0.817822 8.006053A39.312877 39.312877 0 0 1 354.454365 252.520667z" fill="#FFFFFF" /><path d="M354.454365 299.122208a39.327224 39.327224 0 0 0 38.480706-31.292476 39.915483 39.915483 0 0 1 0.817822 8.020401 39.298529 39.298529 0 0 1-78.597057 0 39.915483 39.915483 0 0 1 0.817822-8.020401A39.312877 39.312877 0 0 0 354.454365 299.122208z" fill="#EBA017" /><path d="M354.454365 319.452991a43.602858 43.602858 0 1 1 43.602858-43.602858A43.660249 43.660249 0 0 1 354.454365 319.452991z m0-78.597057a34.994199 34.994199 0 1 0 34.994199 34.994199A35.037243 35.037243 0 0 0 354.454365 240.855934z" fill="#33241A" /><path d="M285.125963 876.777582m-28.336836 0a28.336836 28.336836 0 1 0 56.673672 0 28.336836 28.336836 0 1 0-56.673672 0Z" fill="#FF7997" /><path d="M285.125963 909.418747a32.641166 32.641166 0 1 1 32.641166-32.641165 32.684209 32.684209 0 0 1-32.641166 32.641165z m0-56.673672a24.032507 24.032507 0 1 0 24.032507 24.032507 24.061202 24.061202 0 0 0-24.032507-24.032507z" fill="#33241A" /><path d="M285.125963 860.636346a28.351184 28.351184 0 0 1 27.719883 22.239036 28.351184 28.351184 0 1 0-55.339331 0 28.351184 28.351184 0 0 1 27.619448-22.239036z" fill="#FFFFFF" /><path d="M285.125963 894.597506A28.351184 28.351184 0 0 0 312.845846 872.344122a28.351184 28.351184 0 1 1-55.339331 0 28.351184 28.351184 0 0 0 27.619448 22.253384z" fill="#E85D88" /><path d="M285.125963 909.418747a32.641166 32.641166 0 1 1 32.641166-32.641165 32.684209 32.684209 0 0 1-32.641166 32.641165z m0-56.673672a24.032507 24.032507 0 1 0 24.032507 24.032507 24.061202 24.061202 0 0 0-24.032507-24.032507z" fill="#33241A" /><path d="M423.868852 876.777582m-28.336836 0a28.336836 28.336836 0 1 0 56.673673 0 28.336836 28.336836 0 1 0-56.673673 0Z" fill="#AEE4F5" /><path d="M423.868852 909.418747a32.641166 32.641166 0 1 1 32.641166-32.641165 32.669861 32.669861 0 0 1-32.641166 32.641165z m0-56.673672a24.032507 24.032507 0 1 0 24.032507 24.032507 24.046854 24.046854 0 0 0-24.032507-24.032507z" fill="#33241A" /><path d="M423.868852 860.636346a28.322488 28.322488 0 0 1 27.662492 22.239036 28.336836 28.336836 0 1 0-55.324983 0 28.322488 28.322488 0 0 1 27.662491-22.239036z" fill="#FFFFFF" /><path d="M423.868852 894.597506A28.322488 28.322488 0 0 0 451.531344 872.344122a28.336836 28.336836 0 1 1-55.324983 0 28.322488 28.322488 0 0 0 27.662491 22.253384z" fill="#64CAE2" /><path d="M423.868852 909.418747a32.641166 32.641166 0 1 1 32.641166-32.641165 32.669861 32.669861 0 0 1-32.641166 32.641165z m0-56.673672a24.032507 24.032507 0 1 0 24.032507 24.032507 24.046854 24.046854 0 0 0-24.032507-24.032507z" fill="#33241A" /><path d="M143.398739 491.956172l121.095138 0 0 56.329326-121.095138 0 0-56.329326Z" fill="#AEE4F5" /><path d="M247.276559 552.589828H160.616057a21.521648 21.521648 0 0 1-21.521648-21.521648v-21.89469a21.521648 21.521648 0 0 1 21.521648-21.521647h86.660502a21.521648 21.521648 0 0 1 21.521648 21.521647v21.89469a21.521648 21.521648 0 0 1-21.521648 21.521648z m-86.660502-56.329326a12.912989 12.912989 0 0 0-12.912988 12.912988v21.89469a12.912989 12.912989 0 0 0 12.912988 12.912989h86.660502a12.912989 12.912989 0 0 0 12.912988-12.912989v-21.89469a12.912989 12.912989 0 0 0-12.912988-12.912988z" fill="#33241A" /><path d="M247.276559 491.956172H160.616057a17.217318 17.217318 0 0 0-17.217318 17.217318v16.141236a17.217318 17.217318 0 0 1 17.217318-17.217318h86.660502a17.217318 17.217318 0 0 1 17.217318 17.217318v-16.141236a17.217318 17.217318 0 0 0-17.217318-17.217318z" fill="#FFFFFF" /><path d="M160.616057 552.030265h86.660502a17.217318 17.217318 0 0 0 17.217318-17.217318V518.671711a17.217318 17.217318 0 0 1-17.217318 17.217318H160.616057a17.217318 17.217318 0 0 1-17.217318-17.217318v16.141236a17.217318 17.217318 0 0 0 17.217318 17.217318z" fill="#64CAE2" /><path d="M247.276559 552.589828H160.616057a21.521648 21.521648 0 0 1-21.521648-21.521648v-21.89469a21.521648 21.521648 0 0 1 21.521648-21.521647h86.660502a21.521648 21.521648 0 0 1 21.521648 21.521647v21.89469a21.521648 21.521648 0 0 1-21.521648 21.521648z m-86.660502-56.329326a12.912989 12.912989 0 0 0-12.912988 12.912988v21.89469a12.912989 12.912989 0 0 0 12.912988 12.912989h86.660502a12.912989 12.912989 0 0 0 12.912988-12.912989v-21.89469a12.912989 12.912989 0 0 0-12.912988-12.912988z" fill="#33241A" /><path d="M293.949839 491.956172l121.095138 0 0 56.329326-121.095138 0 0-56.329326Z" fill="#AEE4F5" /><path d="M397.827659 552.589828h-86.660502a21.521648 21.521648 0 0 1-21.521648-21.521648v-21.89469a21.521648 21.521648 0 0 1 21.521648-21.521647h86.660502a21.521648 21.521648 0 0 1 21.521647 21.521647v21.89469a21.521648 21.521648 0 0 1-21.521647 21.521648z m-86.660502-56.329326a12.912989 12.912989 0 0 0-12.912989 12.912988v21.89469a12.912989 12.912989 0 0 0 12.912989 12.912989h86.660502a12.912989 12.912989 0 0 0 12.912988-12.912989v-21.89469a12.912989 12.912989 0 0 0-12.912988-12.912988z" fill="#33241A" /><path d="M397.827659 491.956172h-86.660502a17.217318 17.217318 0 0 0-17.217318 17.217318v16.141236a17.217318 17.217318 0 0 1 17.217318-17.217318h86.660502a17.217318 17.217318 0 0 1 17.217318 17.217318v-16.141236a17.217318 17.217318 0 0 0-17.217318-17.217318z" fill="#FFFFFF" /><path d="M311.167157 552.030265h86.660502a17.217318 17.217318 0 0 0 17.217318-17.217318V518.671711a17.217318 17.217318 0 0 1-17.217318 17.217318h-86.660502a17.217318 17.217318 0 0 1-17.217318-17.217318v16.141236a17.217318 17.217318 0 0 0 17.217318 17.217318z" fill="#64CAE2" /><path d="M397.827659 552.589828h-86.660502a21.521648 21.521648 0 0 1-21.521648-21.521648v-21.89469a21.521648 21.521648 0 0 1 21.521648-21.521647h86.660502a21.521648 21.521648 0 0 1 21.521647 21.521647v21.89469a21.521648 21.521648 0 0 1-21.521647 21.521648z m-86.660502-56.329326a12.912989 12.912989 0 0 0-12.912989 12.912988v21.89469a12.912989 12.912989 0 0 0 12.912989 12.912989h86.660502a12.912989 12.912989 0 0 0 12.912988-12.912989v-21.89469a12.912989 12.912989 0 0 0-12.912988-12.912988z" fill="#33241A" /><path d="M444.500939 491.956172l121.095138 0 0 56.329326-121.095138 0 0-56.329326Z" fill="#AEE4F5" /><path d="M548.378759 552.589828h-86.660502a21.521648 21.521648 0 0 1-21.521648-21.521648v-21.89469a21.521648 21.521648 0 0 1 21.521648-21.521647h86.660502a21.521648 21.521648 0 0 1 21.521647 21.521647v21.89469a21.521648 21.521648 0 0 1-21.521647 21.521648z m-86.660502-56.329326a12.912989 12.912989 0 0 0-12.912989 12.912988v21.89469a12.912989 12.912989 0 0 0 12.912989 12.912989h86.660502a12.912989 12.912989 0 0 0 12.912988-12.912989v-21.89469a12.912989 12.912989 0 0 0-12.912988-12.912988z" fill="#33241A" /><path d="M548.378759 491.956172h-86.660502a17.217318 17.217318 0 0 0-17.217318 17.217318v16.141236a17.217318 17.217318 0 0 1 17.217318-17.217318h86.660502a17.217318 17.217318 0 0 1 17.217318 17.217318v-16.141236a17.217318 17.217318 0 0 0-17.217318-17.217318z" fill="#FFFFFF" /><path d="M461.718257 552.030265h86.660502a17.217318 17.217318 0 0 0 17.217318-17.217318V518.671711a17.217318 17.217318 0 0 1-17.217318 17.217318h-86.660502a17.217318 17.217318 0 0 1-17.217318-17.217318v16.141236a17.217318 17.217318 0 0 0 17.217318 17.217318z" fill="#64CAE2" /><path d="M548.378759 552.589828h-86.660502a21.521648 21.521648 0 0 1-21.521648-21.521648v-21.89469a21.521648 21.521648 0 0 1 21.521648-21.521647h86.660502a21.521648 21.521648 0 0 1 21.521647 21.521647v21.89469a21.521648 21.521648 0 0 1-21.521647 21.521648z m-86.660502-56.329326a12.912989 12.912989 0 0 0-12.912989 12.912988v21.89469a12.912989 12.912989 0 0 0 12.912989 12.912989h86.660502a12.912989 12.912989 0 0 0 12.912988-12.912989v-21.89469a12.912989 12.912989 0 0 0-12.912988-12.912988z" fill="#33241A" /><path d="M143.398739 571.715399l121.095138 0 0 56.329326-121.095138 0 0-56.329326Z" fill="#AEE4F5" /><path d="M247.276559 632.349054H160.616057a21.521648 21.521648 0 0 1-21.521648-21.521648v-21.894689a21.521648 21.521648 0 0 1 21.521648-21.521648h86.660502a21.521648 21.521648 0 0 1 21.521648 21.521648v21.894689a21.521648 21.521648 0 0 1-21.521648 21.521648z m-86.660502-56.329326a12.912989 12.912989 0 0 0-12.912988 12.912989v21.894689a12.912989 12.912989 0 0 0 12.912988 12.912989h86.660502a12.912989 12.912989 0 0 0 12.912988-12.912989v-21.894689a12.912989 12.912989 0 0 0-12.912988-12.912989z" fill="#33241A" /><path d="M247.276559 571.715399H160.616057a17.217318 17.217318 0 0 0-17.217318 17.217318v16.141236a17.217318 17.217318 0 0 1 17.217318-17.217319h86.660502a17.217318 17.217318 0 0 1 17.217318 17.217319v-16.141236a17.217318 17.217318 0 0 0-17.217318-17.217318z" fill="#FFFFFF" /><path d="M160.616057 631.803839h86.660502a17.217318 17.217318 0 0 0 17.217318-17.217318V598.445285a17.217318 17.217318 0 0 1-17.217318 17.217318H160.616057a17.217318 17.217318 0 0 1-17.217318-17.217318v16.141236a17.217318 17.217318 0 0 0 17.217318 17.217318z" fill="#64CAE2" /><path d="M247.276559 632.349054H160.616057a21.521648 21.521648 0 0 1-21.521648-21.521648v-21.894689a21.521648 21.521648 0 0 1 21.521648-21.521648h86.660502a21.521648 21.521648 0 0 1 21.521648 21.521648v21.894689a21.521648 21.521648 0 0 1-21.521648 21.521648z m-86.660502-56.329326a12.912989 12.912989 0 0 0-12.912988 12.912989v21.894689a12.912989 12.912989 0 0 0 12.912988 12.912989h86.660502a12.912989 12.912989 0 0 0 12.912988-12.912989v-21.894689a12.912989 12.912989 0 0 0-12.912988-12.912989z" fill="#33241A" /><path d="M293.949839 571.715399l121.095138 0 0 56.329326-121.095138 0 0-56.329326Z" fill="#AEE4F5" /><path d="M397.827659 632.349054h-86.660502a21.521648 21.521648 0 0 1-21.521648-21.521648v-21.894689a21.521648 21.521648 0 0 1 21.521648-21.521648h86.660502a21.521648 21.521648 0 0 1 21.521647 21.521648v21.894689a21.521648 21.521648 0 0 1-21.521647 21.521648z m-86.660502-56.329326a12.912989 12.912989 0 0 0-12.912989 12.912989v21.894689a12.912989 12.912989 0 0 0 12.912989 12.912989h86.660502a12.912989 12.912989 0 0 0 12.912988-12.912989v-21.894689a12.912989 12.912989 0 0 0-12.912988-12.912989z" fill="#33241A" /><path d="M397.827659 571.715399h-86.660502a17.217318 17.217318 0 0 0-17.217318 17.217318v16.141236a17.217318 17.217318 0 0 1 17.217318-17.217319h86.660502a17.217318 17.217318 0 0 1 17.217318 17.217319v-16.141236a17.217318 17.217318 0 0 0-17.217318-17.217318z" fill="#FFFFFF" /><path d="M311.167157 631.803839h86.660502a17.217318 17.217318 0 0 0 17.217318-17.217318V598.445285a17.217318 17.217318 0 0 1-17.217318 17.217318h-86.660502a17.217318 17.217318 0 0 1-17.217318-17.217318v16.141236a17.217318 17.217318 0 0 0 17.217318 17.217318z" fill="#64CAE2" /><path d="M397.827659 632.349054h-86.660502a21.521648 21.521648 0 0 1-21.521648-21.521648v-21.894689a21.521648 21.521648 0 0 1 21.521648-21.521648h86.660502a21.521648 21.521648 0 0 1 21.521647 21.521648v21.894689a21.521648 21.521648 0 0 1-21.521647 21.521648z m-86.660502-56.329326a12.912989 12.912989 0 0 0-12.912989 12.912989v21.894689a12.912989 12.912989 0 0 0 12.912989 12.912989h86.660502a12.912989 12.912989 0 0 0 12.912988-12.912989v-21.894689a12.912989 12.912989 0 0 0-12.912988-12.912989z" fill="#33241A" /><path d="M444.500939 571.715399l121.095138 0 0 56.329326-121.095138 0 0-56.329326Z" fill="#AEE4F5" /><path d="M548.378759 632.349054h-86.660502a21.521648 21.521648 0 0 1-21.521648-21.521648v-21.894689a21.521648 21.521648 0 0 1 21.521648-21.521648h86.660502a21.521648 21.521648 0 0 1 21.521647 21.521648v21.894689a21.521648 21.521648 0 0 1-21.521647 21.521648z m-86.660502-56.329326a12.912989 12.912989 0 0 0-12.912989 12.912989v21.894689a12.912989 12.912989 0 0 0 12.912989 12.912989h86.660502a12.912989 12.912989 0 0 0 12.912988-12.912989v-21.894689a12.912989 12.912989 0 0 0-12.912988-12.912989z" fill="#33241A" /><path d="M548.378759 571.715399h-86.660502a17.217318 17.217318 0 0 0-17.217318 17.217318v16.141236a17.217318 17.217318 0 0 1 17.217318-17.217319h86.660502a17.217318 17.217318 0 0 1 17.217318 17.217319v-16.141236a17.217318 17.217318 0 0 0-17.217318-17.217318z" fill="#FFFFFF" /><path d="M461.718257 631.803839h86.660502a17.217318 17.217318 0 0 0 17.217318-17.217318V598.445285a17.217318 17.217318 0 0 1-17.217318 17.217318h-86.660502a17.217318 17.217318 0 0 1-17.217318-17.217318v16.141236a17.217318 17.217318 0 0 0 17.217318 17.217318z" fill="#64CAE2" /><path d="M548.378759 632.349054h-86.660502a21.521648 21.521648 0 0 1-21.521648-21.521648v-21.894689a21.521648 21.521648 0 0 1 21.521648-21.521648h86.660502a21.521648 21.521648 0 0 1 21.521647 21.521648v21.894689a21.521648 21.521648 0 0 1-21.521647 21.521648z m-86.660502-56.329326a12.912989 12.912989 0 0 0-12.912989 12.912989v21.894689a12.912989 12.912989 0 0 0 12.912989 12.912989h86.660502a12.912989 12.912989 0 0 0 12.912988-12.912989v-21.894689a12.912989 12.912989 0 0 0-12.912988-12.912989z" fill="#33241A" /><path d="M143.398739 651.474625l121.095138 0 0 56.329326-121.095138 0 0-56.329326Z" fill="#AEE4F5" /><path d="M247.276559 712.108281H160.616057a21.521648 21.521648 0 0 1-21.521648-21.521648v-21.89469a21.521648 21.521648 0 0 1 21.521648-21.521647h86.660502a21.521648 21.521648 0 0 1 21.521648 21.521647v21.89469a21.521648 21.521648 0 0 1-21.521648 21.521648z m-86.660502-56.329326a12.912989 12.912989 0 0 0-12.912988 12.912988v21.89469a12.912989 12.912989 0 0 0 12.912988 12.912989h86.660502a12.912989 12.912989 0 0 0 12.912988-12.912989v-21.89469a12.912989 12.912989 0 0 0-12.912988-12.912988z" fill="#33241A" /><path d="M247.276559 651.474625H160.616057a17.217318 17.217318 0 0 0-17.217318 17.217318v16.141236a17.217318 17.217318 0 0 1 17.217318-17.217318h86.660502a17.217318 17.217318 0 0 1 17.217318 17.217318v-16.141236a17.217318 17.217318 0 0 0-17.217318-17.217318z" fill="#FFFFFF" /><path d="M160.616057 711.563066h86.660502a17.217318 17.217318 0 0 0 17.217318-17.217318v-16.141236a17.217318 17.217318 0 0 1-17.217318 17.217318H160.616057a17.217318 17.217318 0 0 1-17.217318-17.217318v16.141236a17.217318 17.217318 0 0 0 17.217318 17.217318z" fill="#64CAE2" /><path d="M247.276559 712.108281H160.616057a21.521648 21.521648 0 0 1-21.521648-21.521648v-21.89469a21.521648 21.521648 0 0 1 21.521648-21.521647h86.660502a21.521648 21.521648 0 0 1 21.521648 21.521647v21.89469a21.521648 21.521648 0 0 1-21.521648 21.521648z m-86.660502-56.329326a12.912989 12.912989 0 0 0-12.912988 12.912988v21.89469a12.912989 12.912989 0 0 0 12.912988 12.912989h86.660502a12.912989 12.912989 0 0 0 12.912988-12.912989v-21.89469a12.912989 12.912989 0 0 0-12.912988-12.912988z" fill="#33241A" /><path d="M293.949839 651.474625l121.095138 0 0 56.329326-121.095138 0 0-56.329326Z" fill="#AEE4F5" /><path d="M397.827659 712.108281h-86.660502a21.521648 21.521648 0 0 1-21.521648-21.521648v-21.89469a21.521648 21.521648 0 0 1 21.521648-21.521647h86.660502a21.521648 21.521648 0 0 1 21.521647 21.521647v21.89469a21.521648 21.521648 0 0 1-21.521647 21.521648z m-86.660502-56.329326a12.912989 12.912989 0 0 0-12.912989 12.912988v21.89469a12.912989 12.912989 0 0 0 12.912989 12.912989h86.660502a12.912989 12.912989 0 0 0 12.912988-12.912989v-21.89469a12.912989 12.912989 0 0 0-12.912988-12.912988z" fill="#33241A" /><path d="M397.827659 651.474625h-86.660502a17.217318 17.217318 0 0 0-17.217318 17.217318v16.141236a17.217318 17.217318 0 0 1 17.217318-17.217318h86.660502a17.217318 17.217318 0 0 1 17.217318 17.217318v-16.141236a17.217318 17.217318 0 0 0-17.217318-17.217318z" fill="#FFFFFF" /><path d="M311.167157 711.563066h86.660502a17.217318 17.217318 0 0 0 17.217318-17.217318v-16.141236a17.217318 17.217318 0 0 1-17.217318 17.217318h-86.660502a17.217318 17.217318 0 0 1-17.217318-17.217318v16.141236a17.217318 17.217318 0 0 0 17.217318 17.217318z" fill="#64CAE2" /><path d="M397.827659 712.108281h-86.660502a21.521648 21.521648 0 0 1-21.521648-21.521648v-21.89469a21.521648 21.521648 0 0 1 21.521648-21.521647h86.660502a21.521648 21.521648 0 0 1 21.521647 21.521647v21.89469a21.521648 21.521648 0 0 1-21.521647 21.521648z m-86.660502-56.329326a12.912989 12.912989 0 0 0-12.912989 12.912988v21.89469a12.912989 12.912989 0 0 0 12.912989 12.912989h86.660502a12.912989 12.912989 0 0 0 12.912988-12.912989v-21.89469a12.912989 12.912989 0 0 0-12.912988-12.912988z" fill="#33241A" /><path d="M444.500939 651.474625l121.095138 0 0 56.329326-121.095138 0 0-56.329326Z" fill="#AEE4F5" /><path d="M548.378759 712.108281h-86.660502a21.521648 21.521648 0 0 1-21.521648-21.521648v-21.89469a21.521648 21.521648 0 0 1 21.521648-21.521647h86.660502a21.521648 21.521648 0 0 1 21.521647 21.521647v21.89469a21.521648 21.521648 0 0 1-21.521647 21.521648z m-86.660502-56.329326a12.912989 12.912989 0 0 0-12.912989 12.912988v21.89469a12.912989 12.912989 0 0 0 12.912989 12.912989h86.660502a12.912989 12.912989 0 0 0 12.912988-12.912989v-21.89469a12.912989 12.912989 0 0 0-12.912988-12.912988z" fill="#33241A" /><path d="M548.378759 651.474625h-86.660502a17.217318 17.217318 0 0 0-17.217318 17.217318v16.141236a17.217318 17.217318 0 0 1 17.217318-17.217318h86.660502a17.217318 17.217318 0 0 1 17.217318 17.217318v-16.141236a17.217318 17.217318 0 0 0-17.217318-17.217318z" fill="#FFFFFF" /><path d="M461.718257 711.563066h86.660502a17.217318 17.217318 0 0 0 17.217318-17.217318v-16.141236a17.217318 17.217318 0 0 1-17.217318 17.217318h-86.660502a17.217318 17.217318 0 0 1-17.217318-17.217318v16.141236a17.217318 17.217318 0 0 0 17.217318 17.217318z" fill="#64CAE2" /><path d="M548.378759 712.108281h-86.660502a21.521648 21.521648 0 0 1-21.521648-21.521648v-21.89469a21.521648 21.521648 0 0 1 21.521648-21.521647h86.660502a21.521648 21.521648 0 0 1 21.521647 21.521647v21.89469a21.521648 21.521648 0 0 1-21.521647 21.521648z m-86.660502-56.329326a12.912989 12.912989 0 0 0-12.912989 12.912988v21.89469a12.912989 12.912989 0 0 0 12.912989 12.912989h86.660502a12.912989 12.912989 0 0 0 12.912988-12.912989v-21.89469a12.912989 12.912989 0 0 0-12.912988-12.912988z" fill="#33241A" /><path d="M143.398739 731.233852l121.095138 0 0 56.329326-121.095138 0 0-56.329326Z" fill="#AEE4F5" /><path d="M247.276559 791.867507H160.616057a21.521648 21.521648 0 0 1-21.521648-21.521647v-21.89469a21.521648 21.521648 0 0 1 21.521648-21.521648h86.660502a21.521648 21.521648 0 0 1 21.521648 21.521648v21.89469a21.521648 21.521648 0 0 1-21.521648 21.521647z m-86.660502-56.329326a12.912989 12.912989 0 0 0-12.912988 12.912989v21.89469a12.912989 12.912989 0 0 0 12.912988 12.912988h86.660502a12.912989 12.912989 0 0 0 12.912988-12.912988v-21.89469a12.912989 12.912989 0 0 0-12.912988-12.912989z" fill="#33241A" /><path d="M247.276559 731.233852H160.616057a17.217318 17.217318 0 0 0-17.217318 17.217318v16.141236a17.217318 17.217318 0 0 1 17.217318-17.217318h86.660502a17.217318 17.217318 0 0 1 17.217318 17.217318v-16.141236a17.217318 17.217318 0 0 0-17.217318-17.217318z" fill="#FFFFFF" /><path d="M160.616057 791.322292h86.660502a17.217318 17.217318 0 0 0 17.217318-17.217318v-16.141236a17.217318 17.217318 0 0 1-17.217318 17.217318H160.616057a17.217318 17.217318 0 0 1-17.217318-17.217318v16.141236a17.217318 17.217318 0 0 0 17.217318 17.217318z" fill="#64CAE2" /><path d="M247.276559 791.867507H160.616057a21.521648 21.521648 0 0 1-21.521648-21.521647v-21.89469a21.521648 21.521648 0 0 1 21.521648-21.521648h86.660502a21.521648 21.521648 0 0 1 21.521648 21.521648v21.89469a21.521648 21.521648 0 0 1-21.521648 21.521647z m-86.660502-56.329326a12.912989 12.912989 0 0 0-12.912988 12.912989v21.89469a12.912989 12.912989 0 0 0 12.912988 12.912988h86.660502a12.912989 12.912989 0 0 0 12.912988-12.912988v-21.89469a12.912989 12.912989 0 0 0-12.912988-12.912989z" fill="#33241A" /><path d="M293.949839 731.233852l121.095138 0 0 56.329326-121.095138 0 0-56.329326Z" fill="#AEE4F5" /><path d="M397.827659 791.867507h-86.660502a21.521648 21.521648 0 0 1-21.521648-21.521647v-21.89469a21.521648 21.521648 0 0 1 21.521648-21.521648h86.660502a21.521648 21.521648 0 0 1 21.521647 21.521648v21.89469a21.521648 21.521648 0 0 1-21.521647 21.521647z m-86.660502-56.329326a12.912989 12.912989 0 0 0-12.912989 12.912989v21.89469a12.912989 12.912989 0 0 0 12.912989 12.912988h86.660502a12.912989 12.912989 0 0 0 12.912988-12.912988v-21.89469a12.912989 12.912989 0 0 0-12.912988-12.912989z" fill="#33241A" /><path d="M397.827659 731.233852h-86.660502a17.217318 17.217318 0 0 0-17.217318 17.217318v16.141236a17.217318 17.217318 0 0 1 17.217318-17.217318h86.660502a17.217318 17.217318 0 0 1 17.217318 17.217318v-16.141236a17.217318 17.217318 0 0 0-17.217318-17.217318z" fill="#FFFFFF" /><path d="M311.167157 791.322292h86.660502a17.217318 17.217318 0 0 0 17.217318-17.217318v-16.141236a17.217318 17.217318 0 0 1-17.217318 17.217318h-86.660502a17.217318 17.217318 0 0 1-17.217318-17.217318v16.141236a17.217318 17.217318 0 0 0 17.217318 17.217318z" fill="#64CAE2" /><path d="M397.827659 791.867507h-86.660502a21.521648 21.521648 0 0 1-21.521648-21.521647v-21.89469a21.521648 21.521648 0 0 1 21.521648-21.521648h86.660502a21.521648 21.521648 0 0 1 21.521647 21.521648v21.89469a21.521648 21.521648 0 0 1-21.521647 21.521647z m-86.660502-56.329326a12.912989 12.912989 0 0 0-12.912989 12.912989v21.89469a12.912989 12.912989 0 0 0 12.912989 12.912988h86.660502a12.912989 12.912989 0 0 0 12.912988-12.912988v-21.89469a12.912989 12.912989 0 0 0-12.912988-12.912989z" fill="#33241A" /><path d="M444.500939 731.233852l121.095138 0 0 56.329326-121.095138 0 0-56.329326Z" fill="#AEE4F5" /><path d="M548.378759 791.867507h-86.660502a21.521648 21.521648 0 0 1-21.521648-21.521647v-21.89469a21.521648 21.521648 0 0 1 21.521648-21.521648h86.660502a21.521648 21.521648 0 0 1 21.521647 21.521648v21.89469a21.521648 21.521648 0 0 1-21.521647 21.521647z m-86.660502-56.329326a12.912989 12.912989 0 0 0-12.912989 12.912989v21.89469a12.912989 12.912989 0 0 0 12.912989 12.912988h86.660502a12.912989 12.912989 0 0 0 12.912988-12.912988v-21.89469a12.912989 12.912989 0 0 0-12.912988-12.912989z" fill="#33241A" /><path d="M548.378759 731.233852h-86.660502a17.217318 17.217318 0 0 0-17.217318 17.217318v16.141236a17.217318 17.217318 0 0 1 17.217318-17.217318h86.660502a17.217318 17.217318 0 0 1 17.217318 17.217318v-16.141236a17.217318 17.217318 0 0 0-17.217318-17.217318z" fill="#FFFFFF" /><path d="M461.718257 791.322292h86.660502a17.217318 17.217318 0 0 0 17.217318-17.217318v-16.141236a17.217318 17.217318 0 0 1-17.217318 17.217318h-86.660502a17.217318 17.217318 0 0 1-17.217318-17.217318v16.141236a17.217318 17.217318 0 0 0 17.217318 17.217318z" fill="#64CAE2" /><path d="M548.378759 791.867507h-86.660502a21.521648 21.521648 0 0 1-21.521648-21.521647v-21.89469a21.521648 21.521648 0 0 1 21.521648-21.521648h86.660502a21.521648 21.521648 0 0 1 21.521647 21.521648v21.89469a21.521648 21.521648 0 0 1-21.521647 21.521647z m-86.660502-56.329326a12.912989 12.912989 0 0 0-12.912989 12.912989v21.89469a12.912989 12.912989 0 0 0 12.912989 12.912988h86.660502a12.912989 12.912989 0 0 0 12.912988-12.912988v-21.89469a12.912989 12.912989 0 0 0-12.912988-12.912989zM106.051506 111.912568a8.608659 8.608659 0 0 1-1.736079-17.030797l135.959422-28.150315a8.608659 8.608659 0 0 1 3.486507 16.872972L107.801934 111.769091a9.153874 9.153874 0 0 1-1.750428 0.143477zM286.04422 74.694465a8.608659 8.608659 0 0 1-1.736079-17.045145l30.575087-6.327364a8.608659 8.608659 0 1 1 3.486507 16.858624l-30.575087 6.327365a8.163878 8.163878 0 0 1-1.750428 0.18652z" fill="#33241A" /></svg>