<?xml version="1.0" standalone="no"?><!DOCTYPE svg PUBLIC "-//W3C//DTD SVG 1.1//EN" "http://www.w3.org/Graphics/SVG/1.1/DTD/svg11.dtd"><svg class="icon" width="200px" height="200.00px" viewBox="0 0 1024 1024" version="1.1" xmlns="http://www.w3.org/2000/svg"><path d="M235.35634 652.560328l-19.492488-19.492487L761.34392 87.645104a124.683124 124.683124 0 0 1 176.32675 176.32675l-42.940804 42.95227-19.492488-19.492488 42.940804-42.95227A97.164318 97.164318 0 1 0 780.802009 107.103193z" fill="#33241A" /><path d="M147.192965 689.01128A124.625793 124.625793 0 0 1 59.02959 476.222112L419.296626 115.955076l19.492488 19.492488L78.487679 495.680201A97.164318 97.164318 0 0 0 215.898251 633.090773l545.445669-545.445669 19.492487 19.492488-545.480067 545.422736a124.339139 124.339139 0 0 1-88.163375 36.450952z" fill="#33241A" /><path d="M843.187883 296.798889l63.021976-63.021976 40.514707 40.514707-63.021976 63.021976-40.514707-40.514707Z" fill="#F7C11C" /><path d="M883.676479 332.310223a35.545125 35.545125 0 0 1-25.122377-60.633103l22.50809-22.50809a35.545125 35.545125 0 0 1 50.244754 50.244753l-22.50809 22.50809a35.430463 35.430463 0 0 1-25.122377 10.38835z m22.50809-79.781606a21.785721 21.785721 0 0 0-15.399065 6.363724l-22.50809 22.50809a21.785721 21.785721 0 1 0 30.79813 30.786665l22.50809-22.508091a21.785721 21.785721 0 0 0-15.399065-37.150388z" fill="#33241A" /><path d="M887.8043 252.173166l-13.105832 13.105831a28.745686 28.745686 0 0 1 40.509976 0 28.73422 28.73422 0 0 1 0 40.521442l13.105832-13.105831a28.73422 28.73422 0 0 0 0-40.521442 28.745686 28.745686 0 0 0-40.509976 0z" fill="#FFFFFF" /><path d="M883.098584 261.713019l4.767633-4.767633 36.744486 36.744485-4.767633 4.767634z" fill="#EBA017" /><path d="M883.676479 332.310223a35.545125 35.545125 0 0 1-25.122377-60.633103l22.50809-22.50809a35.545125 35.545125 0 0 1 50.244754 50.244753l-22.50809 22.50809a35.430463 35.430463 0 0 1-25.122377 10.38835z m22.50809-79.781606a21.785721 21.785721 0 0 0-15.399065 6.363724l-22.50809 22.50809a21.785721 21.785721 0 1 0 30.79813 30.786665l22.50809-22.508091a21.785721 21.785721 0 0 0-15.399065-37.150388z" fill="#33241A" /><path d="M165.923095 839.060131l643.548993-643.548994 184.939055 184.939055-643.548993 643.548993-184.939055-184.939054Z" fill="#AEE4F5" /><path d="M350.866528 1016.611201a41.197946 41.197946 0 0 1-29.192866-12.06241L185.386774 868.250437a41.278209 41.278209 0 0 1 0-58.374267l594.899257-594.899257a41.278209 41.278209 0 0 1 58.374268 0l136.298353 136.286887a41.33554 41.33554 0 0 1 0 58.374268l-4.873122-4.838724 4.873122 4.861656-594.899257 594.887791a41.197946 41.197946 0 0 1-29.192867 12.06241z m458.646769-799.948761a27.438543 27.438543 0 0 0-19.492488 8.026318L195.110086 819.599481a27.576137 27.576137 0 0 0 0 38.984976l136.298353 136.229556a27.518806 27.518806 0 0 0 38.916179 0l594.899256-594.899257a27.518806 27.518806 0 0 0 0-38.916178L828.936987 224.700225a27.427077 27.427077 0 0 0-19.458089-8.037785z" fill="#33241A" /><path d="M780.928137 214.632928L185.042789 810.518275a33.699071 33.699071 0 0 0 0 47.664866l16.946999 16.946998a33.699071 33.699071 0 0 1 0-47.664866l595.885347-595.885347a33.699071 33.699071 0 0 1 47.664865 0L828.638867 214.632928a33.699071 33.699071 0 0 0-47.71073 0z" fill="#FFFFFF" /><path d="M967.287785 400.992576L371.402437 996.877923a33.699071 33.699071 0 0 1-47.664865 0l-16.946998-16.946998a33.699071 33.699071 0 0 0 47.664865 0L950.340787 384.045578a33.699071 33.699071 0 0 0 0-47.664865l16.946998 16.946998a33.699071 33.699071 0 0 1 0 47.664865z" fill="#64CAE2" /><path d="M346.153933 1011.921537a41.014487 41.014487 0 0 1-29.192867-12.096808L180.674179 863.537842a41.278209 41.278209 0 0 1 0-58.374268l594.899257-594.910723a41.33554 41.33554 0 0 1 58.374267 0L970.23459 346.551205a41.278209 41.278209 0 0 1 0 58.374267L375.335334 999.824729a41.014487 41.014487 0 0 1-29.181401 12.096808z m458.646768-799.983159a27.438543 27.438543 0 0 0-19.492488 8.026319L190.39749 814.886886a27.518806 27.518806 0 0 0 0 38.916178l136.298354 136.298353a27.518806 27.518806 0 0 0 38.916178 0L960.499813 395.202161l4.861655 4.861655-4.861655-4.861655a27.518806 27.518806 0 0 0 0-38.916179L824.212925 219.987629a27.427077 27.427077 0 0 0-19.458089-8.049251z" fill="#33241A" /><path d="M685.887353 420.057376l40.052476-40.052476 12.89944 12.89944-40.051329 40.051329z" fill="#FF7997" /><path d="M698.784501 437.810445l-17.761097-17.761096 44.912985-44.912984 17.761096 17.761096z m-8.026319-17.761096l8.026319 8.026319 35.189673-35.189674-8.026319-8.026318z" fill="#33241A" /><path d="M685.095041 419.26277l40.052476-40.051329 4.962558 4.961412-40.052476 40.052475z" fill="#E85D88" /><path d="M694.530552 428.699427l40.052475-40.051329 4.962558 4.961412-40.052475 40.052475z" fill="#FFFFFF" /><path d="M698.784501 437.810445l-17.761097-17.761096 44.912985-44.912984 17.761096 17.761096z m-8.026319-17.761096l8.026319 8.026319 35.189673-35.189674-8.026319-8.026318z" fill="#33241A" /><path d="M747.552411 481.702941l40.051329-40.052476 12.899441 12.899441-40.051329 40.051329z" fill="#FF7997" /><path d="M760.438092 499.464037L742.642598 481.714407l44.912984-44.924451 17.761097 17.761096z m-8.026318-17.74963l8.026318 8.026319 35.189674-35.189674-8.026319-8.026318z" fill="#33241A" /><path d="M756.27358 490.425256l40.053622-40.051329 4.961411 4.961411-40.052475 40.051329z" fill="#E85D88" /><path d="M746.847242 481.008091l40.051329-40.051329 4.962558 4.961412-40.051329 40.052475z" fill="#FFFFFF" /><path d="M760.438092 499.464037L742.642598 481.714407l44.912984-44.924451 17.761097 17.761096z m-8.026318-17.74963l8.026318 8.026319 35.189674-35.189674-8.026319-8.026318z" fill="#33241A" /><path d="M474.173712 631.77675l40.051329-40.051329 12.89944 12.89944-40.051329 40.051329z" fill="#FF7997" /><path d="M487.061686 649.53326L469.30059 631.829494l44.924451-44.912984 17.761096 17.761096z m-8.026318-17.761096l8.026318 8.026318 35.189673-35.189673-8.026318-8.026319z" fill="#33241A" /><path d="M473.372227 630.979851l40.052475-40.052475 4.962558 4.961411-40.052475 40.053622z" fill="#E85D88" /><path d="M482.799711 640.408482l40.052476-40.052475 4.962558 4.961411-40.052476 40.052476z" fill="#FFFFFF" /><path d="M487.061686 649.53326L469.30059 631.829494l44.924451-44.912984 17.761096 17.761096z m-8.026318-17.761096l8.026318 8.026318 35.189673-35.189673-8.026318-8.026319z" fill="#33241A" /><path d="M535.829597 693.430342l40.051329-40.051329 12.89944 12.89944-40.051329 40.051329z" fill="#FF7997" /><path d="M548.726744 711.186852l-17.761096-17.761097 44.912985-44.912984L593.639729 666.228002z m-8.026318-17.761097l8.026318 8.026319L583.904951 666.228002l-8.026318-8.026318z" fill="#33241A" /><path d="M544.550765 702.153803l40.053623-40.052475 4.961411 4.961411-40.052476 40.052476z" fill="#E85D88" /><path d="M535.116401 692.717146l40.051329-40.052475 4.962558 4.961411-40.052475 40.052476z" fill="#FFFFFF" /><path d="M548.726744 711.186852l-17.761096-17.761097 44.912985-44.912984L593.639729 666.228002z m-8.026318-17.761097l8.026318 8.026319L583.904951 666.228002l-8.026318-8.026318z" fill="#33241A" /><path d="M612.730901 493.16911a18.82745 18.82745 0 1 0-25.328768 25.328768l-7.361281 7.361281 12.887974 12.89944 40.051329-40.051329-12.887974-12.89944z" fill="#FF7997" /><path d="M592.928826 543.620255l-17.761096-17.761096 6.810905-6.799439a22.255834 22.255834 0 1 1 29.743243-33.034033 20.237789 20.237789 0 0 1 1.559399 1.731391l6.810904-6.810904 17.761096 17.761096z m-8.026318-17.761096l8.026318 8.026318 35.189674-35.189673-8.026319-8.026319-8.267108 8.255642-2.190038-4.185151a15.387599 15.387599 0 1 0-20.639105 20.696435l4.196618 2.15564z" fill="#33241A" /><path d="M588.445554 494.235464a18.82745 18.82745 0 0 1 22.267301-3.23346 18.58666 18.58666 0 0 0-3.210527-4.311279 18.815984 18.815984 0 1 0-22.290233 29.81204 18.804517 18.804517 0 0 1 3.233459-22.267301zM611.114171 491.219862a18.414668 18.414668 0 0 1 7.372747 7.716731l7.36128-7.36128-7.544739-7.556206zM588.445554 520.82551a18.907713 18.907713 0 0 1-3.004136-3.944362l-7.189288 7.166356 7.544739 7.556205 7.361281-7.36128a18.815984 18.815984 0 0 1-4.712596-3.416919z" fill="#E85D88" /><path d="M589.070738 534.096102l39.655279-39.655279 3.964717 3.964717-39.655279 39.655279-3.964717-3.964717Z" fill="#FFFFFF" /><path d="M592.928826 543.620255l-17.761096-17.761096 6.810905-6.799439a22.255834 22.255834 0 1 1 29.743243-33.034033 20.237789 20.237789 0 0 1 1.559399 1.731391l6.810904-6.810904 17.761096 17.761096z m-8.026318-17.761096l8.026318 8.026318 35.189674-35.189673-8.026319-8.026319-8.267108 8.255642-2.190038-4.185151a15.387599 15.387599 0 1 0-20.639105 20.696435l4.196618 2.15564z" fill="#33241A" /><path d="M687.318331 567.768007a18.345871 18.345871 0 0 1 4.724062 3.439851 18.815984 18.815984 0 0 1-26.612979 26.612979 19.079706 19.079706 0 0 1-3.43985-4.724062l-7.361281 7.361281L641.740309 587.558615l40.051329-40.051329 12.887974 12.899441z" fill="#FF7997" /><path d="M678.730171 606.752982a22.20997 22.20997 0 0 1-17.290984-8.175378l-6.810904 6.799438-17.74963-17.761096 44.912985-44.912985 17.761096 17.761096-6.810905 6.810905A20.100195 20.100195 0 0 1 694.484687 568.765564a22.244368 22.244368 0 0 1-15.74305 37.987418z m-15.83478-19.42369l2.15564 4.196618a15.376133 15.376133 0 1 0 20.707901-20.696436l-4.208084-2.155639 8.267108-8.267108-8.026318-8.026319-35.189674 35.178207 8.026319 8.026319z" fill="#33241A" /><path d="M686.286376 592.053354a18.804517 18.804517 0 0 0 3.221994-22.267301 18.598126 18.598126 0 0 1 4.322745 3.199061 18.815984 18.815984 0 1 1-26.612978 26.612979 18.58666 18.58666 0 0 1-3.210528-4.31128 18.82745 18.82745 0 0 0 22.278767-3.233459zM689.279046 569.384737a18.460532 18.460532 0 0 0-2.99267-3.944362 18.815984 18.815984 0 0 0-4.724062-3.439851l7.361281-7.361281 7.544739 7.54474zM659.673397 592.053354a18.907713 18.907713 0 0 0 3.944363 3.004136l-7.200755 7.189288-7.544739-7.544739 7.361281-7.361281a18.815984 18.815984 0 0 0 3.43985 4.712596z" fill="#E85D88" /><path d="M642.417483 587.456098l39.65528-39.655279 3.964717 3.964717-39.655279 39.655279-3.964718-3.964717Z" fill="#FFFFFF" /><path d="M678.730171 606.752982a22.20997 22.20997 0 0 1-17.290984-8.175378l-6.810904 6.799438-17.74963-17.761096 44.912985-44.912985 17.761096 17.761096-6.810905 6.810905A20.100195 20.100195 0 0 1 694.484687 568.765564a22.244368 22.244368 0 0 1-15.74305 37.987418z m-15.83478-19.42369l2.15564 4.196618a15.376133 15.376133 0 1 0 20.707901-20.696436l-4.208084-2.155639 8.267108-8.267108-8.026318-8.026319-35.189674 35.178207 8.026319 8.026319z" fill="#33241A" /><path d="M775.662475 308.707966l39.720141-39.720141 97.545014 97.545013-39.720141 39.720142-97.545014-97.545014Z" fill="#F7C11C" /><path d="M873.207866 404.099908a16.797938 16.797938 0 0 1-11.97068-4.941919L782.77419 320.683527a16.924066 16.924066 0 0 1 0-23.929895l20.639104-20.639105a16.946998 16.946998 0 0 1 23.929896 0l78.474462 78.485929a16.958464 16.958464 0 0 1 0 23.929895l-20.639105 20.639104a16.786472 16.786472 0 0 1-11.970681 4.930453z m-57.823891-126.07053a10.009966 10.009966 0 0 0-7.109025 2.935339l-20.639104 20.639104a10.067297 10.067297 0 0 0 0 14.206584l78.474462 78.474462a10.090229 10.090229 0 0 0 14.206583 0l20.639105-20.639104a10.090229 10.090229 0 0 0 0-14.206584L822.481534 280.964717a9.9985 9.9985 0 0 0-7.097559-2.935339z" fill="#33241A" /><path d="M819.410894 351.083781l38.268339-38.268339 11.415719 11.415718-38.26834 38.268339z" fill="#EBA017" /><path d="M805.844122 278.533889l-20.639104 20.639105a13.53008 13.53008 0 0 0 0 19.068239l7.349814 7.349814a13.507147 13.507147 0 0 1 0-19.068239l20.639105-20.639105a13.53008 13.53008 0 0 1 19.068239 0l-7.349814-7.338348a13.507147 13.507147 0 0 0-19.06824-0.011466z" fill="#FFFFFF" /><path d="M903.386824 376.133921l-20.639105 20.639105a13.53008 13.53008 0 0 1-19.068239 0l-7.349815-7.349815a13.53008 13.53008 0 0 0 19.06824 0l20.639104-20.639104a13.53008 13.53008 0 0 0 0-19.06824l7.338349 7.349815a13.507147 13.507147 0 0 1 0.011466 19.068239z" fill="#EBA017" /><path d="M873.207866 404.099908a16.797938 16.797938 0 0 1-11.97068-4.941919L782.77419 320.683527a16.924066 16.924066 0 0 1 0-23.929895l20.639104-20.639105a16.946998 16.946998 0 0 1 23.929896 0l78.474462 78.485929a16.958464 16.958464 0 0 1 0 23.929895l-20.639105 20.639104a16.786472 16.786472 0 0 1-11.970681 4.930453z m-57.823891-126.07053a10.009966 10.009966 0 0 0-7.109025 2.935339l-20.639104 20.639104a10.067297 10.067297 0 0 0 0 14.206584l78.474462 78.474462a10.090229 10.090229 0 0 0 14.206583 0l20.639105-20.639104a10.090229 10.090229 0 0 0 0-14.206584L822.481534 280.964717a9.9985 9.9985 0 0 0-7.097559-2.935339z" fill="#33241A" /><path d="M813.526456 306.855327m-8.347371 0a8.347371 8.347371 0 1 0 16.694742 0 8.347371 8.347371 0 1 0-16.694742 0Z" fill="#FF7997" /><path d="M813.526456 318.642549a11.787222 11.787222 0 1 1 8.335905-3.439851 11.706959 11.706959 0 0 1-8.335905 3.439851z m0-16.694742a4.918987 4.918987 0 1 0 3.43985 1.444737 4.884588 4.884588 0 0 0-3.43985-1.444737zM822.768188 354.290869l38.19725-38.196103 4.863949 4.863949-38.196103 38.196103zM216.849943 850.168288a6.879702 6.879702 0 0 1-4.873122-11.741357l16.683276-16.683276a6.879702 6.879702 0 1 1 9.734778 9.734778l-16.683276 16.683276a6.879702 6.879702 0 0 1-4.861656 2.006579zM236.904273 870.234085a6.879702 6.879702 0 0 1-4.861656-11.741358l16.683276-16.683276a6.879702 6.879702 0 1 1 9.723312 9.723312l-16.683277 16.683276a6.879702 6.879702 0 0 1-4.861655 2.018046zM256.970069 890.288414a6.879702 6.879702 0 0 1-4.873122-11.741357l16.683276-16.683276a6.879702 6.879702 0 0 1 9.734778 9.734778l-16.683276 16.683276a6.879702 6.879702 0 0 1-4.861656 2.006579zM277.024399 910.354211a6.879702 6.879702 0 0 1-4.861656-11.741358l16.683276-16.683276a6.879702 6.879702 0 0 1 9.723312 9.723312l-16.683276 16.683276a6.879702 6.879702 0 0 1-4.861656 2.018046zM297.078729 930.408541a6.879702 6.879702 0 0 1-4.861656-11.741358l16.683276-16.683276a6.879702 6.879702 0 0 1 9.734778 9.723312l-16.683276 16.683276a6.879702 6.879702 0 0 1-4.873122 2.018046zM317.144525 950.474337a6.879702 6.879702 0 0 1-4.861656-11.752824l16.683276-16.683276a6.879702 6.879702 0 1 1 9.723312 9.734778l-16.683276 16.683276a6.879702 6.879702 0 0 1-4.861656 2.018046zM337.198855 970.528667a6.879702 6.879702 0 0 1-4.861656-11.741358l16.683276-16.683276a6.879702 6.879702 0 0 1 9.723312 9.723312l-16.683277 16.683276a6.879702 6.879702 0 0 1-4.861655 2.018046z" fill="#33241A" /><path d="M325.675355 801.066712l14.659497-54.71312 17.621209 4.721769-14.659497 54.71312z" fill="#FF7997" /><path d="M345.729685 810.002298l-24.262414-6.501318L337.886825 742.145508l24.262414 6.501318zM329.860506 798.639324l10.973124 2.935339 12.887975-48.066181-10.973124-2.935339z" fill="#33241A" /><path d="M324.594095 800.778911l14.660644-54.713119 6.777652 1.816241-14.659497 54.713119z" fill="#E85D88" /><path d="M337.475189 804.231375l14.660644-54.711973 6.777653 1.816241-14.659497 54.711973z" fill="#FFFFFF" /><path d="M345.729685 810.002298l-24.262414-6.501318L337.886825 742.145508l24.262414 6.501318zM329.860506 798.639324l10.973124 2.935339 12.887975-48.066181-10.973124-2.935339z" fill="#33241A" /><path d="M374.712721 837.208077l54.711972-14.659497 4.721769 17.621209-54.71312 14.659497z" fill="#FF7997" /><path d="M376.997928 859.031637L370.485144 834.780689 431.909412 818.338203l6.501318 24.250948z m1.91485-19.389292l2.946806 10.961658 48.066181-12.876508-2.946805-10.973124z" fill="#33241A" /><path d="M377.901462 849.117987l54.71312-14.660644 1.816241 6.7788-54.71312 14.660644z" fill="#E85D88" /><path d="M374.443266 836.235746l54.711973-14.660644 1.816241 6.7788-54.711973 14.659497z" fill="#FFFFFF" /><path d="M376.997928 859.031637L370.485144 834.780689 431.909412 818.338203l6.501318 24.250948z m1.91485-19.389292l2.946806 10.961658 48.066181-12.876508-2.946805-10.973124z" fill="#33241A" /><path d="M401.501132 766.187772l40.052475-40.052476 12.899441 12.899441-40.051329 40.051329z" fill="#FF7997" /><path d="M414.400572 783.939695l-17.761096-17.74963L441.552461 721.265614l17.761096 17.761096z m-8.026318-17.74963l8.026318 8.026319 35.178207-35.189674-8.026318-8.026318z" fill="#33241A" /><path d="M400.708819 765.393166l40.051329-40.051329 4.962558 4.961412-40.051329 40.051329z" fill="#E85D88" /><path d="M410.14433 774.818358l40.051329-40.05133 4.962558 4.961412-40.051329 40.051329z" fill="#FFFFFF" /><path d="M414.400572 783.939695l-17.761096-17.74963L441.552461 721.265614l17.761096 17.761096z m-8.026318-17.74963l8.026318 8.026319 35.178207-35.189674-8.026318-8.026318z" fill="#33241A" /><path d="M543.644767 44.553577l11.894151 11.894152-56.487084 56.487084-11.894152-11.894151 56.487085-56.487085Z" fill="#AEE4F5" /><path d="M499.043833 112.870676a11.729891 11.729891 0 0 1-8.370303-3.43985 11.856019 11.856019 0 0 1 0-16.752074l44.591932-44.591932a11.844553 11.844553 0 0 1 16.752073 16.752074l-44.591932 44.568999a11.752823 11.752823 0 0 1-8.38177 3.462783z m44.591932-61.401336a4.953385 4.953385 0 0 0-3.508648 1.456204L495.535185 97.50601a4.964851 4.964851 0 0 0 7.028762 7.028761l44.591932-44.591932a4.976317 4.976317 0 0 0-3.520114-8.484965z" fill="#33241A" /><path d="M497.151915 99.145672l44.591932-44.603398a8.439101 8.439101 0 0 1 9.505454-1.651129 8.267108 8.267108 0 0 0-1.662594-2.396429 8.439101 8.439101 0 0 0-11.890418 0l-44.591932 44.591932a8.393236 8.393236 0 0 0 2.384964 13.553012 8.427634 8.427634 0 0 1 1.662594-9.493988z" fill="#FFFFFF" /><path d="M501.004548 102.986839l44.591932-44.591932a8.427634 8.427634 0 0 0 1.662595-9.493989 8.267108 8.267108 0 0 1 2.396429 1.662595 8.439101 8.439101 0 0 1 0 11.890417L505.063572 107.045862a8.439101 8.439101 0 0 1-11.890418 0 8.267108 8.267108 0 0 1-1.639662-2.396429 8.404702 8.404702 0 0 0 9.471056-1.662594z" fill="#64CAE2" /><path d="M499.043833 112.870676a11.729891 11.729891 0 0 1-8.370303-3.43985 11.856019 11.856019 0 0 1 0-16.752074l44.591932-44.591932a11.844553 11.844553 0 0 1 16.752073 16.752074l-44.591932 44.568999a11.752823 11.752823 0 0 1-8.38177 3.462783z m44.591932-61.401336a4.953385 4.953385 0 0 0-3.508648 1.456204L495.535185 97.50601a4.964851 4.964851 0 0 0 7.028762 7.028761l44.591932-44.591932a4.976317 4.976317 0 0 0-3.520114-8.484965z" fill="#33241A" /><path d="M499.087511-0.000041l11.894152 11.894151-56.487084 56.487084-11.894152-11.894151 56.487084-56.487084Z" fill="#AEE4F5" /><path d="M454.4863 68.313143a11.76429 11.76429 0 0 1-8.370304-3.439851 11.856019 11.856019 0 0 1 0-16.752073L490.707928 3.483422a11.844553 11.844553 0 0 1 20.214856 8.370304 11.741357 11.741357 0 0 1-3.43985 8.381769L462.868069 64.85036a11.775756 11.775756 0 0 1-8.381769 3.462783z m-3.508648-8.324439a4.976317 4.976317 0 0 0 7.028761 0l44.591932-44.591932a4.964851 4.964851 0 0 0-7.028761-7.028762l-44.591932 44.591932a4.976317 4.976317 0 0 0 0 7.028762z" fill="#33241A" /><path d="M452.548517 54.588138l44.591932-44.603398a8.439101 8.439101 0 0 1 9.505454-1.651128 8.267108 8.267108 0 0 0-1.662594-2.39643 8.439101 8.439101 0 0 0-11.890418 0L448.546824 50.494716a8.393236 8.393236 0 0 0 2.384963 13.553012 8.450567 8.450567 0 0 1 1.61673-9.45959z" fill="#FFFFFF" /><path d="M456.447014 58.429305L501.038946 13.802974a8.427634 8.427634 0 0 0 1.662595-9.493988 8.267108 8.267108 0 0 1 2.396429 1.662595 8.439101 8.439101 0 0 1 0 11.890417l-44.591932 44.626331a8.439101 8.439101 0 0 1-11.890417 0 8.267108 8.267108 0 0 1-1.662595-2.396429 8.404702 8.404702 0 0 0 9.493988-1.662595z" fill="#64CAE2" /><path d="M454.4863 68.313143a11.76429 11.76429 0 0 1-8.370304-3.439851 11.856019 11.856019 0 0 1 0-16.752073L490.707928 3.483422a11.844553 11.844553 0 0 1 20.214856 8.370304 11.741357 11.741357 0 0 1-3.43985 8.381769L462.868069 64.85036a11.775756 11.775756 0 0 1-8.381769 3.462783z m-3.508648-8.324439a4.976317 4.976317 0 0 0 7.028761 0l44.591932-44.591932a4.964851 4.964851 0 0 0-7.028761-7.028762l-44.591932 44.591932a4.976317 4.976317 0 0 0 0 7.028762z" fill="#33241A" /><path d="M398.795116 186.105099l-29.307529-29.318995-6.042671-42.47069 61.573329-61.573329 77.832356 77.82089-61.68799 61.687991-42.367495-6.145867z" fill="#F7C11C" /><path d="M443.593439 199.554916l-48.043249-6.971431-32.552455-32.552455-6.879701-48.15791L425.029711 43.007307l87.567134 87.555668zM402.097372 179.626713l36.691742 5.320303 54.38404-54.384041L425.029711 62.465397l-54.280845 54.280845 5.240039 36.806403z" fill="#33241A" /><path d="M435.223135 62.93551l-10.20489-10.193425-61.573329 61.573329 6.042671 42.47069 10.193425 10.204891-6.031205-42.482157 61.573328-61.573328z" fill="#FFFFFF" /><path d="M492.657177 120.369551l10.193424 10.193424-61.573328 61.584795-42.470691-6.042671-10.204891-10.204891 42.470691 6.042672 61.584795-61.573329z" fill="#EBA017" /><path d="M443.593439 199.554916l-48.043249-6.971431-32.552455-32.552455-6.879701-48.15791L425.029711 43.007307l87.567134 87.555668zM402.097372 179.626713l36.691742 5.320303 54.38404-54.384041L425.029711 62.465397l-54.280845 54.280845 5.240039 36.806403z" fill="#33241A" /><path d="M435.498323 35.327267l84.767096 84.767096a7.384213 7.384213 0 0 1 0 10.443387l-13.694046 13.694046-95.210482-95.210483 13.694045-13.694046a7.384213 7.384213 0 0 1 10.443387 0z" fill="#F7C11C" /><path d="M506.577106 153.965427l-104.949847-104.949847 18.563728-18.552262a14.252448 14.252448 0 0 1 20.168992 0l84.769389 84.757923a14.286847 14.286847 0 0 1 0 20.180458z m-85.491757-104.949847l85.491757 85.491758 8.82895-8.828951a0.515978 0.515978 0 0 0 0-0.722368L430.636668 40.175164a0.515978 0.515978 0 0 0-0.722369 0z" fill="#33241A" /><path d="M424.238545 36.127606l-1.800188 1.811655 95.169204 95.169204 1.800189-1.811655a7.372747 7.372747 0 0 0 0-10.44568l-84.723525-84.723524a7.395679 7.395679 0 0 0-10.44568 0z" fill="#FFFFFF" /><path d="M411.798898 48.579866l7.029909-7.028762 95.218508 95.217362-7.029908 7.029909z" fill="#EBA017" /><path d="M506.577106 153.965427l-104.949847-104.949847 18.563728-18.552262a14.252448 14.252448 0 0 1 20.168992 0l84.769389 84.757923a14.286847 14.286847 0 0 1 0 20.180458z m-85.491757-104.949847l85.491757 85.491758 8.82895-8.828951a0.515978 0.515978 0 0 0 0-0.722368L430.636668 40.175164a0.515978 0.515978 0 0 0-0.722369 0zM421.693056 167.518439a3.439851 3.439851 0 0 1-2.430828-1.009023l-30.190424-30.178957a3.439851 3.439851 0 0 1 4.873122-4.873122l30.178957 30.190423a3.439851 3.439851 0 0 1-2.430827 5.870679zM417.312979 141.719558a3.439851 3.439851 0 0 1-2.430828-5.882145l10.571808-10.560342a3.439851 3.439851 0 0 1 4.861656 4.861656l-10.571808 10.571808a3.439851 3.439851 0 0 1-2.430828 1.009023zM438.94964 120.071431a3.439851 3.439851 0 0 1-2.45376-5.870679l6.249062-6.237596a3.439851 3.439851 0 1 1 4.861656 4.861656l-6.249062 6.249062a3.439851 3.439851 0 0 1-2.407896 0.997557zM406.68384 172.758478a3.439851 3.439851 0 0 1-2.430828-1.009023L383.843231 151.397005a3.439851 3.439851 0 0 1 4.861656-4.861656l20.386849 20.398315a3.439851 3.439851 0 0 1-2.430828 5.870679z" fill="#33241A" /></svg>