<?xml version="1.0" standalone="no"?><!DOCTYPE svg PUBLIC "-//W3C//DTD SVG 1.1//EN" "http://www.w3.org/Graphics/SVG/1.1/DTD/svg11.dtd"><svg class="icon" width="200px" height="200.00px" viewBox="0 0 1024 1024" version="1.1" xmlns="http://www.w3.org/2000/svg"><path d="M82.270831 1007.964353L33.121577 958.842535a26.652805 26.652805 0 0 1 3.62138-40.713085 621.88963 621.88963 0 0 0 84.457703-70.712923l435.292563-435.278845 71.974919-53.621109 54.060063 54.046346L629.263748 484.222339 193.888881 919.569771a622.575497 622.575497 0 0 0-69.958469 83.415185l-0.973931 1.371735a26.652805 26.652805 0 0 1-40.68565 3.607662z" fill="#FF7997" /><path d="M101.09103 1023.999931a34.773474 34.773474 0 0 1-24.691224-10.219423L27.305422 964.631255a34.869495 34.869495 0 0 1 4.732485-53.278175 615.730541 615.730541 0 0 0 83.346598-69.752708L550.690786 406.321527a8.038365 8.038365 0 0 1 0.905345-0.781889l71.988635-53.634826a8.230408 8.230408 0 0 1 10.740683 0.781889l54.046346 54.060063a8.230408 8.230408 0 0 1 0.795606 10.726966l-53.291892 71.631984a9.890207 9.890207 0 0 1-0.795606 0.905345L199.705036 925.385926a615.730541 615.730541 0 0 0-69.025689 82.30408l-0.987649 1.371735a34.814626 34.814626 0 0 1-25.527982 14.801017c-1.028801 0.096021-2.030167 0.137173-3.072686 0.137173zM561.884141 418.379074l-434.839891 434.839891a632.698899 632.698899 0 0 1-85.582526 71.618267 18.422397 18.422397 0 0 0-2.510274 28.147996l49.149253 49.149253a18.422397 18.422397 0 0 0 28.120561-2.469123l0.987649-1.371734a632.369683 632.369683 0 0 1 70.87753-84.526291L623.022355 478.7354l48.655429-65.431744-43.991531-43.991531z" fill="#33241A" /><path d="M126.207492 1007.648854l0.987649-1.371735a620.819677 620.819677 0 0 1 69.958468-83.428902l435.374867-435.402302 53.264457-71.618267-21.645973-21.645973-53.264457 71.631984L175.507636 901.229678a622.575497 622.575497 0 0 0-69.958468 83.415186l-0.973932 1.371734a26.652805 26.652805 0 0 1-40.68565 3.580228l21.632256 21.632256a26.652805 26.652805 0 0 0 40.68565-3.580228z" fill="#E85D88" /><path d="M33.272468 914.71383l1.371735-0.987649a622.76754 622.76754 0 0 0 83.428902-69.958468L553.434255 408.392846l71.618267-53.264457L646.712213 376.774362l-71.60455 53.264457L139.732796 865.413686a623.604298 623.604298 0 0 1-83.415185 69.958468l-1.371735 0.973932a26.652805 26.652805 0 0 0-3.56651 40.68565L29.692241 955.385763a26.639087 26.639087 0 0 1 3.580227-40.671933z" fill="#FFFFFF" /><path d="M101.09103 1023.999931a34.773474 34.773474 0 0 1-24.691224-10.219423L27.305422 964.631255a34.869495 34.869495 0 0 1 4.732485-53.278175 615.730541 615.730541 0 0 0 83.346598-69.752708L550.690786 406.321527a8.038365 8.038365 0 0 1 0.905345-0.781889l71.988635-53.634826a8.230408 8.230408 0 0 1 10.740683 0.781889l54.046346 54.060063a8.230408 8.230408 0 0 1 0.795606 10.726966l-53.291892 71.631984a9.890207 9.890207 0 0 1-0.795606 0.905345L199.705036 925.385926a615.730541 615.730541 0 0 0-69.025689 82.30408l-0.987649 1.371735a34.814626 34.814626 0 0 1-25.527982 14.801017c-1.028801 0.096021-2.030167 0.137173-3.072686 0.137173zM561.884141 418.379074l-434.839891 434.839891a632.698899 632.698899 0 0 1-85.582526 71.618267 18.422397 18.422397 0 0 0-2.510274 28.147996l49.149253 49.149253a18.422397 18.422397 0 0 0 28.120561-2.469123l0.987649-1.371734a632.369683 632.369683 0 0 1 70.87753-84.526291L623.022355 478.7354l48.655429-65.431744-43.991531-43.991531z" fill="#33241A" /><path d="M642.428285 15.489628l40.224748 40.224747-130.751006 130.751006-40.224747-40.224748a24.800963 24.800963 0 0 1 0-35.073884l95.678493-95.677121a24.800963 24.800963 0 0 1 35.072512 0z" fill="#F7C11C" /><path d="M551.897912 198.105921l-46.049133-46.035415a33.072523 33.072523 0 0 1 0-46.721283l95.678494-95.678494a33.045088 33.045088 0 0 1 46.721283 0l46.035415 46.049133zM624.887914 16.460816a16.460816 16.460816 0 0 0-11.714614 4.855941L517.494807 116.99525a16.584272 16.584272 0 0 0 0 23.429228l34.403105 34.403106 119.107722-119.107722-34.403106-34.403105a16.460816 16.460816 0 0 0-11.714614-4.855941z" fill="#33241A" /><path d="M537.494698 172.081371L668.248447 41.330366l14.38401 14.385381-130.751006 130.751005z" fill="#EBA017" /><path d="M528.59214 123.895075l91.480985-91.480985a27.791344 27.791344 0 0 1 39.272764 0L644.517437 17.585638a27.791344 27.791344 0 0 0-39.272763 0l-91.480986 91.494703a27.76391 27.76391 0 0 0 0 39.259046L528.59214 163.236426a27.791344 27.791344 0 0 1 0-39.341351z" fill="#FFFFFF" /><path d="M599.840039 348.338302l39.149307-76.364469 130.081599 130.081599-76.378186 39.13559-92.85272-92.85272z" fill="#F7C11C" /><path d="M691.115264 451.300707l-101.33004-101.38491 47.036782-91.755332 146.062307 146.062308z m-81.22041-104.498748l84.389117 84.3754 60.973606-31.261833L641.225274 285.773484z" fill="#33241A" /><path d="M745.381088 414.195284l23.689857-12.139852-130.081599-130.081599-12.139851 23.689858 118.531593 118.531593z" fill="#FFFFFF" /><path d="M685.943824 445.306226l22.318123-13.525304-99.011808-98.998091-13.525304 22.318123 90.218989 90.205272z" fill="#EBA017" /><path d="M950.016466 323.084667l-196.158058-196.158058a28.600668 28.600668 0 0 0-21.24817-8.230408c-43.072469 1.371735-60.836433-52.208222-60.836433-52.208222l-109.13521 109.135211s47.297411 14.746148 50.754183 60.054544a37.105423 37.105423 0 0 0 10.973877 23.223468L774.42071 408.996409a26.817413 26.817413 0 0 0 34.293367 3.045251c31.755658-22.290688 66.995521-21.261887 91.357529 3.086403 73.291783 73.305501-4.348399 204.168988-4.348399 204.168989 72.249265-72.22183 159.121222-191.315834 54.293259-296.212385z" fill="#AEE4F5" /><path d="M895.764359 627.513742a8.230408 8.230408 0 0 1-7.07815-12.427916c0.740737-1.248279 73.483826-126.19959 5.596677-194.12789-21.330474-21.344191-52.304243-22.18095-80.795172-2.181058a34.979234 34.979234 0 0 1-44.883159-3.950596L618.591652 264.744791a45.267244 45.267244 0 0 1-13.319544-28.408625c-3.058968-39.286481-44.649964-52.702046-45.061484-52.825502a8.230408 8.230408 0 0 1-3.374467-13.717347L665.916498 60.754129a8.230408 8.230408 0 0 1 13.717347 3.223576c0.164608 0.46639 16.460816 47.654062 52.78435 46.638979a37.187727 37.187727 0 0 1 27.311237 10.562357l196.158058 196.158058c48.833754 48.820037 62.701992 105.62357 41.234344 168.723364-14.869604 43.772053-46.99563 90.534488-95.48645 139.052744a8.230408 8.230408 0 0 1-5.871025 2.400535zM855.078709 387.940282a70.918682 70.918682 0 0 1 50.891356 21.371626c32.112309 32.112309 41.61843 79.560611 27.434694 137.338075a290.958641 290.958641 0 0 1-8.792819 29.053341c27.585584-33.058806 46.638979-64.869333 56.858402-94.937757 19.272872-56.748663 6.735217-107.832062-37.283749-151.864745l-196.158058-196.158058a20.260521 20.260521 0 0 0-15.171385-5.761286h-1.851842c-34.293367 0-53.621108-29.067058-62.016124-46.021698l-91.906223 91.906223c15.788666 8.0658 41.851625 26.639087 44.608811 62.180733a28.929884 28.929884 0 0 0 8.559625 18.120615l149.999186 150.012903a18.504701 18.504701 0 0 0 23.772162 2.112472c16.529403-11.604875 34.183628-17.352444 51.055964-17.352444z" fill="#33241A" /><path d="M916.943943 400.546524c-24.362008-24.362008-74.073672-37.914746-105.774461-15.637776-10.644661 7.462237-22.318123 7.13302-31.549897-2.057602L640.127886 243.263426c-6.227675-6.241393-8.079517-16.611707-8.765384-25.404526-3.511641-45.267244-50.754183-60.040827-50.754183-60.040826l-22.249536 22.235819S605.560173 194.786323 609.126683 240.053567a37.11914 37.11914 0 0 0 10.973877 23.223468l149.985469 150.067773a26.789978 26.789978 0 0 0 34.293367 3.031534c31.755658-22.276971 66.995521-21.261887 91.357529 3.10012 73.291783 73.291783-4.348399 204.155271-4.348399 204.155271 7.914909-7.914909 16.008144-16.392229 24.005357-25.349657C926.546085 578.062707 983.569096 467.10309 916.943943 400.546524z" fill="#64CAE2" /><path d="M713.076736 133.977325a28.600668 28.600668 0 0 1 21.24817 8.230408l196.158058 196.158058c96.021427 96.021427 31.220681 204.031815-35.82971 277.008099l-1.042518 1.824408c72.208113-72.208113 159.121222-191.384421 54.238389-296.198668l-196.158058-196.158058a28.669255 28.669255 0 0 0-21.234453-8.230408c-43.072469 1.371735-60.836433-52.125917-60.836432-52.125917L652.199151 81.782821s17.832551 53.497652 60.877585 52.194504z" fill="#FFFFFF" /><path d="M895.764359 627.513742a8.230408 8.230408 0 0 1-7.07815-12.427916c0.740737-1.248279 73.483826-126.19959 5.596677-194.12789-21.330474-21.344191-52.304243-22.18095-80.795172-2.181058a34.979234 34.979234 0 0 1-44.883159-3.950596L618.591652 264.744791a45.267244 45.267244 0 0 1-13.319544-28.408625c-3.058968-39.286481-44.649964-52.702046-45.061484-52.825502a8.230408 8.230408 0 0 1-3.374467-13.717347L665.916498 60.754129a8.230408 8.230408 0 0 1 13.717347 3.223576c0.164608 0.46639 16.460816 47.654062 52.78435 46.638979a37.187727 37.187727 0 0 1 27.311237 10.562357l196.158058 196.158058c48.833754 48.820037 62.701992 105.62357 41.234344 168.723364-14.869604 43.772053-46.99563 90.534488-95.48645 139.052744a8.230408 8.230408 0 0 1-5.871025 2.400535zM855.078709 387.940282a70.918682 70.918682 0 0 1 50.891356 21.371626c32.112309 32.112309 41.61843 79.560611 27.434694 137.338075a290.958641 290.958641 0 0 1-8.792819 29.053341c27.585584-33.058806 46.638979-64.869333 56.858402-94.937757 19.272872-56.748663 6.735217-107.832062-37.283749-151.864745l-196.158058-196.158058a20.260521 20.260521 0 0 0-15.171385-5.761286h-1.851842c-34.293367 0-53.621108-29.067058-62.016124-46.021698l-91.906223 91.906223c15.788666 8.0658 41.851625 26.639087 44.608811 62.180733a28.929884 28.929884 0 0 0 8.559625 18.120615l149.999186 150.012903a18.504701 18.504701 0 0 0 23.772162 2.112472c16.529403-11.604875 34.183628-17.352444 51.055964-17.352444z" fill="#33241A" /><path d="M551.897912 198.105921l-46.049133-46.035415a33.072523 33.072523 0 0 1 0-46.721283l95.678494-95.678494a33.045088 33.045088 0 0 1 46.721283 0l46.035415 46.049133zM624.887914 16.460816a16.460816 16.460816 0 0 0-11.714614 4.855941L517.494807 116.99525a16.584272 16.584272 0 0 0 0 23.429228l34.403105 34.403106 119.107722-119.107722-34.403106-34.403105a16.460816 16.460816 0 0 0-11.714614-4.855941zM690.031594 452.343225l-101.330041-101.33004L635.738335 259.257853l146.062308 146.04859z m-81.22041-104.498747l84.389117 84.375399 60.973606-31.248116-114.10089-114.100889zM108.8962 917.909972a8.230408 8.230408 0 0 1-5.816155-2.414253l-4.23866-4.23866a8.230408 8.230408 0 0 1 11.63231-11.646027l4.23866 4.252377a8.230408 8.230408 0 0 1-5.816155 14.046563zM154.876747 963.890518a8.230408 8.230408 0 0 1-5.816155-2.414253l-25.514265-25.514265a8.230408 8.230408 0 1 1 11.63231-11.646027l25.527982 25.527982a8.230408 8.230408 0 0 1-5.829872 14.046563zM620.649254 487.569371a8.230408 8.230408 0 0 1-5.816155-2.414253l-8.010931-8.01093a8.230408 8.230408 0 0 1 11.646028-11.63231l8.01093 8.01093a8.230408 8.230408 0 0 1-5.829872 14.046563zM585.052739 452.000291a8.230408 8.230408 0 0 1-5.829872-2.400535l-22.12608-22.126081a8.230408 8.230408 0 0 1 11.646027-11.646027l22.12608 22.12608a8.230408 8.230408 0 0 1-5.816155 14.046563zM655.683357 218.105813a8.230408 8.230408 0 0 1-5.816155-14.060281l14.293476-14.293475a8.230408 8.230408 0 1 1 11.63231 11.63231l-14.293476 14.307193a8.230408 8.230408 0 0 1-5.816155 2.414253zM682.473336 244.813487a8.230408 8.230408 0 0 1-5.829873-14.046563l14.307193-14.293476a8.230408 8.230408 0 0 1 11.63231 11.63231l-14.293475 14.293476a8.230408 8.230408 0 0 1-5.816155 2.414253zM709.249596 271.603465a8.230408 8.230408 0 0 1-5.816155-14.046563l14.293476-14.307193a8.230408 8.230408 0 1 1 11.646027 11.646027l-14.293475 14.293476a8.230408 8.230408 0 0 1-5.829873 2.414253z" fill="#33241A" /></svg>