<?xml version="1.0" standalone="no"?><!DOCTYPE svg PUBLIC "-//W3C//DTD SVG 1.1//EN" "http://www.w3.org/Graphics/SVG/1.1/DTD/svg11.dtd"><svg class="icon" width="200px" height="200.00px" viewBox="0 0 1024 1024" version="1.1" xmlns="http://www.w3.org/2000/svg"><path d="M54.335663 969.707312s-102.075142-269.118022 0-371.208055L235.881998 416.938031a46.607614 46.607614 0 0 1 65.682488 0l305.525567 305.555348a46.592723 46.592723 0 0 1 0 65.667597L425.543717 969.707312c-102.090033 102.075142-371.208055 0-371.208054 0z" fill="#AEE4F5" /><path d="M283.934002 1023.998481a534.930328 534.930328 0 0 1-83.685237-7.192165 856.537756 856.537756 0 0 1-149.069912-38.71559l-3.618418-1.369936-1.489062-3.573747c-1.116796-2.68031-104.368296-274.627548 1.93578-380.931624l181.561226-181.576117a55.52709 55.52709 0 0 1 78.309726 0L613.403672 716.239322a55.437747 55.437747 0 0 1 0 78.309726L431.842446 976.020931c-24.733306 24.733306-60.500555 40.085526-106.304076 45.624834a350.718573 350.718573 0 0 1-41.604368 2.352716zM61.304469 962.738505c32.759345 11.704021 267.494945 91.056089 357.925629 0.655187l181.531445-181.546335a37.554122 37.554122 0 0 0 0-53.040359L295.235976 423.281431a37.643466 37.643466 0 0 0-53.040358 0L60.649282 604.827767c-90.415793 90.415793-11.048834 325.121612 0.655187 357.910738z" fill="#33241A" /><path d="M609.189629 720.378912L303.664062 414.853345a46.562942 46.562942 0 0 0-65.667597 0l-26.252148 26.237258a46.592723 46.592723 0 0 1 65.667597 0l305.540458 305.540457a46.592723 46.592723 0 0 1 0 65.667597l26.237257-26.252148a46.562942 46.562942 0 0 0 0-65.667597z" fill="#64CAE2" /><path d="M90.415614 933.64225s-102.075142-269.118022 0-371.208054l-35.022718 35.022718c-102.075142 102.075142 0 371.193164 0 371.193164s269.118022 102.075142 371.193164 0L461.623669 933.64225c-102.090033 102.060251-371.208055 0-371.208055 0z" fill="#FFFFFF" /><path d="M283.934002 1023.998481a534.930328 534.930328 0 0 1-83.685237-7.192165 856.537756 856.537756 0 0 1-149.069912-38.71559l-3.618418-1.369936-1.489062-3.573747c-1.116796-2.68031-104.368296-274.627548 1.93578-380.931624l181.561226-181.576117a55.52709 55.52709 0 0 1 78.309726 0L613.403672 716.239322a55.437747 55.437747 0 0 1 0 78.309726L431.842446 976.020931c-24.733306 24.733306-60.500555 40.085526-106.304076 45.624834a350.718573 350.718573 0 0 1-41.604368 2.352716zM61.304469 962.738505c32.759345 11.704021 267.494945 91.056089 357.925629 0.655187l181.531445-181.546335a37.554122 37.554122 0 0 0 0-53.040359L295.235976 423.281431a37.643466 37.643466 0 0 0-53.040358 0L60.649282 604.827767c-90.415793 90.415793-11.048834 325.121612 0.655187 357.910738z" fill="#33241A" /><path d="M321.39878 714.080184l-11.435989-11.43599a17.868734 17.868734 0 0 1 0-25.31404l397.996264-440.077132a17.868734 17.868734 0 0 1 25.31404 0l53.606201 53.606201a17.868734 17.868734 0 0 1 0 25.31404L346.668148 714.080184a17.868734 17.868734 0 0 1-25.269368 0z" fill="#F7C11C" /><path d="M334.026019 728.241155a26.669085 26.669085 0 0 1-18.940858-7.847352l-11.43599-11.43599a26.803101 26.803101 0 0 1-0.178687-37.732809l398.011155-440.136696 0.163797-0.148906a26.803101 26.803101 0 0 1 37.911497 0l53.606201 53.606202a26.803101 26.803101 0 0 1 0 37.911497l-0.327593 0.312703-440.032461 397.802686a26.713757 26.713757 0 0 1-18.777061 7.668665z m380.395562-484.793639L316.440207 683.479977l-0.163797 0.148906a8.934367 8.934367 0 0 0 0 12.642129l11.43599 11.43599a8.934367 8.934367 0 0 0 12.642129 0l0.312703-0.312703 439.928226-397.772905a8.934367 8.934367 0 0 0-0.119125-12.493223l-53.606201-53.606202a8.934367 8.934367 0 0 0-12.493223-0.119125z" fill="#33241A" /><path d="M325.746839 693.173765L723.698432 253.05196a17.868734 17.868734 0 0 1 25.314039 0l-14.741705-14.741705a17.868734 17.868734 0 0 0-25.31404 0L311.005134 678.43206a17.868734 17.868734 0 0 0 0 25.314039l11.45088 11.43599a15.769158 15.769158 0 0 0 1.771983 1.489061 17.868734 17.868734 0 0 1 1.518842-23.497385z" fill="#FFFFFF" /><path d="M330.869209 698.370588l440.121805-398.085608a17.868734 17.868734 0 0 0 0-25.314039l14.741705 14.741705a17.868734 17.868734 0 0 1 0 25.31404L345.610915 713.037841a17.868734 17.868734 0 0 1-25.31404 0l-11.43599-11.43599a17.362453 17.362453 0 0 1-1.489061-1.786873 17.868734 17.868734 0 0 0 23.497385-1.44439z" fill="#EBA017" /><path d="M334.026019 728.241155a26.669085 26.669085 0 0 1-18.940858-7.847352l-11.43599-11.43599a26.803101 26.803101 0 0 1-0.178687-37.732809l398.011155-440.136696 0.163797-0.148906a26.803101 26.803101 0 0 1 37.911497 0l53.606201 53.606202a26.803101 26.803101 0 0 1 0 37.911497l-0.327593 0.312703-440.032461 397.802686a26.713757 26.713757 0 0 1-18.777061 7.668665z m380.395562-484.793639L316.440207 683.479977l-0.163797 0.148906a8.934367 8.934367 0 0 0 0 12.642129l11.43599 11.43599a8.934367 8.934367 0 0 0 12.642129 0l0.312703-0.312703 439.928226-397.772905a8.934367 8.934367 0 0 0-0.119125-12.493223l-53.606201-53.606202a8.934367 8.934367 0 0 0-12.493223-0.119125z" fill="#33241A" /><path d="M731.043968 195.423041l97.574582 97.574582-42.643473 42.643472-97.574581-97.574581 42.643472-42.643473Z" fill="#F7C11C" /><path d="M785.98586 337.154134a26.803101 26.803101 0 0 1-18.955749-7.847352l-72.293919-72.293919a26.803101 26.803101 0 0 1 0-37.911497l17.362453-17.362453a26.803101 26.803101 0 0 1 37.911497 0L822.304061 273.98816a26.803101 26.803101 0 0 1 0 37.911497l-17.362453 17.362453a26.803101 26.803101 0 0 1-18.955748 7.892024z m-54.931466-125.378949a8.934367 8.934367 0 0 0-6.313619 2.650529L707.318759 231.743495a8.934367 8.934367 0 0 0 0 12.627239l72.30881 72.308809a8.934367 8.934367 0 0 0 12.627238 0l17.422016-17.377343a8.934367 8.934367 0 0 0 0-12.627239L737.368013 214.425714a8.934367 8.934367 0 0 0-6.313619-2.650529z" fill="#33241A" /><path d="M784.362783 311.989001L712.068864 239.739754a17.868734 17.868734 0 0 1 0-25.31404l-11.019052 11.019053a17.868734 17.868734 0 0 0 0 25.314039l72.293919 72.293919a17.868734 17.868734 0 0 0 25.314039 0l11.019053-11.004162a17.868734 17.868734 0 0 1-25.31404-0.059562z" fill="#FFFFFF" /><path d="M758.77972 264.376135a61.61735 13.758925 45 1 0 19.458058-19.458058 61.61735 13.758925 45 1 0-19.458058 19.458058Z" fill="#EBA017" /><path d="M785.98586 337.154134a26.803101 26.803101 0 0 1-18.955749-7.847352l-72.293919-72.293919a26.803101 26.803101 0 0 1 0-37.911497l17.362453-17.362453a26.803101 26.803101 0 0 1 37.911497 0L822.304061 273.98816a26.803101 26.803101 0 0 1 0 37.911497l-17.362453 17.362453a26.803101 26.803101 0 0 1-18.955748 7.892024z m-54.931466-125.378949a8.934367 8.934367 0 0 0-6.313619 2.650529L707.318759 231.743495a8.934367 8.934367 0 0 0 0 12.627239l72.30881 72.308809a8.934367 8.934367 0 0 0 12.627238 0l17.422016-17.377343a8.934367 8.934367 0 0 0 0-12.627239L737.368013 214.425714a8.934367 8.934367 0 0 0-6.313619-2.650529z" fill="#33241A" /><path d="M1009.940657 241.422393a23.542057 23.542057 0 0 0-1.727311-31.463862L814.024881 15.829628a23.61651 23.61651 0 0 0-31.582987-1.578404q-4.586308 3.692872-8.934367 7.758008C704.072606 86.902517 705.829698 198.805463 777.111055 261.628953a161.771604 161.771604 0 0 0 232.829602-20.20656z m-203.301519-13.327097c-1.861326-1.637967-3.692872-3.350388-5.435073-5.09259a116.14677 116.14677 0 0 1-33.995266-84.876485 115.953192 115.953192 0 0 1 29.70677-76.195259l165.285787 165.285787a117.159331 117.159331 0 0 1-155.562218 0.878547z" fill="#FF7997" /><path d="M883.757615 310.708408A170.765533 170.765533 0 0 1 767.402377 15.487144c2.978122-2.844107 6.209385-5.59887 9.425757-8.189836a32.535986 32.535986 0 0 1 43.510366 2.20381L1014.526965 203.704474a32.416861 32.416861 0 0 1 2.367607 43.316789 166.953536 166.953536 0 0 1-12.388988 13.803597 170.318815 170.318815 0 0 1-120.747969 49.883548zM797.406959 17.869642a14.890612 14.890612 0 0 0-9.366195 3.320607c-2.873888 2.322935-5.717995 4.779886-8.442977 7.32618A152.762784 152.762784 0 1 0 991.878345 248.197621a155.562219 155.562219 0 0 0 11.093506-12.374098 14.592799 14.592799 0 0 0-1.072124-19.491811L807.711262 22.143248A14.518346 14.518346 0 0 0 797.406959 17.869642z m86.365547 248.286057a125.364058 125.364058 0 0 1-83.089613-31.359628 144.507429 144.507429 0 0 1-5.85201-5.494636 126.838229 126.838229 0 0 1-4.61609-173.416062l6.298729-6.998587 178.627776 178.583104-6.998588 6.298729a125.676761 125.676761 0 0 1-84.325533 32.40197zM797.526084 75.138934a106.527435 106.527435 0 0 0-21.397809 63.091521 107.301747 107.301747 0 0 0 31.389409 78.443742c1.623077 1.637967 3.320606 3.216372 5.018136 4.720323a107.942043 107.942043 0 0 0 136.36822 5.122371z" fill="#33241A" /><path d="M789.39581 249.344198c-67.707611-59.562446-72.681075-163.484024-13.62491-229.315417-0.759421 0.670078-1.489061 1.340155-2.263373 2.040014-69.434922 64.833723-67.677829 176.736668 3.603528 239.560158a161.69715 161.69715 0 0 0 221.080909-7.117713q3.097247-3.097247 5.956245-6.32851a161.69715 161.69715 0 0 1-214.752399 1.161468z" fill="#E85D88" /><path d="M809.185432 49.601535a115.029974 115.029974 0 0 0-10.676568 13.87805l162.069416 162.069416a115.134208 115.134208 0 0 0 13.863159-10.691459z" fill="#E85D88" /><path d="M767.700189 28.992929a23.61651 23.61651 0 0 1 31.582987 1.578405l194.188465 194.188465a23.542057 23.542057 0 0 1 1.727311 31.359627q-2.248482 2.799435-4.645871 5.494636c2.605857-2.293154 5.152152-4.660761 7.638883-7.147493a161.250432 161.250432 0 0 0 11.748693-13.088848 23.542057 23.542057 0 0 0-1.727311-31.41919L814.024881 15.829628a23.61651 23.61651 0 0 0-31.582987-1.578404q-4.586308 3.692872-8.934367 7.758008c-3.916231 3.66309-7.609102 7.445306-11.078615 11.43599 1.742202-1.518842 3.484403-3.022794 5.271277-4.452293zM752.452203 152.823254a116.14677 116.14677 0 0 0 33.995266 84.876486c1.742202 1.742202 3.573747 3.454622 5.435073 5.092589a117.189113 117.189113 0 0 0 155.532437-0.952999l-2.114467-2.099576a117.174222 117.174222 0 0 1-138.661374-11.659349c-1.861326-1.637967-3.692872-3.350388-5.435073-5.092589a118.231455 118.231455 0 0 1-16.900844-144.245354l-2.129358-2.129357a115.923411 115.923411 0 0 0-29.72166 76.210149z" fill="#FFFFFF" /><path d="M883.757615 310.708408A170.765533 170.765533 0 0 1 767.402377 15.487144c2.978122-2.844107 6.209385-5.59887 9.425757-8.189836a32.535986 32.535986 0 0 1 43.510366 2.20381L1014.526965 203.704474a32.416861 32.416861 0 0 1 2.367607 43.316789 166.953536 166.953536 0 0 1-12.388988 13.803597 170.318815 170.318815 0 0 1-120.747969 49.883548zM797.406959 17.869642a14.890612 14.890612 0 0 0-9.366195 3.320607c-2.873888 2.322935-5.717995 4.779886-8.442977 7.32618A152.762784 152.762784 0 1 0 991.878345 248.197621a155.562219 155.562219 0 0 0 11.093506-12.374098 14.592799 14.592799 0 0 0-1.072124-19.491811L807.711262 22.143248A14.518346 14.518346 0 0 0 797.406959 17.869642z m86.365547 248.286057a125.364058 125.364058 0 0 1-83.089613-31.359628 144.507429 144.507429 0 0 1-5.85201-5.494636 126.838229 126.838229 0 0 1-4.61609-173.416062l6.298729-6.998587 178.627776 178.583104-6.998588 6.298729a125.676761 125.676761 0 0 1-84.325533 32.40197zM797.526084 75.138934a106.527435 106.527435 0 0 0-21.397809 63.091521 107.301747 107.301747 0 0 0 31.389409 78.443742c1.623077 1.637967 3.320606 3.216372 5.018136 4.720323a107.942043 107.942043 0 0 0 136.36822 5.122371zM216.345516 816.631825a8.934367 8.934367 0 0 1-6.373182-15.247986l58.43076-58.43076a8.934367 8.934367 0 1 1 12.642129 12.627239l-58.44565 58.43076a8.934367 8.934367 0 0 1-6.254057 2.620747zM160.833316 872.084462a8.934367 8.934367 0 0 1-6.313619-15.262876L171.584338 839.831398a8.934367 8.934367 0 1 1 12.627238 12.627238l-16.990187 17.005079a8.934367 8.934367 0 0 1-6.388073 2.620747z" fill="#33241A" /></svg>