<?xml version="1.0" standalone="no"?><!DOCTYPE svg PUBLIC "-//W3C//DTD SVG 1.1//EN" "http://www.w3.org/Graphics/SVG/1.1/DTD/svg11.dtd"><svg class="icon" width="200px" height="200.00px" viewBox="0 0 1024 1024" version="1.1" xmlns="http://www.w3.org/2000/svg"><path d="M909.542495 395.804744L693.517637 179.794514l149.49716-149.497159C759.723522-18.793885 650.628628 24.095124 594.223438 80.471059c-32.825012 32.825012-47.584566 78.156881-47.248124 124.746749 0.687511 96.207712-38.720057 188.363495-106.783685 256.38324L167.776208 734.07498a140.208442 140.208442 0 0 0-104.019012 41.879684C10.350725 830.165669 10.058167 918.079361 63.142824 972.626808a140.603395 140.603395 0 0 0 241.360385-101.839455L606.20369 569.042989c57.048818-57.048818 130.612538-94.072038 209.93965-109.036382 32.00585-6.026696 63.806909-25.335526 93.399155-64.201863zM114.223458 924.340103a70.301697 70.301697 0 1 1 99.469735 0 70.301697 70.301697 0 0 1-99.469735 0z" fill="#AEE4F5" /><path d="M163.958325 1023.970744h-1.067836a148.341555 148.341555 0 0 1-106.066919-45.258729c-56.2004-57.780213-55.893214-151.51581 0.687512-208.944953A149.994508 149.994508 0 0 1 164.075349 725.254355h0.190162l269.753143-269.84091c66.86414-66.849513 104.838174-157.981343 104.179919-250.137125-0.365698-52.002192 17.334064-98.533549 49.822634-131.036747C619.090871 43.213792 662.213927 18.814452 706.331679 7.331548c36.408848-9.478881 90.444319-14.496251 141.144628 15.403181l9.75681 5.748766L705.936726 179.794514 921.171677 394.970954l-4.651672 6.099835c-28.846223 37.871639-62.066189 60.58877-98.752967 67.507768-79.605043 15.022855-150.667392 51.899797-205.34649 106.622779L313.27995 874.356562A149.380136 149.380136 0 0 1 163.958325 1023.970744z m-0.131651-281.20679a130.480887 130.480887 0 0 0-93.808736 39.349057c-49.939658 50.685681-50.20296 133.406467-0.614372 184.384706a130.87584 130.87584 0 0 0 93.618574 39.9488h0.936185A131.812026 131.812026 0 0 0 295.726467 871.0214l-0.102395-3.773999 2.676906-2.676906L599.986831 562.855386c57.238981-57.238981 131.417072-95.783503 214.518184-111.464614 30.352897-5.734138 58.350701-24.179922 83.379042-54.883888L681.113176 179.794514 828.460034 32.447656c-80.570485-39.129638-180.596079 6.83123-228.019738 54.254889-29.153409 29.153409-45.024683 71.223255-44.688241 118.486007a359.173508 359.173508 0 0 1-28.290362 142.212464A374.342643 374.342643 0 0 1 446.393859 467.832534L171.3893 742.954117l-3.773999-0.102395c-1.316511-0.043884-2.559883-0.058512-3.788627-0.058512z m0.117023 210.875837a79.063811 79.063811 0 1 1 0-158.127622 79.063811 79.063811 0 1 1 0 158.127622z m0-140.574139a61.524956 61.524956 0 1 0 43.503381 18.021575 61.115375 61.115375 0 0 0-43.503381-17.992319z"  /><path d="M658.35216 157.033498L691.455103 190.180325 847.198377 34.437051a153.080995 153.080995 0 0 0-47.979519-18.211738zM820.283037 464.146303c32.00585-6.026696 63.806909-25.350154 93.399155-64.201862l-33.102943-33.088315c-29.592246 38.851708-61.437189 58.160539-93.399155 64.201862-79.327113 14.964344-152.846949 51.94368-209.939651 109.036383L275.525335 841.824107c1.009325 37.242639-6.480161 81.038578-34.916803 109.47522C191.356386 1000.566101 108.489321 999.410497 53.532292 960.295486a140.603395 140.603395 0 0 0 255.095985-85.383064l301.715109-301.715109c57.092702-57.092702 130.612538-94.072038 209.939651-109.05101z" fill="#64CAE2" /><path d="M85.318724 797.516192c28.524409-28.948618 74.704696-34.624244 112.298404-33.644175L470.061805 491.515108c68.019745-68.019745 107.427313-160.175528 106.783685-256.368612-0.336442-46.604496 14.408484-91.921737 47.248124-124.761377 45.74145-45.74145 126.151028-82.603763 199.34905-68.75114l15.461692-15.461693c-83.291275-49.105867-192.386168-6.216858-248.791359 50.188332-32.825012 32.825012-47.569938 78.156881-47.248124 124.761377 0.687511 96.193084-38.720057 188.348867-106.783685 256.368613L163.636512 729.949912a140.252325 140.252325 0 0 0-104.019012 41.879684c-53.406471 54.211005-53.699029 142.124697-0.643628 196.672143a142.812208 142.812208 0 0 0 19.893947 16.997623c-38.398243-54.532819-41.704149-139.096721 6.450905-187.98317z" fill="#FFFFFF" /><path d="M697.654408 308.060736l16.550008 16.550009-49.648562 49.6471-16.550009-16.548546z" fill="#F7C11C" /><path d="M664.569019 380.460075l-22.761016-22.761016 55.84933-55.84933 22.761016 22.746388z m-10.356555-22.761016l10.356555 10.341927 43.430241-43.444869-10.341927-10.341927z" fill="#33241A" /><path d="M730.75735 341.154902l16.550009 16.548546-49.648563 49.648562-16.550008-16.548545z" fill="#F7C11C" /><path d="M697.657333 413.563018l-22.746387-22.761016L730.760276 334.996555l22.819527 22.702504z m-10.341926-22.761016l10.341926 10.341927 43.44487-43.44487-10.341927-10.341926z" fill="#33241A" /><path d="M763.860293 374.241754l16.550008 16.550008-49.648562 49.6471-16.550009-16.548546z" fill="#F7C11C" /><path d="M730.760276 446.651332l-22.746388-22.746388L763.819335 368.040986l22.761015 22.761016z m-10.341927-22.746388l10.341927 10.341927 43.444869-43.444869-10.38581-10.341927z" fill="#33241A" /><path d="M163.958325 1023.970744h-1.067836a148.341555 148.341555 0 0 1-106.066919-45.258729c-56.2004-57.780213-55.893214-151.51581 0.687512-208.944953A149.994508 149.994508 0 0 1 164.075349 725.254355h0.190162l269.753143-269.84091c66.86414-66.849513 104.838174-157.981343 104.179919-250.137125-0.365698-52.002192 17.334064-98.533549 49.822634-131.036747C619.090871 43.213792 662.213927 18.814452 706.331679 7.331548c36.408848-9.478881 90.444319-14.496251 141.144628 15.403181l9.75681 5.748766L705.936726 179.794514 921.171677 394.970954l-4.651672 6.099835c-28.846223 37.871639-62.066189 60.58877-98.752967 67.507768-79.605043 15.022855-150.667392 51.899797-205.34649 106.622779L313.27995 874.356562A149.380136 149.380136 0 0 1 163.958325 1023.970744z m-0.131651-281.20679a130.480887 130.480887 0 0 0-93.808736 39.349057c-49.939658 50.685681-50.20296 133.406467-0.614372 184.384706a130.87584 130.87584 0 0 0 93.618574 39.9488h0.936185A131.812026 131.812026 0 0 0 295.726467 871.0214l-0.102395-3.773999 2.676906-2.676906L599.986831 562.855386c57.238981-57.238981 131.417072-95.783503 214.518184-111.464614 30.352897-5.734138 58.350701-24.179922 83.379042-54.883888L681.113176 179.794514 828.460034 32.447656c-80.570485-39.129638-180.596079 6.83123-228.019738 54.254889-29.153409 29.153409-45.024683 71.223255-44.688241 118.486007a359.173508 359.173508 0 0 1-28.290362 142.212464A374.342643 374.342643 0 0 1 446.393859 467.832534L171.3893 742.954117l-3.773999-0.102395c-1.316511-0.043884-2.559883-0.058512-3.788627-0.058512z m0.117023 210.875837a79.063811 79.063811 0 1 1 0-158.127622 79.063811 79.063811 0 1 1 0 158.127622z m0-140.574139a61.524956 61.524956 0 1 0 43.503381 18.021575 61.115375 61.115375 0 0 0-43.503381-17.992319z" fill="#33241A" /><path d="M975.485078 171.602889l-106.037662 106.023034 1.301883 29.738525 62.899979 62.899979a5.851161 5.851161 0 0 0 7.767416 0.482721 126.194911 126.194911 0 0 0 12.536112-12.258182c49.764123-49.6471 59.696468-130.817328 21.532272-186.886077z" fill="#AEE4F5" /><path d="M975.485078 171.602889l-5.851161 5.763393c21.941853 52.353262 7.53337 119.173518-35.106965 161.799225-0.863046 0.863046-16.193088 14.159809-17.070762 15.008228l19.396599 19.38197c1.46279-0.27793 16.207716-14.130553 17.070761-14.993599 49.793379-49.720239 59.725724-130.890468 21.561528-186.959217z" fill="#64CAE2" /><path d="M988.445399 195.183067a142.739069 142.739069 0 0 0-12.960321-23.580178l-106.037662 106.023034 1.301883 29.738525 18.27025 18.27025-1.301884-29.738525z" fill="#FFFFFF" /><path d="M937.247742 379.816447a15.505576 15.505576 0 0 1-11.01481-4.549277L862.118837 311.153075l-1.60907-37.008592 116.262566-116.247938 5.968184 8.776741a151.120857 151.120857 0 0 1 25.671969 99.689153c-3.62772 36.481988-20.2889 70.521116-48.272077 98.416525-0.570488 0.585116-2.325836 2.121046-10.385811 9.157067l-2.281953 2.01865a15.505576 15.505576 0 0 1-10.224903 3.861766zM879.379761 303.575822l57.970376 57.955748 0.950814-0.833791c3.481441-3.042604 8.776741-7.621137 9.581276-8.411043 47.116473-47.174984 56.975679-112.927404 26.037665-166.758084l-95.5202 95.5202zM670.771249 252.012467a8.776741 8.776741 0 0 1-6.20223-2.574511L608.193084 193.105905a8.776741 8.776741 0 0 1 12.404461-12.404461L676.97348 236.989611a8.776741 8.776741 0 0 1-6.202231 14.978972zM267.289826 811.164024a8.776741 8.776741 0 0 1-6.202231-2.57451l-22.761015-22.746388a8.776741 8.776741 0 0 1 12.419089-12.419089l22.746387 22.761016a8.776741 8.776741 0 0 1-6.20223 14.978971z" fill="#33241A" /><path d="M315.781321 722.957775a40.958126 40.958126 0 0 1 1.067837-58.877306L560.564635 437.39187a28.816967 28.816967 0 0 1 40.007312 0.731395 28.831595 28.831595 0 0 1 0.716767 40.007312L374.717139 721.889938a40.958126 40.958126 0 0 1-58.935818 1.067837z" fill="#FF7997" /><path d="M344.671428 739.326397a45.346497 45.346497 0 0 1-30.82099-78.464067L557.565915 434.232243a33.205338 33.205338 0 0 1 46.940938 46.92631L377.876766 724.87403a44.951543 44.951543 0 0 1-32.415431 14.452367z m235.509224-305.240433a24.355457 24.355457 0 0 0-16.631925 6.567928L319.83325 667.283979a36.569755 36.569755 0 0 0-0.950813 52.572681 36.145546 36.145546 0 0 0 25.788991 10.692996h0.687511a36.247941 36.247941 0 0 0 26.08155-11.702322l226.630087-243.656965a24.457852 24.457852 0 0 0-17.889924-41.104405z" fill="#33241A" /><path d="M326.927783 674.159093l243.715477-226.630087a28.802339 28.802339 0 0 1 33.644174-4.051929 28.524409 28.524409 0 0 0-4.768696-6.348509 28.831595 28.831595 0 0 0-40.007312-0.716767l-243.700849 226.630087a40.958126 40.958126 0 0 0-1.067837 58.877306 40.958126 40.958126 0 0 0 6.099835 5.01737 40.958126 40.958126 0 0 1 6.085208-52.777471z" fill="#E85D88" /><path d="M364.66777 711.899081L591.297857 468.110464a28.831595 28.831595 0 0 0 4.051929-33.644174 28.977874 28.977874 0 0 1 6.333882 4.783324 28.816967 28.816967 0 0 1 0.731395 40.007312L375.784976 723.016286a40.958126 40.958126 0 0 1-58.891934 1.067837 40.958126 40.958126 0 0 1-5.017371-6.099835 40.958126 40.958126 0 0 0 52.792099-6.085207z" fill="#FFFFFF" /><path d="M344.671428 739.326397a45.346497 45.346497 0 0 1-30.82099-78.464067L557.565915 434.232243a33.205338 33.205338 0 0 1 46.940938 46.92631L377.876766 724.87403a44.951543 44.951543 0 0 1-32.415431 14.452367z m235.509224-305.240433a24.355457 24.355457 0 0 0-16.631925 6.567928L319.83325 667.283979a36.569755 36.569755 0 0 0-0.950813 52.572681 36.145546 36.145546 0 0 0 25.788991 10.692996h0.687511a36.247941 36.247941 0 0 0 26.08155-11.702322l226.630087-243.656965a24.457852 24.457852 0 0 0-17.889924-41.104405z" fill="#33241A" /></svg>