<?xml version="1.0" standalone="no"?><!DOCTYPE svg PUBLIC "-//W3C//DTD SVG 1.1//EN" "http://www.w3.org/Graphics/SVG/1.1/DTD/svg11.dtd"><svg class="icon" width="200px" height="200.00px" viewBox="0 0 1024 1024" version="1.1" xmlns="http://www.w3.org/2000/svg"><path d="M86.935034 764.077529L589.425469 261.589878 762.823498 434.992084 260.33724 937.478342z" fill="#AEE4F5" /><path d="M260.33724 949.294701l-185.196286-185.196285 5.904002-5.904002L589.443571 249.76795l185.196285 185.196285-5.904002 5.904002z m-161.52458-185.196285l161.52458 161.524579L750.968151 434.992084l-161.52458-161.524579z" fill="#33241A" /><path d="M21.03022 889.168569l114.181169 114.181168a41.884994 41.884994 0 0 0 59.193188 0l65.904814-65.918738-173.374357-173.360433L21.03022 829.947531a41.773598 41.773598 0 0 0 0 59.221038z" fill="#FF7997" /><path d="M164.82887 1023.999819a49.863752 49.863752 0 0 1-35.493634-14.704307l-114.181169-114.181168a50.295412 50.295412 0 0 1 0-71.015117l71.780967-71.850589 185.196285 185.196286-71.794891 71.850588a49.891601 49.891601 0 0 1-35.507558 14.704307zM26.892449 883.264567l114.181168 114.181168a33.418879 33.418879 0 0 0 47.343411 0l60.014736-60.000811-161.524579-161.52458L26.892449 835.893306a33.530275 33.530275 0 0 0 0 47.371261z" fill="#33241A" /><path d="M84.906229 762.045939l506.426901-506.425508 21.907467 21.907468L106.813697 783.953407z" fill="#FFFFFF" /><path d="M22.937881 883.208869L44.841171 905.140008a41.857145 41.857145 0 0 1 0-59.179265L106.819266 783.996573l-21.90329-21.945064-61.978095 61.964171a41.857145 41.857145 0 0 0 0 59.193189z" fill="#FFFFFF" /><path d="M240.581113 917.722215l506.4269-506.425508 21.907468 21.907467-506.425508 506.425509z" fill="#64CAE2" /><path d="M119.434893 979.70588l21.90329 21.90329a41.857145 41.857145 0 0 0 59.193189 0l61.96417-61.978095L240.592252 917.672087 178.669855 979.70588a41.857145 41.857145 0 0 1-59.234962 0z" fill="#E85D88" /><path d="M260.33724 949.294701l-185.196286-185.196285 5.904002-5.904002L589.443571 249.76795l185.196285 185.196285-5.904002 5.904002z m-161.52458-185.196285l161.52458 161.524579L750.968151 434.992084l-161.52458-161.524579z" fill="#33241A" /><path d="M164.82887 1023.999819a49.863752 49.863752 0 0 1-35.493634-14.704307l-114.181169-114.181168a50.295412 50.295412 0 0 1 0-71.015117l71.780967-71.850589 185.196285 185.196286-71.794891 71.850588a49.891601 49.891601 0 0 1-35.507558 14.704307zM26.892449 883.264567l114.181168 114.181168a33.418879 33.418879 0 0 0 47.343411 0l60.014736-60.000811-161.524579-161.52458L26.892449 835.893306a33.530275 33.530275 0 0 0 0 47.371261z" fill="#33241A" /><path d="M535.258525 412.238118l74.830599 74.8306-154.574419 154.574418-74.830599-74.830599 154.574419-154.574419Z" fill="#FF7997" /><path d="M455.517415 628.041806a60.836284 60.836284 0 0 1-43.319221-17.8791 61.267944 61.267944 0 0 1 0-86.652367L491.971842 443.750616a61.267944 61.267944 0 0 1 86.652367 86.638442l-79.759724 79.745799A60.836284 60.836284 0 0 1 455.517415 628.041806z m79.745799-185.474776a44.224316 44.224316 0 0 0-31.511218 12.991589l-79.745798 79.745799a44.558505 44.558505 0 0 0 0 63.008511 44.69775 44.69775 0 0 0 63.00851 0l79.745799-79.731875a44.558505 44.558505 0 0 0-31.511217-76.014024z" fill="#33241A" /><path d="M572.734132 449.654617a53.066394 53.066394 0 0 0-74.830439 0l-11.376344 11.292796a53.066394 53.066394 0 0 1 74.830439 0 53.066394 53.066394 0 0 1 0 74.830439l11.320646-11.320645a53.066394 53.066394 0 0 0 0.055698-74.80259z" fill="#FFFFFF" /><path d="M418.171818 604.230855a53.066394 53.066394 0 0 1 0-74.830439l11.320645-11.334569a53.094243 53.094243 0 0 0 0 74.830439 53.066394 53.066394 0 0 0 74.830439 0l-11.320645 11.334569a53.094243 53.094243 0 0 1-74.830439 0z" fill="#E85D88" /><path d="M455.517415 628.041806a60.836284 60.836284 0 0 1-43.319221-17.8791 61.267944 61.267944 0 0 1 0-86.652367L491.971842 443.750616a61.267944 61.267944 0 0 1 86.652367 86.638442l-79.759724 79.745799A60.836284 60.836284 0 0 1 455.517415 628.041806z m79.745799-185.474776a44.224316 44.224316 0 0 0-31.511218 12.991589l-79.745798 79.745799a44.558505 44.558505 0 0 0 0 63.008511 44.69775 44.69775 0 0 0 63.00851 0l79.745799-79.731875a44.558505 44.558505 0 0 0-31.511217-76.014024z" fill="#33241A" /><path d="M542.10016 480.163269a30.982085 30.982085 0 0 1 3.857095 39.267182 30.38333 30.38333 0 0 0 4.609021-3.801398 30.982085 30.982085 0 1 0-47.607978-39.197559A30.982085 30.982085 0 0 1 542.10016 480.163269z" fill="#FFFFFF" /><path d="M514.487811 507.84524a30.982085 30.982085 0 0 0 39.19756 3.801397 31.859331 31.859331 0 0 1-3.787473 4.60902 30.982085 30.982085 0 0 1-43.820505-43.820504 30.271934 30.271934 0 0 1 4.609021-3.787473 30.968161 30.968161 0 0 0 3.801397 39.19756z" fill="#E85D88" /><path d="M528.662986 528.815586a35.145521 35.145521 0 1 1 24.85529-10.276305 35.089822 35.089822 0 0 1-24.85529 10.276305z m0-61.936322a26.790801 26.790801 0 1 0 19.006987 7.839512 26.721178 26.721178 0 0 0-19.006987-7.839512z" fill="#33241A" /><path d="M938.670852 433.446461c-8.730682 8.730682-93.837426-62.214812-190.083797-158.461182C659.776386 186.174609 592.506968 106.860471 589.443571 88.271219l-0.765849 172.051527L762.107777 433.724952l175.922546 1.322831 72.950627-72.964552L662.422047 13.566101l-70.62523 70.62523" fill="#AEE4F5" /><path d="M941.483607 443.430351l-182.829114-1.392453-178.234019-178.234019L581.088851 88.229446l13.618193-1.072189-8.869927-8.869928 76.58493-76.58493L1022.788954 362.083231z m-7.616719-16.709439h0.751925l0.640528-0.640529a5.569813 5.569813 0 0 0-1.392453 0.584831z m-168.236204-1.267132l139.245327 1.044339c-9.412984-6.739474-20.70578-15.595477-33.711294-26.456612-36.092389-30.090915-81.695234-72.40757-128.425965-119.110453-56.143716-56.157641-116.52049-121.770039-144.954386-161.454957l-0.612679 137.449063z m-167.094393-336.068598c6.836946 16.98793 57.939981 81.681309 155.954766 179.737869 42.887561 42.901485 85.482706 82.628177 119.918076 111.88362 43.34707 36.816465 57.745037 43.444542 61.267944 44.628127L999.159022 362.083231 662.422047 25.38803z" fill="#33241A" /><path d="M938.058172 435.047783l72.922778-72.922778L662.422047 13.566101l-70.62523 70.62523" fill="#FF7997" /><path d="M943.962174 440.951784l-11.821928-11.808003 67.018776-67.018776L662.422047 25.38803l-64.721228 64.721228-11.808004-11.821929 76.529232-76.529231 360.366907 360.366907-78.82678 78.826779z" fill="#33241A" /><path d="M938.670852 433.446461c-8.730682 8.730682-93.837426-62.214812-190.083797-158.461182C659.776386 186.174609 592.506968 106.860471 589.443571 88.271219" fill="#AEE4F5" /><path d="M936.651795 442.539181c-6.753398 0-14.885325-4.776115-22.376725-9.621852-10.944683-7.073663-25.46797-18.101893-43.166051-32.917595-36.092389-30.090915-81.695234-72.40757-128.425965-119.110453C667.713369 205.919596 585.266211 114.087303 581.242021 89.607975L597.798291 86.92054c1.977284 12.239664 53.177791 78.576138 156.748465 182.146812 42.887561 42.901485 85.482706 82.628177 119.918075 111.883621 50.740997 43.096429 61.811001 44.823071 62.256586 44.878769a5.444492 5.444492 0 0 0-3.912793 1.712717l11.710532 11.821929a10.735815 10.735815 0 0 1-7.867361 3.174793z" fill="#33241A" /><path d="M936.651795 442.539181c-6.753398 0-14.885325-4.776115-22.376725-9.621852-10.944683-7.073663-25.46797-18.101893-43.166051-32.917595-36.092389-30.090915-81.695234-72.40757-128.425965-119.110453C667.713369 205.919596 585.266211 114.087303 581.242021 89.607975l-0.111396-0.682303v-5.904001l4.734341-4.734342 8.215474 8.229399H597.798291v0.932944c3.300114 13.54857 54.500621 79.481233 156.637068 181.603756 42.887561 42.901485 85.482706 82.628177 119.918076 111.88362 50.740997 43.096429 61.811001 44.823071 62.256586 44.878769a5.444492 5.444492 0 0 0-3.912794 1.712718l11.821929 11.835853a10.735815 10.735815 0 0 1-7.867361 3.174793z" fill="#33241A" /><path d="M588.73342 260.322746l20.886799 20.886799L610.33037 122.581268c-12.532079-16.417024-19.856384-28.378198-20.803252-34.25435z" fill="#FFFFFF" /><path d="M619.061052 98.672845c-13.54857-9.747173-23.059026-14.885325-27.264235-14.481514L589.443571 86.488879v1.78234c0.946868 5.876153 8.35472 17.837326 20.803252 34.254351V107.361754z" fill="#FFFFFF" /><path d="M938.670852 433.446461c-3.160869 3.160869-16.305628-4.107737-36.343031-19.20193l-158.97639 0.696226 20.886799 20.886799 173.833867-0.765849" fill="#64CAE2" /><path d="M591.796817 84.191331L589.443571 86.488879v1.78234c3.007699 18.589251 70.277117 97.90339 159.087786 186.71406 96.24637 96.24637 181.353114 167.191865 190.083797 158.461182l38.27854-38.27854L629.546225 45.467206z" fill="#FF7997" /><path d="M990.108076 341.196432l-64.400964 64.400964-8.521814 8.521814H902.327821c20.037403 15.094193 33.182161 22.3628 36.343031 19.201931l-0.61268 1.601321L1010.98095 362.083231z" fill="#E85D88" /><path d="M606.570746 115.298737l76.724176-80.859761-20.8868-20.886799-70.611305 70.639154c4.205209-0.403811 1.225359 21.415931 14.773929 31.107406z" fill="#FFFFFF" /><path d="M941.483607 443.430351l-182.829114-1.392453-178.234019-178.234019L581.088851 88.229446l13.618193-1.072189-8.869927-8.869928 76.58493-76.58493L1022.788954 362.083231z m-7.616719-16.709439h0.751925l0.640528-0.640529a5.569813 5.569813 0 0 0-1.392453 0.584831z m-168.236204-1.267132l139.245327 1.044339c-9.412984-6.739474-20.70578-15.595477-33.711294-26.456612-36.092389-30.090915-81.695234-72.40757-128.425965-119.110453-56.143716-56.157641-116.52049-121.770039-144.954386-161.454957l-0.612679 137.449063z m-167.094393-336.068598c6.836946 16.98793 57.939981 81.681309 155.954766 179.737869 42.887561 42.901485 85.482706 82.628177 119.918076 111.88362 43.34707 36.816465 57.745037 43.444542 61.267944 44.628127L999.159022 362.083231 662.422047 25.38803z" fill="#33241A" /><path d="M936.651795 442.539181c-6.753398 0-14.885325-4.776115-22.376725-9.621852-10.944683-7.073663-25.46797-18.101893-43.166051-32.917595-36.092389-30.090915-81.695234-72.40757-128.425965-119.110453C667.713369 205.919596 585.266211 114.087303 581.242021 89.607975l-0.111396-0.682303v-5.904001l4.734341-4.734342 8.215474 8.229399H597.798291v0.932944c3.300114 13.54857 54.500621 79.481233 156.637068 181.603756 42.887561 42.901485 85.482706 82.628177 119.918076 111.88362 50.740997 43.096429 61.811001 44.823071 62.256586 44.878769a5.444492 5.444492 0 0 0-3.912794 1.712718l11.821929 11.835853a10.735815 10.735815 0 0 1-7.867361 3.174793z" fill="#33241A" /><path d="M823.352129 200.188319a246.464229 22.348875 45 1 0 31.606082-31.606082 246.464229 22.348875 45 1 0-31.606082 31.606082Z" fill="#F7C11C" /><path d="M1011.426535 367.76444c-6.739474 0-14.885325-4.776115-22.376724-9.621852-10.930758-7.073663-25.46797-18.101893-43.166051-32.917595-36.092389-30.090915-81.695234-72.40757-128.412041-119.110453s-89.047387-92.333577-119.138302-128.425965c-14.760005-17.712006-25.843933-32.235293-32.917596-43.166052S651.602685 11.588818 658.982687 4.22274s19.494346-0.543057 30.285859 6.447059 25.481895 18.101893 43.166052 32.917595c36.092389 30.090915 81.695234 72.40757 128.41204 119.110453s89.033462 92.333577 119.110453 128.425965c14.773929 17.712006 25.843933 32.235293 32.93152 43.166052s13.799212 22.919781 6.433134 30.285858a10.749739 10.749739 0 0 1-7.89521 3.188718zM678.212467 23.45252c5.65336 9.037022 16.876534 24.660347 39.169711 50.922016 29.241519 34.435369 68.99606 77.030515 111.88362 119.918076s85.482706 82.628177 119.918076 111.88362c26.261669 22.279252 41.898919 33.530275 50.922016 39.169711-5.569813-9.037022-16.862609-24.674272-39.16971-50.922016-29.241519-34.449294-68.982135-77.030515-111.869696-119.918076S763.583777 91.947296 729.148408 62.62223c-26.261669-22.307101-41.898919-33.530275-50.935941-39.16971z" fill="#33241A" /><path d="M666.627256 25.652596C695.757378 42.153167 765.853476 103.086922 843.148557 180.409853s138.27061 147.391179 154.771182 176.521301c7.143285 4.052039 11.835853 5.430568 13.54857 3.71785 8.730682-8.730682-62.214812-93.837426-158.475107-190.083796S671.598314 3.359419 662.92333 12.090101c-1.726642 1.726642-0.334189 6.405285 3.703926 13.562495z" fill="#FFFFFF" /><path d="M1012.401253 366.775799c-6.739474 0-14.871401-4.76219-22.3628-9.607928-10.944683-7.087587-25.46797-18.101893-43.166051-32.93152-36.092389-30.090915-81.695234-72.40757-128.425966-119.110453S729.412974 112.834095 699.322059 76.713857C684.548129 58.987927 673.478126 44.464639 666.404463 33.464259s-13.813136-22.919781-6.433134-30.285859 19.494346-0.543057 30.285859 6.433134 25.46797 18.101893 43.166051 32.917595c36.092389 30.090915 81.695234 72.40757 128.425966 119.110453s89.019538 92.333577 119.110453 128.425966c14.773929 17.712006 25.843933 32.249218 32.917595 43.166051s13.813136 22.919781 6.447059 30.299783a10.749739 10.749739 0 0 1-7.923059 3.244417zM679.201109 22.463878c5.639436 9.037022 16.862609 24.674272 39.16971 50.922016 29.241519 34.449294 68.982135 77.030515 111.883621 119.932s85.468782 82.614253 119.918076 111.869696c26.261669 22.279252 41.884994 33.530275 50.922016 39.169711-5.569813-9.037022-16.862609-24.660347-39.169711-50.922016-29.241519-34.435369-68.982135-77.030515-111.88362-119.918076S764.572419 90.889032 730.081351 61.633588c-26.219895-22.293177-41.773598-33.530275-50.880242-39.16971zM96.737905 917.532842a8.35472 8.35472 0 0 1-5.904002-2.450718l-24.771744-24.771744a8.35472 8.35472 0 0 1 11.821928-11.808004l24.75782 24.771744a8.35472 8.35472 0 0 1-5.904002 14.258722zM186.718235 1007.513172a8.35472 8.35472 0 0 1-5.904002-2.450718l-61.922397-61.922397a8.35472 8.35472 0 0 1 11.821929-11.808003L192.594388 993.254451a8.35472 8.35472 0 0 1-5.904002 14.258721zM678.351712 410.498831a8.35472 8.35472 0 0 1-5.904001-2.436793l-24.771744-24.771744a8.35472 8.35472 0 0 1 11.821928-11.821928l24.757819 24.771744a8.35472 8.35472 0 0 1-5.904002 14.258721zM873.838227 335.626619a8.35472 8.35472 0 0 1-5.904001-14.258722l16.946156-16.946156a8.35472 8.35472 0 1 1 11.821928 11.808004l-16.960081 16.960081a8.35472 8.35472 0 0 1-5.904002 2.436793zM906.658351 358.602098a8.35472 8.35472 0 0 1-5.904002-14.258722l16.946157-16.946156a8.35472 8.35472 0 1 1 11.821928 11.808004l-16.960081 16.960081a8.35472 8.35472 0 0 1-5.904002 2.436793zM625.522035 357.669154a8.35472 8.35472 0 0 1-5.904002-2.436793l-61.922397-61.922397a8.35472 8.35472 0 0 1 11.821929-11.808004l61.908472 61.908473a8.35472 8.35472 0 0 1-5.904002 14.258721z" fill="#33241A" /></svg>