<?xml version="1.0" standalone="no"?><!DOCTYPE svg PUBLIC "-//W3C//DTD SVG 1.1//EN" "http://www.w3.org/Graphics/SVG/1.1/DTD/svg11.dtd"><svg class="icon" width="200px" height="144.73px" viewBox="0 0 1415 1024" version="1.1" xmlns="http://www.w3.org/2000/svg"><path d="M637.988989 54.485932h127.297214a70.599606 70.599606 0 0 1 70.599606 70.599606v109.374908H637.988989V54.485932z" fill="#AEE4F5" /><path d="M847.138913 245.732337H626.717099V43.214041h138.550318a81.965429 81.965429 0 0 1 81.871496 81.871497z m-197.878034-22.543781h175.334253V125.104324A59.402862 59.402862 0 0 0 765.267417 65.757822H649.260879z" fill="#33241A" /><path d="M692.281927 61.49329c10.013196 5.635945 93.613049 49.164228 136.202008 115.856246l-14.089863 11.27189-138.400026-109.280976v-18.786484z" fill="#64CAE2" /><path d="M761.209536 58.581385h-127.297214v14.240155h113.038273a70.58082 70.58082 0 0 1 70.599606 70.599606V238.593473h14.240155V129.162205a70.58082 70.58082 0 0 0-70.58082-70.58082z" fill="#FFFFFF" /><path d="M847.138913 245.732337H626.717099V43.214041h138.550318a81.965429 81.965429 0 0 1 81.871496 81.871497z m-197.878034-22.543781h175.334253V125.104324A59.402862 59.402862 0 0 0 765.267417 65.757822H649.260879z" fill="#33241A" /><path d="M912.572236 464.951816c0 244.731524-198.404055 443.116793-443.135579 443.116793-126.902698 0-324.160778 28.874826-370.488247-31.241923C27.052537 783.570581 26.301077 582.780642 26.301077 464.951816 26.301077 220.201505 224.705132 21.816236 469.436657 21.816236s443.135579 198.385269 443.135579 443.13558z" fill="#F7C11C" /><path d="M258.032355 926.310284c-76.367057 0-141.574942-8.284839-168.007525-42.588958C15.029187 786.444913 15.029187 577.294989 15.029187 464.951816a454.40747 454.40747 0 0 1 775.712702-321.248873 454.40747 454.40747 0 0 1-321.248873 775.712702c-29.908082 0-63.441956 1.615638-98.94841 3.306421-38.023843 1.747143-76.536135 3.588218-112.512251 3.588218zM469.436657 33.088127C231.299188 33.088127 37.572968 226.814347 37.572968 464.951816c0 109.656706 0 313.734279 70.299022 404.999017 31.730371 41.161186 153.823729 35.31859 261.545427 30.189879 35.694319-1.728357 69.50999-3.343994 100.01924-3.343994 238.118682 0 431.863689-193.726221 431.863689-431.844902S707.555339 33.088127 469.436657 33.088127z" fill="#33241A" /><path d="M469.436657 81.932984c234.624396 0 426.641047 182.360398 442.102322 413.077206 0.657527-9.93805 1.033257-19.970032 1.033257-30.058374 0-244.750311-198.404055-443.135579-443.135579-443.13558S26.301077 220.201505 26.301077 464.951816c0 14.766176 0 30.866193 0.169079 47.886747C32.951493 273.742984 228.781799 81.932984 469.436657 81.932984z" fill="#FFFFFF" /><path d="M44.749404 457.66266c-0.920538 30.283812 17.245992 323.127521 90.175122 372.667479s-17.208419 0-17.208419 0l-72.985489-91.922265-21.2663-255.49618z" fill="#EBA017" /><path d="M911.313542 431.455515C894.236628 660.537898 711.275062 848.64696 477.796642 848.64696c-76.367057 0-178.621888 6.293472-258.051141-1.878648C114.052743 835.571568 69.50999 684.584598 69.50999 684.584598h-12.530585l2.968265 25.418112c-24.591507-79.861343-32.500617-178.171012-33.421155-258.783814-0.131505 4.565116-0.225438 9.130231-0.225438 13.73292 0 117.828826 0.751459 318.618765 72.647333 411.87487 46.327469 60.116748 243.585549 31.241923 370.488247 31.241923 244.731524 0 443.135579-198.385269 443.135579-443.116793q0-16.907835-1.258694-33.496301z" fill="#EBA017" /><path d="M258.032355 926.310284c-76.367057 0-141.574942-8.284839-168.007525-42.588958C15.029187 786.444913 15.029187 577.294989 15.029187 464.951816a454.40747 454.40747 0 0 1 775.712702-321.248873 454.40747 454.40747 0 0 1-321.248873 775.712702c-29.908082 0-63.441956 1.615638-98.94841 3.306421-38.023843 1.747143-76.536135 3.588218-112.512251 3.588218zM469.436657 33.088127C231.299188 33.088127 37.572968 226.814347 37.572968 464.951816c0 109.656706 0 313.734279 70.299022 404.999017 31.730371 41.161186 153.823729 35.31859 261.545427 30.189879 35.694319-1.728357 69.50999-3.343994 100.01924-3.343994 238.118682 0 431.863689-193.726221 431.863689-431.844902S707.555339 33.088127 469.436657 33.088127z" fill="#33241A" /><path d="M412.438465 92.058899V17.194761A5.898956 5.898956 0 0 0 405.919555 11.277019C183.994822 35.47401 11.27189 223.451567 11.27189 451.801277a5.842596 5.842596 0 0 0 5.842597 5.842597h15.442489a5.955315 5.955315 0 0 0 5.842597-5.072351C82.660529 156.477752 366.054636 103.950743 407.403687 97.845136a5.917742 5.917742 0 0 0 5.034778-5.786237z" fill="#AEE4F5" /><path d="M26.000494 468.93455H17.0957a17.133273 17.133273 0 0 1-17.0957-17.133273A454.445043 454.445043 0 0 1 404.698434 0.099061a17.170846 17.170846 0 0 1 19.011921 17.0957V92.058899a17.245992 17.245992 0 0 1-14.653457 16.907836c-22.036545 3.268848-100.094386 17.734441-179.09155 67.030174-101.597304 63.423169-162.296433 157.036218-180.350244 278.227824a17.0957 17.0957 0 0 1-16.907836 14.691031z m-3.41914-22.54378h5.372934c10.802228-67.931925 34.94286-128.424403 71.801941-179.861796 30.809833-42.983475 70.599606-79.861343 118.354848-109.619133a518.243942 518.243942 0 0 1 183.130644-69.50999V23.206436A430.905578 430.905578 0 0 0 22.543781 446.39077z" fill="#33241A" /><path d="M418.111983 11.277019c-5.203856 0.563595-10.388926 1.258694-15.555209 1.991367v56.641249a5.898956 5.898956 0 0 1-5.034777 5.861383c-41.330264 6.105607-324.705586 58.632616-369.004115 354.745173a5.936529 5.936529 0 0 1-4.715407 4.959632c-0.206651 5.410507-0.338157 10.858588-0.338157 16.325454a5.842596 5.842596 0 0 0 5.842597 5.842597h15.442489c2.930691 0-1.352627-15.029187-0.920537-17.922306 44.298529-296.112557 334.399411-335.789611 375.729675-341.914005A5.898956 5.898956 0 0 0 424.574533 92.058899V17.194761A5.898956 5.898956 0 0 0 418.111983 11.277019z" fill="#64CAE2" /><path d="M412.438465 35.962459v-18.786484A5.898956 5.898956 0 0 0 405.919555 11.277019C183.994822 35.455224 11.27189 223.451567 11.27189 451.801277a5.842596 5.842596 0 0 0 5.842597 5.842597h15.442489a5.955315 5.955315 0 0 0 1.634424-0.263011C42.307161 242.350769 203.758203 66.415349 412.438465 35.962459z" fill="#FFFFFF" /><path d="M26.000494 468.93455H17.0957a17.133273 17.133273 0 0 1-17.0957-17.133273A454.445043 454.445043 0 0 1 404.698434 0.099061a17.170846 17.170846 0 0 1 19.011921 17.0957V92.058899a17.245992 17.245992 0 0 1-14.653457 16.907836c-22.036545 3.268848-100.094386 17.734441-179.09155 67.030174-101.597304 63.423169-162.296433 157.036218-180.350244 278.227824a17.0957 17.0957 0 0 1-16.907836 14.691031z m-3.41914-22.54378h5.372934c10.802228-67.931925 34.94286-128.424403 71.801941-179.861796 30.809833-42.983475 70.599606-79.861343 118.354848-109.619133a518.243942 518.243942 0 0 1 183.130644-69.50999V23.206436A430.905578 430.905578 0 0 0 22.543781 446.39077z" fill="#33241A" /><path d="M469.436657 468.408529m-231.280402 0a231.280402 231.280402 0 1 0 462.560803 0 231.280402 231.280402 0 1 0-462.560803 0Z" fill="#FF7997" /><path d="M469.436657 710.960821A242.552292 242.552292 0 1 1 712.007735 468.408529a242.834089 242.834089 0 0 1-242.571078 242.552292z m0-462.560804A220.008512 220.008512 0 1 0 689.463955 468.408529a220.252736 220.252736 0 0 0-220.027298-220.008512z" fill="#33241A" /><path d="M469.436657 660.894842a231.299188 231.299188 0 0 1-230.209573-209.055992c-0.6951 7.307942-1.07083 14.709817-1.070829 22.205624a231.280402 231.280402 0 0 0 462.560803 0c0-7.514594-0.37573-14.897682-1.070829-22.205624a231.299188 231.299188 0 0 1-230.209572 209.055992z" fill="#FFFFFF" /><path d="M469.436657 279.679513a231.299188 231.299188 0 0 0-230.209573 209.055991c-0.6951-7.307942-1.07083-14.709817-1.070829-22.205624a231.280402 231.280402 0 0 1 462.560803 0c0 7.514594-0.37573 14.897682-1.070829 22.205624a231.299188 231.299188 0 0 0-230.209572-209.055991z" fill="#E85D88" /><path d="M469.436657 710.960821A242.552292 242.552292 0 1 1 712.007735 468.408529a242.834089 242.834089 0 0 1-242.571078 242.552292z m0-462.560804A220.008512 220.008512 0 1 0 689.463955 468.408529a220.252736 220.252736 0 0 0-220.027298-220.008512z" fill="#33241A" /><path d="M369.868293 414.754331V520.390729h-29.17541v-69.265765a88.296474 88.296474 0 0 1-13.695346 8.716928 107.458687 107.458687 0 0 1-16.607252 6.368618v-23.652183a69.979652 69.979652 0 0 0 22.863151-11.384609 46.740772 46.740772 0 0 0 12.756022-16.419387zM401.222934 467.97644q0-29.588712 10.651936-41.330265t32.463044-11.816698a48.506701 48.506701 0 0 1 17.208419 2.573748 32.068528 32.068528 0 0 1 10.971307 6.725561 35.562814 35.562814 0 0 1 6.687988 8.716929 45.294212 45.294212 0 0 1 3.926375 10.651936 99.418072 99.418072 0 0 1 2.911905 24.215778q0 28.179726-9.56232 41.330264t-32.91392 13.150539q-13.150539 0-21.172367-4.1706a34.041109 34.041109 0 0 1-13.244471-12.248787 46.139604 46.139604 0 0 1-5.842596-15.667927 107.646552 107.646552 0 0 1-2.0853-22.130478z m28.593028 0q0 19.838527 3.513073 27.090109c2.329524 4.828126 5.729878 7.251583 10.163488 7.251583a10.651936 10.651936 0 0 0 7.608525-3.080983 19.12464 19.12464 0 0 0 4.734194-9.731399 101.897888 101.897888 0 0 0 1.521706-20.665132q0-20.665132-3.494286-27.78521T443.361017 433.972904q-7.15765 0-10.332566 7.251583t-3.212489 26.827099zM500.904017 445.113289H527.900194v10.971306a37.572968 37.572968 0 0 1 11.741553-9.768971 32.143674 32.143674 0 0 1 14.277727-2.893119 27.465839 27.465839 0 0 1 14.258941 3.174916 23.746115 23.746115 0 0 1 8.566637 9.487174 43.471923 43.471923 0 0 1 12.380293-10.013195 32.068528 32.068528 0 0 1 13.789279-2.648895q12.098496 0 18.786484 7.176437t6.800707 22.543781V520.390729h-28.912399v-42.833183a12.042136 12.042136 0 0 0-1.972581-7.514593 8.679356 8.679356 0 0 0-7.195223-3.888802 10.201061 10.201061 0 0 0-8.190907 3.757296q-3.09977 3.757297-3.09977 11.816699V520.390729H550.25611v-41.330264a25.906561 25.906561 0 0 0-0.582381-6.725561 8.961153 8.961153 0 0 0-3.193702-4.565116 8.491491 8.491491 0 0 0-5.316575-1.747143 10.238634 10.238634 0 0 0-8.172121 3.757297c-2.141659 2.498602-3.193702 6.612842-3.193702 12.323933V520.390729h-28.893612z" fill="#33241A" /><path d="M852.906364 848.027006h551.063928v66.973815H852.906364z" fill="#F7C11C" /><path d="M1415.242182 926.272711H841.634473V836.755116h573.607709z m-551.063928-22.54378h528.520148V859.298897H864.178254z" fill="#33241A" /><path d="M852.906364 844.26971h551.063928v26.056853H852.906364z" fill="#FFFFFF" /><path d="M852.906364 892.100097h551.063928v26.056853H852.906364z" fill="#EBA017" /><path d="M1415.242182 926.272711H841.634473V836.755116h573.607709z m-551.063928-22.54378h528.520148V859.298897H864.178254z" fill="#33241A" /><path d="M1376.41052 1012.72811a27.559772 27.559772 0 0 1-27.559771-27.559772v-137.141332h55.119543v137.141332a27.559772 27.559772 0 0 1-27.559772 27.559772z" fill="#AEE4F5" /><path d="M1376.429307 1024A38.869235 38.869235 0 0 1 1337.597645 985.168338v-148.413222h77.644537v148.413222a38.869235 38.869235 0 0 1-38.812875 38.831662zM1360.141426 859.298897v125.869441a16.287881 16.287881 0 1 0 32.556976 0v-125.869441z" fill="#33241A" /><path d="M1368.914713 985.168338v-137.141332H1348.869535v137.141332a27.559772 27.559772 0 0 0 27.559772 27.559772 27.296761 27.296761 0 0 0 10.013196-1.878649 27.522199 27.522199 0 0 1-17.52779-25.681123z" fill="#FFFFFF" /><path d="M1385.183808 985.168338v-137.141332H1405.228987v137.141332a27.559772 27.559772 0 0 1-27.559772 27.559772 27.296761 27.296761 0 0 1-10.013196-1.878649 27.522199 27.522199 0 0 0 17.527789-25.681123z" fill="#64CAE2" /><path d="M1376.429307 1024A38.869235 38.869235 0 0 1 1337.597645 985.168338v-148.413222h77.644537v148.413222a38.869235 38.869235 0 0 1-38.812875 38.831662zM1360.141426 859.298897v125.869441a16.287881 16.287881 0 1 0 32.556976 0v-125.869441z" fill="#33241A" /><path d="M891.775598 826.74192H852.906364v-102.04818a23.858834 23.858834 0 0 0-25.286608-23.840047C587.021259 715.770161 478.360236 890.10873 458.164766 893.734521c-20.89057 3.757297-178.866112 3.757297-264.663983 1.878649-90.175122-1.972581-112.098949-97.050975-124.610747-133.384035a50.028406 50.028406 0 0 0-4.43361-9.731399c-9.280523-15.273411-32.932706-6.030461-29.250555 11.459756 10.745869 51.005303 32.331539 101.447012 54.480803 128.368043a114.409686 114.409686 0 0 0 59.027132 37.103306c45.707515 12.211214 213.583534 3.926375 309.657612 2.479816l388.109968-5.203856h45.275426z" fill="#AEE4F5" /><path d="M253.335734 947.276c-47.567377 0-87.657733-1.653211-107.515047-6.950999a126.526968 126.526968 0 0 1-64.813369-40.823029c-23.483105-28.517882-45.801447-80.78188-56.829113-133.233743a26.733166 26.733166 0 0 1 16.569678-30.791047 26.902245 26.902245 0 0 1 33.346009 11.159172 61.882678 61.882678 0 0 1 5.44808 11.929417c1.127189 3.268848 2.329524 6.988572 3.644578 11.084025 12.71845 39.451616 36.389419 113.075846 110.558457 114.691484 92.993095 2.047727 239.959757 1.615638 261.583-1.559279 3.362781-2.0853 12.305147-11.27189 20.214257-19.368864 47.22922-48.393982 157.806464-161.751625 351.307247-173.812548A35.130725 35.130725 0 0 1 864.178254 724.69374v90.77629h38.869235v122.506661h-56.547316l-387.959677 5.203856c-21.379019 0.31937-46.365042 0.976897-72.816411 1.690783-44.167023 1.164762-91.09566 2.40467-132.388351 2.40467zM51.080449 756.029595a5.635945 5.635945 0 0 0-2.02894 0.413303 4.189386 4.189386 0 0 0-2.817972 5.18507c10.182274 48.375196 31.14799 98.009086 52.170065 123.539917a103.945615 103.945615 0 0 0 53.222109 33.383582c33.947176 9.055085 144.655925 6.124394 233.497206 3.757296 26.526515-0.6951 51.568898-1.371413 73.098209-1.690783l388.128755-5.203856h34.153827v-77.400313H841.634473v-113.320071a12.586944 12.586944 0 0 0-13.319617-12.586944c-184.896573 11.516115-291.190499 120.515293-336.635003 167.049414-16.231522 16.663611-23.652183 24.272137-31.523719 25.681123-22.994656 4.133026-186.906727 3.757297-266.899575 2.047727-90.175122-1.972581-118.12941-88.672203-131.505387-130.321838-1.277481-3.926375-2.423456-7.514594-3.494286-10.651936a40.597591 40.597591 0 0 0-3.400353-7.514594 4.264532 4.264532 0 0 0-3.776084-2.367097z" fill="#33241A" /><path d="M458.390204 908.087395c-96.074078 1.427773-263.950097 9.731399-309.657612-2.479816a114.409686 114.409686 0 0 1-59.027132-37.103305C69.50999 844.081845 49.95326 800.309338 38.455932 754.263666a15.235838 15.235838 0 0 0-3.250061 13.451122c10.745869 51.005303 32.331539 101.447012 54.480803 128.368044a114.409686 114.409686 0 0 0 59.027132 37.103305c45.707515 12.211214 213.583534 3.926375 309.657612 2.479816l388.109968-5.203856h45.275426V902.883539h-45.275426z" fill="#64CAE2" /><path d="M46.27111 749.585831c4.226959 7.289156 18.128957 45.406931 19.481583 49.31452 12.530585 36.33306 39.451616 112.94434 129.626738 114.916922 85.797871 1.878648 243.454043-1.164762 264.663984-1.878649 37.178451-1.258694 161.789198-181.608939 369.699214-180.970198 13.73292 0 23.163734 14.014717 23.163735 27.747637v-34.022323a23.858834 23.858834 0 0 0-25.286608-23.840047C587.021259 715.770161 478.360236 890.10873 458.164766 893.734521c-20.89057 3.757297-178.866112 3.757297-264.663983 1.878649-90.175122-1.972581-112.098949-97.050975-124.610747-133.384035a50.028406 50.028406 0 0 0-4.43361-9.731399c-9.280523-15.273411-21.886254-20.439694-18.185316-2.949478 1.352627 6.443764-1.690784-6.368618 0 0.037573z" fill="#FFFFFF" /><path d="M868.874875 833.148111h22.900723v81.85271H868.874875z" fill="#64CAE2" /><path d="M253.335734 947.276c-47.567377 0-87.657733-1.653211-107.515047-6.950999a126.526968 126.526968 0 0 1-64.813369-40.823029c-23.483105-28.517882-45.801447-80.78188-56.829113-133.233743a26.733166 26.733166 0 0 1 16.569678-30.791047 26.902245 26.902245 0 0 1 33.346009 11.159172 61.882678 61.882678 0 0 1 5.44808 11.929417c1.127189 3.268848 2.329524 6.988572 3.644578 11.084025 12.71845 39.451616 36.389419 113.075846 110.558457 114.691484 92.993095 2.047727 239.959757 1.615638 261.583-1.559279 3.362781-2.0853 12.305147-11.27189 20.214257-19.368864 47.22922-48.393982 157.806464-161.751625 351.307247-173.812548A35.130725 35.130725 0 0 1 864.178254 724.69374v90.77629h38.869235v122.506661h-56.547316l-387.959677 5.203856c-21.379019 0.31937-46.365042 0.976897-72.816411 1.690783-44.167023 1.164762-91.09566 2.40467-132.388351 2.40467zM51.080449 756.029595a5.635945 5.635945 0 0 0-2.02894 0.413303 4.189386 4.189386 0 0 0-2.817972 5.18507c10.182274 48.375196 31.14799 98.009086 52.170065 123.539917a103.945615 103.945615 0 0 0 53.222109 33.383582c33.947176 9.055085 144.655925 6.124394 233.497206 3.757296 26.526515-0.6951 51.568898-1.371413 73.098209-1.690783l388.128755-5.203856h34.153827v-77.400313H841.634473v-113.320071a12.586944 12.586944 0 0 0-13.319617-12.586944c-184.896573 11.516115-291.190499 120.515293-336.635003 167.049414-16.231522 16.663611-23.652183 24.272137-31.523719 25.681123-22.994656 4.133026-186.906727 3.757297-266.899575 2.047727-90.175122-1.972581-118.12941-88.672203-131.505387-130.321838-1.277481-3.926375-2.423456-7.514594-3.494286-10.651936a40.597591 40.597591 0 0 0-3.400353-7.514594 4.264532 4.264532 0 0 0-3.776084-2.367097z" fill="#33241A" /><path d="M224.047606 754.263666m-31.20435 0a31.20435 31.20435 0 1 0 62.408699 0 31.20435 31.20435 0 1 0-62.408699 0Z" fill="#FF7997" /><path d="M224.047606 791.085174a36.821508 36.821508 0 1 1 26.056853-10.764655 36.783935 36.783935 0 0 1-26.056853 10.764655z m0-62.389913a25.568404 25.568404 0 1 0 18.091383 7.514594 25.512045 25.512045 0 0 0-18.091383-7.514594z" fill="#33241A" /><path d="M224.047606 274.269005m-31.20435 0a31.20435 31.20435 0 1 0 62.408699 0 31.20435 31.20435 0 1 0-62.408699 0Z" fill="#FF7997" /><path d="M224.047606 311.090514a36.821508 36.821508 0 1 1 26.056853-10.764656 36.783935 36.783935 0 0 1-26.056853 10.764656z m0-62.389913a25.568404 25.568404 0 1 0 18.091383 7.514593 25.512045 25.512045 0 0 0-18.091383-7.514593z" fill="#33241A" /><path d="M736.918613 274.269005m-31.20435 0a31.20435 31.20435 0 1 0 62.408699 0 31.20435 31.20435 0 1 0-62.408699 0Z" fill="#FF7997" /><path d="M736.918613 311.090514a36.821508 36.821508 0 1 1 26.056853-10.764656 36.783935 36.783935 0 0 1-26.056853 10.764656z m0-62.389913a25.568404 25.568404 0 1 0 18.091384 7.514593 25.512045 25.512045 0 0 0-18.091384-7.514593z" fill="#33241A" /></svg>