<?xml version="1.0" standalone="no"?><!DOCTYPE svg PUBLIC "-//W3C//DTD SVG 1.1//EN" "http://www.w3.org/Graphics/SVG/1.1/DTD/svg11.dtd"><svg class="icon" width="200px" height="173.41px" viewBox="0 0 1181 1024" version="1.1" xmlns="http://www.w3.org/2000/svg"><path d="M8.385195 160.925865l89.567857 53.35779h12.270335l27.671143-27.671143 27.671143 27.671143 27.657168-27.671143 27.671143 27.671143 27.671143-27.671143 27.587291 27.587291 27.573316-27.587291 27.671143 27.671143 27.671144-27.671143 27.671143 27.671143 27.671143-27.671143 27.587291 27.601267 27.587291-27.601267 27.671143 27.671143 27.671143-27.671143 27.671144 27.671143h131.088546v-53.35779H8.385195z" fill="#AEE4F5" /><path d="M683.686865 222.66885h-131.088546a8.385195 8.385195 0 0 1-5.925538-2.445682L524.927175 198.449612l-21.745605 21.73163a8.385195 8.385195 0 0 1-11.851075 0L469.570914 198.449612l-21.675729 21.661754a8.385195 8.385195 0 0 1-11.851075 0L414.410307 198.449612 392.706627 220.209193a8.385195 8.385195 0 0 1-11.851075 0L359.068021 198.449612l-21.745606 21.745606a8.385195 8.385195 0 0 1-11.851075 0L303.725734 198.449612l-21.647778 21.647779a8.385195 8.385195 0 0 1-11.865051 0L248.565127 198.449612l-21.745605 21.759581a8.385195 8.385195 0 0 1-11.851076 0L193.236816 198.449612l-21.745605 21.745606a8.385195 8.385195 0 0 1-11.865051 0L137.89453 198.449612l-21.745605 21.773556a8.385195 8.385195 0 0 1-5.925538 2.445682h-12.270335a8.385195 8.385195 0 0 1-4.290425-1.173927L4.09477 168.123158A8.385195 8.385195 0 0 1 8.385195 152.54067h675.30167a8.385195 8.385195 0 0 1 8.385195 8.385195v53.35779a8.385195 8.385195 0 0 1-8.385195 8.385195z m-127.622666-16.770389h119.237471v-36.587401H38.837428l61.421552 36.587401h6.484551l25.155585-25.155585a8.385195 8.385195 0 0 1 11.86505 0l21.745606 21.745605 21.759581-21.801506a8.385195 8.385195 0 0 1 11.86505 0l21.73163 21.745605 21.745606-21.745605a8.385195 8.385195 0 0 1 11.851075 0l21.661754 21.661753 21.647778-21.661753a8.385195 8.385195 0 0 1 11.865051 0l21.73163 21.745605 21.745605-21.745605a8.385195 8.385195 0 0 1 11.851076 0l21.745605 21.745605 21.73163-21.745605a8.385195 8.385195 0 0 1 11.865051 0l21.661753 21.661753 21.661754-21.661753a8.385195 8.385195 0 0 1 11.865051 0l21.73163 21.745605 21.745605-21.745605a8.385195 8.385195 0 0 1 11.851076 0z" fill="#33241A" /><path d="M524.927175 166.236489l-27.671143 27.671143-27.657167-27.671143-27.601267 27.601266-27.601267-27.601266-27.657167 27.671143-27.671143-27.671143-27.671144 27.671143-27.671143-27.671143-27.573316 27.587291-27.587291-27.587291-27.671143 27.671143-27.657168-27.671143-27.671143 27.671143-27.671143-27.671143-27.671143 27.671143h-12.270335L37.314117 157.781417H8.385195l89.567857 53.35779h12.270335l27.671143-27.671143 27.671143 27.671143 27.671143-27.671143 27.657168 27.671143 27.671143-27.671143 27.587291 27.587291 27.573316-27.587291 27.671143 27.671143 27.671144-27.671143 27.671143 27.671143 27.657167-27.671143 27.601267 27.601267 27.601267-27.601267 27.657167 27.671143 27.671143-27.671143 27.671144 27.671143h131.088546v-17.231575h-131.088546l-27.671144-27.671143z" fill="#FFFFFF" /><path d="M683.686865 222.66885h-131.088546a8.385195 8.385195 0 0 1-5.925538-2.445682L524.927175 198.449612l-21.745605 21.73163a8.385195 8.385195 0 0 1-11.851075 0L469.570914 198.449612l-21.675729 21.661754a8.385195 8.385195 0 0 1-11.851075 0L414.410307 198.449612 392.706627 220.209193a8.385195 8.385195 0 0 1-11.851075 0L359.068021 198.449612l-21.745606 21.745606a8.385195 8.385195 0 0 1-11.851075 0L303.725734 198.449612l-21.647778 21.647779a8.385195 8.385195 0 0 1-11.865051 0L248.565127 198.449612l-21.745605 21.759581a8.385195 8.385195 0 0 1-11.851076 0L193.236816 198.449612l-21.745605 21.745606a8.385195 8.385195 0 0 1-11.865051 0L137.89453 198.449612l-21.745605 21.773556a8.385195 8.385195 0 0 1-5.925538 2.445682h-12.270335a8.385195 8.385195 0 0 1-4.290425-1.173927L4.09477 168.123158A8.385195 8.385195 0 0 1 8.385195 152.54067h675.30167a8.385195 8.385195 0 0 1 8.385195 8.385195v53.35779a8.385195 8.385195 0 0 1-8.385195 8.385195z m-127.622666-16.770389h119.237471v-36.587401H38.837428l61.421552 36.587401h6.484551l25.155585-25.155585a8.385195 8.385195 0 0 1 11.86505 0l21.745606 21.745605 21.759581-21.801506a8.385195 8.385195 0 0 1 11.86505 0l21.73163 21.745605 21.745606-21.745605a8.385195 8.385195 0 0 1 11.851075 0l21.661754 21.661753 21.647778-21.661753a8.385195 8.385195 0 0 1 11.865051 0l21.73163 21.745605 21.745605-21.745605a8.385195 8.385195 0 0 1 11.851076 0l21.745605 21.745605 21.73163-21.745605a8.385195 8.385195 0 0 1 11.865051 0l21.661753 21.661753 21.661754-21.661753a8.385195 8.385195 0 0 1 11.865051 0l21.73163 21.745605 21.745605-21.745605a8.385195 8.385195 0 0 1 11.851076 0z" fill="#33241A" /><path d="M793.225461 1015.614805a10.872803 10.872803 0 0 1-10.886778-10.635222L768.642865 708.772573h49.249045l-13.737745 296.276887a10.872803 10.872803 0 0 1-10.928704 10.565345z" fill="#AEE4F5" /><path d="M793.225461 1024a19.383776 19.383776 0 0 1-19.271973-18.726935L760.25767 709.163883a8.385195 8.385195 0 0 1 8.385195-8.776504h49.249045a8.385195 8.385195 0 0 1 8.385194 8.776504l-13.723768 296.109182a19.383776 19.383776 0 0 1-19.327875 18.726935z m-15.848018-306.842232l13.33246 287.430506v0.23758a2.529534 2.529534 0 0 0 2.515558 2.445682 2.501583 2.501583 0 0 0 2.501583-2.445682 0.922371 0.922371 0 0 0 0-0.195654l13.33246-287.430506z" fill="#33241A" /><path d="M794.581068 1004.979583l-13.723769-296.20701H765.8478l13.737744 296.276887a10.886778 10.886778 0 0 0 18.405503 7.546675 10.858827 10.858827 0 0 1-3.409979-7.616552z" fill="#FFFFFF" /><path d="M791.869855 1004.979583l13.723769-296.20701h15.051425l-13.737745 296.276887a10.886778 10.886778 0 0 1-18.405502 7.616552 10.858827 10.858827 0 0 0 3.368053-7.686429z" fill="#64CAE2" /><path d="M793.225461 1024a19.383776 19.383776 0 0 1-19.271973-18.726935L760.25767 709.163883a8.385195 8.385195 0 0 1 8.385195-8.776504h49.249045a8.385195 8.385195 0 0 1 8.385194 8.776504l-13.723768 296.109182a19.383776 19.383776 0 0 1-19.327875 18.726935z m-15.848018-306.842232l13.33246 287.430506v0.23758a2.529534 2.529534 0 0 0 2.515558 2.445682 2.501583 2.501583 0 0 0 2.501583-2.445682 0.922371 0.922371 0 0 0 0-0.195654l13.33246-287.430506z" fill="#33241A" /><path d="M905.000109 233.988863c11.920952 26.008079 42.331259 92.362922 37.132438 135.840158a27.405612 27.405612 0 0 0 27.32176 30.466208h47.809586l30.284529-64.286494-97.827273-114.597664z" fill="#FF7997" /><path d="M1019.93318 404.487826h-50.478873a31.849765 31.849765 0 0 1-23.758052-10.691123 31.318703 31.318703 0 0 1-7.700404-24.456819c5.059068-42.303308-25.337264-108.6302-36.783055-133.604105l-2.040397-4.444153 51.988208-14.674091 101.33508 118.790261z m-109.091385-167.78775c12.899225 28.300033 40.528442 91.370674 35.455399 133.632056a22.5981 22.5981 0 0 0 5.59013 17.902391 23.450595 23.450595 0 0 0 17.511082 7.868108H1014.608582l27.950649-59.423081-94.333442-110.502893z" fill="#33241A" /><path d="M905.000109 233.988863c11.920952 26.008079 42.331259 92.362922 37.132438 135.840158a27.405612 27.405612 0 0 0 27.32176 30.466208h47.809586l30.284529-64.286494-97.827273-114.597664z" fill="#FF7997" /><path d="M1019.93318 404.487826h-50.478873a31.849765 31.849765 0 0 1-23.758052-10.691123 31.318703 31.318703 0 0 1-7.700404-24.456819c5.059068-42.303308-25.337264-108.6302-36.783055-133.604105l-2.040397-4.444153 51.988208-14.674091 101.33508 118.790261z m-109.091385-167.78775c12.899225 28.300033 40.528442 91.370674 35.455399 133.632056a22.5981 22.5981 0 0 0 5.59013 17.902391 23.450595 23.450595 0 0 0 17.511082 7.868108H1014.608582l27.950649-59.423081-94.333442-110.502893z" fill="#33241A" /><path d="M937.981876 300.916694c8.6088 1.872694 20.02664 10.956655 23.282891 15.848018s10.956655 16.993995 10.719074 27.713069-1.159952 54.741347-1.159952 54.741348l9.349492 1.0761 5.743859-71.651491-30.242603-38.432143-20.725407 2.319904z" fill="#E85D88" /><path d="M952.851621 369.829021c5.198821-43.477236-25.155585-109.832078-37.132438-135.840158l36.070314-10.146085-2.068348-2.431707-44.72104 12.577792c11.920952 26.008079 42.331259 92.362922 37.132438 135.840158a27.405612 27.405612 0 0 0 27.32176 30.466208h10.719074a27.391637 27.391637 0 0 1-27.32176-30.466208z" fill="#FFFFFF" /><path d="M1019.93318 404.487826h-50.478873a31.849765 31.849765 0 0 1-23.758052-10.691123 31.318703 31.318703 0 0 1-7.700404-24.456819c5.059068-42.303308-25.337264-108.6302-36.783055-133.604105l-2.040397-4.444153 51.988208-14.674091 101.33508 118.790261z m-109.091385-167.78775c12.899225 28.300033 40.528442 91.370674 35.455399 133.632056a22.5981 22.5981 0 0 0 5.59013 17.902391 23.450595 23.450595 0 0 0 17.511082 7.868108H1014.608582l27.950649-59.423081-94.333442-110.502893z" fill="#33241A" /><path d="M577.180915 27.391637h68.479092v579.444917a34.239546 34.239546 0 0 1-34.239546 34.239546 34.239546 34.239546 0 0 1-34.239546-34.239546V27.391637z" fill="#AEE4F5" /><path d="M611.490337 649.461295a42.666667 42.666667 0 0 1-42.62474-42.624741V27.391637a8.385195 8.385195 0 0 1 8.385195-8.385195h68.479091a8.385195 8.385195 0 0 1 8.385195 8.385195v579.444917a42.680642 42.680642 0 0 1-42.624741 42.624741zM585.635986 35.776832v571.059722a25.854351 25.854351 0 0 0 51.708702 0V35.776832z" fill="#33241A" /><path d="M596.341085 606.836554V27.391637h-17.692761v579.444917a34.253521 34.253521 0 0 0 43.085926 33.079594 34.253521 34.253521 0 0 1-25.393165-33.079594z" fill="#FFFFFF" /><path d="M625.577465 606.836554V27.391637h17.706736v579.444917a34.253521 34.253521 0 0 1-43.099901 33.079594 34.253521 34.253521 0 0 0 25.393165-33.079594z" fill="#64CAE2" /><path d="M611.490337 649.461295a42.666667 42.666667 0 0 1-42.62474-42.624741V27.391637a8.385195 8.385195 0 0 1 8.385195-8.385195h68.479091a8.385195 8.385195 0 0 1 8.385195 8.385195v579.444917a42.680642 42.680642 0 0 1-42.624741 42.624741zM585.635986 35.776832v571.059722a25.854351 25.854351 0 0 0 51.708702 0V35.776832z" fill="#33241A" /><path d="M1172.068566 209.629872A161.722459 161.722459 0 0 0 1010.415984 47.837537H683.686865v323.444917h35.511301v375.433126a85.249481 85.249481 0 0 0 85.249481 85.249482h39.13091a29.348182 29.348182 0 0 0 29.348182-29.348182 29.348182 29.348182 0 0 1 29.348182-29.348183h93.131564c47.096845 0 73.733814-39.620046 85.249482-85.249481C1109.64079 573.924664 1161.754777 330.85184 1172.068566 209.629872zM924.272082 669.879244a51.275467 51.275467 0 0 1-51.275467-51.275466V343.890818a56.460312 56.460312 0 0 1 56.460313-56.460312 56.446337 56.446337 0 0 1 56.418386 58.584561L975.477672 621.189213a51.275467 51.275467 0 0 1-51.20559 48.690031z" fill="#F7C11C" /><path d="M843.578557 840.378207h-39.13091a93.77443 93.77443 0 0 1-93.634676-93.634676V379.667649h-35.511301V39.452342H1010.415984A170.303308 170.303308 0 0 1 1180.453761 209.629872v0.712742c-10.691123 125.624195-64.859482 374.398952-91.482476 479.675074-14.716017 58.221203-48.773884 91.608254-93.411071 91.608254h-93.159515a21.046839 21.046839 0 0 0-20.962987 20.962987 37.84518 37.84518 0 0 1-37.859155 37.789278zM692.07206 362.89726h35.511301v383.81832a76.976089 76.976089 0 0 0 76.864286 76.864287h39.13091a21.046839 21.046839 0 0 0 20.962987-20.962987 37.831204 37.831204 0 0 1 37.733377-37.733377h93.131564c49.766132 0 69.694945-49.47265 77.157769-78.960586 26.553117-104.703134 80.316192-351.828802 90.99334-476.558576A153.518943 153.518943 0 0 0 1010.415984 56.222732H692.07206z m232.200022 315.367179a59.730538 59.730538 0 0 1-59.660662-59.660661V343.890818a64.845507 64.845507 0 1 1 129.649089 2.445682L983.862867 621.49667a59.646686 59.646686 0 0 1-59.590785 56.767769z m5.184846-382.448739a48.131019 48.131019 0 0 0-48.075118 48.075118v274.71296a42.890272 42.890272 0 0 0 85.710667 2.166175l10.383667-275.062343a48.089093 48.089093 0 0 0-48.047167-49.89191z" fill="#33241A" /><path d="M923.293809 289.596681a56.641991 56.641991 0 0 0-15.498635-2.166175 56.460312 56.460312 0 0 0-56.460312 56.460312v274.71296a51.289442 51.289442 0 0 0 66.760127 48.913637c-20.753357-6.568403-40.682171-25.966154-40.682171-48.913637l-4.416203-274.71296c0-25.812425 26.636969-47.613932 50.297194-54.294137zM842.01332 802.588929a29.348182 29.348182 0 0 1-29.348182 29.348182h30.96932a29.348182 29.348182 0 0 0 29.348182-29.348182 29.348182 29.348182 0 0 1 29.348182-29.348182h-30.899443a29.418059 29.418059 0 0 0-29.418059 29.348182zM1176.72235 213.668741A161.722459 161.722459 0 0 0 1014.957965 51.960258h-30.96932a161.722459 161.722459 0 0 1 161.722459 161.708483c0 2.222077 0 4.444153-0.153729 6.652255h0.153729s-62.427776 357.768315-91.244896 471.667212c-11.557594 45.671362-38.194563 85.249481-85.249481 85.249482h30.96932c47.11082 0 73.747789-39.620046 85.249481-85.249482C1114.252648 578.03341 1176.72235 220.334971 1176.72235 220.334971h-0.153729c0.097827-2.208101 0.153729-4.430178 0.153729-6.652255z" fill="#EBA017" /><path d="M747.679878 746.71558V353.673545h-34.938312v393.042035a85.249481 85.249481 0 0 0 85.249481 85.249482h34.938312a85.249481 85.249481 0 0 1-85.249481-85.249482z" fill="#FFFFFF" /><path d="M679.494268 47.837537h34.938312v323.444917h-34.938312zM973.618954 622.824326c-1.0761 21.158642-25.532918 37.160389-44.427558 43.994322A51.303417 51.303417 0 0 0 997.838192 621.189213l10.397642-275.174146a56.460312 56.460312 0 0 0-56.418387-58.584561 56.781745 56.781745 0 0 0-17.469156 2.795064c23.338792 7.588601 52.463369 29.949121 51.485097 55.9013z" fill="#FFFFFF" /><path d="M843.578557 840.378207h-39.13091a93.77443 93.77443 0 0 1-93.634676-93.634676V379.667649h-35.511301V39.452342H1010.415984a176.648106 176.648106 0 0 1 129.816793 56.823671c29.47396 32.143247 43.784693 72.587837 40.26291 113.996724-10.691123 125.624195-64.859482 374.398952-91.482476 479.675074-14.716017 58.221203-48.773884 91.608254-93.411071 91.608254h-93.201441a21.046839 21.046839 0 0 0-20.962987 20.962987 37.84518 37.84518 0 0 1-37.859155 37.859155zM692.07206 362.89726h35.511301v383.81832a76.976089 76.976089 0 0 0 76.864286 76.864287h39.13091a21.046839 21.046839 0 0 0 20.962987-20.962987 37.831204 37.831204 0 0 1 37.733377-37.733377h93.131564c49.766132 0 69.694945-49.47265 77.157769-78.960586 26.553117-104.814936 80.414019-352.303963 91.02129-476.977836 3.116497-36.671252-9.628999-72.671689-35.902609-101.223277-29.557812-32.143247-73.482258-51.401245-117.392729-51.401245h-318.218146z m232.200022 315.367179a59.730538 59.730538 0 0 1-59.660662-59.660661V343.890818a64.845507 64.845507 0 1 1 129.649089 2.445682L983.862867 621.49667a59.646686 59.646686 0 0 1-59.590785 56.767769z m5.184846-382.448739a48.131019 48.131019 0 0 0-48.075118 48.075118v274.71296a42.890272 42.890272 0 0 0 85.710667 2.166175l10.383667-275.062343a48.089093 48.089093 0 0 0-48.047167-49.89191z" fill="#33241A" /><path d="M1003.190741 249.459548m-29.585762 0a29.585763 29.585763 0 1 0 59.171525 0 29.585763 29.585763 0 1 0-59.171525 0Z" fill="#FF7997" /><path d="M1003.190741 283.237908A33.77836 33.77836 0 1 1 1036.969101 249.459548a33.806311 33.806311 0 0 1-33.77836 33.77836z m0-59.171525A25.393165 25.393165 0 1 0 1028.583907 249.459548a25.421116 25.421116 0 0 0-25.393166-25.393165z" fill="#33241A" /><path d="M1003.190741 232.800961a29.585763 29.585763 0 0 1 28.859046 23.129162 29.907195 29.907195 0 0 0 0.726717-6.470575 29.585763 29.585763 0 1 0-59.15755 0 29.907195 29.907195 0 0 0 0.726717 6.470575 29.571787 29.571787 0 0 1 28.84507-23.129162z" fill="#FFFFFF" /><path d="M1003.190741 267.809149a29.585763 29.585763 0 0 0 28.859046-23.129162 29.907195 29.907195 0 0 1 0.726717 6.470575 29.585763 29.585763 0 1 1-59.15755 0 29.907195 29.907195 0 0 1 0.726717-6.470575 29.571787 29.571787 0 0 0 28.84507 23.129162z" fill="#E85D88" /><path d="M1003.190741 283.237908A33.77836 33.77836 0 1 1 1036.969101 249.459548a33.806311 33.806311 0 0 1-33.77836 33.77836z m0-59.171525A25.393165 25.393165 0 1 0 1028.583907 249.459548a25.421116 25.421116 0 0 0-25.393166-25.393165z" fill="#33241A" /><path d="M944.270772 117.392728H683.686865V8.385195h166.949231l22.360519 30.675838 71.274157-1.467409V117.392728z" fill="#AEE4F5" /><path d="M944.270772 125.777923H683.686865a8.385195 8.385195 0 0 1-8.385195-8.385195V8.385195a8.385195 8.385195 0 0 1 8.385195-8.385195h166.949231a8.385195 8.385195 0 0 1 6.778032 3.43793l19.775085 27.140081 66.89988-1.397533a8.524948 8.524948 0 0 1 6.051315 2.389781 8.385195 8.385195 0 0 1 2.515559 5.995414V117.392728a8.385195 8.385195 0 0 1-8.385195 8.385195zM692.07206 109.007534h243.813517V46.118572l-62.721258 1.28573a8.385195 8.385195 0 0 1-6.987662-3.43793L846.373622 16.77039H692.07206z" fill="#33241A" /><path d="M872.996615 39.061033L850.636096 8.385195H683.686865v28.649416h152.149362l22.360519 30.675838 86.074026-1.467409V37.593624l-71.274157 1.467409z" fill="#FFFFFF" /><path d="M687.3484 93.732504h252.254613v18.517305h-252.254613z" fill="#64CAE2" /><path d="M944.270772 125.777923H683.686865a8.385195 8.385195 0 0 1-8.385195-8.385195V8.385195a8.385195 8.385195 0 0 1 8.385195-8.385195h166.949231a8.385195 8.385195 0 0 1 6.778032 3.43793l19.775085 27.140081 66.89988-1.397533a8.524948 8.524948 0 0 1 6.051315 2.389781 8.385195 8.385195 0 0 1 2.515559 5.995414V117.392728a8.385195 8.385195 0 0 1-8.385195 8.385195zM692.07206 109.007534h243.813517V46.118572l-62.721258 1.28573a8.385195 8.385195 0 0 1-6.987662-3.43793L846.373622 16.77039H692.07206zM797.991047 214.283655h-55.384212a8.385195 8.385195 0 0 1 0-16.770389H797.991047a8.385195 8.385195 0 0 1 0 16.770389zM838.980675 214.283655h-16.77039a8.385195 8.385195 0 0 1 0-16.770389h16.77039a8.385195 8.385195 0 0 1 0 16.770389zM797.991047 247.81046h-55.384212a8.385195 8.385195 0 0 1 0-16.77039H797.991047a8.385195 8.385195 0 0 1 0 16.77039zM838.980675 247.81046h-16.77039a8.385195 8.385195 0 0 1 0-16.77039h16.77039a8.385195 8.385195 0 1 1 0 16.77039zM797.991047 281.337264h-55.384212a8.385195 8.385195 0 0 1 0-16.77039H797.991047a8.385195 8.385195 0 0 1 0 16.77039zM838.980675 281.337264h-16.77039a8.385195 8.385195 0 0 1 0-16.77039h16.77039a8.385195 8.385195 0 1 1 0 16.77039zM797.991047 314.864068h-55.384212a8.385195 8.385195 0 0 1 0-16.77039H797.991047a8.385195 8.385195 0 0 1 0 16.77039zM838.980675 314.864068h-16.77039a8.385195 8.385195 0 0 1 0-16.77039h16.77039a8.385195 8.385195 0 1 1 0 16.77039z" fill="#33241A" /><path d="M742.606835 65.935582m-19.523529 0a19.523529 19.523529 0 1 0 39.047058 0 19.523529 19.523529 0 1 0-39.047058 0Z" fill="#F7C11C" /><path d="M742.606835 89.651709a23.758052 23.758052 0 1 1 23.758052-23.758052 23.758052 23.758052 0 0 1-23.758052 23.758052z m0-39.033083a15.372857 15.372857 0 1 0 15.372857 15.372858 15.372857 15.372857 0 0 0-15.372857-15.372858z" fill="#33241A" /><path d="M742.606835 54.825199a19.565455 19.565455 0 0 1 19.062343 15.372858 19.78906 19.78906 0 0 0 0.461186-4.192598 19.565455 19.565455 0 0 0-39.033083 0 19.78906 19.78906 0 0 0 0.461186 4.192598 19.565455 19.565455 0 0 1 19.048368-15.372858z" fill="#FFFFFF" /><path d="M742.606835 76.864286A19.565455 19.565455 0 0 0 761.655203 61.491429a19.78906 19.78906 0 0 1 0.461185 4.192598 19.565455 19.565455 0 0 1-39.033082 0 19.78906 19.78906 0 0 1 0.461186-4.192598 19.565455 19.565455 0 0 0 19.062343 15.372857z" fill="#EBA017" /><path d="M742.606835 89.651709a23.758052 23.758052 0 1 1 23.758052-23.758052 23.758052 23.758052 0 0 1-23.758052 23.758052z m0-39.033083a15.372857 15.372857 0 1 0 15.372857 15.372858 15.372857 15.372857 0 0 0-15.372857-15.372858z" fill="#33241A" /></svg>