<?xml version="1.0" standalone="no"?><!DOCTYPE svg PUBLIC "-//W3C//DTD SVG 1.1//EN" "http://www.w3.org/Graphics/SVG/1.1/DTD/svg11.dtd"><svg class="icon" width="200px" height="200.00px" viewBox="0 0 1024 1024" version="1.1" xmlns="http://www.w3.org/2000/svg"><path d="M212.716781 660.289207l140.434503 210.430049 88.859504-102.807938-9.450982-88.821498 89.657643-12.187459-9.286287-87.301233 89.492948-13.695056-9.121591-85.806305 92.026723-17.888454-11.655367-81.612907 89.176226-16.710248-8.804869-82.791112 81.435542-8.665512-1.064186-90.835849 79.953284-8.500817 48.787846-61.431385-100.907607-100.907606-649.53333 649.53333z" fill="#AEE4F5" /><path d="M352.378483 883.248775l-149.49275-223.922403 4.408769-4.408769L862.250111 0l111.080715 111.080715-54.982927 69.235413-76.241302 8.108081 1.051517 90.835849-80.751423 8.589499 8.754194 82.221013-88.922849 16.659573 11.642698 81.562231-92.280101 17.93913 9.159599 86.08502-89.492948 13.695056 9.286287 87.415252-89.682982 12.200129 9.020241 84.754788zM222.497154 661.315386l131.439601 196.887019 80.168654-92.774187-9.881724-92.875538 89.657643-12.18746-9.273618-87.187212L594.164003 559.482951l-9.096254-85.51492L676.77775 456.079576 665.109714 374.46667l89.429604-16.748256-8.868214-83.37388 82.119662-8.728856-1.051517-90.785174 83.614589-8.868214 42.592765-53.640025L862.250111 21.537091z" fill="#33241A" /><path d="M209.131489 656.716583l140.434503 210.430049 4.168061-4.814173-122.457367-183.470678L880.822685 29.315782 858.664819 7.170584l-649.53333 649.545999z" fill="#64CAE2" /><path d="M805.746919 160.0966l1.064186 90.835849-81.435542 8.665512 8.80487 82.791112-89.176227 16.69758 11.655367 81.612907-92.026723 17.888454 9.121592 85.806305-89.492948 13.695056 9.286286 87.313901-89.657643 12.18746 10.16044 95.548671-81.726927 95.3333 17.242342 25.831841 88.859504-102.807938-9.450982-88.821497 89.657643-12.18746-9.286287-87.313901 89.505617-13.695056-9.13426-85.793636 92.026723-17.888455-11.642698-81.612906 89.176226-16.710249-8.804869-82.791112 81.422873-8.665512-1.051517-90.835849 79.940615-8.500817 48.787845-61.444054-17.394368-23.46276-47.229574 58.834265-89.201564 9.488989z" fill="#FFFFFF" /><path d="M352.378483 883.248775l-149.49275-223.922403 4.408769-4.408769L862.250111 0l111.080715 111.080715-54.982927 69.235413-76.241302 8.108081 1.051517 90.835849-80.751423 8.589499 8.754194 82.221013-88.922849 16.659573 11.642698 81.562231-92.280101 17.93913 9.159599 86.08502-89.492948 13.695056 9.286287 87.415252-89.682982 12.200129 9.020241 84.754788zM222.497154 661.315386l131.439601 196.887019 80.168654-92.774187-9.881724-92.875538 89.657643-12.18746-9.273618-87.187212L594.164003 559.482951l-9.096254-85.51492L676.77775 456.079576 665.109714 374.46667l89.429604-16.748256-8.868214-83.37388 82.119662-8.728856-1.051517-90.785174 83.614589-8.868214 42.592765-53.640025L862.250111 21.537091z" fill="#33241A" /><path d="M62.349879 810.656109A13.935765 13.935765 0 0 0 69.67249 834.169545a52.46182 52.46182 0 0 1 29.835205 16.874945l100.286832 114.640669a142.765576 142.765576 0 0 1 22.33523 34.560696l1.951007 4.282081a13.935765 13.935765 0 0 0 23.602118 7.77869l140.282477-140.269807-68.969368-142.600881-87.719305-87.719305z m194.315237-70.464294a201.929232 201.929232 0 0 1 40.933142 58.973623l27.87153 61.000643a28.289603 28.289603 0 0 1-5.777008 31.722868l-38.006632 38.069976a25.337754 25.337754 0 0 1-35.840253 0l-97.208294-104.36621c-12.352155-16.304845-8.095412-31.912901 5.561637-47.660315l70.096897-70.109566z" fill="#F7C11C" /><path d="M237.88984 1024a21.66378 21.66378 0 0 1-6.777849-1.089523 21.43574 21.43574 0 0 1-14.341169-16.102143l-1.558272-3.433266a134.948879 134.948879 0 0 0-21.144356-32.711041L93.743356 856.048696a44.885832 44.885832 0 0 0-25.477112-14.391844A21.537091 21.537091 0 0 1 57.003613 805.271836l174.273073-174.298411 94.003069 94.003068 71.883208 148.618598L253.067155 1017.690899a21.423071 21.423071 0 0 1-15.177315 6.309101zM67.721483 816.027713a6.334439 6.334439 0 0 0 3.331914 10.667195 60.316524 60.316524 0 0 1 34.205969 19.320037l100.312169 114.666007a150.202207 150.202207 0 0 1 23.46276 36.359677l2.407087 5.257584 0.164695 1.064186a6.334439 6.334439 0 0 0 10.705201 3.534617L378.793092 870.478547l-66.080864-136.570495-81.435542-81.46088z m196.000198 128.994507a32.736378 32.736378 0 0 1-23.298065-9.653684l-0.190034-0.190034-97.423665-104.682931-0.228039-0.304053c-13.54303-17.888454-11.554016-37.145148 5.878359-57.250656l0.367397-0.392735 75.468501-75.468501L262.03672 734.794873a208.960459 208.960459 0 0 1 42.478745 61.190677l27.87153 61.000643a36.042955 36.042955 0 0 1-7.271936 40.287029l-38.006631 38.069976a32.72371 32.72371 0 0 1-23.386747 9.679022z m-12.453507-20.270203a17.736428 17.736428 0 0 0 24.983026-0.088683l38.069976-38.006631a20.776958 20.776958 0 0 0 4.193398-23.234721l-27.87153-61.000643a193.83382 193.83382 0 0 0-39.387538-56.756569l-26.997378-26.984709-64.484584 64.421241c-12.504182 14.493195-14.087791 25.781165-5.295591 37.613896z" fill="#33241A" /><path d="M154.199238 777.9324L141.213639 790.917999c-13.65705 15.747414-17.913792 31.355471-5.561637 47.672984l97.157618 104.391548a25.337754 25.337754 0 0 0 35.827585 0l12.998268-12.985599a25.337754 25.337754 0 0 1-35.840254 0l-97.157618-104.404217c-12.352155-16.304845-8.095412-31.912901 5.561637-47.660315zM218.291087 654.714901l87.719305 87.719305 68.969367 142.588212 12.9856-12.985599-68.969368-142.600881-87.719305-87.719305-12.985599 12.998268z" fill="#EBA017" /><path d="M235.710793 992.897907l-1.963676-4.282081a142.182808 142.182808 0 0 0-22.33523-34.548028l-100.286831-114.640669a52.284456 52.284456 0 0 0-29.822537-16.874944 13.935765 13.935765 0 0 1-7.322611-23.526105l-11.630029 11.630029A13.935765 13.935765 0 0 0 69.67249 834.169545a52.46182 52.46182 0 0 1 29.835205 16.874945l100.286832 114.640669a142.765576 142.765576 0 0 1 22.33523 34.560696l1.951007 4.282081a13.935765 13.935765 0 0 0 23.602118 7.791359l11.630029-11.630029a13.935765 13.935765 0 0 1-23.602118-7.791359z" fill="#FFFFFF" /><path d="M345.9807 844.735389m-12.035434 0a12.035433 12.035433 0 1 0 24.070867 0 12.035433 12.035433 0 1 0-24.070867 0Z" fill="#FF7997" /><path d="M345.9807 860.571485a15.836096 15.836096 0 1 1 11.199287-4.636809 15.785421 15.785421 0 0 1-11.199287 4.636809z m0-24.070866a8.23477 8.23477 0 1 0 5.827683 2.407086 8.171426 8.171426 0 0 0-5.827683-2.394418z" fill="#33241A" /><path d="M297.560251 746.931657m-12.035433 0a12.035433 12.035433 0 1 0 24.070867 0 12.035433 12.035433 0 1 0-24.070867 0Z" fill="#FF7997" /><path d="M297.560251 762.767754a15.836096 15.836096 0 1 1 11.199288-4.636809 15.785421 15.785421 0 0 1-11.199288 4.636809z m0-24.070867a8.23477 8.23477 0 1 0 5.827684 2.407087 8.196763 8.196763 0 0 0-5.827684-2.394418z" fill="#33241A" /><path d="M230.972633 678.557728m-12.035433 0a12.035433 12.035433 0 1 0 24.070867 0 12.035433 12.035433 0 1 0-24.070867 0Z" fill="#FF7997" /><path d="M230.972633 694.381155a15.823428 15.823428 0 1 1 11.199288-4.62414 15.823428 15.823428 0 0 1-11.199288 4.62414z m0-24.070866a8.23477 8.23477 0 1 0 5.815015 2.407086 8.196763 8.196763 0 0 0-5.815015-2.394418z" fill="#33241A" /><path d="M237.88984 1024a21.66378 21.66378 0 0 1-6.777849-1.089523 21.43574 21.43574 0 0 1-14.341169-16.102143l-1.558272-3.433266a134.948879 134.948879 0 0 0-21.144356-32.711041L93.743356 856.048696a44.885832 44.885832 0 0 0-25.477112-14.391844A21.537091 21.537091 0 0 1 57.003613 805.271836l174.273073-174.298411 94.003069 94.003068 71.883208 148.618598L253.067155 1017.690899a21.423071 21.423071 0 0 1-15.177315 6.309101zM67.721483 816.027713a6.334439 6.334439 0 0 0 3.331914 10.667195 60.316524 60.316524 0 0 1 34.205969 19.320037l100.312169 114.666007a150.202207 150.202207 0 0 1 23.46276 36.359677l2.407087 5.257584 0.164695 1.064186a6.334439 6.334439 0 0 0 10.705201 3.534617L378.793092 870.478547l-66.080864-136.570495-81.435542-81.46088z m196.000198 128.994507a32.736378 32.736378 0 0 1-23.298065-9.653684l-0.190034-0.190034-97.423665-104.682931-0.228039-0.304053c-13.54303-17.888454-11.554016-37.145148 5.878359-57.250656l0.367397-0.392735 75.468501-75.468501L262.03672 734.794873a208.960459 208.960459 0 0 1 42.478745 61.190677l27.87153 61.000643a36.042955 36.042955 0 0 1-7.271936 40.287029l-38.006631 38.069976a32.72371 32.72371 0 0 1-23.386747 9.679022z m-12.453507-20.270203a17.736428 17.736428 0 0 0 24.983026-0.088683l38.069976-38.006631a20.776958 20.776958 0 0 0 4.193398-23.234721l-27.87153-61.000643a193.83382 193.83382 0 0 0-39.387538-56.756569l-26.997378-26.984709-64.484584 64.421241c-12.504182 14.493195-14.087791 25.781165-5.295591 37.613896z" fill="#33241A" /><path d="M139.351314 857.442272a7.601326 7.601326 0 0 1-5.270253-13.074281l14.265156-13.7584a7.601326 7.601326 0 0 1 10.540505 10.94591l-14.303162 13.771069a7.601326 7.601326 0 0 1-5.232246 2.115702zM156.669669 875.419409a7.601326 7.601326 0 0 1-5.270253-13.074281l14.303162-13.707725a7.601326 7.601326 0 0 1 10.540506 10.94591l-14.303162 13.771069a7.601326 7.601326 0 0 1-5.270253 2.065027zM174.026031 893.497897a7.512644 7.512644 0 0 1-5.472955-2.331074 7.601326 7.601326 0 0 1 0.202702-10.743207l14.290493-13.77107a7.601326 7.601326 0 0 1 10.553175 10.958579l-14.303163 13.7584a7.601326 7.601326 0 0 1-5.270252 2.128372zM191.382392 911.525709a7.601326 7.601326 0 0 1-5.282922-13.074281l14.303163-13.77107a7.601326 7.601326 0 0 1 10.540506 10.958579l-14.290494 13.758401a7.601326 7.601326 0 0 1-5.270253 2.128371zM208.726085 929.553521a7.601326 7.601326 0 0 1-5.270253-13.074281l14.303162-13.77107a7.601326 7.601326 0 0 1 10.540506 10.958579l-14.303162 13.758401a7.601326 7.601326 0 0 1-5.270253 2.128371zM226.082447 947.632009a7.601326 7.601326 0 0 1-5.270253-13.08695l14.290493-13.758401a7.601326 7.601326 0 1 1 10.553175 10.94591l-14.303162 13.771069a7.601326 7.601326 0 0 1-5.270253 2.128372z" fill="#33241A" /></svg>