<?xml version="1.0" standalone="no"?><!DOCTYPE svg PUBLIC "-//W3C//DTD SVG 1.1//EN" "http://www.w3.org/Graphics/SVG/1.1/DTD/svg11.dtd"><svg class="icon" width="200px" height="200.00px" viewBox="0 0 1024 1024" version="1.1" xmlns="http://www.w3.org/2000/svg"><path d="M351.71981 89.961025l79.28525 0 0 545.586929-79.28525 0 0-545.586929Z" fill="#AEE4F5" /><path d="M393.639847 643.417749h-4.541773a45.261111 45.261111 0 0 1-45.208906-45.208906V127.33929a45.261111 45.261111 0 0 1 45.208906-45.208907H393.639847a45.261111 45.261111 0 0 1 45.182804 45.208907v470.830399A45.261111 45.261111 0 0 1 393.639847 643.417749zM389.111125 97.883025a29.573725 29.573725 0 0 0-29.560673 29.456265v470.830399A29.573725 29.573725 0 0 0 389.098074 627.756465H393.639847a29.573725 29.573725 0 0 0 29.534571-29.547622V127.33929A29.573725 29.573725 0 0 0 393.639847 97.791667z" fill="#33241A" /><path d="M375.642421 598.169689V127.33929a37.521826 37.521826 0 0 1 28.333873-36.255873 36.999783 36.999783 0 0 0-9.03134-1.122392h-4.541773a37.482673 37.482673 0 0 0-37.378264 37.378265v470.830399A37.482673 37.482673 0 0 0 390.403181 635.587107H394.944954a36.999783 36.999783 0 0 0 9.044391-1.122392 37.521826 37.521826 0 0 1-28.346924-36.295026z" fill="#FFFFFF" /><path d="M407.996024 598.169689V127.33929c1.305107-17.449281-10.806286-32.183939-27.028766-36.255873a36.921477 36.921477 0 0 1 9.044391-1.122392h4.528721a37.495724 37.495724 0 0 1 37.32606 37.378265v470.830399A37.495724 37.495724 0 0 1 394.488166 635.587107h-4.528721a36.921477 36.921477 0 0 1-9.044392-1.122392C397.137533 630.366679 409.30113 615.605919 407.996024 598.169689z" fill="#64CAE2" /><path d="M393.639847 643.417749h-4.541773a45.261111 45.261111 0 0 1-45.208906-45.208906V127.33929a45.261111 45.261111 0 0 1 45.208906-45.208907H393.639847a45.261111 45.261111 0 0 1 45.182804 45.208907v470.830399A45.261111 45.261111 0 0 1 393.639847 643.417749zM389.111125 97.883025a29.573725 29.573725 0 0 0-29.560673 29.456265v470.830399A29.573725 29.573725 0 0 0 389.098074 627.756465H393.639847a29.573725 29.573725 0 0 0 29.534571-29.547622V127.33929A29.573725 29.573725 0 0 0 393.639847 97.791667z" fill="#33241A" /><path d="M592.720868 89.961025l79.28525 0 0 545.586929-79.28525 0 0-545.586929Z" fill="#AEE4F5" /><path d="M634.627853 643.417749h-4.528721a45.261111 45.261111 0 0 1-45.208906-45.208906V127.33929a45.261111 45.261111 0 0 1 45.208906-45.208907h4.528721a45.261111 45.261111 0 0 1 45.208907 45.208907v470.830399A45.261111 45.261111 0 0 1 634.627853 643.417749z m-4.528721-545.534724a29.573725 29.573725 0 0 0-29.547622 29.547622v470.739042A29.573725 29.573725 0 0 0 630.099132 627.756465h4.528721a29.573725 29.573725 0 0 0 29.547623-29.547622V127.33929a29.573725 29.573725 0 0 0-29.547623-29.547623z" fill="#33241A" /><path d="M616.643479 598.169689V127.33929a37.521826 37.521826 0 0 1 28.333873-36.255873 36.921477 36.921477 0 0 0-9.044392-1.122392h-4.528721a37.495724 37.495724 0 0 0-37.378264 37.378265v470.830399A37.495724 37.495724 0 0 0 631.404239 635.587107h4.528721a36.921477 36.921477 0 0 0 9.044392-1.122392 37.521826 37.521826 0 0 1-28.333873-36.295026z" fill="#FFFFFF" /><path d="M648.944877 598.169689V127.33929c1.305107-17.449281-10.806286-32.183939-27.028766-36.255873a37.07809 37.07809 0 0 1 9.044392-1.122392h4.528721A37.482673 37.482673 0 0 1 672.932744 127.33929v470.830399A37.482673 37.482673 0 0 1 635.489224 635.587107h-4.528721a37.07809 37.07809 0 0 1-9.044392-1.122392c16.22248-4.098036 28.333873-18.858796 27.028766-36.295026z" fill="#64CAE2" /><path d="M634.627853 643.417749h-4.528721a45.261111 45.261111 0 0 1-45.208906-45.208906V127.33929a45.261111 45.261111 0 0 1 45.208906-45.208907h4.528721a45.261111 45.261111 0 0 1 45.208907 45.208907v470.830399A45.261111 45.261111 0 0 1 634.627853 643.417749z m-4.528721-545.534724a29.573725 29.573725 0 0 0-29.547622 29.547622v470.739042A29.573725 29.573725 0 0 0 630.099132 627.756465h4.528721a29.573725 29.573725 0 0 0 29.547623-29.547622V127.33929a29.573725 29.573725 0 0 0-29.547623-29.547623z" fill="#33241A" /><path d="M472.611871 7.830642l79.28525 0 0 628.643938-79.28525 0 0-628.643938Z" fill="#AEE4F5" /><path d="M514.518857 644.305222h-4.528722A45.261111 45.261111 0 0 1 464.781229 599.044111V45.208906A45.261111 45.261111 0 0 1 509.990135 0h4.528722a45.261111 45.261111 0 0 1 45.208906 45.208906V599.044111a45.261111 45.261111 0 0 1-45.208906 45.261111zM509.990135 15.661284a29.586776 29.586776 0 0 0-29.547622 29.547622V599.044111a29.586776 29.586776 0 0 0 29.547622 29.547622h4.528722A29.586776 29.586776 0 0 0 544.066479 599.044111V45.208906A29.586776 29.586776 0 0 0 514.518857 15.661284z" fill="#33241A" /><path d="M496.103797 599.044111V45.208906a37.508775 37.508775 0 0 1 27.237583-35.955697A36.542996 36.542996 0 0 0 513.21375 7.830642h-4.528722a37.495724 37.495724 0 0 0-37.378264 37.378264V599.044111a37.495724 37.495724 0 0 0 37.378264 37.378264h4.528722a37.07809 37.07809 0 0 0 10.12763-1.422566A37.508775 37.508775 0 0 1 496.103797 599.044111z" fill="#FFFFFF" /><path d="M528.483501 599.044111V45.208906a37.495724 37.495724 0 0 0-27.237583-35.955697A36.542996 36.542996 0 0 1 511.373549 7.830642h4.528721a37.495724 37.495724 0 0 1 37.378264 37.378264V599.044111a37.495724 37.495724 0 0 1-37.378264 37.378264h-4.528721a37.07809 37.07809 0 0 1-10.127631-1.422566A37.495724 37.495724 0 0 0 528.483501 599.044111z" fill="#64CAE2" /><path d="M514.518857 644.305222h-4.528722A45.261111 45.261111 0 0 1 464.781229 599.044111V45.208906A45.261111 45.261111 0 0 1 509.990135 0h4.528722a45.261111 45.261111 0 0 1 45.208906 45.208906V599.044111a45.261111 45.261111 0 0 1-45.208906 45.261111zM509.990135 15.661284a29.586776 29.586776 0 0 0-29.547622 29.547622V599.044111a29.586776 29.586776 0 0 0 29.547622 29.547622h4.528722A29.586776 29.586776 0 0 0 544.066479 599.044111V45.208906A29.586776 29.586776 0 0 0 514.518857 15.661284z" fill="#33241A" /><path d="M329.689604 584.792343h364.620792v219.257975a73.085992 73.085992 0 0 1-73.085992 73.085992H402.775596a73.085992 73.085992 0 0 1-73.085992-73.085992v-219.257975z" fill="#F7C11C" /><path d="M621.276609 884.862543H402.775596a80.916634 80.916634 0 0 1-80.916634-80.916634V576.857292h380.282076v227.088617a80.916634 80.916634 0 0 1-80.864429 80.916634zM337.520246 592.622985v211.427333a65.25535 65.25535 0 0 0 65.25535 65.25535h218.501013a65.25535 65.25535 0 0 0 65.25535-65.25535v-211.427333z" fill="#33241A" /><path d="M363.465773 804.024216v-219.257975H329.689604v219.257975a73.085992 73.085992 0 0 0 73.085992 73.085992h33.737015a73.085992 73.085992 0 0 1-73.046838-73.085992z" fill="#FFFFFF" /><path d="M660.547278 804.024216v-219.257975h33.763118v219.257975a73.085992 73.085992 0 0 1-73.085992 73.085992h-33.723964a73.085992 73.085992 0 0 0 73.046838-73.085992z" fill="#EBA017" /><path d="M408.583322 877.031901h206.833356v99.945094a39.15321 39.15321 0 0 1-39.15321 39.15321H447.736532a39.15321 39.15321 0 0 1-39.15321-39.15321V877.031901z" fill="#FF7997" /><path d="M576.263468 1024H447.736532a46.983852 46.983852 0 0 1-46.983852-46.983852V869.201259h222.49464v107.775736a46.983852 46.983852 0 0 1-46.983852 47.023005zM416.413964 884.862543v92.114452a31.322568 31.322568 0 0 0 31.322568 31.322568h128.526936a31.322568 31.322568 0 0 0 31.322568-31.322568V884.862543z" fill="#33241A" /><path d="M428.590612 977.016148V877.031901H408.583322v99.945094a39.15321 39.15321 0 0 0 39.15321 39.15321h20.00729a39.15321 39.15321 0 0 1-39.15321-39.114057z" fill="#FFFFFF" /><path d="M595.644307 977.016148V877.031901h20.020342v99.945094a39.15321 39.15321 0 0 1-39.15321 39.15321h-20.020342a39.15321 39.15321 0 0 0 39.15321-39.114057z" fill="#E85D88" /><path d="M621.276609 884.862543H402.775596a80.916634 80.916634 0 0 1-80.916634-80.916634V576.857292h380.282076v227.088617a80.916634 80.916634 0 0 1-80.864429 80.916634zM337.520246 592.622985v211.427333a65.25535 65.25535 0 0 0 65.25535 65.25535h218.501013a65.25535 65.25535 0 0 0 65.25535-65.25535v-211.427333z" fill="#33241A" /><path d="M576.263468 1024H447.736532a46.983852 46.983852 0 0 1-46.983852-46.983852V869.201259h222.49464v107.775736a46.983852 46.983852 0 0 1-46.983852 47.023005zM416.413964 884.862543v92.114452a31.322568 31.322568 0 0 0 31.322568 31.322568h128.526936a31.322568 31.322568 0 0 0 31.322568-31.322568V884.862543zM462.053555 814.947961H429.230114a7.830642 7.830642 0 1 1 0-15.661284h32.823441a7.830642 7.830642 0 0 1 0 15.661284z" fill="#33241A" /><path d="M462.053555 985.603752H440.923873a7.830642 7.830642 0 0 1 0-15.661284h21.129682a7.830642 7.830642 0 0 1 0 15.661284zM683.269191 814.947961H519.830642a7.830642 7.830642 0 1 1 0-15.661284h163.438549a7.830642 7.830642 0 0 1 0 15.661284zM611.932043 985.603752H504.44343a7.830642 7.830642 0 1 1 0-15.661284h107.488613a7.830642 7.830642 0 0 1 0 15.661284zM611.932043 924.146264h-199.681371a7.830642 7.830642 0 0 1 0-15.661284h199.681371a7.830642 7.830642 0 0 1 0 15.661284zM635.828552 644.305222h-52.648016a7.830642 7.830642 0 1 1 0-15.661284h52.648016a7.830642 7.830642 0 0 1 0 15.661284zM543.59664 644.305222h-207.512012a7.830642 7.830642 0 1 1 0-15.661284h207.512012a7.830642 7.830642 0 1 1 0 15.661284z" fill="#33241A" /></svg>