<?xml version="1.0" standalone="no"?><!DOCTYPE svg PUBLIC "-//W3C//DTD SVG 1.1//EN" "http://www.w3.org/Graphics/SVG/1.1/DTD/svg11.dtd"><svg class="icon" width="200px" height="183.35px" viewBox="0 0 1117 1024" version="1.1" xmlns="http://www.w3.org/2000/svg"><path d="M844.339127 302.22542H273.141456V138.554867C273.141456 67.695145 326.939255 10.046274 393.077227 10.046274h331.326128c66.137973 0 119.935772 57.648871 119.935772 128.508593z m-516.495708-58.603267h461.810488V138.554867c0-38.510718-29.268146-69.905326-65.300783-69.905326H393.077227c-35.965662 0-65.300783 31.36112-65.300783 69.905326z" fill="#F7C11C" /><path d="M854.385402 312.271694H263.095181V138.554867C263.095181 62.152951 321.480779 0 393.077227 0h331.326128c71.680167 0 129.982046 62.152951 129.982047 138.554867z m-571.197672-20.092549h551.105123V138.554867c0-65.300783-49.293719-118.462318-109.889498-118.462318H393.077227c-60.595778 0-109.889498 53.144791-109.889497 118.462318z m516.512452-38.510718H317.797145V138.554867C317.797145 94.468466 351.619602 58.603267 393.077227 58.603267h331.326128c41.507857 0 75.347058 35.865199 75.347058 79.9516z m-461.810488-20.092549h441.717939V138.554867c0-33.002011-24.764066-59.859051-55.254509-59.859051H393.077227c-30.440211 0-55.254509 26.790065-55.254508 59.859051z" fill="#33241A" /><path d="M724.403355 50.53276H393.077227c-35.965662 0-65.300783 31.36112-65.300783 69.905326v18.116781c0-38.510718 29.268146-69.905326 65.300783-69.905326h331.326128c35.982406 0 65.300783 31.36112 65.300784 69.905326V120.438086c-0.050231-38.544206-29.318377-69.905326-65.300784-69.905326zM273.141456 284.108638h571.214415v18.116782H273.141456z" fill="#EBA017" /><path d="M327.843419 243.622153h461.810488v24.496165H327.843419zM724.403355 10.046274H393.077227c-66.137973 0-119.935772 57.648871-119.935771 128.508593v24.496166c0-70.859722 53.797799-128.508593 119.935771-128.508593h331.326128c66.137973 0 119.935772 57.648871 119.935772 128.508593V138.554867C844.339127 67.695145 790.541328 10.046274 724.403355 10.046274z" fill="#FFFFFF" /><path d="M275.050248 222.13987h49.678826V239.436205h-49.678826zM794.677044 222.13987h49.678827V239.436205h-49.678827z" fill="#EBA017" /><path d="M854.385402 312.271694H263.095181V138.554867C263.095181 62.152951 321.480779 0 393.077227 0h331.326128c71.680167 0 129.982046 62.152951 129.982047 138.554867z m-571.197672-20.092549h551.105123V138.554867c0-65.300783-49.293719-118.462318-109.889498-118.462318H393.077227c-60.595778 0-109.889498 53.144791-109.889497 118.462318z m516.512452-38.510718H317.797145V138.554867C317.797145 94.468466 351.619602 58.603267 393.077227 58.603267h331.326128c41.507857 0 75.347058 35.865199 75.347058 79.9516z m-461.810488-20.092549h441.717939V138.554867c0-33.002011-24.764066-59.859051-55.254509-59.859051H393.077227c-30.440211 0-55.254509 26.790065-55.254508 59.859051z" fill="#33241A" /><path d="M40.955312 540.523047h1035.569959v422.797456a50.633223 50.633223 0 0 1-50.633223 50.633223h-934.303514a50.633223 50.633223 0 0 1-50.633222-50.633223V540.523047z" fill="#AEE4F5" /><path d="M1025.892048 1024h-934.303514a60.746472 60.746472 0 0 1-60.679497-60.679497V530.476773h1055.662508v432.84373a60.746472 60.746472 0 0 1-60.679497 60.679497zM51.001586 550.569322v412.751181a40.63718 40.63718 0 0 0 40.586948 40.586948h934.303514a40.63718 40.63718 0 0 0 40.586949-40.586948V550.569322z" fill="#33241A" /><path d="M1025.892048 978.038295h-934.303514a50.633223 50.633223 0 0 1-50.633222-50.633223v35.915431a50.633223 50.633223 0 0 0 50.633222 50.633223h934.303514a50.633223 50.633223 0 0 0 50.633223-50.633223v-35.915431a50.633223 50.633223 0 0 1-50.633223 50.633223z" fill="#FFFFFF" /><path d="M37.288422 540.523047h1039.236849v34.54244H37.288422z" fill="#64CAE2" /><path d="M1025.892048 1024h-934.303514a60.746472 60.746472 0 0 1-60.679497-60.679497V530.476773h1055.662508v432.84373a60.746472 60.746472 0 0 1-60.679497 60.679497zM51.001586 550.569322v412.751181a40.63718 40.63718 0 0 0 40.586948 40.586948h934.303514a40.63718 40.63718 0 0 0 40.586949-40.586948V550.569322z" fill="#33241A" /><path d="M1107.434308 539.468188H10.046274V292.045195a50.633223 50.633223 0 0 1 50.633223-50.633223h996.121589a50.633223 50.633223 0 0 1 50.633222 50.633223v247.422993z" fill="#AEE4F5" /><path d="M1117.480583 549.514463H0V292.128914a60.746472 60.746472 0 0 1 60.679497-60.679497h996.121589a60.729728 60.729728 0 0 1 60.679497 60.679497z m-1097.388034-20.092549h1077.295485V292.128914a40.620436 40.620436 0 0 0-40.586948-40.586948H60.679497A40.620436 40.620436 0 0 0 20.092549 292.128914z" fill="#33241A" /><path d="M1056.801086 241.495691H60.679497A50.616479 50.616479 0 0 0 10.046274 292.128914v34.592671a50.633223 50.633223 0 0 1 50.633223-50.633222h996.121589a50.633223 50.633223 0 0 1 50.633222 50.633222v-34.592671a50.616479 50.616479 0 0 0-50.633222-50.633223z" fill="#FFFFFF" /><path d="M11.620191 504.607616H1107.434308v31.511814H11.620191z" fill="#64CAE2" /><path d="M1117.480583 549.514463H0V292.128914a60.746472 60.746472 0 0 1 60.679497-60.679497h996.121589a60.729728 60.729728 0 0 1 60.679497 60.679497z m-1097.388034-20.092549h1077.295485V292.128914a40.620436 40.620436 0 0 0-40.586948-40.586948H60.679497A40.620436 40.620436 0 0 0 20.092549 292.128914z" fill="#33241A" /><path d="M484.598787 394.316268l150.694115 0 0 285.330935-150.694115 0 0-285.330935Z" fill="#FF7997" /><path d="M615.200353 689.693477h-110.509018a30.138823 30.138823 0 0 1-30.138823-30.138823V414.408817a30.138823 30.138823 0 0 1 30.138823-30.138823h110.509018a30.138823 30.138823 0 0 1 30.138823 30.138823v245.145837a30.138823 30.138823 0 0 1-30.138823 30.138823z m-110.509018-285.330935a10.046274 10.046274 0 0 0-10.046274 10.046275v245.145837a10.046274 10.046274 0 0 0 10.046274 10.046275h110.509018a10.046274 10.046274 0 0 0 10.046275-10.046275V414.408817a10.046274 10.046274 0 0 0-10.046275-10.046275z" fill="#33241A" /><path d="M615.200353 394.316268h-110.509018a20.092549 20.092549 0 0 0-20.092548 20.092549v20.795788a20.092549 20.092549 0 0 1 20.092548-20.092549h110.509018a20.092549 20.092549 0 0 1 20.092549 20.092549V414.408817a20.092549 20.092549 0 0 0-20.092549-20.092549z" fill="#FFFFFF" /><path d="M615.200353 679.647203h-110.509018a20.092549 20.092549 0 0 1-20.092548-20.092549v-20.795787a20.092549 20.092549 0 0 0 20.092548 20.092548h110.509018a20.092549 20.092549 0 0 0 20.092549-20.092548v20.795787a20.092549 20.092549 0 0 1-20.092549 20.092549z" fill="#E85D88" /><path d="M615.200353 689.693477h-110.509018a30.138823 30.138823 0 0 1-30.138823-30.138823V414.408817a30.138823 30.138823 0 0 1 30.138823-30.138823h110.509018a30.138823 30.138823 0 0 1 30.138823 30.138823v245.145837a30.138823 30.138823 0 0 1-30.138823 30.138823z m-110.509018-285.330935a10.046274 10.046274 0 0 0-10.046274 10.046275v245.145837a10.046274 10.046274 0 0 0 10.046274 10.046275h110.509018a10.046274 10.046274 0 0 0 10.046275-10.046275V414.408817a10.046274 10.046274 0 0 0-10.046275-10.046275z" fill="#33241A" /><path d="M594.82316 499.316579a34.877316 34.877316 0 1 0-42.964567 33.889432V592.730186a10.046274 10.046274 0 0 0 20.092549 0v-60.696241a34.860572 34.860572 0 0 0 22.872018-32.717366z" fill="#F7C11C" /><path d="M561.904868 607.799598a15.069412 15.069412 0 0 1-15.069412-15.069412v-55.756822a39.917197 39.917197 0 1 1 30.138823-1.674379V592.730186a15.069412 15.069412 0 0 1-15.069411 15.069412z m-1.959024-138.420917a29.854179 29.854179 0 0 0-6.931929 58.887912 5.023137 5.023137 0 0 1 3.867816 4.872443V592.730186a5.023137 5.023137 0 0 0 10.046274 0v-60.696241a5.023137 5.023137 0 0 1 3.348758-4.721749 29.837435 29.837435 0 0 0-10.263944-57.86654z" fill="#33241A" /><path d="M571.951142 523.092761v8.941184a34.860572 34.860572 0 0 0 22.872018-32.717366 35.262423 35.262423 0 0 0-0.301388-4.437105 34.877316 34.877316 0 0 1-22.57063 28.213287zM551.858593 524.28157a34.89406 34.89406 0 0 1-26.488676-29.435583 35.798224 35.798224 0 0 0-0.301388 4.470592 34.827084 34.827084 0 0 0 26.790064 33.889432zM561.904868 593.918995a10.046274 10.046274 0 0 1-10.046275-10.046274V592.730186a10.046274 10.046274 0 0 0 20.092549 0v-8.92444a10.046274 10.046274 0 0 1-10.046274 10.113249z" fill="#EBA017" /><path d="M559.945844 480.32912A34.89406 34.89406 0 0 1 593.902252 507.336854a34.877316 34.877316 0 1 0-68.833723-8.003532 34.693134 34.693134 0 0 0 0.937652 7.953301 34.89406 34.89406 0 0 1 33.939663-26.957503z" fill="#FFFFFF" /><path d="M561.904868 607.799598a15.069412 15.069412 0 0 1-15.069412-15.069412v-55.756822a39.917197 39.917197 0 1 1 30.138823-1.674379V592.730186a15.069412 15.069412 0 0 1-15.069411 15.069412z m-1.959024-138.420917a29.854179 29.854179 0 0 0-6.931929 58.887912 5.023137 5.023137 0 0 1 3.867816 4.872443V592.730186a5.023137 5.023137 0 0 0 10.046274 0v-60.696241a5.023137 5.023137 0 0 1 3.348758-4.721749 29.837435 29.837435 0 0 0-10.263944-57.86654zM1036.340174 897.467175a10.046274 10.046274 0 0 1-10.046275-10.046275v-92.928037a10.046274 10.046274 0 0 1 20.092549 0V887.4209a10.046274 10.046274 0 0 1-10.046274 10.046275zM1036.340174 768.539987a10.046274 10.046274 0 0 1-10.046275-10.046274v-23.993852a10.046274 10.046274 0 0 1 20.092549 0V758.493713a10.046274 10.046274 0 0 1-10.046274 10.046274zM120.454829 486.859198H54.182906a10.046274 10.046274 0 0 1 0-20.092548h66.271923a10.046274 10.046274 0 0 1 0 20.092548zM209.766208 486.859198H166.784898a10.046274 10.046274 0 0 1 0-20.092548h42.98131a10.046274 10.046274 0 0 1 0 20.092548z" fill="#33241A" /><path d="M96.460977 903.41122l149.572282 0 0 48.004448-149.572282 0 0-48.004448Z" fill="#F7C11C" /><path d="M224.266331 956.422061H118.227905a26.790065 26.790065 0 0 1-26.790065-26.790065v-4.453848a26.790065 26.790065 0 0 1 26.790065-26.790065h106.038426a26.790065 26.790065 0 0 1 26.790065 26.790065v4.453848a26.790065 26.790065 0 0 1-26.790065 26.790065z m-106.038426-47.987704a16.743791 16.743791 0 0 0-16.74379 16.743791v4.453848a16.743791 16.743791 0 0 0 16.74379 16.743791h106.038426a16.743791 16.743791 0 0 0 16.74379-16.743791v-4.453848a16.743791 16.743791 0 0 0-16.74379-16.743791z" fill="#33241A" /><path d="M120.454829 916.236964h101.584578a24.010596 24.010596 0 0 1 23.106431 17.58098 23.943621 23.943621 0 0 0-23.106431-30.406724H120.454829a23.943621 23.943621 0 0 0-23.106431 30.406724 23.993852 23.993852 0 0 1 23.106431-17.58098z" fill="#FFFFFF" /><path d="M120.454829 939.795477h101.584578a24.010596 24.010596 0 0 0 23.106431-17.58098 23.943621 23.943621 0 0 1-23.106431 30.406724H120.454829a23.943621 23.943621 0 0 1-23.106431-30.406724 23.993852 23.993852 0 0 0 23.106431 17.58098z" fill="#EBA017" /><path d="M222.039407 956.422061H120.454829a29.016989 29.016989 0 1 1 0-58.033978h101.584578a29.016989 29.016989 0 0 1 0 58.033978z m-101.584578-47.987704a18.970715 18.970715 0 1 0 0 37.94143h101.584578a18.970715 18.970715 0 0 0 0-37.94143z" fill="#33241A" /></svg>