<?xml version="1.0" standalone="no"?><!DOCTYPE svg PUBLIC "-//W3C//DTD SVG 1.1//EN" "http://www.w3.org/Graphics/SVG/1.1/DTD/svg11.dtd"><svg class="icon" width="200px" height="165.56px" viewBox="0 0 1237 1024" version="1.1" xmlns="http://www.w3.org/2000/svg"><path d="M808.142307 223.094643l-131.08006-137.71393v193.13201h262.176418V85.380713l-131.096358 137.71393z" fill="#F7C11C" /><path d="M949.018327 288.292384H667.282586V60.915261l140.859721 147.998873 140.87602-147.998873z m-262.176419-19.559322h242.617096V109.846166l-121.316697 127.445285-121.300399-127.445285z" fill="#33241A" /><path d="M679.00188 255.025237h258.068961v15.891949H679.00188z" fill="#EBA017" /><path d="M808.142307 214.129953l-131.08006-137.713929v45.540622l131.08006 137.71393 131.096358-137.71393V76.416024l-131.096358 137.713929z" fill="#FFFFFF" /><path d="M949.018327 288.292384H667.282586V60.915261l140.859721 147.998873 140.87602-147.998873z m-262.176419-19.559322h242.617096V109.846166l-121.316697 127.445285-121.300399-127.445285z" fill="#33241A" /><path d="M1100.47268 288.292384h-31.783899v-5.965593a14.669492 14.669492 0 1 0-29.338983 0v85.832827a14.669492 14.669492 0 1 0 29.338983 0v-63.013617h31.783899a8.426808 8.426808 0 0 0 0-16.853617z" fill="#FF7997" /><path d="M1054.01929 387.71894a19.559322 19.559322 0 0 1-19.559323-19.559322v-85.832827a19.559322 19.559322 0 1 1 39.118645 0v1.075763h26.894068a13.316639 13.316639 0 1 1 0 26.633277h-26.894068v58.123787a19.559322 19.559322 0 0 1-19.559322 19.559322z m0-115.17181a9.779661 9.779661 0 0 0-9.779662 9.779661v85.832827a9.779661 9.779661 0 1 0 19.559323 0v-63.013617a4.889831 4.889831 0 0 1 4.88983-4.889831h31.783899a3.536977 3.536977 0 1 0 0-7.073955h-31.783899a4.889831 4.889831 0 0 1-4.88983-4.889831v-5.965593a9.779661 9.779661 0 0 0-9.779661-9.779661z" fill="#33241A" /><path d="M1048.836069 368.159618v-85.832827a14.669492 14.669492 0 0 1 9.926356-13.87082 14.278305 14.278305 0 0 0-4.743135-0.798672 14.669492 14.669492 0 0 0-14.669492 14.669492v85.832827a14.669492 14.669492 0 0 0 14.669492 14.669492 14.278305 14.278305 0 0 0 4.743135-0.798673 14.669492 14.669492 0 0 1-9.926356-13.870819z" fill="#FFFFFF" /><path d="M1054.01929 387.71894a19.559322 19.559322 0 0 1-19.559323-19.559322v-85.832827a19.559322 19.559322 0 1 1 39.118645 0v1.075763h26.894068a13.316639 13.316639 0 1 1 0 26.633277h-26.894068v58.123787a19.559322 19.559322 0 0 1-19.559322 19.559322z m0-115.17181a9.779661 9.779661 0 0 0-9.779662 9.779661v85.832827a9.779661 9.779661 0 1 0 19.559323 0v-63.013617a4.889831 4.889831 0 0 1 4.88983-4.889831h31.783899a3.536977 3.536977 0 1 0 0-7.073955h-31.783899a4.889831 4.889831 0 0 1-4.88983-4.889831v-5.965593a9.779661 9.779661 0 0 0-9.779661-9.779661zM124.006105 455.263801A124.152799 124.152799 0 0 1 0 331.257696v-154.388252a19.559322 19.559322 0 0 1 39.118645 0v154.388252a84.985256 84.985256 0 0 0 84.88746 84.88746 19.559322 19.559322 0 1 1 0 39.118645z" fill="#33241A" /><path d="M956.287875 719.13536h63.5026v175.496021H956.287875z" fill="#F7C11C" /><path d="M1029.570136 904.411042h-83.12712V709.355699h83.12712z m-63.567798-19.559322h44.008476v-155.936698h-44.008476z" fill="#33241A" /><path d="M309.75936 772.749093l29.827967 29.827967-147.030687 147.030687a7.774831 7.774831 0 0 1-10.995599 0l-18.832368-18.832368a7.774831 7.774831 0 0 1 0-10.995599l147.030687-147.030687z" fill="#F7C11C" /><path d="M187.036021 961.736157a17.440396 17.440396 0 0 1-12.40387-5.134322l-18.825848-18.907345a17.570791 17.570791 0 0 1 0-24.824041L309.689273 758.905983l43.649888 43.666187-153.88297 153.948167a17.456695 17.456695 0 0 1-12.42017 5.21582z m-15.989746-36.38034l15.989746 16.006046 138.708195-138.708196-16.054943-16.071243z" fill="#33241A" /><path d="M319.468934 787.413695l18.825848 18.825848 2.444915-2.444915-29.827967-29.827967-146.972009 147.020907a7.79113 7.79113 0 0 0 0 11.002119 7.79113 7.79113 0 0 0 11.002119 0z" fill="#FFFFFF" /><path d="M337.870996 805.75056l29.664973 4.123757 2.444915-2.444915-40.748588-15.125876-147.037207 147.037207a7.79113 7.79113 0 0 0 0 11.002118 7.79113 7.79113 0 0 0 11.002119 0z" fill="#EBA017" /><path d="M187.036021 961.736157a17.440396 17.440396 0 0 1-12.40387-5.134322l-18.825848-18.907345a17.570791 17.570791 0 0 1 0-24.824041L309.689273 758.905983l43.649888 43.666187-153.88297 153.948167a17.456695 17.456695 0 0 1-12.42017 5.21582z m-15.989746-36.38034l15.989746 16.006046 138.708195-138.708196-16.054943-16.071243z" fill="#33241A" /><path d="M294.009216 924.247455l0 42.182939-215.723028 0 0-42.182939 215.723028 0Z" fill="#F7C11C" /><path d="M286.234385 976.193756H86.077318A17.570791 17.570791 0 0 1 68.457629 958.639264v-26.616978A17.587091 17.587091 0 0 1 86.077318 914.467794h200.157067a17.60339 17.60339 0 0 1 17.570791 17.570791v26.600679a17.587091 17.587091 0 0 1-17.570791 17.554492zM88.016951 956.634433h196.228903V934.027117H88.016951z" fill="#33241A" /><path d="M294.009216 924.247455l0 42.182939-215.723028 0 0-42.182939 215.723028 0Z" fill="#F7C11C" /><path d="M286.234385 976.193756H86.077318A17.570791 17.570791 0 0 1 68.457629 958.639264v-26.616978A17.587091 17.587091 0 0 1 86.077318 914.467794h200.157067a17.60339 17.60339 0 0 1 17.570791 17.570791v26.600679a17.587091 17.587091 0 0 1-17.570791 17.554492zM88.016951 956.634433h196.228903V934.027117H88.016951z" fill="#33241A" /><path d="M78.302488 922.601212l215.723027 0 0 17.521893-215.723027 0 0-17.521893Z" fill="#FFFFFF" /><path d="M78.302488 951.125224l215.723027 0 0 17.521893-215.723027 0 0-17.521893Z" fill="#EBA017" /><path d="M286.234385 976.193756H86.077318A17.570791 17.570791 0 0 1 68.457629 958.639264v-26.616978A17.587091 17.587091 0 0 1 86.077318 914.467794h200.157067a17.60339 17.60339 0 0 1 17.570791 17.570791v26.600679a17.587091 17.587091 0 0 1-17.570791 17.554492zM88.016951 956.634433h196.228903V934.027117H88.016951z" fill="#33241A" /><path d="M1001.844797 352.984843v-12.534265a61.937855 61.937855 0 0 0-61.937855-61.937855H698.903491a61.937855 61.937855 0 0 0-61.937855 61.937855V352.137273h-126.679212v-6.747966c0-31.539407-27.70904-57.048024-61.937854-57.048024h-117.355935c-34.228814 0-61.937855 25.573814-61.937855 57.048024v7.448842c-127.135596 9.209181-228.192096 108.048957-228.192095 227.572717 0 125.505653 111.42294 228.289892 247.588423 228.289892h691.682841c136.181783 0 247.588424-102.686443 247.588424-228.289892 0-118.855483-99.801443-217.206276-225.877576-227.426023z" fill="#F7C11C" /><path d="M980.133949 818.431521H288.500007c-68.327233 0-132.775201-24.742543-181.477914-69.647488S31.115622 643.897166 31.115622 580.329368c0-120.615822 99.524353-222.927378 228.192096-236.521107 0.86387-36.201046 32.696667-65.393335 71.717516-65.393334h117.355934c38.466668 0 69.940877 28.377317 71.717516 63.861187h107.185087v-1.858135a71.799013 71.799013 0 0 1 71.717516-71.717516h240.905655a71.799013 71.799013 0 0 1 71.717516 71.717516v3.651073c60.128617 6.862062 115.725991 33.267148 157.371049 74.977403 44.17147 44.204069 68.457629 101.496584 68.457629 161.364411 0 63.567798-26.942967 123.305229-75.873872 168.422066s-113.118082 69.598589-181.445315 69.598589zM330.992635 298.006848c-28.752204 0-52.158193 21.189266-52.158194 47.268363V361.916934l-9.062486 0.668277C146.923111 371.435804 50.674945 467.11349 50.674945 580.329368c0 120.485426 106.679805 218.510231 237.808762 218.510231h691.650242c131.128958 0 237.808762-98.024804 237.808762-218.510231 0-112.172714-95.2702-207.768903-216.880287-217.630061l-8.997288-0.733475v-21.515254a52.158193 52.158193 0 0 0-52.158194-52.158194H698.903491a52.158193 52.158193 0 0 0-52.158194 52.158194V361.916934h-146.238534v-16.576526c0-26.079097-23.38969-47.268363-52.158193-47.268362z" fill="#33241A" /><path d="M980.133949 763.274231H288.500007c-127.869071 0-233.896898-90.592262-246.349667-205.601078a209.138056 209.138056 0 0 0-1.255057 22.656215c0 125.505653 111.42294 228.289892 247.588424 228.289893h691.650242c136.181783 0 247.588424-102.686443 247.588424-228.289893a213.04992 213.04992 0 0 0-1.222458-22.672514c-12.452769 115.041415-118.496895 205.617378-246.365966 205.617377z" fill="#EBA017" /><path d="M1001.844797 357.874674v-12.534266a61.937855 61.937855 0 0 0-61.937855-61.937854H698.903491a61.937855 61.937855 0 0 0-61.937855 61.937854V357.027103h-126.679212v-6.747966c0-31.539407-27.70904-57.048024-61.937854-57.048024h-117.355935c-34.228814 0-61.937855 25.573814-61.937855 57.048024v7.448842c-127.135596 9.209181-228.192096 108.048957-228.192095 227.572717 0 5.313616 0.228192 10.562034 0.619378 15.777854 8.475706-112.28681 119.621556-202.879072 241.133847-211.680768v-7.448842c0-31.539407 14.14791-57.048024 48.344126-57.048024h117.355935c34.228814 0 46.1926 21.93904 46.1926 53.478448v6.747966l157.697037-0.603079v-11.621497c0-34.228814 12.452769-57.716301 46.665284-57.716301h241.03605c34.228814 0 48.376724 22.81921 48.376725 57.048024V384.736144c120.436528 9.779661 230.408819 104.78907 238.835626 216.375005 0.391186-5.215819 0.603079-10.464238 0.60308-15.777854 0-118.888082-99.801443-217.238875-225.877576-227.458621z" fill="#FFFFFF" /><path d="M980.133949 818.431521H288.500007c-68.327233 0-132.775201-24.742543-181.477914-69.647488S31.115622 643.897166 31.115622 580.329368c0-120.615822 99.524353-222.927378 228.192096-236.521107 0.86387-36.201046 32.696667-65.393335 71.717516-65.393334h117.355934c38.466668 0 69.940877 28.377317 71.717516 63.861187h107.185087v-1.858135a71.799013 71.799013 0 0 1 71.717516-71.717516h240.905655a71.799013 71.799013 0 0 1 71.717516 71.717516v3.651073c60.128617 6.862062 115.725991 33.267148 157.371049 74.977403 44.17147 44.204069 68.457629 101.496584 68.457629 161.364411 0 63.567798-26.942967 123.305229-75.873872 168.422066s-113.118082 69.598589-181.445315 69.598589zM330.992635 298.006848c-28.752204 0-52.158193 21.189266-52.158194 47.268363V361.916934l-9.062486 0.668277C146.923111 371.435804 50.674945 467.11349 50.674945 580.329368c0 120.485426 106.679805 218.510231 237.808762 218.510231h691.650242c131.128958 0 237.808762-98.024804 237.808762-218.510231 0-112.172714-95.2702-207.768903-216.880287-217.630061l-8.997288-0.733475v-21.515254a52.158193 52.158193 0 0 0-52.158194-52.158194H698.903491a52.158193 52.158193 0 0 0-52.158194 52.158194V361.916934h-146.238534v-16.576526c0-26.079097-23.38969-47.268363-52.158193-47.268362z" fill="#33241A" /><path d="M377.772014 236.949163m-104.348985 0a104.348985 104.348985 0 1 0 208.697971 0 104.348985 104.348985 0 1 0-208.697971 0Z" fill="#EBA017" /><path d="M377.772014 351.07781a114.096048 114.096048 0 1 1 114.096048-114.096048 114.259042 114.259042 0 0 1-114.096048 114.096048z m0-208.632774a94.536725 94.536725 0 1 0 94.536726 94.536726 94.667121 94.667121 0 0 0-94.536726-94.601923z" fill="#33241A" /><path d="M367.487071 250.738485a19.559322 19.559322 0 0 1-5.721102-14.050113l-65.980115-9.176582a2.29822 2.29822 0 0 0-2.00483 3.830367l42.378532 46.029606a5.362514 5.362514 0 0 0 4.384548 1.71144L371.627127 276.507893a4.596441 4.596441 0 0 0 4.156356-3.830368l2.738305-16.429831a19.34743 19.34743 0 0 1-11.018418-5.509209z m50.365255-6.813164l-17.587091-2.412316a19.559322 19.559322 0 0 1-17.701187 14.897684l-7.595537 68.751018a2.29822 2.29822 0 0 0 3.895565 1.890735l44.807148-43.633589a5.346215 5.346215 0 0 0 1.629944-4.433446l-3.45548-30.968928a4.563842 4.563842 0 0 0-3.944464-4.042259z m7.807429-49.533984a5.215819 5.215819 0 0 0-4.514943-1.336554l-30.773334 5.19952a4.62904 4.62904 0 0 0-3.814068 4.172656l-1.222458 15.435565a19.461526 19.461526 0 0 1 15.451865 19.086639l69.2889 3.683672a2.29822 2.29822 0 0 0 1.629943-3.993361z m-40.748588-46.567487L340.6582 192.060518a5.395113 5.395113 0 0 0-1.532147 4.466045l3.895565 30.968927a4.580141 4.580141 0 0 0 3.993362 3.993362l15.109576 1.858136a19.559322 19.559322 0 0 1 20.129803-15.87565l6.519774-67.773053a2.31452 2.31452 0 0 0-3.911864-1.858135z" fill="#AEE4F5" /><path d="M377.266732 332.57795a7.236949 7.236949 0 0 1-7.155452-7.970424l4.88983-44.008475a9.339576 9.339576 0 0 1-2.950198 0.733474l-31.115622 2.575311a10.203447 10.203447 0 0 1-8.37791-3.259887l-42.378532-46.029605a7.188051 7.188051 0 0 1 6.291582-11.980085l41.726555 5.802599v-0.391187l-3.895565-30.968927a10.236045 10.236045 0 0 1 2.933898-8.524605L381.406788 144.36837a7.188051 7.188051 0 0 1 12.240876 5.77L389.556506 193.462269l30.789634-5.215819a10.333842 10.333842 0 0 1 8.6387 2.542712l46.094804 42.264436a7.188051 7.188051 0 0 1-5.248419 12.485367l-44.74195-2.379717a9.24178 9.24178 0 0 1 1.629944 4.31935l3.45548 30.968927A10.219746 10.219746 0 0 1 427.045207 286.939531l-44.823447 43.633589a7.139153 7.139153 0 0 1-4.955028 2.00483z m9.779661-71.945708l-6.389379 57.846697 39.640227-38.597063a0.440085 0.440085 0 0 0 0.130396-0.374887l-3.439181-30.805933-13.381837-1.825537a24.449153 24.449153 0 0 1-16.560226 13.756723z m-84.757064-27.317853l37.488701 40.748588a0.423785 0.423785 0 0 0 0.374887 0.162995l30.968928-2.559012 1.955932-11.768192a24.302458 24.302458 0 0 1-8.915791-5.688503 24.123164 24.123164 0 0 1-6.813164-13.202543z m64.447967 2.200424v1.222457a14.669492 14.669492 0 0 0 4.286752 10.545735 14.408701 14.408701 0 0 0 8.247514 4.123757l1.629944 0.228192 1.483248-0.097796a14.669492 14.669492 0 0 0 9.388475-4.254153 14.490198 14.490198 0 0 0 3.879266-6.910961l0.391186-1.629943v-1.825537a14.669492 14.669492 0 0 0-11.572599-14.310904l-1.15726-0.244492h-1.173559a14.669492 14.669492 0 0 0-15.076978 11.898588z m50.25116 13.039548z m-11.686695-16.217938l57.895594 3.080593-40.748588-37.390905a0.440085 0.440085 0 0 0-0.374887-0.114096l-30.561442 5.183221-0.896469 11.311808a24.449153 24.449153 0 0 1 14.669492 17.929379z m-110.118986 0z m2.249322-4.33565z m50.52825-1.369153l10.757627 1.320255a24.449153 24.449153 0 0 1 19.184436-15.174775l5.460311-56.412346-39.118645 39.118645a0.537881 0.537881 0 0 0-0.130396 0.407486z m0 0.228192z m40.487797-75.580482z" fill="#33241A" /><path d="M386.55741 199.704953l-1.222458 15.419266 1.238757 0.309689a4.61274 4.61274 0 0 1 3.797769-4.04226l30.773334-5.215819a5.313616 5.313616 0 0 1 4.514943 1.336554l32.452176 29.762769 11.963786 0.635678a2.29822 2.29822 0 0 0 1.629943-3.993362l-46.094803-42.264436a5.313616 5.313616 0 0 0-4.514943-1.336554l-30.773334 5.21582a4.62904 4.62904 0 0 0-3.76517 4.172655zM411.006563 246.468033l3.928164 31.539408-41.612459 40.781187 7.546639 4.710537 38.69486-35.271978 5.492909-14.050114-5.329915-27.70904H411.006563zM340.560403 208.033964l0.081497-0.114096 44.236668-44.220368a2.265622 2.265622 0 0 1 2.60791-0.456384l1.303955-13.56113a2.31452 2.31452 0 0 0-3.911865-1.858136L340.6582 192.060518a5.395113 5.395113 0 0 0-1.532147 4.466045z" fill="#FFFFFF" /><path d="M377.266732 332.57795a7.236949 7.236949 0 0 1-7.155452-7.970424l4.88983-44.008475a9.339576 9.339576 0 0 1-2.950198 0.733474l-31.115622 2.575311a10.203447 10.203447 0 0 1-8.37791-3.259887l-42.378532-46.029605a7.188051 7.188051 0 0 1 6.291582-11.980085l41.726555 5.802599v-0.391187l-3.895565-30.968927a10.236045 10.236045 0 0 1 2.933898-8.524605L381.406788 144.36837a7.188051 7.188051 0 0 1 12.240876 5.77L389.556506 193.462269l30.789634-5.215819a10.333842 10.333842 0 0 1 8.6387 2.542712l46.094804 42.264436a7.188051 7.188051 0 0 1-5.248419 12.485367l-44.74195-2.379717a9.24178 9.24178 0 0 1 1.629944 4.31935l3.45548 30.968927A10.219746 10.219746 0 0 1 427.045207 286.939531l-44.823447 43.633589a7.139153 7.139153 0 0 1-4.955028 2.00483z m9.779661-71.945708l-6.389379 57.846697 39.640227-38.597063a0.440085 0.440085 0 0 0 0.130396-0.374887l-3.439181-30.805933-13.381837-1.825537a24.449153 24.449153 0 0 1-16.560226 13.756723z m-84.757064-27.317853l37.488701 40.748588a0.423785 0.423785 0 0 0 0.374887 0.162995l30.968928-2.559012 1.955932-11.768192a24.302458 24.302458 0 0 1-8.915791-5.688503 24.123164 24.123164 0 0 1-6.813164-13.202543z m64.447967 2.200424v1.222457a14.669492 14.669492 0 0 0 4.286752 10.545735 14.408701 14.408701 0 0 0 8.247514 4.123757l1.629944 0.228192 1.483248-0.097796a14.669492 14.669492 0 0 0 9.388475-4.254153 14.490198 14.490198 0 0 0 3.879266-6.910961l0.391186-1.629943v-1.825537a14.669492 14.669492 0 0 0-11.572599-14.310904l-1.15726-0.244492h-1.173559a14.669492 14.669492 0 0 0-15.076978 11.898588z m50.25116 13.039548z m-11.686695-16.217938l57.895594 3.080593-40.748588-37.390905a0.440085 0.440085 0 0 0-0.374887-0.114096l-30.561442 5.183221-0.896469 11.311808a24.449153 24.449153 0 0 1 14.669492 17.929379z m-110.118986 0z m2.249322-4.33565z m50.52825-1.369153l10.757627 1.320255a24.449153 24.449153 0 0 1 19.184436-15.174775l5.460311-56.412346-39.118645 39.118645a0.537881 0.537881 0 0 0-0.130396 0.407486z m0 0.228192z m40.487797-75.580482z" fill="#33241A" /><path d="M679.246371 74.264498m-60.715396 0a60.715397 60.715397 0 1 0 121.430793 0 60.715397 60.715397 0 1 0-121.430793 0Z" fill="#FF7997" /><path d="M679.246371 144.759556A70.495058 70.495058 0 1 1 749.774028 74.264498a70.576555 70.576555 0 0 1-70.527657 70.495058z m0-121.430793A50.935736 50.935736 0 1 0 730.214706 74.264498a51.000933 51.000933 0 0 0-50.968335-50.935735z" fill="#33241A" /><path d="M679.246371 32.04896a60.715397 60.715397 0 0 1 60.014522 51.473617 59.802628 59.802628 0 0 0 0.700875-9.258079 60.715397 60.715397 0 1 0-121.430793 0 61.937855 61.937855 0 0 0 0.700875 9.258079 60.747996 60.747996 0 0 1 60.014521-51.473617z" fill="#FFFFFF" /><path d="M679.246371 115.127183A60.715397 60.715397 0 0 0 739.260893 63.637266a59.802628 59.802628 0 0 1 0.733474 9.290678 60.715397 60.715397 0 0 1-121.430794 0 61.937855 61.937855 0 0 1 0.700876-9.258079 60.731696 60.731696 0 0 0 59.981922 51.457318z" fill="#E85D88" /><path d="M679.246371 144.759556A70.495058 70.495058 0 1 1 749.774028 74.264498a70.576555 70.576555 0 0 1-70.527657 70.495058z m0-121.430793A50.935736 50.935736 0 1 0 730.214706 74.264498a51.000933 51.000933 0 0 0-50.968335-50.935735z" fill="#33241A" /><path d="M679.246371 66.082182a18.499859 18.499859 0 0 1 17.505594 12.534265 18.499859 18.499859 0 1 0-36.005453-5.981892 18.206469 18.206469 0 0 0 1.010565 5.981892 18.48356 18.48356 0 0 1 17.489294-12.534265z" fill="#FFFFFF" /><path d="M679.246371 81.941532a18.499859 18.499859 0 0 0 17.505594-12.534266 18.499859 18.499859 0 1 1-36.005453 5.981893 18.141272 18.141272 0 0 1 1.010565-5.981893 18.48356 18.48356 0 0 0 17.489294 12.534266z" fill="#E85D88" /><path d="M679.246371 97.654188a23.38969 23.38969 0 1 1 23.40599-23.38969 23.422289 23.422289 0 0 1-23.40599 23.38969z m0-36.999718a13.610029 13.610029 0 1 0 13.626328 13.610028 13.626328 13.626328 0 0 0-13.626328-13.610028z" fill="#33241A" /><path d="M939.238665 74.264498m-60.715396 0a60.715397 60.715397 0 1 0 121.430793 0 60.715397 60.715397 0 1 0-121.430793 0Z" fill="#FF7997" /><path d="M939.238665 144.759556a70.495058 70.495058 0 1 1 70.495059-70.495058 70.576555 70.576555 0 0 1-70.495059 70.495058z m0-121.430793a50.935736 50.935736 0 1 0 50.935736 50.935735 51.000933 51.000933 0 0 0-50.935736-50.935735z" fill="#33241A" /><path d="M939.238665 32.04896a60.731696 60.731696 0 0 1 60.014522 51.473617 61.937855 61.937855 0 0 0 0.700875-9.258079 60.715397 60.715397 0 1 0-121.430793 0 61.937855 61.937855 0 0 0 0.700875 9.258079 60.731696 60.731696 0 0 1 60.014521-51.473617z" fill="#FFFFFF" /><path d="M939.238665 115.127183A60.715397 60.715397 0 0 0 999.253187 63.637266a61.937855 61.937855 0 0 1 0.700875 9.25808 60.715397 60.715397 0 1 1-121.430793 0 61.937855 61.937855 0 0 1 0.700875-9.25808 60.715397 60.715397 0 0 0 60.014521 51.489917z" fill="#E85D88" /><path d="M939.238665 144.759556a70.495058 70.495058 0 1 1 70.495059-70.495058 70.576555 70.576555 0 0 1-70.495059 70.495058z m0-121.430793a50.935736 50.935736 0 1 0 50.935736 50.935735 51.000933 51.000933 0 0 0-50.935736-50.935735z" fill="#33241A" /><path d="M939.238665 66.082182A18.48356 18.48356 0 0 1 956.776858 78.616447a18.206469 18.206469 0 0 0 1.010565-5.981892 18.499859 18.499859 0 1 0-36.005453 5.981892 18.499859 18.499859 0 0 1 17.456695-12.534265z" fill="#FFFFFF" /><path d="M939.238665 81.941532A18.48356 18.48356 0 0 0 956.776858 69.407266a18.141272 18.141272 0 0 1 1.010565 5.981893 18.499859 18.499859 0 1 1-36.005453-5.981893 18.499859 18.499859 0 0 0 17.456695 12.534266z" fill="#E85D88" /><path d="M939.238665 97.654188a23.38969 23.38969 0 1 1 23.38969-23.38969 23.405989 23.405989 0 0 1-23.38969 23.38969z m0-36.999718a13.610029 13.610029 0 1 0 13.610029 13.610028 13.610029 13.610029 0 0 0-13.610029-13.610028z" fill="#33241A" /><path d="M988.039175 940.302399m-73.917939 0a73.91794 73.91794 0 1 0 147.835879 0 73.91794 73.91794 0 1 0-147.835879 0Z" fill="#AEE4F5" /><path d="M988.039175 1024a83.697601 83.697601 0 1 1 83.697601-83.697601 83.779098 83.779098 0 0 1-83.697601 83.697601z m0-147.835879a64.138278 64.138278 0 1 0 64.138278 64.138278 64.219775 64.219775 0 0 0-64.138278-64.138278z" fill="#33241A" /><path d="M988.039175 888.926579A73.950538 73.950538 0 0 1 1061.093245 951.581609a75.759776 75.759776 0 0 0 0.84757-11.27921 73.91794 73.91794 0 1 0-147.835879 0 75.759776 75.759776 0 0 0 0.847571 11.27921 73.934239 73.934239 0 0 1 73.086668-62.65503z" fill="#FFFFFF" /><path d="M988.039175 990.064575A73.950538 73.950538 0 0 0 1061.093245 927.409546a75.384889 75.384889 0 0 1 0.84757 11.26291 73.91794 73.91794 0 0 1-147.835879 0 75.384889 75.384889 0 0 1 0.847571-11.26291 73.934239 73.934239 0 0 0 73.086668 62.655029z" fill="#64CAE2" /><path d="M988.039175 1024a83.697601 83.697601 0 1 1 83.697601-83.697601 83.779098 83.779098 0 0 1-83.697601 83.697601z m0-147.835879a64.138278 64.138278 0 1 0 64.138278 64.138278 64.219775 64.219775 0 0 0-64.138278-64.138278z" fill="#33241A" /><path d="M988.039175 930.343444a22.52582 22.52582 0 0 1 21.303362 15.256272 22.52582 22.52582 0 1 0-42.606724 0 22.52582 22.52582 0 0 1 21.303362-15.256272z" fill="#FFFFFF" /><path d="M988.039175 949.658275a22.52582 22.52582 0 0 0 21.303362-15.256271 22.52582 22.52582 0 1 1-42.606724 0 22.52582 22.52582 0 0 0 21.303362 15.256271z" fill="#64CAE2" /><path d="M988.039175 967.734349A27.43195 27.43195 0 1 1 1015.454825 940.302399a27.448249 27.448249 0 0 1-27.41565 27.43195z m0-45.067939A17.652289 17.652289 0 1 0 1005.675164 940.302399 17.652289 17.652289 0 0 0 988.039175 922.617512zM348.807918 146.878483l-7.628136-17.929379L572.110183 31.038395a389.556506 389.556506 0 0 1 159.734466-30.968927l207.557011 3.699972-0.342288 19.559323L731.55126 19.628791a371.024048 371.024048 0 0 0-151.845541 29.420481zM442.920858 330.638318l-11.5726-15.761554L690.329987 124.711251a9.274379 9.274379 0 0 1 5.884097-1.890735l243.122378 2.379718-0.195593 19.559322L699.245779 142.412438z" fill="#33241A" /><path d="M124.006105 435.704478" fill="#FF7997" /><path d="M273.423029 461.490185l90.527064 0 0 122.245765-90.527064 0 0-122.245765Z" fill="#FF7997" /><path d="M347.650658 588.609482h-57.944493a21.189266 21.189266 0 0 1-21.189266-21.189266v-89.646895a21.189266 21.189266 0 0 1 21.189266-21.189266h57.944493a21.189266 21.189266 0 0 1 21.189266 21.189266v89.646895a21.189266 21.189266 0 0 1-21.189266 21.189266z m-57.944493-122.245766a11.409605 11.409605 0 0 0-11.409605 11.409605v89.646895a11.409605 11.409605 0 0 0 11.409605 11.409604h57.944493a11.409605 11.409605 0 0 0 11.409604-11.409604v-89.646895a11.409605 11.409605 0 0 0-11.409604-11.409605z" fill="#33241A" /><path d="M347.650658 461.490185h-57.944493a16.299435 16.299435 0 0 0-16.299436 16.299435v12.501667a16.299435 16.299435 0 0 1 16.299436-16.299435h57.944493a16.299435 16.299435 0 0 1 16.299435 16.299435v-12.501667a16.299435 16.299435 0 0 0-16.299435-16.299435z" fill="#FFFFFF" /><path d="M347.650658 583.719651h-57.944493a16.299435 16.299435 0 0 1-16.299436-16.299435v-12.501667a16.299435 16.299435 0 0 0 16.299436 16.299435h57.944493a16.299435 16.299435 0 0 0 16.299435-16.299435v12.501667a16.299435 16.299435 0 0 1-16.299435 16.299435z" fill="#E85D88" /><path d="M347.650658 588.609482h-57.944493a21.189266 21.189266 0 0 1-21.189266-21.189266v-89.646895a21.189266 21.189266 0 0 1 21.189266-21.189266h57.944493a21.189266 21.189266 0 0 1 21.189266 21.189266v89.646895a21.189266 21.189266 0 0 1-21.189266 21.189266z m-57.944493-122.245766a11.409605 11.409605 0 0 0-11.409605 11.409605v89.646895a11.409605 11.409605 0 0 0 11.409605 11.409604h57.944493a11.409605 11.409605 0 0 0 11.409604-11.409604v-89.646895a11.409605 11.409605 0 0 0-11.409604-11.409605z" fill="#33241A" /><path d="M372.295404 267.445406l-30.968927 2.249323-35.255679-38.10808h-10.38274l40.422599 45.785114 36.184747-3.406582v-6.519775z" fill="#FFFFFF" /><path d="M734.208068 509.720214h-66.827686a9.779661 9.779661 0 0 1 0-19.559322h66.827686a9.779661 9.779661 0 0 1 0 19.559322zM992.635616 509.720214H794.499679a9.779661 9.779661 0 0 1 0-19.559322H992.635616a9.779661 9.779661 0 0 1 0 19.559322zM734.208068 579.106911h-66.827686a9.779661 9.779661 0 0 1 0-19.559323h66.827686a9.779661 9.779661 0 1 1 0 19.559323zM992.635616 579.106911H794.499679a9.779661 9.779661 0 0 1 0-19.559323H992.635616a9.779661 9.779661 0 0 1 0 19.559323zM734.208068 648.493607h-66.827686a9.779661 9.779661 0 0 1 0-19.559322h66.827686a9.779661 9.779661 0 0 1 0 19.559322zM992.635616 648.493607H794.499679a9.779661 9.779661 0 0 1 0-19.559322H992.635616a9.779661 9.779661 0 0 1 0 19.559322z" fill="#33241A" /></svg>