<?xml version="1.0" standalone="no"?><!DOCTYPE svg PUBLIC "-//W3C//DTD SVG 1.1//EN" "http://www.w3.org/Graphics/SVG/1.1/DTD/svg11.dtd"><svg class="icon" width="200px" height="200.00px" viewBox="0 0 1024 1024" version="1.1" xmlns="http://www.w3.org/2000/svg"><path d="M538.609557 565.749074l-77.237648-29.862734a5.13495 5.13495 0 0 1-2.880907-6.815479C481.231494 475.694057 684.40212 4.038911 758.27871 8.040171l-214.734266 555.50821a3.827872 3.827872 0 0 1-4.934887 2.200693z" fill="#AEE4F5" /><path d="M539.983323 574.005006a11.870404 11.870404 0 0 1-4.268011-0.800252l-77.22431-29.849397a13.150807 13.150807 0 0 1-7.362318-17.418816c10.790063-25.341311 67.808013-157.903042 130.94789-282.528942C693.871767 22.711456 736.418495-1.109376 758.718848 0.037652l10.990127 0.613526-218.735526 565.764772a11.817053 11.817053 0 0 1-11.003464 7.549044zM467.013685 529.537674l70.568882 27.288591L744.754452 20.844202C723.734502 34.715235 680.40086 84.757655 596.347733 250.636542 535.435224 370.821043 480.217841 498.5946 467.013685 529.537674z" fill="#33241A" /><path d="M756.984969 7.573357c-9.029509-0.506826-20.006298 6.121927-32.343515 18.219069L520.230438 554.558884a3.801197 3.801197 0 0 1-4.92155 2.174018l22.006928 8.509346a3.801197 3.801197 0 0 0 4.92155-2.174018l214.734266-555.494873z" fill="#FFFFFF" /><path d="M551.960426 935.878926c19.272734-57.751514-9.763073-121.371542-65.980771-144.725561l-1.173702-0.480151A43.093566 43.093566 0 0 1 460.144856 736.629534c20.953263-60.565733 26.608376-116.329955 80.185242-169.186594a3.521108 3.521108 0 0 0-1.427115-5.561751l-77.357686-29.929421a3.534446 3.534446 0 0 0-4.561436 2.027304L374.784651 746.299245a174.72167 174.72167 0 0 1-34.504196 55.417446L329.437042 813.493732a37.198377 37.198377 0 0 0-9.563011 20.593149l-8.882796 83.386251a71.289109 71.289109 0 0 0 45.187558 74.049977l15.498213 5.988552 27.221903 10.523313a116.850118 116.850118 0 0 0 153.061517-72.156048z m-148.219993 48.948742a91.935608 91.935608 0 1 1 118.904098-52.603226 91.948946 91.948946 0 0 1-118.904098 52.603226z" fill="#F7C11C" /><path d="M441.138873 1024a124.986013 124.986013 0 0 1-45.107534-8.496008L353.311224 999.018802a79.438341 79.438341 0 0 1-50.255821-82.372597l8.909472-83.519626a44.867458 44.867458 0 0 1 11.61699-25.02121l10.856751-11.790379a165.958911 165.958911 0 0 0 32.917029-52.869977L449.47483 531.084828a11.56364 11.56364 0 0 1 14.911361-6.668766l77.357686 29.929422a11.536965 11.536965 0 0 1 4.641461 18.205731l-0.493489 0.533501C505.665853 612.843899 493.261948 654.910476 480.151154 699.337795c-3.814534 12.937406-7.775781 26.314951-12.470593 39.905896a35.104384 35.104384 0 0 0 20.126336 44.013855l1.240391 0.506827c60.138932 25.02121 91.108681 92.935923 70.528869 154.648684a125.226088 125.226088 0 0 1-118.423947 85.586943zM327.849875 834.967158l-8.882796 83.306225a63.406627 63.406627 0 0 0 40.119296 65.740696l42.680103 16.525202a108.874274 108.874274 0 0 0 142.56488-67.234499 109.1677 109.1677 0 0 0-61.459348-134.802436l-1.093677-0.440139a51.096085 51.096085 0 0 1-29.275883-64.086841c4.574773-13.244169 8.469333-26.448326 12.243854-39.212345 13.177482-44.654057 25.661412-86.934034 64.833744-127.92027L462.812362 541.034627l-80.532018 208.158863a181.817237 181.817237 0 0 1-36.078025 57.951576l-10.856751 11.817054a29.02247 29.02247 0 0 0-7.495693 16.005038z m109.074337 164.051644a99.898115 99.898115 0 0 1-36.011336-6.788803 99.177888 99.177888 0 1 1 36.011336 6.788803z m0.066688-183.937904a83.933089 83.933089 0 0 0-30.356223 162.224402 83.933089 83.933089 0 1 0 30.356223-162.224402z" fill="#33241A" /><path d="M330.023893 924.822112l8.882796-83.386251a37.34509 37.34509 0 0 1 9.563011-20.593149l10.870089-11.777041A174.948408 174.948408 0 0 0 393.830646 753.608213l82.079173-212.320173a3.534446 3.534446 0 0 1 4.561436-2.027305L461.478609 531.951768a3.534446 3.534446 0 0 0-4.561436 2.027304L374.784651 746.299245a174.72167 174.72167 0 0 1-34.504196 55.417446L329.437042 813.493732a37.198377 37.198377 0 0 0-9.563011 20.593149l-8.882796 83.386251a71.289109 71.289109 0 0 0 45.187558 74.049977l15.498213 5.988552 3.507771 1.333754a71.289109 71.289109 0 0 1-45.160884-74.023303z" fill="#FFFFFF" /><path d="M557.628878 938.066281c19.259396-57.751514-9.776411-121.371542-65.980772-144.712223l-1.18704-0.493488a43.106904 43.106904 0 0 1-24.701109-54.04368c20.953263-60.552396 26.675064-116.329955 80.185242-169.186594a3.521108 3.521108 0 0 0-1.413778-5.561751l-26.86179-10.389938a3.534446 3.534446 0 0 1 1.413779 5.575089c-53.603541 52.843302-59.23198 108.620861-80.185243 169.173256-7.509031 21.72684 6.455366 59.512068 22.673805 66.180834 57.097975 23.554082 88.507863 75.317043 69.248466 133.068558-0.720227 2.147343-1.493804 4.26801-2.32073 6.335327l-0.146713 0.400126a93.509437 93.509437 0 0 1-4.441399 9.736399 116.876793 116.876793 0 0 1-146.192688 55.697533l26.861789 10.3766a116.863456 116.863456 0 0 0 153.048181-72.156048z" fill="#EBA017" /><path d="M441.138873 1024a124.986013 124.986013 0 0 1-45.107534-8.496008L353.311224 999.018802a79.438341 79.438341 0 0 1-50.255821-82.372597l8.909472-83.519626a44.867458 44.867458 0 0 1 11.61699-25.02121l10.856751-11.790379a165.958911 165.958911 0 0 0 32.917029-52.869977L449.47483 531.084828a11.56364 11.56364 0 0 1 14.911361-6.668766l77.357686 29.929422a11.536965 11.536965 0 0 1 4.641461 18.205731l-0.493489 0.533501C505.665853 612.843899 493.261948 654.910476 480.151154 699.337795c-3.814534 12.937406-7.775781 26.314951-12.470593 39.905896a35.104384 35.104384 0 0 0 20.126336 44.013855l1.240391 0.506827c60.138932 25.02121 91.108681 92.935923 70.528869 154.648684a125.226088 125.226088 0 0 1-118.423947 85.586943zM327.849875 834.967158l-8.882796 83.306225a63.406627 63.406627 0 0 0 40.119296 65.740696l42.680103 16.525202a108.874274 108.874274 0 0 0 142.56488-67.234499 109.1677 109.1677 0 0 0-61.459348-134.802436l-1.093677-0.440139a51.096085 51.096085 0 0 1-29.275883-64.086841c4.574773-13.244169 8.469333-26.448326 12.243854-39.212345 13.177482-44.654057 25.661412-86.934034 64.833744-127.92027L462.812362 541.034627l-80.532018 208.158863a181.817237 181.817237 0 0 1-36.078025 57.951576l-10.856751 11.817054a29.02247 29.02247 0 0 0-7.495693 16.005038z m109.074337 164.051644a99.898115 99.898115 0 0 1-36.011336-6.788803 99.177888 99.177888 0 1 1 36.011336 6.788803z m0.066688-183.937904a83.933089 83.933089 0 0 0-30.356223 162.224402 83.933089 83.933089 0 1 0 30.356223-162.224402z" fill="#33241A" /><path d="M539.983323 574.005006a11.870404 11.870404 0 0 1-4.268011-0.800252l-77.22431-29.849397a13.150807 13.150807 0 0 1-7.362318-17.418816c10.790063-25.341311 67.808013-157.903042 130.94789-282.528942C693.871767 22.711456 736.418495-1.109376 758.718848 0.037652l10.990127 0.613526-218.735526 565.764772a11.817053 11.817053 0 0 1-11.003464 7.549044zM467.013685 529.537674l70.568882 27.288591L744.754452 20.844202C723.734502 34.715235 680.40086 84.757655 596.347733 250.636542 535.435224 370.821043 480.217841 498.5946 467.013685 529.537674z" fill="#33241A" /><path d="M458.250926 485.390443L488.153673 562.628091a5.161625 5.161625 0 0 0 6.815479 2.880907c53.350128-22.75383 525.071962-225.911118 521.004014-299.787708l-555.508209 214.734266a3.801197 3.801197 0 0 0-2.214031 4.934887z" fill="#AEE4F5" /><path d="M492.915172 573.911643a13.057444 13.057444 0 0 1-5.121612-1.02699 13.204157 13.204157 0 0 1-7.148917-7.375655L450.808583 488.27135a11.817053 11.817053 0 0 1 6.748792-15.271474l565.764772-218.735526 0.613526 11.003464c1.227053 22.287016-22.673804 64.847081-243.329935 176.642275-124.639237 63.153214-257.214306 120.157826-282.528941 130.947889a13.244169 13.244169 0 0 1-5.161625 1.053665z m-25.688087-87.49421l27.288591 70.568882c30.876387-13.204157 158.596594-68.408202 278.834445-129.374061 165.892224-84.026452 215.987994-127.386769 229.79234-148.406719z" fill="#33241A" /><path d="M1016.426643 267.015031c0.493489 9.029509-6.135265 20.006298-18.219069 32.330178L469.481128 503.769562a3.814534 3.814534 0 0 0-2.187355 4.92155l-8.48267-22.006928a3.801197 3.801197 0 0 1 2.174017-4.92155l555.494873-214.734266z" fill="#FFFFFF" /><path d="M16.005038 625.074416L26.488339 652.242969l5.988552 15.498212a71.289109 71.289109 0 0 0 74.049977 45.187559l83.386251-8.882796a37.34509 37.34509 0 0 0 20.593149-9.563011l11.777041-10.856751a174.72167 174.72167 0 0 1 55.404108-34.450845l212.333511-82.079172a3.547784 3.547784 0 0 0 2.027304-4.561436l-29.929421-77.357686a3.534446 3.534446 0 0 0-5.575089-1.413779c-52.843302 53.576866-108.620861 59.23198-169.173256 80.185243a43.093566 43.093566 0 0 1-54.04368-24.701109c-0.16005-0.386788-0.320101-0.786914-0.493489-1.187041-23.380694-56.20436-86.960709-85.240167-144.712223-65.980771A116.863456 116.863456 0 0 0 16.005038 625.074416z m75.810533-123.718947A91.935608 91.935608 0 1 1 39.172332 620.232892a91.908933 91.908933 0 0 1 52.603226-118.877423z" fill="#F7C11C" /><path d="M98.977825 721.384735a79.438341 79.438341 0 0 1-73.969952-50.682621l-16.511865-42.680103a124.852638 124.852638 0 0 1 77.090935-163.518143c61.699423-20.579812 129.627474 10.389937 154.635347 70.502194l0.520164 1.267066a35.104384 35.104384 0 0 0 44.013855 20.126336c13.577608-4.708149 26.96849-8.656058 39.905896-12.470593 44.480669-13.137469 86.493895-25.541374 126.186391-65.780708l0.533501-0.480151a11.536965 11.536965 0 0 1 18.205731 4.641461l29.916085 77.357686a11.536965 11.536965 0 0 1-6.602079 14.911361L280.581662 656.644355a165.958911 165.958911 0 0 0-52.869977 32.943704l-11.790379 10.856751a44.960821 44.960821 0 0 1-25.02121 11.61699H190.726708l-83.359575 8.869459a77.224311 77.224311 0 0 1-8.389308 0.453476z m25.741437-247.304519a108.860937 108.860937 0 0 0-101.298556 148.113293l16.511865 42.680103a63.39329 63.39329 0 0 0 65.740695 40.105959l83.306226-8.869459a29.115832 29.115832 0 0 0 16.098401-7.495693l11.777041-10.870089a182.0173 182.0173 0 0 1 57.951576-36.011336l208.158863-80.478669-25.848137-66.861048C416.131 533.538934 373.851023 546.036201 329.196966 559.213683c-12.777356 3.761184-25.968175 7.655743-39.212344 12.243855a51.096085 51.096085 0 0 1-64.020154-29.262546l-0.453476-1.13369a109.367763 109.367763 0 0 0-100.79173-66.981086z m0.173388 213.013724a100.03149 100.03149 0 0 1-36.011336-193.207489 99.938128 99.938128 0 1 1 36.011336 193.207489zM94.696478 508.811149a83.933089 83.933089 0 1 0 108.554173 48.015116 84.026452 84.026452 0 0 0-108.554173-48.015116z" fill="#33241A" /><path d="M99.177888 693.976107l83.386251-8.896134a37.238389 37.238389 0 0 0 20.593149-9.56301l11.777041-10.856752a174.72167 174.72167 0 0 1 55.404108-34.490857l212.33351-82.09251a3.534446 3.534446 0 0 0 2.027305-4.561436l7.34898 19.019321a3.547784 3.547784 0 0 1-2.027304 4.561436L277.687417 649.175337a174.72167 174.72167 0 0 0-55.404108 34.504195l-11.777041 10.856751a37.34509 37.34509 0 0 1-20.593149 9.563011l-83.386251 8.882796a71.289109 71.289109 0 0 1-74.049977-45.187558L26.488339 652.242969l-1.333754-3.507771a71.289109 71.289109 0 0 0 74.023303 45.240909z" fill="#EBA017" /><path d="M85.933719 466.371122c57.751514-19.272734 121.371542 9.763073 144.712223 65.980772 0.173388 0.400126 0.333438 0.786914 0.493488 1.18704a43.080229 43.080229 0 0 0 54.04368 24.687772c60.552396-20.939925 116.329955-26.595039 169.173257-80.171905a3.521108 3.521108 0 0 1 5.575088 1.413778l10.389938 26.86179a3.534446 3.534446 0 0 0-5.575089-1.427116C411.903002 558.493456 356.112106 564.215258 295.55971 585.088495c-21.713502 7.522368-59.485393-6.442028-66.154159-22.607117-23.567419-57.097975-75.317043-88.5212-133.068557-69.248466-2.16068 0.720227-4.26801 1.493804-6.348665 2.320731l-0.386789 0.133375a95.096604 95.096604 0 0 0-9.763073 4.508086 116.876793 116.876793 0 0 0-55.684196 146.085988l-10.389938-26.861789a116.876793 116.876793 0 0 1 72.169386-153.048181z" fill="#FFFFFF" /><path d="M98.977825 721.384735a79.438341 79.438341 0 0 1-73.969952-50.682621l-16.511865-42.680103a124.852638 124.852638 0 0 1 77.090935-163.518143c61.699423-20.579812 129.627474 10.389937 154.635347 70.502194l0.520164 1.267066a35.104384 35.104384 0 0 0 44.013855 20.126336c13.577608-4.708149 26.96849-8.656058 39.905896-12.470593 44.480669-13.137469 86.493895-25.541374 126.186391-65.780708l0.533501-0.480151a11.536965 11.536965 0 0 1 18.205731 4.641461l29.916085 77.357686a11.536965 11.536965 0 0 1-6.602079 14.911361L280.581662 656.644355a165.958911 165.958911 0 0 0-52.869977 32.943704l-11.790379 10.856751a44.960821 44.960821 0 0 1-25.02121 11.61699H190.726708l-83.359575 8.869459a77.224311 77.224311 0 0 1-8.389308 0.453476z m25.741437-247.304519a108.860937 108.860937 0 0 0-101.298556 148.113293l16.511865 42.680103a63.39329 63.39329 0 0 0 65.740695 40.105959l83.306226-8.869459a29.115832 29.115832 0 0 0 16.098401-7.495693l11.777041-10.870089a182.0173 182.0173 0 0 1 57.951576-36.011336l208.158863-80.478669-25.848137-66.861048C416.131 533.538934 373.851023 546.036201 329.196966 559.213683c-12.777356 3.761184-25.968175 7.655743-39.212344 12.243855a51.096085 51.096085 0 0 1-64.020154-29.262546l-0.453476-1.13369a109.367763 109.367763 0 0 0-100.79173-66.981086z m0.173388 213.013724a100.03149 100.03149 0 0 1-36.011336-193.207489 99.938128 99.938128 0 1 1 36.011336 193.207489zM94.696478 508.811149a83.933089 83.933089 0 1 0 108.554173 48.015116 84.026452 84.026452 0 0 0-108.554173-48.015116z" fill="#33241A" /><path d="M492.915172 573.911643a13.057444 13.057444 0 0 1-5.121612-1.02699 13.204157 13.204157 0 0 1-7.148917-7.375655L450.808583 488.27135a11.817053 11.817053 0 0 1 6.748792-15.271474l565.764772-218.735526 0.613526 11.003464c1.227053 22.287016-22.673804 64.847081-243.329935 176.642275-124.639237 63.153214-257.214306 120.157826-282.528941 130.947889a13.244169 13.244169 0 0 1-5.161625 1.053665z m-25.688087-87.49421l27.288591 70.568882c30.876387-13.204157 158.596594-68.408202 278.834445-129.374061 165.892224-84.026452 215.987994-127.386769 229.79234-148.406719z" fill="#33241A" /><path d="M530.006849 499.541565m-29.555971 0a29.555971 29.555971 0 1 0 59.111942 0 29.555971 29.555971 0 1 0-59.111942 0Z" fill="#FF7997" /><path d="M530.006849 533.098795a33.557231 33.557231 0 1 1 23.727469-9.829761 33.34383 33.34383 0 0 1-23.727469 9.829761z m0-59.085267a25.541374 25.541374 0 1 0 18.072356 43.600393 25.541374 25.541374 0 0 0-18.072356-43.600393z" fill="#33241A" /><path d="M562.203651 509.811464l-64.286904-0.2134v-19.926273l64.286904 0.2134z m-56.284385-8.189244l48.281866 0.16005v-3.921234l-48.281866-0.160051z" fill="#33241A" /></svg>