<?xml version="1.0" standalone="no"?><!DOCTYPE svg PUBLIC "-//W3C//DTD SVG 1.1//EN" "http://www.w3.org/Graphics/SVG/1.1/DTD/svg11.dtd"><svg class="icon" width="200px" height="200.00px" viewBox="0 0 1024 1024" version="1.1" xmlns="http://www.w3.org/2000/svg"><path d="M398.746603 217.560232l407.685126 407.683678-61.460819 61.460819-407.683678-407.685127z" fill="#F7C11C" /><path d="M744.963666 699.000659L324.99275 279.029743l73.749507-73.749506 419.985402 419.970916zM349.575919 279.029743l395.387747 395.387747 49.180824-49.166337-395.402233-395.387748z" fill="#33241A" /><path d="M381.060338 235.258085l18.714788-18.714788 407.683678 407.683678-18.71334 18.716237z" fill="#FFFFFF" /><path d="M335.196866 281.127352l18.714788-18.714788 407.683678 407.683677-18.71334 18.716237z" fill="#EBA017" /><path d="M327.976918 269.715083l-93.798478 93.798478a57.032372 57.032372 0 0 0-15.152619 53.468754l49.253255 174.878028a82.151532 82.151532 0 0 1-21.87424 77.081344L35.456043 859.291031a91.39376 91.39376 0 0 0 129.246335 129.246336l190.349344-210.977767a82.194991 82.194991 0 0 1 77.081344-21.874239l174.892514 49.253255a56.974427 56.974427 0 0 0 53.454268-15.167106l93.798478-93.798478zM75.380152 948.685689a40.80777 40.80777 0 1 1 57.713225 0 40.793284 40.793284 0 0 1-57.713225 0z" fill="#AEE4F5" /><path d="M100.07921 1023.99971A100.085511 100.085511 0 0 1 29.313872 853.148861l0.318697-0.304212L240.523418 662.640168a72.967249 72.967249 0 0 0 19.44055-68.592401l-49.398118-175.066349a65.188132 65.188132 0 0 1 17.470419-61.610027l99.955136-99.955135 438.571262 438.600235-99.955135 99.955135a65.188132 65.188132 0 0 1-61.610027 17.470419l-0.34767-0.086917-174.704193-49.253255a72.967249 72.967249 0 0 0-68.606887 19.440549L170.989411 994.520189l-0.159349 0.159348a99.43363 99.43363 0 0 1-70.750852 29.320173zM41.453351 865.592551a82.687523 82.687523 0 0 0 116.947508 116.947508l190.349344-210.96328 0.159349-0.159349a91.422733 91.422733 0 0 1 85.222617-24.177554l0.362156 0.086918 174.689707 49.253255a48.079869 48.079869 0 0 0 45.153645-12.892764l87.641822-87.656308-414.002581-414.017066-87.656307 87.656307a47.992951 47.992951 0 0 0-12.834819 45.13916l49.253255 175.051862A90.263833 90.263833 0 0 1 252.575979 675.069371l-0.318697 0.304212z m62.710982 103.707074a49.470549 49.470549 0 1 1 34.998784-14.486252 49.340172 49.340172 0 0 1-34.998784 14.486252z m0-81.557596a32.101533 32.101533 0 1 0 22.714443 9.387091 31.985643 31.985643 0 0 0-22.714443-9.387091z" fill="#33241A" /><path d="M730.549846 672.288011l-83.556698 83.556699a57.017886 57.017886 0 0 1-53.468754 15.152619L418.704311 721.715101c-27.755658-6.576758-67.172748 11.951157-87.323124 32.11602L140.973898 964.794401a91.408247 91.408247 0 0 1-113.181082 12.79136 91.379274 91.379274 0 0 0 141.965264 16.050766L360.179855 782.687733a82.137046 82.137046 0 0 1 77.066858-21.874239l174.892514 49.253255a57.032372 57.032372 0 0 0 53.468754-15.152619L759.406459 701.144624z" fill="#64CAE2" /><path d="M348.938524 290.676689l-83.556698 83.556698a56.974427 56.974427 0 0 0-15.167106 53.454268l49.253255 174.892514c6.576758 27.741172-11.951157 67.158262-32.116019 87.323124L56.417648 880.252637a91.408247 91.408247 0 0 0-12.79136 113.181083A92.972762 92.972762 0 0 1 27.575522 980.64236a91.408247 91.408247 0 0 1 0-129.246336l210.977766-190.349344a82.180505 82.180505 0 0 0 21.87424-77.081344l-49.253255-174.878028a57.017886 57.017886 0 0 1 15.152619-53.468754l93.798478-93.798478zM917.683243 315.28883l-92.71201 31.275817 24.105123-99.955135-224.536898-224.536898a45.733096 45.733096 0 0 0-67.650794 3.259407L397.815137 218.491698 805.487225 626.178273l193.145191-159.015583a45.762068 45.762068 0 0 0 3.273893-67.66528z" fill="#FFFFFF" /><path d="M804.936748 637.912136l-5.577207-5.591693-413.263782-413.263781L550.138071 19.841732A54.41036 54.41036 0 0 1 630.63817 15.94493l227.999112 228.013598-21.555542 89.336713 82.933789-27.972952 88.03295 88.03295a54.439333 54.439333 0 0 1-3.896801 80.514586zM409.549 217.926734L806.066675 614.458895l187.046479-154.017825a37.055831 37.055831 0 0 0 2.636498-54.815976l-80.398696-80.413182-102.548174 34.593169 26.654703-110.48664L618.353829 28.243758A37.055831 37.055831 0 0 0 563.566826 30.894742z"  /><path d="M790.378065 305.322289l-24.105123 99.955135 92.71201-31.275817L973.165586 488.196728l25.46683-20.961606a45.762068 45.762068 0 0 0 3.273893-67.665281l-84.223066-84.20858-92.71201 31.275817 24.105123-99.955135-224.536898-224.536897a45.733096 45.733096 0 0 0-67.650794 3.259406l-21.005065 25.423372z" fill="#FF7997" /><path d="M804.936748 637.912136l-5.577207-5.591693-413.263782-413.263781L550.138071 19.841732A54.41036 54.41036 0 0 1 630.63817 15.94493l227.999112 228.013598-21.555542 89.336713 82.933789-27.972952 88.03295 88.03295a54.439333 54.439333 0 0 1-3.896801 80.514586zM409.549 217.926734L806.066675 614.458895l187.046479-154.017825a37.055831 37.055831 0 0 0 2.636498-54.815976l-80.398696-80.413182-102.548174 34.593169 26.654703-110.48664L618.353829 28.243758A37.055831 37.055831 0 0 0 563.566826 30.894742zM100.07921 1023.99971A100.085511 100.085511 0 0 1 29.313872 853.148861l0.318697-0.304212L240.523418 662.640168a72.967249 72.967249 0 0 0 19.44055-68.592401l-49.398118-175.066349a65.188132 65.188132 0 0 1 17.470419-61.610027l99.955136-99.955135 438.571262 438.600235-99.955135 99.955135a65.188132 65.188132 0 0 1-61.610027 17.470419l-0.34767-0.086917-174.704193-49.253255a72.967249 72.967249 0 0 0-68.606887 19.440549L170.989411 994.520189l-0.159349 0.159348a99.43363 99.43363 0 0 1-70.750852 29.320173zM41.453351 865.592551a82.687523 82.687523 0 0 0 116.947508 116.947508l190.349344-210.96328 0.159349-0.159349a91.422733 91.422733 0 0 1 85.222617-24.177554l0.362156 0.086918 174.689707 49.253255a48.079869 48.079869 0 0 0 45.153645-12.892764l87.641822-87.656308-414.002581-414.017066-87.656307 87.656307a47.992951 47.992951 0 0 0-12.834819 45.13916l49.253255 175.051862A90.263833 90.263833 0 0 1 252.575979 675.069371l-0.318697 0.304212z m62.710982 103.707074a49.470549 49.470549 0 1 1 34.998784-14.486252 49.340172 49.340172 0 0 1-34.998784 14.486252z m0-81.557596a32.101533 32.101533 0 1 0 22.714443 9.387091 31.985643 31.985643 0 0 0-22.714443-9.387091z" fill="#33241A" /><path d="M481.719505 536.117247a8.691751 8.691751 0 0 1-6.142171-2.54958L438.854687 496.888478a8.691751 8.691751 0 1 1 12.298827-12.298827l36.708162 36.722647a8.691751 8.691751 0 0 1-6.142171 14.833922zM716.874825 619.529083a8.691751 8.691751 0 0 1-6.026281-14.949811l10.806744-10.386642a8.691751 8.691751 0 0 1 12.038075 12.530607L722.915592 617.124366a8.691751 8.691751 0 0 1-6.040767 2.404717zM683.0784 585.732659a8.691751 8.691751 0 0 1-6.02628-14.964298l10.792257-10.372156a8.691751 8.691751 0 1 1 12.052561 12.530607l-10.806743 10.372156a8.691751 8.691751 0 0 1-6.011795 2.433691zM403.40683 457.7756a8.691751 8.691751 0 0 1-6.142171-2.549581l-91.784889-91.755916a8.691751 8.691751 0 1 1 12.284341-12.284342l91.784889 91.78489a8.691751 8.691751 0 0 1-6.14217 14.804949z" fill="#33241A" /><path d="M744.963666 699.000659L324.99275 279.029743l73.749507-73.749506 419.985402 419.970916zM349.575919 279.029743l395.387747 395.387747 49.180824-49.166337-395.402233-395.387748z" fill="#33241A" /></svg>