<?xml version="1.0" standalone="no"?><!DOCTYPE svg PUBLIC "-//W3C//DTD SVG 1.1//EN" "http://www.w3.org/Graphics/SVG/1.1/DTD/svg11.dtd"><svg class="icon" width="200px" height="200.00px" viewBox="0 0 1024 1024" version="1.1" xmlns="http://www.w3.org/2000/svg"><path d="M897.619834 344.338783a344.333757 344.333757 0 1 0-479.009307 316.965786 81.894464 81.894464 0 0 1 50.267701 75.26192v74.563758h168.745882V736.566489a81.754832 81.754832 0 0 1 50.337518-75.26192 344.403573 344.403573 0 0 0 209.658206-316.965786z" fill="#FFCB39" /><path d="M815.097024 344.338783A344.333757 344.333757 0 1 0 335.878268 661.304569a81.894464 81.894464 0 0 1 50.267701 75.26192v74.563758h168.955331V736.566489a81.894464 81.894464 0 0 1 50.337518-75.26192 344.403573 344.403573 0 0 0 209.658206-316.965786z" fill="#FFCB39" /><path d="M528.152227 0.912638c-5.5853 0-11.1706 0.907611-16.686085 1.605774a344.333757 344.333757 0 0 1 93.972676 658.786157 81.894464 81.894464 0 0 0-50.337518 75.26192v74.563758h82.52281V736.566489a81.754832 81.754832 0 0 1 50.337518-75.26192A344.403573 344.403573 0 0 0 528.152227 0.912638z" fill="#FFA310" /><path d="M190.660463 751.716616m74.843022 0l492.972558 0q74.843023 0 74.843023 74.843022l0 13.61417q0 74.843023-74.843023 74.843022l-492.972558 0q-74.843023 0-74.843022-74.843022l0-13.61417q0-74.843023 74.843022-74.843022Z" fill="#FFCB39" /><path d="M758.476043 751.716616H265.503485a74.633574 74.633574 0 0 0-60.879772 31.417313h489.621378a74.843023 74.843023 0 0 1 74.843022 74.843023v13.96325a74.70339 74.70339 0 0 1-13.96325 43.355893h3.35118a74.843023 74.843023 0 0 0 74.843023-74.843022v-13.963251a74.843023 74.843023 0 0 0-74.843023-74.773206z" fill="#EF680C" /><path d="M773.835619 1024h-523.621893a27.926501 27.926501 0 1 1 0-55.853002h523.621893a27.926501 27.926501 0 0 1 0 55.853002z" fill="#FFCB39" /><path d="M282.329202 192.418618a11.030968 11.030968 0 0 1-3.630445-0.628346 10.472438 10.472438 0 0 1-6.14383-13.474537c39.166918-104.724379 151.08237-92.297086 152.269246-92.157453a10.472438 10.472438 0 0 1-2.583201 20.944876c-3.979526-0.488714-96.765326-10.681887-130.067678 78.6131a10.472438 10.472438 0 0 1-9.844092 6.70236zM271.647315 236.263225a10.472438 10.472438 0 0 1-10.472437-9.774276 35.95537 35.95537 0 0 1 6.004197-21.992119A10.472438 10.472438 0 0 1 284.214241 216.435409a15.499208 15.499208 0 0 0-2.164304 8.517583 10.402622 10.402622 0 0 1-9.774275 11.100784z" fill="#FFFBF0" /></svg>