<?xml version="1.0" standalone="no"?><!DOCTYPE svg PUBLIC "-//W3C//DTD SVG 1.1//EN" "http://www.w3.org/Graphics/SVG/1.1/DTD/svg11.dtd"><svg class="icon" width="200px" height="200.00px" viewBox="0 0 1024 1024" version="1.1" xmlns="http://www.w3.org/2000/svg"><path d="M286.53479 947.619928a30.235765 30.235765 0 0 0-4.885006 36.345583l-18.899133 18.913376a42.725999 42.725999 0 0 1-60.414563 0L21.063917 821.606716a42.725999 42.725999 0 0 1 0-60.428805L425.835788 356.33483l241.757944 241.700976-344.656391 344.65639a30.264249 30.264249 0 0 0-36.402551 4.927732z" fill="#F7C11C" /><path d="M21.063917 821.606716l32.016016 32.016015a42.725999 42.725999 0 0 1 0-60.428805l404.828839-404.843081L425.835788 356.33483 21.063917 761.177911a42.725999 42.725999 0 0 0 0 60.428805z" fill="#FFFFFF" /><path d="M292.573398 941.58132a30.235765 30.235765 0 0 0-4.885006 36.345583l-24.951983 24.951984a42.725999 42.725999 0 0 1-60.414563 0l-32.016015-32.030257a42.725999 42.725999 0 0 0 60.414563 0l404.857323-404.828839 32.016015 32.016015L328.990191 936.696315a30.264249 30.264249 0 0 0-36.416793 4.885005z" fill="#EBA017" /><path d="M232.54337 1023.999772a50.929391 50.929391 0 0 1-36.260131-15.011067L15.011068 827.645323a51.271199 51.271199 0 0 1 0-72.50602l23.798381-23.798381 5.440444 2.549318a25.635599 25.635599 0 0 0 34.180799-34.109589l-2.56356-5.440444L425.835788 344.257615l253.83516 253.778191L329.631081 948.089914l-5.468928-2.649012a25.635599 25.635599 0 0 0-34.252009 34.180799l2.649012 5.468928-23.755655 23.769898A50.929391 50.929391 0 0 1 232.54337 1023.999772zM42.725999 751.578804l-15.6662 15.666199a34.180799 34.180799 0 0 0 0 48.337347l181.314897 181.243687a34.180799 34.180799 0 0 0 48.337347 0L272.221581 981.273773a42.725999 42.725999 0 0 1 53.578402-53.56416l329.702291-329.716533L425.835788 368.426288 96.048045 698.270999A42.725999 42.725999 0 0 1 42.725999 751.578804z" fill="#33241A" /><path d="M476.419843 588.168587l32.225967 32.225966-225.561624 225.561624-32.225966-32.225966 225.561623-225.561624Z" fill="#FF7997" /><path d="M283.088226 840.790689a27.059799 27.059799 0 0 1-19.127005-46.186805l193.320903-193.335144a27.059799 27.059799 0 0 1 38.268253 0 27.059799 27.059799 0 0 1 0 38.268253L302.229474 832.872137a27.059799 27.059799 0 0 1-19.141248 7.918552z m193.335145-238.895301a18.514599 18.514599 0 0 0-13.10264 5.426201L269.999829 800.642492A18.514599 18.514599 0 1 0 296.233592 826.833529l193.278177-193.335144a18.514599 18.514599 0 0 0-13.088398-31.602997z" fill="#33241A" /><path d="M276.009952 806.652616l193.335145-193.320903A22.787199 22.787199 0 0 1 497.045786 609.842423a22.986587 22.986587 0 0 0-3.489289-4.543197 22.787199 22.787199 0 0 0-32.229646 0L267.977465 798.63437a22.787199 22.787199 0 0 0 0 32.229645 23.983527 23.983527 0 0 0 4.543198 3.48929 22.787199 22.787199 0 0 1 3.489289-27.700689z" fill="#FFFFFF" /><path d="M291.177682 821.763378L484.512827 628.499443a22.787199 22.787199 0 0 0 3.48929-27.700689 23.456573 23.456573 0 0 1 4.528956 3.48929 22.787199 22.787199 0 0 1 0 32.229645L299.195928 829.852833a22.787199 22.787199 0 0 1-32.215403 0 22.459633 22.459633 0 0 1-3.48929-4.543197 22.787199 22.787199 0 0 0 27.686447-3.546258z" fill="#E85D88" /><path d="M283.088226 840.790689a27.059799 27.059799 0 0 1-19.127005-46.186805l193.320903-193.335144a27.059799 27.059799 0 0 1 38.268253 0 27.059799 27.059799 0 0 1 0 38.268253L302.229474 832.872137a27.059799 27.059799 0 0 1-19.141248 7.918552z m193.335145-238.895301a18.514599 18.514599 0 0 0-13.10264 5.426201L269.999829 800.642492A18.514599 18.514599 0 1 0 296.233592 826.833529l193.278177-193.335144a18.514599 18.514599 0 0 0-13.088398-31.602997z" fill="#33241A" /><path d="M403.528872 515.27904l32.225967 32.225966-225.561624 225.561624-32.225966-32.225966 225.561623-225.561624Z" fill="#FF7997" /><path d="M210.197672 767.885893a27.059799 27.059799 0 0 1-19.141247-46.172563L384.39157 528.378186a27.059799 27.059799 0 0 1 38.268252 0 27.059799 27.059799 0 0 1 0 38.268253L229.296194 759.981583a26.974347 26.974347 0 0 1-19.098522 7.90431z m193.320903-238.881059a18.514599 18.514599 0 0 0-13.088398 5.411959L197.095033 727.76618a18.514599 18.514599 0 0 0 26.191037 26.176795l193.335145-193.335144a18.514599 18.514599 0 0 0-13.10264-31.602997z" fill="#33241A" /><path d="M203.119398 733.762062l193.320903-193.335145A22.787199 22.787199 0 0 1 424.126748 536.923385a22.374181 22.374181 0 0 0-3.489289-4.528955 22.787199 22.787199 0 0 0-32.215404 0L195.115395 725.743816a22.787199 22.787199 0 0 0 0 32.215403 22.459633 22.459633 0 0 0 4.543198 3.48929 22.787199 22.787199 0 0 1 3.460805-27.686447z" fill="#FFFFFF" /><path d="M218.287128 748.929792L411.593789 555.594647a22.787199 22.787199 0 0 0 3.48929-27.686447 22.986587 22.986587 0 0 1 4.543198 3.48929 22.787199 22.787199 0 0 1 0 32.229645L226.305374 756.962279a22.787199 22.787199 0 0 1-32.229645 0 23.413847 23.413847 0 0 1-3.48929-4.543197 22.787199 22.787199 0 0 0 27.700689-3.48929z" fill="#E85D88" /><path d="M210.197672 767.885893a27.059799 27.059799 0 0 1-19.141247-46.172563L384.39157 528.378186a27.059799 27.059799 0 0 1 38.268252 0 27.059799 27.059799 0 0 1 0 38.268253L229.296194 759.981583a26.974347 26.974347 0 0 1-19.098522 7.90431z m193.320903-238.881059a18.514599 18.514599 0 0 0-13.088398 5.411959L197.095033 727.76618a18.514599 18.514599 0 0 0 26.191037 26.176795l193.335145-193.335144a18.514599 18.514599 0 0 0-13.10264-31.602997z" fill="#33241A" /><path d="M393.803326 292.011129l338.120882 338.120882-64.451932 64.451933-338.120882-338.120882 64.451932-64.451933Z" fill="#F7C11C" /><path d="M667.465554 684.228387a53.948695 53.948695 0 0 1-38.268253-15.822861L355.523036 394.731261a54.119599 54.119599 0 0 1 76.536506-76.536506l273.674265 273.674265a54.119599 54.119599 0 0 1-38.268253 92.359367zM393.791289 319.448051a37.029199 37.029199 0 0 0-26.176795 63.205995l273.674265 273.660022a37.029199 37.029199 0 0 0 52.367832-52.367832L419.982327 330.286213a36.929505 36.929505 0 0 0-26.191038-10.838162z"  /><path d="M701.703321 595.899506L428.043298 322.225241a45.574399 45.574399 0 0 0-64.45929 0 45.389253 45.389253 0 0 0-7.54826 9.9694 45.574399 45.574399 0 0 1 54.461407 7.54826l273.674264 273.688506a45.574399 45.574399 0 0 1 7.54826 54.461407 44.947751 44.947751 0 0 0 9.9694-7.54826 45.574399 45.574399 0 0 0 0.014242-64.445048z" fill="#FFFFFF" /><path d="M633.583837 664.01899L359.909572 390.358967a45.574399 45.574399 0 0 1 0-64.45929 45.389253 45.389253 0 0 1 9.9694-7.54826 45.574399 45.574399 0 0 0 7.54826 54.461407l273.688506 273.674264a45.574399 45.574399 0 0 0 54.461407 7.54826 44.947751 44.947751 0 0 1-7.54826 9.9694 45.574399 45.574399 0 0 1-64.445048 0.014242z" fill="#EBA017" /><path d="M1013.8025 73.688106l-62.664798-62.650556-155.19507 105.063231-7.163725 57.295564-256.797495 256.797495 62.650556 62.664799 256.811737-256.811737 57.281322-7.163726 105.077473-155.19507z" fill="#AEE4F5" /><path d="M850.432523 233.625762L593.635028 490.423257l-16.121944-16.121944 256.811737-256.797495 57.281323-7.163726 105.063231-155.19507 16.121943 16.121944-105.063231 155.19507-57.295564 7.163726z" fill="#64CAE2" /><path d="M795.00266 175.347499L538.205165 432.144994l16.107702 16.107702 256.797495-256.797495 7.163726-57.295565 155.19507-105.063231-16.107702-16.107701-155.19507 105.063231-7.163726 57.295564z" fill="#FFFFFF" /><path d="M594.631968 504.935854L519.832986 430.19384 780.660967 169.479795l7.277662-58.221294L952.19161 0l72.634198 72.634198-111.187291 164.252982-58.235536 7.277661zM544.044385 430.19384l50.573341 50.573341L847.470187 227.871994l56.355592-7.035548 98.939172-146.094432-52.695399-52.695399L803.932394 121.056997l-7.035548 56.355592zM149.64069 813.118484a8.5452 8.5452 0 0 1-6.038608-2.49235L131.026396 798.036206a8.5452 8.5452 0 0 1 12.091458-12.091457l12.575686 12.589927a8.5452 8.5452 0 0 1-6.038608 14.583808zM260.785255 922.881575a8.5452 8.5452 0 0 1-6.038608-2.49235l-83.7572-83.814168a8.5452 8.5452 0 0 1 12.077216-12.077215l83.7572 83.757199a8.5452 8.5452 0 0 1-6.038608 14.626534z" fill="#33241A" /><path d="M667.465554 684.228387a53.948695 53.948695 0 0 1-38.268253-15.822861L355.523036 394.731261a54.119599 54.119599 0 0 1 76.536506-76.536506l273.674265 273.674265a54.119599 54.119599 0 0 1-38.268253 92.359367zM393.791289 319.448051a37.029199 37.029199 0 0 0-26.176795 63.205995l273.674265 273.660022a37.029199 37.029199 0 0 0 52.367832-52.367832L419.982327 330.286213a36.929505 36.929505 0 0 0-26.191038-10.838162z" fill="#33241A" /></svg>