<?xml version="1.0" standalone="no"?><!DOCTYPE svg PUBLIC "-//W3C//DTD SVG 1.1//EN" "http://www.w3.org/Graphics/SVG/1.1/DTD/svg11.dtd"><svg class="icon" width="200px" height="131.03px" viewBox="0 0 1563 1024" version="1.1" xmlns="http://www.w3.org/2000/svg"><path d="M1178.595665 496.678351L1151.45233 402.123482c-1.228711-5.920151-7.446731-9.606283-14.092939-8.228638l-112.03607 3.723366c-6.534507 1.377645-10.834994 7.27918-9.587666 13.199331l22.079558 105.334012 5.585048 26.454512c1.247327 5.920151 7.446731 9.587666 14.092939 8.228638l131.192786-6.143553 11.840302-2.476038c6.534507-1.377645 10.834994-7.27918 9.587667-13.199331l-3.295179-15.749837c-1.247327-5.920151-7.446731-9.587666-14.092938-8.228638-6.57174 1.228711-12.882845-2.382954-14.130173-8.358955z" fill="#FF7997" /><path d="M1054.719293 562.228202a22.340193 22.340193 0 0 1-22.340194-17.388118l-27.645989-131.788524c-2.494655-11.933387 5.696749-23.792306 18.244491-26.417279l0.949458-0.204785h0.986692l111.198313-3.611665a22.693913 22.693913 0 0 1 26.063559 16.587594l27.161952 94.66657a1.861683 1.861683 0 0 0 0.949458 0c12.547742-2.624973 24.816232 4.933459 27.310887 16.866846l3.313795 15.749836c2.494655 11.933387-5.585048 23.773689-18.244491 26.417279l-12.715294 2.662206-131.323104 6.143554a24.760381 24.760381 0 0 1-3.909533 0.316486z m-0.521272-22.340194a1.861683 1.861683 0 0 0 0.968075 0l0.874991-0.167551 131.192786-6.143554 10.965312-2.308486a1.749982 1.749982 0 0 0 0.856374-0.390954l-3.10901-14.893462a1.861683 1.861683 0 0 0-0.968075 0 23.680605 23.680605 0 0 1-16.941314-2.662206 21.707221 21.707221 0 0 1-10.257872-13.720602l-27.161952-94.66657a1.973384 1.973384 0 0 0-0.968075 0l-0.949458 0.204785h-0.968075l-110.639808 3.593048a1.303178 1.303178 0 0 0-0.335103 0.223402z" fill="#33241A" /><path d="M1069.426587 542.45713l-5.585049-26.454512-22.079558-105.334012c-1.247327-5.920151 3.05316-11.821686 9.587667-13.199331l93.400625-3.05316a13.03178 13.03178 0 0 0-7.446731-0.595738l-112.03607 3.723365c-6.534507 1.377645-10.834994 7.27918-9.587666 13.199331l22.079557 105.334012 5.585049 26.454513c1.247327 5.920151 7.446731 9.587666 14.092938 8.228638l18.058323-0.856374a10.499891 10.499891 0 0 1-6.069085-7.446732z" fill="#FFFFFF" /><path d="M1054.719293 562.228202a22.340193 22.340193 0 0 1-22.340194-17.388118l-27.645989-131.788524c-2.494655-11.933387 5.696749-23.792306 18.244491-26.417279l0.949458-0.204785h0.986692l111.198313-3.611665a22.693913 22.693913 0 0 1 26.063559 16.587594l27.161952 94.66657a1.861683 1.861683 0 0 0 0.949458 0c12.547742-2.624973 24.816232 4.933459 27.310887 16.866846l3.313795 15.749836c2.494655 11.933387-5.585048 23.773689-18.244491 26.417279l-12.715294 2.662206-131.323104 6.143554a24.760381 24.760381 0 0 1-3.909533 0.316486z m-0.521272-22.340194a1.861683 1.861683 0 0 0 0.968075 0l0.874991-0.167551 131.192786-6.143554 10.965312-2.308486a1.749982 1.749982 0 0 0 0.856374-0.390954l-3.10901-14.893462a1.861683 1.861683 0 0 0-0.968075 0 23.680605 23.680605 0 0 1-16.941314-2.662206 21.707221 21.707221 0 0 1-10.257872-13.720602l-27.161952-94.66657a1.973384 1.973384 0 0 0-0.968075 0l-0.949458 0.204785h-0.968075l-110.639808 3.593048a1.303178 1.303178 0 0 0-0.335103 0.223402z" fill="#33241A" /><path d="M1380.941967 66.499309H781.629045a22.340193 22.340193 0 0 0-22.340194 22.340194v306.637771a22.340193 22.340193 0 0 0 22.340194 22.340194h286.177878a59.108428 59.108428 0 0 1 58.475456 50.265435c19.920006 132.644899 42.949022 321.196131 29.470438 412.157952-1.340412 9.066395-5.585048 22.228492-11.002545 36.768235a70.743946 70.743946 0 0 0 66.089739 95.746346h89.900662a79.307687 79.307687 0 0 0 79.307687-79.307687l0.372336-415.266962A130.634281 130.634281 0 0 1 1454.627372 400.857538a172.280125 172.280125 0 0 0 97.514944-154.76169v-8.321722c0.074467-94.201149-77.036434-171.274816-171.200349-171.274817z" fill="#FF7997" /><path d="M1300.740673 1023.925533h-89.900662a81.914043 81.914043 0 0 1-76.533779-110.86321c7.204712-19.175333 9.6249-29.321504 10.38819-34.459749 13.03178-88.392699-8.787143-271.135481-29.451822-408.862773a47.659079 47.659079 0 0 0-47.435677-40.826704H781.629045a33.51029 33.51029 0 0 1-33.510291-33.51029V88.839503a33.51029 33.51029 0 0 1 33.510291-33.510291h599.312922a182.649698 182.649698 0 0 1 182.444913 182.444914v8.321722a184.306596 184.306596 0 0 1-103.826049 164.814777 118.756745 118.756745 0 0 0-67.970038 107.363246l-0.372337 415.248346a90.570868 90.570868 0 0 1-90.477783 90.403316zM781.629045 77.669406a11.170097 11.170097 0 0 0-11.170097 11.170097v306.637771a11.170097 11.170097 0 0 0 11.170097 11.170097h286.177878a69.868955 69.868955 0 0 1 69.533852 59.853102c20.888081 139.235256 42.967639 324.323758 29.451821 415.45313-1.359028 9.159479-5.138244 21.94924-11.579667 39.095339A59.573849 59.573849 0 0 0 1210.840011 1001.585339h89.900662a68.212057 68.212057 0 0 0 68.13759-68.13759l0.372336-415.266962a142.716602 142.716602 0 0 1 80.592248-127.450804 161.817468 161.817468 0 0 0 91.222457-144.708603v-8.321722a160.290888 160.290888 0 0 0-160.10472-160.104719z" fill="#33241A" /><path d="M1390.250381 66.499309h-55.273362c94.201149 0 171.274816 77.073667 171.274817 171.274817v8.321722c1.861683 74.24391-30.40128 105.892517-78.190677 132.589048-43.805396 24.462512-93.568177 89.360774-93.624028 139.626209l-0.353719 415.266962a79.307687 79.307687 0 0 1-79.307687 79.307687h55.273362a79.307687 79.307687 0 0 0 79.307686-79.307687l0.372337-415.266962A130.634281 130.634281 0 0 1 1463.935786 400.857538a172.280125 172.280125 0 0 0 97.514944-154.76169v-8.321722c0.074467-94.201149-77.036434-171.274816-171.200349-171.274817z" fill="#E85D88" /><path d="M1155.752817 911.033089c3.46273-23.382736 4.505272-53.225511 3.723366-86.903353a420.107338 420.107338 0 0 1-3.723366 50.600538c-1.340412 9.066395-5.585048 22.228492-11.002545 36.768235a70.446077 70.446077 0 0 0-2.196786 43.265508c0.632972-2.327103 1.340412-4.63559 2.196786-6.944077 5.473347-14.558359 9.662134-27.70184 11.002545-36.786851zM1380.941967 60.914261H781.629045a22.340193 22.340193 0 0 0-22.340194 22.340193v36.321431a22.340193 22.340193 0 0 1 22.340194-22.340193h599.312922c89.472475 0 163.492982 69.533852 170.697695 157.219111 0.372337-4.598356 0.577122-9.308414 0.577122-13.944004v-8.321722c0-94.201149-77.110901-171.274816-171.274817-171.274816z" fill="#FFFFFF" /><path d="M1183.845611 917.083558c5.473347-14.539743 9.643517-27.70184 11.002545-36.768235 13.478583-90.961821-9.550433-307.438295-29.470439-440.083194a59.108428 59.108428 0 0 0-58.475456-50.265436l-44.680387 27.925242a59.108428 59.108428 0 0 1 58.475457 50.265435c19.920006 132.644899 42.949022 321.196131 29.470438 412.157953-1.340412 9.066395-5.585048 22.228492-11.002545 36.768235a70.743946 70.743946 0 0 0 66.089739 95.671878h44.680387a70.743946 70.743946 0 0 1-66.089739-95.671878z" fill="#FFFFFF" /><path d="M759.288851 362.879209H481.023125a92.060214 92.060214 0 0 1-92.060214-92.060214v-57.33983a92.060214 92.060214 0 0 1 92.060214-92.041597H759.288851v241.441641z" fill="#AEE4F5" /><path d="M770.458948 374.049306H480.967275a103.342011 103.342011 0 0 1-103.230311-103.230311v-57.321213A103.360628 103.360628 0 0 1 480.967275 110.267471h289.491673zM480.967275 132.607665a80.983201 80.983201 0 0 0-80.890118 80.890117v57.321213A80.983201 80.983201 0 0 0 480.967275 351.709112h267.151479V132.607665z" fill="#33241A" /><path d="M480.967275 121.437568a92.320849 92.320849 0 0 0-92.060214 92.060214V251.327176A92.320849 92.320849 0 0 1 480.967275 159.304196h278.321576V121.437568z" fill="#FFFFFF" /><path d="M480.967275 372.075922a92.320849 92.320849 0 0 1-92.060214-92.060214v-37.848011A92.320849 92.320849 0 0 0 480.967275 334.209294h278.321576v37.866628z" fill="#64CAE2" /><path d="M251.645189 219.250382h-34.27358l45.83463 45.816013h34.254963l-45.816013-45.816013zM124.455021 265.066395h34.27358l-45.83463-45.816013h-34.254964l45.816014 45.816013zM182.278888 219.250382H148.005308l45.816014 45.816013h34.27358l-45.816014-45.816013zM286.737909 219.250382l45.834631 45.816013h63.650934v-45.816013h-109.485565zM43.47182 219.250382H23.570431a22.917315 22.917315 0 1 0 0 45.816013h65.773253z" fill="#33241A" /><path d="M1172.58243 224.928514l269.199331 0 0 80.294379-269.199331 0 0-80.294379Z" fill="#AEE4F5" /><path d="M1402.630572 310.901025H1211.733619a44.792088 44.792088 0 0 1-44.680387-44.680387v-1.992a44.792088 44.792088 0 0 1 44.680387-44.680387h190.896953a44.792088 44.792088 0 0 1 44.680387 44.680387V266.220638a44.792088 44.792088 0 0 1-44.680387 44.680387z m-190.896953-80.387462a33.603374 33.603374 0 0 0-33.51029 33.51029v1.992a33.603374 33.603374 0 0 0 33.51029 33.510291h190.896953a33.603374 33.603374 0 0 0 33.51029-33.510291v-1.992a33.603374 33.603374 0 0 0-33.51029-33.51029z" fill="#33241A" /><path d="M1402.630572 224.928514H1211.733619a39.26289 39.26289 0 0 0-39.095339 39.095339v1.992a38.201731 38.201731 0 0 0 0.912225 8.303106 39.26289 39.26289 0 0 1 38.238964-30.829467h190.841103a39.300124 39.300124 0 0 1 38.238964 30.829467 39.393208 39.393208 0 0 0 0.912225-8.303106v-1.992a39.26289 39.26289 0 0 0-39.151189-39.095339z" fill="#FFFFFF" /><path d="M1402.630572 305.744164H1211.733619a39.26289 39.26289 0 0 1-39.095339-39.095338v-1.992001a38.201731 38.201731 0 0 1 0.912225-8.303105 39.26289 39.26289 0 0 0 38.238964 30.829467h190.841103a39.300124 39.300124 0 0 0 38.238964-30.829467 39.393208 39.393208 0 0 1 0.912225 8.303105v1.992001a39.26289 39.26289 0 0 1-39.151189 39.095338z" fill="#64CAE2" /><path d="M888.024216 11.170097h85.637408a44.978256 44.978256 0 0 1 44.978256 44.978256v10.369573h-175.59392v-10.369573A44.978256 44.978256 0 0 1 888.024216 11.170097z" fill="#F7C11C" /><path d="M1029.884444 77.669406H831.875863V56.148353A56.204203 56.204203 0 0 1 888.024216 0h85.637408a56.204203 56.204203 0 0 1 56.148353 56.148353z m-175.649771-22.340194h153.290961A33.826776 33.826776 0 0 0 973.736091 22.340193h-85.637408a33.826776 33.826776 0 0 0-33.86401 32.989019z" fill="#33241A" /><path d="M973.736091 11.170097h-85.637408a44.978256 44.978256 0 0 0-44.978256 44.978256v10.350956h0.874991a44.996873 44.996873 0 0 1 44.028798-35.781543h85.637408a44.996873 44.996873 0 0 1 44.028798 35.781543h0.949458v-10.350956A44.978256 44.978256 0 0 0 973.736091 11.170097zM1107.404915 417.817468H785.799214l-26.510363-27.925242h348.116064v27.925242z" fill="#FFFFFF" /><path d="M1300.740673 1023.925533h-89.900662a81.914043 81.914043 0 0 1-76.533779-110.86321c7.204712-19.175333 9.6249-29.321504 10.38819-34.459749 13.03178-88.392699-8.787143-271.135481-29.451822-408.862773a47.659079 47.659079 0 0 0-47.435677-40.826704H781.629045a33.51029 33.51029 0 0 1-33.510291-33.51029V88.839503a33.51029 33.51029 0 0 1 33.510291-33.510291h599.312922a182.649698 182.649698 0 0 1 182.444913 182.444914v8.321722a184.306596 184.306596 0 0 1-103.826049 164.814777 118.756745 118.756745 0 0 0-67.970038 107.363246l-0.372337 415.248346a90.570868 90.570868 0 0 1-90.477783 90.403316zM781.629045 77.669406a11.170097 11.170097 0 0 0-11.170097 11.170097v306.637771a11.170097 11.170097 0 0 0 11.170097 11.170097h286.177878a69.868955 69.868955 0 0 1 69.533852 59.853102c20.888081 139.235256 42.967639 324.323758 29.451821 415.45313-1.359028 9.159479-5.138244 21.94924-11.579667 39.095339A59.573849 59.573849 0 0 0 1210.840011 1001.585339h89.900662a68.212057 68.212057 0 0 0 68.13759-68.13759l0.372336-415.266962a142.716602 142.716602 0 0 1 80.592248-127.450804 161.817468 161.817468 0 0 0 91.222457-144.708603v-8.321722a160.290888 160.290888 0 0 0-160.10472-160.104719z" fill="#33241A" /><path d="M770.458948 374.049306H480.967275a103.342011 103.342011 0 0 1-103.230311-103.230311v-57.321213A103.360628 103.360628 0 0 1 480.967275 110.267471h289.491673zM480.967275 132.607665a80.983201 80.983201 0 0 0-80.890118 80.890117v57.321213A80.983201 80.983201 0 0 0 480.967275 351.709112h267.151479V132.607665z" fill="#33241A" /><path d="M679.087557 116.057305a49.557996 49.557996 0 0 0-49.557996-49.557996h-2.531889a49.539379 49.539379 0 0 0-49.539379 49.557996v264.936077c0 1.489346 0 2.960076 0.204785 4.393572h-0.204785v451.476692a41.124573 41.124573 0 0 0 41.124573 41.124573h47.994182a8.787143 8.787143 0 0 0 8.265872-11.765835 336.573631 336.573631 0 0 1-19.138099-139.067704L679.087557 385.368337h-0.204785c0.130318-1.433496 0.204785-2.904225 0.204785-4.393572z" fill="#F7C11C" /><path d="M666.577048 889.158316h-47.994182a52.35052 52.35052 0 0 1-52.294669-52.29467V116.057305a60.80256 60.80256 0 0 1 60.709475-60.728093h2.531889a60.80256 60.80256 0 0 1 60.728092 60.728093V374.19824h0.800524l-24.201876 353.71973a323.430151 323.430151 0 0 0 18.48651 134.506581 19.957239 19.957239 0 0 1-18.765763 26.733765zM588.62839 396.538434v440.325212a29.973093 29.973093 0 0 0 29.954476 29.954476h44.680387a345.584176 345.584176 0 0 1-18.616828-140.482583L667.135553 396.538434h-0.446804l1.06116-12.138172c0.111701-1.247327 0.167551-2.364337 0.167551-3.425497V116.057305a38.425133 38.425133 0 0 0-38.387899-38.387899h-2.531889a38.406516 38.406516 0 0 0-38.369282 38.387899v264.936077c0 1.079776 0 2.196786 0.148935 3.425497l1.079776 12.138171z" fill="#33241A" /><path d="M686.534288 116.057305a49.557996 49.557996 0 0 0-49.557996-49.557996h-2.531889a49.278743 49.278743 0 0 0-14.707294 2.234019 49.539379 49.539379 0 0 1 34.832085 47.323977v264.936077c0 1.489346 0 2.960076-0.204785 4.393572h0.204785l-23.382735 341.767726a336.573631 336.573631 0 0 0 19.193949 139.067704 8.787143 8.787143 0 0 1-8.265871 11.765835h31.909243a8.787143 8.787143 0 0 0 8.265871-11.765835 336.573631 336.573631 0 0 1-19.138099-139.067704L686.534288 385.368337h-0.204785c0.130318-1.433496 0.204785-2.904225 0.204785-4.393572z" fill="#EBA017" /><path d="M605.99789 836.863646V385.368337h0.204786c-0.130318-1.433496-0.204785-2.904225-0.204786-4.393572V116.057305a49.557996 49.557996 0 0 1 36.544834-47.808014 49.222893 49.222893 0 0 0-13.03178-1.749982h-2.531889a49.539379 49.539379 0 0 0-49.539378 49.557996v264.936077c0 1.489346 0 2.960076 0.204785 4.393572h-0.204785v451.476692a41.124573 41.124573 0 0 0 41.124572 41.124573h28.539597a41.124573 41.124573 0 0 1-41.105956-41.124573z" fill="#FFFFFF" /><path d="M666.577048 889.158316h-47.994182a52.35052 52.35052 0 0 1-52.294669-52.29467V116.057305a60.80256 60.80256 0 0 1 60.709475-60.728093h2.531889a60.80256 60.80256 0 0 1 60.728092 60.728093V374.19824h0.800524l-24.201876 353.71973a323.430151 323.430151 0 0 0 18.48651 134.506581 19.957239 19.957239 0 0 1-18.765763 26.733765zM588.62839 396.538434v440.325212a29.973093 29.973093 0 0 0 29.954476 29.954476h44.680387a345.584176 345.584176 0 0 1-18.616828-140.482583L667.135553 396.538434h-0.446804l1.06116-12.138172c0.111701-1.247327 0.167551-2.364337 0.167551-3.425497V116.057305a38.425133 38.425133 0 0 0-38.387899-38.387899h-2.531889a38.406516 38.406516 0 0 0-38.369282 38.387899v264.936077c0 1.079776 0 2.196786 0.148935 3.425497l1.079776 12.138171z" fill="#33241A" /><path d="M628.263617 385.386954m-75.733256 0a75.733256 75.733256 0 1 0 151.466511 0 75.733256 75.733256 0 1 0-151.466511 0Z" fill="#AEE4F5" /><path d="M628.263617 472.290306A86.903352 86.903352 0 1 1 715.166969 385.368337a86.996437 86.996437 0 0 1-86.903352 86.921969z m0-151.466511A64.563159 64.563159 0 1 0 692.826776 385.368337a64.637626 64.637626 0 0 0-64.563159-64.544542z" fill="#33241A" /><path d="M628.263617 340.68795a75.770489 75.770489 0 0 1 73.275834 56.502073 75.751873 75.751873 0 1 0-146.533052 0A75.751873 75.751873 0 0 1 628.263617 340.68795z" fill="#FFFFFF" /><path d="M628.263617 430.551378a75.770489 75.770489 0 0 0 73.275834-56.502072 75.751873 75.751873 0 1 1-146.533052 0 75.751873 75.751873 0 0 0 73.257218 56.502072z" fill="#64CAE2" /><path d="M628.263617 472.290306A86.903352 86.903352 0 1 1 715.166969 385.368337a86.996437 86.996437 0 0 1-86.903352 86.921969z m0-151.466511A64.563159 64.563159 0 1 0 692.826776 385.368337a64.637626 64.637626 0 0 0-64.563159-64.544542zM1402.630572 310.901025H1211.733619a44.792088 44.792088 0 0 1-44.680387-44.680387v-1.992a44.792088 44.792088 0 0 1 44.680387-44.680387h190.896953a44.792088 44.792088 0 0 1 44.680387 44.680387V266.220638a44.792088 44.792088 0 0 1-44.680387 44.680387z m-190.896953-80.387462a33.603374 33.603374 0 0 0-33.51029 33.51029v1.992a33.603374 33.603374 0 0 0 33.51029 33.510291h190.896953a33.603374 33.603374 0 0 0 33.51029-33.510291v-1.992a33.603374 33.603374 0 0 0-33.51029-33.51029zM1042.506653 174.514144h-43.712311a11.170097 11.170097 0 0 1 0-22.340193h43.712311a11.170097 11.170097 0 0 1 0 22.340193zM942.664606 174.514144h-117.118464a11.170097 11.170097 0 1 1 0-22.340193H942.664606a11.170097 11.170097 0 0 1 0 22.340193zM1372.843647 911.740528h-32.262963a11.170097 11.170097 0 0 1 0-22.340193h32.262963a11.170097 11.170097 0 0 1 0 22.340193zM1284.097229 911.740528h-63.297215a11.170097 11.170097 0 1 1 0-22.340193h63.297215a11.170097 11.170097 0 0 1 0 22.340193zM1029.884444 77.669406H831.875863V56.148353A56.204203 56.204203 0 0 1 888.024216 0h85.637408a56.204203 56.204203 0 0 1 56.148353 56.148353z m-175.649771-22.340194h153.290961A33.826776 33.826776 0 0 0 973.736091 22.340193h-85.637408a33.826776 33.826776 0 0 0-33.86401 32.989019z" fill="#33241A" /></svg>