<?xml version="1.0" standalone="no"?><!DOCTYPE svg PUBLIC "-//W3C//DTD SVG 1.1//EN" "http://www.w3.org/Graphics/SVG/1.1/DTD/svg11.dtd"><svg class="icon" width="200px" height="200.00px" viewBox="0 0 1024 1024" version="1.1" xmlns="http://www.w3.org/2000/svg"><path d="M419.845259 1016.371993a27.968055 27.968055 0 0 1-20.213276-8.593821C372.884352 980.05166 350.776876 943.28638 335.699552 901.334298 320.406111 858.772003 312.333514 810.806789 312.333514 762.574607 312.333514 621.132526 379.7111 499.738455 476.226315 467.371788A28.069757 28.069757 0 0 1 494.12587 520.600082c-72.780506 24.421197-125.601992 126.186779-125.601992 241.974525 0 82.632889 26.69678 159.761157 71.560083 206.226267a28.069757 28.069757 0 0 1-20.200564 47.571119z" fill="#F7C11C" /><path d="M419.845259 1023.999644a35.392302 35.392302 0 0 1-25.692472-10.920254c-27.497683-28.50199-50.189946-66.271577-65.63594-109.202542C312.943726 860.539076 304.705862 811.683969 304.705862 762.574607 304.705862 617.903487 374.244617 493.534632 473.785467 460.201796a35.697408 35.697408 0 0 1 22.704975 67.695405C426.748284 551.237814 376.113391 649.965048 376.113391 762.574607c0 80.738689 25.946727 155.858342 69.42434 200.937762a35.710121 35.710121 0 0 1-25.692472 60.487275z m65.330834-550.462171a20.340404 20.340404 0 0 0-6.521642 1.080584C385.215722 505.967704 319.961165 624.361565 319.961165 762.574607c0 47.367715 7.920045 94.430324 22.882954 136.115438 14.721367 40.947775 36.244057 76.835874 62.292486 103.799622a20.442106 20.442106 0 1 0 29.430021-28.387575c-46.147291-47.850799-73.733963-126.936831-73.733963-211.527485 0-118.978648 55.008079-223.744439 130.801508-249.169943a20.454818 20.454818 0 0 0-6.483504-39.841766z" fill="#33241A" /><path d="M423.748074 1010.028329C397.000443 982.289104 367.735688 943.28638 352.658364 901.334298c-15.255303-42.511443-23.366039-90.476658-23.366039-138.70884 0-140.399636 71.954178-260.789399 167.312532-294.223937-6.076696-2.54255-18.598757-3.241752-25.349228-0.978882C374.76584 499.738455 307.362827 621.132526 307.362827 762.574607c0 48.232182 8.08531 96.197396 23.366039 138.70884 15.077324 41.952082 37.1848 78.819064 63.932431 106.494725a27.968055 27.968055 0 0 0 20.213276 8.593821c3.724836 0 14.606952 1.474679 18.102959 0a28.095182 28.095182 0 0 1-9.229458-6.343664z" fill="#FFFFFF" /><path d="M511.77117 485.055226a28.069757 28.069757 0 0 0-35.595706-17.683438l-0.610212 0.216117a28.069757 28.069757 0 0 1-0.597499 53.012177c-72.780506 24.421197-125.601992 126.186779-125.601992 241.974525 0 82.632889 26.69678 159.761157 71.560082 206.226267a27.968055 27.968055 0 0 1-10.653286 45.86761 28.044331 28.044331 0 0 0 29.722414-45.86761c-44.812452-46.465109-71.560082-123.555239-71.560082-206.226267 0-115.787747 52.821485-217.553329 125.601992-241.974525a28.069757 28.069757 0 0 0 17.734289-35.544856z" fill="#EBA017" /><path d="M419.845259 1023.999644a35.392302 35.392302 0 0 1-25.692472-10.920254c-27.497683-28.50199-50.189946-66.271577-65.63594-109.202542C312.943726 860.539076 304.705862 811.683969 304.705862 762.574607 304.705862 617.903487 374.244617 493.534632 473.785467 460.201796a35.697408 35.697408 0 0 1 22.704975 67.695405C426.748284 551.237814 376.113391 649.965048 376.113391 762.574607c0 80.738689 25.946727 155.858342 69.42434 200.937762a35.710121 35.710121 0 0 1-25.692472 60.487275z m65.330834-550.462171a20.340404 20.340404 0 0 0-6.521642 1.080584C385.215722 505.967704 319.961165 624.361565 319.961165 762.574607c0 47.367715 7.920045 94.430324 22.882954 136.115438 14.721367 40.947775 36.244057 76.835874 62.292486 103.799622a20.442106 20.442106 0 1 0 29.430021-28.387575c-46.147291-47.850799-73.733963-126.936831-73.733963-211.527485 0-118.978648 55.008079-223.744439 130.801508-249.169943a20.454818 20.454818 0 0 0-6.483504-39.841766z" fill="#33241A" /><path d="M369.401058 721.181886H349.416612a7.627651 7.627651 0 1 1 0-15.255303h19.984446a7.627651 7.627651 0 0 1 0 15.255303zM366.858508 758.15057H346.874061a7.627651 7.627651 0 1 1 0-15.255303h19.984447a7.627651 7.627651 0 0 1 0 15.255303zM369.401058 795.119253H349.416612a7.627651 7.627651 0 1 1 0-15.255303h19.984446a7.627651 7.627651 0 0 1 0 15.255303zM371.943609 832.100649H351.959162a7.627651 7.627651 0 1 1 0-15.255302h19.984447a7.627651 7.627651 0 0 1 0 15.255302zM380.67727 869.069333H360.641972a7.627651 7.627651 0 1 1 0-15.255303h20.035298a7.627651 7.627651 0 1 1 0 15.255303z" fill="#33241A" /><path d="M604.154741 1016.371993a27.968055 27.968055 0 0 0 20.200563-8.593821c26.760343-27.726513 48.86782-64.555356 63.945144-106.494725 15.255303-42.511443 23.366039-90.476658 23.366038-138.70884 0-141.442081-67.377587-262.836152-163.905514-295.202819a28.069757 28.069757 0 1 0-17.797853 53.228294C602.692774 545.021279 655.577824 646.78686 655.577824 762.574607c0 82.632889-26.69678 159.761157-71.560083 206.226267a28.069757 28.069757 0 0 0 20.200564 47.571119z" fill="#F7C11C" /><path d="M604.154741 1023.999644a35.697408 35.697408 0 0 1-25.692472-60.487275c43.477613-45.079419 69.487904-120.199072 69.487903-200.937762 0-112.609559-50.634892-211.336793-120.402476-234.740969A35.697408 35.697408 0 1 1 550.189108 460.201796c99.566275 33.3964 169.079605 157.765255 169.079604 302.436375 0 49.109362-8.237863 97.964469-23.810985 141.289528-15.445994 42.943677-38.138257 80.713264-65.635939 109.215255a35.392302 35.392302 0 0 1-25.667047 10.85669z m-65.343547-550.462171a20.454818 20.454818 0 0 0-6.47079 39.841765c75.793429 25.425504 130.801508 130.229434 130.801507 249.169944 0 84.590653-27.548534 163.676685-73.733963 211.527484a20.454818 20.454818 0 0 0 29.442734 28.387576c25.997578-26.963747 47.532981-62.851847 62.292486-103.799622 15.001048-41.685115 22.882954-88.747723 22.882954-136.115438 0-138.213042-65.254557-256.632329-158.693286-287.969264a20.340404 20.340404 0 0 0-6.521642-1.055158z" fill="#33241A" /><path d="M600.251926 1010.028329c26.69678-27.739225 56.012386-66.805513 71.08971-108.744882 15.255303-42.511443 23.366039-90.476658 23.366039-138.70884 0-140.399636-71.954178-260.789399-167.312532-294.223937 6.076696-2.54255 18.598757-3.241752 25.336515-0.978882C649.221447 499.738455 716.599034 621.132526 716.599034 762.574607c0 48.232182-8.08531 96.197396-23.366038 138.70884-15.077324 41.952082-37.1848 78.819064-63.945144 106.494725a27.968055 27.968055 0 0 1-20.200563 8.593821c-3.737549 0-14.606952 1.474679-18.102959 0a28.095182 28.095182 0 0 0 9.267596-6.343664z" fill="#FFFFFF" /><path d="M512.216117 485.055226a28.069757 28.069757 0 0 1 35.595706-17.683438l0.622925 0.216117a28.057044 28.057044 0 0 0 0.597499 53.012177C621.761903 545.021279 674.646952 646.78686 674.646952 762.574607c0 82.632889-26.69678 159.761157-71.560082 206.226267a27.968055 27.968055 0 0 0 10.538871 45.86761 28.044331 28.044331 0 0 1-29.722414-45.86761C628.766629 922.335765 655.577824 845.245635 655.577824 762.574607c0-115.787747-52.821485-217.553329-125.601992-241.974525a28.08247 28.08247 0 0 1-17.759715-35.544856z" fill="#EBA017" /><path d="M604.154741 1023.999644a35.697408 35.697408 0 0 1-25.692472-60.487275c43.477613-45.079419 69.487904-120.199072 69.487903-200.937762 0-112.609559-50.634892-211.336793-120.402476-234.740969A35.697408 35.697408 0 1 1 550.189108 460.201796c99.566275 33.3964 169.079605 157.765255 169.079604 302.436375 0 49.109362-8.237863 97.964469-23.810985 141.289528-15.445994 42.943677-38.138257 80.713264-65.635939 109.215255a35.392302 35.392302 0 0 1-25.667047 10.85669z m-65.343547-550.462171a20.454818 20.454818 0 0 0-6.47079 39.841765c75.793429 25.425504 130.801508 130.229434 130.801507 249.169944 0 84.590653-27.548534 163.676685-73.733963 211.527484a20.454818 20.454818 0 0 0 29.442734 28.387576c25.997578-26.963747 47.532981-62.851847 62.292486-103.799622 15.001048-41.685115 22.882954-88.747723 22.882954-136.115438 0-138.213042-65.254557-256.632329-158.693286-287.969264a20.340404 20.340404 0 0 0-6.521642-1.055158z" fill="#33241A" /><path d="M674.646952 721.181886h-20.060723a7.627651 7.627651 0 0 1 0-15.255303H674.646952a7.627651 7.627651 0 1 1 0 15.255303zM677.189502 758.15057h-20.060723a7.627651 7.627651 0 0 1 0-15.255303H677.189502a7.627651 7.627651 0 0 1 0 15.255303zM674.646952 795.119253h-20.060723a7.627651 7.627651 0 0 1 0-15.255303H674.646952a7.627651 7.627651 0 1 1 0 15.255303zM672.104401 832.100649h-20.060723a7.627651 7.627651 0 0 1 0-15.255302H672.104401a7.627651 7.627651 0 1 1 0 15.255302zM663.31989 869.069333h-19.99716a7.627651 7.627651 0 0 1 0-15.255303h19.99716a7.627651 7.627651 0 1 1 0 15.255303z" fill="#33241A" /><path d="M634.983165 7.627817h-78.463107l-22.234603 195.636544c1.067871-0.088989 2.148455-0.152553 3.229039-0.152553a38.926447 38.926447 0 0 1 1.690796 77.840181h-0.419521c-8.441267 0.266968-14.22557 6.496216-15.255303 14.87392l-11.441477 96.426226-11.441477-96.4008c-1.233137-8.542969-7.309833-14.899346-15.954504-14.899346-0.750052 0-1.500105 0-2.250157-0.063563a38.926447 38.926447 0 0 1 2.313721-77.776618 40.172297 40.172297 0 0 1 4.983399 0.330531L467.429091 7.627817H389.004122l-38.138256 135.441662 63.563761 322.82763H609.557661l63.563761-325.370181z" fill="#AEE4F5" /><path d="M609.557661 473.52476H414.429627a7.627651 7.627651 0 0 1-7.475099-6.152972l-63.563761-322.840343a7.627651 7.627651 0 0 1 0.139841-3.534145l38.138256-135.441662A7.627651 7.627651 0 0 1 389.004122 0.000165H467.429091a7.627651 7.627651 0 0 1 7.627651 6.763184l22.260029 195.776385a7.627651 7.627651 0 0 1-8.542969 8.428554 31.781881 31.781881 0 0 0-4.01723-0.266967 31.298796 31.298796 0 0 0-31.235232 33.205708 31.629328 31.629328 0 0 0 29.366457 29.417309h1.817924c12.127966 0 21.738806 8.898927 23.391464 21.52269l3.902815 32.773475 3.890102-32.684486c1.639945-12.572912 10.742276-21.217583 22.654125-21.611679h0.317818a31.553051 31.553051 0 0 0 29.900394-29.353745 31.311509 31.311509 0 0 0-31.247945-33.205709c-0.775478 0-1.627232 0-2.542551 0.127128a7.627651 7.627651 0 0 1-8.199725-8.466693L548.943258 6.763349a7.627651 7.627651 0 0 1 7.627651-6.763184h78.412256a7.627651 7.627651 0 0 1 7.335258 5.517335l38.138257 132.899111a7.538662 7.538662 0 0 1 0.152553 3.572284l-63.563761 325.37018a7.627651 7.627651 0 0 1-7.487811 6.165685z m-188.847935-15.255303h182.567835l62.012805-317.411997L629.237001 15.255468h-65.902908l-20.531094 180.521081a46.821066 46.821066 0 0 1 28.590979 14.314559 46.210854 46.210854 0 0 1 12.598338 34.743952 46.948194 46.948194 0 0 1-44.494633 43.69373h-0.533936c-6.41994 0.203404-7.729353 6.356376-7.970895 8.237863l-11.441477 96.324524a7.627651 7.627651 0 0 1-15.153601 0l-11.441477-96.4008c-0.241542-1.830636-1.589094-8.136161-8.288714-8.148875-0.889893 0-1.792498 0-2.695104-0.076276a46.554099 46.554099 0 0 1-0.813616-92.879368L460.665907 15.255468H394.788425L358.709634 143.374585z" fill="#33241A" /><path d="M539.20529 280.951989h-0.419521c-7.411535 0.241542-12.712752 5.085101-14.708654 11.911849a20.04801 20.04801 0 0 1 0.610212 2.987497L519.551375 395.366759l25.501781-89.624903c1.093297-8.390416 10.0685-12.522061 15.026473-13.34839 16.99695-2.860369 39.244266-24.154229 40.451977-48.04149 1.334839-26.69678-16.463014-53.02489-38.862883-55.56744a16.132483 16.132483 0 0 0-3.229039 0.13984L580.674288 7.627817h-24.15423l-22.234603 195.636544c1.067871-0.088989 2.148455-0.152553 3.229039-0.152553a38.926447 38.926447 0 0 1 1.690796 77.840181zM413.158351 7.627817h-24.154229l-38.138256 135.428949 63.563761 322.840343h24.154229l-63.563761-322.840343L413.158351 7.627817z" fill="#FFFFFF" /><path d="M484.79471 280.951989h0.432234c7.424247 0.241542 12.789029 5.085101 14.721367 11.911849a21.789657 21.789657 0 0 0-0.622925 2.987497l5.123239 99.515424-25.501781-89.624903c-1.093297-8.390416-10.170202-12.229668-15.026473-13.34839a51.957018 51.957018 0 0 1-40.451977-48.04149c-1.271275-26.69678 16.526578-53.02489 38.85017-55.56744a16.208759 16.208759 0 0 1 3.241752 0.13984L443.274861 7.627817h24.15423l22.234603 195.636544c-1.067871-0.088989-2.148455-0.152553-3.241751-0.152553a38.926447 38.926447 0 0 0-1.627233 77.840181zM610.828936 7.627817h24.154229l38.138257 135.428949-63.563761 322.840343h-24.15423l63.563761-322.840343L610.828936 7.627817z" fill="#64CAE2" /><path d="M397.979325 465.897109h228.04135v47.456704A23.086358 23.086358 0 0 1 602.934317 536.478309H421.065683a23.086358 23.086358 0 0 1-23.086358-23.086358v-47.494842z" fill="#FF7997" /><path d="M602.934317 544.10596H421.065683a30.752148 30.752148 0 0 1-30.714009-30.714009v-55.122494h243.296652v55.097069A30.752148 30.752148 0 0 1 602.934317 544.10596zM405.606977 473.52476v39.841766A15.484132 15.484132 0 0 0 421.065683 528.850658h181.868634a15.484132 15.484132 0 0 0 15.458706-15.458707v-39.867191z" fill="#33241A" /><path d="M397.979325 465.897109h228.04135v18.179235H397.979325z" fill="#FFFFFF" /><path d="M403.86533 516.11248h216.26934v18.179236H403.86533z" fill="#E85D88" /><path d="M602.934317 544.10596H421.065683a30.752148 30.752148 0 0 1-30.714009-30.714009v-55.122494h243.296652v55.097069A30.752148 30.752148 0 0 1 602.934317 544.10596zM405.606977 473.52476v39.841766A15.484132 15.484132 0 0 0 421.065683 528.850658h181.868634a15.484132 15.484132 0 0 0 15.458706-15.458707v-39.867191z" fill="#33241A" /><path d="M609.557661 473.52476H414.429627a7.627651 7.627651 0 0 1-7.475099-6.152972l-63.563761-322.840343a7.627651 7.627651 0 0 1 0.139841-3.534145l38.138256-135.441662A7.627651 7.627651 0 0 1 389.004122 0.000165H467.429091a7.627651 7.627651 0 0 1 7.627651 6.763184l22.260029 195.776385a7.627651 7.627651 0 0 1-8.542969 8.428554 31.781881 31.781881 0 0 0-4.01723-0.266967 31.298796 31.298796 0 0 0-31.235232 33.205708 31.629328 31.629328 0 0 0 29.366457 29.417309h1.817924c12.127966 0 21.738806 8.898927 23.391464 21.52269l3.902815 32.773475 3.890102-32.684486c1.639945-12.572912 10.742276-21.217583 22.654125-21.611679h0.317818a31.553051 31.553051 0 0 0 29.900394-29.353745 31.311509 31.311509 0 0 0-31.247945-33.205709c-0.775478 0-1.627232 0-2.542551 0.127128a7.627651 7.627651 0 0 1-8.199725-8.466693L548.943258 6.763349a7.627651 7.627651 0 0 1 7.627651-6.763184h78.412256a7.627651 7.627651 0 0 1 7.335258 5.517335l38.138257 132.899111a7.538662 7.538662 0 0 1 0.152553 3.572284l-63.563761 325.37018a7.627651 7.627651 0 0 1-7.487811 6.165685z m-188.847935-15.255303h182.567835l62.012805-317.411997L629.237001 15.255468h-65.902908l-20.531094 180.521081a46.821066 46.821066 0 0 1 28.590979 14.314559 46.210854 46.210854 0 0 1 12.598338 34.743952 46.948194 46.948194 0 0 1-44.494633 43.69373h-0.533936c-6.41994 0.203404-7.729353 6.356376-7.970895 8.237863l-11.441477 96.324524a7.627651 7.627651 0 0 1-15.153601 0l-11.441477-96.4008c-0.241542-1.830636-1.589094-8.136161-8.288714-8.148875-0.889893 0-1.792498 0-2.695104-0.076276a46.554099 46.554099 0 0 1-0.813616-92.879368L460.665907 15.255468H394.788425L358.709634 143.374585z" fill="#33241A" /></svg>