<?xml version="1.0" standalone="no"?><!DOCTYPE svg PUBLIC "-//W3C//DTD SVG 1.1//EN" "http://www.w3.org/Graphics/SVG/1.1/DTD/svg11.dtd"><svg class="icon" width="200px" height="200.00px" viewBox="0 0 1024 1024" version="1.1" xmlns="http://www.w3.org/2000/svg"><path d="M512.822309 811.008743h-31.831311V569.939617c0-68.516896 56.009844-124.261479 124.845053-124.261479H879.969951c51.288199 0 93.013742-41.460282 93.013742-92.416905V195.178986a31.207947 31.207947 0 0 0-31.300789-31.035528H742.89637v-31.83131h198.773271a63.079047 63.079047 0 0 1 63.1321 62.866838v158.082247C1004.801741 421.764866 948.791897 477.469659 879.969951 477.469659H605.836051c-51.288199 0-93.013742 41.460282-93.013742 92.430169z" fill="#33241A" /><path d="M72.343285 7.957828l847.999378 0 0 280.553214-847.999378 0 0-280.553214Z" fill="#FF7997" /><path d="M880.553525 296.468869H112.132423a47.746966 47.746966 0 0 1-47.746966-47.746966V47.746966a47.746966 47.746966 0 0 1 47.746966-47.746966h768.421102a47.746966 47.746966 0 0 1 47.746966 47.746966v200.974937a47.746966 47.746966 0 0 1-47.746966 47.746966zM112.132423 15.915655a31.831311 31.831311 0 0 0-31.83131 31.831311v200.974937a31.831311 31.831311 0 0 0 31.83131 31.831311h768.421102a31.831311 31.831311 0 0 0 31.831311-31.831311V47.746966a31.831311 31.831311 0 0 0-31.831311-31.831311z" fill="#33241A" /><path d="M880.553525 249.942104H112.132423a39.789138 39.789138 0 0 1-39.789138-39.789139v38.568938a39.789138 39.789138 0 0 0 39.789138 39.789139h768.421102a39.789138 39.789138 0 0 0 39.789138-39.789139v-38.568938a39.789138 39.789138 0 0 1-39.789138 39.789139z" fill="#E85D88" /><path d="M880.553525 49.895579H112.132423a39.789138 39.789138 0 0 0-39.789138 39.789139V51.129043a39.789138 39.789138 0 0 1 39.789138-39.789139h768.421102a39.789138 39.789138 0 0 1 39.789138 39.789139v38.555675a39.789138 39.789138 0 0 0-39.789138-39.789139z" fill="#FFFFFF" /><path d="M606.207416 649.411789l0 372.718122-219.715621 0 0-372.718122 219.715621 0Z" fill="#AEE4F5" /><path d="M566.418278 643.324051h-37.136529a39.789138 39.789138 0 0 1 39.789138 39.789138v293.113319a39.789138 39.789138 0 0 1-39.789138 39.789138h37.136529a39.789138 39.789138 0 0 0 39.789138-39.789138v-293.113319a39.789138 39.789138 0 0 0-39.789138-39.789138z" fill="#64CAE2" /><path d="M426.280933 643.324051h37.136529a39.789138 39.789138 0 0 0-39.789138 39.789138v293.113319a39.789138 39.789138 0 0 0 39.789138 39.789138h-37.136529a39.789138 39.789138 0 0 1-39.789138-39.789138v-293.113319a39.789138 39.789138 0 0 1 39.789138-39.789138z" fill="#FFFFFF" /><path d="M270.307511 7.957828h-64.551245v119.805095A32.375096 32.375096 0 0 0 238.03852 160.045177a32.361832 32.361832 0 0 0 32.268991-32.268991V84.432551a32.282254 32.282254 0 0 1 64.551245 0v8.196563a32.268991 32.268991 0 0 0 64.537983 0V7.957828z" fill="#F7C11C" /><path d="M238.03852 164.024091a36.300957 36.300957 0 0 1-36.261168-36.261168V3.978914h201.5983v88.636937a36.247905 36.247905 0 0 1-72.495809 0v-8.1833a28.30334 28.30334 0 0 0-56.593418 0v43.330372A36.287694 36.287694 0 0 1 238.03852 164.024091zM209.735179 11.936741v115.826182a28.30334 28.30334 0 1 0 56.593418 0V84.432551a36.261168 36.261168 0 0 1 72.509073 0v8.1833a28.290077 28.290077 0 0 0 56.580155 0V11.936741h-125.110314z" fill="#33241A" /><path d="M270.307511 7.957828h-64.551245v31.685417h193.640473V7.957828h-129.089228z" fill="#FFFFFF" /><path d="M810.73685 57.322885l25.86294 0 0 56.978046-25.86294 0 0-56.978046Z" fill="#FFFFFF" /><path d="M707.736034 185.337806l25.86294 0 0 56.978046-25.86294 0 0-56.978046Z" fill="#FFFFFF" /><path d="M619.443936 57.322885l25.86294 0 0 56.978046-25.86294 0 0-56.978046Z" fill="#FFFFFF" /><path d="M516.44312 185.337806l25.86294 0 0 56.978046-25.86294 0 0-56.978046Z" fill="#FFFFFF" /><path d="M428.151023 57.322885l25.862939 0 0 56.978046-25.862939 0 0-56.978046Z" fill="#FFFFFF" /><path d="M325.16347 185.337806l25.86294 0 0 56.978046-25.86294 0 0-56.978046Z" fill="#FFFFFF" /><path d="M133.870556 185.337806l25.86294 0 0 56.978046-25.86294 0 0-56.978046Z" fill="#FFFFFF" /><path d="M566.418278 1024H426.280933a47.746966 47.746966 0 0 1-47.746966-47.746966v-293.113319a47.746966 47.746966 0 0 1 47.746966-47.746966h140.137345a47.746966 47.746966 0 0 1 47.746966 47.746966v293.113319a47.746966 47.746966 0 0 1-47.746966 47.746966z m-140.137345-372.691595a31.831311 31.831311 0 0 0-31.831311 31.83131v293.113319a31.831311 31.831311 0 0 0 31.831311 31.831311h140.137345a31.831311 31.831311 0 0 0 31.831311-31.831311v-293.113319a31.831311 31.831311 0 0 0-31.831311-31.83131z" fill="#33241A" /><path d="M476.322406 960.244537h-33.356561a7.957828 7.957828 0 0 1 0-15.915655h33.356561a7.957828 7.957828 0 1 1 0 15.915655zM597.533384 960.244537h-83.411297a7.957828 7.957828 0 0 1 0-15.915655h83.411297a7.957828 7.957828 0 0 1 0 15.915655zM544.680146 707.212144H511.257269a7.957828 7.957828 0 1 1 0-15.915655h33.422877a7.957828 7.957828 0 1 1 0 15.915655zM473.51064 707.212144h-83.398034a7.957828 7.957828 0 0 1 0-15.915655h83.398034a7.957828 7.957828 0 0 1 0 15.915655zM880.553525 296.468869H112.132423a47.746966 47.746966 0 0 1-47.746966-47.746966V47.746966a47.746966 47.746966 0 0 1 47.746966-47.746966h768.421102a47.746966 47.746966 0 0 1 47.746966 47.746966v200.974937a47.746966 47.746966 0 0 1-47.746966 47.746966zM112.132423 15.915655a31.831311 31.831311 0 0 0-31.83131 31.831311v200.974937a31.831311 31.831311 0 0 0 31.83131 31.831311h768.421102a31.831311 31.831311 0 0 0 31.831311-31.831311V47.746966a31.831311 31.831311 0 0 0-31.831311-31.831311z" fill="#33241A" /><path d="M238.03852 168.003005a40.279871 40.279871 0 0 1-40.240082-40.240082V0h209.556128v92.615851a40.226819 40.226819 0 0 1-80.453637 0v-8.1833a24.324427 24.324427 0 0 0-48.63559 0v43.330372A40.279871 40.279871 0 0 1 238.03852 168.003005zM213.714093 15.915655v111.847268a24.324427 24.324427 0 1 0 48.63559 0V84.432551a40.240082 40.240082 0 0 1 80.466901 0v8.1833a24.311163 24.311163 0 0 0 48.622327 0V15.915655h-121.1314z" fill="#33241A" /><path d="M40.127346 112.81547h32.215939v70.824666H40.127346A12.971259 12.971259 0 0 1 27.156087 170.68214V125.786729a12.971259 12.971259 0 0 1 12.971259-12.971259z" fill="#AEE4F5" /><path d="M80.301113 191.597964H40.127346A20.94235 20.94235 0 0 1 19.198259 170.68214V125.786729a20.955613 20.955613 0 0 1 20.929087-20.929087h40.173767z m-40.173767-70.824666A5.079747 5.079747 0 0 0 35.113915 125.786729v44.895411a5.066484 5.066484 0 0 0 5.013431 5.000169h24.258111v-54.909011z" fill="#33241A" /><path d="M40.127346 112.81547A13.011048 13.011048 0 0 0 27.156087 125.786729v17.24196a13.011048 13.011048 0 0 1 12.971259-12.971259h32.215939v-17.24196z" fill="#FFFFFF" /><path d="M40.127346 185.337806A13.011048 13.011048 0 0 1 27.156087 172.419599v-17.24196a13.011048 13.011048 0 0 0 12.971259 12.971259h32.215939v17.24196z" fill="#64CAE2" /><path d="M80.301113 191.597964H40.127346A20.94235 20.94235 0 0 1 19.198259 170.68214V125.786729a20.955613 20.955613 0 0 1 20.929087-20.929087h40.173767z m-40.173767-70.824666A5.079747 5.079747 0 0 0 35.113915 125.786729v44.895411a5.066484 5.066484 0 0 0 5.013431 5.000169h24.258111v-54.909011z" fill="#33241A" /></svg>