<?xml version="1.0" standalone="no"?><!DOCTYPE svg PUBLIC "-//W3C//DTD SVG 1.1//EN" "http://www.w3.org/Graphics/SVG/1.1/DTD/svg11.dtd"><svg class="icon" width="200px" height="200.00px" viewBox="0 0 1024 1024" version="1.1" xmlns="http://www.w3.org/2000/svg"><path d="M878.2 294.6H463.3c-9 0-16.4 7.3-16.4 16.4v104.4c46 5.4 81.9 44.6 81.9 92.1v16.4h87.3c51.2 0 92.8 41.6 92.8 92.8v223.8h169.2c9 0 16.4-7.3 16.4-16.4V311c0-9-7.3-16.4-16.3-16.4zM670.7 147.3H550.6c-18.1 0-32.8-14.7-32.8-32.8 0-18.1 14.7-32.8 32.8-32.8h240.2c18.1 0 32.8 14.7 32.8 32.8 0 18.1-14.7 32.8-32.8 32.8h-45.4" fill="#FF7A51" /><path d="M850.9 944.2c-15.1 0-27.3-12.2-27.3-27.3v-38.2h54.6v38.2c0 15.1-12.3 27.3-27.3 27.3z" fill="#8F96AA" /><path d="M146.7 906c-9 0-16.4-7.3-16.4-16.4V616.7c0-9 7.3-16.4 16.4-16.4h469.4c9 0 16.4 7.3 16.4 16.4v272.9c0 9-7.3 16.4-16.4 16.4H146.7z" fill="#FFF370" /><path d="M179.4 663.3V562.1h76.5v382.1h-76.5V733.3M507 790V562.1h76.4v382.1H507v-81.9" fill="#FFFFFF" /><path d="M878.2 240.1h-76.4v-77.7c21.9-5 38.2-24.6 38.2-47.9 0-27.1-22-49.1-49.1-49.1H550.6c-27.1 0-49.1 22-49.1 49.1 0 23.3 16.4 42.9 38.2 47.9v77.7h-76.4c-39.1 0-71 31.8-71 71v73.7c0 9 7.3 16.4 16.4 16.4 9 0 16.4-7.3 16.4-16.4V311c0-21.1 17.1-38.2 38.2-38.2h414.9c21.1 0 38.2 17.1 38.2 38.2v513.1c0 21.1-17.1 38.2-38.2 38.2h-131c-9 0-16.4 7.3-16.4 16.4 0 9 7.3 16.4 16.4 16.4h60v21.8c0 24.1 19.6 43.7 43.7 43.7s43.7-19.6 43.7-43.7v-23.8c31.3-7.4 54.6-35.5 54.6-69V311c-0.1-39.1-31.9-70.9-71-70.9z m-305.7 0v-76.4h98.3c9 0 16.4-7.3 16.4-16.4 0-9-7.3-16.4-16.4-16.4H550.6c-9 0-16.4-7.3-16.4-16.4 0-9 7.3-16.4 16.4-16.4h240.2c9 0 16.4 7.3 16.4 16.4 0 9-7.3 16.4-16.4 16.4h-45.4c-9 0-16.4 7.3-16.4 16.4 0 9 7.3 16.4 16.4 16.4H769v76.4H572.5z m289.3 676.8c0 6-4.9 10.9-10.9 10.9s-10.9-4.9-10.9-10.9v-21.8h21.8v21.8z" fill="#4F3D3B" /><path d="M670.7 376.5c-9 0-16.4 7.3-16.4 16.4v98.3c0 9 7.3 16.4 16.4 16.4 9 0 16.4-7.3 16.4-16.4v-98.3c0-9.1-7.3-16.4-16.4-16.4zM577.9 485.7v-92.8c0-9-7.3-16.4-16.4-16.4-9 0-16.4 7.3-16.4 16.4v92.8c0 9 7.3 16.4 16.4 16.4 9.1 0 16.4-7.4 16.4-16.4zM779.9 609.9c9 0 16.4-7.3 16.4-16.4V392.9c0-9-7.3-16.4-16.4-16.4-9 0-16.4 7.3-16.4 16.4v200.6c0 9 7.4 16.4 16.4 16.4zM763.5 742.2c0 9 7.3 16.4 16.4 16.4 9 0 16.4-7.3 16.4-16.4v-71c0-9-7.3-16.4-16.4-16.4-9 0-16.4 7.3-16.4 16.4v71z" fill="#4F3D3B" /><path d="M616.1 545.7H507v-38.2c0-39.1-31.8-71-71-71H326.8c-39.1 0-71 31.8-71 71v38.2H146.6c-39.1 0-71 31.8-71 71v272.9c0 39.1 31.8 71 71 71H616.2c39.1 0 71-31.8 71-71V616.7c-0.1-39.1-31.9-71-71.1-71zM239.5 927.8h-43.7V733.3c0-9-7.3-16.4-16.4-16.4-9 0-16.4 7.3-16.4 16.4v194.6h-16.4c-21.1 0-38.2-17.1-38.2-38.2v-273c0-21.1 17.1-38.2 38.2-38.2H163v84.8c0 9 7.3 16.4 16.4 16.4 9 0 16.4-7.3 16.4-16.4v-84.8h43.7v349.3z m327.5 0h-43.7v-65.5c0-9-7.3-16.4-16.4-16.4-9 0-16.4 7.3-16.4 16.4v65.5H272.2V578.5c9 0 16.4-7.3 16.4-16.4v-54.6c0-21.1 17.1-38.2 38.2-38.2H436c21.1 0 38.2 17.1 38.2 38.2v38.2H343.7c-9 0-16.4 7.3-16.4 16.4 0 9 7.3 16.4 16.4 16.4h146.9V790c0 9 7.3 16.4 16.4 16.4 9 0 16.4-7.3 16.4-16.4V578.5H567v349.3z m87.3-38.2c0 21.1-17.1 38.2-38.2 38.2h-16.4V578.5h16.4c21.1 0 38.2 17.1 38.2 38.2v272.9z" fill="#4F3D3B" /></svg>