<?xml version="1.0" standalone="no"?><!DOCTYPE svg PUBLIC "-//W3C//DTD SVG 1.1//EN" "http://www.w3.org/Graphics/SVG/1.1/DTD/svg11.dtd"><svg class="icon" width="200px" height="200.00px" viewBox="0 0 1024 1024" version="1.1" xmlns="http://www.w3.org/2000/svg"><path d="M509.6 513.7m-232.3 0a232.3 232.3 0 1 0 464.6 0 232.3 232.3 0 1 0-464.6 0Z" fill="#E6EBEF" /><path d="M504.6 424.7m-103.8 0a103.8 103.8 0 1 0 207.6 0 103.8 103.8 0 1 0-207.6 0Z" fill="#FFFFFF" /><path d="M450.3 424.7a79.1 100.8 0 1 0 158.2 0 79.1 100.8 0 1 0-158.2 0Z" fill="#9ADCCF" /><path d="M504.6 543.3c-65.4 0-118.6-53.2-118.6-118.6s53.2-118.6 118.6-118.6 118.6 53.2 118.6 118.6S570 543.3 504.6 543.3z m0-207.5c-49.1 0-89 39.9-89 89s39.9 89 89 89 89-39.9 89-89-39.9-89-89-89z" fill="#4F3D3B" /><path d="M603.5 493.9m-103.8 0a103.8 103.8 0 1 0 207.6 0 103.8 103.8 0 1 0-207.6 0Z" fill="#FFFFFF" /><path d="M534.6 528.9c0 19.7 5.5 38 15 53.7 15.7 9.6 34.2 15.1 53.9 15.1 57.3 0 103.8-46.5 103.8-103.8 0-19.7-5.5-38-15-53.7-15.7-9.6-34.2-15.1-53.9-15.1-57.3 0-103.8 46.5-103.8 103.8z" fill="#FF7A51" /><path d="M603.5 612.5c-65.4 0-118.6-53.2-118.6-118.6s53.2-118.6 118.6-118.6c37 0 71.2 16.8 93.9 46.1 5 6.5 3.8 15.8-2.7 20.8s-15.8 3.8-20.8-2.7c-17-22-42.7-34.6-70.4-34.6-49.1 0-89 39.9-89 89s39.9 89 89 89 89-39.9 89-89c0-8.2 6.6-14.8 14.8-14.8s14.8 6.6 14.8 14.8c0 65.4-53.2 118.6-118.6 118.6z" fill="#4F3D3B" /><path d="M549.1 597.7m-103.8 0a103.8 103.8 0 1 0 207.6 0 103.8 103.8 0 1 0-207.6 0Z" fill="#FFFFFF" /><path d="M448.3 622.4a100.8 79.1 0 1 0 201.6 0 100.8 79.1 0 1 0-201.6 0Z" fill="#309AA5" /><path d="M549.1 716.3c-65.4 0-118.6-53.2-118.6-118.6s53.2-118.6 118.6-118.6 118.6 53.2 118.6 118.6-53.2 118.6-118.6 118.6z m0-207.6c-49.1 0-89 39.9-89 89s39.9 89 89 89 89-39.9 89-89-39.9-89-89-89z" fill="#4F3D3B" /><path d="M509.6 795.4c-155.3 0-281.7-126.4-281.7-281.7 0-77.5 30.9-149.8 86.9-203.5 5.9-5.7 15.3-5.5 21 0.4s5.5 15.3-0.4 21c-50.1 48-77.7 112.7-77.7 182.1 0 139 113.1 252.1 252.1 252.1s252.1-113.1 252.1-252.1-113.3-252.1-252.3-252.1c-40.1 0-78.5 9.2-114 27.2-7.3 3.7-16.2 0.8-19.9-6.5-3.7-7.3-0.8-16.2 6.5-19.9 39.7-20.2 82.6-30.4 127.4-30.4 155.3 0 281.7 126.4 281.7 281.7S664.9 795.4 509.6 795.4z" fill="#4F3D3B" /><path d="M333.2 586.2c0 41.2 33.4 74.6 74.6 74.6 30.4 0 56.5-18.2 68.1-44.3 5.6 1.1 11.3 1.7 17.1 1.7 50 0 90.6-40.6 90.6-90.6S543 437 493 437c-6.8 0-13.4 0.8-19.8 2.2-16.6-20.8-42.1-34.2-70.8-34.2-50 0-90.6 40.6-90.6 90.6 0 11.6 2.2 22.7 6.2 33" fill="#FFFFFF" /><path d="M425.6 518.6m-44.5 0a44.5 44.5 0 1 0 89 0 44.5 44.5 0 1 0-89 0Z" fill="#FFF370" /><path d="M493.1 422.3c-4.6 0-9.4 0.3-14.1 1-19.9-21.1-47.3-33-76.5-33-58.1 0-105.4 47.3-105.4 105.4 0 13.3 2.4 26.2 7.2 38.4 3 7.6 11.6 11.4 19.2 8.4s11.4-11.6 8.4-19.2c-3.5-8.8-5.2-18.1-5.2-27.6 0-41.8 34-75.8 75.8-75.8 23.1 0 44.7 10.4 59.2 28.6 3.5 4.4 9.3 6.4 14.8 5.2 5.5-1.3 11.1-1.9 16.5-1.9 41.8 0 75.8 34 75.8 75.8s-34 75.8-75.8 75.8c-4.6 0-9.4-0.5-14.3-1.4-6.7-1.3-13.5 2.2-16.3 8.5-9.6 21.6-31 35.5-54.6 35.5-33 0-59.8-26.8-59.8-59.8 0-8.2-6.6-14.8-14.8-14.8s-14.8 6.6-14.8 14.8c0 49.3 40.1 89.4 89.4 89.4 31.5 0 60.4-16.6 76.4-42.9 3 0.3 6 0.4 8.9 0.4 58.1 0 105.4-47.3 105.4-105.4 0-58.1-47.3-105.4-105.4-105.4z" fill="#4F3D3B" /><path d="M484.9 518.6c0-32.7-26.6-59.3-59.3-59.3s-59.3 26.6-59.3 59.3 26.6 59.3 59.3 59.3c32.7 0 59.3-26.6 59.3-59.3z m-89 0.1c0-16.4 13.3-29.7 29.7-29.7 16.3 0 29.6 13.3 29.7 29.7 0 16.4-13.3 29.7-29.7 29.7s-29.7-13.3-29.7-29.7z" fill="#4F3D3B" /><path d="M138.9 746c-19.1 0-34.6-15.5-34.6-34.6v-89c0-19.1 15.5-34.6 34.6-34.6s34.6 15.5 34.6 34.6v89c0 19.1-15.5 34.6-34.6 34.6z" fill="#E6EBEF" /><path d="M198.2 286.3c-8.2 0-14.8 6.6-14.8 14.8v118.6c0 8.2-6.7 14.8-14.8 14.8h-59.3c-8.2 0-14.8-6.7-14.8-14.8V301.2c0-8.2-6.6-14.8-14.8-14.8s-14.8 6.6-14.8 14.8v118.6c0 24.5 20 44.5 44.5 44.5h14.8v110.9c-20.1 6.3-34.7 25.1-34.7 47.2v89c0 27.2 22.2 49.4 49.4 49.4 27.3 0 49.4-22.2 49.4-49.4v-89c0-22-14.5-40.7-34.5-47.1v-111h14.8c24.5 0 44.5-20 44.5-44.5V301.2c0-8.2-6.7-14.9-14.9-14.9z m-39.5 425.1c0 10.9-8.9 19.8-19.8 19.8s-19.8-8.9-19.8-19.8v-89c0-10.6 8.4-19.3 18.9-19.8 0.3 0 0.7 0.1 1 0.1h0.9c10.4 0.5 18.8 9.2 18.8 19.7v89z" fill="#4F3D3B" /><path d="M138.9 409.5c8.2 0 14.8-6.6 14.8-14.8v-93.6c0-8.2-6.6-14.8-14.8-14.8s-14.8 6.6-14.8 14.8v93.6c0 8.2 6.6 14.8 14.8 14.8z" fill="#4F3D3B" /><path d="M909.9 746c-19.1 0-34.6-15.5-34.6-34.6v-89c0-19.1 15.5-34.6 34.6-34.6s34.6 15.5 34.6 34.6v89c0 19.1-15.5 34.6-34.6 34.6zM909.9 414.8v98.8h-69.2V365.4c0-38.2 31-69.2 69.2-69.2V343" fill="#E6EBEF" /><path d="M924.7 575.3v-61.6V414.8c0-8.2-6.6-14.8-14.8-14.8s-14.8 6.6-14.8 14.8v84h-39.5V365.4c0-24.8 16.7-45.8 39.5-52.3V343c0 8.2 6.6 14.8 14.8 14.8s14.8-6.6 14.8-14.8v-46.8c0-8.2-6.6-14.8-14.8-14.8-46.3 0-84 37.7-84 84v148.3c0 8.2 6.6 14.8 14.8 14.8h54.4v46.8c-20 6.3-34.6 25.1-34.6 47.1v89c0 27.2 22.2 49.4 49.4 49.4 27.3 0 49.4-22.2 49.4-49.4v-89c0-22-14.6-40.8-34.6-47.1z m5 136.1c0 10.9-8.9 19.8-19.8 19.8s-19.8-8.9-19.8-19.8v-89c0-10.9 8.9-19.8 19.8-19.8s19.8 8.9 19.8 19.8v89z" fill="#4F3D3B" /></svg>