<?xml version="1.0" standalone="no"?><!DOCTYPE svg PUBLIC "-//W3C//DTD SVG 1.1//EN" "http://www.w3.org/Graphics/SVG/1.1/DTD/svg11.dtd"><svg class="icon" width="200px" height="200.00px" viewBox="0 0 1024 1024" version="1.1" xmlns="http://www.w3.org/2000/svg"><path d="M409.7 372.4l40.2-150.3h-58.5v150.3z" fill="#FFF370" /><path d="M886.7 856.5c0 30.7-24.9 55.7-55.7 55.7H140.9c-30.7 0-55.7-24.9-55.7-55.7V467c0-30.7 24.9-55.7 55.7-55.7H831c30.7 0 55.7 24.9 55.7 55.7v389.5z" fill="#FFFFFF" /><path d="M868.5 380.2L903.4 250l-354.8-95.1-58.3 217.5H831c13.3 0 26 2.8 37.5 7.8z" fill="#FF7A51" /><path d="M140.9 873.2c-9.2 0-16.7-7.5-16.7-16.7V467c0-9.2 7.5-16.7 16.7-16.7H831c9.2 0 16.7 7.5 16.7 16.7v389.6c0 9.2-7.5 16.7-16.7 16.7H140.9z" fill="#9ADCCF" /><path d="M140.9 873.2c-9.2 0-16.7-7.5-16.7-16.7V467c0-9.2 7.5-16.7 16.7-16.7H831c9.2 0 16.7 7.5 16.7 16.7v389.6c0 9.2-7.5 16.7-16.7 16.7H140.9z" fill="#9ADCCF" /><path d="M486 661.8m-172.5 0a172.5 172.5 0 1 0 345 0 172.5 172.5 0 1 0-345 0Z" fill="#309AA5" /><path d="M486 661.8m-111.3 0a111.3 111.3 0 1 0 222.6 0 111.3 111.3 0 1 0-222.6 0Z" fill="#FFFFFF" /><path d="M486 661.8c-41.2 0-77-22.4-96.3-55.7-9.5 16.4-15 35.4-15 55.7 0 61.5 49.8 111.3 111.3 111.3s111.3-49.8 111.3-111.3c0-20.3-5.5-39.3-15-55.7-19.3 33.2-55.1 55.7-96.3 55.7z" fill="#E6EBEF" /><path d="M786.5 544.9H742c-18.4 0-33.4-14.9-33.4-33.4 0-18.4 14.9-33.4 33.4-33.4h44.5c18.4 0 33.4 14.9 33.4 33.4 0 18.4-15 33.4-33.4 33.4z" fill="#FFF370" /><path d="M285.6 411.3H152.1v-33.4c0-18.4 14.9-33.4 33.4-33.4h66.8c18.4 0 33.4 14.9 33.4 33.4v33.4z" fill="#309AA5" /><path d="M786.5 461.4H742c-27.6 0-50.1 22.5-50.1 50.1s22.5 50.1 50.1 50.1h44.5c27.6 0 50.1-22.5 50.1-50.1s-22.5-50.1-50.1-50.1z m0 66.8H742c-9.2 0-16.7-7.5-16.7-16.7s7.5-16.7 16.7-16.7h44.5c9.2 0 16.7 7.5 16.7 16.7s-7.5 16.7-16.7 16.7z" fill="#4F3D3B" /><path d="M953.6 221c-6.7-11.6-17.5-19.9-30.4-23.3L852 178.6c-8.9-2.4-18.1 2.9-20.4 11.8-2.4 8.9 2.9 18.1 11.8 20.4l71.1 19.1c4.3 1.2 7.9 3.9 10.1 7.8 2.2 3.9 2.8 8.4 1.7 12.7L882 415.7c-13.1-13-31.1-21.1-51-21.1H461.3l67.2-250.9c1.2-4.3 3.9-7.9 7.8-10.1 3.9-2.2 8.4-2.8 12.7-1.7l213.6 57.2c8.9 2.4 18.1-2.9 20.4-11.8 2.4-8.9-2.9-18.1-11.8-20.4L557.6 99.7c-12.9-3.5-26.4-1.7-38 5-11.6 6.7-19.9 17.5-23.3 30.4l-69.5 259.5h-57.6v-178c0-9.2 7.5-16.7 16.7-16.7h44.5c9.2 0 16.7-7.5 16.7-16.7s-7.5-16.7-16.7-16.7h-44.5c-27.6 0-50.1 22.5-50.1 50.1v178.1h-33.4V378c0-27.6-22.5-50.1-50.1-50.1h-66.8c-27.6 0-50.1 22.5-50.1 50.1v17c-37.3 2.8-66.8 34-66.8 72v389.6c0 39.9 32.5 72.3 72.3 72.3H831c39.9 0 72.3-32.5 72.3-72.3v-83.5c0-9.2-7.5-16.7-16.7-16.7-1 0-1.9 0.1-2.8 0.3-0.9-0.2-1.8-0.3-2.8-0.3H649.7c16.2-27.9 25.5-60.2 25.5-94.6 0-104.3-84.9-189.2-189.2-189.2-104.3 0-189.2 84.9-189.2 189.2 0 34.5 9.3 66.8 25.5 94.6h-68.1c-9.2 0-16.7 7.5-16.7 16.7s7.5 16.7 16.7 16.7h87.2c1.7 0 3.2-0.3 4.8-0.8 34.6 38.1 84.5 62 139.9 62 55 0 104.6-23.6 139.2-61.2H870v66.8c0 21.5-17.5 39-39 39H140.9c-21.5 0-39-17.5-39-39v-66.8h61.2c9.2 0 16.7-7.5 16.7-16.7s-7.5-16.7-16.7-16.7H102V467c0-21.5 17.5-39 39-39h690c21.5 0 39 17.5 39 39v221.4c0 9.2 7.5 16.7 16.7 16.7s16.7-7.5 16.7-16.7V467c0-0.5-0.1-1.1-0.1-1.6L958.6 259c3.5-12.9 1.7-26.4-5-38zM486 817.6c-85.9 0-155.8-69.9-155.8-155.8S400.1 505.9 486 505.9s155.8 69.9 155.8 155.8S571.9 817.6 486 817.6z m-217.1-423H168.8v-16.7c0-9.2 7.5-16.7 16.7-16.7h66.8c9.2 0 16.7 7.5 16.7 16.7v16.7z" fill="#4F3D3B" /><path d="M486 533.8c-19.4 0-38 4.2-55.3 12.5-8.3 4-11.8 14-7.8 22.3 4 8.3 14 11.8 22.3 7.8 12.8-6.1 26.5-9.2 40.8-9.2 52.2 0 94.6 42.4 94.6 94.6 0 52.2-42.4 94.6-94.6 94.6s-94.6-42.4-94.6-94.6c0-14.4 3.2-28.2 9.4-41.1 4-8.3 0.5-18.3-7.8-22.3s-18.3-0.5-22.3 7.8c-8.4 17.4-12.7 36.1-12.7 55.6 0 70.6 57.4 128 128 128s128-57.4 128-128-57.4-128-128-128zM152.1 494.8v22.3c0 9.2 7.5 16.7 16.7 16.7s16.7-7.5 16.7-16.7v-22.3c0-9.2-7.5-16.7-16.7-16.7s-16.7 7.5-16.7 16.7zM207.7 494.8v22.3c0 9.2 7.5 16.7 16.7 16.7s16.7-7.5 16.7-16.7v-22.3c0-9.2-7.5-16.7-16.7-16.7s-16.7 7.5-16.7 16.7z" fill="#4F3D3B" /></svg>