<?xml version="1.0" standalone="no"?><!DOCTYPE svg PUBLIC "-//W3C//DTD SVG 1.1//EN" "http://www.w3.org/Graphics/SVG/1.1/DTD/svg11.dtd"><svg class="icon" width="200px" height="200.00px" viewBox="0 0 1024 1024" version="1.1" xmlns="http://www.w3.org/2000/svg"><path d="M568.2 852.2h352.2v55H568.2z" fill="#FF7A51" /><path d="M403.1 428.4m-154.1 0a154.1 154.1 0 1 0 308.2 0 154.1 154.1 0 1 0-308.2 0Z" fill="#9ADCCF" /><path d="M529.7 841.2c0-51.6 42-93.6 93.6-93.6h27.5v-29.8c0-4.3-1.8-8.5-5-11.8-27.8-28.5-41.8-67.7-38.6-107.4 3.3-40.3 24-75.7 54.6-98.6V153.3H144.4v715.5h385.3v-27.6zM210.5 428.4c0-106.4 86.2-192.6 192.6-192.6S595.7 322 595.7 428.4 509.5 621 403.1 621s-192.6-86.2-192.6-192.6z" fill="#E6EBEF" /><path d="M700.3 456c-9.1 0-16.5-7.4-16.5-16.5V147.8c0-9.1-7.4-16.5-16.5-16.5H309.6c-9.1 0-16.5-7.4-16.5-16.5s7.4-16.5 16.5-16.5h357.7c27.3 0 49.5 22.2 49.5 49.5v291.7c0 9.1-7.4 16.5-16.5 16.5zM557.2 714.7c0-9.1-7.4-16.5-16.5-16.5H265.5c-9.1 0-16.5 7.4-16.5 16.5s7.4 16.5 16.5 16.5h275.2c9.1 0 16.5-7.4 16.5-16.5zM469.2 797.2c9.1 0 16.5-7.4 16.5-16.5s-7.4-16.5-16.5-16.5H337.1c-9.1 0-16.5 7.4-16.5 16.5s7.4 16.5 16.5 16.5h132.1z" fill="#4F3D3B" /><path d="M480.1 890.8H138.9c-9.1 0-16.5-7.4-16.5-16.5V147.8c0-9.1 7.4-16.5 16.5-16.5H216c9.1 0 16.5-7.4 16.5-16.5s-7.4-16.5-16.5-16.5h-77.1c-27.3 0-49.5 22.2-49.5 49.5v726.5c0 27.3 22.2 49.5 49.5 49.5h341.3c9.1 0 16.4-7.4 16.4-16.5s-7.4-16.5-16.5-16.5z" fill="#4F3D3B" /><path d="M403.1 637.5c115.3 0 209.1-93.8 209.1-209.1s-93.8-209.1-209.1-209.1S194 313.1 194 428.4s93.8 209.1 209.1 209.1zM227.8 445h83.1c1.9 56.4 13.8 112.8 34.7 149.9-64-22.2-111.3-80.2-117.8-149.9z m175.3 159.6c-12.5 0-27.2-17.6-38.4-46-12.1-30.6-19.3-70.5-20.8-113.6h118.4c-1.5 43.1-8.7 83-20.8 113.6-11.2 28.4-25.9 46-38.4 46z m57.6-9.7c20.9-37.1 32.7-93.5 34.7-149.9h83.1c-6.6 69.7-53.9 127.7-117.8 149.9z m117.7-183h-83.1c-1.9-56.4-13.8-112.8-34.7-149.9 64 22.2 111.3 80.2 117.8 149.9z m-233-149.8c-5.1 9.1-9.9 19.5-14.1 31.2-3.1 8.6 1.4 18 10 21.1 8.6 3.1 18-1.4 21.1-10 11.4-31.6 27.4-52.1 40.7-52.1 12.5 0 27.2 17.6 38.4 46 12.1 30.6 19.3 70.5 20.8 113.6H344c0.4-10.4 0.9-20.6 2-30.6 0.9-9.1-5.7-17.2-14.7-18.1-9-0.9-17.2 5.7-18.1 14.7-1.1 11.1-1.9 22.5-2.2 34h-83.1c6.4-69.6 53.6-127.6 117.5-149.8zM865.4 769.7h-49.5v-51.8c0-10.1 3.9-19.6 10.9-26.7 21.4-21.7 33.2-50.5 33.2-81 0-32.8-14-64.2-38.5-86.1-24.4-21.9-57.3-32.4-90.2-28.7-54.7 6-97.6 50.3-102.1 105.2-2.7 33.4 9.1 66.4 32.4 90.3 7.3 7.4 11.2 17.1 11.2 27.1v51.8h-49.5c-39.5 0-71.5 32.1-71.5 71.5v66c0 9.1 7.4 16.5 16.5 16.5h194.5c9.1 0 16.5-7.4 16.5-16.5s-7.4-16.5-16.5-16.5h-178v-49.5c0-21.2 17.3-38.5 38.5-38.5h242.1c21.2 0 38.5 17.3 38.5 38.5v49.5h-55c-9.1 0-16.5 7.4-16.5 16.5s7.4 16.5 16.5 16.5h71.5c9.1 0 16.5-7.4 16.5-16.5v-66c0.1-39.5-32-71.6-71.5-71.6z m-82.5-51.9v51.8h-77.1v-51.7c0-18.7-7.3-36.5-20.6-50.2-16.7-17.1-25.1-40.6-23.1-64.6 3.1-38.5 34.4-70.8 72.8-75.1 23.9-2.6 46.8 4.6 64.5 20.5 17.5 15.7 27.5 38.1 27.5 61.5 0 21.8-8.4 42.3-23.7 57.9-13.1 13.3-20.3 31-20.3 49.9z" fill="#4F3D3B" /><path d="M744.3 615.6c20.6 0 40.2 4.7 57.6 13.2 1.9-6 3-12.2 3-18.7 0-33.4-27.2-60.5-60.5-60.5-2.3 0-4.7 0.1-7 0.4-28.1 3.1-51 26.7-53.3 55-0.7 8.3 0.3 16.3 2.8 23.9 17.3-8.6 36.8-13.3 57.4-13.3z" fill="#FF7A51" /></svg>