<?xml version="1.0" standalone="no"?><!DOCTYPE svg PUBLIC "-//W3C//DTD SVG 1.1//EN" "http://www.w3.org/Graphics/SVG/1.1/DTD/svg11.dtd"><svg class="icon" width="200px" height="200.00px" viewBox="0 0 1024 1024" version="1.1" xmlns="http://www.w3.org/2000/svg"><path d="M829 530.4l-87-221.5c-2.4-6-7.9-9.8-14.3-9.8H296c-6.4 0-11.9 3.8-14.3 9.8l-87.1 221.5c-6.8 17.4-10.3 35.6-10.3 54.2v118.6c0 8.4 6.9 15.3 15.3 15.3h624.2c8.4 0 15.3-6.9 15.3-15.3V584.6c0.2-18.6-3.3-36.8-10.1-54.2z m-586.4-11.3L315 334.9h393.9l72.3 184.2H242.6z" fill="#FF7A51" /><path d="M240.8 846.5h-10.2c-17 0-30.7-13.8-30.7-30.7v-61.4h71.6v61.4c-0.1 16.9-13.9 30.7-30.7 30.7zM793.2 846.5H783c-17 0-30.7-13.8-30.7-30.7v-61.4H824v61.4c0 16.9-13.8 30.7-30.8 30.7z" fill="#8F96AA" /><path d="M266.3 667.5h-20.5c-17 0-30.7-13.8-30.7-30.7 0-17 13.8-30.7 30.7-30.7h20.5c17 0 30.7 13.8 30.7 30.7s-13.7 30.7-30.7 30.7zM772.8 667.5h-20.5c-17 0-30.7-13.8-30.7-30.7 0-17 13.8-30.7 30.7-30.7h20.5c17 0 30.7 13.8 30.7 30.7s-13.8 30.7-30.7 30.7z" fill="#FFF370" /><path d="M66.8 506.3c0 13.4 9.5 24.9 22.6 27.6l63.3 12.7c2.1-9.9 4.9-19.7 8.7-29.2l7.7-19.7v-19.6H95c-15.6 0-28.2 12.7-28.2 28.2z m862.1-28.2h-74.2v19.6l7.7 19.7c3.7 9.5 6.6 19.2 8.7 29.2l63.3-12.7c13.2-2.7 22.6-14.2 22.6-27.6-0.1-15.5-12.6-28.2-28.1-28.2z" fill="#FF7A51" /><path d="M614.2 217.3l-8.3-25c-4.2-12.6-15.9-21-29.1-21H447.1c-13.2 0-24.9 8.4-29.1 21l-8.3 25" fill="#FFF370" /><path d="M450.5 621.5c-8.4 0-15.3 6.9-15.3 15.3s6.9 15.3 15.3 15.3h122.8c8.5 0 15.4-6.9 15.3-15.3 0-8.4-6.9-15.3-15.3-15.3H450.5zM793.8 527.8c2.9-4.2 3.5-9.6 1.6-14.3l-72.3-184.2c-2.4-5.9-8-9.8-14.3-9.8H600.7c-8.4 0-15.3 6.9-15.3 15.3s6.9 15.3 15.3 15.3h97.7l60.3 153.5H265L325.3 350h186.6c8.4 0 15.3-6.9 15.3-15.3s-6.9-15.3-15.3-15.3H315c-6.4 0-12 3.9-14.3 9.8l-72.3 184.2c-1.9 4.7-1.2 10.1 1.6 14.3 2.9 4.2 7.6 6.7 12.7 6.7h538.6c4.9 0 9.7-2.5 12.5-6.6zM245.8 590.8c-25.3 0-46 20.7-46 46s20.6 46 46 46h20.5c25.4 0 46-20.7 46-46s-20.6-46-46-46h-20.5z m35.8 45.9c0 8.4-6.9 15.3-15.3 15.3h-20.5c-8.4 0-15.3-6.9-15.3-15.3s6.9-15.3 15.3-15.3h20.5c8.4 0 15.3 6.9 15.3 15.3zM752.3 590.8c-25.3 0-46 20.7-46 46s20.6 46 46 46h20.5c25.4 0 46-20.7 46-46s-20.6-46-46-46h-20.5z m35.8 45.9c0 8.4-6.9 15.3-15.3 15.3h-20.5c-8.4 0-15.3-6.9-15.3-15.3s6.9-15.3 15.3-15.3h20.5c8.4 0 15.3 6.9 15.3 15.3z" fill="#4F3D3B" /><path d="M928.8 462.9h-71.1l-67.9-172.8c-10.1-25.6-34.4-42.2-61.9-42.2H296.1c-27.6 0-51.9 16.6-61.9 42.2l-67.9 172.8H94.8c-24 0-43.4 19.4-43.4 43.4 0 20.6 14.7 38.6 35 42.6l48.6 9.7c-1.1 8.5-1.6 17.3-1.6 26v118.6c0 31.4 21.9 57.7 51.2 64.7v47.8c0 25.3 20.6 46 46 46h10.2c25.3 0 46-20.7 46.1-46v-46.1H343c8.4 0 15.3-6.9 15.3-15.3S351.4 739 343 739H199.8c-19.8 0-35.8-16.1-35.8-35.8V584.6c0-10.1 0.9-20.1 2.7-29.9l1-4.9c2.1-9.3 4.7-18.3 8-26.8l8.7-22.3 78.3-199.3c5.5-13.8 18.5-22.7 33.3-22.7h431.7c14.8 0 27.9 9 33.3 22.7l78.2 199v0.3L848 523c3.4 8.4 6.1 17.5 8 26.8l1.4 6.8c1.5 9.3 2.4 18.6 2.4 28.1v118.6c0 19.8-16.1 35.8-35.8 35.8H435.1c-8.4 0-15.3 6.9-15.3 15.3s6.9 15.3 15.3 15.3H737v46.1c0 25.3 20.6 46 46 46h10.2c25.4 0 46.1-20.7 46.1-46v-48c29.2-7 51.1-33.3 51.2-64.6V584.6c0-8.7-0.6-17.4-1.7-26l48.4-9.7c20.3-4 35-21.9 35-42.6 0-23.9-19.5-43.4-43.4-43.4zM215.1 769.8H256v46c0 8.4-6.9 15.3-15.3 15.3h-10.2c-8.4 0-15.3-6.9-15.3-15.3l-0.1-46z m-61.2-275.4l-6.8 17.3c-2.2 5.6-4.1 11.2-5.8 17l-48.9-9.8c-6-1.2-10.3-6.5-10.3-12.6 0-7 5.8-12.8 12.8-12.8h59v0.9z m654.7 321.3c0 8.4-6.9 15.3-15.3 15.3H783c-8.4 0-15.3-6.9-15.3-15.3v-46h40.9v46z m122.8-296.9l-48.9 9.8c-1.6-5.7-3.6-11.3-5.8-16.9l-6.7-17v-1.2h59c7 0 12.8 5.8 12.8 12.8-0.1 6-4.4 11.2-10.4 12.5zM404.9 231.9c8.1 2.7 16.8-1.6 19.4-9.7l8.3-25.1c2.1-6.3 7.9-10.5 14.5-10.5h129.7c6.6 0 12.5 4.2 14.5 10.5l8.3 25c2.1 6.4 8.1 10.5 14.5 10.5 1.6 0 3.3-0.2 4.9-0.7 8-2.7 12.3-11.4 9.7-19.4l-8.3-25c-6.2-18.8-23.8-31.5-43.6-31.5H447.2c-19.8 0-37.4 12.7-43.6 31.5l-8.3 25c-2.8 8 1.6 16.7 9.6 19.4z" fill="#4F3D3B" /><path d="M319.3 421.9l-24.2 61.4h433.5l-24.1-61.4z" fill="#E6EBEF" /></svg>