<?xml version="1.0" standalone="no"?><!DOCTYPE svg PUBLIC "-//W3C//DTD SVG 1.1//EN" "http://www.w3.org/Graphics/SVG/1.1/DTD/svg11.dtd"><svg class="icon" width="200px" height="200.00px" viewBox="0 0 1024 1024" version="1.1" xmlns="http://www.w3.org/2000/svg"><path d="M726.479933 461.920176a21.911993 21.911993 0 0 1-30.88799 0L392.880037 159.21627a21.911993 21.911993 0 0 1 0-30.88799L498.832004 22.368313a21.903993 21.903993 0 0 1 30.88799 0l302.719906 302.719905a21.895993 21.895993 0 0 1-0.008 30.879991L726.479933 461.920176z" fill="#C3DDF7" /><path d="M735.37593 336.872215a15.967995 15.967995 0 0 1-11.319996-4.687999l-201.439937-201.439937a15.999995 15.999995 0 0 1 22.631993-22.631993l201.439937 201.439937a15.999995 15.999995 0 0 1-11.311997 27.319992zM657.223955 346.712212a15.951995 15.951995 0 0 1-11.319997-4.687999l-133.119958-133.127958a15.999995 15.999995 0 0 1 22.623993-22.623993l133.127958 133.119958a15.999995 15.999995 0 0 1-11.311996 27.319992z" fill="#3F4963" /><path d="M823.631903 258.096239c-9.463997-10.031997-13.815996-12.079996-29.015991-10.655996-124.447961 11.623996-228.823928 97.711969-273.623915 216.151932v-0.016c-4.863998 12.191996-7.631998 15.031995-10.991996 15.031995-3.359999 0-6.127998-2.839999-10.991997-15.039995v0.016c-44.799986-118.431963-149.183953-204.511936-273.623914-216.143932-15.199995-1.424-19.543994 0.624-29.007991 10.655996C115.640124 343.736213 65.680139 462.232176 65.680139 593.136135 65.680139 854.384053 264.608077 1008.000005 510.000001 1008.000005h0.008c245.383923 0 444.311861-153.623952 444.311861-414.85587 0-130.911959-49.951984-249.399922-130.679959-335.047896z" fill="#FFD553" /><path d="M764.559921 689.512105h-61.975981a15.999995 15.999995 0 1 1 0-31.99999h61.983981a15.999995 15.999995 0 1 1 0 31.99999z" fill="#FF6376" /><path d="M473.728012 669.496111a52.335984 52.335984 0 0 1-52.279984-52.271984 15.999995 15.999995 0 1 1 31.99999 0 20.303994 20.303994 0 0 0 20.279994 20.271994 20.295994 20.295994 0 0 0 20.271994-20.271994 15.999995 15.999995 0 1 1 31.99999 0 52.327984 52.327984 0 0 1-52.271984 52.271984z" fill="#3F4963" /><path d="M546.279989 669.496111a52.335984 52.335984 0 0 1-52.279983-52.271984 15.999995 15.999995 0 1 1 31.99999 0 20.303994 20.303994 0 0 0 20.279993 20.271994 20.295994 20.295994 0 0 0 20.271994-20.271994 15.999995 15.999995 0 1 1 31.99999 0 52.327984 52.327984 0 0 1-52.279984 52.271984zM762.543922 619.296126a15.999995 15.999995 0 0 1-15.999995-15.999995c0-7.151998-5.815998-12.959996-12.967996-12.959995s-12.967996 5.815998-12.967996 12.959995a15.999995 15.999995 0 1 1-31.99999 0c0-24.799992 20.175994-44.967986 44.967986-44.967985 24.799992 0 44.975986 20.175994 44.975986 44.967985a15.999995 15.999995 0 0 1-15.999995 15.999995z" fill="#3F4963" /><path d="M317.424061 689.512105H255.44008a15.999995 15.999995 0 1 1 0-31.99999h61.983981a15.999995 15.999995 0 1 1 0 31.99999z" fill="#FF6376" /><path d="M315.400061 619.296126a15.999995 15.999995 0 0 1-15.999995-15.999995c0-7.151998-5.823998-12.959996-12.975996-12.959995-7.151998 0-12.967996 5.815998-12.967995 12.959995a15.999995 15.999995 0 1 1-31.99999 0c0-24.799992 20.175994-44.967986 44.975985-44.967985s44.967986 20.175994 44.967986 44.967985a15.999995 15.999995 0 0 1-15.999995 15.999995z" fill="#3F4963" /><path d="M253.512081 383.1522m-28.607991 0a28.607991 28.607991 0 1 0 57.215982 0 28.607991 28.607991 0 1 0-57.215982 0Z" fill="#3F4963" opacity=".2" /><path d="M727.503933 399.128195m-28.607991 0a28.607991 28.607991 0 1 0 57.215982 0 28.607991 28.607991 0 1 0-57.215982 0Z" fill="#3F4963" opacity=".2" /><path d="M831.1599 497.928164m-28.607991 0a28.607991 28.607991 0 1 0 57.215982 0 28.607991 28.607991 0 1 0-57.215982 0Z" fill="#3F4963" opacity=".2" /><path d="M282.120072 851.104054m-28.607991 0a28.607991 28.607991 0 1 0 57.215982 0 28.607991 28.607991 0 1 0-57.215982 0Z" fill="#3F4963" opacity=".2" /><path d="M698.895942 794.656072m-28.607991 0a28.607991 28.607991 0 1 0 57.215982 0 28.607991 28.607991 0 1 0-57.215982 0Z" fill="#3F4963" opacity=".2" /><path d="M372.704044 795.400071m-28.607992 0a28.607991 28.607991 0 1 0 57.215983 0 28.607991 28.607991 0 1 0-57.215983 0Z" fill="#3F4963" opacity=".2" /><path d="M582.535978 892.408041m-28.607991 0a28.607991 28.607991 0 1 0 57.215982 0 28.607991 28.607991 0 1 0-57.215982 0Z" fill="#3F4963" opacity=".2" /><path d="M372.704044 469.320173m-28.607992 0a28.607991 28.607991 0 1 0 57.215983 0 28.607991 28.607991 0 1 0-57.215983 0Z" fill="#3F4963" opacity=".2" /><path d="M147.328114 627.528124m-28.607991 0a28.607991 28.607991 0 1 0 57.215982 0 28.607991 28.607991 0 1 0-57.215982 0Z" fill="#3F4963" opacity=".2" /><path d="M286.42407 558.328146a45.015986 45.015986 0 0 0-44.967985 44.967985 15.999995 15.999995 0 1 0 31.99999 0c0-7.151998 5.815998-12.959996 12.967995-12.959995s12.967996 5.815998 12.967996 12.959995a15.999995 15.999995 0 1 0 31.99999 0c0-24.799992-20.167994-44.967986-44.959986-44.967985zM835.263899 247.120243c-9.831997-10.431997-18.055994-16.079995-33.27999-16.079995-2.583999 0-5.399998 0.144-8.855997 0.472a321.671899 321.671899 0 0 0-27.767991 3.863998L541.039991 11.064317A37.567988 37.567988 0 0 0 514.271999 0.00032c-10.119997 0-19.623994 3.919999-26.751991 11.055997L381.568041 117.008283a37.599988 37.599988 0 0 0-11.063997 26.759992c0 10.127997 3.935999 19.631994 11.063997 26.759992l184.127942 184.127942a366.703885 366.703885 0 0 0-55.695982 93.215971c-23.543993-57.199982-60.703981-107.135967-107.951967-144.903955-51.039984-40.799987-111.607965-65.51998-175.167945-71.455977a94.319971 94.319971 0 0 0-8.855997-0.472c-15.231995 0-23.447993 5.647998-33.28799 16.079995C97.648129 339.520214 49.680144 462.400175 49.680144 593.152135c0 129.25596 46.863985 239.007925 135.535958 317.3759C268.024076 983.704013 383.36804 1024 510.000001 1024h0.016c126.62396 0 241.967924-40.303987 324.767898-113.471965 88.671972-78.367976 135.535958-188.119941 135.535958-317.3839 0-130.751959-47.959985-253.639921-135.039958-346.023892zM404.192034 147.896274a5.799998 5.799998 0 0 1-1.68-4.127999 5.839998 5.839998 0 0 1 1.68-4.135999L510.152001 33.680309a5.807998 5.807998 0 0 1 4.135998-1.679999c0.912 0 2.663999 0.216 4.127999 1.679999l210.535934 210.543935c-11.807996 3.599999-23.415993 7.871998-34.783989 12.799996L545.24799 108.112286a15.999995 15.999995 0 0 0-22.623993 22.631993l141.279956 141.279956a336.487895 336.487895 0 0 0-26.351992 16.375995L535.415993 186.264262a15.999995 15.999995 0 0 0-22.623993 22.623993l99.087969 99.095969a351.19989 351.19989 0 0 0-24.751992 22.839993L404.184034 147.896274z m409.391872 738.647769C736.63993 954.560022 628.823963 992.00001 510.008001 992.00001h-0.016c-118.815963 0-226.631929-37.447988-303.575906-105.455967C124.816121 814.432065 81.680134 712.976097 81.680134 593.152135c0-122.559962 44.863986-237.655926 126.327961-324.079899 5.695998-6.031998 6.183998-6.031998 10.007997-6.031998 1.544 0 3.463999 0.112 5.879998 0.336 57.327982 5.359998 112.023965 27.687991 158.167951 64.58398 45.511986 36.383989 80.775975 85.239973 101.975968 141.287955 0.088 0.24 0.184 0.48 0.288 0.712 3.767999 9.431997 10.087997 24.655992 25.671992 24.655992 15.615995 0 21.927993-15.271995 25.695992-24.695992l0.264-0.664c21.199993-56.047982 56.455982-104.903967 101.967968-141.287955 46.143986-36.903988 100.847968-59.231981 158.18395-64.59198 2.407999-0.224 4.327999-0.336 5.871998-0.336 3.815999 0 4.311999 0 9.999997 6.039998 81.463975 86.423973 126.335961 201.511937 126.335961 324.071899 0 119.815963-43.135987 221.279931-124.735961 293.391908zM733.575931 558.328146a45.015986 45.015986 0 0 0-44.975986 44.967985 15.999995 15.999995 0 1 0 31.99999 0c0-7.151998 5.815998-12.959996 12.967996-12.959995 7.159998 0 12.975996 5.815998 12.975996 12.959995a15.999995 15.999995 0 1 0 31.99999 0c0-24.799992-20.175994-44.967986-44.967986-44.967985z m-151.031953 42.895986a15.999995 15.999995 0 0 0-15.999995 15.999995 20.295994 20.295994 0 0 1-20.271994 20.271994 20.303994 20.303994 0 0 1-20.271993-20.271994 15.999995 15.999995 0 1 0-31.99999 0 20.295994 20.295994 0 0 1-20.271994 20.271994 20.303994 20.303994 0 0 1-20.279994-20.271994 15.999995 15.999995 0 1 0-31.99999 0 52.335984 52.335984 0 0 0 52.279984 52.271984c14.079996 0 26.863992-5.599998 36.271989-14.687996a52.079984 52.079984 0 0 0 36.271988 14.687996 52.327984 52.327984 0 0 0 52.271984-52.271984 15.999995 15.999995 0 0 0-15.999995-15.999995z" fill="#000000" /></svg>