<?xml version="1.0" standalone="no"?><!DOCTYPE svg PUBLIC "-//W3C//DTD SVG 1.1//EN" "http://www.w3.org/Graphics/SVG/1.1/DTD/svg11.dtd"><svg class="icon" width="200px" height="200.00px" viewBox="0 0 1024 1024" version="1.1" xmlns="http://www.w3.org/2000/svg"><path d="M726.568 281.456h-0.016c0-60.416-44.792-110.4-103.096-118.832 11.36-43.2-6.624-104.424-43.04-140.736a20.304 20.304 0 0 0-14.416-5.968 20.296 20.296 0 0 0-20.336 20.256c0 74.896-93.368 125.176-128.72 125.176-66.592 0-120.576 53.768-120.576 120.104h-0.016c-66.592 0-120.576 53.776-120.576 120.112 0 66.328 53.984 120.104 120.576 120.104H726.56c66.592 0 120.576-53.776 120.576-120.112 0-66.328-53.984-120.104-120.576-120.104z" fill="#866539" /><path d="M826.936 567.592c5.184-23.656-10.456-43.016-34.768-43.016H230.752c-24.312 0-39.952 19.36-34.76 43.016l87.224 397.472c5.192 23.664 29.328 43.016 53.64 43.016h349.208c24.312 0 48.448-19.36 53.64-43.016L826.936 567.6z" fill="#FDBA55" /><path d="M825.264 545.04c-4.256-10.176-13.36-17.552-25.376-19.76L717.904 606.944 637.288 526.632l2.064-2.056h-49.336l2.064 2.056-80.624 80.312-80.616-80.312 2.064-2.056h-49.336l2.064 2.056-80.624 80.312L223.04 525.28c-12.024 2.208-21.12 9.584-25.376 19.76l84.752 84.424-59.776 59.544 8.104 36.952 74.272-73.984 80.624 80.304-80.624 80.32-70.72-70.448 12.64 57.624 35.48 35.328-22.752 22.664 8.112 36.952 37.24-37.096 80.616 80.312-66.912 66.656a50.72 50.72 0 0 0 18.136 3.488h23.56l47.824-47.632 47.824 47.632h44.256l0.48-0.464-69.96-69.68 80.624-80.32 80.624 80.32-69.952 69.68 0.472 0.464h44.256l47.824-47.632 47.824 47.632h23.56a50.72 50.72 0 0 0 18.136-3.488l-66.92-66.656 80.624-80.312 37.24 37.096 8.104-36.96-22.744-22.656 35.472-35.328 12.64-57.624-70.72 70.44L637.28 732.288l80.624-80.32 74.272 73.992 8.112-36.96-59.784-59.544L825.264 545.04zM327.616 629.456l80.624-80.32 80.616 80.32L408.24 709.76 327.616 629.464z m80.616 285.952l-80.616-80.312 80.616-80.312 80.624 80.312-80.624 80.312z m22.608-183.136l80.624-80.312 80.616 80.32-80.616 80.304-80.624-80.312z m264.464 102.824l-80.624 80.312-80.616-80.312 80.616-80.312 80.624 80.312zM614.68 709.768L534.064 629.464l80.616-80.32 80.624 80.32L614.68 709.76z" fill="#CF9945" /><path d="M275.552 930.168l7.656 34.896c5.2 23.664 29.336 43.016 53.648 43.016h349.2c24.32 0 48.456-19.36 53.648-43.016l7.656-34.896H275.552z" fill="#CF9945" /><path d="M870.856 490.024c0-24.224-19.888-44.032-44.2-44.032h-630.4c-24.304 0-44.192 19.816-44.192 44.032V590.96c0 24.224 19.888 44.04 44.2 44.04h630.392c24.312 0 44.2-19.824 44.2-44.04V490.024z" fill="#FFD553" /><path d="M332.776 506.152a30.192 30.072 0 1 0 60.384 0 30.192 30.072 0 1 0-60.384 0Z" fill="#3F4963" /><path d="M395.256 601.72h-64.592a15.952 15.952 0 0 1-15.984-15.92c0-8.792 7.16-15.92 15.984-15.92h64.592c8.824 0 15.984 7.128 15.984 15.92 0 8.8-7.16 15.92-15.984 15.92z" fill="#FF6376" /><path d="M629.784 506.152a30.192 30.072 0 1 0 60.384 0 30.192 30.072 0 1 0-60.384 0Z" fill="#3F4963" /><path d="M692.272 601.72h-64.6a15.952 15.952 0 0 1-15.976-15.92c0-8.792 7.152-15.92 15.976-15.92h64.6c8.824 0 15.984 7.128 15.984 15.92 0 8.8-7.16 15.92-15.984 15.92z" fill="#FF6376" /><path d="M481.456 576.136c-25.36 0-46-20.552-46-45.816 0-8.792 7.16-15.92 15.984-15.92s15.984 7.128 15.984 15.92c0 7.704 6.296 13.976 14.032 13.976s14.024-6.264 14.024-13.976c0-8.792 7.16-15.92 15.984-15.92s15.984 7.128 15.984 15.92c0 25.264-20.64 45.816-46 45.816z" fill="#3F4963" /><path d="M541.48 576.136c-25.36 0-46-20.552-46-45.816 0-8.792 7.16-15.92 15.984-15.92s15.984 7.128 15.984 15.92c0 7.704 6.296 13.976 14.032 13.976s14.032-6.264 14.032-13.976c0-8.792 7.152-15.92 15.984-15.92 8.824 0 15.976 7.128 15.976 15.92 0 25.264-20.632 45.816-45.992 45.816z" fill="#3F4963" /><path d="M602.32 376.976a15.952 15.952 0 0 1-11.296-4.664 15.872 15.872 0 0 1 0-22.512l37.152-37.008a16.024 16.024 0 0 1 22.6 0c6.24 6.224 6.24 16.304 0 22.52l-37.152 37c-3.12 3.112-7.2 4.664-11.296 4.664zM310.768 413.984a15.952 15.952 0 0 1-11.304-4.664l-37.144-37.008a15.872 15.872 0 0 1 0-22.512 16.024 16.024 0 0 1 22.6 0l37.144 37c6.24 6.224 6.24 16.304 0 22.52-3.12 3.112-7.208 4.664-11.296 4.664z" fill="#FF6376" /><path d="M548.616 311.52a15.952 15.952 0 0 1-11.304-4.664l-37.144-37.008a15.872 15.872 0 0 1 0-22.512 16.024 16.024 0 0 1 22.6 0l37.152 37c6.24 6.224 6.24 16.304 0 22.52-3.12 3.112-7.216 4.664-11.304 4.664zM769.304 413.984a15.952 15.952 0 0 1-11.296-4.664l-37.152-37.008a15.872 15.872 0 0 1 0-22.512 16.024 16.024 0 0 1 22.6 0l37.152 37c6.24 6.224 6.24 16.304 0 22.52-3.12 3.104-7.216 4.664-11.304 4.664z" fill="#6CF5C5" /><path d="M614.72 260.064a15.952 15.952 0 0 1-11.296-4.664l-37.144-37.008a15.872 15.872 0 0 1 0-22.512 16.024 16.024 0 0 1 22.6 0l37.144 37c6.24 6.224 6.24 16.304 0 22.52-3.12 3.104-7.208 4.664-11.296 4.664zM423.088 395.48a15.952 15.952 0 0 1-11.296-4.664 15.88 15.88 0 0 1 0-22.52l37.144-37a16.024 16.024 0 0 1 22.6 0c6.24 6.216 6.24 16.296 0 22.512L434.4 390.816c-3.12 3.112-7.216 4.664-11.304 4.664z" fill="#FFFFFF" /><path d="M362.96 284.72a15.952 15.952 0 0 1-11.304-4.672 15.872 15.872 0 0 1 0-22.512l37.152-37a16.024 16.024 0 0 1 22.6 0c6.24 6.216 6.24 16.296 0 22.512l-37.144 37.008c-3.12 3.104-7.216 4.664-11.304 4.664z" fill="#FF9596" /><path d="M404.032 131.464a63.928 63.68 0 1 0 127.856 0 63.928 63.68 0 1 0-127.856 0Z" fill="#FF6376" /><path d="M447.104 126.624a15.952 15.952 0 0 1-11.296-4.664L388.8 75.136a15.872 15.872 0 0 1 0-22.512 16.024 16.024 0 0 1 22.608 0l47 46.824c6.24 6.216 6.24 16.296 0 22.512-3.12 3.112-7.208 4.664-11.304 4.664z" fill="#725E24" /><path d="M857.904 438.8a135.2 135.2 0 0 0 5.224-37.24c0-69.912-53.224-127.68-121.448-135.2-6.24-55.072-46.2-101.52-99.728-116.128 5.328-46.88-14.656-104.128-50.216-139.576C584.88 3.784 575.736 0 566 0c-20.024 0-36.32 16.232-36.32 36.176 0 12.08-2.968 24.024-8.824 35.688a79.736 79.736 0 0 0-52.912-20.008 79.68 79.68 0 0 0-44.04 13.216l-12.496-12.448a16.024 16.024 0 0 0-22.6 0 15.872 15.872 0 0 0 0 22.512l12.496 12.456a78.904 78.904 0 0 0-11.496 60.544c-57.936 11.552-102.104 59.232-108.592 118.232-68.208 7.52-121.424 65.288-121.424 135.2 0 12.72 1.776 25.184 5.216 37.24A59.92 59.92 0 0 0 136.08 490.024V590.96c0 33.064 26.992 59.96 60.176 59.96h1.656l69.68 317.536c6.84 31.144 37.256 55.536 69.264 55.536h349.2c32 0 62.424-24.4 69.264-55.536l69.68-317.544h1.656c33.184 0 60.176-26.888 60.176-59.944v-100.96a59.92 59.92 0 0 0-28.928-51.216zM424.68 110.88l11.128 11.08c3.12 3.112 7.216 4.664 11.304 4.664s8.176-1.552 11.296-4.664c6.24-6.216 6.24-16.296 0-22.512l-11.12-11.088a47.84 47.84 0 0 1 20.656-4.672c26.448 0 47.96 21.432 47.96 47.776 0 26.336-21.52 47.76-47.96 47.76s-47.944-21.424-47.944-47.76c0-7.368 1.68-14.352 4.68-20.584zM296.368 297.376a15.952 15.952 0 0 0 15.984-15.92c0-52.88 39.28-96.632 90.936-103.288a79.944 79.944 0 0 0 64.656 32.904c44.072 0 79.92-35.72 79.92-79.608a78.88 78.88 0 0 0-6.504-31.44c13.456-20.24 20.288-41.68 20.288-63.84a4.352 4.352 0 0 1 7.464-3.04c31.936 31.84 49.024 86.936 38.88 125.44a15.88 15.88 0 0 0 2.144 12.832 16 16 0 0 0 11.024 6.96c50.968 7.384 89.408 51.696 89.408 103.08 0 8.8 7.176 15.92 16 15.92 57.68 0 104.6 46.744 104.6 104.192 0 9.76-1.36 19.304-4 28.52l-0.512-0.016h-630.4l-0.512 0.016a103.616 103.616 0 0 1-3.984-28.52c0-57.456 46.92-104.192 104.608-104.192z m427.728 664.288c-3.568 16.24-21.336 30.496-38.032 30.496h-349.2c-16.704 0-34.48-14.248-38.04-30.496L230.64 650.92h561.64l-68.184 310.744z m130.776-370.688a28.192 28.192 0 0 1-28.216 28.112h-630.4a28.192 28.192 0 0 1-28.208-28.112V490.024a28.192 28.192 0 0 1 28.216-28.112h630.392a28.192 28.192 0 0 1 28.216 28.112v100.952zM571.488 514.4a15.952 15.952 0 0 0-15.976 15.92c0 7.712-6.296 13.976-14.032 13.976a14.016 14.016 0 0 1-14.032-13.976c0-8.792-7.16-15.92-15.984-15.92a15.952 15.952 0 0 0-15.984 15.92c0 7.712-6.288 13.976-14.032 13.976a14.016 14.016 0 0 1-14.024-13.976c0-8.792-7.16-15.92-15.984-15.92a15.952 15.952 0 0 0-15.984 15.92c0 25.264 20.64 45.816 46 45.816a45.864 45.864 0 0 0 30.008-11.168 45.864 45.864 0 0 0 30.016 11.176c25.36 0 46-20.56 46-45.824 0-8.792-7.16-15.92-15.992-15.92zM362.96 476.088a30.128 30.128 0 0 0-30.192 30.08c0 16.608 13.52 30.072 30.192 30.072a30.136 30.136 0 0 0 30.192-30.08c0-16.608-13.52-30.072-30.192-30.072z m297.016 0a30.128 30.128 0 0 0-30.192 30.08c0 16.608 13.52 30.072 30.192 30.072a30.136 30.136 0 0 0 30.192-30.08c0-16.608-13.52-30.072-30.192-30.072z" fill="#000000" /></svg>