<?xml version="1.0" standalone="no"?><!DOCTYPE svg PUBLIC "-//W3C//DTD SVG 1.1//EN" "http://www.w3.org/Graphics/SVG/1.1/DTD/svg11.dtd"><svg class="icon" width="200px" height="200.00px" viewBox="0 0 1024 1024" version="1.1" xmlns="http://www.w3.org/2000/svg"><path d="M602.536 196.216c0 76.32-51.056 141.936-77.568 170.872-11.472 12.52-19.792 12.408-31.16 0-26.52-28.936-77.576-94.56-77.568-170.88 0-76.304 51.048-141.928 77.56-170.856 11.376-12.424 19.696-12.52 31.176-0.016 26.504 28.952 77.552 94.576 77.56 170.88z" fill="#46C79C" /><path d="M607.392 165.896c-53.856 53.968-64.072 136.536-65.736 175.784-0.72 16.976 5.232 22.8 22.032 22.08 39.176-1.68 121.584-11.904 175.44-65.88 53.856-53.96 64.072-136.528 65.736-175.76 0.72-16.856-5.096-22.808-22.032-22.096-39.176 1.68-121.584 11.92-175.44 65.872zM411.384 165.896c53.856 53.968 64.072 136.536 65.736 175.784 0.72 16.976-5.232 22.8-22.04 22.08-39.168-1.68-121.576-11.904-175.424-65.88-53.864-53.96-64.08-136.528-65.744-175.76-0.72-16.856 5.096-22.808 22.032-22.096 39.176 1.68 121.584 11.92 175.44 65.872z" fill="#46C79C" /><path d="M659.92 78.36c-5.208-14.32-12.128-17.28-26.032-10.808-32.136 14.984-97.44 52.096-123.792 115.84-0.248 0.608-0.464 1.216-0.704 1.816-0.24-0.6-0.456-1.208-0.712-1.816-26.352-63.736-91.656-100.856-123.792-115.84-13.904-6.48-20.824-3.512-26.032 10.808-12.16 33.36-32.144 105.864-5.784 169.616 26.344 63.744 91.648 100.856 123.792 115.84 13.792 6.424 51.264 6.424 65.056 0 32.144-14.976 97.44-52.088 123.792-115.84 26.352-63.744 6.368-136.264-5.792-169.616z" fill="#6CF5C5" /><path d="M763.768 753.12c0 140.768-113.888 254.88-254.376 254.88S255.008 893.888 255.008 753.12V540.392c0-140.768 113.888-254.88 254.376-254.88s254.384 114.112 254.384 254.88V753.12z" fill="#FFD553" /><path d="M340.4 574.176a28.608 28.552 90 1 0 57.104 0 28.608 28.552 90 1 0-57.104 0Z" fill="#3F4963" /><path d="M399.496 665.92h-61.08a15.984 15.984 0 0 1-15.968-16c0-8.84 7.152-16 15.968-16h61.08c8.816 0 15.968 7.16 15.968 16 0 8.832-7.152 16-15.968 16z" fill="#FF6376" /><path d="M621.272 574.176a28.608 28.552 90 1 0 57.104 0 28.608 28.552 90 1 0-57.104 0Z" fill="#3F4963" /><path d="M680.36 665.92H619.28a15.984 15.984 0 0 1-15.968-16c0-8.84 7.152-16 15.968-16h61.08c8.824 0 15.968 7.16 15.968 16 0 8.832-7.144 16-15.968 16z" fill="#FF6376" /><path d="M481.008 641.584c-24.456 0-44.352-19.936-44.352-44.432 0-8.84 7.152-16 15.968-16 8.816 0 15.968 7.16 15.968 16 0 6.856 5.568 12.432 12.408 12.432 6.848 0 12.416-5.576 12.416-12.432 0-8.84 7.152-16 15.968-16 8.816 0 15.968 7.16 15.968 16 0 24.496-19.888 44.424-44.344 44.424z" fill="#3F4963" /><path d="M537.768 641.584c-24.448 0-44.344-19.936-44.344-44.432 0-8.84 7.144-16 15.96-16 8.824 0 15.968 7.16 15.968 16 0 6.856 5.568 12.432 12.416 12.432 6.848 0 12.416-5.576 12.416-12.432 0-8.84 7.152-16 15.968-16 8.816 0 15.96 7.16 15.96 16 0 24.496-19.888 44.424-44.344 44.424z" fill="#3F4963" /><path d="M548.416 506.08c-4.08 0-8.176-1.568-11.288-4.688L509.392 473.6l-27.736 27.792c-6.24 6.24-16.344 6.24-22.584 0a16.024 16.024 0 0 1 0-22.624l39.024-39.104c6.24-6.248 16.352-6.248 22.584 0l39.024 39.104c6.24 6.24 6.24 16.376 0 22.624-3.12 3.12-7.2 4.688-11.288 4.688zM399.496 506.08c-4.08 0-8.176-1.568-11.288-4.688L360.472 473.6l-27.736 27.792c-6.24 6.24-16.352 6.24-22.584 0a16.016 16.016 0 0 1 0-22.624l39.032-39.104c6.24-6.248 16.344-6.248 22.576 0l39.024 39.104c6.24 6.24 6.24 16.376 0 22.624-3.12 3.12-7.2 4.688-11.28 4.688zM473.96 420.832c-4.088 0-8.176-1.56-11.296-4.68l-27.736-27.792-27.736 27.792c-6.24 6.24-16.344 6.24-22.576 0a16.016 16.016 0 0 1 0-22.624l39.024-39.112a15.952 15.952 0 0 1 22.584 0l39.024 39.112c6.24 6.24 6.24 16.376 0 22.624a15.92 15.92 0 0 1-11.288 4.68zM697.336 506.08c-4.08 0-8.176-1.568-11.288-4.688L658.304 473.6l-27.736 27.792c-6.24 6.24-16.344 6.24-22.576 0a16.024 16.024 0 0 1 0-22.624l39.024-39.104c6.24-6.248 16.352-6.248 22.584 0l39.024 39.104a16.016 16.016 0 0 1-11.28 27.312zM622.88 420.832c-4.088 0-8.176-1.56-11.296-4.68l-27.736-27.792-27.736 27.792c-6.24 6.24-16.344 6.24-22.576 0a16.024 16.024 0 0 1 0-22.624l39.024-39.112a15.952 15.952 0 0 1 22.584 0l39.024 39.112c6.24 6.24 6.24 16.376 0 22.624a15.92 15.92 0 0 1-11.288 4.68zM548.416 787.104c-4.08 0-8.176-1.568-11.288-4.688l-27.736-27.792-27.736 27.792c-6.24 6.248-16.344 6.24-22.584 0a16.024 16.024 0 0 1 0-22.624l39.024-39.104c6.24-6.24 16.352-6.24 22.584 0l39.024 39.104c6.24 6.248 6.24 16.376 0 22.624a15.92 15.92 0 0 1-11.288 4.68zM548.416 943.92c-4.08 0-8.176-1.568-11.288-4.688l-27.736-27.792-27.736 27.792c-6.24 6.24-16.344 6.24-22.584 0a16.016 16.016 0 0 1 0-22.624l39.024-39.104a15.952 15.952 0 0 1 22.584 0l39.024 39.104c6.24 6.248 6.24 16.376 0 22.624a15.92 15.92 0 0 1-11.288 4.688zM399.496 787.104c-4.08 0-8.176-1.568-11.288-4.688l-27.736-27.792-27.736 27.792c-6.24 6.248-16.352 6.24-22.584 0a16.024 16.024 0 0 1 0-22.632l39.032-39.096a15.944 15.944 0 0 1 22.576 0l39.024 39.104c6.24 6.24 6.24 16.376 0 22.624-3.12 3.12-7.2 4.68-11.28 4.68zM622.88 865.504c-4.088 0-8.176-1.56-11.296-4.68l-27.736-27.792-27.736 27.792c-6.24 6.24-16.344 6.24-22.576 0a16.024 16.024 0 0 1 0-22.632l39.024-39.104a15.952 15.952 0 0 1 22.584 0l39.024 39.112c6.24 6.24 6.24 16.368 0 22.624a15.92 15.92 0 0 1-11.288 4.68zM697.336 787.104c-4.08 0-8.176-1.568-11.288-4.688l-27.736-27.792-27.736 27.792c-6.24 6.248-16.352 6.24-22.584 0a16.024 16.024 0 0 1 0-22.624l39.032-39.104c6.24-6.24 16.344-6.24 22.576 0l39.032 39.104c6.24 6.24 6.24 16.376 0 22.624a15.92 15.92 0 0 1-11.296 4.68zM473.96 865.504c-4.088 0-8.176-1.56-11.296-4.68l-27.736-27.792-27.736 27.792c-6.24 6.24-16.344 6.24-22.584 0a16.024 16.024 0 0 1 0-22.624l39.032-39.112a15.952 15.952 0 0 1 22.576 0l39.032 39.104c6.24 6.248 6.24 16.376 0 22.632-3.12 3.12-7.2 4.68-11.288 4.68z" fill="#DFA800" /><path d="M368.24 545.56a28.576 28.576 0 0 0-28.544 28.608 28.576 28.576 0 0 0 28.552 28.608 28.576 28.576 0 0 0 28.544-28.608 28.576 28.576 0 0 0-28.544-28.608z m197.2 35.584a15.976 15.976 0 0 0-15.968 16c0 6.856-5.568 12.44-12.416 12.44a12.44 12.44 0 0 1-12.408-12.44c0-8.84-7.152-16-15.968-16a15.976 15.976 0 0 0-15.968 16c0 6.856-5.568 12.44-12.416 12.44a12.44 12.44 0 0 1-12.408-12.44c0-8.84-7.152-16-15.968-16a15.976 15.976 0 0 0-15.968 16c0 24.504 19.896 44.432 44.352 44.432a44.08 44.08 0 0 0 28.376-10.328 44.08 44.08 0 0 0 28.384 10.328c24.456 0 44.352-19.936 44.352-44.432 0-8.832-7.152-16-15.976-16zM821.52 122.8c0.368-8.456-0.176-20.728-9.064-29.64-8.896-8.92-21.144-9.472-29.6-9.12-25.392 1.088-61.92 5.24-99.32 18.224a358.888 358.888 0 0 0-9.312-29.384c-2.72-7.456-7.608-17.92-18.672-22.504-11.064-4.6-21.904-0.68-29.104 2.672a342.896 342.896 0 0 0-43.92 24.384c-15.648-26.92-33.4-48.608-46.504-62.912C530.304 8.28 521.248 0 508.672 0h-0.008c-12.576 0.008-21.624 8.304-27.328 14.536-13.056 14.24-30.832 35.944-46.504 62.888a343.936 343.936 0 0 0-43.92-24.384c-7.2-3.352-18.032-7.28-29.104-2.672-11.056 4.592-15.952 15.048-18.664 22.504a359.816 359.816 0 0 0-9.2 28.96c-36.944-12.632-72.928-16.72-98.032-17.792-8.44-0.368-20.696 0.2-29.592 9.12C197.44 102.08 196.888 114.352 197.248 122.8c4.48 105.296 46.032 161.984 70.4 186.4 14.64 14.664 32.128 27.248 52.16 37.592-50.24 49.208-81.472 117.816-81.472 193.6V753.12c0 149.368 121.28 270.88 270.344 270.88 149.072 0 270.352-121.52 270.352-270.88V540.4c0-75.552-31.04-143.952-80.984-193.136 20.416-10.424 38.208-23.176 53.064-38.064 24.384-24.424 65.944-81.112 70.416-186.4zM504.864 36.168c1.76-1.92 3.016-3.008 3.824-3.616 0.8 0.608 2.064 1.704 3.824 3.616 12.472 13.616 29.552 34.512 44.176 60.384-22.464 18.688-37.72 37.552-48 53.824-10.28-16.272-25.536-35.136-48-53.824 14.64-25.912 31.744-46.816 44.176-60.384z m-131.712 47.68c0.48-1.336 0.912-2.32 1.264-3.04 0.752 0.256 1.752 0.648 3.032 1.248 26.576 12.392 91.056 47.664 115.776 107.448l0.64 1.632a15.968 15.968 0 0 0 29.664 0l0.624-1.624c24.72-59.792 89.2-95.064 115.776-107.456a30.88 30.88 0 0 1 3.04-1.248c0.352 0.72 0.776 1.704 1.264 3.04 10.056 27.584 30.768 98.184 6.024 158-7.288 17.648-18.576 34.504-33.584 50.24a268.32 268.32 0 0 0-107.976-22.576 268.352 268.352 0 0 0-107.976 22.568c-15.016-15.728-26.304-32.584-33.592-50.232-24.736-59.816-4.032-130.416 6.024-158zM290.24 286.56C239.272 235.52 230.544 154.08 229.16 121.44c-0.12-2.6 0-4.264 0.144-5.272a29.76 29.76 0 0 1 5.256-0.152c19.512 0.84 55.84 4.24 92.496 17.296-9.488 57.736 1.456 98.776 10.56 120.792 7.72 18.688 18.992 36.488 33.616 53.128a271.376 271.376 0 0 0-24.96 16.76c-22.16-9.792-40.992-22.336-56.032-37.408zM747.096 540.4V753.12c0 131.728-106.952 238.88-238.416 238.88-131.456 0-238.408-107.152-238.408-238.88V540.4c0-131.728 106.952-238.88 238.408-238.88 131.464-0.008 238.416 107.152 238.416 238.88zM671.6 324.368a271.544 271.544 0 0 0-25.464-17.144c14.624-16.64 25.896-34.44 33.624-53.12 9.072-21.96 19.992-62.832 10.64-120.32 37.096-13.448 74.08-16.928 93.816-17.768a29.68 29.68 0 0 1 5.264 0.152c0.144 1 0.256 2.664 0.152 5.272-1.392 32.64-10.112 114.072-61.088 165.136-15.24 15.28-34.4 27.944-56.944 37.792z m-22.48 221.192a28.576 28.576 0 0 0-28.552 28.608 28.576 28.576 0 0 0 28.56 28.608 28.576 28.576 0 0 0 28.544-28.608 28.576 28.576 0 0 0-28.552-28.608z" fill="#000000" /></svg>