<?xml version="1.0" standalone="no"?><!DOCTYPE svg PUBLIC "-//W3C//DTD SVG 1.1//EN" "http://www.w3.org/Graphics/SVG/1.1/DTD/svg11.dtd"><svg class="icon" width="200px" height="200.00px" viewBox="0 0 1024 1024" version="1.1" xmlns="http://www.w3.org/2000/svg"><path d="M600.287828 85.217834c-56.591889 56.591889-67.319869 143.17572-69.079866 184.33564-0.759999 17.807965 5.495989 23.919953 23.159955 23.159954 41.15992-1.759997 127.75175-12.479976 184.33564-69.079865 56.591889-56.591889 67.327869-143.17572 69.079865-184.33564 0.759999-17.655966-5.35999-23.919953-23.159954-23.151955-41.15992 1.751997-127.743751 12.479976-184.33564 69.071866z" fill="#6CF5C5" /><path d="M531.111963 623.728782m-382.183254 0a382.183254 382.183254 0 1 0 764.366507 0 382.183254 382.183254 0 1 0-764.366507 0Z" fill="#FFB446" /><path d="M786.863463 674.400683h-62.271878a16.079969 16.079969 0 0 1 0-32.159937h62.271878a16.079969 16.079969 0 0 1 0 32.159937z" fill="#FF6376" /><path d="M494.680034 654.280722a52.575897 52.575897 0 0 1-52.519898-52.511897 16.079969 16.079969 0 1 1 32.151938 0 20.39196 20.39196 0 0 0 20.36796 20.36796 20.39196 20.39196 0 0 0 20.36796-20.36796 16.079969 16.079969 0 1 1 32.151937 0 52.575897 52.575897 0 0 1-52.519897 52.511897z" fill="#3F4963" /><path d="M567.567891 654.280722a52.575897 52.575897 0 0 1-52.519897-52.511897 16.079969 16.079969 0 1 1 32.151937 0 20.39996 20.39996 0 0 0 20.36796 20.36796 20.39196 20.39196 0 0 0 20.367961-20.36796 16.079969 16.079969 0 1 1 32.143937 0 52.583897 52.583897 0 0 1-52.511898 52.511897zM784.839467 603.856821c-8.879983 0-16.079969-7.199986-16.079968-16.079969a13.039975 13.039975 0 0 0-13.031975-13.023975 13.039975 13.039975 0 0 0-13.023975 13.023975 16.079969 16.079969 0 1 1-32.151937 0 45.231912 45.231912 0 0 1 45.175912-45.175912 45.231912 45.231912 0 0 1 45.183912 45.175912c0 8.879983-7.199986 16.079969-16.079969 16.079969z" fill="#3F4963" /><path d="M337.648341 674.400683h-62.271879a16.079969 16.079969 0 0 1 0-32.159937h62.271879a16.079969 16.079969 0 0 1 0 32.159937z" fill="#FF6376" /><path d="M335.616344 603.856821c-8.879983 0-16.079969-7.199986-16.079968-16.079969a13.039975 13.039975 0 0 0-13.023975-13.023975 13.039975 13.039975 0 0 0-13.039974 13.023975 16.079969 16.079969 0 1 1-32.143937 0 45.231912 45.231912 0 0 1 45.183911-45.175912 45.231912 45.231912 0 0 1 45.175912 45.175912c0 8.879983-7.199986 16.079969-16.079968 16.079969z" fill="#3F4963" /><path d="M408.064203 360.969295m-29.103943 0a29.103943 29.103943 0 1 0 58.207886 0 29.103943 29.103943 0 1 0-58.207886 0Z" fill="#CF9945" /><path d="M583.85586 331.865352m-29.103943 0a29.103943 29.103943 0 1 0 58.207886 0 29.103943 29.103943 0 1 0-58.207886 0Z" fill="#CF9945" /><path d="M753.703528 406.705206m-29.103943 0a29.103943 29.103943 0 1 0 58.207886 0 29.103943 29.103943 0 1 0-58.207886 0Z" fill="#CF9945" /><path d="M637.783754 435.08115m-29.103943 0a29.103943 29.103943 0 1 0 58.207886 0 29.103943 29.103943 0 1 0-58.207886 0Z" fill="#CF9945" /><path d="M454.744112 474.905072m-29.103943 0a29.103943 29.103943 0 1 0 58.207886 0 29.103943 29.103943 0 1 0-58.207886 0Z" fill="#CF9945" /><path d="M421.352177 732.648569m-29.103943 0a29.103943 29.103943 0 1 0 58.207886 0 29.103943 29.103943 0 1 0-58.207886 0Z" fill="#CF9945" /><path d="M378.93626 854.81633m-29.103943 0a29.103943 29.103943 0 1 0 58.207886 0 29.103943 29.103943 0 1 0-58.207886 0Z" fill="#CF9945" /><path d="M287.824438 431.329158m-29.103943 0a29.103943 29.103943 0 1 0 58.207886 0 29.103943 29.103943 0 1 0-58.207886 0Z" fill="#CF9945" /><path d="M786.863463 774.616487m-29.103943 0a29.103943 29.103943 0 1 0 58.207886 0 29.103943 29.103943 0 1 0-58.207886 0Z" fill="#CF9945" /><path d="M681.503669 874.104293m-29.103943 0a29.103943 29.103943 0 1 0 58.207886 0 29.103943 29.103943 0 1 0-58.207886 0Z" fill="#CF9945" /><path d="M494.672034 913.032217m-29.103943 0a29.103943 29.103943 0 1 0 58.207886 0 29.103943 29.103943 0 1 0-58.207886 0Z" fill="#CF9945" /><path d="M583.85586 788.72046m-29.103943 0a29.103943 29.103943 0 1 0 58.207886 0 29.103943 29.103943 0 1 0-58.207886 0Z" fill="#CF9945" /><path d="M178.192652 924.032195c56.591889 56.591889 143.17572 67.319869 184.33564 69.079865 17.807965 0.759999 23.911953-5.503989 23.159955-23.159954-1.759997-41.15992-12.479976-127.75175-69.079865-184.34364-56.591889-56.583889-143.17572-67.319869-184.33564-69.071865-17.655966-0.759999-23.919953 5.35199-23.159955 23.159954 1.759997 41.15992 12.495976 127.743751 69.079865 184.33564z" fill="#46C79C" /><path d="M306.512401 542.60094a45.231912 45.231912 0 0 0-45.183911 45.183912 16.079969 16.079969 0 1 0 32.159937 0c0-7.183986 5.839989-13.039975 13.023974-13.039975 7.183986 0 13.031975 5.855989 13.031975 13.039975a16.079969 16.079969 0 1 0 32.143937 0 45.231912 45.231912 0 0 0-45.175912-45.183912z m401.839216-275.455462c15.663969-9.311982 29.631942-20.055961 41.719918-32.143937 25.53595-25.52795 69.071865-84.815834 73.775856-195.015619 0.367999-8.735983-0.192-21.407958-9.335982-30.55994C805.359427 0.273999 792.671452-0.293999 783.943469 0.082 673.743684 4.785991 614.4558 48.321906 588.91985 73.857856c-44.175914 44.175914-62.287878 104.551796-69.535864 151.791703-214.199582 6.231988-386.535245 182.399644-386.535245 398.079223 0 25.999949 2.535995 51.839899 7.503985 77.151849-2.447995-0.144-4.89599-0.295999-7.391986-0.399999a79.255845 79.255845 0 0 0-3.447993-0.08c-12.183976 0-21.199959 3.223994-27.543946 9.839981C93.216818 719.392595 92.688819 731.832571 93.048818 740.392554c4.703991 110.183785 48.239906 169.479669 73.775856 195.015619 25.52795 25.52795 84.807834 69.063865 195.015619 73.775856 1.183998 0.048 2.327995 0.08 3.431994 0.08 12.191976 0 21.207959-3.223994 27.559946-9.855981a29.039943 29.039943 0 0 0 1.391997-1.575997 396.271226 396.271226 0 0 0 136.895733 24.183953c219.607571 0 398.271222-178.663651 398.271222-398.271222 0-155.975695-90.127824-291.263431-221.039568-356.591304z m-96.695812-170.559667c17.895965-17.887965 70.639862-59.983883 173.655661-64.383874a28.719944 28.719944 0 0 1 6.167988 0.24c0.184 1.039998 0.383999 2.943994 0.24 6.175988-4.399991 103.015799-46.487909 155.759696-64.383875 173.64766-15.35197 15.35997-34.487933 28.223945-56.879888 38.367925a395.599227 395.599227 0 0 0-118.575769-24.639951c6.895987-41.471919 22.959955-92.599819 59.775883-129.399748zM369.384279 976.816092a23.191955 23.191955 0 0 1-4.111992 0.296c-0.663999 0-1.343997-0.016-2.055996-0.048-103.031799-4.407991-155.759696-46.495909-173.655661-64.391875-17.895965-17.895965-59.999883-70.639862-64.383874-173.64766a28.575944 28.575944 0 0 1 0.239999-6.167988c0.791998-0.144 2.087996-0.295999 4.095992-0.296 0.663999 0 1.359997 0.024 2.079996 0.048 103.015799 4.399991 155.759696 46.495909 173.647661 64.391874 17.895965 17.887965 59.983883 70.623862 64.383874 173.655661 0.144 3.215994-0.056 5.11999-0.239999 6.159988z m161.735684 13.039975a364.223289 364.223289 0 0 1-129.535747-23.575954c-5.36799-108.263789-48.319906-166.727674-73.607857-192.023625-22.175957-22.159957-69.807864-57.887887-154.087699-69.999864a368.239281 368.239281 0 0 1-8.887982-80.511842c0-201.879606 164.239679-366.127285 366.119285-366.127285 201.887606 0 366.127285 164.239679 366.127285 366.127285 0 201.879606-164.239679 366.119285-366.127285 366.119285z m224.615561-447.247127a45.231912 45.231912 0 0 0-45.183912 45.183912 16.079969 16.079969 0 1 0 32.151937 0c0-7.183986 5.839989-13.039975 13.031975-13.039975 7.183986 0 13.031975 5.855989 13.031975 13.039975a16.079969 16.079969 0 1 0 32.143937 0 45.231912 45.231912 0 0 0-45.175912-45.183912zM603.99982 585.696856c-8.879983 0-16.079969 7.199986-16.079968 16.071969a20.39196 20.39196 0 0 1-20.359961 20.36796 20.39996 20.39996 0 0 1-20.37596-20.36796 16.079969 16.079969 0 1 0-32.143937 0 20.39196 20.39196 0 0 1-20.36796 20.36796 20.39196 20.39196 0 0 1-20.36796-20.36796 16.079969 16.079969 0 1 0-32.151938 0 52.575897 52.575897 0 0 0 52.511898 52.511897 52.319898 52.319898 0 0 0 36.447929-14.751971 52.319898 52.319898 0 0 0 36.439929 14.751971 52.575897 52.575897 0 0 0 52.519897-52.511897c0-8.879983-7.199986-16.079969-16.079969-16.079969z" fill="#000000" /></svg>