<?xml version="1.0" standalone="no"?><!DOCTYPE svg PUBLIC "-//W3C//DTD SVG 1.1//EN" "http://www.w3.org/Graphics/SVG/1.1/DTD/svg11.dtd"><svg class="icon" width="200px" height="186.01px" viewBox="0 0 1101 1024" version="1.1" xmlns="http://www.w3.org/2000/svg"><path d="M490.797176 404.213244c0-49.625277-40.159731-151.225008-89.681747-151.225009-49.530622 0-89.681748 101.591126-89.681748 151.225009 0 49.625277 40.151126 89.853849 89.681748 89.853848 49.522017 0 89.681748-40.228571 89.681747-89.853848zM776.002689 404.213244c0-49.625277 40.142521-151.225008 89.664538-151.225009 49.539227 0 89.681748 101.591126 89.681748 151.225009 0 49.625277-40.142521 89.853849-89.673143 89.853848-49.522017 0-89.681748-40.228571-89.681748-89.853848z" fill="#FF6376" /><path d="M682.551933 223.429916a20.368134 20.368134 0 0 0-20.290689-20.316504h-57.739832a20.359529 20.359529 0 0 0-20.282084 20.316504v194.921412a20.368134 20.368134 0 0 0 20.282084 20.325109h57.739832a20.368134 20.368134 0 0 0 20.282084-20.325109V223.429916z" fill="#89AAED" /><path d="M584.230723 328.153277h98.304v34.686925H584.230723zM584.230723 254.90716h98.304v34.686924H584.230723z" fill="#B5CCF8" /><path d="M682.551933 153.858151c0-27.200538-22.011697-135.916639-49.160605-135.916638-27.140303 0-49.152 108.716101-49.152 135.916638a49.20363 49.20363 0 0 0 49.152 49.246656 49.195025 49.195025 0 0 0 49.152-49.246656z" fill="#FDBA55" /><path d="M1081.989378 481.021849v-39.548773a37.225412 37.225412 0 0 0-37.182386-37.259832H249.718319c-16.487261-46.467227-60.734387-79.734319-112.76047-79.73432-66.086723 0-119.653109 53.669647-119.65311 119.876841 0 38.757109 18.371765 73.203092 46.845849 95.111529v428.126656a38.438723 38.438723 0 0 0 38.404303 38.473142h66.422319V481.013244h912.994958z" fill="#FF9596" /><path d="M225.847933 450.955832c-46.622118 0-84.561748 37.999866-84.561748 84.725244v470.386016h46.157445V553.063261A120.212437 120.212437 0 0 0 244.383193 497.199328h837.606185v-46.243496H225.847933z" fill="#FF608D" /><path d="M225.847933 497.199328a38.438723 38.438723 0 0 0-38.404303 38.481748v470.386016h856.141446a38.438723 38.438723 0 0 0 38.404302-38.473142V497.199328H225.847933z" fill="#866539" /><path d="M187.44363 624.794891h894.528538v253.668033H187.44363z" fill="#FFD553" /><path d="M367.443899 707.584a31.408403 31.348168 90 1 0 62.696336 0 31.408403 31.348168 90 1 0-62.696336 0Z" fill="#3F4963" /><path d="M851.227966 707.584a31.408403 31.348168 90 1 0 62.696337 0 31.408403 31.348168 90 1 0-62.696337 0Z" fill="#3F4963" /><path d="M432.334521 817.341311H365.284034a17.330555 17.330555 0 0 1-17.313345-17.33916c0-9.577412 7.744538-17.347765 17.313345-17.347764h67.059092c9.560202 0 17.313345 7.770353 17.313345 17.347764s-7.744538 17.347765-17.313345 17.347765zM916.109983 817.341311h-67.059092a17.330555 17.330555 0 0 1-17.313345-17.33916c0-9.577412 7.744538-17.347765 17.313345-17.347764h67.059092c9.560202 0 17.313345 7.770353 17.313345 17.347764s-7.744538 17.347765-17.313345 17.347765z" fill="#FF6376" /><path d="M595.227966 795.648c-31.184672 0-56.560941-25.419294-56.560941-56.664202 0-9.586017 7.753143-17.347765 17.313345-17.347764 9.568807 0 17.313345 7.770353 17.313344 17.347764a21.977277 21.977277 0 0 0 21.942857 21.977278 21.985882 21.985882 0 0 0 21.925647-21.977278c0-9.586017 7.744538-17.347765 17.313345-17.347764s17.313345 7.770353 17.313345 17.347764c0 31.236303-25.376269 56.664202-56.560942 56.664202z" fill="#3F4963" /><path d="M673.714555 795.648c-31.184672 0-56.552336-25.419294-56.552337-56.664202 0-9.586017 7.744538-17.347765 17.313345-17.347764 9.560202 0 17.313345 7.770353 17.313345 17.347764a21.977277 21.977277 0 0 0 21.934252 21.977278 21.977277 21.977277 0 0 0 21.934252-21.977278c0-9.586017 7.744538-17.347765 17.304739-17.347764 9.568807 0 17.313345 7.770353 17.313345 17.347764 0 31.236303-25.376269 56.664202-56.560941 56.664202z" fill="#3F4963" /><path d="M1044.798387 386.865479h-73.280538c-3.244101-26.253983-13.148504-57.757042-27.037042-84.811294-21.994487-42.827294-49.978084-66.413714-78.804975-66.413714-28.826891 0-56.819092 23.58642-78.81358 66.413714-13.888538 27.054252-23.784336 58.548706-27.028437 84.811294h-59.977143V223.429916c0-11.702857-5.360941-22.175193-13.742252-29.085042a66.336269 66.336269 0 0 0 13.733647-40.486723c0-15.30837-5.636303-50.546017-15.084638-83.01284-13.940168-47.930084-30.263933-70.251563-51.372101-70.251563s-37.431933 22.321479-51.372101 70.251563c-9.448336 32.466824-15.093244 67.704471-15.093244 83.01284 0 15.213714 5.13721 29.257143 13.742252 40.478118a37.638454 37.638454 0 0 0-13.742252 29.085042v163.444168h-59.977143c-3.235496-26.262588-13.139899-57.757042-27.028437-84.811294-21.994487-42.827294-49.978084-66.413714-78.813579-66.413714-28.826891 0-56.810487 23.58642-78.804975 66.413714-13.888538 27.054252-23.792941 58.548706-27.037042 84.811294h-33.921076c-22.201008-48.16242-70.72484-79.742924-124.377277-79.742924C61.448605 307.122555 0 368.69163 0 444.36437c0 40.039261 16.969143 77.221647 46.845849 103.320739v419.908841c0 30.780235 24.989042 55.820908 55.709042 55.820907h941.030185c30.72 0 55.717647-25.040672 55.717647-55.820907v-526.112269c0-30.109042-24.446924-54.607597-54.504336-54.607597z m-179.122555-116.529479c30.152067 0 63.660101 68.530555 70.914151 116.529479H794.770286c7.245445-47.998924 40.753479-116.529479 70.905546-116.529479zM613.264134 87.685378c8.10595-30.126252 15.833277-44.574118 20.135799-50.219025 4.302521 5.636303 12.021244 20.092773 20.127193 50.219025 7.228235 26.882151 11.702857 55.27879 11.702857 66.172773a31.907496 31.907496 0 0 1-31.838655 31.898891c-17.554286 0-31.838655-14.310185-31.838656-31.898891 0-10.893983 4.474622-39.290622 11.702857-66.172773z m-11.711462 135.744538c0-1.583328 1.385412-2.977345 2.96874-2.977345h57.739832c1.583328 0 2.977345 1.394017 2.977344 2.977345v163.435563h-63.685916V223.429916z m-200.437243 46.897479c30.152067 0 63.660101 68.53916 70.905546 116.538084h-141.811093c7.245445-47.998924 40.753479-116.529479 70.905547-116.529479z m663.560605 697.266555c0 11.651227-9.465546 21.125378-21.090958 21.125378H204.756975V535.681076c0-11.659832 9.465546-21.133983 21.090958-21.133984h838.828101v453.038253z m0-487.733782h-838.819496c-30.728605 0-55.726252 25.040672-55.726252 55.820908V988.719328H102.572101a21.133983 21.133983 0 0 1-21.090958-21.133983V539.467294c0-5.386756-2.495462-10.472336-6.772168-13.750857a101.961143 101.961143 0 0 1-40.073681-81.360672c0-56.535126 45.907899-102.537681 102.34837-102.537681 43.214521 0 81.97163 27.407059 96.436706 68.203563a17.313345 17.313345 0 0 0 16.315159 11.530756h795.080068a19.920672 19.920672 0 0 1 19.877647 19.920673v38.378487zM595.227966 795.648c15.230924 0 29.067832-6.07516 39.238992-15.919328a56.294185 56.294185 0 0 0 39.247597 15.919328c31.184672 0 56.560941-25.419294 56.560941-56.672807 0-9.577412-7.744538-17.33916-17.313345-17.339159a17.330555 17.330555 0 0 0-17.313344 17.339159 21.977277 21.977277 0 0 1-21.934252 21.977278 21.977277 21.977277 0 0 1-21.934252-21.977278c0-9.577412-7.744538-17.33916-17.313345-17.339159a17.330555 17.330555 0 0 0-17.313345 17.339159 21.985882 21.985882 0 0 1-21.934252 21.977278 21.977277 21.977277 0 0 1-21.934252-21.977278c0-9.577412-7.744538-17.33916-17.313344-17.339159a17.330555 17.330555 0 0 0-17.313345 17.339159c0.008605 31.253513 25.384874 56.672807 56.569546 56.672807z m287.348168-56.655597a31.373983 31.373983 0 0 0 31.348169-31.408403c0-17.347765-14.034824-31.408403-31.348169-31.408403a31.373983 31.373983 0 0 0-31.339563 31.408403 31.382588 31.382588 0 0 0 31.339563 31.408403z m-483.775462 0a31.373983 31.373983 0 0 0 31.348168-31.408403c0-17.347765-14.026218-31.408403-31.348168-31.408403a31.373983 31.373983 0 0 0-31.339563 31.408403c0 17.347765 14.026218 31.408403 31.339563 31.408403z" fill="#000000" /></svg>