<?xml version="1.0" standalone="no"?><!DOCTYPE svg PUBLIC "-//W3C//DTD SVG 1.1//EN" "http://www.w3.org/Graphics/SVG/1.1/DTD/svg11.dtd"><svg class="icon" width="200px" height="200.00px" viewBox="0 0 1024 1024" version="1.1" xmlns="http://www.w3.org/2000/svg"><path d="M776.208 169.712V39.776A23.84 23.84 0 0 0 752.44 16H267.568a23.84 23.84 0 0 0-23.768 23.776v129.936h532.408z" fill="#C3DDF7" /><path d="M494 16h32v153.704h-32zM399.08 16h32v153.704h-32zM304.152 16h32v153.704h-32zM588.92 16h32v153.704h-32zM683.848 16h32v153.704h-32z" fill="#2F3953" /><path d="M153.176 394.64v589.584A23.84 23.84 0 0 0 176.96 1008h666.104a23.84 23.84 0 0 0 23.76-23.776V394.64H153.184z" fill="#C3DDF7" /><path d="M776.208 169.712H243.8L153.184 394.64h713.64z" fill="#89AAED" /><path d="M704.984 854.496a21.872 21.872 0 0 0-21.808-21.808H336.824a21.872 21.872 0 0 0-21.808 21.808v65.784a21.872 21.872 0 0 0 21.808 21.808h346.352a21.872 21.872 0 0 0 21.808-21.808v-65.784z" fill="#FFFFFF" /><path d="M642.216 794.112H377.784a16 16 0 1 1 0-32h264.432a16 16 0 1 1 0 32z" fill="#FDBA55" /><path d="M622.128 903.392H397.872a16 16 0 1 1 0-32h224.256a16 16 0 1 1 0 32zM799.216 226.816c-22.656 13.8-34.152 36.608-83.664 36.608-65.424 0-77.048 81.768 8.72 81.768 44.432 0 81.104-14.576 116.016-16.416l-41.072-101.96zM344.28 240.848c-19.2-31.552-56.496-51.36-106.352-56.576L190.52 301.96c24.4-9.792 50.672-14.968 70.904-1.144 44.704 30.52 113.392-9.816 82.856-59.968zM430.24 249.848c-33.704 10.832-49.424 37.8-43.608 56.696 5.816 18.896 10.168 48.696 61.776 47.24 51.608-1.448 64.544-40.736 61.056-57.696-5.08-24.712-38.52-59.32-79.224-46.24zM591.184 205.856c-39.736 10.584-50.048 49.92-22.84 67.36 27.216 17.44 60.256-21.44 79.696-29.216 19.44-7.776 9.72-55.888-56.856-38.144zM189.752 694.912c-13.16-3.04-25.464-3.464-36.576-1.896v107.616c31.736 1.856 68.92-8.84 89.816-6.608 34.208 3.656 57.088-73.696-53.24-99.12zM816.952 773.44c-47.352 15.224-69.44 53.112-61.28 79.656 8.176 26.552 14.296 68.416 86.808 66.376a122.56 122.56 0 0 0 24.344-3.008v-143.04c-15.008-4.92-31.936-5.744-49.872 0.016z" fill="#3F4963" /><path d="M277.648 543.6m-30.104 0a30.104 30.104 0 1 0 60.208 0 30.104 30.104 0 1 0-60.208 0Z" fill="#3F4963" /><path d="M742.352 543.6m-30.104 0a30.104 30.104 0 1 0 60.208 0 30.104 30.104 0 1 0-60.208 0Z" fill="#3F4963" /><path d="M309.872 648.2h-64.416a16 16 0 1 1 0-32h64.416a16 16 0 1 1 0 32zM774.56 648.2H710.16a16 16 0 1 1 0-32h64.416a16 16 0 1 1 0 32z" fill="#FF9596" /><path d="M472.32 627.392a53.76 53.76 0 0 1-53.704-53.696 16 16 0 1 1 32 0 21.72 21.72 0 0 0 21.696 21.696 21.72 21.72 0 0 0 21.696-21.696 16 16 0 1 1 32 0 53.76 53.76 0 0 1-53.696 53.696z" fill="#3F4963" /><path d="M547.712 627.392a53.76 53.76 0 0 1-53.704-53.696 16 16 0 1 1 32 0 21.72 21.72 0 0 0 21.704 21.696 21.72 21.72 0 0 0 21.696-21.696 16 16 0 1 1 32 0 53.76 53.76 0 0 1-53.696 53.696z" fill="#3F4963" /><path d="M472.32 627.392c14.672 0 27.984-5.92 37.696-15.504a53.52 53.52 0 0 0 37.696 15.504 53.76 53.76 0 0 0 53.696-53.696 16 16 0 1 0-32 0 21.72 21.72 0 0 1-21.696 21.696 21.72 21.72 0 0 1-21.696-21.696 16 16 0 1 0-32 0 21.72 21.72 0 0 1-21.704 21.696 21.72 21.72 0 0 1-21.696-21.696 16 16 0 1 0-32 0 53.76 53.76 0 0 0 53.696 53.696z m270.04-53.68a30.112 30.112 0 1 0 0-60.224 30.112 30.112 0 0 0 0 60.216z m-464.696 0a30.112 30.112 0 1 0 0-60.224 30.112 30.112 0 0 0 0 60.216z m120.208 329.68h224.256a16 16 0 1 0 0-32H397.872a16 16 0 1 0 0 32z m483.784-514.72h0.008l-0.072-0.192-0.04-0.096-89.344-221.776V39.776A39.824 39.824 0 0 0 752.44 0H267.568a39.824 39.824 0 0 0-39.776 39.776v126.832L138.456 388.384l-0.032 0.096-0.08 0.184h0.008a15.944 15.944 0 0 0-1.168 5.984v589.576A39.824 39.824 0 0 0 176.96 1024h666.104a39.824 39.824 0 0 0 39.768-39.776V394.64c0-2.12-0.416-4.128-1.16-5.984zM259.8 39.768c0-4.216 3.552-7.776 7.768-7.776h484.872c4.208 0 7.76 3.56 7.76 7.776v113.936h-500.4V39.776z m-5.2 145.936h510.8l77.728 192.936H176.88l77.72-192.936z m596.224 798.512a7.872 7.872 0 0 1-7.768 7.776H176.952a7.872 7.872 0 0 1-7.768-7.776V410.64h681.64v573.576z m-551.808-63.944a37.848 37.848 0 0 0 37.808 37.808h346.352a37.848 37.848 0 0 0 37.816-37.808v-65.784a37.848 37.848 0 0 0-37.816-37.808H336.824a37.848 37.848 0 0 0-37.808 37.808v65.784z m32-65.784c0-3.152 2.664-5.808 5.808-5.808h346.352c3.144 0 5.808 2.656 5.808 5.808v65.784a5.88 5.88 0 0 1-5.808 5.808H336.824a5.88 5.88 0 0 1-5.8-5.808v-65.784z" fill="#000000" /></svg>