<?xml version="1.0" standalone="no"?><!DOCTYPE svg PUBLIC "-//W3C//DTD SVG 1.1//EN" "http://www.w3.org/Graphics/SVG/1.1/DTD/svg11.dtd"><svg class="icon" width="200px" height="200.00px" viewBox="0 0 1024 1024" version="1.1" xmlns="http://www.w3.org/2000/svg"><path d="M459.04 134.168c43.88 43.64 52.208 110.4 53.568 142.136 0.592 13.728-4.264 18.44-17.96 17.856-31.92-1.36-99.08-9.632-142.96-53.264-43.896-43.632-52.216-110.4-53.576-142.136-0.584-13.616 4.152-18.44 17.96-17.856 31.92 1.36 99.072 9.64 142.96 53.264z" fill="#46C79C" /><path d="M509.776 320.432c-24.512 0-44.384-19.76-44.384-44.128v-195.44c0-24.376 19.872-44.128 44.384-44.128s44.384 19.76 44.384 44.128v195.44c0 24.368-19.872 44.128-44.384 44.128z" fill="#866539" /><path d="M576.64 82.4c-54.72 54.4-65.088 137.64-66.792 177.208-0.736 17.12 5.32 22.992 22.4 22.264 39.792-1.696 123.52-12 178.24-66.416 54.72-54.4 65.104-137.64 66.8-177.208 0.736-16.976-5.176-22.992-22.392-22.264-39.8 1.688-123.52 12.008-178.248 66.416z" fill="#6CF5C5" /><path d="M68.32 434.464c0-126.144 102.856-228.4 229.744-228.4 83.856 0 152.952 43.424 211.696 43.424 58.752 0 127.84-43.424 211.704-43.424h0.008c126.88 0 229.744 102.256 229.744 228.4 0 141.12-70.976 571.608-314.84 571.608h-0.016c-63.296 0-80.976-31.056-126.592-31.056-45.624 0-63.304 31.056-126.608 31.056-243.856 0-314.84-430.496-314.84-571.6z" fill="#FF6376" /><path d="M247.088 468.28a30.136 29.96 0 1 0 60.272 0 30.136 29.96 0 1 0-60.272 0Z" fill="#3F4963" /><path d="M712.192 468.28a30.136 29.96 0 1 0 60.272 0 30.136 29.96 0 1 0-60.272 0Z" fill="#3F4963" /><path d="M309.448 572.376h-64.472a15.968 15.968 0 0 1-16.016-15.92c0-8.8 7.168-15.92 16.016-15.92h64.48c8.84 0 16.008 7.12 16.008 15.92s-7.168 15.92-16.016 15.92zM774.576 572.376h-64.48a15.968 15.968 0 0 1-16.008-15.92c0-8.8 7.168-15.92 16.016-15.92h64.48c8.84 0 16.008 7.12 16.008 15.92s-7.168 15.92-16.016 15.92z" fill="#FF9596" /><path d="M472.04 551.68c-29.632 0-53.752-23.976-53.752-53.44 0-8.8 7.176-15.92 16.016-15.92 8.848 0 16.016 7.128 16.016 15.92a21.68 21.68 0 0 0 21.72 21.584 21.68 21.68 0 0 0 21.72-21.584c0-8.8 7.168-15.92 16.016-15.92 8.84 0 16.016 7.128 16.016 15.92 0 29.464-24.112 53.44-53.752 53.44z" fill="#3F4963" /><path d="M547.504 551.68c-29.632 0-53.744-23.976-53.744-53.44 0-8.8 7.168-15.92 16.016-15.92 8.848 0 16.016 7.128 16.016 15.92a21.68 21.68 0 0 0 21.712 21.584 21.68 21.68 0 0 0 21.72-21.584c0-8.8 7.168-15.92 16.016-15.92 8.84 0 16.016 7.128 16.016 15.92 0 29.464-24.112 53.44-53.752 53.44z" fill="#3F4963" /><path d="M277.216 438.336c-16.64 0-30.136 13.408-30.136 29.96 0 16.544 13.488 29.96 30.136 29.96 16.64 0 30.136-13.416 30.136-29.96 0-16.552-13.496-29.96-30.136-29.96z m472.528-246.56c34.016-53.448 42-116.832 43.552-152.848 0.368-8.48-0.184-20.8-9.16-29.728C775.152 0.272 762.76-0.28 754.216 0.08 652.104 4.416 595.136 42.984 568.736 67.856a60.416 60.416 0 0 0-58.96-47.04c-33.304 0-60.4 26.944-60.4 60.056v24.6c-25.784-18.12-68.16-37.728-132.624-40.464-4.288-0.176-17.344-0.736-26.368 8.24-9.016 8.96-8.456 21.944-8.28 26.2 0.872 20.208 4.552 55.544 18.512 90.744-0.848 0-1.696-0.04-2.552-0.04-135.512 0-245.76 109.6-245.76 244.32 0 82.032 20.976 224.8 67.04 344.416 61.232 159.056 152.464 243.12 263.824 243.12 37.584 0 60.512-9.968 80.728-18.76 15.8-6.872 28.28-12.296 45.872-12.296 17.6 0 30.072 5.424 45.872 12.296 20.224 8.8 43.144 18.76 80.728 18.76h0.016c111.36 0 202.592-84.064 263.824-243.12 46.056-119.616 67.04-262.384 67.04-344.416-0.016-125.216-95.248-228.72-217.504-242.704zM587.976 93.648c51.824-51.52 134.48-60.352 167.6-61.76 2.784-0.12 4.52 0.024 5.536 0.176 0.16 1.008 0.296 2.736 0.176 5.504-3.48 81.064-30.912 129.064-49.736 152.768-44.136 1.664-83.984 14.08-119.416 25.12-22.568 7.04-44.192 13.776-63.904 16.64 5.024-40.08 19.36-98.304 59.744-138.448z m-106.56-12.792c0-15.552 12.72-28.2 28.36-28.2 15.64 0 28.368 12.648 28.368 28.2v24.12c-27.648 43.024-38.256 92.664-42.24 127.728a179.368 179.368 0 0 1-14.496-2.32V80.864z m-166.032 15.952c78.648 3.344 118.736 35.12 132.32 48.616 0.56 0.56 1.12 1.144 1.68 1.72v75.056c-7.208-2.136-14.552-4.416-22-6.744-27.528-8.584-57.72-17.968-90.52-22.52-17.664-35.072-21.856-74-22.752-94.856a31.624 31.624 0 0 1-0.032-1.296c0.384 0 0.824 0 1.304 0.024z m554.904 670.68c-25.984 67.488-57.416 120.688-93.416 158.112-41.2 42.832-88.48 64.552-140.496 64.552h-0.016c-30.88 0-49.696-8.184-67.888-16.096-16.92-7.36-34.416-14.96-58.704-14.96-24.296 0-41.792 7.6-58.712 14.96-18.192 7.92-37.008 16.096-67.896 16.096-52.016 0-99.28-21.72-140.496-64.56-36-37.416-67.424-90.608-93.408-158.104-51.352-133.36-64.92-276.16-64.92-333.024 0-117.16 95.872-212.48 213.728-212.48 43.2 0 82.104 12.128 119.744 23.864 32.256 10.056 62.736 19.552 91.96 19.552 29.216 0 59.688-9.496 91.952-19.552 37.632-11.736 76.544-23.864 119.76-23.864 117.848 0 213.728 95.32 213.728 212.48 0 56.872-13.576 199.656-64.92 333.024zM585.248 482.32a15.968 15.968 0 0 0-16.024 15.92 21.68 21.68 0 0 1-21.712 21.592 21.68 21.68 0 0 1-21.72-21.592c0-8.8-7.168-15.92-16.016-15.92a15.968 15.968 0 0 0-16.016 15.92 21.68 21.68 0 0 1-21.712 21.592 21.68 21.68 0 0 1-21.72-21.592c0-8.8-7.168-15.92-16.016-15.92a15.968 15.968 0 0 0-16.016 15.92c0 29.464 24.112 53.44 53.752 53.44a53.744 53.744 0 0 0 37.736-15.424 53.728 53.728 0 0 0 37.728 15.424c29.64 0 53.76-23.976 53.76-53.44a15.984 15.984 0 0 0-16.032-15.92z m157.096-43.984c-16.64 0-30.136 13.408-30.136 29.96 0 16.544 13.488 29.96 30.136 29.96 16.64 0 30.136-13.416 30.136-29.96 0-16.552-13.496-29.96-30.136-29.96z" fill="#000000" /></svg>