<?xml version="1.0" standalone="no"?><!DOCTYPE svg PUBLIC "-//W3C//DTD SVG 1.1//EN" "http://www.w3.org/Graphics/SVG/1.1/DTD/svg11.dtd"><svg class="icon" width="200px" height="190.87px" viewBox="0 0 1073 1024" version="1.1" xmlns="http://www.w3.org/2000/svg"><path d="M787.997138 207.222634c-15.076943-9.499057-42.391935-24.309593-74.077658-30.453593 12.995642-29.429593 16.359024-60.232846 17.116618-77.982179 0.499512-11.547057-3.579837-15.501528-15.068618-15.010342-17.82426 0.749268-48.744065 4.096-78.298537 17.050017-6.16065-31.569171-21.029463-58.775935-30.570146-73.794602-6.193951-9.765463-11.813463-10.697886-20.979512-3.771317-21.354146 16.150894-63.687805 53.889041-72.945431 104.955837-9.265951 51.075122 17.141593 101.18452 31.477593 123.745821 3.080325 4.853593 12.654309 14.402602 17.532878 17.466277 22.652878 14.277724 72.945431 40.585366 124.228683 31.36104 51.266602-9.23265 89.146276-51.39148 105.363772-72.679024 6.95987-9.124423 6.019122-14.710634-3.779642-20.887935z" fill="#46C79C" /><path d="M330.785301 588.841626a249.83935 248.873626 0 1 0 499.678699 0 249.83935 248.873626 0 1 0-499.678699 0Z" fill="#593EAA" /><path d="M16.966764 662.186667a249.83935 248.873626 0 1 0 499.678699 0 249.83935 248.873626 0 1 0-499.678699 0Z" fill="#8162D7" /><path d="M77.099707 620.76878a32.052033 31.927154 0 1 0 64.104065 0 32.052033 31.927154 0 1 0-64.104065 0Z" fill="#3F4963" /><path d="M143.443252 722.219707H74.868553a16.933463 16.933463 0 0 1-16.966764-16.900162c0-9.332553 7.592585-16.900163 16.966764-16.900163h68.574699c9.365854 0 16.966764 7.56761 16.966764 16.900163 0 9.332553-7.600911 16.900163-16.966764 16.900162z" fill="#FF9596" /><path d="M392.408455 620.76878a32.052033 31.927154 0 1 0 64.104065 0 32.052033 31.927154 0 1 0-64.104065 0Z" fill="#3F4963" /><path d="M458.760325 722.219707h-68.583024a16.933463 16.933463 0 0 1-16.958439-16.900162c0-9.332553 7.592585-16.900163 16.958439-16.900163h68.583024c9.365854 0 16.958439 7.56761 16.958439 16.900163 0 9.332553-7.592585 16.900163-16.958439 16.900162z" fill="#FF9596" /><path d="M234.945561 695.062894c-26.923707 0-48.827317-21.820358-48.827317-48.644162 0-9.332553 7.592585-16.900163 16.966764-16.900163 9.365854 0 16.958439 7.56761 16.958439 16.900163 0 8.183675 6.685138 14.835512 14.902114 14.835512 8.20865 0 14.902114-6.651837 14.902114-14.835512 0-9.332553 7.592585-16.900163 16.958439-16.900163 9.374179 0 16.966764 7.56761 16.966764 16.900163 0 26.823805-21.895285 48.644163-48.827317 48.644162z" fill="#3F4963" /><path d="M298.674992 695.062894c-26.923707 0-48.827317-21.820358-48.827317-48.644162 0-9.332553 7.592585-16.900163 16.958439-16.900163 9.374179 0 16.966764 7.56761 16.966764 16.900163 0 8.183675 6.685138 14.835512 14.902114 14.835512 8.20865 0 14.893789-6.651837 14.893788-14.835512 0-9.332553 7.592585-16.900163 16.966765-16.900163 9.365854 0 16.966764 7.56761 16.966764 16.900163 0 26.823805-21.90361 48.644163-48.827317 48.644162z" fill="#3F4963" /><path d="M553.118179 756.361366a249.83935 248.873626 0 1 0 499.678699 0 249.83935 248.873626 0 1 0-499.678699 0Z" fill="#8162D7" /><path d="M613.251122 714.94348a32.052033 31.927154 0 1 0 64.104065 0 32.052033 31.927154 0 1 0-64.104065 0Z" fill="#3F4963" /><path d="M679.586341 816.386081h-68.574699a16.933463 16.933463 0 0 1-16.958439-16.900162c0-9.332553 7.592585-16.900163 16.958439-16.900163h68.574699c9.374179 0 16.966764 7.56761 16.966765 16.900163 0 9.332553-7.592585 16.900163-16.966765 16.900162z" fill="#FF9596" /><path d="M928.55987 714.94348a32.052033 31.927154 0 1 0 64.104065 0 32.052033 31.927154 0 1 0-64.104065 0Z" fill="#3F4963" /><path d="M994.903415 816.386081h-68.5747a16.933463 16.933463 0 0 1-16.966764-16.900162c0-9.332553 7.600911-16.900163 16.966764-16.900163h68.5747c9.374179 0 16.966764 7.56761 16.966764 16.900163 0 9.332553-7.592585 16.900163-16.966764 16.900162z" fill="#FF9596" /><path d="M771.096976 789.229268c-26.923707 0-48.827317-21.828683-48.827317-48.644162 0-9.332553 7.592585-16.900163 16.958439-16.900163 9.374179 0 16.966764 7.56761 16.966764 16.900163 0 8.183675 6.685138 14.835512 14.902114 14.835512 8.20865 0 14.902114-6.651837 14.902113-14.835512 0-9.332553 7.592585-16.900163 16.958439-16.900163 9.374179 0 16.966764 7.56761 16.966765 16.900163 0 26.823805-21.895285 48.635837-48.827317 48.635837z" fill="#3F4963" /><path d="M834.818081 789.229268c-26.915382 0-48.827317-21.828683-48.827317-48.644162 0-9.332553 7.600911-16.900163 16.966764-16.900163 9.374179 0 16.966764 7.56761 16.966765 16.900163 0 8.183675 6.685138 14.835512 14.902114 14.835512 8.20865 0 14.893789-6.651837 14.893788-14.835512 0-9.332553 7.592585-16.900163 16.966764-16.900163 9.365854 0 16.958439 7.56761 16.958439 16.900163 0 26.823805-21.895285 48.635837-48.827317 48.635837z" fill="#3F4963" /><path d="M802.965854 569.452228c-21.870309 0-39.594667-17.649431-39.594667-39.436488 0-113.922081 93.042472-206.606569 207.414114-206.606569 21.861984 0 39.586341 17.649431 39.586341 39.436488 0 21.778732-17.724358 39.436488-39.586341 39.436487-70.714276 0-128.233106 57.302374-128.233106 127.733594 0 21.778732-17.732683 39.436488-39.594667 39.436488zM266.806114 475.285854c-21.861984 0-39.586341-17.649431-39.586342-39.436488 0-70.43122-57.527154-127.733593-128.233105-127.733594-21.861984 0-39.594667-17.649431-39.594667-39.436487 0-21.778732 17.732683-39.436488 39.594667-39.436488 114.363317 0 207.414114 92.684488 207.414113 206.606569 0 21.787057-17.732683 39.436488-39.594666 39.436488zM580.62465 401.940813c-21.861984 0-39.586341-17.657756-39.586341-39.444813 0-70.43122-57.527154-127.733593-128.241431-127.733593-21.861984 0-39.586341-17.649431-39.586341-39.436488 0-21.778732 17.724358-39.436488 39.586341-39.436488 114.371642 0 207.414114 92.684488 207.414114 206.606569 0 21.787057-17.724358 39.436488-39.586342 39.436488z" fill="#6CF5C5" /><path d="M960.620228 683.008a31.985431 31.985431 0 0 0-32.052033 31.927154 31.993756 31.993756 0 0 0 32.052033 31.927155 31.993756 31.993756 0 0 0 32.052032-31.927155 31.985431 31.985431 0 0 0-32.052032-31.927154z m45.097626-99.411252a267.372228 267.372228 0 0 0-141.370277-85.874472c13.911415-45.405659 56.361626-78.539967 106.437724-78.539967 31.186211 0 56.553106-25.275317 56.553106-56.33665 0-31.061333-25.366894-56.33665-56.553106-56.336651-80.413138 0-151.069138 42.366959-190.697106 105.854959-38.11278-42.583415-89.537561-72.312715-145.491252-83.843121-0.632715-4.096-1.381984-8.158699-2.23948-12.179773 10.930992 2.164553 21.628878 3.28013 32.027057 3.28013 8.549984 0 16.900163-0.740943 25.042212-2.206179 56.078569-10.090146 96.663935-53.880715 115.861853-79.081105 2.414309-3.163577 9.757138-12.787512 7.575935-24.800781-2.181203-12.021593-12.429528-18.473626-15.79291-20.596553-14.444228-9.099447-35.581919-20.471675-60.524228-27.964357 8.042146-24.675902 10.714537-48.461008 11.447155-65.469399 0.166504-3.971122 0.690992-16.042667-7.975545-24.675902-8.666537-8.624911-20.779707-8.125398-24.759155-7.942244-17.074992 0.715967-40.96 3.388358-65.74413 11.405528-7.517659-24.859057-18.931512-45.913496-28.06426-60.291122-2.131252-3.355057-8.616585-13.570081-20.68813-15.742959-12.054894-2.156228-21.71213 5.144976-24.884032 7.542634-25.308618 19.122992-69.265691 59.550179-79.397464 115.412293a140.812488 140.812488 0 0 0-2.106276 29.07161 224.006244 224.006244 0 0 0-81.570342-15.293399c-31.186211 0-56.553106 25.275317-56.553105 56.336651 0 31.069659 25.366894 56.344976 56.553105 56.344975 50.051122 0 92.493008 33.101008 106.412748 78.473366a265.207675 265.207675 0 0 0-144.059317 89.146277 265.873691 265.873691 0 0 0-54.380227-17.416326c-16.483902-107.178667-109.659577-189.523252-221.783415-189.523252-31.186211 0-56.561431 25.266992-56.561431 56.328326 0 31.069659 25.37522 56.33665 56.553106 56.33665 50.084423 0 92.526309 33.134309 106.437723 78.548293a267.322276 267.322276 0 0 0-141.361951 85.866146A265.174374 265.174374 0 0 0 0 662.203317c0 146.540228 119.691447 265.773789 266.806114 265.773789 82.486114 0 156.347317-37.48839 205.324488-96.23935a264.458407 264.458407 0 0 0 82.419512 21.612228c38.978602 98.728585 135.634211 168.785171 248.41574 168.78517 147.114667 0 266.806114-119.225236 266.806113-265.773788 0-63.354797-22.75278-124.711545-64.054113-172.764618z m-34.932553-243.287415a22.602927 22.602927 0 0 1 22.619577 22.536326 22.602927 22.602927 0 0 1-22.619577 22.536325c-80.071805 0-145.19987 64.886634-145.19987 144.633756a22.602927 22.602927 0 0 1-22.627903 22.536325 22.602927 22.602927 0 0 1-22.619577-22.536325c0-104.606179 85.433236-189.706407 190.44735-189.706407zM529.874211 131.221854c8.050472-44.398309 46.08-78.65652 64.345496-92.834342 8.241951 13.370276 21.362472 37.829724 26.807155 65.669203a16.925138 16.925138 0 0 0 8.783089 11.746862 17.025041 17.025041 0 0 0 14.693984 0.499512c26.057886-11.430504 53.714211-14.644033 69.448845-15.509853-0.874146 15.668033-4.104325 43.224455-15.56813 69.174114a16.850211 16.850211 0 0 0 0.499513 14.644032c2.389333 4.545561 6.726764 7.767415 11.788487 8.749789 27.939382 5.411382 52.498732 18.473626 65.91896 26.698927-14.236098 18.182244-48.619187 56.078569-93.192325 64.104065-19.089691 3.421659-40.152455 1.490211-62.705431-5.719415a225.080195 225.080195 0 0 0-90.469984-106.312846c-2.514211-14.460878-2.664065-28.189138-0.349659-40.910048zM412.796878 217.870569a22.602927 22.602927 0 0 1-22.619577-22.536325 22.602927 22.602927 0 0 1 22.619577-22.528c105.014114 0 190.455675 85.100228 190.455675 189.706406a22.602927 22.602927 0 0 1-22.627903 22.536326 22.602927 22.602927 0 0 1-22.619577-22.536326c0-79.755447-65.13639-144.642081-145.208195-144.642081zM98.986667 291.21561a22.602927 22.602927 0 0 1-22.619578-22.536325 22.602927 22.602927 0 0 1 22.619578-22.536326c105.014114 0 190.44735 85.108553 190.447349 189.714732a22.602927 22.602927 0 0 1-22.619577 22.528 22.602927 22.602927 0 0 1-22.619577-22.528c0-79.755447-65.144715-144.642081-145.208195-144.642081z m167.819447 602.952845c-128.39961 0-232.872585-104.065041-232.872586-231.965138a231.457301 231.457301 0 0 1 55.90374-150.794406 233.363772 233.363772 0 0 1 120.449041-74.269139c0.690992 30.470244 25.766504 55.054569 56.52813 55.054569s55.845463-24.59265 56.519805-55.079544a233.355447 233.355447 0 0 1 119.749723 73.486569 231.374049 231.374049 0 0 1 56.611383 151.601951c0 127.908423-104.481301 231.973463-232.889236 231.973463z m276.571577-76.283837a229.967089 229.967089 0 0 1-50.80039-14.219447 263.409431 263.409431 0 0 0 41.043252-141.461854 265.082797 265.082797 0 0 0-64.861659-173.705366 267.430504 267.430504 0 0 0-62.805333-53.081496 231.315772 231.315772 0 0 1 118.151285-71.671675c0.666016 30.486894 25.758179 55.08787 56.52813 55.08787 30.744976 0 55.828813-24.576 56.511479-55.054569a234.953886 234.953886 0 0 1 126.151805 81.195708 220.934244 220.934244 0 0 0-14.302699 51.058471 267.272325 267.272325 0 0 0-148.105366 86.765268A265.141073 265.141073 0 0 0 543.386016 817.867967z m259.579837 170.450211c-128.39961 0-232.872585-104.065041-232.872585-231.973463 0-55.629008 20.06374-109.426472 56.494829-151.477073a233.347122 233.347122 0 0 1 119.857952-73.611447c0.674341 30.486894 25.766504 55.079545 56.52813 55.079544 30.753301 0 55.837138-24.576 56.519805-55.054569a233.372098 233.372098 0 0 1 120.457365 74.277464 231.432325 231.432325 0 0 1 55.895415 150.786081c0 127.908423-104.472976 231.973463-232.880911 231.973463zM645.303154 683.008a31.993756 31.993756 0 0 0-32.052032 31.927154 31.993756 31.993756 0 0 0 32.052032 31.927155 31.993756 31.993756 0 0 0 32.052033-31.927155 31.985431 31.985431 0 0 0-32.052033-31.927154z m221.383805 40.676943a16.933463 16.933463 0 0 0-16.966764 16.900163c0 8.183675-6.685138 14.835512-14.902114 14.835512-8.20865 0-14.893789-6.660163-14.893788-14.835512 0-9.340878-7.592585-16.900163-16.966765-16.900163a16.933463 16.933463 0 0 0-16.966764 16.900163c0 8.183675-6.676813 14.835512-14.893788 14.835512-8.20865 0-14.902114-6.660163-14.902114-14.835512 0-9.340878-7.592585-16.900163-16.958439-16.900163a16.933463 16.933463 0 0 0-16.966764 16.900163c0 26.823805 21.90361 48.635837 48.835642 48.635837a48.702439 48.702439 0 0 0 31.860553-11.863415 48.702439 48.702439 0 0 0 31.860553 11.863415c26.915382 0 48.827317-21.812033 48.827317-48.635837 0-9.332553-7.600911-16.900163-16.966765-16.900163zM424.468813 588.841626a31.985431 31.985431 0 0 0-32.052033 31.927154 31.993756 31.993756 0 0 0 32.052033 31.93548 31.993756 31.993756 0 0 0 32.052033-31.93548 31.993756 31.993756 0 0 0-32.052033-31.927154z m-93.933268 40.676943a16.933463 16.933463 0 0 0-16.966765 16.900163c0 8.183675-6.685138 14.835512-14.902113 14.835512-8.20865 0-14.893789-6.651837-14.893789-14.835512 0-9.332553-7.592585-16.900163-16.966764-16.900163a16.933463 16.933463 0 0 0-16.958439 16.900163c0 8.183675-6.685138 14.835512-14.902114 14.835512-8.20865 0-14.902114-6.651837-14.902114-14.835512 0-9.332553-7.592585-16.900163-16.958439-16.900163a16.933463 16.933463 0 0 0-16.966764 16.900163c0 26.81548 21.90361 48.644163 48.835642 48.644162 12.171447 0 23.293919-4.49561 31.860553-11.87174a48.669138 48.669138 0 0 0 31.860553 11.863415c26.923707 0 48.827317-21.812033 48.827317-48.635837 0-9.324228-7.600911-16.900163-16.966764-16.900163zM109.143415 588.841626a31.993756 31.993756 0 0 0-32.052033 31.927154 31.993756 31.993756 0 0 0 32.052033 31.93548 31.993756 31.993756 0 0 0 32.052032-31.93548 31.993756 31.993756 0 0 0-32.052032-31.927154z" fill="#000000" /></svg>