<?xml version="1.0" standalone="no"?><!DOCTYPE svg PUBLIC "-//W3C//DTD SVG 1.1//EN" "http://www.w3.org/Graphics/SVG/1.1/DTD/svg11.dtd"><svg class="icon" width="200px" height="110.94px" viewBox="0 0 1846 1024" version="1.1" xmlns="http://www.w3.org/2000/svg"><path d="M1333.13262 993.409803c265.360225 0 480.472338-215.530366 480.472338-481.409803 0-265.879437-215.112113-481.409803-480.472338-481.409803H509.346254C244.000451 30.590197 28.873915 246.134986 28.873915 512c0 265.865014 215.126535 481.409803 480.472339 481.409803h823.786366z" fill="#46C79C" /><path d="M125.144338 512c0-212.270873 172.349296-384.937465 384.201916-384.937465h823.786366c211.867042 0 384.216338 172.666592 384.216338 384.937465H125.129915z" fill="#FF6376" /><path d="M1746.222873 512h-57.762253c0-196.305127-159.397859-356.005859-355.328-356.005859H509.346254c-195.915718 0-355.313577 159.700732-355.313578 356.005859H96.270423c0-228.222197 185.300732-413.883493 413.075831-413.883493h823.786366c227.775099 0 413.090254 185.661296 413.090253 413.883493z" fill="#FFFFFF" /><path d="M509.346254 993.409803h823.786366c124.105915 0 237.221859-47.16169 322.487887-124.553014H186.872789c85.251606 77.391324 198.367549 124.553014 322.473465 124.553014zM28.873915 512c0 67.151324 13.744676 131.072 38.522592 189.137127h1707.685859a480.587718 480.587718 0 0 0 38.522592-189.137127H28.873915z" fill="#6CF5C5" /><path d="M465.429634 262.793014a52.39707 52.296113 90 1 0 104.592225 0 52.39707 52.296113 90 1 0-104.592225 0Z" fill="#3F4963" /><path d="M1272.500282 262.793014a52.39707 52.296113 90 1 0 104.592225 0 52.39707 52.296113 90 1 0-104.592225 0Z" fill="#3F4963" /><path d="M573.656338 445.901521h-111.890028a28.902761 28.902761 0 0 1-28.873916-28.931606c0-15.980169 12.937014-28.946028 28.873916-28.946028h111.890028c15.951324 0 28.873915 12.965859 28.873916 28.946028a28.902761 28.902761 0 0 1-28.873916 28.931606zM1380.741408 445.901521h-111.875605a28.902761 28.902761 0 0 1-28.873916-28.931606c0-15.980169 12.922592-28.946028 28.873916-28.946028h111.875605c15.951324 0 28.888338 12.965859 28.888338 28.946028a28.902761 28.902761 0 0 1-28.888338 28.931606z" fill="#FF9596" /><path d="M855.775549 409.700958c-52.022085 0-94.352225-42.402254-94.352225-94.539719 0-15.980169 12.937014-28.931606 28.888338-28.931605s28.873915 12.951437 28.873915 28.931605a36.676507 36.676507 0 0 0 36.589972 36.676507 36.676507 36.676507 0 0 0 36.604395-36.676507c0-15.980169 12.922592-28.931606 28.873915-28.931605 15.951324 0 28.888338 12.951437 28.888338 28.931605 0 52.123042-42.330141 94.539718-94.366648 94.539719z" fill="#3F4963" /><path d="M986.732169 409.700958c-52.022085 0-94.352225-42.402254-94.352225-94.539719 0-15.980169 12.922592-28.931606 28.873915-28.931605 15.951324 0 28.888338 12.951437 28.888338 28.931605a36.676507 36.676507 0 0 0 36.589972 36.676507 36.676507 36.676507 0 0 0 36.589972-36.676507c0-15.980169 12.937014-28.931606 28.888338-28.931605 15.936901 0 28.873915 12.951437 28.873915 28.931605 0 52.123042-42.330141 94.539718-94.352225 94.539719zM268.547606 445.901521a28.902761 28.902761 0 0 1-28.873916-28.931606v-21.922253c0-15.980169 12.922592-28.931606 28.873916-28.931606 15.951324 0 28.873915 12.951437 28.873915 28.931606v21.922253a28.902761 28.902761 0 0 1-28.873915 28.931606zM355.198197 355.082817a28.902761 28.902761 0 0 1-28.888338-28.946028v-21.922254c0-15.965746 12.937014-28.931606 28.888338-28.931605 15.936901 0 28.873915 12.965859 28.873916 28.946028v21.922253a28.902761 28.902761 0 0 1-28.873916 28.931606zM684.421408 261.249803a28.902761 28.902761 0 0 1-28.873915-28.931606v-21.922253c0-15.980169 12.922592-28.931606 28.873915-28.931606 15.951324 0 28.888338 12.951437 28.888338 28.931606v21.922253a28.902761 28.902761 0 0 1-28.888338 28.931606zM692.137465 438.805634a28.902761 28.902761 0 0 1-28.888338-28.931606v-21.922253c0-15.980169 12.922592-28.946028 28.873915-28.946029 15.951324 0 28.888338 12.965859 28.888338 28.946029v21.922253a28.902761 28.902761 0 0 1-28.888338 28.931606zM1573.960113 445.901521a28.902761 28.902761 0 0 1-28.873916-28.931606v-21.922253c0-15.980169 12.937014-28.931606 28.873916-28.931606 15.951324 0 28.888338 12.951437 28.888338 28.931606v21.922253a28.902761 28.902761 0 0 1-28.888338 28.931606zM1487.323944 355.082817a28.902761 28.902761 0 0 1-28.873916-28.946028v-21.922254c0-15.965746 12.922592-28.931606 28.873916-28.931605 15.951324 0 28.873915 12.965859 28.873915 28.946028v21.922253a28.902761 28.902761 0 0 1-28.873915 28.931606zM1158.08631 261.249803a28.902761 28.902761 0 0 1-28.873916-28.931606v-21.922253c0-15.980169 12.937014-28.931606 28.873916-28.931606 15.951324 0 28.888338 12.951437 28.888338 28.931606v21.922253a28.902761 28.902761 0 0 1-28.888338 28.931606zM1150.384676 438.805634a28.902761 28.902761 0 0 1-28.873915-28.931606v-21.922253c0-15.980169 12.937014-28.946028 28.873915-28.946029 15.951324 0 28.888338 12.965859 28.888338 28.946029v21.922253a28.902761 28.902761 0 0 1-28.888338 28.931606z" fill="#3F4963" /><path d="M692.137465 359.005746a28.902761 28.902761 0 0 0-28.888338 28.931606v21.922254c0 15.980169 12.922592 28.931606 28.873915 28.931605a28.902761 28.902761 0 0 0 28.888338-28.931605v-21.922254a28.902761 28.902761 0 0 0-28.888338-28.931606z m-7.716057-97.755943a28.902761 28.902761 0 0 0 28.888338-28.931606v-21.922253a28.902761 28.902761 0 0 0-28.888338-28.931606 28.902761 28.902761 0 0 0-28.873915 28.931606v21.922253c0 15.965746 12.922592 28.931606 28.873915 28.931606z m367.774648 24.979831a28.902761 28.902761 0 0 0-28.873915 28.931605 36.676507 36.676507 0 0 1-36.589972 36.662085 36.676507 36.676507 0 0 1-36.589972-36.662085 28.902761 28.902761 0 0 0-28.888338-28.931605 28.902761 28.902761 0 0 0-28.873915 28.931605 36.676507 36.676507 0 0 1-36.604395 36.662085 36.676507 36.676507 0 0 1-36.589972-36.662085 28.902761 28.902761 0 0 0-28.873915-28.931605 28.902761 28.902761 0 0 0-28.888338 28.931605c0 52.123042 42.330141 94.539718 94.352225 94.539719a93.919549 93.919549 0 0 0 65.47831-26.56631 93.919549 93.919549 0 0 0 65.47831 26.56631c52.022085 0 94.352225-42.402254 94.352225-94.539719a28.902761 28.902761 0 0 0-28.873915-28.931605z m-696.997859-10.946704a28.902761 28.902761 0 0 0-28.888338 28.946028v21.922253c0 15.965746 12.937014 28.931606 28.888338 28.931606a28.902761 28.902761 0 0 0 28.873916-28.946028v-21.922254a28.902761 28.902761 0 0 0-28.873916-28.931605z m162.513127-64.901409a52.353803 52.353803 0 0 0-52.296113 52.411493 52.353803 52.353803 0 0 0 52.296113 52.397071 52.353803 52.353803 0 0 0 52.296113-52.397071 52.353803 52.353803 0 0 0-52.296113-52.39707zM268.547606 366.130479a28.902761 28.902761 0 0 0-28.873916 28.931606v21.922253c0 15.980169 12.922592 28.931606 28.873916 28.931606a28.902761 28.902761 0 0 0 28.873915-28.931606v-21.922253a28.902761 28.902761 0 0 0-28.873915-28.931606z m1305.412507 0a28.902761 28.902761 0 0 0-28.873916 28.931606v21.922253c0 15.980169 12.922592 28.931606 28.873916 28.931606a28.902761 28.902761 0 0 0 28.888338-28.931606v-21.922253a28.902761 28.902761 0 0 0-28.888338-28.931606z m-86.636169-90.833127a28.902761 28.902761 0 0 0-28.873916 28.946028v21.922254c0 15.965746 12.922592 28.931606 28.873916 28.931605a28.902761 28.902761 0 0 0 28.873915-28.946028v-21.922253a28.902761 28.902761 0 0 0-28.873915-28.931606zM1333.147042 1.658592H509.331831C228.496225 1.658592 0 230.601915 0 512c0 281.398085 228.496225 510.341408 509.346254 510.341408h823.786366c280.864451 0 509.346254-228.943324 509.346253-510.341408 0-281.398085-228.481803-510.341408-509.346253-510.341408zM509.331831 59.536225h823.786366c239.313127 0 435.704789 187.464113 450.646535 423.532169H58.699718C73.67031 247.014761 270.061972 59.536225 509.360676 59.536225z m823.786366 904.92755H509.346254c-239.298704 0-435.690366-187.464113-450.632113-423.532169H1783.779155c-14.956169 236.053634-211.333408 423.532169-450.646535 423.532169z m-175.04631-782.999437a28.902761 28.902761 0 0 0-28.873915 28.931606v21.922253c0 15.965746 12.922592 28.931606 28.873915 28.931606a28.902761 28.902761 0 0 0 28.888338-28.931606v-21.922253a28.902761 28.902761 0 0 0-28.888338-28.931606z m166.724507 28.931606a52.353803 52.353803 0 0 0-52.296112 52.39707 52.353803 52.353803 0 0 0 52.296112 52.397071 52.353803 52.353803 0 0 0 52.296113-52.397071 52.353803 52.353803 0 0 0-52.296113-52.39707zM1150.384676 359.005746a28.902761 28.902761 0 0 0-28.873915 28.931606v21.922254c0 15.980169 12.922592 28.931606 28.873915 28.931605a28.902761 28.902761 0 0 0 28.888338-28.931605v-21.922254a28.902761 28.902761 0 0 0-28.888338-28.931606z" fill="#000000" /></svg>