<?xml version="1.0" standalone="no"?><!DOCTYPE svg PUBLIC "-//W3C//DTD SVG 1.1//EN" "http://www.w3.org/Graphics/SVG/1.1/DTD/svg11.dtd"><svg class="icon" width="200px" height="200.00px" viewBox="0 0 1024 1024" version="1.1" xmlns="http://www.w3.org/2000/svg"><path d="M844.772866 164.634302l-32.668283 3.358422-15.265552-7.632777c-0.10177-44.168332 9.057561-119.37662-58.925033-119.47839-146.752845-0.203541-293.546397-0.203541-440.360304 0-86.097716 0.10177-78.159629 54.955989-75.411829 124.566908-10.248274 2.646029-22.358946 2.778331-36.332015 0.407081l-12.110672-0.10177c5.495599-18.05406 8.406231-36.606795 8.75225-55.668381 1.323015-80.195036 44.880724-109.708437 121.615569-109.810208C438.464921 0.000407 572.862845-0.070832 707.281123 0.071646c79.177332 0.10177 127.518248 25.239047 128.0271 110.624371 0.132301 18.318663 3.287182 36.291307 9.464643 53.938285z" fill="#4F697D" /><path d="M796.839031 160.359947l15.265552 7.632777c-2.788508 76.124222-3.806211 152.248443-3.05311 228.372665 2.035407 207.713284 0.915933 415.83365 0.10177 623.546934l-569.812189-1.119474c-1.628326-5.69914-2.442488-10.278805-2.442488-13.738997 1.150005-279.736161 0.234072-559.472322-2.7478-839.198306 2.442488-1.831866 3.765503-2.95134 7.022154-2.95134 185.222037 1.282306 370.444074 0.437613 555.666111-2.544259zM424.858225 266.536953a16.588567 16.588567 0 0 0-16.619098-16.558035l-35.416082 0.061062a16.588567 16.588567 0 0 0-16.558036 16.619098l0.010177 6.920384a16.588567 16.588567 0 0 0 16.619098 16.558036l35.416082-0.061063a16.588567 16.588567 0 0 0 16.558036-16.619098l-0.010177-6.920384z m243.434677 2.910632a19.641678 19.641678 0 0 0-19.641678-19.641677h-183.39017a19.641678 19.641678 0 0 0-19.641678 19.641677v1.017704a19.641678 19.641678 0 0 0 19.641678 19.641678h183.39017a19.641678 19.641678 0 0 0 19.641678-19.641678v-1.017704z m73.783504 320.678373c0-127.47754-103.337613-230.815154-230.815154-230.815154-127.467363 0-230.815154 103.337613-230.815154 230.815154 0 127.467363 103.34779 230.815154 230.815154 230.815154 127.47754 0 230.815154-103.34779 230.815154-230.815154z m-164.867967 327.995661a19.743448 19.743448 0 0 0-19.70274-19.784156l-181.761845-0.305311a19.743448 19.743448 0 0 0-19.773979 19.702739v1.221245a19.743448 19.743448 0 0 0 19.70274 19.773979l181.761845 0.315488a19.743448 19.743448 0 0 0 19.784156-19.70274v-1.221244z m92.203937 0.47832c0.020354-5.780556-3.857096-11.32704-10.757126-15.418208-6.90003-4.101345-16.273079-6.411532-26.043033-6.421709-9.769954-0.020354-19.132826 2.259302-26.053209 6.330116-6.920384 4.070814-10.808011 9.607121-10.818189 15.3775-0.010177 5.780556 3.867273 11.32704 10.757126 15.418208 6.90003 4.101345 16.273079 6.411532 26.043033 6.431886 9.769954 0.010177 19.143003-2.269479 26.05321-6.340293 6.920384-4.070814 10.818188-9.596944 10.828365-15.3775zM117.114864 163.311288l-3.053111 4.783206c-3.256651 283.735736-2.035407 567.471471 0 851.308977C43.494193 1010.244139 8.139173 973.026722 8.017049 907.761397c-0.753101-340.116509-0.783632-550.21122-0.101771-630.263777 0.610622-71.514025 37.003699-109.576136 109.199586-114.186332z" fill="#DC1C4B" /><path d="M117.114864 163.311288l56.584314 2.442488 12.110672 0.10177-71.748097 2.238948z" fill="#E593BE" fill-opacity=".976" /><path d="M844.772866 164.634302c35.548383-4.274355 65.947187-3.195589 91.186233 3.256651l-0.915933 849.578881c-40.647078 7.795609-82.606993 8.609772-125.889923 2.442489 0.814163-207.713284 1.933637-415.83365-0.10177-623.546934-0.753101-76.124222 0.264603-152.248443 3.05311-228.372665l32.668283-3.358422zM185.80985 165.855546c13.973069 2.371249 26.083741 2.238948 36.332015-0.407081l12.008901 0.407081c2.981871 279.725984 3.897804 559.462144 2.7478 839.198306 0 3.460192 0.814163 8.039858 2.442488 13.738997-41.725843 6.513302-83.492395 6.716843-125.279301 0.610622-2.035407-283.837506-3.256651-567.573241 0-851.308977l71.748097-2.238948z" fill="#E2F0FA" /><path d="M935.959099 167.890953c84.164079 27.274454 77.752547 80.703887 78.56671 166.801604 3.114173 314.806223 2.67656 509.492903-1.323014 584.060038-2.513728 47.353744-28.566937 80.256098-78.159629 98.717239l0.915933-849.578881z" fill="#DC1C4B" /><path d="M356.240247 250.079515m16.588541-0.028952l35.416028-0.061813q16.588542-0.028952 16.617495 16.559589l0.012078 6.920373q0.028952 16.588542-16.559589 16.617495l-35.416028 0.061812q-16.588542 0.028952-16.617494-16.559589l-0.012079-6.920373q-0.028952-16.588542 16.559589-16.617494Z" fill="#A21538" /><path d="M445.629553 249.816085m19.641678 0l183.39017 0q19.641678 0 19.641678 19.641678l0 1.017703q0 19.641678-19.641678 19.641678l-183.39017 0q-19.641678 0-19.641678-19.641678l0-1.017703q0-19.641678 19.641678-19.641678Z" fill="#A21538" /><path d="M742.086583 590.136135c0 127.47754-103.337613 230.815154-230.815154 230.815154S280.456275 717.613675 280.456275 590.136135s103.337613-230.815154 230.815154-230.815154a230.815154 230.815154 0 0 1 230.815154 230.815154z m-167.921078-75.310059c8.65048-96.07121-132.097914-102.584513-122.429731-2.747799 2.646029 27.986846-28.699239 14.349619-42.336465 17.60627-77.956088 18.522204-55.566611 143.394423 33.584215 119.885472 2.47302-0.671684 5.007101 0.427435 6.696489 2.900455 1.689388 2.483197 2.320364 6.004451 1.64868 9.311987-11.805361 59.026803 36.128474 92.916329 88.743745 71.239245 32.261201-13.331916 33.787756-38.367422 32.668282-69.81446a8.65048 8.65048 0 0 1 7.938088-8.85402c63.708239-5.363297 88.133123-35.08024 73.274652-89.150827-6.442063-23.47842-29.136851-35.894402-68.084365-37.247948a12.110672 12.110672 0 0 1-11.70359-13.128375z" fill="#E2F0FA" /><path d="M356.005568 898.001939m19.743418 0.034459l181.761568 0.317234q19.743418 0.034459 19.708959 19.777877l-0.002131 1.221242q-0.034459 19.743418-19.777877 19.708959l-181.761568-0.317234q-19.743418-0.034459-19.708959-19.777877l0.002131-1.221242q0.034459-19.743418 19.777877-19.708959Z" fill="#A21538" /><path d="M595.740876 918.484755a36.840867 21.778855 0.1 1 0 73.681621 0.128599 36.840867 21.778855 0.1 1 0-73.681621-0.128599Z" fill="#A21538" /><path d="M574.165505 514.826076a12.110672 12.110672 0 0 0 11.70359 13.128375c38.937336 1.353546 61.632124 13.769528 68.084365 37.247948 14.858471 54.070587-9.566413 83.787529-73.274652 89.150827a8.65048 8.65048 0 0 0-7.938088 8.85402c1.119474 31.447038-0.407081 56.482544-32.668282 69.81446-52.615271 21.677085-100.549106-12.212442-88.743745-71.239245 0.661507-3.317713 0.040708-6.82879-1.64868-9.311987-1.699565-2.47302-4.22347-3.572139-6.696489-2.900455-89.150827 23.508951-111.540303-101.363268-33.584215-119.885472 13.637227-3.256651 44.982495 10.380576 42.336465-17.60627-9.668183-99.836713 131.080211-93.323411 122.429731 2.747799z" fill="#DC1C4B" /></svg>