<?xml version="1.0" standalone="no"?><!DOCTYPE svg PUBLIC "-//W3C//DTD SVG 1.1//EN" "http://www.w3.org/Graphics/SVG/1.1/DTD/svg11.dtd"><svg class="icon" width="200px" height="200.00px" viewBox="0 0 1024 1024" version="1.1" xmlns="http://www.w3.org/2000/svg"><path d="M851.896617 51.62792c-15.853494-1.106058-28.269884 3.377639-37.225383 13.439196l-514.257378 186.483712c-15.936746 2.021826-118.812007 9.276613-112.627599-10.584854A72474.884501 72474.884501 0 0 1 812.054753 12.618573c12.844541-4.673986 23.821867-6.897994 32.94387-6.660133 29.019149 0.642227 31.314516 15.865387 6.897994 45.66948z" fill="#423F43" /><path d="M851.896617 51.62792l4.876169 200.279701-29.732735 2.973273a1517.963139 1517.963139 0 0 0-12.368817-189.813778c8.9555-10.061557 21.37189-14.545254 37.225383-13.439196z" fill="#867A84" /><path d="M814.671234 65.067116a1517.963139 1517.963139 0 0 1 12.368817 189.813778l-526.626195-3.330066 514.257378-186.483712z" fill="#FFFFFF" /><path d="M187.786257 240.965974c-6.184409 19.861467 96.690853 12.606679 112.627599 10.584854l526.626195 3.330066 29.732735-2.973273c13.165655-1.34392 23.667257 1.15363 31.516698 7.492649 17.244986 13.91492 10.228061 95.144751 9.633406 117.86056l-166.02759 3.448997H687.296199l-80.278384-0.951448-2.49755-50.78351c-0.451938-9.514475-7.100177-17.007124-15.104229-17.007125l-159.72425-0.237861c-16.650331 16.578973-20.812914 38.414693-12.487749 65.530947l-18.315364 3.448997H354.289571l-186.483711-0.594655-42.458345-3.330066 0.118931-105.848535c0-4.079331 2.331046-7.647259 5.827616-8.919821l56.492195-21.050776z m669.343322 71.120701a14.509574 14.509574 0 1 0-29.019149 0 14.509574 14.509574 0 0 0 29.019149 0z m-668.154012 1.0347a12.844541 12.844541 0 0 0-4.079331-9.478796 14.997191 14.997191 0 0 0-10.121023-4.043652c-7.95648-0.107038-14.473895 5.768151-14.580933 13.129975-0.047572 3.532249 1.427171 6.933674 4.079331 9.466903 2.664053 2.545122 6.30334 3.99608 10.121023 4.043652 7.95648 0.118931 14.473895-5.756257 14.580933-13.118082z" fill="#554E54" /><path d="M429.691786 311.729883l114.887286 3.330066c3.80579 0.071359 7.088284 2.081291 8.325166 5.11403 8.004052 19.195453 9.193362 39.05692 3.567928 59.5844l-56.492195 0.951448h-35.679282l-47.096652-3.448997c-8.325166-27.116254-4.162583-48.951974 12.487749-65.530947z" fill="#FCD430" /><path d="M429.691786 311.729883l159.72425 0.237861c8.004052 0 14.652292 7.492649 15.104229 17.007125l2.49755 50.78351H556.472166c5.625433-20.52748 4.436124-40.388947-3.567928-59.5844-1.236882-3.032739-4.519376-5.042672-8.325166-5.11403l-114.887286-3.330066z" fill="#E6B729" /><path d="M125.347515 376.785106l42.458345 3.330066c7.528328 13.962492 9.240934 28.709929 5.11403 44.242309-37.582177 10.632426-53.792463 0.713586-48.642754-29.732734 0.677906-3.984186-0.071359-7.694832-2.021826-10.10913l-3.330066-4.281514 6.422271-3.448997z" fill="#F1EFF2" /><path d="M417.204037 377.26083l47.096652 3.448997-2.973273 43.647654h-62.438743v-43.647654zM897.92289 377.26083l3.448998 3.448997-7.373719 37.938969c-0.594655 3.258708-4.11501 5.61354-8.325165 5.589754l-156.750977 0.118931 2.973273-43.647654 166.02759-3.448997z" fill="#E1DDE1" /><path d="M118.925244 380.234103l3.330066 4.281514c1.950467 2.414298 2.699732 6.124943 2.021826 10.10913-5.14971 30.44632 11.060577 40.36516 48.642754 29.732734h107.037845l70.882839-2.497549 48.048099 2.497549H728.922027l156.750977-0.118931c4.210155 0.023786 7.730511-2.331046 8.325165-5.589754l7.373719-37.938969h8.91982l8.91982 26.997323c1.581781 4.923741 2.140757 8.6106 1.665034 11.060577-3.567928 18.71973-3.127884 37.427566 1.30824 56.135403l-20.812914 0.951448-121.904212-2.973274h-666.013255l-56.96792-2.616481c-3.710645-0.118931-6.660133-3.008953-6.660132-6.541201l0.237862-73.975044a7.016925 7.016925 0 0 1 6.897994-6.779063l61.963019-2.735412z" fill="#7A6D79" /><path d="M167.80586 380.115172l186.483711 0.594655a86.87905 86.87905 0 0 0-3.448997 41.150105l-70.882839 2.497549 3.448997-32.230284c0.3449-3.353852-2.319153-6.624453-6.30334-7.730511-33.300663-9.11011-44.242309 4.210155-32.824939 39.960795h-71.358563c4.126904-15.532381 2.414298-30.279817-5.11403-44.242309z" fill="#E1DDE1" /><path d="M354.289571 380.709827h44.599102v43.647654l-48.048099-2.497549a86.87905 86.87905 0 0 1 3.448997-41.150105zM464.300689 380.709827h35.679282c8.884141 13.248907 10.858395 27.79416 5.946546 43.647654H461.327416l2.973273-43.647654z" fill="#F1EFF2" /><path d="M499.979971 380.709827l56.492195-0.951448h50.545649l80.278384 0.951448a80.873038 80.873038 0 0 0-2.973274 43.647654h-178.396408c4.911848-15.853494 2.937594-30.398748-5.946546-43.647654z" fill="#E1DDE1" /><path d="M687.296199 380.709827h44.599101l-2.973273 43.647654h-44.599102a80.873038 80.873038 0 0 1 2.973274-43.647654z" fill="#F1EFF2" /><path d="M910.291708 380.709827l46.977721 0.237862c3.603607 0 6.945567 2.402405 8.444096 6.065478 9.835589 24.428415 11.096257 49.403912 3.80579 74.926491a13.106189 13.106189 0 0 1-7.135856 8.206235c-12.606679 5.554075-26.010196 7.135856-40.198657 4.757237a132.7745 132.7745 0 0 1-1.30824-56.135403c0.475724-2.449977-0.083252-6.136836-1.665034-11.060577l-8.91982-26.997323z" fill="#685E67" /><path d="M279.957735 424.357481h-35.679282c-11.41737-35.75064-0.475724-49.070905 32.824939-39.960795 3.984186 1.106058 6.648239 4.376659 6.30334 7.730511l-3.448997 32.230284z" fill="#F1EFF2" /><path d="M113.454421 472.881304h118.930938l-18.910019 75.283284c-17.209307-31.94485-42.458345-37.379994-75.759008-16.293538-15.853494-15.936746-23.940798-35.59603-24.261911-58.989746z" fill="#CBC5CB" /><path d="M232.385359 472.881304h547.082317c1.510423 23.001243 10.430243 41.828011 26.759461 56.492196l1.30824 28.186632c-9.514475 11.41737-22.83474 15.901066-39.960795 13.439196-87.41424-1.189309-178.158546-11.536301-226.682369 17.601779-2.699732 1.617461-5.209175 4.721558-7.135856 8.80089-3.722538 7.849442-10.025878 12.927793-18.910019 15.22316l-14.866367 2.973273c-24.820887-37.261063-61.011571-51.568455-108.583947-42.934069-21.883293-0.951448-78.851212-1.665033-170.903759-2.140756-7.052605 0-10.192381-3.9604-9.395544-11.893094-0.237862-2.378619 0.558975-5.863295 2.378619-10.465923l18.910019-75.283284z" fill="#FFFFFF" /><path d="M779.467676 472.881304l121.904212 2.973274c-1.902895 23.714829-8.717638 43.849837-20.456122 60.416916-22.513627-17.756389-47.417765-20.051756-74.688629-6.897994-16.329218-14.664185-25.249038-33.490952-26.759461-56.492196z" fill="#CBC5CB" /><path d="M213.47534 548.164588c-1.819643 4.602627-2.616481 8.087304-2.378619 10.465923a8.824676 8.824676 0 0 0-2.735411 3.686859c-1.070378 3.104097-2.675946 5.411358-4.400445 6.30334-17.839641 9.276613-25.367969 24.785208-22.596878 46.501996l-35.679282-2.973273-7.968373-80.278383c33.300663-21.086455 58.549701-15.651311 75.759008 16.293538zM880.915766 536.271494l-6.303339 75.402215-38.176832 6.422271-4.876168-33.538525c-0.380579-2.735412-2.390512-6.029799-5.589754-9.157682l-18.434296-17.839641-1.30824-28.186632c27.270864-13.153762 52.175003-10.858395 74.688629 6.897994z" fill="#6B626B" /><path d="M807.535377 557.560132l18.434296 17.839641c3.199242 3.127884 5.209175 6.422271 5.589754 9.157682l4.876168 33.538525-2.140757 254.036484a134.867684 134.867684 0 0 1-63.271259 4.638307l-0.951447-2.973274c4.602627-19.02895 2.224009-36.190685-7.135857-51.497096 14.592826-5.780044 15.972425-15.37777 4.162583-28.781287 9.597727-10.061557 9.752337-20.135008 0.475724-30.208458 11.809842-9.752337 11.655232-19.504674-0.475724-29.257011l2.973274-26.759461c9.906947-11.334118 9.074431-21.086455-2.49755-29.257011 8.717638-9.823696 8.563028-19.897146-0.475724-30.208458 10.787036-10.941646 9.95452-20.016077-2.49755-27.235185 13.795989-8.444097-2.854343-33.062801 2.973274-49.594202 17.126055 2.46187 30.44632-2.021826 39.960795-13.439196z" fill="#E1DDE1" /><path d="M211.096721 558.630511c-0.796837 7.932694 2.342939 11.893094 9.395544 11.893094 92.052546 0.475724 149.020466 1.189309 170.903759 2.140756 32.587077 19.980398 49.950994 47.025293 52.091751 81.1109 3.722538 61.059144 2.533229 135.866704-3.567928 224.422681l-37.106453-0.237862-220.49796-1.189309-0.951447-261.648065c-2.771091-21.716789 4.757238-37.225384 22.596878-46.501996 1.724499-0.891982 3.330066-3.199242 4.400445-6.30334a8.824676 8.824676 0 0 1 2.735411-3.686859z m208.367004 75.283284a15.579953 15.579953 0 0 0-15.579953-15.579953H254.982237a15.579953 15.579953 0 0 0-15.579952 15.579953v0.951447a15.579953 15.579953 0 0 0 15.579952 15.579953h148.901535a15.579953 15.579953 0 0 0 15.579953-15.579953v-0.951447z m0.237862 57.919367a14.271713 14.271713 0 0 0-14.271712-14.271713H255.33903a14.271713 14.271713 0 0 0-14.271712 14.271713v1.189309a14.271713 14.271713 0 0 0 14.271712 14.271713H405.429875a14.271713 14.271713 0 0 0 14.271712-14.271713v-1.189309z m-0.118931 56.730057a14.390644 14.390644 0 0 0-14.390643-14.390643H253.436135a14.390644 14.390644 0 0 0-14.390643 14.390643v0.713586a14.390644 14.390644 0 0 0 14.390643 14.390643h151.755878a14.390644 14.390644 0 0 0 14.390643-14.390643v-0.713586z m-0.713585 59.417897a14.866367 14.866367 0 0 0-14.735544-14.997191l-147.712225-1.296347a14.866367 14.866367 0 0 0-14.985298 14.747436l-0.011893 1.189309a14.866367 14.866367 0 0 0 14.735543 14.985299l147.712225 1.296347a14.866367 14.866367 0 0 0 14.985299-14.747437l0.011893-1.189309z" fill="#F1EFF2" /><path d="M391.396024 572.664361c47.572375-8.634386 83.76306 5.673006 108.583947 42.934069-1.510423 9.276613 2.295367 16.055677 11.41737 20.337191-0.868196 25.534472-1.700712 108.786129-2.49755 249.75497 0 4.281514-2.140757 17.173628-6.422271 38.652555-19.18356-24.975497-40.044047-40.353267-62.557673-46.145204 6.101157-88.555977 7.290467-163.363537 3.567928-224.422681-2.140757-34.085607-19.504674-61.130502-52.091751-81.1109z" fill="#E1DDE1" /><path d="M767.574582 570.999328c-5.827616 16.5314 10.822715 41.150105-2.973274 49.594202a974.520109 974.520109 0 0 0-157.345631 0.356792c-3.853362 0.285434-7.135856 2.545122-8.444097 5.827616-15.579953 38.414693 132.489065 23.548326 168.287278 21.050777 9.038751 10.311312 9.193362 20.384763 0.475724 30.208458-2.49755 0-216.573239-11.536301-162.697524 24.380842 17.72071 11.893094 136.770579 4.876168 165.195074 4.876169l-2.973274 26.759461-153.539841 0.118931a15.579953 15.579953 0 0 0-10.584854 3.80579c-44.242309 39.841864 155.561667 25.451221 164.600419 25.33229 9.276613 10.07345 9.122003 20.146901-0.475724 30.208458-3.330066-0.118931-223.11444-13.795989-161.270352 24.737635 19.980398 12.606679 127.137173 4.638307 157.107769 4.043652 9.359865 15.306412 11.738484 32.468146 7.135857 51.497096-53.28106 3.413318-106.645372 4.566948-160.081043 3.448998-46.537676-1.022806-80.242704 18.791088-101.091298 59.465469l-6.422271-12.368818c4.281514-21.478927 6.422271-34.371041 6.422271-38.652555 0.796837-140.968841 1.629354-224.220498 2.49755-249.75497 7.61158-7.052605 8.76521-14.818795 3.448997-23.310464 8.884141-2.295367 15.187481-7.373718 18.910019-15.22316 1.926681-4.079331 4.436124-7.183429 7.135856-8.80089 48.523823-29.13808 139.268129-18.791088 226.682369-17.601779z" fill="#F1EFF2" /><path d="M145.684705 612.149433l35.679282 2.973273 0.951447 261.648065a235.423793 235.423793 0 0 0 3.80579 74.450767 8.800889 8.800889 0 0 0 7.016926 7.016926c38.414693 7.135856 79.208005 0.475724 111.55722 2.140757 47.417765 2.545122 94.669027 2.259688 141.765678-0.832517l65.412016 2.973273 252.728244-2.973273 67.909566-2.49755-2.497549 58.989746-687.064031 0.356793c-9.716658 0-17.601779-7.932694-17.601779-17.72071 0.083252-119.953744 0.035679-240.87083-0.118931-362.739362 0-11.655232 6.814743-19.576032 20.456121-23.786188z" fill="#FB8628" /><path d="M514.846338 612.625157c5.316213 8.491669 4.162583 16.257859-3.448997 23.310464-9.122003-4.281514-12.927793-11.060577-11.41737-20.337191l14.866367-2.973273z" fill="#FCB982" /><path d="M874.612427 611.673709l14.509574 11.060578c2.699732 2.105078 4.281514 5.851402 4.281514 10.109129l-0.594655 368.448047a9.276613 9.276613 0 0 1-5.589754 8.563028 92.135798 92.135798 0 0 1-57.205781 6.184409l2.497549-58.989746 1.783964-84.91669 2.140757-254.036484 38.176832-6.422271z" fill="#F2671E" /><path d="M764.601308 620.59353c12.452069 7.219108 13.284586 16.293539 2.49755 27.235185-35.798212 2.49755-183.867231 17.363917-168.287278-21.050777 1.30824-3.282494 4.590734-5.542182 8.444097-5.827616a974.520109 974.520109 0 0 1 157.345631-0.356792zM767.574582 678.037173c11.57198 8.170555 12.404497 17.922892 2.49755 29.257011-28.424494 0-147.474364 7.016925-165.195074-4.876169-53.875715-35.917143 160.199974-24.380842 162.697524-24.380842zM767.098858 734.053645c12.130956 9.752337 12.285566 19.504674 0.475724 29.257011-9.038751 0.118931-208.842728 14.509574-164.600419-25.33229a15.579953 15.579953 0 0 1 10.584854-3.80579l153.539841-0.118931zM767.098858 793.519114c11.809842 13.403517 10.430243 23.001243-4.162583 28.781287-29.970596 0.594655-137.127372 8.563028-157.107769-4.043652-61.844088-38.533624 157.940286-24.856566 161.270352-24.737635z" fill="#CBC5CB" /><path d="M834.294838 872.132464l-1.783964 84.91669-67.909566 2.49755 6.422271-82.775933c21.407569 3.49657 42.494024 1.950467 63.271259-4.638307z" fill="#B6ADB6" /><path d="M402.813394 877.96008c21.966544 24.107301 36.511798 51.306807 43.647654 81.586624-47.096652 3.092204-94.347913 3.377639-141.765678 0.832517-32.349215-1.665033-73.142527 4.995099-111.55722-2.140757a8.800889 8.800889 0 0 1-7.016926-7.016926 235.423793 235.423793 0 0 1-3.80579-74.450767l220.49796 1.189309zM770.072132 873.797497l0.951447 2.973274-6.422271 82.775933-252.728244 2.973273-2.973273-25.808013c20.848593-40.674381 54.553621-60.488275 101.091298-59.465469 53.435671 1.117951 106.799983-0.035679 160.081043-3.448998z" fill="#CBC5CB" /><path d="M402.813394 877.96008l37.106453 0.237862c22.513627 5.791937 43.374113 21.169707 62.557673 46.145204l6.422271 12.368818 2.973273 25.808013-65.412016-2.973273c-7.135856-30.279817-21.68111-57.479323-43.647654-81.586624z" fill="#B6ADB6" /><path d="M842.620004 312.086675m-14.509574 0a14.509574 14.509574 0 1 0 29.019149 0 14.509574 14.509574 0 1 0-29.019149 0Z" fill="#CBC5CB" /><path d="M160.195682 312.718267a14.390644 13.320265 0.8 1 0 28.778482 0.40185 14.390644 13.320265 0.8 1 0-28.778482-0.40185Z" fill="#CBC5CB" /><path d="M239.402285 618.333842m15.579952 0l148.901535 0q15.579953 0 15.579953 15.579953l0 0.951447q0 15.579953-15.579953 15.579953l-148.901535 0q-15.579953 0-15.579952-15.579953l0-0.951447q0-15.579953 15.579952-15.579953Z" fill="#CBC5CB" /><path d="M241.067318 677.561449m14.271712 0l150.090845 0q14.271713 0 14.271712 14.271713l0 1.189309q0 14.271713-14.271712 14.271713l-150.090845 0q-14.271713 0-14.271712-14.271713l0-1.189309q0-14.271713 14.271712-14.271713Z" fill="#CBC5CB" /><path d="M239.045492 734.172576m14.390643 0l151.755878 0q14.390644 0 14.390643 14.390643l0 0.713586q0 14.390644-14.390643 14.390643l-151.755878 0q-14.390644 0-14.390643-14.390643l0-0.713586q0-14.390644 14.390643-14.390643Z" fill="#CBC5CB" /><path d="M241.56241 791.556153m14.865801 0.129732l147.706601 1.289016q14.865801 0.129732 14.73607 14.995533l-0.010379 1.189265q-0.129732 14.865801-14.995533 14.736069l-147.706601-1.289016q-14.865801-0.129732-14.736069-14.995533l0.010378-1.189264q0.129732-14.865801 14.995533-14.73607Z" fill="#CBC5CB" /></svg>