<?xml version="1.0" standalone="no"?><!DOCTYPE svg PUBLIC "-//W3C//DTD SVG 1.1//EN" "http://www.w3.org/Graphics/SVG/1.1/DTD/svg11.dtd"><svg class="icon" width="200px" height="200.00px" viewBox="0 0 1024 1024" version="1.1" xmlns="http://www.w3.org/2000/svg"><path d="M537.623044 87.6534c1.581376 25.123662-7.490727 44.112061-27.2282 56.953308-11.652243 1.510036-17.323793-2.936841-17.002762-13.316849 1.581376-61.352624-27.466-92.896909-87.154018-94.644745-4.434986 3.008181-8.525161-1.343575-12.246745-13.079048 75.145074-37.096935 123.026279-15.730527 143.631725 64.087334z" fill="#28D1B3" /><path d="M260.228331 75.763357l-10.81994 29.130606c-1.307905 3.567013-4.125845 6.052032-7.252926 6.420623a143.286913 143.286913 0 0 0-58.261213 20.926477c-2.69904-32.495489 3.804814-62.743759 19.499671-90.721031 1.926187-3.388662 4.934368-6.028252 8.560831-7.490728 37.655767-14.981455 53.742996-1.070104 48.273577 41.734053z" fill="#FB8628" /><path d="M393.991319 23.566066c3.721584 11.735473 7.811759 16.087229 12.246745 13.079048 59.688018 1.747836 88.735394 33.292122 87.154018 94.644745-0.321031 10.380008 5.35052 14.826884 17.002762 13.316849l-2.972511 2.972511c-76.179508-1.664606-113.989846-43.006287-113.431014-124.013153z" fill="#65E0C4" /><path d="M528.229909 188.243167c-9.904406 5.46942-19.820702 5.46942-29.725108 0l8.917532-40.663948 2.972511-2.972511c19.737472-12.841247 28.809575-31.829646 27.2282-56.953308l48.511377-35.313429c3.210312-2.318558 7.252926-3.020071 10.93884-1.902407 9.904406 2.936841 13.352519 9.428804 10.344337 19.499671-0.998764 3.269762-3.590793 6.301723-7.252926 8.441931-41.460581 24.493489-65.430909 61.114823-71.934763 109.864001z" fill="#F2671E" /><path d="M260.228331 75.763357c-6.658424 44.789794 6.384953 82.2791 39.118243 112.47981-29.641878 3.567013-48.630278 19.582902-56.953308 48.035776a70.484177 70.484177 0 0 1-26.276996-29.249507l40.188346-41.377351c2.936841-2.996291 4.161515-6.836775 3.210312-9.987637-9.630935-31.627515-54.6942 0-61.709325 21.164278-11.093411-12.448875-15.730527-27.31143-13.911351-44.587663a143.286913 143.286913 0 0 1 58.261213-20.926477c3.127081-0.368591 5.945022-2.85361 7.252926-6.420623l10.81994-29.130606z" fill="#FCD430" /><path d="M216.11627 207.029436l-18.310667-30.20071c7.015126-21.164277 52.07839-52.791793 61.709325-21.164278 0.951203 3.150862-0.273471 6.991346-3.210312 9.987637l-40.188346 41.377351z" fill="#FB8628" /><path d="M498.504801 188.243167c9.904406 5.46942 19.820702 5.46942 29.725108 0a202.261529 202.261529 0 0 0 71.340261-10.93884c126.272261 83.705906 174.629068 203.878574 145.058529 360.506117l-159.921084 4.161515c-35.111298 5.623991-59.010285 26.752598-71.696961 63.373931-22.709983-56.121005-61.828226-69.556754-122.467447-68.011048-46.287939 1.105774-92.540208 2.65148-138.756807 4.637117l-51.483888-6.420624c-3.269762-0.332921-5.945022-3.352992-6.420624-7.252926l-4.042614-30.438511c-8.560831-91.398764 12.246745-174.629068 62.422728-249.690912l26.276996 15.338156 29.725108 22.828884 21.283178 18.310666v2.972511c-29.249507 53.350625-19.499671 95.79808 29.249507 127.342365 27.109299 11.652243 52.875023 9.666605 77.285282-5.945022 57.072208-57.54781 50.330554-106.534789-20.213074-146.960936-10.142207-3.888044-19.26187-10.380008-27.3471-19.499671l-35.194528-35.194529-30.200711-21.283178-11.890043-10.938839c78.474287-29.844009 117.592529-10.344338 187.268184-6.896226z" fill="#28D1B3" /><path d="M599.57017 177.304327c190.835197-17.121663 255.754834 180.966461 237.325266 335.418125l-7.015125 17.478364a8.917533 8.917533 0 0 1-8.20413 5.58832l-77.047482 2.021308c29.570538-156.627542-18.786269-276.800211-145.058529-360.506117z" fill="#22B69F" /><path d="M299.346574 188.243167l11.890043 6.896226 11.890043 10.938839c-21.639879 13.400079-36.502433 32.543049-44.587662 57.42891l-26.276996-15.338156-9.868736-11.890043c8.32303-28.452874 27.31143-44.468762 56.953308-48.035776z" fill="#FB8628" /><path d="M323.12666 206.078232l30.200711 21.283178c-28.452874 9.274234-43.481889 28.928476-45.063265 58.974616l-29.725108-22.828884c8.08523-24.885861 22.947784-44.028831 44.587662-57.42891z" fill="#FCD430" /><path d="M353.327371 227.36141l35.194528 35.194529c-24.255689 7.134026-43.90993 21.164277-58.974615 42.090753l-21.283178-18.310666c1.581376-30.04614 16.610391-49.700381 45.063265-58.974616z" fill="#FB8628" /><path d="M388.521899 262.555939c8.08523 9.119663 17.204893 15.611627 27.3471 19.499671l-7.015126 10.701039c-35.111298-0.867973-52.518322 14.862554-52.19729 47.203472a11.176641 11.176641 0 0 0 16.883861 9.630935 113.098093 113.098093 0 0 1 56.596607-15.694857l5.46942 33.173221c-28.143733 0.558832-51.602788 11.450112-70.389057 32.69762-3.008181-34.397896-14.898224-65.121768-35.67013-92.147837v-2.972511c15.064685-20.926476 34.718927-34.956728 58.974615-42.090753z" fill="#FCD430" /><path d="M415.868999 282.05561c70.543628 40.426148 77.285282 89.413126 20.213074 146.960936l-0.475602-61.947126-5.46942-33.173221-21.283178-41.13955 7.015126-10.701039z" fill="#FCDBBE" /><path d="M408.853873 292.756649l21.283178 41.13955c-20.213074 0.237801-39.082573 5.46942-56.596607 15.694857a11.176641 11.176641 0 0 1-16.883861-9.630935c-0.321031-32.340918 17.085992-48.071446 52.19729-47.203472z" fill="#FB8628" /><path d="M329.547284 307.619203c20.771906 27.026069 32.661949 57.749941 35.67013 92.147837l-6.420623 35.194528c-48.749178-31.544285-58.499014-73.99174-29.249507-127.342365z" fill="#FCDBBE" /><path d="M435.606471 367.06942l0.475602 61.947126c-24.410259 15.611627-50.175983 17.597264-77.285282 5.945022l6.420623-35.194528c18.786269-21.247508 42.245324-32.138787 70.389057-32.69762z" fill="#FB8628" /><path d="M189.839274 497.859898l4.042614 30.438511c0.475602 3.899934 3.150862 6.920005 6.420624 7.252926l51.483888 6.420624c77.166382 1.070104 185.009076-26.752598 189.05169 91.315533 2.223438 65.71627 2.936841 137.484572 2.140208 215.328687a15.635407 15.635407 0 0 1-14.149152 15.457056l-49.224779 4.874918a1519.190847 1519.190847 0 0 1-198.325925 2.972511 6.420623 6.420623 0 0 1-6.182822-6.063922l-7.015126-118.305932-1.902407-151.360253 23.661187-98.330659z m227.694331 112.646271a14.386953 14.386953 0 0 0-14.363172-14.410732l-158.137578-0.285362a14.386953 14.386953 0 0 0-14.410732 14.363173v0.951203a14.386953 14.386953 0 0 0 14.363172 14.410733l158.137577 0.285361a14.386953 14.386953 0 0 0 14.410733-14.363172v-0.951204z m-2.401789 56.977088a12.841247 12.841247 0 0 0-12.936367-12.758016l-158.375378 1.105774a12.841247 12.841247 0 0 0-12.746127 12.936367l0.04756 6.658424a12.841247 12.841247 0 0 0 12.936368 12.746127l158.375378-1.105774a12.841247 12.841247 0 0 0 12.746126-12.924477l-0.04756-6.658425z m0.380482 62.113587a11.771143 11.771143 0 0 0-11.771143-11.771143H242.749967a11.771143 11.771143 0 0 0-11.771143 11.771143v6.182823c0 6.503854 5.267289 11.771143 11.771143 11.771143h160.991188a11.771143 11.771143 0 0 0 11.771143-11.771143v-6.182823z m1.783506 62.660529a14.743654 14.743654 0 0 0-14.743654-14.743654H245.365776a14.743654 14.743654 0 0 0-14.743653 14.743654v2.615809c0 8.14468 6.598974 14.743654 14.743653 14.743654h157.186374a14.743654 14.743654 0 0 0 14.743654-14.743654v-2.615809z" fill="#F1EFF2" /><path d="M836.895436 512.722452l0.356702 15.575957c0.07134 4.185295 1.403025 7.835539 3.685913 10.106537 14.589083 14.898224 20.450875 33.375352 17.597264 55.407602l-0.832303 254.803631-4.161515 18.072866a7.312377 7.312377 0 0 1-7.134026 5.70722l-59.569117 0.475602-14.862555-3.923714c19.820702-17.204893 22.115481-37.299066 6.896225-60.28252 16.967092-5.46942 18.631698-15.100355 4.993819-28.892806 6.266053-11.890043 5.267289-22.793213-2.972511-32.697619 14.030251-8.798632 15.017125-18.703038 2.972511-29.725109 5.945022-10.463238 5.790451-21.199947-0.475602-32.222017 13.233618-11.806813 11.414442-21.556649-5.46942-29.249507 11.569012-7.371827 13.554649-17.597264 5.945022-30.676312 12.603446-10.308668 12.448875-20.058503-0.475602-29.249507 7.134026-16.56283 6.218493-31.591845-2.73471-45.063265a11.533342 11.533342 0 0 0-9.512035-4.993818l-186.435881-3.923714 159.921084-4.161515 77.047482-2.021308a8.917533 8.917533 0 0 0 8.20413-5.58832l7.015125-17.478364zM513.010654 605.34589l-6.063922 320.555571c-24.017888-41.294121-60.520321-58.974615-109.5073-53.029594l-17.835065-3.923714 49.224779-4.874918a15.635407 15.635407 0 0 0 14.149152-15.457056c0.796633-77.844114 0.08323-149.612416-2.140208-215.328687-4.042615-118.068131-111.885309-90.24543-189.05169-91.315533 46.216599-1.985637 92.468868-3.531343 138.756807-4.637117 60.639221-1.545706 99.757464 11.890043 122.467447 68.011048z" fill="#E1DDE1" /><path d="M584.707615 541.971959l186.435881 3.923714a11.533342 11.533342 0 0 1 9.512035 4.993818c8.953203 13.471419 9.868736 28.500434 2.73471 45.063265l-162.417993 0.237801c-4.185295 0-7.954439 1.367355-10.463238 3.804814-7.134026 7.050796-7.098356 14.184822 0.1189 21.402078 2.592029 2.508799 6.396843 3.923714 10.582139 3.923714l162.655794-0.1189c7.609628 13.079048 5.623991 23.304485-5.945022 30.676312l-157.067474-0.356701c-3.983165 0-7.609628 1.664606-9.868736 4.518216-36.264632 46.252269 157.780876 26.039195 172.40563 25.087992 6.266053 11.02207 6.420623 21.758779 0.475602 32.222017l-160.753387 0.237801c-4.280416 0.07134-8.08523 1.343575-10.701039 3.567013-9.119663 7.692858-8.834302 15.254926 0.832303 22.709983 2.82983 2.223438 6.705984 3.400552 10.93884 3.329212l156.710772-0.1189c8.2398 9.904406 9.238564 20.807576 2.972511 32.697619l-163.131396-1.902407a11.830593 11.830593 0 0 0-9.749836 4.874918c-31.865316 43.160858 151.122452 26.514797 167.887413 25.920295 15.219256 22.983454 12.924477 43.077627-6.896225 60.28252-54.135368 3.483783-108.401526 5.195949-162.774694 5.112718-47.001342-0.08323-79.782191 21.164277-98.330659 63.730633l-3.923714-11.890043 6.063922-320.555571c12.686676-36.621334 36.585664-57.749941 71.696961-63.373931z" fill="#F1EFF2" /><path d="M858.535315 593.812548c36.264632-8.798632 59.212416 0.237801 59.212417 41.13955 0 119.934868-0.1189 240.178877-0.356702 360.743918 0 15.064685-7.169696 22.507852-21.520978 22.353281l-46.608971-0.475602c5.861791-21.485308 6.694094-43.125187 2.49691-64.919637 7.692858-34.243325 9.666605-68.926582 5.945021-104.037879l0.832303-254.803631z" fill="#F2671E" /><path d="M166.178087 596.190557l1.902407 151.360253-1.307905 186.673681c-0.154571 17.989636 9.191004 26.990399 28.060503 26.990399l245.410496 0.237801c26.312666 5.231619 53.659766 5.112719 82.0413-0.356702l252.663422 0.951204c27.668131 8.001999 53.267394 4.874918 76.809681-9.393135a141.574747 141.574747 0 0 1-2.49691 64.919637l-722.557938 0.237801c-11.295541 0-20.450875-9.155333-20.450875-20.450874l0.118901-382.978299c0-10.047087 7.823649-18.191766 17.478364-18.191766h42.328554z" fill="#FB8628" /><path d="M783.390241 595.952756c12.924477 9.191004 13.079048 18.940839 0.475602 29.249507l-162.655794 0.1189c-4.185295 0-7.990109-1.414915-10.582139-3.923714-7.217256-7.217256-7.252926-14.351282-0.1189-21.402078 2.508799-2.437459 6.277943-3.804814 10.463238-3.804814l162.417993-0.237801zM777.920821 655.878575c16.883862 7.692858 18.703038 17.442694 5.46942 29.249507-14.624753 0.951203-208.670262 21.164277-172.40563-25.087992 2.259108-2.85361 5.885571-4.518216 9.868736-4.518216l157.067474 0.356701zM783.865843 717.350099c12.044614 11.02207 11.05774 20.926476-2.972511 29.725109l-156.710772 0.1189c-4.232855 0.07134-8.10901-1.105774-10.93884-3.329212-9.666605-7.455057-9.951966-15.017125-0.832303-22.709983 2.61581-2.223438 6.420623-3.495673 10.701039-3.567013l160.753387-0.237801zM168.080494 747.55081l7.015126 118.305932c0.178351 3.317322 2.85361 5.945022 6.182822 6.063922 66.191872 3.329212 132.300513 2.342339 198.325925-2.972511l17.835065 3.923714c-1.189004 1.189004-1.938077 2.413679-2.259109 3.685914-0.558832 1.926187 0.939313 4.327976 3.567013 5.70722 31.389715 16.646061 45.217835 43.041957 41.496252 79.18769l-245.410496-0.237801c-18.869499 0-28.215073-9.000763-28.060503-26.990399l1.307905-186.673681zM783.865843 779.772827c13.63788 13.79245 11.973274 23.423386-4.993819 28.892806-16.764961 0.594502-199.752729 17.240563-167.887413-25.920295a11.830593 11.830593 0 0 1 9.749836-4.874918l163.131396 1.902407z" fill="#CBC5CB" /><path d="M857.703012 848.616179c3.721584 35.111298 1.747836 69.794555-5.945021 104.037879-23.542286 14.268052-49.141549 17.395134-76.809681 9.393135 12.211075-28.215073 16.170459-57.940182 11.890044-89.175326l59.569117-0.475602a7.312377 7.312377 0 0 0 7.134026-5.70722l4.161515-18.072866z" fill="#B6ADB6" /><path d="M771.975799 868.948153l14.862555 3.923714c4.280416 31.235144 0.321031 60.960253-11.890044 89.175326l-252.663422-0.951204c-7.847429-5.148389-11.652243-12.924477-11.414442-23.304485 18.548468-42.566355 51.329317-63.813863 98.330659-63.730633 54.373169 0.08323 108.639327-1.628936 162.774694-5.112718z" fill="#CBC5CB" /><path d="M397.439432 872.871867c48.986979-5.945022 85.489412 11.735473 109.5073 53.029594l3.923714 11.890043c-0.237801 10.380008 3.567013 18.156096 11.414442 23.304485-28.381534 5.46942-55.728633 5.58832-82.0413 0.356702 3.721584-36.145732-10.106537-62.541628-41.496252-79.18769-2.6277-1.379245-4.125845-3.781034-3.567013-5.70722a8.049559 8.049559 0 0 1 2.259109-3.685914z" fill="#B6ADB6" /><path d="M230.648205 595.789668m14.386931 0.02511l158.137336 0.276002q14.386931 0.02511 14.361821 14.41204l-0.00166 0.951202q-0.02511 14.386931-14.412041 14.361821l-158.137336-0.276002q-14.386931-0.02511-14.361821-14.412041l0.00166-0.951202q0.02511-14.386931 14.412041-14.36182Z" fill="#CBC5CB" /><path d="M230.987077 655.926945m12.840934-0.089648l158.371519-1.10566q12.840934-0.089648 12.930582 12.751286l0.046484 6.658262q0.089648 12.840934-12.751286 12.930582l-158.371519 1.10566q-12.840934 0.089648-12.930582-12.751286l-0.046484-6.658262q-0.089648-12.840934 12.751286-12.930582Z" fill="#CBC5CB" /><path d="M230.978824 717.825701m11.771143 0l160.991188 0q11.771143 0 11.771143 11.771143l0 6.182823q0 11.771143-11.771143 11.771143l-160.991188 0q-11.771143 0-11.771143-11.771143l0-6.182823q0-11.771143 11.771143-11.771143Z" fill="#CBC5CB" /><path d="M230.622123 777.513719m14.743653 0l157.186374 0q14.743654 0 14.743654 14.743654l0 2.615809q0 14.743654-14.743654 14.743654l-157.186374 0q-14.743654 0-14.743653-14.743654l0-2.615809q0-14.743654 14.743653-14.743654Z" fill="#CBC5CB" /></svg>