<?xml version="1.0" standalone="no"?><!DOCTYPE svg PUBLIC "-//W3C//DTD SVG 1.1//EN" "http://www.w3.org/Graphics/SVG/1.1/DTD/svg11.dtd"><svg class="icon" width="200px" height="200.00px" viewBox="0 0 1024 1024" version="1.1" xmlns="http://www.w3.org/2000/svg"><path d="M850.011354 113.531034c-193.019369 66.768303-320.421409 109.247515-382.194252 127.437636-8.863679 2.610454-28.679401 3.595308-59.447165 2.966425l-42.004584-12.340329 116.639847-83.059912 49.835947-6.644793c25.86723-3.476651 31.717021-13.016675 17.561239-28.596341-33.579936-37.139646-76.415119-11.272417-100.027865 20.409007l-119.368959 79.14423c-2.254483 1.506944-6.087105 1.934109-10.441818 1.18657l-48.174749-8.305991c-29.51-15.579666-73.211379-32.595083-131.116003-51.022517-9.729875-3.085082-12.50645-9.575621-8.305992-19.459751 1.35269-3.239337 4.378444-5.873522 8.305992-7.238078L506.49929 6.858376c3.619039-1.234033 7.61778-1.234033 11.391073 0l332.120991 106.672658z" fill="#918191" /><path d="M483.0052 148.534854c-4.829341-16.766236-15.710189-21.714234-32.630679-14.832127 23.612746-31.681424 66.447929-57.548653 100.027865-20.409007 14.155782 15.579666 8.305991 25.11969-17.561239 28.596341l-49.835947 6.644793z" fill="#685E67" /><path d="M850.011354 113.531034l30.969481 11.865702c3.820756 1.530676 6.882107 4.176727 8.661962 7.475392 7.356735 13.847274 2.207021 23.173715-15.425412 28.003056-46.276237 12.577644-86.192457 26.460515-119.72493 41.648613-68.512562 21.358263-136.692884 43.108094-204.564697 65.261359-49.124005 16.018697-98.603981-1.305227-141.557821-23.850061 30.767764 0.628882 50.583486-0.355971 59.447165-2.966425 61.772843-18.190121 189.174882-60.669333 382.194252-127.437636z" fill="#7A6D79" /><path d="M483.0052 148.534854l-116.639847 83.059912c-4.354713 17.16967-15.069441 27.208054-32.156052 30.138882l-65.261359-24.68066 3.441053-31.325452 48.174749 8.305991c4.354713 0.747539 8.187334 0.320374 10.441818-1.18657l119.368959-79.14423c16.920491-6.882107 27.801339-1.934109 32.630679 14.832127z" fill="#423F43" /><path d="M754.492455 202.523797l15.781383 176.917612c-12.42339 26.021484-33.188368 41.85033-62.294934 47.462807a596.963452 596.963452 0 0 0-10.085846-157.576519 5.16158 5.16158 0 0 0-2.527394-3.488516 5.41076 5.41076 0 0 0-4.354713-0.427166l-170.154162 54.700885a19.305497 19.305497 0 0 1-11.272417 0.118657l-145.710817-43.665782-14.832127-3.915681-14.832127-10.916446c17.08661-2.930828 27.801339-12.969212 32.156052-30.138882l42.004584 12.340329c42.95384 22.544833 92.433816 39.868758 141.557821 23.850061 67.871814-22.153265 136.052136-43.903096 204.564697-65.261359z" fill="#554E54" /><path d="M268.947942 237.052988l65.261359 24.68066 14.832127 10.916446c-36.154793 4.900535-44.899815 22.865207-26.223201 53.870285v20.764978l-12.814957 74.160636c-23.731403-4.271653-42.526675-16.137354-56.362083-35.597105l15.306755-148.7959zM707.978904 426.904216a607.40527 607.40527 0 0 1-186.291516 42.479212 695.104671 695.104671 0 0 1-130.641376-16.256012 5.102252 5.102252 0 0 0-6.170165 4.627624l-0.711942 8.187334-17.323924-141.913792c11.865702-16.528922 10.868983-32.357769-2.966426-47.462807l145.710817 43.665782c3.630905 1.079779 7.558452 1.044182 11.272417-0.118657l170.154162-54.700885a5.41076 5.41076 0 0 1 4.354713 0.427166c1.305227 0.747539 2.230752 2.017169 2.527394 3.488516a596.963452 596.963452 0 0 1 10.085846 157.576519z" fill="#685E67" /><path d="M349.041428 272.650094l14.832127 3.915681c13.835408 15.105038 14.832127 30.933884 2.966426 47.462807-14.084588 9.017933-28.762461 9.848532-44.021754 2.491797-18.676614-31.005079-9.931592-48.969751 26.223201-53.870285z" fill="#FDDD44" /><path d="M366.839981 324.028582l17.323924 141.913792 0.949256 32.63068-3.915681 20.764978c-18.913929 6.087105-32.120454 7.831363-39.631444 5.220908 8.460245-56.006112 7.712706-111.656253-2.254483-166.950422-1.779855-9.967189-6.288822-13.645557-16.493326-10.323161v-20.764978c15.259292 7.356735 29.937165 6.526136 44.021754-2.491797z" fill="#E6B729" /><path d="M322.818227 347.285357c10.204503-3.322396 14.71347 0.355971 16.493326 10.323161 9.967189 55.29417 10.714729 110.944311 2.254483 166.950422l-28.121713-2.729111c-6.810913-17.16967-8.828082-34.410535-6.051508-51.734459l2.610455-48.649377 12.814957-74.160636z" fill="#FCD430" /><path d="M770.273838 379.441409c108.452513 118.182389 142.625734 273.623081 79.618859 421.707038l-109.283113 5.932851c37.804126-65.735987 56.599397-136.775943 56.362083-213.108003 27.208054-0.949256 33.140905-11.15376 17.798553-30.61351l-17.561239-3.203739c-3.797025-0.652614-6.727853-2.764708-7.594049-5.458223l-29.901568-87.687536a11.082565 11.082565 0 0 0-6.312553-6.621061 11.830105 11.830105 0 0 0-9.350173 0.213582c-87.734998 40.5807-179.848441 57.275742-276.352193 50.073262-4.508967-0.320374-6.490539-3.203739-5.932851-8.661963a161.32608 161.32608 0 0 0 59.921794-32.630679 607.40527 607.40527 0 0 0 186.291516-42.479212c29.106566-5.612477 49.871544-21.441323 62.294934-47.462807z" fill="#22B69F" /><path d="M253.641187 385.848888c13.835408 19.459751 32.63068 31.325452 56.362083 35.597105l-2.610455 48.649377c-36.783675-7.356735-62.935682-27.255517-78.432288-59.68448l24.68066-24.562002z" fill="#30A7FB" /><path d="M228.960527 410.41089c15.496606 32.428963 41.648613 52.327744 78.432288 59.68448-2.776574 17.323924-0.759405 34.564789 6.051508 51.734459-7.202481 10.204503-8.946739 21.678637-5.220909 34.410535a8.436514 8.436514 0 0 0 7.950021 6.288822l54.582227 0.474628c3.583442 0 6.882107-2.408737 8.305992-6.051508 4.900535-12.494584 5.612477-25.036631 2.135826-37.614274l3.915681-20.764978 59.328509 14.832127c-1.661198 27.0538 11.106297 41.019731 38.326216 41.885927 39.548384 1.26963 79.298484 4.152996 119.250302 8.661962 3.132545 0.367837 6.288822 2.598589 8.543306 6.051508l31.562766 48.649377c2.135826 3.263068 5.790462 5.256506 9.729875 5.339566l69.888983 1.779855c7.475392 0.142388 14.060857 3.868219 17.205268 9.729875 8.697559 16.457728 11.0707 33.022248 7.119421 49.71729-0.830599 3.405456-3.322396 6.490539-6.882107 8.543306-42.170704 24.526405-47.462807 59.292911-15.90004 104.299518 4.034339 5.612477 9.80107 8.626365 17.323924 9.017933-85.753426 126.57144-206.392015 180.797697-361.903902 162.67877 17.323924-56.089172 52.92103-69.92458 106.791316-41.529956l27.172457 10.204504c4.342847 1.590004 8.424648 1.542541 10.560474-0.118657l52.92103-42.360555c12.969212-10.358758 14.594813-22.782147 4.864937-37.258304l-21.47692-32.037394c-2.444335-3.666502-3.630905-7.475392-3.322396-10.679132l11.035102-126.607037a20.942963 20.942963 0 0 0-1.898512-11.391074c-14.084588-27.919996-35.525911-36.581958-64.312103-25.985886l-32.037395 35.953076c-8.080543 9.112859-18.498629 13.965931-27.765742 12.933615l-94.569642-10.323161a23.316104 23.316104 0 0 1-19.815722-16.730639c-16.611982-56.599397-21.714234-94.569643-81.873342-120.080901a11.865702 11.865702 0 0 0-10.441817 0.949256l-89.704705 53.632971c11.699582-74.041979 39.750101-140.01528 84.127825-197.919904z" fill="#63B9FC" /><path d="M521.687388 469.383428a161.32608 161.32608 0 0 1-59.921794 32.630679l-17.323924 11.391074-59.328509-14.832127-0.949256-32.63068 0.711942-8.187334a5.102252 5.102252 0 0 1 6.170165-4.627624c42.550406 9.492561 86.097531 14.915187 130.641376 16.256012z" fill="#30A7FB" /><path d="M814.77022 563.359785c-12.743764-2.218886-24.206031-0.391568-34.410535 5.458223a12.162344 12.162344 0 0 0-6.170165 8.899276c-1.898512 13.206526 5.695537 18.629152 22.782147 16.256011 0.237314 76.332059-18.557957 147.372015-56.362083 213.108003-7.522855-0.391568-13.289586-3.405456-17.323924-9.017933-31.562767-45.006607-26.270664-79.773112 15.90004-104.299518 3.559711-2.052766 6.051508-5.137849 6.882107-8.543306 3.951279-16.695042 1.578138-33.259562-7.119421-49.71729-3.144411-5.861657-9.729875-9.587487-17.205268-9.729875l-69.888983-1.779855a11.92503 11.92503 0 0 1-9.729875-5.339566l-31.562766-48.649377c-2.254483-3.452919-5.41076-5.683671-8.543306-6.051508-39.951818-4.508967-79.701918-7.392332-119.250302-8.661962-27.21992-0.866196-39.987415-14.832127-38.326216-41.885927l17.323924-11.391074c-0.557688 5.458223 1.423884 8.341588 5.932851 8.661963 96.503752 7.202481 188.617194-9.492561 276.352193-50.073262a11.830105 11.830105 0 0 1 9.350173-0.213582 11.082565 11.082565 0 0 1 6.312553 6.621061l29.901568 87.687536c0.866196 2.693514 3.797025 4.805609 7.594049 5.458223l17.561239 3.203739z m-65.427479-28.418356c-0.913659-8.472111-13.645557-14.037125-28.442087-12.435255-7.09569 0.771271-13.740483 3.132545-18.439301 6.549867-4.710684 3.429188-7.119421 7.629646-6.668524 11.699582 0.913659 8.472111 13.645557 14.037125 28.442087 12.42339 7.107555-0.771271 13.740483-3.12068 18.451166-6.549867 4.710684-3.417322 7.107555-7.629646 6.656659-11.687717z" fill="#28D1B3" /><path d="M381.19748 519.338032c3.476651 12.577644 2.764708 25.11969-2.135826 37.614274-1.423884 3.64277-4.722549 6.051508-8.305992 6.051508l-54.582227-0.474628a8.436514 8.436514 0 0 1-7.950021-6.288822c-3.72583-12.731898-1.981572-24.206031 5.220909-34.410535l28.121713 2.729111c7.510989 2.610454 20.717515 0.866196 39.631444-5.220908z" fill="#30A7FB" /><path d="M501.041067 651.996577a542.867718 542.867718 0 0 1-8.661962 145.710816c-0.700076 3.702099-0.201717 7.594049 1.423884 11.15376l28.596341 60.040451c2.337543 4.864938 2.610454 10.501146 0.735673 15.603397a20.527664 20.527664 0 0 1-10.702862 11.56906c-14.559216 6.644793-23.541552 17.359522-26.935143 32.156051-53.870286-28.394624-89.467391-14.559216-106.791316 41.529956l-14.832127 17.798553C209.382119 910.989248 136.360591 784.560196 144.832702 608.330794l89.704705-53.632971a11.865702 11.865702 0 0 1 10.441817-0.949256c60.159108 25.511259 65.261359 63.481504 81.873342 120.080901 2.669783 9.124725 10.48928 15.73392 19.815722 16.730639l94.569642 10.323161c9.267113 1.032316 19.685199-3.820756 27.765742-12.933615l32.037395-35.953076z m-234.905297 58.972537c-0.522091-4.330981-3.797025-8.163603-9.124724-10.631669-5.315834-2.468066-12.245404-3.381725-19.234303-2.53926-14.582947 1.76799-25.511259 10.524877-24.407748 19.566542 0.522091 4.342847 3.797025 8.175468 9.13659 10.643535 5.315834 2.468066 12.221673 3.381725 19.222437 2.53926 14.582947-1.76799 25.511259-10.524877 24.407748-19.578408z m46.062654 51.058114a13.645557 13.645557 0 0 0-14.71347-12.482718l-26.97074 2.207021a13.645557 13.645557 0 0 0-12.482718 14.71347l0.177986 2.135826a13.645557 13.645557 0 0 0 14.71347 12.482718l26.958874-2.218886a13.645557 13.645557 0 0 0 12.482718-14.71347l-0.16612-2.135826z m163.568698 73.021529c-1.162839-8.97047-14.488022-14.63041-29.75918-12.648838-7.333004 0.949256-14.143916 3.583442-18.937659 7.297406-4.793743 3.72583-7.166884 8.234797-6.609196 12.542047 1.162839 8.958605 14.488022 14.618544 29.75918 12.636972 7.333004-0.949256 14.143916-3.571576 18.937659-7.297406 4.793743-3.713965 7.166884-8.222931 6.609196-12.530181z" fill="#28D1B3" /><path d="M814.77022 563.359785c15.342352 19.459751 9.409501 29.664254-17.798553 30.61351-17.08661 2.37314-24.68066-3.049485-22.782147-16.256011 0.522091-3.72583 2.800306-7.024495 6.170165-8.899276 10.204503-5.849791 21.666771-7.677109 34.410535-5.458223z" fill="#A9ECDB" /><path d="M485.496998 928.230112c3.393591-14.79653 12.375927-25.511259 26.935143-32.156051a20.527664 20.527664 0 0 0 10.702862-11.56906 20.053036 20.053036 0 0 0-0.735673-15.603397l-28.596341-60.040451a18.617286 18.617286 0 0 1-1.423884-11.15376 542.867718 542.867718 0 0 0 8.661962-145.710816c28.786192-10.596072 50.227515-1.934109 64.312103 25.985886 1.613735 3.168142 2.278215 7.131287 1.898512 11.391074l-11.035102 126.607037c-0.308508 3.203739 0.878062 7.01263 3.322396 10.679132l21.47692 32.037394c9.729875 14.476156 8.104274 26.899546-4.864937 37.258304l-52.92103 42.360555c-2.135826 1.661198-6.217628 1.708661-10.560474 0.118657l-27.172457-10.204504z" fill="#22B69F" /><path d="M849.892697 801.148447c-87.806193 187.834058-292.726861 264.961119-486.019142 186.410174l14.832127-17.798553c155.511886 18.118926 276.150476-36.10733 361.903902-162.67877l109.283113-5.932851z" fill="#30A7FB" /><path d="M695.796119 540.757504a15.425412 26.935143 83.8 1 0 53.555197-5.817956 15.425412 26.935143 83.8 1 0-53.555197 5.817956Z" fill="#A9ECDB" /><path d="M213.371648 717.365991a16.493325 26.579172 83.1 1 0 52.773336-6.386275 16.493325 26.579172 83.1 1 0-52.773336 6.386275Z" fill="#A9ECDB" /><path d="M256.917267 752.876504m13.599672-1.118097l26.962829-2.216748q13.599672-1.118097 14.717768 12.481576l0.175007 2.128644q1.118097 13.599672-12.481576 14.717769l-26.962828 2.216748q-13.599672 1.118097-14.717769-12.481575l-0.175007-2.128645q-1.118097-13.599672 12.481576-14.717769Z" fill="#A9ECDB" /><path d="M420.467883 842.235452a16.374668 27.884399 82.6 1 0 55.304309-7.182775 16.374668 27.884399 82.6 1 0-55.304309 7.182775Z" fill="#A9ECDB" /></svg>