<?xml version="1.0" standalone="no"?><!DOCTYPE svg PUBLIC "-//W3C//DTD SVG 1.1//EN" "http://www.w3.org/Graphics/SVG/1.1/DTD/svg11.dtd"><svg class="icon" width="200px" height="183.68px" viewBox="0 0 1115 1024" version="1.1" xmlns="http://www.w3.org/2000/svg"><path d="M1072.416701 6.472819c-19.159545 7.50847-38.40971 9.670392-57.737548 6.47282a4.582756 4.582756 0 0 0-3.961365 1.203944 4.86756 4.86756 0 0 0-1.475803 3.974311c2.498508 26.668016-1.255727 52.132087-11.262706 76.379268l-7.379014 4.142604-247.13224-0.129456c-11.651075-5.268875-24.985082-5.178255-40.002024 0.258912a336.081724 336.081724 0 0 0-103.565108 0 52.546347 52.546347 0 0 0-35.600507 0 298.163948 298.163948 0 0 0-103.565108 0c-12.945639-6.123287-25.891277-6.123287-38.836916 0l-100.846525-0.517825a57.517472 57.517472 0 0 0-41.5555 0.517825 771.042235 771.042235 0 0 0-142.531481 2.071303c-3.029279 0.323641-5.463059 3.314083-5.825537 7.120101l-3.23641 32.364096-1.035651-34.823767a8.544121 8.544121 0 0 0-6.731732-8.026296c-26.409103-5.864374-52.20976-3.456486-77.414919 7.249557-11.392162-28.053199-15.625386-53.115955-12.686725-75.21416A24.208344 24.208344 0 0 1 53.853857 8.414665L1072.416701 6.472819z" fill="#FCB982" /><path d="M1072.416701 6.472819l13.463464 14.110746 3.23641 58.255374-19.936283 19.936283-71.201013-4.27206c10.006979-24.247181 13.761214-49.711252 11.262706-76.379268a4.86756 4.86756 0 0 1 1.475803-3.974311A4.582756 4.582756 0 0 1 1014.679153 12.945639c19.327838 3.197573 38.578003 1.035651 57.737548-6.47282z" fill="#FC9743" /><path d="M1085.880165 20.583565c7.935676 18.900632 9.02311 38.31909 3.23641 58.255374l-3.23641-58.255374z" fill="#FCB982" /><path d="M127.902909 140.330722L126.867258 836.158797c-30.202175 10.356511-58.993275 7.120101-86.347409-9.709229 12.855019-240.529965 13.592921-481.098767 2.200758-721.719352 25.205158-10.706043 51.005816-13.113932 77.414919-7.249557a8.544121 8.544121 0 0 1 6.731732 8.026296l1.035651 34.823767z" fill="#FB8628" /><path d="M279.496337 98.775222l2.718584 420.215429-15.664222 18.900633c-50.837523 42.97952-50.837523 85.052846 0 126.219976 37.930721 33.65866 88.677624-2.459671 104.082934-41.5555 13.98129 20.803641 30.202175 35.898256 48.675601 45.309735 41.684956 11.133249 70.980936-3.404703 87.900886-43.626802l49.581796 49.193427c116.161215-21.062554 129.456386-68.391809 39.872567-142.013656l3.23641-432.643242a336.081724 336.081724 0 0 1 103.565108 0l94.373706 410.5062-1.035651 16.182049c-55.23904 63.34301-44.40354 108.445615 32.493552 135.281923 97.221746-9.968142 97.221746-122.595198 0.38837-142.272568L743.468025 98.51631l247.13224 0.129456 1.424021 705.148934c0.349532 12.25952-2.679747 22.486574-9.061947 30.681164-2.369052 3.094008-6.395145 4.919343-10.874337 4.919343L126.867258 836.158797l1.035651-695.828075 3.23641-32.364096c0.362478-3.806018 2.796258-6.79646 5.825537-7.120101a771.042235 771.042235 0 0 1 142.531481-2.071303z" fill="#FFFFFF" /><path d="M321.051837 98.257397l-3.236409 427.206074c-15.444147 8.634741-27.315297 6.472819-35.600507-6.47282l-2.718584-420.215429a57.517472 57.517472 0 0 1 41.5555-0.517825z" fill="#B6ADB6" /><path d="M421.898362 98.775222l3.754235 426.688249-6.990645 6.990644-49.06397 45.568648c-12.337194-23.819975-29.606675-41.335424-51.782554-52.559292l3.236409-427.206074 100.846525 0.517825z" fill="#FFFFFF" /><path d="M460.735278 98.775222l-4.142605 417.755758c-2.498508 13.89067-12.816182 16.868167-30.940076 8.932491l-3.754235-426.688249c12.945639-6.123287 25.891277-6.123287 38.836916 0z" fill="#B6ADB6" /><path d="M564.300386 98.775222l-2.718584 407.269791-0.517825 10.74488c-0.258913 4.95818-1.51464 8.997219-3.495323 11.133249l-48.157775 50.87636-52.818206-62.268522 4.142605-417.755758a298.163948 298.163948 0 0 1 103.565108 0z" fill="#FFFFFF" /><path d="M599.900893 98.775222l-3.23641 432.643242-25.891277-2.200758-9.191404-23.172693 2.718584-407.269791a52.546347 52.546347 0 0 1 35.600507 0z" fill="#BDB6BC" /><path d="M743.468025 98.51631l86.217953 419.956516c-13.204551 6.123287-23.819975 3.068116-31.846271-9.191404L703.466001 98.775222c15.016941-5.437168 28.350949-5.527788 40.002024-0.258912z" fill="#B6ADB6" /><path d="M997.979279 94.503162l71.201013 4.27206c-4.828723 232.930875-4.272061 465.822914 1.682933 698.676116 1.035651 37.930721 16.82933 64.987106 21.48976 103.435652-10.097598 6.641113-19.806827 11.560455-29.127687 14.758028-32.454716 11.04263-50.526827 6.08445-54.242226-14.887484l-16.958786-96.962834-1.424021-705.148934 7.379014-4.142604z" fill="#FB8628" /><path d="M561.581802 506.045013l9.191404 23.172693c-1.980683 2.84804-3.14579 5.864374-3.495323 9.061947-0.41426 3.339975 1.255727 7.534362 4.530974 11.392162 33.65866 39.704274 28.648698 80.949078-15.016941 123.760305l-49.581796-49.193427a113.636816 113.636816 0 0 1 2.200759-45.439191l48.157775-50.87636c1.980683-2.13603 3.23641-6.17507 3.495323-11.133249l0.517825-10.74488z" fill="#DAEBFD" /><path d="M797.839707 509.281422c8.026296 12.25952 18.64172 15.31469 31.846271 9.191404 96.833377 19.677371 96.833377 132.304426-0.38837 142.272568 12.596106-29.943262 16.311505-57.737548 11.13325-83.369913-0.673173-3.365866-2.84804-7.184829-6.213907-10.874336l-37.412895-41.037674 1.035651-16.182049zM456.592673 516.53098l52.818206 62.268522a113.636816 113.636816 0 0 0-2.200759 45.439191c-16.91995 40.222099-46.21593 54.760051-87.900886 43.626802 26.926928-25.114539 36.726777-54.203389 29.3866-87.253604-0.750847-3.624779-2.977497-7.327231-6.343363-10.615424a89.156613 89.156613 0 0 1-23.690519-37.542352l6.990645-6.990644c18.123894 7.935676 28.441568 4.95818 30.940076-8.932491zM282.214921 518.990651c8.285209 12.945639 20.156359 15.10756 35.600507 6.47282 22.175879 11.223869 39.445361 28.739318 51.782554 52.559292l1.035651 44.532997c-15.40531 39.095829-66.152213 75.21416-104.082934 41.5555 55.23904-41.85325 55.23904-83.926575 0-126.219976l15.664222-18.900633z" fill="#B6DBFD" /><path d="M796.804056 525.463471l37.412895 41.037674c3.365866 3.689507 5.540733 7.50847 6.213907 10.874336 5.178255 25.632364 1.462857 53.42665-11.13325 83.369913-76.897093-26.836309-87.732593-71.938914-32.493552-135.281923z" fill="#DAEBFD" /><path d="M570.773206 529.217706l25.891277 2.200758c89.583819 73.621847 76.288648 120.951101-39.872567 142.013656 43.665639-42.811227 48.675601-84.056031 15.016941-123.760305-3.275247-3.8578-4.945234-8.052187-4.530974-11.392162 0.349532-3.197573 1.51464-6.213907 3.495323-9.061947z" fill="#B6DBFD" /><path d="M418.661952 532.454115a89.156613 89.156613 0 0 0 23.690519 37.542352c3.365866 3.288192 5.592516 6.990645 6.343363 10.615424 7.340177 33.050215-2.459671 62.139065-29.3866 87.253604-18.473426-9.411479-34.694311-24.506094-48.675601-45.309735l-1.035651-44.532997 49.06397-45.568648zM266.550699 537.891284c55.23904 42.293401 55.23904 84.366727 0 126.219976-50.837523-41.167131-50.837523-83.240456 0-126.219976z" fill="#DAEBFD" /><path d="M992.024286 803.7947l16.958786 96.962834c3.715398 20.971935 21.78751 25.930114 54.242226 14.887484 9.32086-3.197573 19.030089-8.116915 29.127687-14.758028l16.570417 99.034135a11.314488 11.314488 0 0 1-2.43378 9.074893 12.130063 12.130063 0 0 1-8.570013 4.388571l-62.009609 4.013148-13.334007-83.887738c-1.592314-9.489153-10.356511-16.440961-20.713022-16.440961H44.144628c-5.139419 0-9.437371-1.553477-11.521619-4.142604-3.365866-3.974311-4.310898-9.061947-2.84804-15.275854l10.74488-71.201012c27.354134 16.82933 56.145235 20.06574 86.347409 9.709229l845.220744 3.23641c4.479191 0 8.505285-1.825335 10.874337-4.919343 6.3822-8.194589 9.411479-18.421644 9.061947-30.681164z" fill="#FC9743" /><path d="M29.774969 897.65058c-1.462857 6.213907-0.517826 11.301542 2.84804 15.275854 2.084248 2.589128 6.3822 4.142604 11.521619 4.142604h957.718343c10.356511 0 19.120708 6.951808 20.713022 16.440961l13.334007 83.887738c-319.666654 0.258913-640.122992 0.129456-961.343122-0.388369-40.519849-0.129456-76.767637 6.472819-66.281669-47.63995 4.919343-24.855626 12.078281-48.766221 21.48976-71.718838z" fill="#FCB982" /></svg>