<?xml version="1.0" standalone="no"?><!DOCTYPE svg PUBLIC "-//W3C//DTD SVG 1.1//EN" "http://www.w3.org/Graphics/SVG/1.1/DTD/svg11.dtd"><svg class="icon" width="200px" height="200.00px" viewBox="0 0 1024 1024" version="1.1" xmlns="http://www.w3.org/2000/svg"><path d="M762.392513 5.908036c9.370144 230.566998 13.033127 483.430922 10.988946 758.591772-0.319034 37.657819-5.754427 71.215461-16.306178 100.672926l-292.447763 0.945286a156.728369 156.728369 0 0 1-49.036695-43.483142 13.978412 13.978412 0 0 0-9.452857-5.600818 11.166187 11.166187 0 0 0-9.571018 3.355764l-34.502928 36.511661a271.769638 271.769638 0 0 1-104.217748 9.216535c-7.88132 3.154891-10.906234 8.353962-9.098375 15.597214a146.495651 146.495651 0 0 0-52.463356-33.793964l-3.426661-40.883606a111.24831 111.24831 0 0 0 0-57.071624c4.407395-36.78343 4.371946-75.977338-0.11816-117.569909 52.345195-3.072179 58.253231 30.367303 69.596659 71.014588 1.063446 3.686614 3.556637 6.664264 6.853321 8.15309 66.524481 29.303857 38.993035-113.670605-60.852766-132.576319-4.419211-0.803493-7.88132-2.942202-9.216536-5.671715l-5.789875-11.934232-0.472643-108.471533c31.430749-0.082712 54.980179 22.131501 70.660106 66.642641 5.281784 15.041859 15.750823 21.150767 31.43075 18.314911 8.389411-1.536089 14.061125-29.067535 11.69791-40.174642-12.844069-59.78932-50.773658-91.893586-113.788766-96.300981l-0.472642-5.435393c5.116359-37.102464 5.281784-76.296372 0.472642-117.569908 35.920856-0.38993 56.799854 14.88825 62.625178 45.846356 5.199071 28.122249 25.286392 60.498285 50.336463 19.851 1.9851-3.131259 2.776777-6.983298 2.245054-10.870786-7.479573-61.597179-41.86434-97.83707-103.154302-108.707855-6.534287-1.098895-10.398143-6.971482-11.57975-17.605946l2.008732-106.10832c38.638553-3.426661 61.207249 31.312589 64.870231 64.988392 0.460827 4.182889 2.055996 7.763159 4.490107 10.043661 27.176964 26.231678 46.791642-3.544821 41.947053-29.303857-11.107107-58.13507-47.890537-92.165355-110.362105-102.090855 1.65425-25.605426 13.316712-38.402231 34.975571-38.402232 170.151426 0.082712 347.191621 0.035448 531.132401-0.11816z m-73.259642 685.922934l-138.956997-0.236322c-5.470841 0-10.717177 2.126893-14.581032 5.89622-3.852039 3.769327-6.01438 8.873869-5.978932 14.191101l0.354482 50.690946c0.082712 9.677362 8.460307 17.53505 18.905714 17.724107l125.250355 2.126892 62.034374-1.063446a20.559964 20.559964 0 0 0 20.205482-20.559964l0.472642-54.70841c0.094529-6.380678-4.265602-11.627014-9.807339-11.816071l-57.898749-2.245053z" fill="#698D97" /><path d="M762.392513 5.908036l53.05416 0.708964c17.641394 0.236321 26.668873 8.944766 27.058803 26.113517l3.662982 156.444783v88.620534l0.945286 87.084445-1.417929 87.675249-2.481375 123.596104 2.008732 171.333033-2.481375 103.863266-52.699677 17.251464-32.966839-3.426661c10.551752-29.457466 15.987144-63.015108 16.306178-100.672926 2.04418-275.16085-1.618802-528.024774-10.988946-758.591772z" fill="#567983" /><path d="M196.284541 44.428428c62.471569 9.9255 99.254998 43.955785 110.362105 102.090855 4.844589 25.759035-14.770089 55.535535-41.947053 29.303857-2.434111-2.280502-4.02928-5.860771-4.490107-10.043661-3.662982-33.675803-26.231678-68.415052-64.870231-64.988392-80.195675 22.769569-86.340032 64.161267-18.433071 124.186909l-58.371392 24.577428C52.754724 142.501819 78.679184 74.122215 196.284541 44.428428z" fill="#918191" /><path d="M195.339255 100.791087l-2.008732 106.10832c2.04418 7.562286-3.426661 13.588482-16.424339 18.078589-67.906961-60.025642-61.762604-101.417339 18.433071-124.186909z" fill="#FFFFFF" /><path d="M870.391404 267.279531l-24.222946 10.516303v-88.620534c17.487785-4.171073 26.787033-10.043661 27.885928-17.605946 1.890571-12.442323 7.361412-14.332894 16.424339-5.671714 60.498285 57.898749-0.945286 58.725874-20.087321 101.381891z" fill="#E1DDE1" /><path d="M193.330523 206.899407c1.181607 10.634464 5.045462 16.507051 11.57975 17.605946 61.289961 10.870786 95.674729 47.110676 103.154302 108.707855 0.531723 3.887487-0.259954 7.739527-2.245054 10.870786-25.050071 40.647285-45.137392 8.27125-50.336463-19.851-5.825323-30.958107-26.704321-46.236287-62.625178-45.846356-84.366748 5.671714-78.931356 115.443016-0.472642 117.569908l0.472642 5.435393c-26.940642 2.445927-51.39991 11.461589-73.377802 27.058803-47.973249-60.888215-48.292283-120.523926-0.945286-178.895318l58.371392-24.577428c12.997678-4.490107 18.468519-10.516303 16.424339-18.078589z" fill="#B6ADB6" /><path d="M870.391404 267.279531l40.292803 39.583838-63.570463 58.01691-0.945286-87.084445z" fill="#FDDD44" /><path d="M192.85788 278.386638c4.809141 41.273537 4.643716 80.467445-0.472642 117.569908-78.458713-2.126893-83.894106-111.898194 0.472642-117.569908z" fill="#FFFFFF" /><path d="M910.684207 306.863369c16.5425 10.398143 27.803216 24.459267 33.793963 42.183375a11.059843 11.059843 0 0 1-1.890571 10.161821c-28.204962 35.448214-60.498285 66.559929-96.891784 93.346963l1.417929-87.675249 63.570463-58.01691z" fill="#F8C52D" /><path d="M192.85788 401.391939c63.015108 4.407395 100.944696 36.51166 113.788766 96.300981 2.363214 11.107107-3.3085 38.638553-11.69791 40.174642-15.679927 2.835857-26.148966-3.273052-31.43075-18.314911-15.679927-44.51114-39.229356-66.725354-70.660106-66.642641-58.690426 12.371427-74.28764 46.555321-46.791642 102.563498 13.789355 27.023355 4.96275 40.729997-26.467999 41.119928a106.970893 106.970893 0 0 1-30.603625-44.073946l0.472643-79.285838 30.012821-44.78291a147.64181 147.64181 0 0 1 73.377802-27.058803z" fill="#918191" /><path d="M192.85788 452.91001l0.472643 108.471533c-0.708964 28.004089-37.456946-1.417929-47.264285-5.908035-27.495998-56.008178-11.898784-90.192072 46.791642-102.563498z" fill="#FFFFFF" /><path d="M89.467257 473.233652l-0.472643 79.285838c-13.470321-26.468-13.316712-52.900551 0.472643-79.285838z" fill="#D5CFD4" /><path d="M146.066238 555.473508c9.807339 4.490107 46.555321 33.912124 47.264285 5.908035l5.789875 11.934232c1.335216 2.729512 4.797325 4.868221 9.216536 5.671715 99.845802 18.905714 127.377248 161.880176 60.852766 132.576319a12.666828 12.666828 0 0 1-6.853321-8.15309c-11.343428-40.647285-17.251464-74.086767-69.596659-71.014588-87.91157 9.334696-73.377802 120.878409 0.11816 117.569909a111.24831 111.24831 0 0 1 0 57.071624c-116.742784-33.557642-141.166603-103.709657-73.259641-210.444228 31.430749-0.38993 40.257355-14.096573 26.467999-41.119928z" fill="#B6ADB6" /><path d="M843.21444 576.151632l72.905159 75.386535c5.482657 5.695346 5.317232 14.923698-0.354482 21.032607l-70.541945 74.913891-2.008732-171.333033z" fill="#FB8628" /><path d="M192.73972 632.396131c4.490107 41.592571 4.525555 80.786479 0.11816 117.569909-73.495963 3.3085-88.029731-108.235212-0.11816-117.569909z" fill="#FFFFFF" /><path d="M464.627518 866.11802c-0.708964 19.732839 26.704321 17.133303 21.150768 43.837624l-53.644964 2.481375c-16.778821-29.303857-40.139194-47.81964-70.069302-55.535534l34.502928-36.511661c2.398662-2.564087 5.908036-3.781143 9.571018-3.355764 3.674798 0.437195 7.136907 2.481375 9.452857 5.600818a156.728369 156.728369 0 0 0 49.036695 43.483142z" fill="#E1DDE1" /><path d="M196.284541 847.92127a146.495651 146.495651 0 0 1 52.463356 33.793964c-5.754427 27.413285-4.490107 50.253751 3.781143 68.533213 3.521189 7.763159 11.284348 12.761357 19.851 12.761357l437.430956-0.354482 64.515749 0.472643c-10.244534 16.459787-12.052393 33.356769-5.435393 50.690945l-537.040437 1.53609c-24.022073 0.082712-36.003569-11.898784-35.920856-35.920857l0.354482-131.512873z" fill="#567983" /><path d="M842.741797 851.347931c0 51.39991 28.594892 193.074604-73.850445 162.470979-6.617-17.334176-4.809141-34.231158 5.435393-50.690945 16.069857-11.898784 20.997159-28.630341 14.770089-50.218303l0.945286-44.310267 52.699677-17.251464z" fill="#47656A" /><path d="M362.06402 856.901485c29.930108 7.715895 53.290481 26.231678 70.069302 55.535534-55.299213 2.599536-110.480266 0.980734-165.543157-4.844589a10.610832 10.610832 0 0 1-8.625732-5.789875c-5.35268-11.426141-5.399945-23.313109-0.118161-35.684535a271.769638 271.769638 0 0 0 104.217748-9.216535z" fill="#F1EFF2" /><path d="M257.846272 866.11802c-5.281784 12.371427-5.23452 24.258394 0.118161 35.684535a10.610832 10.610832 0 0 0 8.625732 5.789875c55.062892 5.825323 110.243944 7.444125 165.543157 4.844589l53.644964-2.481375 238.566478 1.299768c6.297966 24.187498 1.453377 41.320801-14.533768 51.39991l-437.430956 0.354482a21.800651 21.800651 0 0 1-19.851-12.761357c-8.27125-18.279462-9.535569-41.119928-3.781143-68.533213-1.807859-7.243252 1.217055-12.442323 9.098375-15.597214z" fill="#CBC5CB" /><path d="M464.627518 866.11802l292.447763-0.945286 32.966839 3.426661-0.945286 44.310267-64.75207-1.65425-238.566478-1.299768c5.553553-26.704321-21.859732-24.104785-21.150768-43.837624z" fill="#F1EFF2" /><path d="M789.096834 912.909662c6.22707 21.587962 1.299768 38.319519-14.770089 50.218303l-64.515749-0.472643c15.987144-10.079109 20.831734-27.212412 14.533768-51.39991l64.75207 1.65425z" fill="#B6ADB6" /><path d="M674.126461 782.223914c19.933712-26.148966 24.93191-56.279947 15.00641-90.392944l57.898749 2.245053c5.541737 0.189057 9.901868 5.435393 9.807339 11.816071l-0.472642 54.70841a20.559964 20.559964 0 0 1-20.205482 20.559964l-62.034374 1.063446z" fill="#CBE5E6" /><path d="M689.132871 691.83097c9.9255 34.112998 4.927302 64.243979-15.00641 90.392944l-125.250355-2.126892c-10.445407-0.189057-18.823001-8.046744-18.905714-17.724107l-0.354482-50.690946c-0.035448-5.317232 2.126893-10.421775 5.978932-14.191101 3.863855-3.781143 9.098375-5.89622 14.581032-5.89622l138.956997 0.236322z" fill="#F1EFF2" /></svg>