<?xml version="1.0" standalone="no"?><!DOCTYPE svg PUBLIC "-//W3C//DTD SVG 1.1//EN" "http://www.w3.org/Graphics/SVG/1.1/DTD/svg11.dtd"><svg class="icon" width="200px" height="152.04px" viewBox="0 0 1347 1024" version="1.1" xmlns="http://www.w3.org/2000/svg"><path d="M979.202911 255.824272l76.950193 75.389337c3.79288 3.668011 5.52543 8.491056 4.526482 12.642933-6.243423 27.892494-23.303578 38.97457-51.196071 33.246229L680.611189 89.593125a9.599263 9.599263 0 0 0-12.642932-0.156085l-335.42792 295.938267c-26.737461 0.515082-42.143108-15.249562-46.201333-47.293932-0.577517-4.479656 1.40477-9.224658 5.30691-12.642932l76.950193-67.428973L651.735356 17.169414c14.672045-12.596107 29.609435-12.486847 44.796563 0.312171l282.670992 238.342687z" fill="#FCA863" /><path d="M1009.483515 377.102771l-2.49737 91.778323a7.304805 7.304805 0 0 0 2.310067 5.541039 8.896878 8.896878 0 0 0 5.962469 2.419326l100.519116 1.40477-94.119607 2.809541c-5.369344 0.187303-9.880217 2.528586-11.706419 6.087338-5.931252 11.862504-6.134163 23.568923-0.624342 35.119256 1.935461 4.183094 6.305858 7.133111 11.550333 7.804279 67.647492 8.850053 135.388636 11.503508 203.223431 7.960365 5.119607-0.265345 9.646089 2.403718 11.082076 6.555595 2.809541 8.00719 3.340231 16.701157 1.560856 26.066292l-11.082076 0.624343-4.994739-8.740793a16.388986 16.388986 0 0 0-12.01859-7.648194c-43.079621-6.352683-83.817959-0.827254-122.215012 16.545072l-71.018941 3.90214a8.66275 8.66275 0 0 0-8.272536 8.584707v100.519116l1.092599 55.722553c0.093651 4.432831 4.058225 7.960365 8.896878 7.960365l274.242371 2.029113 14.984216-3.277797 3.90214 85.847071-83.037531-0.312171c-46.825675-25.910207-93.807436-25.55121-140.945282 1.092599l-74.92108 4.21431c-4.370396 0.249737-7.788671 3.589968-7.80428 7.648194l-0.312171 100.519116 3.277798 65.712031h-27.314978c-73.048053 4.682568-50.415644-39.177482-50.8839-81.008418-0.624342-73.048053-4.370396-147.500877 1.560856-220.236759 4.058225-49.166959-5.30691-116.595931-5.30691-148.437391-0.093651-54.629954-0.046826-105.982112 0.156086-154.056471 0.10926-17.996668-6.914591-33.136969-21.071554-45.420905l-219.14416-190.112241c-5.619081-4.854262-13.813574-4.994739-19.198527-0.312171-100.097685 86.892845-196.870747 170.757629-290.319186 251.609961-11.238162 9.786566-21.633462 13.470186-31.217117 11.082077l-11.238162-49.323045 335.42792-295.938267a9.599263 9.599263 0 0 1 12.642932 0.156085l328.872326 287.509646z" fill="#30A7FB" /><path d="M979.202911 1011.59067h-89.74921a2630.104525 2630.104525 0 0 1 0-303.118204c22.476324-10.192389 29.609435-27.673974 21.383725-52.444756a18.652227 18.652227 0 0 0-9.833392-10.61382l-218.988075-96.773062a18.683444 18.683444 0 0 0-14.672045 0c-39.489653 15.764644-217.583304 79.915819-230.538407 111.289021-6.961417 16.747983-1.716941 32.887233 15.764644 48.386531 8.33497 99.379691 10.879165 199.165205 7.648193 299.37215l-124.868467 5.150825c8.959313-21.024728 11.550333-43.126447 7.804279-66.336373 7.804279-37.039109 6.305858-73.672396-4.526481-109.884252v-152.183444a287.993511 287.993511 0 0 0 0-109.259909c5.728341-32.777973 5.931252-65.50912 0.624342-98.177832l4.526482-42.299193c9.583655 2.388109 19.978955-1.29551 31.217117-11.082077 93.448439-80.852333 190.221501-164.717117 290.319186-251.609961 5.384953-4.682568 13.579446-4.54209 19.198527 0.312171l219.14416 190.112241c14.156962 12.283935 21.180814 27.424237 21.071554 45.420905-0.202911 48.07436-0.249737 99.426517-0.156086 154.056471 0 31.841459 9.365135 99.270431 5.30691 148.437391-5.931252 72.735882-2.185198 147.188706-1.560856 220.236759 0.468257 41.830937-22.164153 85.690986 50.8839 81.008418z m-318.10242-782.925289c-124.244125 58.68818-133.453174 131.470887-27.627148 218.363732 108.791652 17.013329 193.546124-70.394598 131.580147-166.075062-21.227639-32.777973-55.878639-50.212732-103.952999-52.28867z" fill="#63B9FC" /><path d="M368.596107 258.00947l-76.950193 67.428973c-3.90214 3.418274-5.884427 8.163276-5.30691 12.642932 4.058225 32.04437 19.463872 47.809014 46.201333 47.293932l11.238162 49.323045-4.526482 42.299193-300.464749 5.150824c-11.019642 0.312171-20.384777-3.230972-28.095405-10.61382-3.168537-3.059277-3.79288-8.272536-1.560856-12.955103l91.934409-195.10698a13.766749 13.766749 0 0 1 12.486846-8.116451l255.043845 2.653455zM979.202911 255.824272l188.083129 1.248685 90.373553 213.056822c1.373553 3.35584 5.572255 5.931252 10.925991 6.71168l26.690635 4.058225-179.498422-2.653455-100.519116-1.40477a8.896878 8.896878 0 0 1-5.962469-2.419326 7.304805 7.304805 0 0 1-2.310067-5.541039l2.49737-91.778323c27.892494 5.728341 44.952648-5.353736 51.196071-33.246229 0.998948-4.151877-0.733602-8.974921-4.526482-12.642933l-76.950193-75.389337z" fill="#FC9743" /><path d="M1167.28604 257.072957l69.770256 0.624342c4.261136 0 8.55349 3.35584 10.925991 8.584707l91.153981 194.794809c2.013504 4.495265 0.905296 9.552438-2.653455 12.174676a44.60926 44.60926 0 0 1-25.598036 8.896878l-15.608558-1.248685-26.690635-4.058225c-5.353736-0.780428-9.552438-3.35584-10.925991-6.71168l-90.373553-213.056822z" fill="#FA7621" /><path d="M339.252017 476.997545c5.30691 32.668713 5.103999 65.39986-0.624342 98.177832l-79.603648-7.336022c-47.340758-22.054893-93.542091-21.430551-138.603999 1.873027l-81.008418 5.462995-0.624342-93.027008 300.464749-5.150824zM1115.777797 478.246229l179.498422 2.653455 15.608558 1.248685-0.624342 85.222729-73.51631 3.277797c1.779376-9.365135 1.248685-18.059102-1.560856-26.066292-1.435987-4.151877-5.962469-6.82094-11.082076-6.555595a1115.902666 1115.902666 0 0 1-203.223431-7.960365c-5.244476-0.671168-9.614872-3.621186-11.550333-7.804279-5.509821-11.550333-5.30691-23.256752 0.624342-35.119256 1.826201-3.558751 6.337075-5.900035 11.706419-6.087338l94.119607-2.809541z" fill="#1A96F9" /><path d="M889.453701 708.472466l-70.238513 3.902139a2451.917222 2451.917222 0 0 0-292.66047 0l-73.984567-4.058225c-17.481585-15.499298-22.726061-31.638548-15.764644-48.386531 12.955103-31.373202 191.048755-95.524377 230.538407-111.289021 4.885479-1.997895 10.192389-1.997895 14.672045 0l218.988075 96.773062c4.682568 2.185198 8.241319 6.024904 9.833392 10.61382 8.22571 24.770782 1.092599 42.252368-21.383725 52.444756z m-159.831638-71.877412a18.418099 18.418099 0 0 0-18.542968-18.29323l-75.857594 0.530691a18.418099 18.418099 0 0 0-18.29323 18.542967v1.873027a18.418099 18.418099 0 0 0 18.558576 18.293231l75.857594-0.530691a18.418099 18.418099 0 0 0 18.29323-18.542968l-0.015608-1.873027z" fill="#FC9743" /><path d="M259.024027 567.839355l-1.716942 112.069449c-16.014381 8.943704-29.031919 6.352683-39.021396-7.804279l-0.312171-65.39986a10.3953 10.3953 0 0 0-7.492108-10.145563 82.538057 82.538057 0 0 0-39.333567-0.780428 9.911435 9.911435 0 0 0-7.648194 9.989478l0.780428 74.764994c-13.938443 8.740793-27.158892 7.226763-39.645738-4.526482L120.420028 569.712382c45.061908-23.303578 91.263241-23.92792 138.603999-1.873027zM1225.662049 571.273238l-1.248685 105.357769c-14.453525 5.103999-28.563662 4.885479-42.299193-0.624343l0.156085-70.394598c-0.015609-4.745002-3.043669-8.818835-7.336022-9.833392a87.720098 87.720098 0 0 0-37.148369 0.156086c-4.932304 1.014556-8.491056 4.901087-8.584707 9.365135l-1.092599 63.526833c-8.834444 17.060154-22.054893 20.759383-39.645739 11.082076l-2.029112-108.479481c38.397054-17.372326 79.135391-22.897755 122.215012-16.545072 5.119607 0.686777 9.552438 3.496317 12.01859 7.648194l4.994739 8.740793z" fill="#FA7621" /><path d="M1310.260435 567.371098l-3.90214 117.064188h-66.336373l-15.608558-7.804279 1.248685-105.357769 11.082076-0.624343z" fill="#B6DBFD" /><path d="M120.420028 569.712382l4.214311 106.294282c-27.471063 9.568046-55.878639 12.377587-85.222729 8.428622v-109.259909l81.008418-5.462995z" fill="#DAEBFD" /><path d="M259.024027 567.839355l79.603648 7.336022a287.993511 287.993511 0 0 1 0 109.259909h-72.891968l-8.428622-4.526482 1.716942-112.069449z" fill="#B6DBFD" /><path d="M1086.433708 571.429323l2.029112 108.479481-81.320589 4.526482v-100.519116c0-4.557699 3.636794-8.33497 8.272536-8.584707l71.018941-3.90214zM218.285689 672.104525c-16.747983 10.301649-34.744651 13.111189-54.005612 8.428621l-0.780428-74.764994a9.911435 9.911435 0 0 1 7.648194-9.989478 82.538057 82.538057 0 0 1 39.333567 0.780428c4.432831 1.201859 7.492108 5.353736 7.492108 10.145563l0.312171 65.39986zM1182.114171 676.006664c-20.915468 10.925991-38.912136 8.537881-54.005612-7.179936l1.092599-63.526833c0.093651-4.464048 3.652403-8.350579 8.584707-9.365135a87.720098 87.720098 0 0 1 37.148369-0.156086c4.292354 1.014556 7.320414 5.08839 7.336022 9.833392l-0.156085 70.394598z" fill="#DAEBFD" /><path d="M1128.108559 668.826728c15.093476 15.717818 33.090144 18.105928 54.005612 7.179936 13.735531 5.509821 27.845668 5.728341 42.299193 0.624343l15.608558 7.804279 0.468257 54.629954c-0.031217 3.699228 3.387057 6.836549 7.804279 7.179937l43.079621 3.90214-274.242371-2.029113c-4.838653 0-8.803227-3.527534-8.896878-7.960365l-1.092599-55.722553 81.320589-4.526482c17.590845 9.677306 30.811294 5.978078 39.645739-11.082076zM218.285689 672.104525c9.989477 14.156962 23.007015 16.747983 39.021396 7.804279l8.428622 4.526482 8.584707 53.537355c0.655559 4.214311 3.746054 7.414065 7.492108 7.804279l41.830936 4.370397-284.231848 0.624342v-66.336373c29.34409 3.948965 57.751666 1.139425 85.222729-8.428622 12.486847 11.753244 25.707296 13.267275 39.645738 4.526482 19.260961 4.682568 37.257629 1.873027 54.005612-8.428621z" fill="#FC9743" /><path d="M338.627675 684.435286v62.434234l-14.984217 3.277797-41.830936-4.370397c-3.746054-0.390214-6.836549-3.589968-7.492108-7.804279l-8.584707-53.537355h72.891968zM1306.358295 684.435286a89.530691 89.530691 0 0 1 0 62.434234l-14.984216 3.277797-43.079621-3.90214c-4.417222-0.343388-7.835496-3.480709-7.804279-7.179937l-0.468257-54.629954h66.336373z" fill="#FA7621" /><path d="M452.570151 708.31638l73.984567 4.058225 0.624342 46.201333-0.624342 249.112592c-22.367064 11.347422-44.484391 11.347422-66.336374 0 3.230972-100.206945 0.686777-199.992459-7.648193-299.37215z" fill="#E1DDE1" /><path d="M819.215188 712.374605l-0.624343 50.103473-291.411785-3.90214-0.624342-46.201333a2451.917222 2451.917222 0 0 1 292.66047 0z" fill="#213894" /><path d="M889.453701 708.472466a2630.104525 2630.104525 0 0 0 0 303.118204c-24.03718 7.179937-47.450018 5.884427-70.238513-3.90214l-0.624343-245.210452 0.624343-50.103473 70.238513-3.902139z" fill="#E1DDE1" /><path d="M338.627675 746.86952v89.74921l-79.135392-3.902139c-47.028586-26.425289-93.807436-26.019467-140.32094 1.248684l-79.759733 2.653455v-85.847071l284.231848-0.624342 14.984217-3.277797z" fill="#30A7FB" /><path d="M527.17906 758.575938l291.411785 3.90214 0.624343 245.210452a1882.079972 1882.079972 0 0 1-292.66047 0l0.624342-249.112592z" fill="#2844AE" /><path d="M259.492283 832.716591l-2.185198 112.537706c-14.453525 8.22571-27.673974 7.133111-39.645738-3.277797l-1.092599-74.764995a10.551385 10.551385 0 0 0-8.428622-9.989478 72.829534 72.829534 0 0 0-36.680112 0.624343 10.61382 10.61382 0 0 0-7.492108 10.301648l-0.312171 77.106279c-14.562785 5.509821-27.783234 4.417222-39.645738-3.277797l-4.838654-108.011225c46.513504-27.268152 93.292354-27.673974 140.32094-1.248684zM1227.222904 832.40442l-2.80954 101.7678c-24.130831 25.800947-38.022448 20.603297-41.674851-15.608558 11.659593-54.629954-3.059277-73.828481-44.17222-57.595581-4.916696 1.888636-8.178885 6.149772-8.272536 10.769906l-0.936514 63.526832c-10.707471 19.245353-23.256752 20.181866-37.616626 2.809541l-5.462995-104.577341c47.137846-26.643809 94.119607-27.002806 140.945282-1.092599z" fill="#FA7621" /><path d="M119.171343 833.965275l4.838654 108.011225-84.598387 7.804279V836.61873z" fill="#DAEBFD" /><path d="M338.627675 836.61873c10.83234 36.211855 12.330761 72.845142 4.526481 109.884252l-71.643283-0.624343-14.203788-0.624342 2.185198-112.537706 79.135392 3.902139zM1310.260435 832.716591l-3.277797 112.537706-62.434234 1.248685c-13.20484 3.324623-19.916521-0.780428-20.13504-12.330762l2.80954-101.7678 83.037531 0.312171z" fill="#B6DBFD" /><path d="M1086.277622 833.497019l5.462995 104.577341c-28.719747 9.052964-58.219923 11.659593-88.500526 7.804279l0.312171-100.519116c0.015609-4.058225 3.433883-7.398457 7.80428-7.648194l74.92108-4.21431zM217.661347 941.9765l-54.005612 3.277797 0.312171-77.106279a10.61382 10.61382 0 0 1 7.492108-10.301648 72.829534 72.829534 0 0 1 36.680112-0.624343c4.86987 1.092599 8.366187 5.213259 8.428622 9.989478l1.092599 74.764995zM1182.738513 918.563662c-4.261136 34.54174-22.054893 40.113995-53.38127 16.701157l0.936514-63.526832c0.093651-4.620133 3.35584-8.88127 8.272536-10.769906 41.112943-16.232901 55.831813 2.965626 44.17222 57.595581z" fill="#DAEBFD" /><path d="M1182.738513 918.563662c3.652403 36.211855 17.54402 41.409505 41.674851 15.608558 0.21852 11.550333 6.9302 15.655384 20.13504 12.330762a123.463697 123.463697 0 0 0 1.716942 54.161697c0.967731 3.652403 4.963522 6.461943 9.989477 7.023851l35.119256 3.90214h-284.85619l-3.277798-65.712031c30.280603 3.855314 59.780779 1.248685 88.500526-7.804279 14.359874 17.372326 26.909155 16.435812 37.616626-2.809541 31.326377 23.412838 49.120133 17.840582 53.38127-16.701157zM124.009997 941.9765c11.862504 7.695019 25.082953 8.787618 39.645738 3.277797l54.005612-3.277797c11.971764 10.410908 25.192213 11.503508 39.645738 3.277797l14.203788 0.624342c1.248685 23.522098 6.9302 45.420905 17.013329 65.712031l-240.996142-0.312171c-4.307962 0-7.804279-3.433883-7.804279-7.648194l-0.312171-53.849526 84.598387-7.804279z" fill="#FC9743" /><path d="M271.510873 945.878639l71.643283 0.624343c3.746054 23.209926 1.155033 45.311645-7.804279 66.336373l-46.825675-1.248685a165.638022 165.638022 0 0 1-17.013329-65.712031zM1244.548404 946.502982l62.434234-1.248685c2.185198 7.179937 17.949842 80.540161-15.608559 66.336373l-35.119256-3.90214c-5.025956-0.561908-9.021747-3.371449-9.989477-7.023851a123.463697 123.463697 0 0 1-1.716942-54.161697z" fill="#FA7621" /><path d="M633.473343 447.029113c45.68625-13.001929 72.33006-41.097334 79.915819-84.286216 26.753069-24.458611 23.256752-38.350228-10.457734-41.674851a6.727289 6.727289 0 0 1-4.807436-2.653455 7.991582 7.991582 0 0 1-1.592073-5.619081c2.294458-21.11838-7.023851-36.16503-27.93932-45.108733 10.925991-9.880217 8.428622-22.897755-7.492108-39.021396 48.07436 2.075938 82.72536 19.510698 103.952999 52.28867 61.965977 95.680463-22.788495 183.08839-131.580147 166.075062z" fill="#E1DDE1" /><path d="M661.100491 228.665381c15.92073 16.123641 18.418099 29.141179 7.492108 39.021396-14.047703 22.991407-18.933181 47.652929-14.672045 73.984566 0.889688 5.228867 3.808488 9.677306 7.960365 12.174676 13.017538 7.695019 30.186952 10.660645 51.508243 8.896878-7.585759 43.188881-34.229569 71.284286-79.915819 84.286216-105.826026-86.892845-96.616977-159.675552 27.627148-218.363732z" fill="#F1EFF2" /><path d="M668.592599 267.686777c20.915468 8.943704 30.233778 23.990354 27.93932 45.108733-0.187303 2.029113 0.390214 4.058225 1.592073 5.619081 1.201859 1.560856 2.934409 2.512978 4.807436 2.653455 33.714486 3.324623 37.210803 17.21624 10.457734 41.674851-21.321291 1.763767-38.490705-1.201859-51.508243-8.896878a17.387934 17.387934 0 0 1-7.960365-12.174676c-4.261136-26.331638 0.624342-50.99316 14.672045-73.984566z" fill="#2844AE" /><path d="M616.794524 618.961013m18.41765-0.128581l75.855746-0.529582q18.41765-0.128582 18.546231 18.289069l0.013076 1.872981q0.128582 18.41765-18.289068 18.546232l-75.855745 0.529581q-18.41765 0.128582-18.546232-18.289068l-0.013076-1.872981q-0.128582-18.41765 18.289068-18.546232Z" fill="#E1DDE1" /></svg>