<?xml version="1.0" standalone="no"?><!DOCTYPE svg PUBLIC "-//W3C//DTD SVG 1.1//EN" "http://www.w3.org/Graphics/SVG/1.1/DTD/svg11.dtd"><svg class="icon" width="200px" height="200.00px" viewBox="0 0 1024 1024" version="1.1" xmlns="http://www.w3.org/2000/svg"><path d="M335.760136 103.784422c-7.254259-0.153842-10.532285-3.34903-9.822243-9.585562 0.449693-4.473262-0.189344-8.342989-1.775104-10.768966-11.680185-17.904884-27.336604-30.614629-46.98109-38.105568-3.692217-1.443751-6.224699-4.473262-6.508715-7.810459l-0.473361-8.165479c47.09943-37.395527 82.009811-29.348388 104.731144 24.141417 1.633096 3.798723 1.171569 7.90513-1.183403 10.413944l-37.987228 39.880673z" fill="#FCD430" /><path d="M537.293626 70.057443c-19.017282-7.810458-38.614432-7.419935-58.815117 1.183403-43.86874 0.946722-60.270703-16.768817-49.229555-53.134784A16.98183 16.98183 0 0 1 445.698252 5.917014h117.985255c21.147407 0.082838 29.348388 10.496782 24.614778 31.241833-5.526491 24.531939-22.520154 35.502083-51.004659 32.898596z" fill="#7A6D79" /><path d="M850.540336 120.588741c-3.46737-0.556199-6.508715-0.272183-9.112201 0.828382-2.698158 1.230739-4.662607 4.851951-5.088632 9.348882-2.994009 28.484504-18.106062 48.839032-45.324326 61.063582-2.686324 1.183403-2.567984 3.076847 0.355021 5.680333l-8.40216-2.485145a699.000508 699.000508 0 0 0-98.104088-86.270061l-43.075861-42.365819c-2.544316-2.473312-3.4082-6.402209-2.248465-10.177264 15.265896-51.35968 57.040013-63.075367 98.57745-29.230048a6541.49543 6541.49543 0 0 1 112.423262 93.607158zM270.199623 29.348388l0.473361 8.165479c0.284017 3.337196 2.816499 6.366707 6.508715 7.810459 19.644486 7.490939 35.300904 20.200685 46.98109 38.105568 1.58576 2.425976 2.224797 6.295703 1.775104 10.768966-0.710042 6.236533 2.567984 9.43172 9.822243 9.585562l-2.958507 2.958507a649.652612 649.652612 0 0 0-103.547741 85.7967l-52.543083 34.081999c-2.650822 1.727768-6.745396 1.360913-10.413944-0.946722-52.543082-32.898597-41.892458-73.01595 0.946722-108.518033a4697.517251 4697.517251 0 0 0 102.95604-87.808485z" fill="#FDE265" /><path d="M537.293626 70.057443l-3.313528 41.655777a99.950197 99.950197 0 0 1-55.73827 0.473362l0.236681-40.945736c20.200685-8.603338 39.797835-8.993861 58.815117-1.183403z" fill="#423F43" /><path d="M332.801629 106.742929a123.748426 123.748426 0 0 1 32.543576 43.430881 535.454246 535.454246 0 0 0-101.062596 87.690145c-16.567639-14.046991-28.247824-29.14721-35.028721-45.324326a649.652612 649.652612 0 0 1 103.547741-85.7967z" fill="#867A84" /><path d="M684.86395 108.754714a699.000508 699.000508 0 0 1 98.104088 86.270061l-30.531791 41.419096a673.687522 673.687522 0 0 0-106.506248-88.755207l38.933951-38.93395z" fill="#7A6D79" /><path d="M478.241828 112.186582a99.950197 99.950197 0 0 0 55.73827-0.473362l111.949901 35.975444a673.687522 673.687522 0 0 1 106.506248 88.755207c78.104582 145.404697 62.329823 277.543449-47.33611 396.439924l-29.111708 19.289465-49.584576 31.478514c-79.051304 29.111708-159.013829 28.957866-239.875739-0.473361l-27.099923-15.265896-47.927812-32.780256c-101.216438-101.535957-125.357854-218.219469-72.424248-350.050536 6.153694-15.265896 18.342743-30.650131 25.206478-47.21777a535.454246 535.454246 0 0 1 101.062596-87.690145l112.896623-37.987228z m288.158572 298.099154c0-143.783435-116.565172-260.348607-260.348607-260.348606s-260.348607 116.565172-260.348607 260.348606 116.565172 260.348607 260.348607 260.348607 260.348607-116.565172 260.348607-260.348607z" fill="#FDE265" /><path d="M850.540336 120.588741c42.756342 31.632356 43.86874 65.643351 3.313528 102.009318a21.952121 21.952121 0 0 1-27.928305 1.301743l-34.555361-26.389882c-2.923005-2.603486-3.041345-4.49693-0.355021-5.680333 27.218263-12.22455 42.330317-32.579078 45.324326-61.063582 0.426025-4.49693 2.390474-8.118143 5.088632-9.348882 2.603486-1.100565 5.644831-1.384581 9.112201-0.828382z" fill="#FCD430" /><path d="M88.90232 350.878918c4.851951-12.89909 17.041-27.809965 28.875028-10.177264 1.940781 2.887503 2.248465 6.946574 0.828382 10.887306-14.354675 39.60849-14.319173 79.205147 0.11834 118.813637 1.396415 3.834225 1.041394 7.798624-0.946722 10.532284-11.952368 17.041-25.79818 1.893444-30.295111-11.005646-13.881314-39.916175-13.407953-79.607504 1.420083-119.050317zM906.870307 337.506467c3.704051-3.396366 8.40216-4.698109 14.082493-3.905229 3.46737 0.520697 6.591553 3.112349 8.283819 6.863736 22.484652 49.785754 23.111856 95.22842 1.893445 136.327997-8.283819 16.177116-17.360518 17.478859-27.218264 3.90523-2.082789-2.828333-2.603486-6.745396-1.420083-10.532285 12.697912-40.235694 13.455289-80.980251 2.248465-122.245505-1.159735-4.118242-0.331353-8.165479 2.130125-10.413944zM159.196444 462.355458a19.171125 19.171125 0 0 1-14.555854-14.437514c-5.999852-26.59106-5.917014-50.921821 0.236681-73.01595 3.905229-14.082493 19.762826-27.099923 29.111708-7.810458 1.431917 3.112349 1.431917 7.124085 0 11.123986-7.72762 21.774611-7.692118 43.63206 0.11834 65.560513 1.502922 4.224748 1.633096 8.248317 0.355021 11.123985-2.994009 6.627055-8.082641 9.112201-15.265896 7.455438zM869.47478 364.843071c18.224402 27.928305 19.644486 57.714553 4.26025 89.346908-1.810606 3.668549-4.792781 6.319371-8.165479 7.218757-16.094278 4.37859-19.762826-9.822243-16.567639-22.721333 3.905229-16.449298-7.455437-83.548235 11.360667-80.471388 3.396366 0.603535 6.69806 3.005843 9.112201 6.627056z" fill="#FCE783" /><path d="M705.100137 632.883795c13.490791 32.780256 65.205492 117.511894 21.182909 141.53497-6.863736 4.414092-13.762974 4.414092-20.709548 0a313.152038 313.152038 0 0 0-29.585069-122.245505l29.111708-19.289465z" fill="#7A6D79" /><path d="M311.500379 635.132261l47.927812 32.780256c-22.484652 22.602993-39.643992 52.779763-65.205492 71.004166a88.056999 88.056999 0 0 0-21.064569 21.182909c-17.396021-17.987722 23.668055-94.55388 38.342249-124.967331zM675.988429 652.17326a313.152038 313.152038 0 0 1 29.585069 122.245505h-17.751041l-61.418604-90.766991 49.584576-31.478514z" fill="#918191" /><path d="M359.428191 667.912517l27.099923 15.265896-60.826902 87.216783c-14.200833 8.993861-30.567293 8.366658-49.111214-1.893444l-3.431868-8.40216a88.056999 88.056999 0 0 1 21.064569-21.182909c25.5615-18.224402 42.72084-48.401173 65.205492-71.004166z" fill="#7A6D79" /><path d="M386.528114 683.178413c80.861911 29.431227 160.824435 29.585069 239.875739 0.473361l61.418604 90.766991c-120.707081 12.070708-241.414163 10.733463-362.121245-4.023569l60.826902-87.216783z" fill="#FFFFFF" /><path d="M325.701212 770.395196a1634.870911 1634.870911 0 0 0 362.121245 4.023569h17.751041c6.946574 4.414092 13.845812 4.414092 20.709548 0 52.898103 5.917014 117.866915-6.272035 166.268088 4.26025-16.330958 13.57363-22.44915 32.863095-18.342743 57.868395l-41.419096 0.946722c-171.830081-0.556199-343.660161-0.710042-515.490242-0.473361-102.245998 0.236681-94.790561 118.458616-16.330958 120.352061 136.647517 3.159685 315.885698 2.638988 537.738213-1.538424l53.253125-0.946722 17.751041 2.958507-31.005152 1.893444a4.224748 4.224748 0 0 0-3.372698 2.201129 6.035354 6.035354 0 0 0-0.532531 4.544267c4.177412 15.147555 2.094623 28.555509-6.272035 40.235694a4.425926 4.425926 0 0 0-0.757378 3.810557c0.355021 1.289909 1.301743 2.295801 2.532482 2.698158a54.756046 54.756046 0 0 0 21.656271 1.775104c-237.710112 4.106408-475.372888 4.106408-713.000163 0l26.626562-0.946722 48.637854-2.130125c5.05313-0.236681 5.206972-1.538424 0.473361-3.905229-83.903256-43.07586-101.299276-159.996053-16.685979-211.947434 3.455536-2.130125 5.692167-4.828283 5.917014-7.100417l0.473361-4.851951a5.076798 5.076798 0 0 0-1.834274-4.26025 7.573778 7.573778 0 0 0-5.029462-1.775104l-43.785902 0.23668-5.917014-0.946722 88.755207-8.87552c18.543921 10.260102 34.910381 10.887305 49.111214 1.893444z" fill="#FCA863" /><path d="M187.834791 777.377272l5.917014 0.946722c-63.820911 68.554522-70.211286 141.570472-19.171125 219.047851 7.573778 11.479007 18.579423 13.845812 31.005152 16.685979l-26.626562 0.946722c-135.026255-38.223909-127.807498-211.592413 8.875521-237.627274z" fill="#FC9743" /><path d="M193.751805 778.323994l43.785902-0.23668a7.585612 7.585612 0 0 1 5.029462 1.775104c1.301743 1.159735 1.976283 2.698158 1.834274 4.26025l-0.473361 4.851951c-0.224847 2.272133-2.461478 4.970292-5.917014 7.100417-84.613297 51.951381-67.217277 168.871574 16.685979 211.947434 4.733611 2.366806 4.579769 3.668549-0.473361 3.905229l-48.637854 2.130125c-12.425729-2.840167-23.431375-5.206972-31.005152-16.685979-51.040161-77.477379-44.649786-150.493329 19.171125-219.047851z" fill="#FA7621" /><path d="M892.551134 778.679015c60.471881-2.721826 51.241339 61.536943-0.591701 58.815117l-17.751042-0.946722c-4.106408-25.0053 2.011785-44.294765 18.342743-57.868395z" fill="#FC9743" /><path d="M832.789295 837.494132l-2.485146 32.188555c-0.248515 3.28986-3.195187 5.822342-6.745396 5.798674-120.707081 0.390523-241.378661-0.828382-362.002904-3.668549-40.590715-0.946722-42.72084 34.555361-1.775104 33.96366 120.860924-1.810606 242.207043-2.094623 364.014689-0.828382 2.970341 0.082838 5.561993 2.532482 6.272034 5.917013l8.63884 44.969305c-221.852515 4.177412-401.090697 4.698109-537.738213 1.538424-78.459603-1.893444-85.91504-120.11538 16.330958-120.352061 171.830081-0.236681 343.660161-0.082838 515.490242 0.473361z m-521.288916 56.684993c20.117847 26.508222 114.080026 4.615271 84.968318-14.792535-7.928798-5.325312-105.677866-12.66241-84.968318 14.792535z" fill="#F1EFF2" /><path d="M832.789295 837.494132l41.419096-0.946722 17.751042 0.946722v117.393554l-53.253125 0.946722-8.63884-44.969305c-0.710042-3.384532-3.301694-5.834176-6.272034-5.917013a14345.835445 14345.835445 0 0 0-364.014689 0.828382c-40.945735 0.591701-38.81561-34.910381 1.775104-33.96366 120.624243 2.840167 241.295823 4.059071 362.002904 3.668549 3.550208 0.023668 6.496881-2.508814 6.745396-5.798674l2.485146-32.188555z" fill="#E1DDE1" /><path d="M909.710474 957.846193c40.235694 9.585562 27.691625 65.442173-17.751041 57.158353a54.756046 54.756046 0 0 1-21.656271-1.775104 3.893395 3.893395 0 0 1-2.532482-2.698158 4.425926 4.425926 0 0 1 0.757378-3.810557c8.366658-11.680185 10.449446-25.088138 6.272035-40.235694a6.035354 6.035354 0 0 1 0.532531-4.544267 4.224748 4.224748 0 0 1 3.372698-2.201129l31.005152-1.893444z" fill="#FC9743" /><path d="M766.4004 410.285736c0 143.783435-116.565172 260.348607-260.348607 260.348607s-260.348607-116.565172-260.348607-260.348607 116.565172-260.348607 260.348607-260.348606 260.348607 116.565172 260.348607 260.348606z m-303.424468-227.56835l-8.87552 5.917014c-242.242545 73.489311-234.195406 399.161751 17.751041 444.722756 71.394688 16.413796 133.878354-0.355021 187.450997-50.294617 153.368998-142.836713 68.045659-370.878425-131.239366-403.30366-22.165134-6.627055-43.86874-5.644831-65.087152 2.958507z" fill="#FCD430" /><path d="M311.500379 894.179125c-20.709548-27.454944 77.03952-20.117847 84.968318-14.792535 29.111708 19.407805-64.850471 41.300756-84.968318 14.792535z" fill="#E1DDE1" /><path d="M528.063084 179.758879l-65.087152 2.958507c21.218411-8.603338 42.922018-9.585562 65.087152-2.958507z" fill="#FDE265" /><path d="M528.063084 179.758879c199.285025 32.425236 284.608363 260.466947 131.239366 403.30366-53.572643 49.939596-116.056309 66.708414-187.450997 50.294617 106.18673-14.437514 173.214662-72.980448 201.060129-175.616969 4.650773-16.958162-0.082838-28.602845-14.200833-34.910381l28.401666 1.775104a8.366658 8.366658 0 0 0 8.40216-4.851951c8.840019-20.74505-0.79288-28.247824-28.875028-22.484653 11.041148-21.928453 10.212766-44.140923-2.485146-66.625575 9.55006-25.644338 2.958507-34.046497-19.762826-25.206479-38.57893-77.548383-102.009318-116.482334-190.291163-116.801852l8.87552-5.917014 65.087152-2.958507z" fill="#CBE5E6" /><path d="M454.100412 188.6344c88.281846 0.319519 151.712234 39.25347 190.291163 116.801852l-113.369984 70.530804-17.751041-9.822242-48.046152-73.607652a9.952417 9.952417 0 0 0-8.875521-4.851951c-38.259411 2.603486-42.803678 21.029067-13.609132 55.264908-1.656764 12.544069 2.958507 21.41959 13.845813 26.626563l3.431868 9.348881c7.337097 29.230048 13.964153 88.636867 62.128644 65.087152 17.123838-6.709894 25.999359-19.526146 26.626562-38.46059l115.381769-74.909394c12.697912 22.484652 13.526294 44.697122 2.485146 66.625575-16.958162 5.206972-19.608984 13.727472-7.928798 25.5615 14.117995 6.307537 18.851606 17.95222 14.200833 34.910381-27.845467 102.636521-94.873399 161.179456-201.060129 175.616969-251.946447-45.561006-259.993586-371.233445-17.751041-444.722756z m68.282339 40.377702a12.66241 12.66241 0 0 0-12.236385-13.064767l-4.49693-0.153842a12.66241 12.66241 0 0 0-13.076601 12.236385l-0.721875 21.999457a12.66241 12.66241 0 0 0 12.236384 13.0766l4.496931 0.142009a12.66241 12.66241 0 0 0 13.064766-12.236385l0.73371-21.999457z m-161.416136 181.829834c0.071004-4.520599-2.485146-8.899189-7.135919-12.177215-4.650773-3.278026-11.005646-5.183304-17.656369-5.301644-6.650724-0.11834-13.064766 1.573926-17.822046 4.686275-4.757279 3.112349-7.479105 7.396267-7.561943 11.916866-0.071004 4.520599 2.485146 8.899189 7.135918 12.177214 4.650773 3.278026 11.005646 5.183304 17.656369 5.301644 6.650724 0.11834 13.064766-1.573926 17.822046-4.686274 4.757279-3.112349 7.479105-7.396267 7.561944-11.916866zM506.607992 606.848935c4.236582 0.11834 8.366658-2.508814 11.479007-7.277927 3.112349-4.757279 4.946624-11.277828 5.124134-18.106062 0.343187-14.248169-6.520549-25.975691-15.348734-26.188704-4.236582-0.106506-8.366658 2.508814-11.479007 7.277927-3.112349 4.757279-4.946624 11.277828-5.124134 18.117897-0.343187 14.248169 6.520549 25.963857 15.348734 26.176869z" fill="#F1EFF2" /><path d="M513.27055 366.144814c-9.786741 0.153842-17.668203 4.106408-23.668055 11.834027-10.567787 10.260102-20.437366 10.567787-29.585069 0.946722l-3.431868-9.348881-13.845813-26.626563c-29.194546-34.235842-24.650279-52.661423 13.609132-55.264908a9.952417 9.952417 0 0 1 8.875521 4.851951l48.046152 73.607652z" fill="#FA7621" /><path d="M664.154401 330.642731l-115.381769 74.909394-17.751041-29.585069 113.369984-70.530804c22.721333-8.840019 29.312886-0.437859 19.762826 25.206479z" fill="#5169CC" /><path d="M442.739745 342.950119l13.845813 26.626563c-10.887305-5.206972-15.502576-14.082493-13.845813-26.626563z" fill="#FCB982" /><path d="M513.27055 366.144814l17.751041 9.822242 17.751041 29.585069c-0.627203 18.934444-9.502724 31.750696-26.626562 38.46059-6.946574 1.420083-12.981928 0.710042-18.106062-2.130125a4.757279 4.757279 0 0 1-2.343137-3.597544 6.272035 6.272035 0 0 1 1.278075-4.567935c17.514361-22.875175 13.052932-41.454599-13.372451-55.73827 5.999852-7.72762 13.881314-11.680185 23.668055-11.834027z" fill="#E6B729" /><path d="M460.017426 378.925563c9.147703 9.621064 19.017282 9.31338 29.585069-0.946722 26.425384 14.283671 30.886812 32.863095 13.372451 55.73827a6.272035 6.272035 0 0 0-1.278075 4.567935c0.201178 1.562092 1.065062 2.875669 2.343137 3.597544 5.124134 2.840167 11.159488 3.550208 18.106062 2.130125-48.164492 23.549715-54.791548-35.857104-62.128644-65.087152z" fill="#FCD430" /><path d="M666.639547 397.268306c28.082147-5.763171 37.715046 1.739602 28.875028 22.484653a8.366658 8.366658 0 0 1-8.40216 4.851951l-28.401666-1.775104c-11.680185-11.834028-9.029363-20.354527 7.928798-25.5615z" fill="#7A6D79" /><path d="M492.998897 215.371303m12.655448 0.419824l4.494458 0.149097q12.655448 0.419824 12.235624 13.075272l-0.729789 21.99919q-0.419824 12.655448-13.075272 12.235623l-4.494458-0.149096q-12.655448-0.419824-12.235624-13.075272l0.729789-21.99919q0.419824-12.655448 13.075272-12.235624Z" fill="#7A6D79" /><path d="M310.794159 409.966228a25.088138 17.041 1 1 0 50.168635 0.875697 25.088138 17.041 1 1 0-50.168635-0.875697Z" fill="#867A84" /><path d="M507.865501 555.260275a15.975937 25.79818 1.4 1 0-1.260611 51.580959 15.975937 25.79818 1.4 1 0 1.260611-51.580959Z" fill="#867A84" /></svg>