<?xml version="1.0" standalone="no"?><!DOCTYPE svg PUBLIC "-//W3C//DTD SVG 1.1//EN" "http://www.w3.org/Graphics/SVG/1.1/DTD/svg11.dtd"><svg class="icon" width="200px" height="200.00px" viewBox="0 0 1024 1024" version="1.1" xmlns="http://www.w3.org/2000/svg"><path d="M470.714532 7.272628l21.28574 44.227038c7.414533 15.219304 18.956134 22.823044 34.648456 22.823044l202.569296 0.118254c12.298428 0 22.030741-7.213501 29.208766-21.640502L781.13158 7.272628c9.933346-1.336271 18.057403-0.946033 24.360347 1.182541 4.647387 12.21565 9.495805 24.514078 14.545256 36.895284 18.329388 45.527834 8.396042 131.971591 9.578584 182.939113l-50.967523-2.719844c2.991829-43.434736-18.83788-59.044279-65.512779-46.828629-45.173071-2.838099-176.7899-10.64287-209.901052 21.995265-10.879378 10.64287-18.601372 23.851855-23.177806 39.615128-14.982796-46.43839-48.093948-66.659844-99.333455-60.66436l-25.306381-1.892066c-7.248977-60.07309-6.657707-102.644571 1.773812-127.714443C374.692192-2.187701 427.078764 5.61707 470.714532 7.272628z" fill="#8DCAFC" /><path d="M470.714532 7.272628h310.417048l-22.70479 45.527834c-7.178025 14.427002-16.910338 21.640503-29.208766 21.640502l-202.569296-0.118254c-15.692321 0-27.233922-7.60374-34.648456-22.823044L470.714532 7.272628z" fill="#918191" /><path d="M805.491927 8.455169c62.284442-9.933346 93.456226 15.373035 93.539004 75.919141 0.236508 360.994332-0.946033 650.433101-3.547623 868.339956-0.473016 38.905603-17.501609 59.600073-55.224671 64.685-10.288108-4.02064-35.949251 1.773812-36.185759-8.869059-0.070952-2.932702 1.655558-6.59858 4.730165-10.051599 33.111152-37.723062 19.630183-153.375585 16.437321-190.980394a429.049575 429.049575 0 0 0-2.719844-138.00255c5.758975-6.4685 6.705008-12.854222 2.838099-19.157167-1.679208-2.814448-5.498816-4.103418-9.46033-3.192861-33.938931 7.331755-71.30723 0-97.559643 0.591271a6721.469211 6721.469211 0 0 1-365.405211-2.365082l-0.473017-43.872276 419.802104-0.946033 45.646087-0.709525c8.869059-0.165556 16.023432-8.691677 16.200814-19.275421 2.518813-121.565229 1.028811-238.991563-4.493656-352.279004-1.182541-50.967523 8.750804-137.41128-9.578584-182.939113A1697.324943 1697.324943 0 0 1 805.491927 8.455169z" fill="#63B9FC" /><path d="M355.416771 177.79506l25.306381 1.892066c10.879378 12.771444 20.221453 26.335191 28.026225 40.679415 25.779397 47.538154 11.588903 187.196262 8.277787 244.667761l-43.399259 2.128574-170.522432 0.473016c-10.264457 0.035476-18.707801-8.880884-19.038912-20.103199l-2.601591-85.970741 1.537304-133.035878c-5.120403-18.766928-1.383573-33.584168 11.234141-44.463546 2.743495-2.365082 6.433024-3.701354 10.406362-3.784132l150.773994-2.483336z m43.635768 63.147696A14.781764 14.781764 0 0 0 384.400855 226.042738l-135.046198-1.182541a14.781764 14.781764 0 0 0-14.900018 14.66351l-0.011826 1.182541a14.781764 14.781764 0 0 0 14.651685 14.900018l135.046197 1.182542a14.781764 14.781764 0 0 0 14.900019-14.663511l0.011825-1.182541z m-0.118254 52.008159a14.190494 14.190494 0 0 0-14.214144-14.166842l-136.465247 0.236508a14.190494 14.190494 0 0 0-14.166843 14.214144v0.946033a14.190494 14.190494 0 0 0 14.214144 14.166843l136.465247-0.236508a14.190494 14.190494 0 0 0 14.166843-14.214145v-0.946033z m-0.697699 49.879586a11.588903 11.588903 0 0 0-11.517951-11.648031l-140.485887-0.733175a11.588903 11.588903 0 0 0-11.64803 11.529776l-0.035476 6.385722a11.588903 11.588903 0 0 0 11.529776 11.64803l140.485887 0.733176a11.588903 11.588903 0 0 0 11.64803-11.529776l0.023651-6.385722z m0.579445 54.751654a14.545256 14.545256 0 0 0-14.604383-14.497954l-135.519214 0.473016a14.545256 14.545256 0 0 0-14.486129 14.592558v2.128574a14.545256 14.545256 0 0 0 14.604383 14.497954l135.519214-0.473016a14.545256 14.545256 0 0 0 14.486129-14.592558v-2.128574z" fill="#F1EFF2" /><path d="M380.723152 179.687126c51.239507-5.995484 84.350659 14.22597 99.333455 60.66436-0.709525 77.929461 12.889698 196.893099-6.858739 269.028108a121.506102 121.506102 0 0 0-56.170704-44.345292c3.311115-57.471499 17.501609-197.129607-8.277787-244.667761a238.033705 238.033705 0 0 0-28.026225-40.679415z" fill="#E1DDE1" /><path d="M713.135465 178.741093c3.547623 16.165337 3.547623 31.928611 0 47.301645-8.750804-0.118254-189.088328-14.66351-148.645421 25.069872 2.57794 2.495162 6.362071 3.902386 10.524616 3.902386l135.164452-0.354762c15.290257 5.829928 17.265101 14.698986 5.912706 26.607175l-139.185092-2.60159a16.460973 16.460973 0 0 0-10.761124 3.665877c-47.4199 39.142112 140.604141 25.542889 146.989863 25.542889 10.087076 4.730165 11.908189 12.771444 5.439689 24.123839l-146.753355 0.118254c-4.02064 0.070952-7.568263 1.951193-9.342075 4.966673-11.352395 19.393675 8.04128 23.650823 22.468282 23.177806a2794.699465 2794.699465 0 0 1 131.143812-1.182541c9.696837 9.306599 9.696837 18.175657 0 26.607175H569.220209a9.342075 9.342075 0 0 0-8.632551 5.676198c-5.439689 12.617714-0.946033 19.429151 13.480969 20.457961 47.384423 3.311115 94.721545 4.138894 142.023191 2.483337v50.257998c-90.582651 1.064287-207.890732-14.900018-230.004251 49.311965-0.922382 2.684368-2.980004 4.493656-5.084927 4.493657l-3.902386-0.118254-3.902386-8.869059c19.748437-72.135009 6.149214-191.098647 6.858739-269.028108 4.576434-15.763273 12.298428-28.972258 23.177806-39.615128 33.111152-32.638135 164.72798-24.833364 209.901052-21.995265z" fill="#F1EFF2" /><path d="M713.135465 178.741093c46.674899-12.21565 68.504608 3.393893 65.512779 46.828629l-0.946033 239.46458-55.697688 0.473016-5.912705-0.946033v-50.257998c10.323584-10.016123 10.323584-19.547405 0-28.617496 9.696837-8.431518 9.696837-17.300577 0-26.607175 8.19501-7.958502 9.022789-16.993116 2.483336-27.080192 6.4685-11.352395 4.647387-19.393675-5.439689-24.123839 13.953985-8.750804 14.935495-17.619863 2.956353-26.607176 11.352395-11.908189 9.377551-20.777248-5.912706-26.607175 18.601372-8.904535 19.594707-18.447642 2.956353-28.617496 3.547623-15.373035 3.547623-31.136308 0-47.301645z" fill="#E1DDE1" /><path d="M713.135465 226.042738c16.638354 10.169854 15.645019 19.712961-2.956353 28.617496l-135.164452 0.354762c-4.162545 0-7.946676-1.407224-10.524616-3.902386C524.047137 211.379228 704.38466 225.924484 713.135465 226.042738z" fill="#CBC5CB" /><path d="M778.648244 225.569722l50.967523 2.719844c5.522467 113.287441 7.012469 230.713776 4.493656 352.279004-0.177381 10.583743-7.331755 19.109865-16.200814 19.275421l-45.646087 0.709525a113.807759 113.807759 0 0 0-0.473017-58.654041c7.568263-24.987094 9.543107-50.612761 5.912706-76.865173l0.946033-239.46458z" fill="#3351C5" /><path d="M183.002274 228.526074l-1.537304 133.035878-0.118254 167.920841a12.534936 12.534936 0 0 0 12.534936 12.416682l220.662176 0.473017 65.039763 2.01032 233.078857-2.483337h59.127057c5.285959 19.476453 5.439689 39.023857 0.473017 58.654041l-419.802104 0.946033-206.235174-0.827779c-11.624379 0-21.049232-9.365726-21.049232-20.930978L124.939504 248.392765c0-10.796601 8.396042-19.571056 18.802404-19.630182l39.260366-0.236509z" fill="#5169CC" /><path d="M716.091818 281.267409c11.979142 8.987313 10.997633 17.856371-2.956353 26.607176-6.385722 0-194.409763 13.599223-146.989863-25.542889 2.980004-2.44786 6.799612-3.73683 10.761124-3.665877l139.185092 2.60159zM718.575154 331.998424c6.539452 10.087076 5.711674 19.12169-2.483336 27.080192a2794.699465 2794.699465 0 0 0-131.143812 1.182541c-14.427002 0.473016-33.820676-3.784132-22.468282-23.177806 1.773812-3.01548 5.321435-4.89572 9.342075-4.966673l146.753355-0.118254zM181.46497 361.561952L184.066561 447.532693c0.331112 11.222315 8.774455 20.138676 19.038912 20.103199l170.522432-0.473016c29.32702 17.820895 42.961719 42.890767 40.915923 75.209616l-220.662176-0.473017a12.534936 12.534936 0 0 1-12.534936-12.416682l0.118254-167.920841zM716.091818 385.685791c10.323584 9.070091 10.323584 18.601372 0 28.617496-47.301645 1.655558-94.638767 0.827779-142.023191-2.483337-14.427002-1.028811-18.920658-7.840248-13.480969-20.457961a9.342075 9.342075 0 0 1 8.632551-5.676198h146.871609zM716.091818 464.561285l5.912705 0.946033a8.774455 8.774455 0 0 1-3.665877 2.719845c-2.341431 0.768652-3.914211 2.719845-3.902386 4.848418l-1.773812 68.823894-233.078857 2.483337-2.483337-26.134159 3.902386 0.118254c2.104923 0 4.162545-1.809288 5.084927-4.493657 22.113519-64.211984 139.4216-48.247678 230.004251-49.311965z" fill="#CBC5CB" /><path d="M373.627905 467.162876l43.399259-2.128574a121.506102 121.506102 0 0 1 56.170704 44.345292l3.902386 8.869059 2.483337 26.134159-65.039763-2.01032c2.045796-32.318849-11.588903-57.388721-40.915923-75.209616zM722.004523 465.507318l55.697688-0.473016c3.630401 26.252413 1.655558 51.87808-5.912706 76.865173h-59.127057l1.773812-68.823894c-0.011825-2.128574 1.560954-4.079767 3.902386-4.848418a8.774455 8.774455 0 0 0 3.665877-2.719845z" fill="#B6ADB6" /><path d="M352.933435 645.371825c121.718959 4.103418 243.520696 4.883895 365.405211 2.365082 26.252413-0.591271 63.620713 6.740484 97.559643-0.591271 3.961513-0.910557 7.781121 0.378413 9.46033 3.192861 3.86691 6.302944 2.920877 12.688666-2.838099 19.157167-37.3683-21.758757-23.650823 103.708858-23.650823 120.264433 0 18.211133 8.277788 26.252413 26.370667 17.738117 3.192861 37.604808 16.67383 153.257331-16.437321 190.980394-3.074607 3.45302-4.801117 7.118898-4.730165 10.051599 0.236508 10.64287 25.897651 4.848419 36.185759 8.869059-129.133492 0.626747-258.231508 0.827779-387.282222 0.59127-51.085777-0.118254-99.924726-6.62223-100.279488-71.070722-0.555794-100.515997-0.473016-201.031993 0.236508-301.547989z m133.863656 34.565677c-0.189207-8.620725-14.734463-15.302082-32.49623-14.935494-8.514296 0.177381-16.67383 1.998495-22.633837 5.04945-5.971833 3.050956-9.282948 7.095247-9.188345 11.234141 0.177381 8.620725 14.722637 15.302082 32.484405 14.935494 8.514296-0.177381 16.67383-1.998495 22.633837-5.04945 5.971833-3.050956 9.282948-7.095247 9.188345-11.234141z m131.853337-0.177381a13.835731 13.835731 0 0 0-13.906684-13.752954l-69.29691 0.354763a13.835731 13.835731 0 0 0-13.764779 13.906684v1.419049a13.835731 13.835731 0 0 0 13.918509 13.764779l69.296911-0.354763a13.835731 13.835731 0 0 0 13.752953-13.906683v-1.41905z m77.219936 0.035476c-0.118254-3.819608-2.518813-7.426358-6.716833-10.027949-4.186196-2.60159-9.815091-3.973338-15.656845-3.819608-5.829928 0.15373-11.387871 1.821113-15.432162 4.635562-4.056116 2.814448-6.267468 6.539452-6.172865 10.370885 0.094603 3.819608 2.506987 7.426358 6.705009 10.027949 4.186196 2.60159 9.815091 3.973338 15.656844 3.819608 5.829928-0.15373 11.387871-1.821113 15.432162-4.635561 4.056116-2.814448 6.267468-6.539452 6.172865-10.370886z m85.107486 1.821113A15.136527 15.136527 0 0 0 765.876799 666.421057h-1.182541a15.136527 15.136527 0 0 0-15.183828 15.077399l-0.402064 113.760458a15.136527 15.136527 0 0 0 15.089225 15.195653h1.182541a15.136527 15.136527 0 0 0 15.183828-15.077399l0.402064-113.760458zM609.426607 736.900509a14.190494 14.190494 0 0 0-14.190493-14.190494h-157.277971a14.190494 14.190494 0 0 0-14.190494 14.190494v0.709524a14.190494 14.190494 0 0 0 14.190494 14.190494h157.277971a14.190494 14.190494 0 0 0 14.190493-14.190494v-0.709524z m90.464397 0.685873c-0.082778-8.620725-13.421842-15.491289-29.811862-15.349384-16.401846 0.141905-29.622655 7.248977-29.551703 15.869703 0.082778 8.620725 13.421842 15.491289 29.823688 15.349383 16.39002-0.141905 29.61083-7.248977 29.539877-15.869702z m-1.419049 57.022134a13.244461 13.244461 0 0 0-13.244461-13.244461H437.130364a13.244461 13.244461 0 0 0-13.244461 13.244461v3.074607c0 7.31993 5.924531 13.244461 13.244461 13.244461h248.09713a13.244461 13.244461 0 0 0 13.244461-13.244461v-3.074607z m20.221453 122.558563a14.308748 14.308748 0 0 0-14.285097-14.332398l-157.277971-0.28381a14.308748 14.308748 0 0 0-14.332398 14.285097v0.946033a14.308748 14.308748 0 0 0 14.285097 14.332398l157.277971 0.28381a14.308748 14.308748 0 0 0 14.332398-14.285097v-0.946033z" fill="#8DCAFC" /><path d="M822.52052 669.495664c8.360566 45.965374 9.259297 91.966224 2.719844 138.00255-18.092879 8.514296-26.370667 0.473016-26.370667-17.738117 0-16.555576-13.717477-142.02319 23.650823-120.264433z" fill="#5169CC" /><path d="M234.5801 224.733817m14.781202 0.128993l135.041055 1.178486q14.781201 0.128994 14.652208 14.910194l-0.010319 1.182497q-0.128994 14.781201-14.910195 14.652207l-135.041056-1.178485q-14.781201-0.128994-14.652208-14.910195l0.01032-1.182496q0.128994-14.781201 14.910195-14.652208Z" fill="#CBC5CB" /><path d="M234.062584 279.046205m14.190472-0.024768l136.465039-0.238176q14.190472-0.024767 14.215239 14.165705l0.001651 0.946031q0.024767 14.190472-14.165705 14.215239l-136.465039 0.238177q-14.190472 0.024767-14.215239-14.165705l-0.001651-0.946031q-0.024767-14.190472 14.165705-14.21524Z" fill="#CBC5CB" /><path d="M234.639586 330.387617m11.588744 0.060679l140.483961 0.735579q11.588744 0.060679 11.528065 11.649423l-0.033435 6.385635q-0.060679 11.588744-11.649423 11.528065l-140.483962-0.735579q-11.588744-0.060679-11.528065-11.649423l0.033436-6.385635q0.060679-11.588744 11.649423-11.528065Z" fill="#CBC5CB" /><path d="M234.152319 383.608102m14.545167-0.050773l135.518389-0.47305q14.545167-0.050772 14.595939 14.494395l0.007431 2.128561q0.050772 14.545167-14.494395 14.59594l-135.518389 0.47305q-14.545167 0.050772-14.59594-14.494395l-0.00743-2.128561q-0.050772-14.545167 14.494395-14.59594Z" fill="#CBC5CB" /><path d="M422.473908 681.285166a15.609543 32.165119 88.8 1 0 64.316129-1.347231 15.609543 32.165119 88.8 1 0-64.316129 1.347231Z" fill="#EAF6FF" /><path d="M521.606561 666.438609m13.835542-0.072443l69.29596-0.362836q13.835542-0.072443 13.907985 13.763098l0.00743 1.41903q0.072443 13.835542-13.763098 13.907985l-69.29596 0.362836q-13.835542 0.072443-13.907985-13.763098l-0.00743-1.41903q-0.072443-13.835542 13.763098-13.907985Z" fill="#EAF6FF" /><path d="M651.887371 680.950811a14.427002 21.995265 88.5 1 0 43.975456-1.151538 14.427002 21.995265 88.5 1 0-43.975456 1.151538Z" fill="#EAF6FF" /><path d="M749.572705 666.366595m15.136434 0.052837l1.182534 0.004128q15.136434 0.052836 15.083598 15.18927l-0.397098 113.759764q-0.052836 15.136434-15.189271 15.083598l-1.182534-0.004127q-15.136434-0.052836-15.083598-15.189271l0.397098-113.759764q0.052836-15.136434 15.189271-15.083598Z" fill="#5169CC" /><path d="M423.767649 722.710015m14.190494 0l157.277971 0q14.190494 0 14.190493 14.190494l0 0.709524q0 14.190494-14.190493 14.190494l-157.277971 0q-14.190494 0-14.190494-14.190494l0-0.709524q0-14.190494 14.190494-14.190494Z" fill="#EAF6FF" /><path d="M640.528569 738.105561a15.609543 29.681782 89.5 1 0 59.361305-0.518039 15.609543 29.681782 89.5 1 0-59.361305 0.518039Z" fill="#EAF6FF" /><path d="M423.885903 781.364055m13.244461 0l248.09713 0q13.244461 0 13.244461 13.244461l0 3.074607q0 13.244461-13.244461 13.244461l-248.09713 0q-13.244461 0-13.244461-13.244461l0-3.074607q0-13.244461 13.244461-13.244461Z" fill="#EAF6FF" /><path d="M532.823882 902.530574m14.308726 0.024973l157.277732 0.274502q14.308726 0.024973 14.283752 14.3337l-0.001651 0.946031q-0.024973 14.308726-14.333699 14.283752l-157.277732-0.274501q-14.308726-0.024973-14.283752-14.3337l0.001651-0.946031q0.024973-14.308726 14.333699-14.283753Z" fill="#918191" /></svg>