<?xml version="1.0" standalone="no"?><!DOCTYPE svg PUBLIC "-//W3C//DTD SVG 1.1//EN" "http://www.w3.org/Graphics/SVG/1.1/DTD/svg11.dtd"><svg class="icon" width="200px" height="200.00px" viewBox="0 0 1024 1024" version="1.1" xmlns="http://www.w3.org/2000/svg"><path d="M936.023752 8.815845l-2.958337 76.916767c-3.952339 3.940505-7.573343 6.508342-10.886681 7.691677a315.997748 315.997748 0 0 0-128.155168-3.786671h-26.625035a670.063379 670.063379 0 0 0-150.875198 0h-32.541709a660.9517 660.9517 0 0 0-150.875198 0h-26.625035a660.9517 660.9517 0 0 0-150.875198 0h-29.583372a483.617134 483.617134 0 0 0-127.2085 0l-47.333395-3.905006a6.981676 6.981676 0 0 0-7.573344 6.153342l-7.691676 59.403411-17.986691-115.848485c-2.68617-17.359523 5.360507-26.151701 24.140032-26.388368C337.410134 4.94634 635.291024 4.87534 936.023752 8.815845z" fill="#FCB982" /><path d="M936.023752 8.815845l59.995079 4.141672c3.384338 0.284 6.153341 3.360671 6.626675 7.336676 3.467171 28.080537-1.147835 54.989572-13.845018 80.703439-16.649522-10.093847-35.22788-15.182187-55.735073-15.26502l2.958337-76.916767z" fill="#FC9743" /><path d="M98.814321 89.637618v288.970378l-47.215062 2.721671a11.774182 11.774182 0 0 1-8.827678-3.112171 12.010849 12.010849 0 0 1-3.834005-8.602845l-1.775003-123.658495-0.946667-79.875105v-14.791686l7.691676-59.403411a6.981676 6.981676 0 0 1 7.573344-6.153342l47.333395 3.905006z" fill="#FB8628" /><path d="M226.022821 89.637618l-5.916674 73.011762c-40.470053 17.193856-46.351227 40.70672-17.63169 70.526759a5.44334 5.44334 0 0 1-0.473334 7.928344c-25.560034 21.382861-24.814533 41.535054 2.248336 60.468412a4.425672 4.425672 0 0 1 1.881503 3.431672 4.686006 4.686006 0 0 1-1.538336 3.668338c-30.683874 27.133869-28.518371 48.954564 6.508342 65.438419 1.183335 0.556167 4.899006 1.147835 11.123348 1.775002l27.453369 2.72167H98.814321V89.637618a483.617134 483.617134 0 0 1 127.2085 0zM406.481391 89.637618l-2.958337 73.011762c-34.719046 11.596682-43.239057 31.713375-25.560034 60.350079 4.331006 4.650506 6.697675 9.85718 7.10001 15.620021 0.224834 3.218671-1.467335 6.958009-4.615006 10.17668-19.099025 19.96286-16.448355 41.061721 7.928343 63.308416-28.636704 23.820531-28.518371 45.002226 0.355001 63.545083a292.922717 292.922717 0 0 1-112.416814 0c24.530532-19.797193 25.7967-40.35172 3.786671-61.651747a9.82168 9.82168 0 0 1 1.183335-15.26502c30.88504-21.063361 9.585013-37.275049-0.710001-59.640078a9.454846 9.454846 0 0 1 1.538336-10.058347c23.737698-29.263872 16.874355-51.392234-20.590027-66.385087l-5.916675-73.011762a660.9517 660.9517 0 0 1 150.875198 0zM583.981624 89.637618a227.188465 227.188465 0 0 1-5.916675 75.970099c-38.186217 16.803355-41.972888 39.641719-11.360014 68.51509l-17.63169 30.766707c-2.094503 3.656505-2.662503 7.478676-1.538336 10.295013 4.567673 11.442848 11.632182 21.418361 21.181695 29.938373l-21.300028 38.813384c-1.644835 2.958337-0.828334 7.017176 2.011669 10.058347l20.235027 22.128362a343.380117 343.380117 0 0 1-118.806823 2.485003c32.103875-22.246696 32.93221-45.75956 2.485004-70.526759 5.206673-9.85718 11.750515-17.868357 19.643359-24.021698a10.53168 10.53168 0 0 0 2.366669-13.963352c-14.839019-23.193364-20.045693-37.98505-15.62002-44.375058 34.080045-23.785031 4.970007-63.900084-23.666698-63.071749l-2.958337-73.011762a660.9517 660.9517 0 0 1 150.875198 0zM767.398531 89.637618l-2.958337 73.011762c-43.949058 16.247188-49.700065 39.085551-17.27669 68.51509l-20.235026 36.920048a9.301012 9.301012 0 0 0-0.118334 9.111679l20.35336 33.843378c-26.033367 21.619528-26.199034 43.156223-0.473333 64.610084-37.476216 7.336676-75.106265 8.484511-112.890149 3.431671 29.346705-23.347197 29.346705-47.013895 0-71.000093 29.583372-23.430031 29.583372-47.096728 0-71.000093 34.151045-34.233878 28.400037-59.048411-17.276689-74.431764v-73.011762c50.244399-5.680007 100.536132-5.680007 150.875198 0zM922.178734 93.424289l3.076671 264.59368c-30.222373 28.719538-67.059588 34.908379-110.523479 18.578358 28.553871-22.092862 28.400037-43.937224-0.473334-65.556752l19.99836-31.476708c2.165503-3.467171 2.532337-7.360343 0.946668-10.058347l-20.945028-35.381713c32.021042-31.322874 26.778868-55.261739-15.738354-71.828428l-4.496672-72.656761a315.997748 315.997748 0 0 1 128.155168 3.786671z" fill="#FFFFFF" /><path d="M933.065415 85.732612c20.507194 0.082833 39.085551 5.171173 55.735073 15.26502l-5.08834 271.575357a104.938138 104.938138 0 0 1-53.131736 3.550004l-5.325007-18.105024-3.076671-264.59368c3.313338-1.183335 6.934342-3.751172 10.886681-7.691677z" fill="#FB8628" /><path d="M226.022821 89.637618h29.583372l5.916675 73.011762h-41.416721z" fill="#C0E4E2" /><path d="M406.481391 89.637618h26.625035l2.958337 73.011762c-10.732847 4.650506-21.584028 4.650506-32.541709 0l2.958337-73.011762zM583.981624 89.637618h32.541709v73.011762l-8.875011 0.946668-29.583373 2.011669c6.224341-24.767199 8.200511-50.090566 5.916675-75.970099zM767.398531 89.637618h26.625035l4.496672 72.656761-34.080044 0.355001z" fill="#B0D7DE" /><path d="M220.106147 162.64938h41.416721c37.464382 14.992853 44.327725 37.121215 20.590027 66.385087a9.454846 9.454846 0 0 0-1.538336 10.058347c10.295013 22.365029 31.595041 38.576717 0.710001 59.640078a9.82168 9.82168 0 0 0-1.183335 15.26502c22.010029 21.300028 20.743861 41.854555-3.786671 61.651747l-26.625035 2.958337-27.45337-2.72167c-6.236175-0.627167-9.940013-1.218835-11.123347-1.775002-35.026713-16.483855-37.204049-38.30455-6.508342-65.438419a4.686006 4.686006 0 0 0 1.526502-3.668338 4.425672 4.425672 0 0 0-1.893336-3.431672c-27.051035-18.933358-27.80837-39.085551-2.248336-60.468412a5.44334 5.44334 0 0 0 0.473334-7.928344c-28.707704-29.820039-22.838363-53.332903 17.631689-70.526759z" fill="#5D73D4" /><path d="M403.523054 162.64938c10.957681 4.650506 21.808862 4.650506 32.541709 0 28.636704-0.828334 57.746742 39.286718 23.666698 63.071749a98.406129 98.406129 0 0 1-53.25007 8.875012l-28.518371-11.596682c-17.679023-28.636704-9.159012-48.753397 25.560034-60.350079z" fill="#1A96F9" /><path d="M607.648322 163.596048c-7.100009 8.673845-7.336676 16.767855-0.710001 24.258365 3.029337 3.419838 4.816173 6.981676 4.970006 9.940013 0.473334 14.282852-4.899006 26.388368-16.093354 36.328381-10.022846 8.910512-19.726193 8.910512-29.110038 0-30.612873-28.873371-26.826202-51.711734 11.360014-68.51509l29.583373-2.011669z" fill="#5169CC" /><path d="M607.648322 163.596048l8.875011-0.946668c45.676727 15.383354 51.427734 40.197886 17.276689 74.431764l-37.985049-2.958337c11.194348-9.940013 16.566688-22.045529 16.093354-36.328381-0.153834-2.958337-1.940669-6.520175-4.970006-9.940013-6.626675-7.49051-6.390008-15.58452 0.710001-24.258365z" fill="#3351C5" /><path d="M764.440194 162.64938l34.080044-0.355001c42.517222 16.566688 47.759396 40.505553 15.738354 71.828428l-43.901724 0.473334-23.193364-3.431671c-32.423376-29.429539-26.672368-52.267902 17.27669-68.51509z" fill="#1A96F9" /><path d="M36.215906 166.081051l0.946667 79.875105-2.958337 5.916674z" fill="#FCC99F" /><path d="M377.96302 222.999459l28.518371 11.596682c30.837707 21.063361 33.961711 44.576225 9.348346 70.526759l-27.45337 6.981676c-24.376699-22.246696-27.027369-43.345557-7.928343-63.308416 3.147671-3.218671 4.83984-6.958009 4.615006-10.17668-0.402334-5.762841-2.769004-10.969514-7.10001-15.620021z" fill="#63B9FC" /><path d="M459.731461 225.721129c-4.425672 6.390008 0.781001 21.181694 15.62002 44.375058a10.53168 10.53168 0 0 1-2.366669 13.963352c-7.892844 6.153341-14.436686 14.164519-19.643359 24.021698l-37.511716-2.958337c24.613366-25.950534 21.489362-49.463398-9.348346-70.526759a98.406129 98.406129 0 0 0 53.25007-8.875012z" fill="#30A7FB" /><path d="M747.163504 231.16447l23.193364 3.431671c27.370536 23.583864 28.352704 46.942895 2.958337 70.053425l-26.151701 6.390009-20.35336-33.843378a9.301012 9.301012 0 0 1 0.118334-9.111679l20.235026-36.920048z" fill="#63B9FC" /><path d="M814.258592 234.122807l20.945028 35.381713c1.585669 2.698004 1.218835 6.591175-0.946668 10.058347l-19.99836 31.476708-40.943387-6.390009c25.394367-23.11053 24.412199-46.469561-2.958337-70.053425l43.901724-0.473334z" fill="#30A7FB" /><path d="M566.704935 234.122807c9.383846 8.910512 19.087192 8.910512 29.110038 0v5.916674c0 3.585505 1.420002 7.242009 4.023338 10.295014 17.193856 20.590027 13.726685 38.848884-10.413347 54.788405h-20.70836a79.129604 79.129604 0 0 1-21.181695-29.938373c-1.124168-2.816337-0.556167-6.638509 1.538336-10.295013l17.63169-30.766707z" fill="#2844AE" /><path d="M595.814973 234.122807l37.985049 2.958337c29.583372 23.903365 29.583372 47.570062 0 71.000093l-35.026712 3.431671-9.348346-6.390008c24.140032-15.939521 27.607203-34.198378 10.413347-54.788405a16.057854 16.057854 0 0 1-4.023338-10.295014v-5.916674z" fill="#213894" /><path d="M37.162573 245.956156l1.775003 123.658495c0.059167 3.277838 1.443669 6.390008 3.834005 8.602845a11.774182 11.774182 0 0 0 8.827678 3.112171l47.215062-2.721671h150.875198l26.625035-2.958337c37.464382 7.253843 74.940598 7.253843 112.416814 0l62.125081 2.958337c39.831052 6.070508 79.437271 5.242174 118.806823-2.485003l20.235026 2.485003 43.901724 0.473334c37.783883 5.05284 75.413932 3.905005 112.890149-3.431671 22.637196 5.12384 45.321726 5.44334 68.041755 0.946668 43.46389 16.330021 80.301105 10.14118 110.523479-18.578358l5.325007 18.105024c6.863342 29.583372 6.697675 59.012911-0.473334 88.276783l-7.810011 6.626675c-39.842886-10.969514-80.632439-13.845018-122.356827-8.638345h-38.458383l-73.958431-0.946668a385.648839 385.648839 0 0 0-103.541802 0.946668h-180.45857l-144.958524-2.958337h-32.541709l-127.2085 2.958337c-33.133377-9.940013-54.634572-2.212836-64.491751 23.193364l1.893336 41.416721-2.721671-49.936732c-0.236667-4.307339-1.349002-7.999344-3.195004-10.531681-20.826694-29.027205-21.619528-58.610577-2.36667-88.750116 1.846002-2.840004 2.875504-6.603009 2.958338-10.768347l3.313337-115.138485 2.958337-5.916674z" fill="#FCB982" /><path d="M589.424964 305.1229l9.348346 6.390008c18.294357 24.459532 15.33602 46.824561-8.875012 67.095088l-20.235026-2.485003-20.235027-22.128362c-2.840004-3.041171-3.656505-7.100009-2.011669-10.058347l21.300028-38.813384h20.70836z" fill="#5169CC" /><path d="M415.829737 305.1229l37.511716 2.958337c30.447207 24.767199 29.618872 48.280063-2.485004 70.526759l-62.125081-2.958337c-28.873371-18.542858-28.991705-39.724552-0.355001-63.545083l27.45337-6.981676zM773.315205 304.649566l40.943387 6.390009c28.873371 21.619528 29.027205 43.46389 0.473334 65.556752-22.72003 4.496673-45.40456 4.177172-68.041755-0.946668-25.7257-21.453861-25.560034-42.990556 0.473333-64.610084l26.151701-6.390009z" fill="#1A96F9" /><path d="M633.800022 308.081237c29.346705 23.986198 29.346705 47.652896 0 71.000093l-43.901724-0.473334c24.211032-20.270527 27.169369-42.635556 8.875012-67.095088l35.026712-3.431671z" fill="#3855C8" /><path d="M983.712148 372.572989c34.080045 30.84954 34.943879 62.752249 2.603337 95.731792-18.306191-5.206673-37.038382-6.508342-56.208407-3.905005 7.171009-29.263872 7.336676-58.69341 0.473334-88.276783a104.938138 104.938138 0 0 0 53.131736-3.550004z" fill="#FC9743" /><path d="M98.814321 462.388106l-0.473334 32.068376c-24.069032 14.91002-45.40456 11.951682-64.018417-8.875012 9.85718-25.4062 31.358374-33.133377 64.491751-23.193364z" fill="#F2671E" /><path d="M226.022821 459.429769l-2.958337 117.386821c-39.689052 14.992853-46.907395 37.357882-21.655028 67.095088a11.135181 11.135181 0 0 1 2.485003 10.058346l-1.538336 5.680008c-22.175696 15.146687-23.986198 31.086207-5.44334 47.806729l4.851673 18.696691a8.957845 8.957845 0 0 1-3.076671 9.111679 40.233386 40.233386 0 0 0-13.726684 22.246696c-0.733668 3.159504 0.520667 6.792342 3.313337 9.585012 10.803847 10.803847 14.673353 23.465531 11.596682 37.98505-20.28236 20.67286-18.306191 39.405052 5.916675 56.208407l-17.750024 36.565048c-2.059003 4.118005-2.354836 8.165011-0.710001 10.058346l23.903365 29.82004h-112.416814l-0.473334-443.277248 0.473334-32.068376 127.2085-2.958337z" fill="#FFFFFF" /><path d="M226.022821 459.429769h32.541709c2.993837 39.440552 1.017668 78.573436-5.916674 117.386821l-11.833349 0.946668-17.750023-0.946668 2.958337-117.386821z" fill="#CBE5E6" /><path d="M258.56453 459.429769l144.958524 2.958337 5.916674 114.428484c-48.362897 13.880518-55.261739 37.866716-20.70836 71.946761l-21.181695 35.61838c-1.656669 2.851837-1.076835 6.768676 1.420002 9.821679a79.614771 79.614771 0 0 1 16.803356 36.446715c-26.270034 21.146194-25.134033 42.008388 3.431671 62.598415l-19.288359 26.033368c-5.514341 7.31301-5.561674 16.791522-0.118333 22.128362 9.064345 8.910512 14.555019 19.489526 16.448355 31.713375-26.909035 20.980528-26.080701 41.535054 2.485003 61.651747-39.215718 5.680007-78.65627 6.662175-118.333489 2.958338v-2.01167c31.240041-15.856687 33.961711-35.22788 8.165011-58.101743 16.637688-24.530532 17.868357-47.889563 3.668338-70.053425a17.229356 17.229356 0 0 1-4.970006-12.425016c0.071-2.922837 2.011669-6.425508 5.325007-9.585013 18.613858-18.069524 18.341691-35.29888-0.828335-51.711734-3.242338-2.79267-4.94634-6.461008-4.496672-9.703346 0.627167-5.680007 3.112171-10.259513 7.455009-13.726685 17.821023-19.797193 15.856687-37.547216-5.916674-53.25007 0.544334-12.223849 5.005507-22.956697 13.371684-32.186709 2.674337-2.911004 3.869505-6.614842 3.195004-9.940013-4.579506-22.400529-18.815025-35.145046-42.718389-38.221716 6.934342-38.813384 8.910512-77.946269 5.916674-117.386821z" fill="#FFFFFF" /><path d="M687.523426 461.441438l-61.41508 1.065002a6.804176 6.804176 0 0 0-6.626676 5.916674 452.933261 452.933261 0 0 0 0 108.393476l-23.666697 0.946668-8.875012-0.946668-2.958337-114.428484a385.648839 385.648839 0 0 1 103.541802-0.946668z" fill="#CBE5E6" /><path d="M761.481857 462.388106l2.958337 117.386821c-43.629557 13.726685-49.392398 36.565048-17.27669 68.51509a90.832786 90.832786 0 0 1-19.288358 32.068375c-2.011669 2.130003-2.29567 5.762841-0.710001 9.111679l19.525026 41.180054c-25.879534 17.122856-26.151701 36.292881-0.828335 57.510075l-18.105024 43.310057a9.206345 9.206345 0 0 0 2.01167 9.703346c8.520011 9.312846 14.152685 19.797193 16.921689 31.476708-26.826202 22.010029-25.844034 42.718389 2.958337 62.125081a415.587212 415.587212 0 0 1-115.375152 0.946668 80.028938 80.028938 0 0 0 21.655029-30.53004c1.183335-2.780837 0.508834-6.579342-1.775002-10.058346l-20.353361-30.885041c31.393874-22.010029 31.547708-43.866224 0.473334-65.556752l21.063361-33.370044c2.18917-3.431671 2.769004-7.171009 1.538336-9.82168-5.206673-11.596682-27.80837-28.518371-19.643359-38.69505 26.270034-20.436193 26.104368-40.31622-0.473334-59.640079 2.603337-13.016684 8.283344-24.412199 17.040022-34.198378 2.627003-2.934671 3.573671-6.780509 2.485003-10.058346-5.845674-18.140524-18.105024-30.17504-36.801715-36.091714a452.933261 452.933261 0 0 1 0-108.393476 6.804176 6.804176 0 0 1 6.626676-5.916674l61.41508-1.065002 73.958431 0.946668z" fill="#FFFFFF" /><path d="M403.523054 462.388106h35.500046l-2.958337 114.428484h-26.625035z" fill="#CBE5E6" /><path d="M439.0231 462.388106h144.958524l2.958337 114.428484c-23.430031 4.650506-36.375714 17.832857-38.813384 39.523385-0.378667 3.467171 0.946668 7.171009 3.668338 10.17668a54.433405 54.433405 0 0 1 14.436686 30.175039c-25.7257 19.726193-25.7257 39.760052 0 60.113413-0.082833 13.880518-5.206673 23.465531-15.383354 28.755037a14.081685 14.081685 0 0 0-2.36667 23.430031c10.721014 8.673845 16.637688 19.560526 17.750024 32.660043-25.962367 19.560526-25.7967 39.440552 0.473334 59.640078a55.782406 55.782406 0 0 1-16.803356 31.713375c-2.780837 2.61517-3.999672 6.271675-3.195004 9.585013 3.786672 14.673353 12.259349 26.388368 25.4417 35.145046h-118.333489c28.944371-23.430031 28.944371-46.11456 0-68.041756l21.181695-37.511716c1.491002-2.662503 0.485167-6.697675-2.485003-9.940013a62.835082 62.835082 0 0 1-15.738354-31.476708c25.7967-23.347197 24.802699-46.031727-2.958338-68.041756l21.536695-33.370044c1.550169-2.520503 0.946668-6.579342-1.538335-10.295013l-19.99836-30.293373c33.843378-32.577209 27.926703-56.563408-17.750023-71.946761l2.958337-114.428484z" fill="#FFFFFF" /><path d="M761.481857 462.388106h38.458383l-2.958337 114.428484-20.70836 0.946668-11.833349 2.011669z" fill="#CBE5E6" /><path d="M799.94024 462.388106c41.724388-5.206673 82.513942-2.33117 122.356827 8.638345l-0.591667 271.930357-1.893336 183.18024c-33.370044 15.702854-68.396756 18.578358-105.080138 8.638344 27.997703-22.329529 27.84387-44.848392-0.473334-67.568422 27.997703-24.850033 27.997703-49.498898 0-73.95843 29.417705-23.03953 29.417705-45.712227 0-68.041756l21.063361-35.263379c1.597502-2.733504 1.183335-6.733175-1.065001-10.295014l-19.99836-31.358374c33.204377-31.630541 27.453369-55.462906-17.276689-71.473427l2.958337-114.428484z" fill="#FFFFFF" /><path d="M986.315485 468.304781l-2.485004 443.277248c7.218343 28.16337-35.26338 23.548364-50.291732 29.583372l-8.875012-26.625035c4.260006-57.273408 3.266004-114.463983-2.958337-171.583558l0.591667-271.930357 7.810011-6.626675c19.170025-2.603337 37.902216-1.301668 56.208407 3.905005zM34.32257 485.58147c18.613858 20.826694 39.949386 23.785031 64.018417 8.875012l0.473334 443.277248c-21.063361 3.467171-41.771721 2.485003-62.125081-2.958338l-0.473334-407.777201-1.893336-41.416721z" fill="#FB8628" /><path d="M223.064484 576.81659l17.750023 0.946668-0.828334 4.496672c-0.674501 3.254171-0.485167 6.035008 0.473334 7.336676 18.531024 25.4772 13.726685 46.860061-14.436686 64.136751l-23.666698 5.916675 1.538336-5.680008a11.135181 11.135181 0 0 0-2.485003-10.058346c-25.252366-29.737206-18.034024-52.102235 21.655028-67.095088z" fill="#63B9FC" /><path d="M240.814507 577.763258l11.833349-0.946668c23.903365 3.076671 38.138883 15.821187 42.718389 38.221716 0.674501 3.325171-0.520667 7.029009-3.195004 9.940013-8.366178 9.230012-12.82735 19.96286-13.371684 32.186709a90.501452 90.501452 0 0 0-52.776736-3.431671c28.16337-17.276689 32.96771-38.659551 14.436686-64.136751-0.958501-1.301668-1.147835-4.082505-0.473334-7.336676l0.828334-4.496672z" fill="#30A7FB" /><path d="M409.439728 576.81659h26.625035c45.676727 15.383354 51.593401 39.369552 17.750023 71.946761h-65.083418c-34.553379-34.080045-27.654536-58.066243 20.70836-71.946761z" fill="#2844AE" /><path d="M586.939961 576.81659l8.875012 0.946668v7.691676c-0.011833 3.064837 2.307503 6.330842 6.035008 8.520012 7.253843 4.260006 11.277181 10.614514 12.070015 19.051691 0.213 2.153669-1.242502 5.999508-3.905005 10.295014l-17.158356 27.453369-26.625034 5.916674a54.433405 54.433405 0 0 0-14.436686-30.175039c-2.72167-3.005671-4.047005-6.709509-3.668338-10.17668 2.43767-21.690528 15.383354-34.872879 38.813384-39.523385z" fill="#63B9FC" /><path d="M595.814973 577.763258l23.666697-0.946668c18.696691 5.916674 30.956041 17.95119 36.801715 36.091714 1.088668 3.277838 0.142 7.123676-2.485003 10.058346a71.319594 71.319594 0 0 0-17.040022 34.198378l-43.901725-6.390008 17.158356-27.453369c2.662503-4.295506 4.118005-8.141344 3.905005-10.295014-0.792834-8.437178-4.816173-14.791686-12.070015-19.051691-3.727505-2.18917-6.046841-5.455174-6.035008-8.520012v-7.691676z" fill="#30A7FB" /><path d="M776.273543 577.763258l17.158355 30.293373c1.869669 3.313338 2.343003 7.017176 1.301669 10.17668l-9.585013 29.583372-8.875011 0.946668-29.110039-0.473334c-32.115709-31.950042-26.352868-54.788405 17.27669-68.51509l11.833349-2.011669z" fill="#2844AE" /><path d="M776.273543 577.763258l20.70836-0.946668c44.730059 16.010521 50.481066 39.842886 17.276689 71.473427l-29.110038-0.473334 9.585013-29.583372c1.041335-3.159504 0.568001-6.863342-1.301669-10.17668l-17.158355-30.293373z" fill="#213894" /><path d="M278.799557 657.165028c21.773362 15.702854 23.737698 33.452877 5.916674 53.25007-12.54335 14.200019-29.867372 17.359523-51.948401 9.466679-12.86285 2.047169-24.814533-2.094503-35.855047-12.425016-18.542858-16.720522-16.732355-32.660043 5.44334-47.806729l23.666698-5.916675a90.501452 90.501452 0 0 1 52.776736 3.431671z" fill="#269BFE" /><path d="M388.731368 648.763351h29.583372c1.420002 11.040514 5.206673 21.146194 11.360015 30.293373 2.212836 3.337004 2.79267 7.218343 1.538335 10.413347l-12.89835 32.305042-32.541709 8.875012a79.614771 79.614771 0 0 0-16.803356-36.446715c-2.496837-3.053004-3.076671-6.969842-1.420002-9.821679l21.181695-35.61838z" fill="#5169CC" /><path d="M418.31474 648.763351h35.500046l19.99836 30.293373c2.485003 3.715672 3.088504 7.77451 1.538335 10.295013l-21.536695 33.370044c-12.070016 4.106172-23.903365 3.786672-35.500046-0.946668l12.89835-32.305042c1.254335-3.195004 0.674501-7.076343-1.538335-10.413347a69.414424 69.414424 0 0 1-11.360015-30.293373z" fill="#3351C5" /><path d="M747.163504 648.290017l29.110039 0.473334a79.307104 79.307104 0 0 0 13.963351 30.411706c2.65067 3.502671 3.396171 7.502343 1.893336 10.058347l-15.383353 27.098369c-5.845674 12.93385-15.856687 17.714523-30.056706 14.318352l-19.525026-41.180054c-1.585669-3.348838-1.301668-6.981676 0.710001-9.111679a90.832786 90.832786 0 0 0 19.288358-32.068375z" fill="#5169CC" /><path d="M776.273543 648.763351l8.875011-0.946668 29.110038 0.473334 19.99836 31.358374c2.248336 3.561838 2.662503 7.56151 1.065001 10.295014l-21.063361 35.263379a74.999765 74.999765 0 0 0-37.511715-8.875011l15.383353-27.098369c1.502835-2.556003 0.757334-6.555675-1.893336-10.058347a79.307104 79.307104 0 0 1-13.963351-30.411706z" fill="#3855C8" /><path d="M592.856635 650.77502l43.901725 6.390008c26.577702 19.323859 26.743368 39.203885 0.473334 59.640079l-42.481723 3.07667-28.51837-3.07667c-25.7257-20.35336-25.7257-40.38722 0-60.113413l26.625034-5.916674z" fill="#1A96F9" /><path d="M196.912783 707.456761c11.040514 10.330514 22.992197 14.472186 35.855047 12.425016 25.4772 26.506701 25.039366 49.025564-1.301668 67.568422-2.68617 1.893336-3.360671 4.816173-2.01167 8.756678l-29.583372 8.875012c3.076671-14.519519-0.792834-27.181202-11.596682-37.98505-2.79267-2.79267-4.047005-6.425508-3.313337-9.585012a40.233386 40.233386 0 0 1 13.726684-22.246696 8.957845 8.957845 0 0 0 3.076671-9.111679l-4.851673-18.696691z" fill="#63B9FC" /><path d="M284.716231 710.415098c-4.342839 3.467171-6.827842 8.046677-7.455009 13.726685-0.449667 3.242338 1.254335 6.910676 4.496672 9.703346 19.170025 16.412855 19.442192 33.642211 0.828335 51.711734-3.313338 3.159504-5.254007 6.662175-5.325007 9.585013-0.082833 4.650506 1.573835 8.792178 4.970006 12.425016-15.702854-11.679515-33.299044-15.466187-52.776736-11.360015-1.349002-3.940505-0.674501-6.863342 2.01167-8.756678 26.341035-18.542858 26.778868-41.061721 1.301668-67.568422 22.081029 7.892844 39.405052 4.73334 51.948401-9.466679z" fill="#3CADFE" /><path d="M566.231601 716.805107l28.51837 3.07667 17.158356 38.458384c1.100501 2.50867 0.426001 6.188841-1.775002 9.703346l-17.27669 27.690036-26.625034 5.916675c-1.112335-13.099517-7.029009-23.986198-17.750024-32.660043a14.081685 14.081685 0 0 1 2.36667-23.430031c10.17668-5.289507 15.30052-14.87452 15.383354-28.755037z" fill="#63B9FC" /><path d="M637.231694 716.805107c-8.165011 10.17668 14.436686 27.098369 19.643359 38.69505 1.230668 2.65067 0.650834 6.390008-1.538336 9.82168l-21.063361 33.370044-41.416721-2.958338 17.27669-27.690036c2.201003-3.514505 2.875504-7.194676 1.775002-9.703346l-17.158356-38.458384 42.481723-3.07667z" fill="#30A7FB" /><path d="M776.746877 716.331773a74.999765 74.999765 0 0 1 37.511715 8.875011c29.417705 22.329529 29.417705 45.002226 0 68.041756-12.945684-4.413839-25.607367-4.260006-37.985049 0.473334-11.052348-6.070508-21.181694-7.928344-30.411707-5.561674-25.323367-21.217194-25.0512-40.38722 0.828335-57.510075 14.200019 3.396171 24.211032-1.384502 30.056706-14.318352zM418.31474 721.775113c11.596682 4.73334 23.430031 5.05284 35.500046 0.946668 27.761036 22.010029 28.755038 44.694559 2.958338 68.041756l-35.500047 2.958337-32.068375-0.473334c-28.565704-20.590027-29.701706-41.452221-3.431671-62.598415l32.541709-8.875012z" fill="#2844AE" /><path d="M921.7054 742.956808c6.224341 57.119575 7.218343 114.31015 2.958337 171.583558l-4.851673 11.596682 1.893336-183.18024z" fill="#FCC99F" /><path d="M745.861836 788.1602c9.230012-2.36667 19.359359-0.508834 30.411707 5.561674l15.028353 32.778376c1.609335 3.467171 1.420002 7.324843-0.473334 10.17668l-19.99836 30.53004-24.140031 5.443341c-2.769004-11.679515-8.401678-22.163862-16.921689-31.476708a9.206345 9.206345 0 0 1-2.01167-9.703346l18.105024-43.310057z" fill="#5169CC" /><path d="M456.773124 790.763537a62.835082 62.835082 0 0 0 15.738354 31.476708c2.970171 3.242338 3.976005 7.27751 2.485003 9.940013l-21.181695 37.511716h-23.666697l-11.833349-5.916675 12.425016-28.636704c1.218835-2.75717 0.355-6.685842-2.248336-10.17668-6.792342-8.839512-9.194512-19.252859-7.218343-31.240041l35.500047-2.958337z" fill="#3351C5" /><path d="M814.258592 793.24854c27.997703 24.459532 27.997703 49.108398 0 73.95843h-43.42839l19.99836-30.53004c1.893336-2.851837 2.082669-6.709509 0.473334-10.17668l-15.028353-32.778376c12.377683-4.73334 25.039366-4.887173 37.985049-0.473334z" fill="#3855C8" /><path d="M282.231228 807.566892c14.200019 22.163862 12.96935 45.522893-3.668338 70.053425-10.342347-9.147179-25.879534-13.454518-46.623394-12.89835l-26.151701-3.431671c-24.222865-16.803355-26.199034-35.535547-5.916675-56.208407l29.583372-8.875012c19.477692-4.106172 37.073882-0.3195 52.776736 11.360015z" fill="#269BFE" /><path d="M389.204702 793.24854l32.068375 0.473334c-1.976169 11.987182 0.426001 22.400529 7.218343 31.240041 2.603337 3.490838 3.467171 7.41951 2.248336 10.17668l-12.425016 28.636704c-9.466679 7.253843-20.164026 10.377847-32.068375 9.348346-1.893336-12.223849-7.38401-22.802863-16.448355-31.713375-5.44334-5.33684-5.396007-14.815353 0.118333-22.128362l19.288359-26.033368z" fill="#5169CC" /><path d="M592.856635 795.733543l41.416721 2.958338c31.074374 21.690528 30.920541 43.546724-0.473334 65.556752l-37.985049 0.473334-29.110038-3.431671c-26.270034-20.199526-26.435701-40.079553-0.473334-59.640078l26.625034-5.916675z" fill="#1A96F9" /><path d="M205.787795 861.290296l26.151701 3.431671c3.313338 10.650014 8.993345 19.915526 17.040022 27.80837 3.230504 3.159504 4.674173 7.040843 3.668338 9.82168l-6.981676 19.525025c-1.136001 3.301504-0.1775 6.685842 2.248336 7.928344 7.336676 3.550005 14.827186 5.526174 22.483363 5.916674v2.01167c-19.572359 4.496673-39.286718 4.496673-59.166744 0l-23.903365-29.82004c-1.644835-1.893336-1.349002-5.940341 0.710001-10.058346l17.750024-36.565048zM566.704935 861.290296l29.110038 3.431671c2.840004 10.022846 7.727177 19.205525 14.673352 27.571703a11.005014 11.005014 0 0 1 2.01167 10.058347l-10.295014 35.026712-30.056706 0.355001c-13.182351-8.756678-21.655028-20.471694-25.4417-35.145046-0.804668-3.313338 0.414167-6.969842 3.195004-9.585013a55.782406 55.782406 0 0 0 16.803356-31.713375z" fill="#63B9FC" /><path d="M231.939496 864.721967c20.743861-0.556167 36.281048 3.751172 46.623394 12.89835 25.7967 22.873863 23.07503 42.245055-8.165011 58.101743a58.101743 58.101743 0 0 1-22.483363-5.916674c-2.425837-1.242502-3.384338-4.626839-2.248336-7.928344l6.981676-19.525025c1.005835-2.780837-0.437834-6.662175-3.668338-9.82168a65.746086 65.746086 0 0 1-17.040022-27.80837z" fill="#3CADFE" /><path d="M418.31474 863.775299l11.833349 5.916675c-5.135673-0.863834-8.094011 0.201167-8.875012 3.195004-0.639001 2.354836 1.455502 5.964008 5.206674 8.993345 4.650506 3.786672 7.727177 8.638345 9.230012 14.555019 0.816501 3.029337-0.284 6.875176-2.958337 10.295014-7.656177 9.940013-9.514012 20.270527-5.561674 31.003374l-38.458384-2.958338c-28.565704-20.116693-29.394039-40.67122-2.485003-61.651747a44.682725 44.682725 0 0 0 32.068375-9.348346z" fill="#2844AE" /><path d="M595.814973 864.721967l37.985049-0.473334 20.353361 30.885041c2.283836 3.479005 2.958337 7.27751 1.775002 10.058346a80.028938 80.028938 0 0 1-21.655029 30.53004c-8.520011 3.159504-19.217359 3.703838-32.068375 1.656669l10.295014-35.026712a11.005014 11.005014 0 0 0-2.01167-10.058347 74.727598 74.727598 0 0 1-14.673352-27.571703z" fill="#30A7FB" /><path d="M770.830202 867.20697h43.42839c28.317204 22.72003 28.471037 45.238893 0.473334 67.568422a107.801808 107.801808 0 0 1-65.083418 0c-28.802371-19.406692-29.784539-40.115053-2.958337-62.125081l24.140031-5.443341z" fill="#2844AE" /><path d="M430.148089 869.691974h23.666697c28.944371 21.927195 28.944371 44.611725 0 68.041756h-26.625034c-3.952339-10.732847-2.094503-21.063361 5.561674-31.003374 2.674337-3.419838 3.774838-7.265676 2.958337-10.295014-1.502835-5.916674-4.579506-10.768347-9.230012-14.555019-3.751172-3.029337-5.845674-6.638509-5.206674-8.993345 0.781001-2.993837 3.739338-4.058839 8.875012-3.195004z" fill="#213894" /><path d="M983.830481 911.582029l3.313338 19.880026c0.591667 3.715672 2.567837 6.780509 5.325007 8.283344 21.891695 11.951682 18.696691 59.166744 6.508342 73.721763a12.626183 12.626183 0 0 1-10.058347 4.496673l-58.811743-0.355001c6.780509-25.0867 7.928344-50.5639 3.431671-76.443433 15.028353-6.035008 57.510075-1.420002 50.291732-29.583372z" fill="#FC9743" /><path d="M924.663737 914.540366l8.875012 26.625035c4.496673 25.879534 3.348838 51.356734-3.431671 76.443433l-893.536172 0.473334c-4.070672 0-7.762677-1.502835-10.17668-4.141672-17.63169-19.051692-17.513356-70.053425 10.295014-79.165104 20.35336 5.44334 41.061721 6.425508 62.125081 2.958338h112.416814c19.880026 4.496673 39.594385 4.496673 59.166744 0 39.677219 3.703838 79.11777 2.72167 118.333489-2.958338l38.458384 2.958338h144.958523l30.056706-0.355001c12.851017 2.047169 23.548364 1.502835 32.068375-1.656669 38.493884 5.05284 76.952268 4.73334 115.375152-0.946668a107.801808 107.801808 0 0 0 65.083418 0c36.683381 9.940013 71.710094 7.064509 105.080138-8.638344l4.851673-11.596682z" fill="#FCB982" /></svg>