<?xml version="1.0" standalone="no"?><!DOCTYPE svg PUBLIC "-//W3C//DTD SVG 1.1//EN" "http://www.w3.org/Graphics/SVG/1.1/DTD/svg11.dtd"><svg class="icon" width="200px" height="200.00px" viewBox="0 0 1024 1024" version="1.1" xmlns="http://www.w3.org/2000/svg"><path d="M542.849988 129.639624l-27.106898-3.432751c0-34.883854-6.948362-68.501142-20.833248-100.851863 2.367415-14.441229 8.321462-20.833249 17.87398-19.176058a10.890107 10.890107 0 0 1 8.04921 7.102244l31.960097 85.226926c1.574331 4.273183 1.621679 8.439833 0.118371 11.36359l-10.061512 19.767912z" fill="#FB8628" /><path d="M494.909842 25.35501a253.135807 253.135807 0 0 1 20.833248 100.851863l-20.241395 6.392019-17.282126-0.473483c-10.262742-37.878634-4.699318-73.472712 16.690273-106.770399z" fill="#FC9743" /><path d="M515.74309 126.206873l27.106898 3.432751c8.605552 20.040165 23.401893 32.551951 44.389023 37.523522-9.552518-0.710224-13.577123 1.846583-12.073814 7.694097 1.337589 5.042593 1.775561 8.794945 1.302078 11.245219l-6.51039 31.841727a76.467492 76.467492 0 0 1-22.253698 26.278302 11.742376 11.742376 0 0 0-4.616458 9.114546l-2.722527 65.222273-2.485785-56.936322a6.096093 6.096093 0 0 0-6.036907-5.918536l-53.621941 0.710224-0.473483-8.404322a11.635843 11.635843 0 0 1 4.97157 0.355113c3.124987 0.958803 6.013233 0.828595 7.694098-0.355113 50.982274-34.800995 52.674975-73.271482 5.089941-115.411462l20.241395-6.392019z" fill="#F8C52D" /><path d="M478.219569 132.125409l17.282126 0.473483c47.585034 42.13998 45.892332 80.610467-5.089941 115.411462-1.680864 1.183707-4.56911 1.313915-7.694098 0.355113a11.635843 11.635843 0 0 0-4.97157-0.355113l-27.106898-30.066165-2.840897-43.79717a6.273649 6.273649 0 0 0-6.392019-5.800166l-164.890428-1.183707 165.719023-2.604157c4.888711-0.08286 8.889642-1.361263 10.771736-3.432751l25.212966-29.000829zM172.941455 165.150843l-8.877805 55.279131-11.837073 9.824771c-8.996176-1.65719-19.258918-0.793084-30.77639 2.604156-12.073815-21.15285-15.506566-44.318001-10.298254-69.483619a10.19172 10.19172 0 0 1 6.983874-7.694097c19.803423-5.918537 38.079864-2.769875 54.805648 9.469658zM901.631672 233.687496c-11.517472-3.870723-22.60881-5.018919-33.262176-3.432751l-15.269824-12.310556a131.628252 131.628252 0 0 0 0-53.266829c15.234313-13.896724 32.279698-16.654762 51.136156-8.285951a11.008478 11.008478 0 0 1 6.273648 8.641063c2.923757 23.674146-0.035511 46.555208-8.877804 68.655024z" fill="#FDDD44" /><path d="M172.941455 165.150843l103.574389 2.012303 164.890428 1.183707a6.273649 6.273649 0 0 1 6.392019 5.800166l2.840897 43.79717-286.575538 2.485785 8.877805-55.279131zM853.099672 164.67736a131.628252 131.628252 0 0 1 0 53.266829h-283.142787l6.51039-31.841727c0.473483-2.450274 0.035511-6.202626-1.302078-11.245219-1.503308-5.847514 2.521297-8.404322 12.073814-7.694097l265.860661-2.485786z" fill="#FC9743" /><path d="M450.639188 217.944189l27.106898 30.066165 0.473483 8.404322 2.012302 153.88195-8.16758 12.784039c-2.166184 3.39724-3.31438 7.137755-3.314381 10.771736l1.065337 103.100907c-22.407579 5.516076-45.418849 5.871188-69.010136 1.065336a848.209143 848.209143 0 0 1-180.160252-4.734829l0.118371-31.249873c24.301511-14.914712 27.935492-34.647113 10.890107-59.185365l-79.42676-212.593832 11.837073-9.824771 286.575538-2.485785zM569.956885 217.944189h283.142787l15.269824 12.310556a1377.598561 1377.598561 0 0 0-71.022438 212.120349c-22.099815 15.9327-24.266 32.350721-6.51039 49.242224 3.551122 3.326218 5.669958 6.901014 5.681795 9.588029l0.355112 24.502741-2.959268 2.959268c-6.747132 5.089941-14.796341 9.351288-23.792517 9.351288-72.052264 0-143.855949 3.077639-215.434729 9.232917 4.498088-45.927843 1.45596-90.67198-9.114547-134.232408-6.782643-31.249873-8.522693-62.736487-5.208312-94.459843l2.722527-65.222273a11.742376 11.742376 0 0 1 4.616458-9.114546 76.467492 76.467492 0 0 0 22.253698-26.278302z" fill="#FFFFFF" /><path d="M152.226577 230.254745l79.42676 212.593832-35.037736-3.432751-55.752614-153.763579c-2.367415-6.474879-4.699318-6.474879-6.983873 0l-55.634244 156.722847-32.078468 0.473483 75.283785-209.989676c11.517472-3.39724 21.780214-4.261346 30.77639-2.604156zM868.369496 230.254745c10.653366-1.586168 21.744703-0.437972 33.262176 3.432751l73.271482 208.687598h-26.633415l-8.877804-2.959268-53.503571-156.012623c-1.65719-4.900548-3.39724-4.8532-5.208312 0.118371l-56.69958 155.894252-26.633414 2.959268a1377.598561 1377.598561 0 0 1 71.022438-212.120349z" fill="#918191" /><path d="M540.364202 318.55931c-3.31438 31.723356-1.574331 63.20997 5.208312 94.459843l-44.152282 6.628761-21.188361-9.351288-2.012302-153.88195 53.621941-0.710224c3.243358 0 5.918537 2.604156 6.036907 5.918536l2.485785 56.936322z" fill="#FB8628" /><path d="M196.615601 439.415826l-6.39202 3.432751-111.978711-0.473483 55.634244-156.722847c2.284555-6.474879 4.616458-6.474879 6.983873 0l55.752614 153.763579zM939.391935 439.415826c-38.505999 5.681795-76.976486 5.681795-115.411463 0l56.69958-155.894252c1.811072-4.971571 3.551122-5.018919 5.208312-0.118371l53.503571 156.012623z" fill="#FFFFFF" /><path d="M480.231871 410.296626l21.188361 9.351288 3.077639 153.408466c0.071022 4.782178 1.467797 8.688412 3.669492 10.298254 3.468262 2.604156 7.96635 3.11315 13.494264 1.538819l-5.918537 20.714878a78.692862 78.692862 0 0 1-17.637239-27.698751 20.904271 20.904271 0 0 0-6.628761-9.114546c-11.754214-9.469658-18.974828-20.087513-21.661843-31.841726l-1.065337-103.100907c0-3.633981 1.148196-7.374497 3.314381-10.771736l8.16758-12.784039z" fill="#918191" /><path d="M545.572514 413.019153c10.570506 43.560429 13.612634 88.304565 9.114547 134.232408-14.677971 10.724388-25.686449 23.271686-33.025434 37.641892-5.527913 1.574331-10.026001 1.065337-13.494264-1.538819-2.201696-1.609842-3.59847-5.516076-3.669492-10.298254l-3.077639-153.408466 44.152282-6.628761z" fill="#7A6D79" /><path d="M196.615601 439.415826l35.037736 3.432751c17.045385 24.538252 13.411404 44.270653-10.890107 59.185365l-30.066166-5.445054c7.96635-17.601728 7.812468-35.511219-0.473483-53.740311l6.39202-3.432751z" fill="#F8C52D" /><path d="M823.980472 439.415826c38.434976 5.681795 76.905464 5.681795 115.411463 0l8.877804 2.959268-11.837073 53.266829-111.623599-1.302078c-4.498088-0.071022-8.345136 1.231056-10.416624 3.551122-7.185103 7.729609-9.860282 19.010339-8.049209 33.854028l-0.591854 14.677971c-7.019384-4.900548-9.978653-11.801562-8.877805-20.714878l-0.355112-24.502741c-0.011837-2.687016-2.130673-6.261812-5.681795-9.588029-17.75561-16.891503-15.589425-33.309524 6.51039-49.242224l26.633414-2.959268z" fill="#FDDD44" /><path d="M974.903154 442.375094c21.543473 23.200663 18.584205 43.240828-8.877805 60.132331l-29.592683-6.865502 11.837073-53.266829h26.633415z" fill="#F8C52D" /><path d="M46.166402 442.848577l32.078468-0.473483 111.978711 0.473483c8.285951 18.229092 8.439833 36.138584 0.473483 53.740311l-127.248535 2.959269h-8.877805c-23.046781-15.388195-25.84033-34.292001-8.404322-56.69958z" fill="#FDDD44" /><path d="M936.432666 495.641923l29.592683 6.865502c7.185103 47.028691-9.741911 82.386028-50.781043 106.060174l-34.800995-2.367414c17.992351-17.601728 29.829424-38.198235 35.511219-61.789521a5.160964 5.160964 0 0 0-0.804921-4.225836 4.900548 4.900548 0 0 0-3.693167-2.047813l-105.113208-6.39202c-1.811072-14.84369 0.864106-26.12442 8.049209-33.854028 2.071488-2.320066 5.918537-3.622144 10.416624-3.551122l111.623599 1.302078zM190.697064 496.588888l30.066166 5.445054-0.118371 31.249873-6.747131 30.894761c-10.972967 24.38437-29.557171 38.352117-55.752615 41.903238-6.865502 1.893932-13.375893 1.065337-19.53117-2.485785a4.178487 4.178487 0 0 1-2.083325-3.409077 4.971571 4.971571 0 0 1 1.609842-3.929908c15.624936-14.287347 26.077072-32.196839 31.368244-53.740312a5.362194 5.362194 0 0 0-0.887781-4.415228 4.841363 4.841363 0 0 0-3.847049-1.976792l-92.565911-1.065336c-4.320532-0.08286-8.025536-1.609842-10.061512-4.142976-8.368811-10.262742-7.930839-20.714878 1.302078-31.368243l127.248535-2.959269z" fill="#FB8628" /><path d="M54.570724 499.548157h8.877805c-9.232917 10.653366-9.670889 21.105501-1.302078 31.368243 2.035977 2.533134 5.74098 4.060116 10.061512 4.142976l92.565911 1.065336a4.841363 4.841363 0 0 1 3.847049 1.976792 5.362194 5.362194 0 0 1 0.887781 4.415228c-5.291172 21.543473-15.743307 39.452964-31.368244 53.740312a4.971571 4.971571 0 0 0-1.609842 3.929908c0.094697 1.444123 0.864106 2.722527 2.083325 3.409077 6.155278 3.551122 12.665668 4.379717 19.53117 2.485785v2.012303l-49.834077 0.473482c-41.039132-23.993747-58.948624-60.333561-53.740312-109.019442z" fill="#FC9743" /><path d="M796.873575 525.708088c-1.100848 8.913316 1.85842 15.81433 8.877805 20.714878 5.527913 28.799599 21.626332 49.514477 48.295258 62.144633l2.959268 23.674147-2.959268 47.348292-0.355112 183.711373a7.410008 7.410008 0 0 1-2.544971 5.563425 8.641063 8.641063 0 0 1-6.096093 2.130673l-62.026262-2.012302-0.473483-2.485786c8.913316-22.490439 6.427531-42.814693-7.457356-60.960926 20.596507-5.681795 21.934096-15.115942 4.024605-28.290605 8.439833-9.7064 10.416624-20.560996 5.918536-32.55195 9.150057-11.36359 8.16758-21.235709-2.959268-29.592683 5.445054-9.872119 5.445054-19.732401 0-29.592683 11.126849-9.079035 12.109326-18.939317 2.959268-29.592682 3.941745-11.209708 3.11315-22.218186-2.485785-33.025434 13.174662-12.949758 11.754214-22.253697-4.261347-27.935493 9.860282-20.525485 15.068594-42.613463 15.624937-66.287609l2.959268-2.959268z" fill="#E1DDE1" /><path d="M400.805111 538.018644c-2.450274 13.091803 2.485785 21.815726 14.796341 26.159932 16.962526 5.835677 25.84033 20.632018 26.633415 44.389023 3.160499 87.037998 2.213533 174.075996-2.840898 261.125832l-38.588858-0.236742a1717.760529 1717.760529 0 0 0-233.30871 5.445054v-198.270973c2.130673-4.734829 3.160499-9.670889 3.077639-14.796342-0.059185-3.752352 1.65719-7.125918 4.498088-8.877805 31.877238-19.732401 44.826996-49.325083 38.8256-88.778047l6.747131-30.894761c59.658848 7.96635 119.70832 9.540681 180.160252 4.734829z m14.322858 69.164018a13.139151 13.139151 0 0 0-13.115477-13.162825l-156.249364-0.272253a13.139151 13.139151 0 0 0-13.162825 13.115477v4.024605a13.139151 13.139151 0 0 0 13.115477 13.162825l156.249364 0.272253a13.139151 13.139151 0 0 0 13.162825-13.115477v-4.024605z m0.236742 62.547094a14.914712 14.914712 0 0 0-14.855527-14.96206l-155.53914-0.544506a14.914712 14.914712 0 0 0-14.973897 14.855527v0.946966a14.914712 14.914712 0 0 0 14.867364 14.973897l155.539139 0.544506a14.914712 14.914712 0 0 0 14.962061-14.867364v-0.946966z m0.710224 59.694359a14.322858 14.322858 0 0 0-14.322858-14.322858h-158.143296a14.322858 14.322858 0 0 0-14.322858 14.322858v0.946966c0 7.907165 6.415694 14.322858 14.322858 14.322859h158.143296a14.322858 14.322858 0 0 0 14.322858-14.322859v-0.946966z m-1.065336 62.026263a15.033083 15.033083 0 0 0-14.950224-15.104105l-154.592174-0.816758a15.033083 15.033083 0 0 0-15.115942 14.96206v1.183707a15.033083 15.033083 0 0 0 14.950223 15.104106l154.592174 0.816758a15.033083 15.033083 0 0 0 15.115943-14.962061v-1.183707zM793.914307 528.667356c-0.556342 23.674146-5.764655 45.762124-15.624937 66.287609a4164.601899 4164.601899 0 0 0-153.053354-1.183707c-14.441229 0.118371-26.041561 7.930839-18.347463 23.555776 1.598005 3.184173 5.078104 5.196475 8.996175 5.208312l166.665989 0.355112c5.598936 10.807248 6.427531 21.815726 2.485785 33.025434l-165.482281-0.828595c-3.906234 0-7.575727 1.586168-10.061512 4.379717-35.984702 40.837902 159.208632 26.041561 172.584525 26.04156 5.445054 9.860282 5.445054 19.720564 0 29.592683l-159.445374-0.236742c-4.202161-0.08286-8.001861 1.006151-10.771737 3.077639-10.890107 7.96635-10.890107 15.9327 0 23.910888 2.769875 1.988628 6.605087 3.077639 10.890108 3.077639l162.286271-0.236741c4.498088 11.990955 2.521297 22.845551-5.918536 32.55195-46.318467 0.710224-92.483052 0-138.493755-2.130673-14.914712-0.591854-52.911717 2.367415-28.408975 27.817122 2.568645 2.722527 6.273649 4.213998 10.179882 4.142975l152.698243-1.538819c13.884887 18.146233 16.370672 38.470487 7.457356 60.960926-113.991013 0.473483-228.218768-14.086117-260.88909 52.793346-2.367415 0.473483-4.462577 0.390623-6.273649-0.236741-2.556808-0.994314-4.344206-4.628296-4.498088-9.114547-3.231521-101.562087-1.621679-203.005803 4.8532-304.331148l5.918537-20.714878c7.338985-14.370207 18.347463-26.917504 33.025434-37.641892 71.578781-6.155278 143.382466-9.232917 215.434729-9.232917 8.996176 0 17.045385-4.261346 23.792517-9.351288z" fill="#F1EFF2" /><path d="M806.343234 531.744995l105.113208 6.39202a4.900548 4.900548 0 0 1 3.693167 2.047813 5.160964 5.160964 0 0 1 0.804921 4.225836c-5.681795 23.591287-17.518868 44.187794-35.511219 61.789521-6.545901 2.675179-15.352684 3.468262-26.396673 2.367414-26.668926-12.630157-42.767345-33.345035-48.295258-62.144633l0.591854-14.677971z" fill="#FC9743" /><path d="M469.815247 536.953308c2.687016 11.754214 9.90763 22.372068 21.661843 31.841726 3.018454 2.391089 5.314846 5.551587 6.628761 9.114546 3.941745 10.487647 9.824771 19.720564 17.637239 27.698751-6.474879 101.325345-8.084721 202.769061-4.8532 304.331148 0.153882 4.486251 1.94128 8.120232 4.498088 9.114547 1.811072 0.627365 3.906234 0.710224 6.273649 0.236741-0.390623 8.439833-4.178487 13.529774-11.36359 15.269824-15.778818-34.256489-39.417453-55.870985-70.904068-64.86716 5.05443-87.049835 6.001396-174.087833 2.840898-261.125832-0.793084-23.757006-9.670889-38.553347-26.633415-44.389023-12.310556-4.344206-17.246615-13.068129-14.796341-26.159932 23.591287 4.805852 46.602557 4.450739 69.010136-1.065336zM213.897728 564.178576c6.001396 39.452964-6.948362 69.045647-38.8256 88.778047-2.840898 1.751887-4.557273 5.125453-4.498088 8.877805 0.08286 5.125453-0.946966 10.061512-3.077639 14.796342v-36.576556c2.367415-15.151454-0.745736-25.804819-9.351288-31.960097v-2.012303c26.195443-3.551122 44.779647-17.518868 55.752615-41.903238z" fill="#E1DDE1" /><path d="M778.28937 594.954965c16.01556 5.681795 17.436009 14.985734 4.261347 27.935493l-166.665989-0.355112c-3.918071-0.011837-7.398171-2.024139-8.996175-5.208312-7.694097-15.624936 3.906234-23.437405 18.347463-23.555776 49.798566-0.556342 100.816351-0.165719 153.053354 1.183707z" fill="#CBC5CB" /><path d="M108.311036 608.567599l49.834077-0.473482c8.605552 6.155278 11.718702 16.808644 9.351288 31.960097-13.494263 17.589891-33.226664 22.881062-59.185365 15.861678v-47.348293z" fill="#30A7FB" /><path d="M854.046638 608.567599c11.043989 1.100848 19.850771 0.307764 26.396673-2.367414l34.800995 2.367414v29.592683c-8.759434 24.029258-56.817951 30.302907-58.2384-5.918536l-2.959268-23.674147z" fill="#1A96F9" /><path d="M857.005906 632.241746c1.420449 36.221444 49.478965 29.947795 58.2384 5.918536 0.556342 114.180407 0.710224 228.408162 0.473482 342.683265 0 28.764088-11.718702 42.13998-41.429755 35.62959l-17.992351-3.906234c-2.722527-0.580017-4.734829-3.669493-4.8532-7.457356l-1.302078-56.226097a1695.187231 1695.187231 0 0 0 3.906234-269.293412l2.959268-47.348292z" fill="#30A7FB" /><path d="M167.496401 640.054214v234.847529l-0.236741 62.263004c0 11.280731 9.611703 20.466299 21.543473 20.596507l229.757588 2.485786h97.655852l259.113529 0.828595c25.568078 3.787863 50.508791-0.28409 74.810302-12.192185l1.302078 56.226097c0.118371 3.787863 2.130673 6.877339 4.8532 7.457356l17.992351 3.906234-740.882402 0.11837c-16.962526 0-25.414196-8.45167-25.331336-25.331336l0.236741-335.344279c25.958701 7.019384 45.691102 1.728213 59.185365-15.861678z" fill="#63B9FC" /><path d="M785.036502 655.915892c9.150057 10.653366 8.16758 20.513648-2.959268 29.592682-13.375893 0-208.569227 14.796341-172.584525-26.04156 2.485785-2.793549 6.155278-4.379717 10.061512-4.379717l165.482281 0.828595z" fill="#CBC5CB" /><path d="M854.046638 679.590038a1695.187231 1695.187231 0 0 1-3.906234 269.293412c-24.301511 11.908095-49.242224 15.980049-74.810302 12.192185 12.073815-29.355941 14.642459-60.061309 7.694098-92.092428l62.026262 2.012302a8.641063 8.641063 0 0 0 6.096093-2.130673 7.410008 7.410008 0 0 0 2.544971-5.563425l0.355112-183.711373z" fill="#B6ADB6" /><path d="M782.077234 715.101257c11.126849 8.356974 12.109326 18.229092 2.959268 29.592683l-162.286271 0.236741c-4.28502 0-8.120232-1.089011-10.890108-3.077639-10.890107-7.978187-10.890107-15.944537 0-23.910888 2.769875-2.071488 6.569576-3.160499 10.771737-3.077639l159.445374 0.236742zM779.117966 777.24589c17.909492 13.174662 16.571902 22.60881-4.024605 28.290605l-152.698243 1.538819c-3.906234 0.071022-7.611238-1.420449-10.179882-4.142975-24.502741-25.449707 13.494263-28.408975 28.408975-27.817122 46.010703 2.130673 92.175288 2.840898 138.493755 2.130673zM400.805111 869.456689c2.130673 14.914712 10.061512 26.159931 23.792517 33.735659 3.006617 1.680864 5.563424 4.545436 7.338985 8.16758l19.176058 39.299083c0.556342 1.148196 0.56818 2.485785 0.035512 3.610307a3.645818 3.645818 0 0 1-2.758038 2.071488l-29.829424 3.906234-229.757588-2.485786c-11.93177-0.130208-21.543473-9.315776-21.543473-20.596507l0.236741-62.263004c77.56834-7.102244 155.33791-8.925153 233.30871-5.445054zM782.550717 866.497421l0.473483 2.485786c6.948362 32.03112 4.379717 62.736487-7.694098 92.092428l-259.113529-0.828595c-6.628761-7.102244-8.605552-15.672285-5.918536-25.686449 7.185103-1.74005 10.972967-6.829991 11.36359-15.269824 32.670322-66.879463 146.898077-52.319863 260.88909-52.793346z" fill="#CBC5CB" /><path d="M400.805111 869.456689l38.588858 0.236742c31.486614 8.996176 55.125249 30.610671 70.904068 64.86716-2.687016 10.014164-0.710224 18.584205 5.918536 25.686449h-97.655852l29.829424-3.906234c1.195544-0.177556 2.213533-0.946966 2.758038-2.071488a4.178487 4.178487 0 0 0-0.035512-3.610307l-19.176058-39.299083a18.596042 18.596042 0 0 0-7.338985-8.16758c-13.731005-7.575727-21.661844-18.820946-23.792517-33.735659z" fill="#B6ADB6" /><path d="M232.626886 593.730367m13.139131 0.022932l156.249127 0.272706q13.139131 0.022932 13.116198 13.162063l-0.007024 4.024599q-0.022932 13.139131-13.162063 13.116199l-156.249126-0.272706q-13.139131-0.022932-13.116199-13.162064l0.007024-4.024598q0.022932-13.139131 13.162063-13.116199Z" fill="#CBC5CB" /><path d="M230.050426 654.172008m14.914622 0.052062l155.538192 0.542933q14.914621 0.052062 14.862559 14.966683l-0.003306 0.94696q-0.052062 14.914621-14.966683 14.86256l-155.538192-0.542933q-14.914621-0.052062-14.862559-14.966684l0.003305-0.94696q0.052062-14.914621 14.966684-14.862559Z" fill="#CBC5CB" /><path d="M229.285923 715.101257m14.322858 0l158.143296 0q14.322858 0 14.322858 14.322858l0 0.946966q0 14.322858-14.322858 14.322859l-158.143296 0q-14.322858 0-14.322858-14.322859l0-0.946966q0-14.322858 14.322858-14.322858Z" fill="#CBC5CB" /><path d="M230.434336 775.460594m15.032877 0.078713l154.590055 0.809439q15.032877 0.078713 14.954164 15.111589l-0.006198 1.183692q-0.078713 15.032877-15.111589 14.954164l-154.590055-0.809439q-15.032877-0.078713-14.954164-15.11159l0.006198-1.183691q0.078713-15.032877 15.111589-14.954164Z" fill="#CBC5CB" /></svg>