<?xml version="1.0" standalone="no"?><!DOCTYPE svg PUBLIC "-//W3C//DTD SVG 1.1//EN" "http://www.w3.org/Graphics/SVG/1.1/DTD/svg11.dtd"><svg class="icon" width="200px" height="191.22px" viewBox="0 0 1071 1024" version="1.1" xmlns="http://www.w3.org/2000/svg"><path d="M912.92697 690.210537l-30.626778 3.610474a441.262145 441.262145 0 0 1-19.546358-133.58753c0-4.656266-1.618488-5.52776-4.855464-2.614481l-56.52259 51.169129-9.337432-3.112478-15.562387-23.903826 44.07268-34.735248c97.607291-92.876326 88.518857-246.881707 24.152825-354.448926C772.330141 71.57453 665.472567 23.169282 524.116294 47.421706c-218.99391 93.996817-167.700282 372.003298-11.702915 499.614871-6.8848 10.283625-16.384081 16.346731-28.510293 18.176868l-68.474503-71.58698c-78.932427-117.527146-101.591262-287.717411-7.843443-402.630076 70.21749-86.153374 199.69655-105.699732 298.299834-62.498546 141.555472 62.00055 225.592362 210.154474 216.379428 365.155848-0.659845 11.117769-6.797651 42.279893-18.425866 93.498821-15.263589 67.304211-12.238261 134.99437 9.088434 203.058025z" fill="#5169CC" /><path d="M820.548641 547.036577l20.293353-67.603009c4.569117-20.417852-0.448197-38.345722-15.064391-53.783609 22.907834-27.974947 17.89052-40.586705-15.064391-37.847725-4.14582 0.298798-7.955492-1.36949-9.959927-4.357469-11.366767-16.857178-5.801658-27.5143 16.682879-31.996267 3.025328-0.560246 6.9346 0.473097 10.831421 2.863479 4.481967 2.73898 9.088434 3.361476 13.8194 1.867486 2.489982-0.809244 5.079563-4.058671 6.84745-8.590437l12.32541-31.498272c1.693188-4.332569 1.742987-8.465939 0.124499-10.831421-5.639809-8.30409-13.607751-10.208926-23.903826-5.726958-3.884372 1.668288-7.967942 1.36949-10.457924-0.746995-6.299654-5.228962-9.337432-12.200911-9.088434-20.915848 0.087149-3.373925 2.72653-6.511303 6.598452-7.843443a33.726805 33.726805 0 0 0 16.807378-12.574409c2.153834-3.075128 2.353033-7.283197 0.497996-10.95592-8.29164-16.931877-19.372059-18.513016-33.241258-4.730966-2.564681 2.564681-6.473953 2.987978-9.212933 0.995993-18.500566-13.78205-17.753571-25.696613 2.240983-35.731241 3.971521-1.991986 6.82255-5.067113 7.843443-8.465938 3.822122-13.035055-1.282341-20.343152-15.313388-21.911841-3.386375-0.410847-7.245847 0.995993-10.582424 3.859472-14.690893 12.773607-24.650821 9.287633-29.879783-10.457924-0.933743-3.485975-0.074699-7.507295 2.365483-10.95592 15.774035-22.335138 10.383225-32.369765-16.184882-30.128782a17.006576 17.006576 0 0 1-11.204919-3.112477c-20.330702-13.943899-28.92114-8.714937-25.771313 15.686886 0.473097 4.18317-0.709645 8.154691-3.236976 10.831421-15.014591 16.097733-26.21951 13.7696-33.614756-6.971949-1.244991-3.436175-0.535346-7.494846 1.867486-10.831421 16.359181-23.40583 8.30409-33.577406-24.152824-30.502279a6.84745 6.84745 0 0 1-7.345447-5.47796c-4.892814-20.66685-17.056376-29.805084-36.478235-27.389801-22.07369-12.288061-47.347006-20.218653-75.819949-23.779327 141.356273-24.239974 248.213847 24.152825 320.585172 145.165945 64.366033 107.567219 73.454467 261.5726-24.152825 354.448926z" fill="#A8D3D8" /><path d="M524.116294 47.421706c28.472943 3.560674 53.74626 11.491267 75.819949 23.779327-2.81368 17.84072 1.170292 32.743262 11.951913 44.695175 2.664281 2.963078 3.137377 7.034199 1.120492 9.71093-5.639809 7.718944-13.022605 12.076412-22.160839 13.072405-3.535774 0.311248-7.121348-1.904836-9.088434-5.602459l-23.779327-43.948181a19.396959 19.396959 0 0 0-8.590438-8.34144c-53.036615-24.526322 3.983971 62.747544 6.473953 66.607017 3.025328 4.594017 2.041785 10.706922-2.240984 14.068397-17.504573 14.018598-28.510293 15.10174-32.99226 3.236977-6.971949-18.550365-14.317396-30.377779-23.032333-46.438163-2.041785-3.685173-5.415711-6.137805-9.088434-6.598452-41.582698-5.228962 4.357468 57.269584 10.208926 66.856015 2.166284 3.610474 2.402833 7.843443 0.622496 11.080419-6.224955 11.702915-16.384081 15.686886-30.502279 11.951913-3.983971-9.337432-26.518307-59.759566-40.213208-24.526322-1.33214 3.398825-0.971093 7.656694 0.995993 11.702915l16.931877 34.112753c-25.310666 24.974519-21.202196 36.054938 12.32541 33.241258 4.046221-0.398397 7.880793 1.045792 10.208926 3.859472 12.947906 15.848735 8.553088 27.091003-13.196904 33.739255-3.386375 1.033342-7.258297-0.236548-9.835428-3.236976-8.540638-10.047077-16.55838-11.453917-24.028326-4.23297-2.340583 2.265884-3.461075 6.299654-2.987978 10.831422 1.244991 12.275611-1.904836 22.783335-9.461931 31.498271-8.789636 10.283625-6.473953 15.686886 6.971949 16.184883 40.512006 1.568689 48.019301 13.196904 22.534336 34.859746-3.311676 2.81368-5.54021 6.274754-6.349454 9.835429-5.639809 23.231531 3.697623 27.713499 28.012297 13.445902a10.756722 10.756722 0 0 1 10.831421-0.373497c45.317671 26.393808-47.807653 52.538618 3.734973 63.992535 3.510875 0.784344 7.594445-0.074699 11.329418-2.365483 19.758007-11.877214 29.630785-9.013735 29.630785 8.590438 0 16.060383-29.506286 51.293627 17.180875 41.956195 4.432168-0.871494 8.515738 0.435747 10.084427 3.236977l8.839435 16.184882-39.964209 12.947906c-155.997367-127.611573-207.290995-405.618054 11.702915-499.614871z" fill="#CBE5E6" /><path d="M825.777603 425.649959l-27.5143 12.947906-28.012297 15.562387c-12.026613 0.497996-20.492551 6.548652-25.397815 18.176868-10.121776 0.659845-19.24756 4.481967-27.389801 11.453917a6.92215 6.92215 0 0 0-0.746995 9.212933c13.78205 19.172861 21.99899 40.163408 24.650821 62.996542l-42.70319-18.799363c-7.220948-40.922853-22.783335-44.03533-46.687161-9.337432l-9.337432 0.995992-27.5143-3.610474a70.815086 70.815086 0 0 0-14.815393-38.968217 10.208926 10.208926 0 0 0-10.084426-3.859471c-8.465939 1.655838-15.064391 5.726958-19.795357 12.200911-1.991986 2.651831-1.680738 6.760301 0.746995 10.084427 5.228962 6.971949 7.270747 14.690893 6.100456 23.156832l-24.89982 6.224954-8.839435-16.184882c-1.568689-2.80123-5.652259-4.10847-10.084427-3.236977-46.687161 9.337432-17.180875-25.895812-17.180875-41.956195 0-17.604172-9.872778-20.467651-29.630785-8.590438-3.734973 2.290783-7.818543 3.149827-11.329418 2.365483-51.542626-11.453917 41.582698-37.598727-3.734973-63.992535a10.756722 10.756722 0 0 0-10.831421 0.373497c-24.314673 14.267596-33.652106 9.785629-28.012297-13.445902 0.809244-3.560674 3.037778-7.021749 6.349454-9.835429 25.484965-21.662843 17.977669-33.291058-22.534336-34.859746-13.445902-0.497996-15.761586-5.901257-6.971949-16.184883 7.557095-8.714937 10.706922-19.22266 9.461931-31.498271-0.473097-4.531767 0.647395-8.565538 2.987978-10.831422 7.469946-7.220948 15.487688-5.814108 24.028326 4.23297 2.577131 3.000428 6.449053 4.270319 9.835428 3.236976 21.749992-6.648252 26.14481-17.89052 13.196904-33.739255-2.328133-2.81368-6.162705-4.257869-10.208926-3.859472-33.527607 2.81368-37.636077-8.26674-12.32541-33.241258 11.453917-3.075128 18.886513-10.171576 22.285338-21.289346 14.118197 3.734973 24.277324-0.248998 30.502279-11.951913 1.780337-3.236976 1.543789-7.469946-0.622496-11.080419-5.851458-9.58643-51.791624-72.084976-10.208926-66.856015 3.672723 0.460647 7.046649 2.913279 9.088434 6.598452 8.714937 16.060383 16.060383 27.887797 23.032333 46.438163 4.481967 11.864764 15.487688 10.781622 32.99226-3.236977a10.520174 10.520174 0 0 0 2.240984-14.068397c-2.489982-3.859472-59.510568-91.133338-6.473953-66.607017 3.560674 1.693188 6.573552 4.606467 8.590438 8.34144l23.779327 43.948181c1.967086 3.697623 5.55266 5.913707 9.088434 5.602459 9.138234-0.995993 16.52103-5.353461 22.160839-13.072405 2.016885-2.676731 1.543789-6.747851-1.120492-9.71093-10.781622-11.951913-14.765593-26.854455-11.951913-44.695175 19.421859-2.415282 31.585421 6.722951 36.478235 27.389801 0.746995 3.485975 3.934171 5.851458 7.345447 5.47796 32.456914-3.075128 40.512006 7.096448 24.152824 30.502279-2.402833 3.336576-3.112477 7.395246-1.867486 10.831421 7.395246 20.741549 18.600165 23.069682 33.614756 6.971949 2.527332-2.676731 3.710073-6.648252 3.236976-10.831421-3.149827-24.401823 5.44061-29.630785 25.771313-15.686886 3.299226 2.328133 7.270747 3.423725 11.204919 3.112477 26.568107-2.240984 31.958918 7.793643 16.184882 30.128782-2.440182 3.448625-3.299226 7.469946-2.365483 10.95592 5.228962 19.745557 15.18889 23.231531 29.879783 10.457924 3.336576-2.863479 7.196048-4.270319 10.582424-3.859472 14.031048 1.568689 19.135511 8.876786 15.313388 21.911841-1.020893 3.398825-3.871922 6.473953-7.843443 8.465938-19.994555 10.034627-20.741549 21.949191-2.240983 35.731241 2.73898 1.991986 6.648252 1.568689 9.212933-0.995993 13.869199-13.78205 24.949619-12.200911 33.241258 4.730966 1.855037 3.672723 1.655838 7.880793-0.497996 10.95592-4.14582 5.888807-9.748279 10.084427-16.807378 12.574409-3.871922 1.33214-6.511303 4.469518-6.598452 7.843443-0.248998 8.714937 2.78878 15.686886 9.088434 20.915848 2.489982 2.116485 6.573552 2.415282 10.457924 0.746995 10.296075-4.481967 18.264017-2.577131 23.903826 5.726958 1.618488 2.365483 1.568689 6.498853-0.124499 10.831421l-12.32541 31.498272c-1.767887 4.531767-4.357468 7.781193-6.84745 8.590437-4.730966 1.493989-9.337432 0.871494-13.8194-1.867486-3.896822-2.390383-7.806093-3.423725-10.831421-2.863479-22.484537 4.481967-28.049646 15.13909-16.682879 31.996267 2.004435 2.987978 5.814108 4.656266 9.959927 4.357469 32.954911-2.73898 37.972224 9.872778 15.064391 37.847725zM638.020517 159.968888a9.088434 9.088434 0 0 0-12.624209-2.427732l-14.840292 10.047077a9.088434 9.088434 0 0 0-2.427732 12.624208l8.515738 12.574409a9.088434 9.088434 0 0 0 12.611758 2.440182l14.852742-10.059527a9.088434 9.088434 0 0 0 2.427733-12.611758l-8.515738-12.574409z m89.054203 24.115475a9.959928 9.959928 0 0 0-13.83185-2.639381l-13.383653 9.088434a9.959928 9.959928 0 0 0-2.63938 13.8443l8.391239 12.36276a9.959928 9.959928 0 0 0 13.844299 2.639381l13.383653-9.100884a9.959928 9.959928 0 0 0 2.639381-13.83185l-8.403689-12.36276z m-144.169953 9.113334a10.582423 10.582423 0 0 0-14.441895-3.921722l-12.748708 7.308097a10.582423 10.582423 0 0 0-3.934171 14.441895l7.183598 12.52461a10.582423 10.582423 0 0 0 14.441895 3.921721l12.748707-7.295647a10.582423 10.582423 0 0 0 3.921722-14.441895l-7.171148-12.537059z m91.506835 24.999418a9.212933 9.212933 0 0 0-12.076412-4.880364l-17.193325 7.295647a9.212933 9.212933 0 0 0-4.880365 12.076412l6.224955 14.678444a9.212933 9.212933 0 0 0 12.076412 4.880364l17.180876-7.295647a9.212933 9.212933 0 0 0 4.892814-12.076412l-6.224955-14.678444z m-146.622585 9.536631a12.574409 12.574409 0 0 0-17.180875-4.631366l-10.781622 6.200055a12.574409 12.574409 0 0 0-4.631366 17.180875l5.341011 9.275183a12.574409 12.574409 0 0 0 17.168425 4.631366l10.794072-6.212505a12.574409 12.574409 0 0 0 4.631366-17.168425l-5.353461-9.275183z m235.141442 17.741121a12.698908 12.698908 0 0 0-16.707778-6.586002l-8.914136 3.871922a12.698908 12.698908 0 0 0-6.573552 16.707779l3.772323 8.677587a12.698908 12.698908 0 0 0 16.707778 6.586002l8.901686-3.871922a12.698908 12.698908 0 0 0 6.586002-16.707779l-3.772323-8.677587z m-147.805326 4.755866a10.333425 10.333425 0 0 0-14.192897-3.535775l-13.221804 7.955493a10.333425 10.333425 0 0 0-3.535774 14.180447l7.059098 11.740264a10.333425 10.333425 0 0 0 14.180447 3.535775l13.221804-7.955492a10.333425 10.333425 0 0 0 3.535775-14.180448l-7.046649-11.740264z m86.327673 21.289345a9.088434 9.088434 0 0 0-12.798507-1.108042l-13.719801 11.553516a9.088434 9.088434 0 0 0-1.095592 12.798507l10.582424 12.574409a9.088434 9.088434 0 0 0 12.810956 1.095592l13.707351-11.541066a9.088434 9.088434 0 0 0 1.108042-12.810957l-10.582423-12.574409z m-142.327367 11.727815a12.200911 12.200911 0 0 0-16.844727-3.734973l-10.495274 6.685602a12.200911 12.200911 0 0 0-3.734973 16.844727l5.876357 9.250283a12.200911 12.200911 0 0 0 16.857178 3.734973l10.495274-6.698051a12.200911 12.200911 0 0 0 3.734973-16.844728l-5.888808-9.237833z m235.104093 16.334281a11.204919 11.204919 0 0 0-15.325839-4.02132l-10.96837 6.411703a11.204919 11.204919 0 0 0-4.021321 15.325839l5.278762 9.026184a11.204919 11.204919 0 0 0 15.313389 4.021321l10.98082-6.399254a11.204919 11.204919 0 0 0 4.021321-15.325838l-5.278762-9.038635z m-145.875591 6.685602a8.341439 8.341439 0 0 0-11.130219-3.946622l-17.977669 8.590438a8.341439 8.341439 0 0 0-3.934172 11.105319l7.183598 15.064391a8.341439 8.341439 0 0 0 11.11777 3.934171l17.977669-8.577987a8.341439 8.341439 0 0 0 3.934171-11.11777l-7.171148-15.06439z m-154.490928 41.171851c17.019026-4.307669 20.380502-14.192897 10.084427-29.630785a9.959928 9.959928 0 0 0-9.835428-4.10847c-30.203481 4.730966-34.062953 15.18889-11.578416 31.373772 3.398825 2.452632 7.544645 3.311676 11.329417 2.365483z m244.366826-15.288489a9.710929 9.710929 0 0 0-12.761158-5.079563l-14.404545 6.200055a9.710929 9.710929 0 0 0-5.079563 12.761157l5.913707 13.7198a9.710929 9.710929 0 0 0 12.748707 5.079563l14.416996-6.200054a9.710929 9.710929 0 0 0 5.079563-12.761158l-5.913707-13.7198z m-147.469179 7.594445a9.835429 9.835429 0 0 0-13.483252-3.386376l-13.894099 8.30409a9.835429 9.835429 0 0 0-3.386376 13.495702l7.283197 12.176012a9.835429 9.835429 0 0 0 13.495702 3.386375l13.881649-8.30409a9.835429 9.835429 0 0 0 3.398826-13.495702l-7.295647-12.176011z m96.200451 39.316814a18.301367 18.301367 0 1 0-36.602734 0 18.301367 18.301367 0 0 0 36.602734 0z m-150.693706-5.328561a12.076412 12.076412 0 0 0-16.49613-4.444618l-9.922578 5.702059a12.076412 12.076412 0 0 0-4.457067 16.49613l5.092013 8.839436a12.076412 12.076412 0 0 0 16.48368 4.457067l9.935028-5.714508a12.076412 12.076412 0 0 0 4.444618-16.48368l-5.079564-8.839436z m236.274385 17.056376a12.076412 12.076412 0 0 0-16.097734-5.714509l-10.794071 5.154263a12.076412 12.076412 0 0 0-5.689609 16.097733l3.859472 8.092441a12.076412 12.076412 0 0 0 16.097733 5.689609l10.781622-5.141813a12.076412 12.076412 0 0 0 5.702059-16.097733l-3.859472-8.092441z m-146.622586 7.395246a12.44991 12.44991 0 0 0-17.043926-4.407268l-11.155119 6.573553a12.44991 12.44991 0 0 0-4.407268 17.043926l4.295219 7.295647a12.44991 12.44991 0 0 0 17.056376 4.407268l11.142669-6.573552a12.44991 12.44991 0 0 0 4.407268-17.056377l-4.295219-7.283197z m87.896362 22.907834a11.827414 11.827414 0 0 0-16.085283-4.569117l-10.644673 5.951057a11.827414 11.827414 0 0 0-4.556667 16.097733l5.465511 9.785629a11.827414 11.827414 0 0 0 16.097733 4.544217l10.644672-5.951057a11.827414 11.827414 0 0 0 4.556667-16.085283l-5.47796-9.785629z m-146.00009 10.345875a11.702915 11.702915 0 0 0-15.910984-4.569117l-10.233826 5.677159a11.702915 11.702915 0 0 0-4.569117 15.910984l4.830565 8.714937a11.702915 11.702915 0 0 0 15.910985 4.556667l10.233825-5.677159a11.702915 11.702915 0 0 0 4.556667-15.898535l-4.818115-8.714936z m90.92169 23.816677a12.44991 12.44991 0 0 0-16.807378-5.291212l-8.826986 4.606467a12.44991 12.44991 0 0 0-5.291211 16.782478l4.718515 9.051084a12.44991 12.44991 0 0 0 16.794928 5.303662l8.839436-4.606467a12.44991 12.44991 0 0 0 5.278762-16.782478l-4.706066-9.063534z" fill="#22B69F" /><path d="M468.838695 201.551586c-3.398825 11.117769-10.831421 18.214218-22.285338 21.289346l-16.931877-34.112753c-1.967086-4.046221-2.328133-8.30409-0.995993-11.702915 13.694901-35.233244 36.229237 15.18889 40.213208 24.526322zM825.777603 425.649959c14.616194 15.437888 19.633507 33.365758 15.064391 53.783609-22.820684-5.067113-37.013581-18.674864-42.578691-40.835703l27.5143-12.947906z" fill="#28D1B3" /><path d="M798.263303 438.597865c5.56511 22.160839 19.758007 35.76859 42.578691 40.835703l-20.293353 67.603009-44.07268 34.735248-35.108745-25.771313c-2.651831-22.833134-10.868771-43.823682-24.650821-62.996542a6.92215 6.92215 0 0 1 0.746995-9.212933c8.142241-6.971949 17.268025-10.794072 27.389801-11.453917 8.963935 19.919855 37.349729 84.534886 54.281605 47.185157 1.493989-3.299226 1.220091-7.432596-0.746994-11.204919l-28.136796-54.157106 28.012297-15.562387z" fill="#CBE5E6" /><path d="M770.251006 454.160252l28.136796 54.157106c1.967086 3.772323 2.240984 7.905693 0.746994 11.204919-16.931877 37.349729-45.317671-27.265302-54.281605-47.185157 4.905264-11.628216 13.371203-17.678872 25.397815-18.176868z" fill="#28D1B3" /><path d="M615.125133 525.249235l-19.670857 3.112478-18.176868-0.497996c1.170292-8.465939-0.871494-16.184882-6.100456-23.156832-2.427732-3.324126-2.73898-7.432596-0.746995-10.084427 4.730966-6.473953 11.329418-10.545073 19.795357-12.200911a10.208926 10.208926 0 0 1 10.084426 3.859471 70.815086 70.815086 0 0 1 14.815393 38.968217z" fill="#CBE5E6" /><path d="M415.428583 493.626465l68.474503 71.58698-27.5143 22.285338c-30.128781-32.618763-63.494539-61.502553-100.097273-86.65137a127.113577 127.113577 0 0 1 59.13707-7.220948z" fill="#FCA863" /><path d="M356.291513 500.847413c36.602734 25.148817 69.968492 54.032608 100.097273 86.65137l-47.185158 53.410113a1245.663254 1245.663254 0 0 0-140.808477-122.880608c27.389801-14.118197 56.696888-19.845156 87.896362-17.180875z" fill="#F1EFF2" /><path d="M698.664026 537.201149l-46.687161-9.337432c23.903826-34.697898 39.466213-31.585421 46.687161 9.337432z" fill="#C0E4E2" /><path d="M268.395151 518.028288a1245.663254 1245.663254 0 0 1 140.808477 122.880608l-6.224955 20.791349-12.449909 31.124774c-14.267596 19.496558-19.29736 41.458199-15.064391 65.860021-2.651831 14.516595-0.572696 28.012297 6.224955 40.462206a89.141353 89.141353 0 0 0 2.116485 40.462207 557.220603 557.220603 0 0 1-149.647914 95.739804c-4.730966 1.991986-9.835429 6.386804-15.313388 13.196904l-16.309382-8.963935c-68.474503-54.704903-124.785444-118.896637-168.945273-192.600101 46.151815-111.140343 124.424396-187.458289 234.805295-228.953837z m62.996542 191.35511c25.148817-33.863754 16.857178-42.167844-24.899819-24.899819-17.753571-20.505001-31.69747-20.915848-41.831696-1.244991a8.789636 8.789636 0 0 0 1.867486 10.084427c13.445902 13.072405 60.382061 73.329967 79.803921 57.518582 2.900829-2.365483 4.15827-6.411703 3.236976-10.457924a60.095714 60.095714 0 0 0-18.176868-31.000275z m-70.964484 62.374047c10.706922 17.429873 67.852007 41.582698 43.823681 0.124499-15.686886-27.227952-37.723226-47.932152-66.109019-62.125048-3.747423-1.830137-7.992842-1.220091-10.333425 1.493989-8.378789 9.536631-3.734973 22.285338 13.943898 38.221222a102.126608 102.126608 0 0 1 18.674865 22.285338z m-53.534612 26.891805c-23.40583 5.303661-28.672142 16.097733-15.811385 32.369765 2.577131 3.274326 6.598452 4.818115 10.333425 3.983971 8.802086-1.991986 14.939892-7.718944 18.425866-17.180875 7.893243 2.315683 13.993698 6.598452 18.301368 12.823407 2.863479 3.983971 6.150255 6.673152 9.088434 7.469945 11.453917 3.149827 17.728671-1.456639 18.799363-13.819399 0.398397-4.494417-0.834144-8.602888-3.361476-11.204919l-55.900094-57.145085c-15.761586-16.110183-24.190174-12.32541-25.273316 11.329418-0.572696 12.36276 7.893243 22.820684 25.397815 31.373772z" fill="#FCA863" /><path d="M615.125133 525.249235l27.5143 3.610474-9.088434 6.473953c-69.221497 85.40638-96.026153 183.08837-80.426416 293.070872 0.597596 3.921722 3.535774 6.8599 6.971949 6.971949l61.876051 0.248998a11.155119 11.155119 0 0 0 9.835429-5.726958c2.166284-4.07112 2.489982-8.391239 0.995992-12.947906-1.655838-4.979964-2.278333-8.889235-1.867486-11.702915 9.088434-63.743537 58.016579-117.153649 102.462756-155.499371l58.639074-44.07268 9.337432 3.112478 12.947906 16.060383c-2.066685 7.046649-4.930164 11.702915-8.590437 13.943899-51.542626 31.498271-146.286438 106.446727-139.065491 179.403197a5.47796 5.47796 0 0 0 6.722952 4.855465c82.169403-20.007005 138.492794-69.470495 168.945273-148.402922l15.562387 37.349728-0.995993 15.562387c-35.357743 59.921415-86.228074 100.346271-152.635892 121.26212a6.498853 6.498853 0 0 0-3.847022 3.261876 4.245419 4.245419 0 0 0 0.248999 4.320119c15.811385 23.281331 125.121591-25.522315 153.631884-28.759292l-11.951913 38.719219c-47.807653 23.530329-142.551465 43.948181-183.760666 2.73898a14.006148 14.006148 0 0 0-10.457924-4.10847l-80.177418 3.361476a5.47796 5.47796 0 0 0-5.104463 6.349454c10.208926 55.949894 36.801933 102.512556 79.803921 139.687985a82.244103 82.244103 0 0 1-49.799638-0.995993 353.776631 353.776631 0 0 1-66.358019-143.298459 10.383225 10.383225 0 0 0-7.096448-7.967942l-57.020586-15.437888a7.407696 7.407696 0 0 0-8.465938 4.232969c-9.212933 20.66685-22.210639 37.648527-38.968217 50.920131l-3.112478-3.112478c-7.644244-7.967942-10.582423-17.131076-8.839436-27.5143a75.69545 75.69545 0 0 0 22.907834-31.996268 8.540638 8.540638 0 0 0-2.73898-9.959927l-41.458199-30.128782c-6.810101-12.44991-8.889235-25.933162-6.224955-40.462206 18.674864 7.893243 32.905111 17.106176 42.70319 27.6388 11.117769 12.039063 15.637086 9.922578 13.570402-6.349454-4.232969-33.938454-17.977669-62.996543-41.209201-87.149367l12.449909-31.124774c40.748554 37.934875 61.378054 84.958183 61.876051 141.057475 0 4.17072 1.693188 7.943042 4.606467 10.208926 12.860757 10.296075 27.638799 13.906549 44.321678 10.831421a7.034199 7.034199 0 0 0 5.602459-7.594444c-9.051084-105.898931 16.309382-201.850384 76.068948-287.84191l19.670857-3.112477z" fill="#554E54" /><path d="M577.277408 527.863717l18.176868 0.497996c-59.759566 85.979076-85.107582 181.930529-76.068948 287.841909a7.034199 7.034199 0 0 1-5.602459 7.594445c-16.682879 3.062678-31.448472-0.547796-44.321678-10.831421-2.900829-2.278333-4.606467-6.050656-4.606467-10.208926-0.497996-56.111743-21.115047-103.135051-61.876051-141.057475l6.224955-20.791349 47.185158-53.410113 27.5143-22.285338c12.126212-1.830137 21.625493-7.893243 28.510293-18.176868l39.964209-12.947906 24.89982-6.224954z" fill="#FA7621" /><path d="M642.639433 528.859709l9.337432-0.995992 46.687161 9.337432 42.70319 18.799363 35.108745 25.771313 15.562387 23.903826-58.639074 44.07268c-14.192897-40.835703-41.24655-69.395796-81.173411-85.655378-1.718088-0.821694-4.307669-3.983971-6.84745-8.341439l-11.827414-20.417852 9.088434-6.473953z" fill="#F2671E" /><path d="M633.550999 535.333662l11.827414 20.417852c2.539782 4.357468 5.129363 7.519745 6.84745 8.341439 39.92686 16.259582 66.980514 44.819675 81.173411 85.655378-44.446177 38.345722-93.374322 91.755834-102.462756 155.499371-0.410847 2.81368 0.211648 6.722951 1.867486 11.702915 1.493989 4.556667 1.170292 8.876786-0.995992 12.947906a11.142669 11.142669 0 0 1-9.835429 5.726958l-61.876051-0.248998c-3.436175-0.112049-6.374354-3.050228-6.971949-6.971949-15.599737-109.982501 11.204919-207.664492 80.426416-293.070872z" fill="#FA7621" /><path d="M882.300192 693.821011c-3.809672 12.113762-11.951913 18.176868-24.401822 18.176868l-15.562387-37.349728-28.012297-49.799639-12.947906-16.060383 56.52259-51.169129c3.236976-2.913279 4.855465-2.041785 4.855464 2.614481a441.262145 441.262145 0 0 0 19.546358 133.58753z" fill="#FFFFFF" /><path d="M814.323686 624.848512l28.012297 49.799639c-30.452479 78.932427-86.77587 128.395918-168.945273 148.402922a5.47796 5.47796 0 0 1-6.722952-4.855465c-7.220948-72.95647 87.522864-147.904926 139.065491-179.403197 3.660273-2.240984 6.523753-6.89725 8.590437-13.943899z" fill="#FA7621" /><path d="M912.92697 690.210537l34.735248 56.52259-56.024593 33.241259c-9.62378 10.619773-19.832706 12.860757-30.626778 6.722951a114.564068 114.564068 0 0 0-4.10847-59.137071l0.995993-15.562387c12.44991 0 20.59215-6.063106 24.401822-18.176868l30.626778-3.610474z" fill="#22B69F" /><path d="M390.528764 692.825019c23.243981 24.152825 36.976231 53.198464 41.209201 87.149367 2.079135 16.259582-2.440182 18.376067-13.570402 6.349453-9.785629-10.545073-24.028325-19.758007-42.70319-27.638799-4.232969-24.401823 0.796794-46.363463 15.064391-65.860021z" fill="#FA7621" /><path d="M856.902377 727.560266a114.564068 114.564068 0 0 1 4.10847 59.137071l-4.10847 40.462206-2.614481 0.497996c-28.510293 3.236976-137.820499 52.040622-153.631884 28.759291a4.245419 4.245419 0 0 1-0.236549-4.332568 6.498853 6.498853 0 0 1 3.859472-3.274326c66.395368-20.915848 117.278148-61.328255 152.635892-121.26212z" fill="#F2671E" /><path d="M33.589856 746.982125c44.159829 73.703465 100.47077 137.895199 168.945273 192.600101-26.642807 21.662843-55.277599 25.846012-85.904376 12.574409a632.343358 632.343358 0 0 1-108.438712-109.434705 107.268421 107.268421 0 0 1 9.337432-47.434156c1.543789-3.411275 2.016885-7.445046 1.36949-11.578416-2.240984-15.525037 2.664281-27.763298 14.690893-36.727233z" fill="#F1EFF2" /><path d="M947.662218 746.733127l31.62277 52.414119c-11.615766 13.943899-26.306659 23.44318-44.07268 28.510293-17.803371-13.8194-23.40583-50.173136-43.574683-47.683153l56.024593-33.241259z" fill="#F8C52D" /><path d="M891.637625 779.974386c20.168854-2.489982 25.771313 33.863754 43.574683 47.683153l-0.497996 2.614481-52.41412 28.510293-25.397815-31.62277 4.10847-40.462206c10.794072 6.137805 21.002997 3.896822 30.626778-6.722951z" fill="#FDDD44" /><path d="M381.689328 799.147246l41.458199 30.128782c3.025328 2.216084 4.14582 6.299654 2.73898 9.959927a75.69545 75.69545 0 0 1-22.907834 31.996268c-12.44991-6.399254-18.836713-16.931877-19.17286-31.62277a89.141353 89.141353 0 0 1-2.116485-40.462207z" fill="#FA7621" /><path d="M979.284988 799.147246a7286.832481 7286.832481 0 0 1 77.18944 135.455017c17.554373 31.498271 6.722951 53.036615-24.77532 64.241533l-96.984796-168.571776 0.497996-2.614481c17.766021-5.067113 32.456914-14.566394 44.07268-28.510293z" fill="#22B69F" /><path d="M934.714312 830.27202l96.984796 168.571776c-27.713499 25.310666-52.36432 23.854027-73.952463-4.357468-12.113762-15.935884-37.262579-61.178856-75.446453-135.704015l52.41412-28.510293z" fill="#28D1B3" /><path d="M383.805813 839.609453c0.336148 14.690893 6.722951 25.223517 19.17286 31.62277-1.742987 10.370775 1.207641 19.546358 8.839436 27.5143a751.538792 751.538792 0 0 1-136.451009 87.647364l-56.522589-37.847726c5.47796-6.810101 10.582423-11.204919 15.313388-13.196904a557.220603 557.220603 0 0 0 149.647914-95.739804z" fill="#FC9743" /><path d="M8.192041 842.72193a632.343358 632.343358 0 0 0 108.438712 109.434705v11.453917a443.739677 443.739677 0 0 1-105.824231-11.453917 477.615881 477.615881 0 0 1-2.614481-109.434705z" fill="#FCA863" /><path d="M592.839795 1013.41019c-75.944448-11.292068-135.243368-48.479948-177.909208-111.55119 16.770028-13.284054 29.755284-30.25328 38.968217-50.92013a7.407696 7.407696 0 0 1 8.465938-4.232969l57.020586 15.437888c3.523324 0.995993 6.262305 4.058671 7.096449 7.967942a353.776631 353.776631 0 0 0 66.358018 143.298459zM842.335983 866.376758c-39.91441 85.568229-106.484077 134.90722-199.69655 148.029425-42.989538-37.18788-69.594995-83.750542-79.80392-139.687985a5.47796 5.47796 0 0 1 5.104462-6.349454l80.177418-3.361476c3.896822-0.161849 7.681594 1.33214 10.457924 4.10847 41.209201 41.209201 135.953013 20.791349 183.760666-2.73898z" fill="#FA7621" /><path d="M202.535129 939.582226l16.309382 8.963935 56.522589 37.847726a281.480006 281.480006 0 0 1-105.326235 24.401822l-53.410112-47.185157v-11.453917c30.626778 13.271604 59.26157 9.088434 85.904376-12.574409z" fill="#E1DDE1" /><path d="M10.806522 952.156635c34.697898 8.042642 69.968492 11.864764 105.824231 11.453917l53.410112 47.185157c-36.602734 5.104463-169.567769 22.534336-159.234343-58.639074z" fill="#FC9743" /><path d="M603.017541 172.698891m7.525772-5.09533l14.845358-10.051063q7.525772-5.09533 12.621102 2.430441l8.515484 12.577317q5.09533 7.525772-2.430441 12.621102l-14.845358 10.051063q-7.525772 5.09533-12.621102-2.430441l-8.515484-12.577317q-5.09533-7.525772 2.430441-12.621102Z" fill="#C0E4E2" /><path d="M691.608094 196.151824m8.237663-5.59831l13.386202-9.097253q8.237663-5.59831 13.835972 2.639353l8.397465 12.356494q5.59831 8.237663-2.639353 13.835972l-13.386202 9.097254q-8.237663 5.59831-13.835972-2.639353l-8.397465-12.356494q-5.59831-8.237663 2.639353-13.835973Z" fill="#C0E4E2" /><path d="M546.516769 201.848767m9.183061-5.259188l12.74825-7.300992q9.183061-5.259189 14.44225 3.923873l7.177245 12.532177q5.259189 9.183061-3.923872 14.44225l-12.74825 7.300992q-9.183061 5.259189-14.44225-3.923873l-7.177246-12.532177q-5.259189-9.183061 3.923873-14.44225Z" fill="#C0E4E2" /><path d="M636.649135 224.222525m8.48055-3.599779l17.190303-7.296851q8.48055-3.59978 12.080329 4.88077l6.226646 14.669058q3.59978 8.48055-4.880769 12.08033l-17.190304 7.296851q-8.48055 3.59978-12.080329-4.88077l-6.226646-14.669059q-3.59978-8.48055 4.88077-12.080329Z" fill="#C0E4E2" /><path d="M488.91623 235.583642m10.900714-6.268189l10.792786-6.206127q10.900714-6.268189 17.168902 4.632525l5.33727 9.281796q6.268189 10.900714-4.632526 17.168903l-10.792786 6.206127q-10.900714 6.268189-17.168902-4.632525l-5.33727-9.281796q-6.268189-10.900714 4.632526-17.168903Z" fill="#C0E4E2" /><path d="M725.659138 247.833316m11.645662-5.063677l8.905505-3.872225q11.645661-5.063678 16.709339 6.581984l3.772937 8.67716q5.063678 11.645661-6.581984 16.709338l-8.905506 3.872225q-11.645661 5.063678-16.709339-6.581984l-3.772936-8.677159q-5.063678-11.645661 6.581984-16.709339Z" fill="#C0E4E2" /><path d="M578.844102 259.979724m8.857474-5.322108l13.232853-7.9511q8.857474-5.322107 14.179581 3.535367l7.053395 11.738821q5.322107 8.857474-3.535366 14.179581l-13.232853 7.9511q-8.857474 5.322107-14.179581-3.535366l-7.053396-11.738821q-5.322107-8.857474 3.535367-14.179582Z" fill="#C0E4E2" /><path d="M667.973605 287.829131m6.951937-5.854075l13.713412-11.547765q6.951938-5.854075 12.806012 1.097863l10.585451 12.570627q5.854075 6.951938-1.097862 12.806013l-13.713412 11.547764q-6.951938 5.854075-12.806012-1.097862l-10.585451-12.570627q-5.854075-6.951938 1.097862-12.806013Z" fill="#C0E4E2" /><path d="M521.480373 292.768889m10.290144-6.555545l10.500147-6.689332q10.290144-6.555545 16.84569 3.7346l5.886611 9.240129q6.555545 10.290144-3.734599 16.84569l-10.500147 6.689331q-10.290144 6.555545-16.845689-3.734599l-5.886612-9.24013q-6.555545-10.290144 3.734599-16.845689Z" fill="#C0E4E2" /><path d="M758.250928 307.635254m9.674277-5.653191l10.96418-6.406949q9.674277-5.653191 15.327468 4.021085l5.276312 9.029326q5.653191 9.674277-4.021086 15.327467l-10.964181 6.40695q-9.674277 5.653191-15.327468-4.021086l-5.276311-9.029325q-5.653191-9.674277 4.021086-15.327468Z" fill="#C0E4E2" /><path d="M611.712416 314.503197m7.528861-3.591082l17.979368-8.575719q7.52886-3.591082 11.119943 3.937779l7.182164 15.057721q3.591082 7.52886-3.937778 11.119942l-17.979368 8.575719q-7.52886 3.591082-11.119943-3.937778l-7.182164-15.057721q-3.591082-7.52886 3.937778-11.119943Z" fill="#C0E4E2" /><path d="M482.533596 345.099044c-22.484537-16.184882-18.625065-26.642807 11.578416-31.373772a9.959928 9.959928 0 0 1 9.835428 4.10847c10.296075 15.437888 6.9346 25.310666-10.084427 29.630785a13.75715 13.75715 0 0 1-11.329417-2.365483z" fill="#CBE5E6" /><path d="M702.134342 337.122943m8.918968-3.841114l14.407564-6.204877q8.918968-3.841114 12.760082 5.077853l5.909407 13.721489q3.841114 8.918968-5.077853 12.760083l-14.407564 6.204877q-8.918968 3.841114-12.760083-5.077853l-5.909406-13.72149q-3.841114-8.918968 5.077853-12.760082Z" fill="#C0E4E2" /><path d="M554.935508 349.72634m8.439436-5.050898l13.88768-8.311605q8.439436-5.050898 13.490334 3.388538l7.288638 12.178426q5.050898 8.439436-3.388537 13.490335l-13.88768 8.311605q-8.439436 5.050898-13.490334-3.388538l-7.288638-12.178427q-5.050898-8.439436 3.388537-13.490334Z" fill="#C0E4E2" /><path d="M668.659744 379.074847m-18.301367 0a18.301367 18.301367 0 1 0 36.602734 0 18.301367 18.301367 0 1 0-36.602734 0Z" fill="#CBE5E6" /><path d="M499.364953 381.025163m10.469003-6.019943l9.929363-5.709637q10.469003-6.019943 16.488946 4.449059l5.089024 8.850085q6.019943 10.469003-4.449059 16.488946l-9.929363 5.709637q-10.469003 6.019943-16.488946-4.449059l-5.089024-8.850085q-6.019943-10.469003 4.449059-16.488946Z" fill="#C0E4E2" /><path d="M734.746865 395.432784m10.899992-5.199029l10.787621-5.145432q10.899992-5.19903 16.099022 5.700963l3.859073 8.090716q5.19903 10.899992-5.700962 16.099021l-10.787621 5.145431q-10.899992 5.19903-16.099022-5.700962l-3.859073-8.090716q-5.19903-10.899992 5.700962-16.099021Z" fill="#C0E4E2" /><path d="M586.984786 406.676466m10.727205-6.318807l11.156293-6.571559q10.727205-6.318807 17.046012 4.408399l4.296788 7.294499q6.318807 10.727205-4.408398 17.046012l-11.156293 6.571559q-10.727205 6.318807-17.046012-4.408398l-4.296789-7.2945q-6.318807-10.727205 4.408399-17.046012Z" fill="#C0E4E2" /><path d="M676.745971 428.258888m10.32441-5.770118l10.650445-5.952333q10.324411-5.770118 16.094529 4.554293l5.466428 9.781021q5.770118 10.324411-4.554292 16.094529l-10.650445 5.952333q-10.324411 5.770118-16.094529-4.554293l-5.466428-9.781021q-5.770118-10.324411 4.554292-16.094529Z" fill="#C0E4E2" /><path d="M531.420114 438.233288m10.2356-5.673685l10.2356-5.673686q10.2356-5.673686 15.909286 4.561914l4.828669 8.711149q5.673686 10.2356-4.561914 15.909286l-10.2356 5.673686q-10.2356 5.673686-15.909286-4.561915l-4.828669-8.711149q-5.673686-10.2356 4.561914-15.909285Z" fill="#CBE5E6" /><path d="M622.055469 460.32141m11.043205-5.748728l8.834563-4.598983q11.043205-5.748728 16.791933 5.294476l4.713958 9.055428q5.748728 11.043205-5.294476 16.791933l-8.834564 4.598983q-11.043205 5.748728-16.791933-5.294476l-4.713958-9.055428q-5.748728-11.043205 5.294477-16.791933Z" fill="#CBE5E6" /><path d="M306.491874 684.483579l24.899819 24.899819c9.212933 8.465939 15.276039 18.799363 18.176868 31.000275 0.921293 4.046221-0.336148 8.092441-3.236976 10.457924-19.421859 15.811385-66.358018-44.446177-79.803921-57.518582a8.789636 8.789636 0 0 1-1.867486-10.084427c10.134226-19.670857 24.078125-19.26001 41.831696 1.244991z" fill="#F1EFF2" /><path d="M331.391693 709.383398l-24.899819-24.899819c41.756997-17.268025 50.048637-8.963935 24.899819 24.899819z" fill="#F2671E" /><path d="M260.427209 771.757445a102.126608 102.126608 0 0 0-18.674865-22.285338c-17.678872-15.935884-22.322688-28.684592-13.943898-38.221222 2.340583-2.71408 6.586002-3.324126 10.333425-1.493989 28.385794 14.192897 50.422134 34.897097 66.109019 62.125048 24.028325 41.458199-33.116759 17.305374-43.823681-0.124499zM219.840503 817.822111l-12.947906-19.172861c-17.504573-8.553088-25.970511-19.011012-25.397815-31.373772 1.083142-23.654828 9.511731-27.439601 25.273316-11.329418l55.900094 57.145085c2.527332 2.602031 3.759873 6.710501 3.361476 11.204919-1.070692 12.36276-7.345447 16.969227-18.799363 13.819399-2.938179-0.796794-6.224955-3.485975-9.088434-7.469945-4.307669-6.224955-10.408124-10.507724-18.301368-12.823407z" fill="#F1EFF2" /><path d="M206.892597 798.64925l12.947906 19.172861c-3.485975 9.461931-9.62378 15.18889-18.425866 17.180875-3.734973 0.834144-7.756294-0.709645-10.333425-3.983971-12.860757-16.272032-7.594445-27.066103 15.811385-32.369765z" fill="#F2671E" /></svg>