<?xml version="1.0" standalone="no"?><!DOCTYPE svg PUBLIC "-//W3C//DTD SVG 1.1//EN" "http://www.w3.org/Graphics/SVG/1.1/DTD/svg11.dtd"><svg class="icon" width="200px" height="140.76px" viewBox="0 0 1455 1024" version="1.1" xmlns="http://www.w3.org/2000/svg"><path d="M1406.961225 224.573272l-769.220252 251.414363c-3.584422 1.228464-8.918983 1.295777-15.986857 0.168283l-52.84077-8.245852-115.610219-37.863609c-5.267249-1.682827-5.603814-4.08927-1.009697-7.236157l231.725287-161.04655c19.302026 8.296337 38.940618 9.709912 58.898948 4.207068 103.157299 3.197371 60.076926-104.503561-33.656542-87.00216-32.865613 1.127494-52.268609 17.720169-58.225816 49.811682l-258.818803 171.816643a18.729865 18.729865 0 0 1-15.145443 2.52424l-54.187032-14.472312-21.708469-3.533937a2040.713897 2040.713897 0 0 0-250.57295-86.665594c-46.61431-12.789486-62.432884-51.494508-6.563026-69.66904a16355.917924 16355.917924 0 0 0 328.656126-110.056891c28.50709 1.800625 53.749496-6.175975 75.727218-23.896144l246.1976-81.280547c20.53049-6.731308 40.842213-6.849106 60.91834-0.336566l651.422357 211.36308z" fill="#918191" /><path d="M448.422928 94.827305c-21.977721 17.720169-47.220127 25.696769-75.727218 23.896144a180.651485 180.651485 0 0 1 75.727218-23.896144z" fill="#CBC5CB" /><path d="M709.261123 178.968658c20.648288 25.578971 31.872745 54.574082 33.656542 87.00216-19.958329 5.502845-39.596921 4.08927-58.898948-4.207068 0.454363-22.886448-10.534497-33.875309-32.98341-32.98341 5.957208-32.091512 25.360204-48.684187 58.225816-49.811682z" fill="#685E67" /><path d="M709.261123 178.968658c93.733468-17.501401 136.81384 90.199531 33.656542 87.00216-1.783797-32.428078-13.008253-61.423188-33.656542-87.00216z" fill="#554E54" /><path d="M651.035307 228.78034c22.448913-0.891898 33.437774 10.096962 32.98341 32.98341l-231.725287 161.04655c-4.594118 3.146887-4.257552 5.553329 1.009697 7.236157l115.610219 37.863609 149.098478 54.860162c4.442663 1.632342 10.197932 1.396746 16.15514-0.673131l416.163133-137.655254a1097.724923 1097.724923 0 0 1 30.795735 210.353383c9.592114 51.494508-31.805432 54.523597-67.986213 63.779146l-10.096962-5.048481c-3.870502-1.85111-6.731308-6.71448-7.572722-12.789486l-21.035339-145.901106a7.067874 7.067874 0 0 0-3.449795-5.048482 7.774661 7.774661 0 0 0-6.310602-0.67313l-322.261383 104.671843c-5.284077 1.649171-10.938376 1.834282-16.323422 0.504848-109.552042-27.093516-215.401864-78.756307-323.775927-100.801341-48.970268-10.096962-142.198887-31.468866-79.429438-104.840126l54.187032 14.472312c5.031653 1.396746 10.534497 0.471192 15.145443-2.52424l258.818803-171.816643z" fill="#554E54" /><path d="M1406.961225 224.573272c60.076926 20.025642 46.950875 57.552686-1.346262 73.539543a16253.517897 16253.517897 0 0 0-255.284866 86.329028l-416.163133 137.655254c-5.957208 2.069877-11.712476 2.305473-16.15514 0.673131l-149.098478-54.860162 52.84077 8.245852c7.067874 1.127494 12.402435 1.060181 15.986857-0.168283l769.220252-251.414363z" fill="#7A6D79" /><path d="M301.17556 385.114974l21.708469 3.533937c-62.76945 73.37126 30.45917 94.743164 79.429438 104.840126 108.374063 22.045035 214.223885 73.707825 323.775927 100.801341 5.385047 1.329433 11.039346 1.144322 16.323422-0.504848l322.261383-104.671843a7.774661 7.774661 0 0 1 6.310602 0.67313 7.067874 7.067874 0 0 1 3.449795 5.048482l21.035339 145.901106c0.841414 6.075006 3.70222 10.938376 7.572722 12.789486l10.096962 5.048481-16.828271 11.274941a294.9491 294.9491 0 0 0-117.797894 42.070677l-109.38376 37.863609c-22.650852-1.901595-42.289444 5.098966-58.898947 21.035338l-134.626165 47.624006c-28.60806 4.156583-49.643398 19.133744-63.106015 44.931483l-46.277744 5.553329-83.468223-17.501401-35.002803-231.388722c30.964018-36.803428 30.526483-70.005606-1.346261-99.623362a22.785478 22.785478 0 0 0-14.808879-6.058177c-82.22293-4.156583-101.642755 32.478562-58.225816 109.888607l-30.795735 172.489774c-29.836524-10.096962-53.009053-27.648849-69.500758-52.672487a27.127172 27.127172 0 0 1-4.37535-15.482009c2.473756-115.324139 13.294334-229.823692 32.478562-343.465004z" fill="#685E67" /><path d="M447.749797 620.037632l-49.13855 4.207068h-25.242406c-43.416938-77.410045-23.997114-114.04519 58.225816-109.888607 5.637471 0.218768 10.904719 2.355958 14.808879 6.058177 31.872745 29.617756 32.31028 62.819934 1.346261 99.623362z" fill="#FDDD44" /><path d="M1417.058187 610.445518l-24.569275 68.491062c-2.019392 5.553329-5.671127 9.693084-9.92868 11.274941l-209.848535 77.073479c-14.909848-41.397546-40.38785-73.876108-76.400349-97.435687l16.828271-11.274941c36.180782-9.255549 77.578328-12.284638 67.986213-63.779146 6.394743 13.243849 16.104655 22.499398 29.112909 27.766647 4.745572 1.817453 10.433528 1.514544 15.818574-0.841414 54.355314-24.064427 147.583934-78.419741 191.000872-11.274941z" fill="#F1EFF2" /><path d="M1417.058187 610.445518c21.657984 33.538743 30.863048 67.935729 27.598364 103.157299-2.019392 22.549883-14.186232 38.082376-36.517348 46.61431l-236.26892 90.872661-0.504848-41.734111v-29.449474l1.346262-12.621203 209.848535-77.073479c4.257552-1.581857 7.909287-5.721612 9.92868-11.274941l24.569275-68.491062z" fill="#E1DDE1" /><path d="M398.611247 624.2447c-2.860806 14.135747-7.572722 23.559579-5.048481 38.200174a2093.369556 2093.369556 0 0 1 29.786039 323.102797l-68.491062-5.216764c-9.642599-0.7741-16.962897-10.029649-16.659988-21.035338l4.375351-162.561095 30.795735-172.489774h25.242406z" fill="#FCD430" /><path d="M447.749797 620.037632l35.002803 231.388722-1.177979 109.552042c-0.10097 6.125491-2.221332 11.325426-5.721612 13.967464-12.335122 9.642599-29.836524 13.176536-52.504204 10.601811a2093.369556 2093.369556 0 0 0-29.786039-323.102797c-2.524241-14.640595 2.187675-24.064427 5.048481-38.200174l49.13855-4.207068z" fill="#E6B729" /><path d="M1096.311348 669.849313c36.012499 23.559579 61.490501 56.038141 76.400349 97.435687l-1.346262 12.621203c-38.587225-1.127494-71.789403 11.493709-99.623362 37.863609l-8.414135-21.035338c-6.276945-50.939175-34.54844-79.21067-84.814484-84.814484a294.9491 294.9491 0 0 1 117.797894-42.070677z" fill="#FC9743" /><path d="M978.513454 711.91999c50.266044 5.603814 78.537539 33.875309 84.814484 84.814484 1.009696 6.512541-1.682827 10.988861-8.07757 13.462617-146.84349 56.761757-244.34649 92.437691-292.475344 107.027801-14.354515 4.37535-26.353072-2.13719-36.012499-19.520794l-51.157943-79.261155 134.626165-47.624006a100.010412 100.010412 0 0 0 58.898947-21.035338l109.38376-37.863609z" fill="#F1EFF2" /><path d="M869.129694 749.783599a100.010412 100.010412 0 0 1-58.898947 21.035338c16.609503-15.936372 36.248095-22.936933 58.898947-21.035338z" fill="#A69CA7" /><path d="M1171.365435 779.906203v29.449474c-9.979164 31.754947-33.925794 53.850466-71.856715 66.303386-21.641156 7.067874-31.351068-1.009696-29.112909-24.232709l1.346262-33.656542c27.83396-26.3699 61.036138-38.991103 99.623362-37.863609z" fill="#FA7621" /><path d="M1063.327938 796.734474l8.414135 21.035338-1.346262 33.656542-16.82827 42.070676-329.329257 117.124764c13.580414-39.041588 14.421828-76.686429 2.524241-112.917696 9.659427 17.383604 21.657984 23.896144 36.012499 19.520794 48.128854-14.590111 145.631854-50.266044 292.475344-107.027801 6.394743-2.473756 9.087266-6.950076 8.07757-13.462617z" fill="#E1DDE1" /><path d="M1171.365435 809.355677l0.504848 41.734111c44.544432 11.661992 78.083176 31.519351 100.633059 59.572078 3.399311 4.207068 4.644603 9.760397 3.348826 14.926676a16.020514 16.020514 0 0 1-9.911852 11.157144l-97.772252 36.349065a15.986857 15.986857 0 0 1-13.075566-1.060182 16.676816 16.676816 0 0 1-8.128055-10.551325c-13.227021-50.60261-44.359321-73.253462-93.396902-67.986214l16.82827-42.070676c-2.23816 23.223014 7.471752 31.300583 29.112909 24.232709 37.930922-12.45292 61.877551-34.54844 71.856715-66.303386z" fill="#FC9743" /><path d="M675.604582 818.442943l51.157943 79.261155c11.897587 36.231267 11.056174 73.876108-2.524241 112.917696a84.612545 84.612545 0 0 1-40.219567 4.207068c-23.727862-56.038141 24.064427-130.082532-71.52015-151.454436 13.462617-25.797739 34.497955-40.7749 63.106015-44.931483z" fill="#A69CA7" /><path d="M612.498567 863.374426c95.584577 21.371904 47.792289 95.416295 71.52015 151.454436-57.384403-25.915537-58.394099-85.487615-80.775699-133.784752-1.85111-4.190239-6.663995-6.596682-11.779789-5.889895-9.087266 1.009696-17.501401-1.060181-25.242406-6.22646l46.277744-5.553329z" fill="#B6ADB6" /></svg>