<?xml version="1.0" standalone="no"?><!DOCTYPE svg PUBLIC "-//W3C//DTD SVG 1.1//EN" "http://www.w3.org/Graphics/SVG/1.1/DTD/svg11.dtd"><svg class="icon" width="200px" height="199.61px" viewBox="0 0 1026 1024" version="1.1" xmlns="http://www.w3.org/2000/svg"><path d="M914.11175 206.905505l-95.312286-94.552825c-56.010208-76.800438 34.17572-158.632301 110.596428-81.072403 37.023697 37.593292 138.601531 108.887641 77.749763 170.214073-25.755202 25.945067-56.769668 27.748786-93.033905 5.411155z" fill="#E2F0FA" /><path d="M818.799464 112.35268l95.312286 94.552825-91.514983 90.185928a4.556763 4.556763 0 0 0-1.395509 3.32264 4.936493 4.936493 0 0 0 1.405002 3.417572c45.187897 45.662559 118.380897 105.659935 67.402114 166.226905-30.188553 35.818053-69.490631 37.621772-117.906234 5.411156a4429.676466 4429.676466 0 0 0-223.471236-223.471237c-35.125046-48.130806-29.618957-121.893402 36.928764-133.380241 52.972366-9.208458 91.514984 38.922348 135.373825 83.635582a4.651695 4.651695 0 0 0 6.645278 0l91.230187-89.90113z" fill="#9EBED1" /><path d="M548.621411 251.998469a4429.676466 4429.676466 0 0 1 223.471236 223.471237l-444.094496 444.853956c-34.935181 34.935181-62.750419 50.88385-108.887642 29.808823a2039.407616 2039.407616 0 0 1-145.531608-144.772148c-19.840904-44.998031-5.601021-73.572731 28.764565-107.843383l446.277945-445.518485z m-14.904412 41.798805a15.284141 15.284141 0 0 0-21.606649-0.189865l-5.145345 5.059905a15.284141 15.284141 0 0 0-0.189865 21.616143l67.202756 68.389413a15.284141 15.284141 0 0 0 21.616143 0.189865l5.145345-5.059905a15.284141 15.284141 0 0 0 0.189865-21.616143l-67.21225-68.389413z m-86.673423 70.126679a8.562917 8.562917 0 0 0-2.088516 5.695953c0.018987 2.145476 1.708786 5.012439 4.556762 7.689537l40.820999 38.542618c2.629632 2.506219 5.553555 3.996661 8.1642 4.177032 13.993059 1.072738 21.236413-5.695953 21.739555-20.315567a11.391907 11.391907 0 0 0-3.322639-8.354065l-43.763908-44.808166a7.708524 7.708524 0 0 0-7.974335-2.088516c-6.199096 2.088516-10.537514 6.075684-13.00576 11.961502-0.75946 1.708786-2.468246 4.205512-5.126358 7.499672z m45.747998 126.943813a12.531097 12.531097 0 0 0 0-17.714415l-69.813401-69.813401a12.531097 12.531097 0 0 0-17.723908 0l-9.265418 9.265417a12.531097 12.531097 0 0 0 0 17.714415l69.813402 69.813402a12.531097 12.531097 0 0 0 17.723908 0l9.265417-9.265418z m-81.860342 27.245644a14.144951 14.144951 0 0 0-0.066453-20.00229l-40.422282-40.137484a14.144951 14.144951 0 0 0-20.00229 0.066452l-6.825651 6.873118a14.144951 14.144951 0 0 0 0.075946 20.002289l40.412789 40.137485a14.144951 14.144951 0 0 0 20.00229-0.066453l6.825651-6.873117z m-61.0891 40.991877c-53.257164 52.592636-107.463653 104.805542-158.822166 159.012031-47.56121 50.219322-7.974335 78.319359 26.770981 113.63427 27.530441 27.910171 58.288589 42.71965 89.236602 11.961502 25.536858-25.346992 162.144805-149.803573 165.752243-173.536712 7.499672-48.890266-58.953117-38.63755-80.312942-68.636238a128.15895 128.15895 0 0 1-18.796647-38.63755c-4.243485-13.983565-12.18934-15.255662-23.828071-3.797303z" fill="#E2F0FA" /><path d="M73.578901 805.360337a2039.407616 2039.407616 0 0 0 145.531608 144.772148c-38.66603 47.96942-82.971054 53.513482-132.905578 16.613197l-28.479766-28.479767c-37.593292-49.431382-32.305549-93.726912 15.853736-132.905578z" fill="#9EBED1" /><path d="M57.725165 938.265915l28.479766 28.479767-56.389938 53.731827a12.692483 12.692483 0 0 1-8.259132 3.512504c-14.619614 0.313277-21.796515-6.835144-21.54969-21.454758 0.066453-2.990376 1.357536-5.942778 3.607437-8.259132l54.111557-56.010208z" fill="#4F697D" /><path d="M496.062722 309.381036m10.90142-10.712796l5.146013-5.056973q10.901421-10.712796 21.614217 0.188625l67.204499 68.387795q10.712796 10.901421-0.188625 21.614217l-5.146012 5.056972q-10.901421 10.712796-21.614217-0.188624l-67.204499-68.387795q-10.712796-10.901421 0.188624-21.614217Z" fill="#9EBED1" /><path d="M452.179427 356.424281c2.468246-5.885818 6.806664-9.872986 13.00576-11.961502a7.708524 7.708524 0 0 1 7.974335 2.088516l43.763908 44.808166a11.391907 11.391907 0 0 1 3.32264 8.354065c-0.503143 14.619614-7.75599 21.388305-21.739556 20.315567-2.620139-0.180372-5.534568-1.670813-8.164199-4.177032l-40.820999-38.542618c-2.847977-2.677098-4.547269-5.534568-4.556763-7.689537 0-2.154969 0.693008-4.05362 2.088516-5.695953 2.658112-3.29416 4.366898-5.790886 5.126358-7.499672z" fill="#9EBED1" /><path d="M414.120476 394.476849m8.860824 8.860823l69.812552 69.812553q8.860824 8.860824 0 17.721647l-9.263589 9.263589q-8.860824 8.860824-17.721648 0l-69.812552-69.812552q-8.860824-8.860824 0-17.721648l9.263589-9.263589q8.860824-8.860824 17.721648 0Z" fill="#9EBED1" /><path d="M360.410934 448.006201m10.036843 9.967016l40.416818 40.135636q10.036843 9.967016 0.069827 20.003859l-6.823058 6.870859q-9.967016 10.036843-20.00386 0.069827l-40.416818-40.135636q-10.036843-9.967016-0.069827-20.003859l6.823058-6.870859q9.967016-10.036843 20.00386-0.069827Z" fill="#9EBED1" /><path d="M191.019966 718.117318c51.358513-54.206489 105.565002-106.419395 158.822166-159.012031 11.648225-11.458359 19.584586-10.186263 23.828071 3.797303a128.15895 128.15895 0 0 0 18.796647 38.63755c21.359825 29.998688 87.812614 19.745972 80.312942 68.636238-3.607437 23.733139-140.215385 148.18972-165.752243 173.536712-30.948013 30.758148-61.706161 15.948669-89.236602-11.961502-34.745315-35.314911-74.332191-63.414947-26.770981-113.63427z" fill="#4895EF" /></svg>