<?xml version="1.0" standalone="no"?><!DOCTYPE svg PUBLIC "-//W3C//DTD SVG 1.1//EN" "http://www.w3.org/Graphics/SVG/1.1/DTD/svg11.dtd"><svg class="icon" width="200px" height="200.00px" viewBox="0 0 1024 1024" version="1.1" xmlns="http://www.w3.org/2000/svg"><path d="M366.658986 287.980828c4.08947 12.91696 3.909317 24.410712-0.540459 34.499272l-100.705447-0.540459c-4.882142 0.009008-8.863521 4.107485-8.917567 9.187796l-0.810687 105.299345c0 2.882446 1.234047 3.603057 3.693133 2.161834 17.718033-10.205659 32.013163-15.312993 42.87638-15.312993 103.470793-0.180153 206.941587-0.270229 310.403373-0.270229 99.174148 0 128.448987 30.26568 128.268834 125.836771-0.180153 70.385721-0.144122 140.825488 0.090077 211.319301a5.134356 5.134356 0 0 0 1.333131 3.47695 4.215577 4.215577 0 0 0 3.17069 1.396185l89.896276-2.251911 3.062598 29.184763c0.324275 3.152675-0.76565 5.927029-2.702293 6.845808-1.981681 0.900764-3.657103 0.810688-5.04428-0.270229l-83.140543 2.52214c-2.936492 0.090076-5.296494 2.161834-5.404586 4.774051l-1.351146 31.25652h-38.282482a381.383598 381.383598 0 0 0-0.360306-96.471854c4.206569-62.332889 4.206569-124.638754 0-186.90859 9.097719-36.57103-2.432064-94.129868-45.218367-94.31002a40177.906365 40177.906365 0 0 0-340.308747 0c-64.584799 0.270229-58.279449 46.299284-57.378685 94.31002l-2.612217 85.212302c-46.416384-0.243206-89.806199 11.439706-130.160439 35.03973l-0.450382-538.566966c0-2.52214-1.945651-4.593898-4.413745-4.683974-26.302317-0.810688-57.468761 3.963363-79.717639-7.206114-40.174087-20.087044-47.019896-82.960391-8.196955-108.72225C65.083103-6.028635 156.690831 0.546944 188.758039 2.708778c43.903251 2.819392 66.116099 27.347204 66.656557 73.592442 0.900764 68.872437 1.387177 137.780905 1.441223 206.725404 0 2.531148 2.017712 4.593898 4.503822 4.593898l105.299345 0.360306z" fill="#C8DAE5" /><path d="M366.118527 322.4801c4.449776-10.08856 4.629928-21.582312 0.540459-34.499272 19.186279-34.229043 42.425998-42.786304 82.780237-42.786304a79844.917243 79844.917243 0 0 1 169.613915 0c81.519168 0.090076 94.760403 103.677969 19.366432 117.099357-60.801589 10.809171-151.3284 3.332828-203.752881 1.801529-29.779267-0.900764-52.631657-14.772534-68.548162-41.61531zM259.287883 553.706292h442.905799c4.206569 62.278843 4.206569 124.575701 0 186.908589l-284.551438 0.900764c-46.119131-59.000061-80.888633-95.030632-160.966578-102.597052l2.612217-85.212301z" fill="#9EBED1" /><path d="M256.675666 638.918593c80.077945 7.56642 114.847446 43.596991 160.966578 102.597052 20.48338 46.245238 25.104301 92.274293 13.87177 138.087165-47.290125 194.114703-326.707206 192.313175-372.826338-4.233592-5.224433-21.978649-12.520624-40.084011-8.196955-62.873347 10.214667-54.820514 35.553166-101.002699 76.024506-138.537547 40.35424-23.600024 83.744056-35.273929 130.160439-35.039731z m13.961847 125.926847a4.819089 4.819089 0 0 0 4.413745-1.351146l55.937462-57.198532a3.684126 3.684126 0 0 0 1.017864-3.089622 4.071455 4.071455 0 0 0-1.828552-2.846415c-20.357273-13.097113-42.966456-20.933762-67.827551-23.509948a4.332676 4.332676 0 0 0-3.296797 1.008856 3.963363 3.963363 0 0 0-1.387177 3.044583l-0.720611 74.763436c0 3.530996 1.666414 6.422449 3.963362 6.935885l9.728255 2.251911z m-51.523717-83.050467a3.242751 3.242751 0 0 0-3.603058-3.242751c-22.996512 2.882446-44.461725 12.160318-64.404646 27.833616a4.485806 4.485806 0 0 0-1.711452 3.062599c-0.117099 1.189009 0.270229 2.341987 1.080917 3.152675l49.902342 50.622952c11.709936 11.953142 17.65498 10.989324 17.835132-2.882445l0.900765-78.546646z m79.717639 112.415383c-8.82749 9.007643-6.809778 13.511464 6.035121 13.511464l89.26574 0.090077a3.828248 3.828248 0 0 0 2.927484-1.396185 4.017409 4.017409 0 0 0 0.855726-3.188706c-4.143516-26.662623-14.889634-50.235624-32.247361-70.709996a4.566875 4.566875 0 0 0-3.13466-1.621376 4.008401 4.008401 0 0 0-3.17069 1.170994l-60.53136 62.152735z m-171.775749-51.793947a9.728254 9.728254 0 0 0-15.943528 3.062599l-20.537426 48.911501a9.728254 9.728254 0 0 0 8.917567 13.511464l69.448926 0.450382a9.728254 9.728254 0 0 0 6.935885-16.574063l-48.821424-49.361883z m44.587832 103.497817l-78.636722-1.441223a4.053439 4.053439 0 0 0-3.098629 1.423208 4.43176 4.43176 0 0 0-1.044887 3.35985c2.405041 24.91514 10.782148 47.76753 25.131324 68.548162a3.927332 3.927332 0 0 0 2.837407 1.639391 3.729164 3.729164 0 0 0 3.01756-1.098932l58.00922-58.00922c9.431002-9.367949 7.359244-14.17803-6.215273-14.412229z m125.206235 13.151158c13.061082 20.717579 48.461119 51.793946 66.926787 67.917628a4.368707 4.368707 0 0 0 3.278782 1.035878 4.188554 4.188554 0 0 0 2.936491-1.657406c16.880323-22.338954 26.752699-47.830584 29.635145-76.474888a4.341684 4.341684 0 0 0-1.008856-3.296797 3.963363 3.963363 0 0 0-3.044583-1.387177l-91.157346-0.450382c-11.04337-0.063053-13.56551 4.710997-7.56642 14.322152zM219.924483 981.839556c-1.351146-30.716062-1.170994-61.342048-2.161834-89.986352-0.360306-12.124287-4.801074-13.925816-13.331311-5.404585l-59.900825 60.351207a4.368707 4.368707 0 0 0-1.252063 3.242751 4.188554 4.188554 0 0 0 1.5313 3.062599 144.194347 144.194347 0 0 0 70.800073 32.51759 3.693134 3.693134 0 0 0 4.323668-3.78321z m117.54974-28.644304l-69.088621-68.818391c-7.800619-7.746573-11.709936-5.368555-11.709936 7.116038l0.360306 92.05811c0 1.189009 0.486413 2.314964 1.351146 3.107636 0.855726 0.792673 2.008704 1.170994 3.152675 1.044887 27.869647-3.188706 53.027993-12.700776 75.484048-28.554228a3.963363 3.963363 0 0 0 0.450382-5.945044z" fill="#4F697D" /><path d="M830.732745 798.534024c1.387177 1.080917 3.062599 1.170994 5.04428 0.27023 1.936643-0.909772 3.026568-3.675118 2.702293-6.845809l-3.062598-29.184763c10.178636-55.306927 80.438251-40.804622 121.06272-40.08401 35.039731 0.720611 60.171054 7.386267 59.540519 47.109972-0.450382 24.140483 3.78321 52.514558-20.807655 66.206175-19.006126 10.629019-119.351268 9.638178-138.447471-1.711452-12.664746-7.503366-21.348114-19.420478-26.032088-35.760343z" fill="#9EBED1" /><path d="M740.83647 837.086736c64.134417 18.91605 96.291702 84.221461 60.711513 141.780298-38.372559 62.242812-132.502426 56.567997-162.587954-8.287031-26.932852-58.00922 3.963363-114.577217 63.593959-133.493267h38.282482z" fill="#4F697D" /><path d="M270.637513 764.84544l-9.728255-2.251911c-2.296949-0.504428-3.963363-3.395881-3.963362-6.935885l0.720611-74.763435a3.963363 3.963363 0 0 1 1.387177-3.035576 4.332676 4.332676 0 0 1 3.296797-1.008856c24.861094 2.576186 47.470278 10.412835 67.827551 23.509948 0.999848 0.64855 1.666414 1.693437 1.828552 2.846415a3.684126 3.684126 0 0 1-1.017864 3.098629l-55.937462 57.198532a4.819089 4.819089 0 0 1-4.413745 1.351147zM219.113796 681.794973l-0.900765 78.546646c-0.180153 13.87177-6.125197 14.835588-17.835132 2.882445l-49.902342-50.622952a3.918325 3.918325 0 0 1-1.080917-3.152675 4.485806 4.485806 0 0 1 1.711452-3.062599c19.942921-15.673299 41.408134-24.951171 64.404646-27.833616a3.242751 3.242751 0 0 1 3.603058 3.242751zM298.831435 794.210356l60.53136-62.152736a4.008401 4.008401 0 0 1 3.17069-1.170993c1.198016 0.090076 2.341987 0.684581 3.13466 1.621375 17.357728 20.48338 28.103846 44.047374 32.247361 70.709997a4.017409 4.017409 0 0 1-0.855726 3.197713 3.828248 3.828248 0 0 1-2.927484 1.405192l-89.26574-0.090076c-12.844899 0-14.862611-4.503821-6.035121-13.511465zM127.055686 742.416409l48.821424 49.361883a9.728254 9.728254 0 0 1-6.935885 16.574063l-69.448926-0.450382a9.728254 9.728254 0 0 1-8.917567-13.511464l20.537426-48.911501a9.728254 9.728254 0 0 1 15.943528-3.062599zM171.643518 845.914226c13.574518 0.243206 15.646276 5.04428 6.215273 14.412228l-58.00922 58.00922a3.729164 3.729164 0 0 1-3.01756 1.10794 3.927332 3.927332 0 0 1-2.837407-1.639391c-14.349175-20.780632-22.726283-43.633022-25.131324-68.548162a4.43176 4.43176 0 0 1 1.044887-3.35985 4.053439 4.053439 0 0 1 3.098629-1.4142l78.636722 1.441222zM363.77654 926.983012c-18.465668-16.123681-53.865704-47.200049-66.926787-67.917628-5.99909-9.602147-3.47695-14.376198 7.56642-14.322152l91.157346 0.450382a3.963363 3.963363 0 0 1 3.044583 1.396185c0.774657 0.900764 1.143971 2.089773 1.008856 3.296797-2.882446 28.644304-12.754822 54.135934-29.635145 76.474888a4.188554 4.188554 0 0 1-2.936491 1.657406 4.368707 4.368707 0 0 1-3.278782-1.026871zM217.762649 891.853204c0.990841 28.644304 0.810688 59.27029 2.161834 89.986352a3.693134 3.693134 0 0 1-4.323668 3.78321 144.194347 144.194347 0 0 1-70.800073-32.51759 4.188554 4.188554 0 0 1-1.522292-3.062599 4.368707 4.368707 0 0 1 1.26107-3.242751l59.900825-60.351207c8.52123-8.52123 12.971006-6.719702 13.331312 5.404585zM337.474223 953.195252a3.963363 3.963363 0 0 1-0.450382 5.945044c-22.456054 15.853451-47.6144 25.37453-75.484048 28.554228a4.008401 4.008401 0 0 1-3.152675-1.035879 4.197562 4.197562 0 0 1-1.351146-3.098629l-0.360306-92.05811c0-12.493601 3.909317-14.862611 11.709936-7.116038l69.088621 68.818392z" fill="#9EBED1" /></svg>