<?xml version="1.0" standalone="no"?><!DOCTYPE svg PUBLIC "-//W3C//DTD SVG 1.1//EN" "http://www.w3.org/Graphics/SVG/1.1/DTD/svg11.dtd"><svg class="icon" width="200px" height="200.00px" viewBox="0 0 1024 1024" version="1.1" xmlns="http://www.w3.org/2000/svg"><path d="M271.797469 69.049108c-11.812289-4.181175-23.812074-3.806182-35.999356 1.12498-0.281245-10.124819-3.468688-100.498202 33.936893-59.623933 2.109337 2.353083 3.243692 5.343654 3.187443 8.343601l-1.12498 50.155352z" fill="#4F697D" /><path d="M765.101143 128.391797l-26.530776 26.624523-41.436758 43.686718a82.16103 82.16103 0 0 0-23.437081 32.811913 102.748162 102.748162 0 0 0-19.124658 51.936571 72.795573 72.795573 0 0 0-6.281137 46.874161 202.177633 202.177633 0 0 0-0.374994 69.936249l-37.499329-2.343708c-22.874591-168.465736 66.186316-235.027045 174.278132-343.775099 2.24996-2.24996 5.053035-3.665559 7.968607-4.031178 17.559061-1.996839 25.180799 5.531151 22.874591 22.593346-0.365618 2.728076-1.856217 5.512401-4.218674 7.874859l-46.217923 47.811645z" fill="#DC1C4B" /><path d="M271.797469 69.049108l51.561577 37.968071c2.240585 1.640596 3.562436 4.537419 3.562437 7.781111l-0.468742 46.780413c-30.561953-8.249852-47.811645 12.468527-74.998658 23.343332-19.190282-20.493383-41.530507-27.993249-67.030051-22.499597-2.878074-18.684041-1.724969-37.593077 3.468688-56.717736 0.590614-2.278084 2.512455-4.640542 5.343655-6.562382l42.561738-28.968232c12.187282-4.931162 24.187067-5.306155 35.999356-1.12498z" fill="#53A0DF" /><path d="M765.101143 128.391797l159.372148 155.434718-27.749503 27.749504-158.153421-156.559699z" fill="#4F697D" /><path d="M251.454083 184.922035c-23.877698 35.061873-23.905822 69.973748-0.093748 104.716876l-30.18696 21.28087c-42.186745 3.440563-74.004926-12.965393-95.435793-49.21787 5.118658-16.555954 6.40301-32.024427 3.843682-46.405419-2.006214-10.809182 2.653078-19.780896 13.9685-26.905769l40.874268-25.968285c25.499544-5.493652 47.839769 2.006214 67.030051 22.499597z" fill="#DC1C4B" /><path d="M326.452741 161.578703l44.342957 28.218245c5.87802 3.796807 9.48733 9.21546 9.562329 14.343493l0.749986 55.874c-1.068731 13.499758-7.443617 23.783949-19.124658 30.843199l-47.249154 23.43708a10.031071 10.031071 0 0 1-8.718594 0.281245l-54.655272-24.937054c-23.812074-34.743128-23.783949-69.655004 0.093748-104.716876 27.187014-10.874805 44.436705-31.593185 74.998658-23.343332z" fill="#FD8C35" /><path d="M697.133609 198.703038l154.684732 155.434719-30.093211 20.71838-148.028602-143.341186a82.16103 82.16103 0 0 1 23.437081-32.811913z" fill="#4F697D" /><path d="M652.603156 440.854956a88.714038 88.714038 0 0 0-39.843038-2.343708 400.539708 400.539708 0 0 0-93.748322-9.374833 142.469326 142.469326 0 0 0-51.561578 7.031125c-23.812074 6.69363-37.874322 22.068355-42.186745 46.124174-8.999839 13.312262-12.787271 28.283869-11.343547 44.905447a380.149448 380.149448 0 0 0 7.031124 105.466863l-0.468741 38.53056c8.306101 61.255154 1.246853 118.49788-21.187121 171.746927-22.874591 54.561524-90.185886 109.498041-133.02887 151.216045-12.187282 11.812289-15.937215 24.187067-37.124336 15.374725-13.687255-5.746772-14.53099-14.746611-2.531204-26.999517l44.342956-45.186692a84.129745 84.129745 0 0 0 27.749504-27.749503l40.21803-42.561739a65.276957 65.276957 0 0 0 22.687094-32.811913 139.816248 139.816248 0 0 0 18.749665-53.905285l4.687416-51.561577c1.874966-20.746504 0.431242-41.183638-4.312423-61.311403a67.90191 67.90191 0 0 0-2.343708-39.093051c-2.128087-38.249316-2.409332-76.433007-0.843735-114.56045 5.437403-133.310115 138.278776-132.278883 232.870833-115.872927l37.499329 2.343708c24.87143 6.187389 49.874108 6.974875 74.998658 2.343708a100.385704 100.385704 0 0 0 42.186746-7.031124 102.560665 102.560665 0 0 0 56.623987-20.718379l30.093211-20.71838 44.905447-42.561738 27.749503-27.749504 48.280386-46.592916a11.249799 11.249799 0 0 1 8.156104-3.187443c15.430974 0.628114 22.030856 8.624846 19.780896 23.999571a13.546633 13.546633 0 0 1-4.218674 7.687362c-36.814966 35.436866-73.47056 70.911231-109.966783 106.404346-66.092567 64.311349-145.122403 73.967427-233.902064 68.717521z" fill="#53A0DF" /><path d="M99.488052 274.451683c-12.88102 7.190496-20.812128 17.999678-23.812074 32.43692l-47.249154-37.124336c-2.531205-1.987464-4.237424-4.687416-4.781165-7.593614-3.131194-15.187228 3.309316-22.968339 19.312155-23.343332 2.409332-0.056249 5.371779 1.003107 8.3436 2.999946l48.186638 32.624416z" fill="#4F697D" /><path d="M125.737582 261.701911c21.430867 36.252476 53.249047 52.658433 95.435793 49.21787 2.306209 18.374671 1.031232 37.218084-3.843681 56.530238-0.656238 2.643703-2.54058 5.099909-5.249906 6.843628l-46.96791 31.405688a50.202227 50.202227 0 0 1-34.780628-2.718702l-47.717896-32.905661c-1.996839-1.349976-3.290566-4.181175-3.468688-7.593614l-3.468688-55.592755c2.999946-14.437242 10.931054-25.246423 23.812074-32.43692l26.24953-12.749772z" fill="#FD8C35" /><path d="M381.108013 260.014441c13.031017 7.218621 88.87341 42.749235 32.343172 58.68645-2.634328 0.778111-5.709273 0.262495-8.43735-1.406224l-43.03048-26.437027c11.681041-7.059249 18.055927-17.34344 19.124658-30.843199zM654.57187 283.451522l110.529273 112.122994a100.385704 100.385704 0 0 1-42.186746 7.031124l-74.623664-72.279957a72.795573 72.795573 0 0 1 6.281137-46.874161zM130.33125 402.980633c11.249799 5.062409 22.837091 5.971768 34.780628 2.718702l2.531205 48.561631c0.112498 2.756201-1.10623 5.699898-3.37494 8.156104-40.030534 43.217977-34.218138-49.124121-33.936893-59.436437zM519.011796 429.136415l100.779447 103.123155a117.194778 117.194778 0 0 1-5.06241 48.842876l-147.278615-144.934906a142.469326 142.469326 0 0 1 51.561578-7.031125z" fill="#4F697D" /><path d="M652.603156 440.854956c24.749557 195.465253-33.186906 255.089186-232.120847 230.339628l0.468741-38.53056 107.435578 4.312423a89.107781 89.107781 0 0 0 42.186745-10.968554c22.93084-6.806128 37.649326-21.777735 44.15546-44.905447 5.118658-15.805967 6.806128-32.090051 5.06241-48.842876a340.240787 340.240787 0 0 0-7.031125-93.748322 88.714038 88.714038 0 0 1 39.843038 2.343708z" fill="#DC1C4B" /><path d="M425.263473 482.291714l145.3099 143.716179a89.107781 89.107781 0 0 1-42.186745 10.968554l-114.466702-109.779286c-1.443724-16.621578 2.343708-31.593185 11.343547-44.905447z" fill="#4F697D" /><path d="M917.067174 674.850769l-37.124336 7.406117c-106.873088-16.312208-40.405527-169.403219 39.468044-111.466755 37.780574 27.468259 32.905661 75.373651-2.343708 104.060638z" fill="#53A0DF" /><path d="M378.389312 628.351601a67.90191 67.90191 0 0 1 2.343708 39.093051l-58.592702-1.593722a143.434934 143.434934 0 0 0-51.561577 4.687416c-19.752772 1.499973-37.846198 7.631113-54.280279 18.374671a84.204743 84.204743 0 0 0-34.780628 23.062088l-42.561738 42.561738-25.405796 25.405796-47.436651 44.999195a10.406064 10.406064 0 0 1-8.156104 2.812449c-29.343225-2.999946-23.155836-23.999571-8.343601-38.718057 34.058766-33.871269 68.089407-67.808162 102.091924-101.810678 55.31151-55.31151 145.028655-63.936356 226.683444-58.873947z" fill="#DC1C4B" /><path d="M795.663096 727.443578c-0.506241 13.443509-5.221782 26.24953-14.155997 38.436812-47.999141 42.561738-123.747786 3.37494-104.904373-60.092675 19.687148-66.186316 117.560397-53.717789 119.06037 21.655863z" fill="#FD8C35" /><path d="M322.140318 665.85093a360.968541 360.968541 0 0 0 62.905125 62.905125l-4.687416 51.561577-109.779286-109.779286a143.434934 143.434934 0 0 1 51.561577-4.687416zM917.067174 674.850769l14.437241 51.186584-39.468044 5.06241-12.093533-48.842877zM216.298462 688.913017l145.3099 145.3099a65.276957 65.276957 0 0 1-22.687094 32.811913l-157.403434-155.059725a84.204743 84.204743 0 0 1 34.780628-23.062088zM795.663096 727.443578a263.451536 263.451536 0 0 0 72.561202 20.437134l-14.062249 36.749343-72.65495-18.749665c8.934215-12.187282 13.649756-24.993303 14.155997-38.436812z" fill="#4F697D" /><path d="M931.504415 726.037353c61.620772 36.693093 63.842608 77.436114 6.656131 122.247813h-39.09305c-26.755771-12.684148-41.718004-33.899393-44.905447-63.655111l14.062249-36.749343 23.812073-16.780949 39.468044-5.06241z" fill="#FD8C35" /><path d="M138.956096 754.536843l159.747142 155.059726a84.129745 84.129745 0 0 1-27.749504 27.749503l-157.403434-157.403433 25.405796-25.405796zM899.067496 848.285166h39.09305l-16.405956 60.93641-36.561846-10.312316z" fill="#4F697D" /><path d="M885.192744 898.90926l36.561846 10.312316c84.748484 74.998658-42.280493 164.247061-83.717252 81.842285-21.815235-43.433598-6.093641-74.154923 47.155406-92.154601z" fill="#53A0DF" /></svg>