<?xml version="1.0" standalone="no"?><!DOCTYPE svg PUBLIC "-//W3C//DTD SVG 1.1//EN" "http://www.w3.org/Graphics/SVG/1.1/DTD/svg11.dtd"><svg class="icon" width="200px" height="200.00px" viewBox="0 0 1024 1024" version="1.1" xmlns="http://www.w3.org/2000/svg"><path d="M771.749783 143.081138c27.829997 50.902503 42.067163 104.629491 42.720325 161.172136 0.044133 4.060196-1.526987 7.970342-4.360298 10.856611-2.833311 2.88627-6.70815 4.501522-10.73304 4.501522l-574.517763-0.264795c-11.297937 0-16.717417-5.701928-16.240784-17.123436 2.294894-57.134022 17.238181-110.772744 44.838688-160.907341 141.135951-189.681775 374.862028-187.739942 518.292872 1.765303zM494.332464 37.957362c-35.482584 0.061786-68.58201 8.888299-99.298277 26.47954a66.878493 66.878493 0 0 0-30.892797 19.153535c-31.192899 17.423538-55.28928 42.25252-72.289145 74.495774-9.356104 6.593406-14.687318 16.32905-15.97599 29.215759-17.653027 28.306629-26.338316 59.13764-26.038214 92.501861 0.044133 2.533209 2.030098 4.554481 4.413256 4.501522l180.502201-1.412242 154.463986 1.500507c60.311567 3.883666 120.658439 4.095502 181.031791 0.617856a4.589787 4.589787 0 0 0 4.324992-4.678052c-0.17653-33.478966-9.003044-64.486507-26.47954-93.031452-0.767907-13.06324-6.655191-22.622354-17.653027-28.686169-15.305174-33.478966-39.454515-58.369734-72.465676-74.672304-6.831721-10.291715-16.390836-16.178999-28.686169-17.653027-31.016368-19.471289-64.963139-29.153974-101.857965-29.039229a52.208827 52.208827 0 0 0-33.099426 0.706121z" fill="#82ABC4" /><path d="M253.456911 141.315835c-27.600508 50.134597-42.543795 103.773319-44.838688 160.907341-0.476632 11.421508 4.942848 17.123436 16.240784 17.123436l574.517763 0.264795c4.033717 0 7.89973-1.615252 10.73304-4.501522 2.833311-2.88627 4.40443-6.796415 4.360298-10.856611-0.653162-56.542645-14.890328-110.269633-42.720325-161.172136 30.010146-4.642746 59.631925-6.090294 88.88299-4.324992 75.731486 4.678052 92.678392 52.959081 92.678392 122.688537 0 210.424081 0.02648 420.883469 0.088265 631.36051 0 88.618195-18.800474 131.073725-111.831926 131.073725-214.369533 0.123571-428.739066 0.150051-643.099772 0.088265-84.822795-0.088265-127.54312-19.41833-127.631385-108.654381C70.598031 697.42149 70.536246 479.494872 70.659817 261.532949c0.088265-129.838013 72.112615-129.396688 182.797094-120.217114z m611.412589 329.140688c0-50.063984-40.584309-90.648293-90.648294-90.648294h-520.411234c-50.063984 0-90.648293 40.584309-90.648294 90.648294v374.597232c0 50.063984 40.584309 90.648293 90.648294 90.648293h520.411234c50.063984 0 90.648293-40.584309 90.648294-90.648293V470.456523z" fill="#4F697D" /><path d="M527.43189 37.251241c4.466216 14.069462 3.64535 27.485763-2.471424 40.248901-1.297497 2.586168-3.565911 4.501522-6.266825 5.295909-30.010146 8.826513-24.449442-29.039229-24.361177-44.838689a52.208827 52.208827 0 0 1 33.099426-0.706121z" fill="#4F697D" /><path d="M629.289855 66.29047l-14.740277 26.744336c-1.306324 2.444944-1.588772 5.472438-0.794387 8.473453 11.386202 40.955023 38.836659-5.472438 44.220833-17.564762 33.01116 16.30257 57.160501 41.193338 72.465676 74.672304-13.857626 5.119378-50.222862 27.273927-19.153535 43.073386 2.877443 1.438722 5.94907 1.571119 8.208658 0.353061l28.597904-14.740278c17.476497 28.544945 26.30301 59.552486 26.47954 93.031452a4.589787 4.589787 0 0 1-4.324992 4.678052c-60.373352 3.477646-120.720225 3.26581-181.031791-0.617856-14.475482-47.751438-27.450457-107.77173-55.783565-149.168077-10.830132-15.825939-22.242814-18.032567-34.246873-6.619886-35.835645 33.982077-49.428475 107.506934-64.433548 154.287456l-180.502201 1.412242c-2.383159 0.052959-4.369124-1.968313-4.413256-4.501522-0.300101-33.364221 8.385188-64.195233 26.038214-92.501861l26.832601 14.740278c2.286067 1.279844 5.295908 0.891478 7.590802-0.970917 22.119243-18.182618 15.975989-32.508049-18.447413-42.98512 16.999865-32.243254 41.096247-57.072236 72.289145-74.495774l17.653027 27.450457c1.632905 2.427291 4.095502 4.060196 6.796415 4.501522 10.291715 1.650558 17.388232-2.383159 21.271898-12.092324 1.120967-2.736219 1.059182-5.763713-0.17653-8.296923l-14.652013-30.716267c30.716267-17.591241 63.815692-26.417755 99.298277-26.47954-0.088265 15.799459-5.648969 53.665202 24.361177 44.838689 2.700913-0.794386 4.969327-2.70974 6.266825-5.295909 6.116774-12.763138 6.93764-26.179439 2.471424-40.248901 36.894826-0.114745 70.841597 9.567941 101.857965 29.039229z" fill="#C8DAE5" /><path d="M395.034187 64.436902l14.652013 30.716267c1.235712 2.533209 1.297497 5.560703 0.17653 8.296923-3.883666 9.709165-10.980183 13.742881-21.271898 12.092324a10.327021 10.327021 0 0 1-6.796415-4.501522l-17.653027-27.450457a66.878493 66.878493 0 0 1 30.892797-19.153535zM629.289855 66.29047c12.295333 1.474028 21.854447 7.361312 28.686169 17.653027-5.384173 12.092323-32.83463 58.519784-44.220833 17.564762-0.794386-3.001015-0.511938-6.028509 0.794387-8.473453l14.740277-26.744336zM589.217484 284.393618l-154.463986-1.500507c15.005073-46.780521 28.597904-120.305379 64.433548-154.287456 12.004058-11.412682 23.41674-9.206054 34.246873 6.619886 28.333108 41.396348 41.308083 101.41664 55.783565 149.168077zM291.852245 158.086211c34.423403 10.477072 40.566656 24.802503 18.447413 42.98512-2.294894 1.862394-5.304735 2.250761-7.590802 0.970917l-26.832601-14.740278c1.288671-12.88671 6.619885-22.622354 15.97599-29.215759zM730.4417 158.615801c10.997836 6.063815 16.88512 15.622929 17.653027 28.686169l-28.597904 14.740278c-2.259587 1.218059-5.331214 1.085661-8.208658-0.353061-31.069327-15.799459 5.295908-37.954008 19.153535-43.073386z" fill="#4F697D" /><path d="M864.8695 845.053755c0 50.063984-40.584309 90.648293-90.648294 90.648293h-520.411234c-50.063984 0-90.648293-40.584309-90.648294-90.648293V470.456523c0-50.063984 40.584309-90.648293 90.648294-90.648294h520.411234c50.063984 0 90.648293 40.584309 90.648294 90.648294v374.597232z m-520.764295-343.527905a50.840718 50.840718 0 1 0-101.681436 0 50.840718 50.840718 0 0 0 101.681436 0z m437.530273 0.088265a50.928983 50.928983 0 1 0-101.857966 0 50.928983 50.928983 0 0 0 101.857966 0z m-437.530273 309.457563a50.840718 50.840718 0 1 0-101.681436 0 50.840718 50.840718 0 0 0 101.681436 0z m437.530273 0.088265a50.840718 50.840718 0 1 0-101.681435 0 50.840718 50.840718 0 0 0 101.681435 0z" fill="#C8DAE5" /><path d="M293.264487 501.52585m-50.840718 0a50.840718 50.840718 0 1 0 101.681436 0 50.840718 50.840718 0 1 0-101.681436 0Z" fill="#82ABC4" /><path d="M730.706495 501.614115m-50.928983 0a50.928983 50.928983 0 1 0 101.857966 0 50.928983 50.928983 0 1 0-101.857966 0Z" fill="#82ABC4" /><path d="M293.264487 811.071678m-50.840718 0a50.840718 50.840718 0 1 0 101.681436 0 50.840718 50.840718 0 1 0-101.681436 0Z" fill="#82ABC4" /><path d="M730.79476 811.159943m-50.840717 0a50.840718 50.840718 0 1 0 101.681435 0 50.840718 50.840718 0 1 0-101.681435 0Z" fill="#82ABC4" /></svg>