<?xml version="1.0" standalone="no"?><!DOCTYPE svg PUBLIC "-//W3C//DTD SVG 1.1//EN" "http://www.w3.org/Graphics/SVG/1.1/DTD/svg11.dtd"><svg class="icon" width="200px" height="200.00px" viewBox="0 0 1024 1024" version="1.1" xmlns="http://www.w3.org/2000/svg"><path d="M96.4 364.2h830.3v529.5H96.4z" fill="#FFFFFF" /><path d="M926.7 901.7h-16v-16h16v16z m-32 0h-16v-16h16v16z m-32 0h-16v-16h16v16z m-32 0h-16v-16h16v16z m-32 0h-16v-16h16v16z m-32 0h-16v-16h16v16z m-32 0h-16v-16h16v16z m-32 0h-16v-16h16v16z m-32 0h-16v-16h16v16z m-32 0h-16v-16h16v16z m-32 0h-16v-16h16v16z m-32 0h-16v-16h16v16z m-32 0h-16v-16h16v16z m-32 0h-16v-16h16v16z m-32 0h-16v-16h16v16z m-32 0h-16v-16h16v16z m-32 0h-16v-16h16v16z m-32 0h-16v-16h16v16z m-32 0h-16v-16h16v16z m-32 0h-16v-16h16v16z m-32 0h-16v-16h16v16z m-32 0h-16v-16h16v16z m-32 0h-16v-16h16v16z m-32 0h-16v-16h16v16z m-32 0h-16v-16h16v16z m-32 0h-16v-16h16v16z m-22.3-9.7h-16v-16h16v16z m830.3-13.9h-16v-16h16v16zM104.4 860h-16v-16h16v16z m830.3-13.9h-16v-16h16v16zM104.4 828h-16v-16h16v16z m830.3-13.9h-16v-16h16v16zM104.4 796h-16v-16h16v16z m830.3-13.9h-16v-16h16v16zM104.4 764h-16v-16h16v16z m830.3-13.9h-16v-16h16v16zM104.4 732h-16v-16h16v16z m830.3-13.9h-16v-16h16v16zM104.4 700h-16v-16h16v16z m830.3-13.9h-16v-16h16v16zM104.4 668h-16v-16h16v16z m830.3-13.9h-16v-16h16v16zM104.4 636h-16v-16h16v16z m830.3-13.9h-16v-16h16v16zM104.4 604h-16v-16h16v16z m830.3-13.9h-16v-16h16v16zM104.4 572h-16v-16h16v16z m830.3-13.9h-16v-16h16v16zM104.4 540h-16v-16h16v16z m830.3-13.9h-16v-16h16v16zM104.4 508h-16v-16h16v16z m830.3-13.9h-16v-16h16v16zM104.4 476h-16v-16h16v16z m830.3-13.9h-16v-16h16v16zM104.4 444h-16v-16h16v16z m830.3-13.9h-16v-16h16v16zM104.4 412h-16v-16h16v16z m830.3-13.9h-16v-16h16v16zM104.4 380h-16v-23.8h8.2v8h7.8V380z m822.3-7.8h-14.1v-16h22.1v9.9h-8v6.1z m-30.1 0h-16v-16h16v16z m-32 0h-16v-16h16v16z m-32 0h-16v-16h16v16z m-32 0h-16v-16h16v16z m-32 0h-16v-16h16v16z m-32 0h-16v-16h16v16z m-32 0h-16v-16h16v16z m-32 0h-16v-16h16v16z m-32 0h-16v-16h16v16z m-32 0h-16v-16h16v16z m-32 0h-16v-16h16v16z m-32 0h-16v-16h16v16z m-32 0h-16v-16h16v16z m-32 0h-16v-16h16v16z m-32 0h-16v-16h16v16z m-32 0h-16v-16h16v16z m-32 0h-16v-16h16v16z m-32 0h-16v-16h16v16z m-32 0h-16v-16h16v16z m-32 0h-16v-16h16v16z m-32 0h-16v-16h16v16z m-32 0h-16v-16h16v16z m-32 0h-16v-16h16v16z m-32 0h-16v-16h16v16z m-32 0h-16v-16h16v16z" fill="#0A0408" /><path d="M172.6 438.3h677.8v381.4H172.6z" fill="#F4BE6F" /><path d="M96.4 258.8h830.3v105.9H96.4z" fill="#55B7A8" /><path d="M934.7 372.7H88.4V250.8h846.3v121.9z m-830.3-16h814.3v-89.9H104.4v89.9z" fill="#0A0408" /><path d="M457.3 107.2h108.5v203.7H457.3z" fill="#EBB866" /><path d="M573.8 318.9H449.3V99.2h124.5v219.7z m-108.5-16h92.5V115.2h-92.5v187.7z" fill="#0A0408" /><path d="M308.7 560.2m-65.9 0a65.9 65.9 0 1 0 131.8 0 65.9 65.9 0 1 0-131.8 0Z" fill="#FFFFFF" /><path d="M308.7 634.1c-40.8 0-73.9-33.2-73.9-73.9s33.2-73.9 73.9-73.9 73.9 33.2 73.9 73.9-33.1 73.9-73.9 73.9z m0-131.9c-32 0-57.9 26-57.9 57.9s26 57.9 57.9 57.9 57.9-26 57.9-57.9-25.9-57.9-57.9-57.9z" fill="#0A0408" /><path d="M418.7 767.9c0-60.7-49.2-109.9-109.9-109.9s-109.9 49.2-109.9 109.9h219.8z" fill="#FFFFFF" /><path d="M426.7 775.9H190.8v-8c0-65 52.9-117.9 117.9-117.9s117.9 52.9 117.9 117.9v8z m-219.6-16h203.3c-4.1-52.5-48.1-93.9-101.6-93.9s-97.6 41.4-101.7 93.9zM457.3 662.8h313.9v16H457.3zM457.3 751.2h261.8v16H457.3z" fill="#0A0408" /><path d="M457.3 512.7h313.9v65.9H457.3z" fill="#FFFFFF" /><path d="M779.2 586.7H449.3v-81.9h329.9v81.9z m-313.9-16h297.9v-49.9H465.3v49.9z" fill="#0A0408" /><path d="M512 258.6m-20.3 0a20.3 20.3 0 1 0 40.6 0 20.3 20.3 0 1 0-40.6 0Z" fill="#FFFFFF" /><path d="M512 287c-15.6 0-28.3-12.7-28.3-28.3s12.7-28.3 28.3-28.3 28.3 12.7 28.3 28.3S527.6 287 512 287z m0-40.7c-6.8 0-12.3 5.5-12.3 12.3S505.2 271 512 271s12.3-5.5 12.3-12.3-5.5-12.4-12.3-12.4z" fill="#0A0408" /><path d="M71.5 868.8h49.8v49.8H71.5z" fill="#DC504F" /><path d="M129.2 926.6H63.5v-65.8h65.8v65.8z m-49.7-16h33.8v-33.8H79.5v33.8z" fill="#0A0408" /><path d="M899.4 868.8h49.8v49.8h-49.8z" fill="#DC504F" /><path d="M957.1 926.6h-65.8v-65.8h65.8v65.8z m-49.7-16h33.8v-33.8h-33.8v33.8z" fill="#0A0408" /></svg>