<?xml version="1.0" standalone="no"?><!DOCTYPE svg PUBLIC "-//W3C//DTD SVG 1.1//EN" "http://www.w3.org/Graphics/SVG/1.1/DTD/svg11.dtd"><svg class="icon" width="200px" height="200.00px" viewBox="0 0 1024 1024" version="1.1" xmlns="http://www.w3.org/2000/svg"><path d="M503.4 960.8c-5.4-0.1-10.8-0.3-16.2-0.6l0.8-16c5.2 0.3 10.4 0.5 15.6 0.5l-0.2 16.1z m16.2 0l-0.3-16c5.2-0.1 10.4-0.3 15.6-0.6l0.9 16c-5.4 0.3-10.9 0.5-16.2 0.6z m-48.6-1.7c-5.4-0.5-10.8-1.1-16.1-1.7l2-15.9c5.1 0.6 10.4 1.2 15.5 1.7l-1.4 15.9z m80.9-0.1l-1.4-15.9c5.2-0.5 10.4-1 15.5-1.7l2 15.9c-5.3 0.7-10.7 1.2-16.1 1.7z m-113-4c-5.3-0.9-10.7-1.8-15.9-2.9l3.1-15.7c5.1 1 10.3 2 15.4 2.8l-2.6 15.8z m145.2 0l-2.6-15.8c5.1-0.8 10.3-1.8 15.4-2.8l3.1 15.7c-5.3 1-10.6 2-15.9 2.9z m-177-6.3c-5.2-1.2-10.5-2.6-15.7-4l4.3-15.4c5 1.4 10.1 2.7 15.1 3.9l-3.7 15.5z m208.7-0.1l-3.7-15.6c5.1-1.2 10.1-2.5 15.1-3.9l4.3 15.4c-5.2 1.5-10.4 2.8-15.7 4.1z m-239.9-8.5c-5.1-1.6-10.3-3.4-15.4-5.2l5.4-15.1c4.9 1.7 9.9 3.4 14.9 5l-4.9 15.3z m271.1-0.2l-4.8-15.3c4.9-1.6 9.9-3.2 14.8-5l5.4 15.1c-5.1 1.9-10.2 3.6-15.4 5.2z m-301.7-10.7c-5-2-10-4.1-15-6.3l6.5-14.6c4.8 2.1 9.6 4.1 14.4 6.1l-5.9 14.8z m332.2-0.2l-5.9-14.9c4.8-1.9 9.6-3.9 14.4-6l6.5 14.6c-5 2.2-10 4.3-15 6.3z m-361.9-13c-4.8-2.3-9.7-4.8-14.5-7.3l7.5-14.1c4.6 2.4 9.3 4.8 14 7.1l-7 14.3z m391.5 0l-7-14.4c4.6-2.3 9.3-4.6 13.9-7.1l7.5 14.1c-4.7 2.6-9.6 5-14.4 7.4z m-420.2-15.2c-4.7-2.7-9.3-5.5-13.9-8.4l8.5-13.6c4.4 2.8 8.9 5.5 13.4 8.1l-8 13.9z m448.8 0l-8-13.8c4.5-2.6 9-5.3 13.4-8.1l8.5 13.6c-4.6 2.8-9.3 5.6-13.9 8.3z m27.4-17.2l-9-13.2c4.3-2.9 8.6-5.9 12.8-9l9.5 12.9c-4.4 3.1-8.9 6.3-13.3 9.3z m-503.7 0c-4.4-3-8.9-6.2-13.2-9.4l9.5-12.9c4.2 3.1 8.5 6.1 12.8 9l-9.1 13.3z m529.8-19.1l-9.9-12.6c4.1-3.2 8.1-6.5 12.1-9.9l10.4 12.2c-4.2 3.5-8.4 6.9-12.6 10.3z m-555.9-0.1c-4.2-3.3-8.4-6.8-12.5-10.3l10.4-12.2c3.9 3.4 8 6.7 12.1 9.9l-10 12.6z m580.5-20.9L803 831.7c3.8-3.5 7.6-7.1 11.3-10.7l11.2 11.4c-3.7 3.7-7.7 7.5-11.7 11.1z m-605.2-0.1c-4-3.6-7.9-7.4-11.8-11.1l11.2-11.4c3.7 3.6 7.5 7.3 11.3 10.7l-10.7 11.8zM837 820.8l-11.6-11c3.6-3.8 7.1-7.6 10.5-11.5l12 10.6c-3.6 4-7.2 8-10.9 11.9z m-651.5-0.1c-3.7-3.9-7.4-7.9-10.9-12l12-10.6c3.4 3.9 7 7.8 10.5 11.5l-11.6 11.1z m672.9-24.2L846 786.4c3.3-4 6.5-8.1 9.7-12.3l12.7 9.7c-3.2 4.3-6.6 8.6-10 12.7z m-694.4-0.1c-3.4-4.2-6.8-8.4-10-12.7l12.7-9.7c3.1 4.1 6.4 8.2 9.7 12.2L164 796.4z m714-25.7l-13.1-9.2c3-4.2 6-8.6 8.8-12.9l13.4 8.8c-2.9 4.4-6 8.9-9.1 13.3z m-733.6 0c-3.1-4.4-6.2-8.9-9.1-13.4l13.4-8.8c2.8 4.3 5.8 8.7 8.8 12.9l-13.1 9.3z m-17.7-27.1c-2.8-4.6-5.5-9.3-8.1-14l14-7.8c2.5 4.5 5.1 9.1 7.8 13.5l-13.7 8.3z m769.1 0l-13.7-8.3c2.7-4.5 5.3-9 7.8-13.5l14 7.8c-2.6 4.6-5.3 9.4-8.1 14zM111 715.3c-2.4-4.8-4.8-9.7-7.1-14.5l14.5-6.7c2.2 4.7 4.5 9.4 6.8 14l-14.2 7.2z m800.5-0.1l-14.3-7.3c2.4-4.6 4.7-9.4 6.8-14.1l14.5 6.7c-2.1 5-4.5 9.9-7 14.7zM97.4 686c-2.1-4.9-4.1-10-6-15l15-5.7c1.8 4.8 3.8 9.7 5.8 14.5L97.4 686z m827.8-0.3l-14.8-6.2c2-4.8 4-9.7 5.8-14.5l15 5.7c-1.9 5-3.9 10.1-6 15zM86 655.8c-1.7-5.1-3.4-10.3-4.9-15.4l15.3-4.6c1.5 5 3.1 10 4.7 14.9L86 655.8z m850.7-0.5l-15.2-5.1c1.7-4.9 3.2-9.9 4.7-14.9l15.3 4.5c-1.5 5.2-3.1 10.4-4.8 15.5z m-860-30.6c-1.3-5.2-2.6-10.5-3.8-15.8l15.6-3.4c1.1 5.1 2.3 10.2 3.6 15.2l-15.4 4z m869.2-0.4l-15.5-4c1.3-5 2.5-10.1 3.6-15.2l15.6 3.4c-1.1 5.3-2.4 10.6-3.7 15.8zM69.8 593.1c-1-5.3-1.8-10.7-2.6-16l15.8-2.3c0.7 5.1 1.6 10.3 2.5 15.4l-15.7 2.9z m883-0.5l-15.7-2.9c0.9-5.1 1.8-10.3 2.5-15.4l15.8 2.3c-0.8 5.4-1.6 10.7-2.6 16zM65.1 561c-0.6-5.3-1.1-10.8-1.5-16.1l16-1.2c0.4 5.2 0.8 10.4 1.4 15.6L65.1 561z m892.3-0.4l-15.9-1.7c0.6-5.2 1-10.4 1.4-15.6l16 1.1c-0.4 5.4-0.9 10.8-1.5 16.2zM62.8 528.7c-0.2-5.4-0.3-10.8-0.3-16.2h16c0 5.2 0.1 10.5 0.3 15.6l-16 0.6z m896.9-0.4l-16-0.6c0.2-5.2 0.3-10.4 0.3-15.6v-0.9l16-0.1v0.9c0 5.4-0.1 10.9-0.3 16.3z m-881-31.4l-16-0.6c0.2-5.4 0.5-10.8 0.8-16.2l16 1.1c-0.3 5.2-0.6 10.5-0.8 15.7z m865-1.3c-0.2-5.2-0.5-10.4-0.9-15.6l16-1.2c0.4 5.4 0.7 10.8 0.9 16.2l-16 0.6zM80.9 465.7L65 464c0.6-5.3 1.2-10.8 2-16.1l15.8 2.3c-0.7 5.1-1.3 10.3-1.9 15.5z m860.5-1.3c-0.6-5.2-1.2-10.4-2-15.5l15.8-2.3c0.8 5.3 1.5 10.7 2.1 16.1l-15.9 1.7zM85.3 434.8L69.6 432c1-5.3 2-10.6 3.2-15.9l15.6 3.4c-1.1 5-2.1 10.2-3.1 15.3z m851.6-1.3c-0.9-5.1-2-10.2-3.1-15.3l15.6-3.5c1.2 5.2 2.2 10.6 3.2 15.9l-15.7 2.9zM92 404.3l-15.5-4c1.3-5.2 2.8-10.5 4.3-15.6l15.3 4.5c-1.4 5-2.8 10-4.1 15.1z m838.2-1.3c-1.3-5-2.7-10.1-4.2-15l15.3-4.6c1.5 5.2 3 10.4 4.4 15.6l-15.5 4z m-829.4-28.7l-15.2-5.1c1.7-5.1 3.5-10.3 5.4-15.3l15 5.6c-1.7 4.9-3.5 9.9-5.2 14.8z m820.4-1.2c-1.7-4.9-3.4-9.9-5.3-14.7l15-5.7c1.9 5 3.8 10.2 5.5 15.2l-15.2 5.2zM111.9 345l-14.8-6.2c2.1-5 4.3-10 6.5-14.9l14.5 6.7c-2.1 4.8-4.2 9.6-6.2 14.4z m798.2-1.1c-2-4.8-4.1-9.6-6.3-14.2l14.5-6.8c2.3 4.9 4.5 9.8 6.6 14.8l-14.8 6.2zM125 316.6l-14.3-7.2c2.4-4.8 5-9.6 7.6-14.3l14 7.8c-2.5 4.4-4.9 9-7.3 13.7z m772-0.9c-2.3-4.6-4.8-9.2-7.3-13.8l14-7.8c2.6 4.7 5.2 9.5 7.6 14.3l-14.3 7.3z m-756.8-26.5l-13.7-8.3c2.8-4.6 5.7-9.2 8.6-13.7l13.4 8.7c-2.8 4.4-5.6 8.8-8.3 13.3z m741.6-0.8c-2.7-4.4-5.5-8.9-8.3-13.2l13.4-8.8c2.9 4.5 5.8 9.1 8.6 13.7l-13.7 8.3zM157.3 263l-13.1-9.2c3.1-4.4 6.3-8.8 9.6-13.1l12.7 9.7c-3.1 4.1-6.2 8.3-9.2 12.6z m707.4-0.7c-3-4.2-6.1-8.4-9.2-12.6l12.7-9.7c3.3 4.3 6.5 8.7 9.6 13l-13.1 9.3z m-688.5-24.2L163.8 228c3.4-4.2 6.9-8.3 10.5-12.4l12 10.6c-3.4 3.9-6.8 7.9-10.1 11.9z m669.6-0.6c-3.3-4-6.7-8-10.1-11.9l12-10.6c3.6 4 7.1 8.2 10.5 12.3l-12.4 10.2z m-649-22.9l-11.6-11c3.7-3.9 7.5-7.8 11.3-11.6l11.2 11.4-10.9 11.2z m628.3-0.5c-3.6-3.8-7.2-7.5-11-11.1l11.2-11.4c3.8 3.8 7.7 7.7 11.4 11.5l-11.6 11z m-606-21.4l-10.8-11.8c4-3.6 8-7.2 12.1-10.7l10.4 12.2c-3.9 3.4-7.9 6.8-11.7 10.3z m583.7-0.5c-3.8-3.5-7.8-7-11.7-10.3l10.4-12.2c4.1 3.5 8.2 7.1 12.2 10.7l-10.9 11.8z m-559.9-19.7L233 160c4.2-3.3 8.5-6.6 12.9-9.8l9.5 12.9c-4.3 3-8.4 6.2-12.5 9.4zM779 172c-4.1-3.2-8.3-6.4-12.5-9.5l9.4-12.9c4.3 3.2 8.7 6.5 12.9 9.8L779 172z m-510.9-18l-9-13.2c4.4-3 9-6 13.5-8.9l8.5 13.5c-4.4 2.8-8.8 5.7-13 8.6z m485.6-0.5c-4.3-2.9-8.7-5.8-13.1-8.5l8.5-13.6c4.6 2.9 9.1 5.8 13.6 8.9l-9 13.2z m-459.2-16.1l-8-13.8c4.6-2.7 9.4-5.3 14.1-7.9l7.5 14.1c-4.6 2.5-9.2 5-13.6 7.6z m432.7-0.5c-4.5-2.6-9.1-5.1-13.7-7.6l7.5-14.1c4.8 2.5 9.5 5.2 14.2 7.9l-8 13.8zM322 122.7l-7-14.4c4.8-2.4 9.8-4.6 14.7-6.8l6.5 14.6c-4.8 2.2-9.6 4.4-14.2 6.6z m377.6-0.4c-4.7-2.3-9.5-4.5-14.2-6.6l6.4-14.6c4.9 2.2 9.9 4.5 14.7 6.8l-6.9 14.4z m-349.1-12.2l-5.9-14.9c5-2 10.1-3.9 15.2-5.7l5.4 15.1c-5 1.7-9.9 3.6-14.7 5.5z m320.4-0.4c-4.8-1.9-9.8-3.8-14.7-5.5l5.4-15.1c5.1 1.8 10.2 3.7 15.2 5.7l-5.9 14.9z m-291-10.1L375 84.3c5.1-1.6 10.3-3.2 15.5-4.6l4.3 15.4c-4.9 1.4-10 2.9-14.9 4.5z m261.5-0.4c-5-1.6-10-3-15-4.4l4.2-15.4c5.2 1.4 10.4 3 15.5 4.6l-4.7 15.2z m-231.4-8l-3.7-15.6c5.2-1.3 10.5-2.4 15.8-3.5l3.2 15.7c-5.2 1.1-10.3 2.2-15.3 3.4z m201.3-0.3c-5-1.2-10.2-2.3-15.3-3.3l3.1-15.7c5.3 1 10.6 2.2 15.8 3.4l-3.6 15.6zM440.6 85L438 69.2c5.3-0.9 10.7-1.7 16-2.3l2 15.9c-5.1 0.6-10.3 1.4-15.4 2.2z m140-0.2c-5.1-0.8-10.3-1.6-15.5-2.2l2-15.9c5.3 0.7 10.7 1.4 16 2.3l-2.5 15.8z m-109-3.7l-1.4-15.9c5.4-0.5 10.8-0.9 16.2-1.2l0.9 16c-5.3 0.2-10.6 0.6-15.7 1.1z m78-0.1c-5.2-0.5-10.4-0.8-15.6-1.1l0.8-16c5.4 0.3 10.8 0.7 16.2 1.1l-1.4 16z m-46.8-1.6l-0.3-16c2.9-0.1 5.9-0.1 8.8-0.1 2.5 0 5 0 7.4 0.1l-0.3 16c-2.4 0-4.9-0.1-7.3-0.1-2.7 0-5.5 0-8.3 0.1z" fill="#0A0408" /><path d="M511.4 448.7v326.1L205.3 691V384.9" fill="#FFFFFF" /><path d="M519.4 785.3l-322.1-88.2V384.9h16v300l290.1 79.4V448.7h16z" fill="#0A0408" /><path d="M445.4 500.9V675l-174.1-36.3v-174" fill="#EBB866" /><path d="M511.2 448.7v326.1L817.3 691V384.9" fill="#55B7A8" /><path d="M503.2 785.3V448.7h16v315.6l290.1-79.4v-300h16v312.2z" fill="#0A0408" /><path d="M513.4 443.8L207.3 380l306.1-76.6L819.6 380z" fill="#FFFFFF" /><path d="M213.5 389.4l-42-8.7 41.6-10.4 0.7 2.9 3 0.6-1.3 6 1.5 6-2.9 0.7zM794.6 382l-15.3-3.8 3.9-15.5 15.3 3.8-3.9 15.5z m-562.3 0l-3.9-15.5 15.3-3.8 3.9 15.5-15.3 3.8z m30.6-7.7l-3.9-15.5 15.3-3.8 3.9 15.5-15.3 3.8z m501.1 0l-15.3-3.8 3.9-15.5 15.3 3.8-3.9 15.5z m-30.6-7.6l-15.3-3.8 3.9-15.5 15.3 3.8-3.9 15.5z m-439.9 0l-3.9-15.5 15.3-3.8 3.9 15.5-15.3 3.8z m409.3-7.7l-15.3-3.8 3.9-15.5 15.3 3.8-3.9 15.5z m-378.7 0l-3.9-15.5 15.3-3.8 3.9 15.5-15.3 3.8z m30.6-7.6l-3.9-15.5 15.3-3.8 3.9 15.5-15.3 3.8z m317.5 0l-15.3-3.8 3.9-15.5 15.3 3.8-3.9 15.5z m-30.6-7.7l-15.3-3.8 3.9-15.5 15.3 3.8-3.9 15.5z m-256.3 0l-3.9-15.5 15.3-3.8 3.9 15.5-15.3 3.8z m225.6-7.6l-15.3-3.8 3.9-15.5 15.3 3.8-3.9 15.5z m-195 0l-3.9-15.5 15.3-3.8 3.9 15.5-15.3 3.8z m30.6-7.7l-3.9-15.5 15.3-3.8 3.9 15.5-15.3 3.8z m133.8 0l-15.3-3.8 3.9-15.5 15.3 3.8-3.9 15.5z m-30.6-7.6l-15.3-3.8 3.9-15.5 15.3 3.8-3.9 15.5z m-72.6 0l-3.9-15.5 15.3-3.8 3.9 15.5-15.3 3.8z m30.6-7.7l-3.9-15.5 9.6-2.4 9.6 2.4-3.9 15.5-5.7-1.4-5.7 1.4zM813.4 389.4l-0.6-2.9-2.9-0.7 1.5-6-1.3-6 2.9-0.6 0.7-2.9 41.7 10.4z" fill="#0A0408" /><path d="M513.4 451.9l-9.3-1.9 3.3-15.7 6 1.3 6-1.3 3.3 15.7-9.3 1.9z m24.6-5.1l-3.3-15.7L550 428l3.3 15.7-15.3 3.1z m-49.1 0l-15.3-3.2 3.3-15.7 15.3 3.2-3.3 15.7z m79.7-6.4l-3.3-15.7 15.3-3.2 3.3 15.7-15.3 3.2z m-110.3 0l-15.3-3.2 3.3-15.7 15.3 3.2-3.3 15.7z m140.9-6.3l-3.3-15.7 15.3-3.2 3.3 15.7-15.3 3.2z m-171.5 0l-15.3-3.2 3.3-15.7 15.3 3.2-3.3 15.7z m202.1-6.4l-3.3-15.7 15.3-3.2 3.3 15.7-15.3 3.2z m-232.7 0l-15.3-3.2 3.3-15.7 15.3 3.2-3.3 15.7z m263.3-6.4l-3.3-15.7 15.3-3.2 3.3 15.7-15.3 3.2z m-293.9 0l-15.3-3.2 3.3-15.7 15.3 3.2-3.3 15.7z m324.5-6.4l-3.3-15.7L703 396l3.3 15.7-15.3 3.2z m-355.1 0l-15.3-3.2 3.3-15.7 15.3 3.2-3.3 15.7z m385.7-6.3l-3.3-15.7 15.3-3.2 3.3 15.7-15.3 3.2z m-416.3 0l-15.3-3.2 3.3-15.7 15.3 3.2-3.3 15.7z m446.9-6.4l-3.3-15.7 15.3-3.2 3.3 15.7-15.3 3.2z m-477.5 0l-15.3-3.2 3.3-15.7 15.3 3.2-3.3 15.7z m508.1-6.4l-3.3-15.7 15.3-3.2 3.3 15.7-15.3 3.2z m-538.7 0l-15.3-3.2 3.3-15.7 15.3 3.2-3.3 15.7z" fill="#0A0408" /><path d="M178.2 358.9h48v48h-48z" fill="#FFFFFF" /><path d="M234.2 414.9h-64v-64h64v64z m-48-16h32v-32h-32v32z" fill="#0A0408" /><path d="M798.3 358.9h48v48h-48z" fill="#FFFFFF" /><path d="M854.3 414.9h-64v-64h64v64z m-48-16h32v-32h-32v32z" fill="#0A0408" /><path d="M489.4 750.8h48v48h-48z" fill="#FFFFFF" /><path d="M545.4 806.8h-64v-64h64v64z m-48-16h32v-32h-32v32z" fill="#0A0408" /><path d="M181.3 667h48v48h-48z" fill="#FFFFFF" /><path d="M237.3 723h-64v-64h64v64z m-48-16h32v-32h-32v32z" fill="#0A0408" /><path d="M798.3 667h48v48h-48z" fill="#FFFFFF" /><path d="M854.3 723h-64v-64h64v64z m-48-16h32v-32h-32v32z" fill="#0A0408" /><path d="M489.4 279.4h48v48h-48z" fill="#FFFFFF" /><path d="M545.4 335.4h-64v-64h64v64z m-48-16h32v-32h-32v32z" fill="#0A0408" /><path d="M488 418.3h50.9v50.9H488z" fill="#DC444A" /><path d="M546.9 477.2H480v-66.9h66.9v66.9z m-50.9-16h34.9v-34.9H496v34.9z" fill="#0A0408" /></svg>