<?xml version="1.0" standalone="no"?><!DOCTYPE svg PUBLIC "-//W3C//DTD SVG 1.1//EN" "http://www.w3.org/Graphics/SVG/1.1/DTD/svg11.dtd"><svg class="icon" width="200px" height="200.00px" viewBox="0 0 1024 1024" version="1.1" xmlns="http://www.w3.org/2000/svg"><path d="M287.403798 183.554432a124.492312 124.492312 0 0 0-95.870977 45.136335L530.02035 951.711884h14.905487l270.818014-739.676075a124.00246 124.00246 0 0 0-79.146039-28.481377z" fill="#FFAF3B" /><path d="M191.532821 228.690767A127.081528 127.081528 0 0 0 162.07174 310.216087v514.904121A125.961867 125.961867 0 0 0 287.403798 951.711884H316.025133V495.310053zM379.355961 629.949293v321.83257h150.664389L379.355961 629.949293z" fill="#FF761A" /><path d="M379.355961 183.554432h-63.050912v311.755621l63.050912 134.63924V183.554432z" fill="#FF9E1D" /><path d="M316.305049 495.310053v456.47181h63.050912V629.949293l-63.050912-134.63924z" fill="#FF5A08" /><path d="M815.743851 212.035809L662.910119 629.809335v321.902549H736.597812a125.961867 125.961867 0 0 0 125.262078-126.591676V310.216087a126.801613 126.801613 0 0 0-46.116039-98.180278zM544.925837 951.781863h54.93337v-150.034579l-54.93337 150.034579z" fill="#FFC73B" /><path d="M662.910119 183.554432h-63.050912v618.192852l63.050912-172.147885V183.554432z" fill="#FF9E1D" /><path d="M599.859207 801.747284v150.034579h63.050912V629.599399l-63.050912 172.147885z" fill="#FFB206" /><path d="M347.795515 5.668284h72.07818v177.886148h-72.07818z" fill="#2B3747" /><path d="M396.150877 5.668284h23.722818v177.886148h-23.722818z" fill="#1D2B3A" /><path d="M600.908889 5.668284h72.07818v177.886148h-72.07818z" fill="#2B3747" /><path d="M649.26425 5.668284h23.722819v177.886148h-23.722819z" fill="#1D2B3A" /><path d="M730.649612 183.554432H648.354526c72.498052 0 131.210278 53.813709 131.210278 120.153625v527.920181c0 66.339917-58.712226 120.153625-131.210278 120.153625h82.295086c72.498052 0 131.280257-53.813709 131.280257-120.153625V303.708057c-0.069979-66.339917-58.782205-120.153625-131.280257-120.153625z" fill="#EF8B06" /><path d="M389.782804 41.147543v4.618602a13.995763 13.995763 0 0 0 13.995763 13.995763h189.852525a13.995763 13.995763 0 0 0 13.995763-13.995763v-4.618602z" fill="#FF761A" /><path d="M607.486898 13.995763a13.995763 13.995763 0 0 0-13.995763-13.995763H403.63861a13.995763 13.995763 0 0 0-13.995763 13.995763v27.15178h217.844051z" fill="#FF5A08" /><path d="M292.792167 969.69644a54.30356 53.74373 90 1 0 107.48746 0 54.30356 53.74373 90 1 0-107.48746 0Z" fill="#2B3747" /><path d="M346.535897 915.392879a55.213285 55.213285 0 0 0-9.727056 0.909725 54.373539 54.373539 0 0 1 0 106.787671 55.213285 55.213285 0 0 0 9.727056 0.909725 54.30356 54.30356 0 0 0 0-108.607121z" fill="#1D2B3A" /><path d="M587.332999 969.69644a54.30356 53.74373 90 1 0 107.48746 0 54.30356 53.74373 90 1 0-107.48746 0Z" fill="#2B3747" /><path d="M641.076729 915.392879a55.073327 55.073327 0 0 0-9.657076 0.909725 54.373539 54.373539 0 0 1 0 106.787671 55.073327 55.073327 0 0 0 9.657076 0.909725 54.30356 54.30356 0 0 0 0-108.607121z" fill="#1D2B3A" /></svg>