<?xml version="1.0" standalone="no"?><!DOCTYPE svg PUBLIC "-//W3C//DTD SVG 1.1//EN" "http://www.w3.org/Graphics/SVG/1.1/DTD/svg11.dtd"><svg class="icon" width="200px" height="200.00px" viewBox="0 0 1024 1024" version="1.1" xmlns="http://www.w3.org/2000/svg"><path d="M88.917218 106.064551m82.970966 0l597.529237 0q82.970966 0 82.970965 82.970966l0 751.924375q0 82.970966-82.970965 82.970966l-597.529237 0q-82.970966 0-82.970966-82.970966l0-751.924375q0-82.970966 82.970966-82.970966Z" fill="#005691" /><path d="M169.675625 187.44524m48.12316 0l505.708035 0q48.12316 0 48.12316 48.12316l0 658.927751q0 48.12316-48.12316 48.12316l-505.708035 0q-48.12316 0-48.12316-48.12316l0-658.927751q0-48.12316 48.12316-48.12316Z" fill="#E2E5E7" /><path d="M638.392438 73.360162H547.608373a73.360162 73.360162 0 0 0-146.720324 0H302.774882a29.454693 29.454693 0 0 0-29.316408 29.316408V235.084402a29.454693 29.454693 0 0 0 29.316408 29.316408h335.617556A29.38555 29.38555 0 0 0 667.639703 235.084402V102.67657a29.38555 29.38555 0 0 0-29.247265-29.316408z" fill="#FFB236" /><path d="M466.919109 1.175422A78.684132 78.684132 0 0 1 479.779608 0a73.360162 73.360162 0 0 1 73.360162 73.360162h-25.790141A73.360162 73.360162 0 0 0 466.919109 1.175422zM647.450101 235.084402V102.67657c0-16.110196 1.451992-29.316408-14.658204-29.316408h11.131938a29.454693 29.454693 0 0 1 29.316408 29.316408V235.084402a29.454693 29.454693 0 0 1-29.316408 29.316408h-11.131938c16.179338 0 14.658204-13.206212 14.658204-29.316408z" fill="#E28805" /><path d="M474.248211 73.360162m-25.790142 0a25.790142 25.790142 0 1 0 51.580283 0 25.790142 25.790142 0 1 0-51.580283 0Z" fill="#005691" /><path d="M492.570966 81.449831a25.651857 25.651857 0 0 1-31.252397 13.828494c0.82971 0.483997 1.590277 0.967995 2.489129 1.38285a25.790142 25.790142 0 1 0 20.742741-47.155166 20.742741 20.742741 0 0 0-2.696556-0.898852 25.651857 25.651857 0 0 1 10.717083 32.842674z" fill="#004870" /><path d="M348.408913 163.314517m20.258744 0l200.167454 0q20.258744 0 20.258745 20.258744l0 2.419987q0 20.258744-20.258745 20.258744l-200.167454 0q-20.258744 0-20.258744-20.258744l0-2.419987q0-20.258744 20.258744-20.258744Z" fill="#E2E5E7" /><path d="M259.699122 387.474409m21.019311 0l252.715733 0q21.019311 0 21.019311 21.019311l0 2.489129q0 21.019311-21.019311 21.019312l-252.715733 0q-21.019311 0-21.019311-21.019312l0-2.489129q0-21.019311 21.019311-21.019311Z" fill="#586A73" /><path d="M259.699122 485.864146m21.019311 0l252.715733 0q21.019311 0 21.019311 21.019311l0 2.489129q0 21.019311-21.019311 21.019311l-252.715733 0q-21.019311 0-21.019311-21.019311l0-2.489129q0-21.019311 21.019311-21.019311Z" fill="#586A73" /><path d="M259.699122 584.323025m21.019311 0l125.770156 0q21.019311 0 21.019311 21.019311l0 2.489129q0 21.019311-21.019311 21.019312l-125.770156 0q-21.019311 0-21.019311-21.019312l0-2.489129q0-21.019311 21.019311-21.019311Z" fill="#586A73" /><path d="M461.318569 895.533288l310.311411-124.456448v110.143957z" fill="#C6CBCB" opacity=".7" /><path d="M841.947873 509.303444l-308.098852 298.833761 27.034706 31.183254 320.61364-288.669818z" fill="#EB8923" /><path d="M533.849021 808.137205l-29.316408-21.503309 316.465091-324.001621 20.742742 46.671169z" fill="#ED9E43" /><path d="M560.883727 839.320459l12.653072 33.050101 361.545983-304.226873-53.585415-17.285618z" fill="#D27228" /><path d="M820.997704 462.632275l20.742742 46.671169 39.549493 41.485482 53.585415 17.285618-16.24848-46.394598-43.490615-44.596894z m-316.465091 324.001621s62.228224 25.375287 69.142471 85.736664c0 0-103.713707 36.023228-112.218231 23.162728s43.07576-108.899392 43.07576-108.899392z" fill="#F2B643" /><path d="M461.318569 895.533288c3.802836 5.669683 25.997569 1.866847 49.644294-4.21769l-37.267792-41.485483c-9.126806 20.950169-15.833626 40.448346-12.376502 45.703173z" fill="#EB8923" /><path d="M851.282107 509.303444l-7.398245-33.948954 14.934774-2.903984-37.820932-9.818231 20.742742 46.671169 39.549493 41.485482z" fill="#D89932" /><path d="M462.286563 896.639568l1.037137 0.55314-0.967994-0.55314z m44.320324-4.217691c31.183255-7.674814 66.791627-20.051317 66.791628-20.051317a91.890344 91.890344 0 0 0-10.647941-33.603241l-65.270493 37.613505 13.206212 14.934774z" fill="#D89932" opacity=".4" /><path d="M472.588791 898.298987H479.019041l2.903984-0.414855h0.622282l3.664551-0.553139 3.249696-0.622283H489.943552l3.526266-0.691424h0.622282l7.951384-1.797705h0.622282l3.871979-0.898852 4.217691-1.106279-13.344497-14.934774-35.124376 19.359892 0.967995 0.55314 1.451992 0.414854h7.052532z" fill="#D27228" /></svg>