<?xml version="1.0" standalone="no"?><!DOCTYPE svg PUBLIC "-//W3C//DTD SVG 1.1//EN" "http://www.w3.org/Graphics/SVG/1.1/DTD/svg11.dtd"><svg class="icon" width="200px" height="182.86px" viewBox="0 0 1120 1024" version="1.1" xmlns="http://www.w3.org/2000/svg"><path d="M907.736266 602.111768l-7.87692-3.071998a211.731611 211.731611 0 0 1-234.574679 0l-7.87692 3.071998a344.615252 344.615252 0 0 0-212.676841 321.142031v70.183357a29.853527 29.853527 0 0 0 30.011065 30.56245h616.290225a29.853527 29.853527 0 0 0 29.459681-30.168604v-70.183357a344.615252 344.615252 0 0 0-212.755611-321.535877z" fill="#289FF7" /><path d="M738.146178 634.48591a209.289766 209.289766 0 0 0 22.370453-1.339077 210.628842 210.628842 0 0 1-94.523041-34.107063l-7.87692 3.071998c-6.143998 2.520614-12.130457 5.198767-18.038147 7.87692a210.943919 210.943919 0 0 0 98.067655 24.497222zM907.736266 602.111768l-7.87692-3.071998a219.372223 219.372223 0 0 1-19.062146 11.185226 344.77279 344.77279 0 0 1 194.638694 313.028803v70.183357a29.853527 29.853527 0 0 1-29.459681 30.168604h44.740906a29.853527 29.853527 0 0 0 29.459681-30.168604v-70.183357a344.615252 344.615252 0 0 0-212.440534-321.142031z" fill="#0784D1" opacity=".67" /><path d="M778.239701 641.968984L724.676644 896.157194l51.042442 84.440583 49.467058-82.78643L778.239701 641.968984z" fill="#FCFCFC" /><path d="M897.023655 341.85833l-122.092261-60.494746S662.764053 385.26016 574.306241 387.465697a206.217767 206.217767 0 0 0 77.036278 161.55563l6.616613 5.277537a211.495303 211.495303 0 0 0 190.857772 22.212914c20.952607-33.791987 41.117523-84.283045 51.436288-159.428861a211.337765 211.337765 0 0 0-3.229537-75.224587z" fill="#FFDDCC" /><path d="M897.023655 341.85833c-15.75384-69.474435-64.275668-122.801184-111.773495-159.743939h-10.318766c-110.276881 0-200.625154 92.159965-200.625153 205.587614 88.457812-2.205538 200.625154-106.102113 200.625153-106.102113zM783.674776 639.842215l-5.435075 2.126769s1.96923-0.630154 5.435075-2.126769z" fill="#2B3747" /><path d="M892.061195 554.377633l6.537844-5.356306a206.375305 206.375305 0 0 0 77.036278-161.55563v-6.695382l-78.7692-38.911985a211.337765 211.337765 0 0 1 2.993229 75.382125c-10.318765 75.145817-30.483681 126.030721-51.436288 159.428862a210.707611 210.707611 0 0 0 43.638137-22.212915z" fill="#FFCBBB" /><path d="M897.023655 341.85833l78.7692 38.911985c-3.387076-106.811036-86.646121-193.220849-190.227619-198.655924 47.182751 36.942755 96.019655 90.269504 111.458419 159.743939z" fill="#1D2B3A" /><path d="M572.494549 569.895165a270.572204 270.572204 0 0 1 162.185784-450.874903 435.514909 435.514909 0 1 0-353.043557 748.78002 409.599842 409.599842 0 0 1 190.857773-297.905117z" fill="#FF9C39" /><path d="M411.017688 197.631924h-54.035671v209.526073L233.629449 533.740102l39.935984 30.168604 137.452255-141.075638V197.631924z" fill="#FFFFFF" /></svg>