<?xml version="1.0" standalone="no"?><!DOCTYPE svg PUBLIC "-//W3C//DTD SVG 1.1//EN" "http://www.w3.org/Graphics/SVG/1.1/DTD/svg11.dtd"><svg class="icon" width="200px" height="200.00px" viewBox="0 0 1024 1024" version="1.1" xmlns="http://www.w3.org/2000/svg"><path d="M555.412811 270.709353l-417.158674 68.643646v633.68321a51.03537 51.03537 0 0 0 51.03537 50.963791H921.607695a51.03537 51.03537 0 0 0 51.035369-50.963791V339.352999z" fill="#E6E9ED" /><path d="M138.254137 339.352999v636.188452h606.483433a194.120509 194.120509 0 0 0 182.811128-128.841046A1479.381518 1479.381518 0 0 0 972.428329 690.945897V339.352999l-416.943939-68.643646z" fill="#CCD1D9" /><path d="M555.412811 270.709353l-417.158674 68.643646s-7.515728 275.218789-100.209702 517.797847a51.965888 51.965888 0 0 0 48.673283 70.361526h658.019852A145.876695 145.876695 0 0 0 882.311176 830.308961C965.628385 594.959318 972.428329 339.352999 972.428329 339.352999z" fill="#E6E9ED" /><path d="M138.254137 168.996505H972.428329v170.356494H138.254137z" fill="#FF7A7A" /><path d="M138.254137 267.559905a150.314553 150.314553 0 0 0 17.679854 9.5915 178.945897 178.945897 0 0 0 148.167203 0 83.174053 83.174053 0 0 1 68.786803 0 178.945897 178.945897 0 0 0 148.167202 0 83.174053 83.174053 0 0 1 68.786803 0 178.945897 178.945897 0 0 0 148.167203 0 82.673004 82.673004 0 0 1 34.357612-7.157836 83.889836 83.889836 0 0 1 34.42919 7.157836 178.945897 178.945897 0 0 0 148.167203 0 134.996785 134.996785 0 0 0 17.465119-9.5915V168.996505H138.254137z" fill="#D83A5C" /><path d="M920.891911 80.811967H190.00529a68.428911 68.428911 0 0 0-68.428911 68.428911 92.407661 92.407661 0 0 0 54.184818 84.17615 131.059975 131.059975 0 0 0 108.512792 0 131.489445 131.489445 0 0 1 108.441213 0 131.059975 131.059975 0 0 0 108.512792 0 131.489445 131.489445 0 0 1 108.441213 0 131.059975 131.059975 0 0 0 108.512792 0 131.489445 131.489445 0 0 1 108.441214 0 131.059975 131.059975 0 0 0 108.512791 0 92.407661 92.407661 0 0 0 54.184818-84.17615 68.428911 68.428911 0 0 0-68.428911-68.428911z" fill="#E6E9ED" /><path d="M372.601683 0m37.793374 0l3.149447 0q37.793373 0 37.793374 37.793373l0 87.397176q0 37.793373-37.793374 37.793374l-3.149447 0q-37.793373 0-37.793374-37.793374l0-87.397176q0-37.793373 37.793374-37.793373Z" fill="#434A53" /><path d="M665.929797 0m37.793374 0l3.149447 0q37.793373 0 37.793374 37.793373l0 87.397176q0 37.793373-37.793374 37.793374l-3.149447 0q-37.793373 0-37.793374-37.793374l0-87.397176q0-37.793373 37.793374-37.793373Z" fill="#434A53" /><path d="M409.464538 445.432126a676.41549 676.41549 0 0 1-20.113519 120.609535v261.332588c-6.656787 13.385153-13.385153 13.385153-20.04194 0V609.561303A176.369076 176.369076 0 0 1 342.538773 653.152523c-11.166224 4.437858-16.749336 1.145254-16.749336-10.092548a429.470152 429.470152 0 0 0 63.633161-197.627849q10.02097-16.749336 20.04194 0z m66.997344 3.364183h50.104851q40.155459 0 36.791276 36.791277v57.262687q3.364183 40.298616-36.791276 36.862854h-70.146792v60.340557H557.273849c8.875716 6.656787 8.875716 13.385153 0 20.04194H457.064147v60.340557h100.209702c11.166224 6.728366 11.166224 13.385153 0 20.113518H457.064147v87.110863q-10.092549 16.606179-20.113519 0V492.315951q-0.644205-43.448064 39.511254-43.519642z m46.955403 20.041941h-46.955403c-13.385153 0-20.04194 7.873619-20.041941 23.477701v66.997344h66.997344q23.406123 3.435761 20.113519-20.113519v-50.104851q3.364183-20.185097-20.113519-20.256675z m46.883825 144.087236h97.131833q46.955403 0 36.862855 36.862855a214.162449 214.162449 0 0 1-50.104852 103.860198 528.105131 528.105131 0 0 0 73.72571 60.268978q6.656787 20.185097-13.385153 16.749336a502.122186 502.122186 0 0 1-77.089892-63.633161 335.344611 335.344611 0 0 1-100.209703 60.340557c-13.385153 0-16.749336-5.65469-10.02097-16.749336q66.925765-30.206067 97.131833-60.340557a250.524256 250.524256 0 0 1-43.591221-117.245351h-10.02097c-11.595694-6.728366-11.595694-13.385153-0.42947-20.113519z m16.749336-164.129177h83.74668c26.841885 0 39.081784 11.166224 36.862854 33.498672v60.268978q3.292605 36.934433-40.227037 33.498672H587.050446q-13.385153-10.02097 0-20.113519h77.089892q26.698728 3.435761 23.406124-16.749336v-53.61219c2.218929-11.094646-4.437858-16.749336-20.113519-16.749336H587.050446c-13.385153-6.656787-13.385153-13.385153 0-20.041941zM600.220864 633.039005q10.092549 63.704739 40.227038 103.860198 36.791276-50.104851 43.519642-90.475045c2.218929-8.947295-3.292605-13.385153-16.749336-13.385153z" fill="#11CE78" /><path d="M380.475303 844.624633c-9.806235 0-15.24619-10.665175-17.03565-14.315672l-0.787362-1.574724V639.409479a200.419404 200.419404 0 0 1-13.886201 18.467216l-1.216832 1.503146-1.789459 0.644205a21.473508 21.473508 0 0 1-20.185097 0 18.75353 18.75353 0 0 1-7.157836-16.892493v-2.075772l1.073675-1.789459a418.66182 418.66182 0 0 0 63.776318-194.263666v-1.789459l0.930518-1.574724c9.734657-15.890396 23.764015-15.890396 33.498672 0l1.216832 2.004194v2.290508a676.057598 676.057598 0 0 1-20.47141 121.110583v262.11995l-0.787362 1.574723c-1.932616 3.435761-7.372571 13.886202-17.178806 13.886202z m-2.6484-19.326157a19.61247 19.61247 0 0 0 2.6484 3.865232 23.406123 23.406123 0 0 0 2.648399-3.865232V564.610094a672.263945 672.263945 0 0 0 20.328254-117.245352 10.164127 10.164127 0 0 0-2.719978-2.791556s-1.002097 1.002097-2.576821 3.221026a433.263805 433.263805 0 0 1-64.420523 197.198379 6.227317 6.227317 0 0 0 0.715784 2.719977 16.677758 16.677758 0 0 0 4.151545-0.85894 169.712289 169.712289 0 0 0 24.83769-40.227038l14.315672-33.427093z m70.862576 17.679855a20.614567 20.614567 0 0 1-16.749336-12.025164l-1.073676-1.717881V492.315951c0-32.926045 17.250384-51.03537 48.530127-51.035369h51.250105c16.319866 0 28.631343 4.223123 35.78918 12.454634a40.227038 40.227038 0 0 1 8.947294 32.568153v56.26059a41.515448 41.515448 0 0 1-9.949391 34.643926c-7.873619 7.730463-19.898784 10.951489-35.78918 9.663078h-63.060534v45.38068h95.771844a14.315672 14.315672 0 0 1-3.507339-9.519922 20.04194 20.04194 0 0 1 12.239899-16.463023l1.789459-1.073675H673.946573c20.256676 0 33.641829 4.652593 41.085978 14.315672a34.930239 34.930239 0 0 1 3.793653 32.138683 218.886621 218.886621 0 0 1-48.243813 101.426534 548.576541 548.576541 0 0 0 69.144694 54.685866l2.075773 1.431567 0.787361 2.362086c1.216832 3.50734 4.79575 14.315672-1.574723 21.473508a21.473508 21.473508 0 0 1-20.542989 4.867328h-1.574724l-1.359989-0.930518A523.953586 523.953586 0 0 1 643.167879 777.126241a350.089753 350.089753 0 0 1-99.279183 57.262687l-1.288411 0.501048h-1.359989c-3.722075 0-14.81672 0-19.469313-8.088354a19.111422 19.111422 0 0 1 2.719977-19.970362l1.216833-2.004194 2.14735-0.930519c41.229135-18.252481 72.222564-36.576541 92.192926-54.542709A255.320006 255.320006 0 0 1 578.747356 640.483154h-5.941003a16.248287 16.248287 0 0 1 3.221026 9.519922A20.328254 20.328254 0 0 1 565.863252 665.678736l-2.004194 1.503146H466.584068v45.380679h96.84552l1.789459 1.073676a20.185097 20.185097 0 0 1 12.239899 16.463022c0 6.155739-4.151545 11.667272-12.239899 16.463023l-1.789459 1.073675H466.584068v81.742486l-1.145254 1.71788a20.542989 20.542989 0 0 1-16.749335 12.096743z m-2.6484-18.037747a13.456731 13.456731 0 0 0 2.863135 3.07787s1.002097-1.002097 2.433664-3.07787v-92.336082h107.797008a12.239899 12.239899 0 0 0 3.077869-2.791556s-1.002097-1.002097-3.077869-2.433665H451.337878V652.365161h107.367538c1.646302-1.431567 2.004194-2.362086 2.004194-2.57682s0-1.145254-2.004194-2.576821h-107.367538V571.982665h79.308821c11.810429 0.930519 19.898784-0.85894 24.479799-5.368377a28.631343 28.631343 0 0 0 5.439955-23.406124v-57.262687a27.557668 27.557668 0 0 0-4.938907-21.473507 33.498672 33.498672 0 0 0-24.980847-7.515728h-51.250105c-23.048232 0-33.355515 11.094646-33.355515 35.78918z m278.439816-1.574724a10.879911 10.879911 0 0 0 5.082063 0 19.61247 19.61247 0 0 0-0.715783-4.79575A551.582832 551.582832 0 0 1 654.90673 758.730603l-4.938907-4.938907 4.581015-5.22522a207.57724 207.57724 0 0 0 49.460646-100.209703c2.505243-9.305187 2.147351-15.747239-1.073675-19.827205-4.223123-5.439955-14.315672-8.30309-28.631344-8.30309H577.172632a10.951489 10.951489 0 0 0-3.077869 2.791556s1.002097 1.002097 3.077869 2.433665h14.888299l0.715784 6.656787a240.503285 240.503285 0 0 0 42.947015 113.80959l3.578918 5.153642-4.509437 4.36628c-20.686146 20.256676-53.898504 40.728086-98.921292 60.770027a11.452537 11.452537 0 0 0-1.073675 2.863134 16.892493 16.892493 0 0 0 4.581015 0.644205 336.418286 336.418286 0 0 0 98.778135-58.479519l5.368377-4.509437 4.938907 4.938907a516.938907 516.938907 0 0 0 76.016217 61.915281zM646.746797 749.425416l-6.155739-8.088355c-21.473508-27.629246-35.789179-63.704739-42.374388-107.367538l-1.431567-8.589403H673.946573a26.269258 26.269258 0 0 1 21.473508 7.157836 16.463023 16.463023 0 0 1 2.576821 15.103034c-4.581015 27.271355-19.970362 58.765833-45.595415 93.051866zM614.536536 640.483154a224.684468 224.684468 0 0 0 31.995526 83.460366c20.471411-28.631343 32.854467-55.473228 36.862855-78.736194a6.513631 6.513631 0 0 0 0-2.863135s-1.646302-1.861037-9.877814-1.861037z m66.209982-56.69006H589.48411l-2.004194-1.431567a17.966168 17.966168 0 0 1 0-32.067105l2.004194-1.503146H671.799223c10.879911 1.359989 14.315672-0.85894 14.673563-1.574724s1.073675-4.724172 0.715784-6.585209v-56.260589a6.370474 6.370474 0 0 0-0.42947-4.938907c-0.572627-0.715784-3.149448-2.863134-12.597791-2.863135H590.271472l-1.646302-0.787362c-3.578918-1.789459-14.315672-7.157836-14.315672-16.749335s10.808332-14.959877 14.315672-16.749336l1.646302-0.787362h87.110863c16.964071 0 29.490284 4.223123 37.006011 12.383056a36.21865 36.21865 0 0 1 8.088355 29.347127v59.338459a36.504963 36.504963 0 0 1-9.090452 30.635538 44.736474 44.736474 0 0 1-32.496575 10.593597z m-85.894031-15.174612H673.946573c14.315672 1.073675 23.620858-0.930519 28.631344-5.941004a23.620858 23.620858 0 0 0 5.010485-19.469314v-60.913183a22.761918 22.761918 0 0 0-4.151545-18.610373c-4.581015-4.938907-13.241996-7.157836-25.768209-7.157836h-83.74668a19.183 19.183 0 0 0-3.936809 2.576821 19.183 19.183 0 0 0 3.936809 2.576821H673.946573a29.776597 29.776597 0 0 1 24.336642 8.374668 19.254578 19.254578 0 0 1 3.722075 16.534601v52.32378a20.972459 20.972459 0 0 1-4.867328 18.75353c-5.511534 5.583112-14.315672 7.157836-27.05662 6.08416H594.780909c-1.574724 1.431567-2.004194 2.362086-2.004194 2.576821s0.286313 0.85894 2.004194 2.290508z m-62.058437-1.431567a44.020691 44.020691 0 0 1-6.012582-0.429471H451.337878v-74.441493c0-19.61247 10.235705-30.921851 28.058716-30.921851h47.814344a29.919754 29.919754 0 0 1 23.54928 8.374668 23.54928 23.54928 0 0 1 4.509437 19.755627v49.174333a25.195582 25.195582 0 0 1-5.654691 22.547183 23.11981 23.11981 0 0 1-16.892492 5.941004z m-66.209982-15.317769H528.642505a14.315672 14.315672 0 0 0 10.593597-1.216832c1.574724-1.503146 2.004194-5.296799 1.288411-10.450441v-52.466937a10.879911 10.879911 0 0 0-1.359989-8.159933 16.749336 16.749336 0 0 0-11.953586-3.077869h-47.814344c-6.227317 0-12.812526 1.216832-12.812526 15.961974z" fill="#11CE78" /></svg>