<?xml version="1.0" standalone="no"?><!DOCTYPE svg PUBLIC "-//W3C//DTD SVG 1.1//EN" "http://www.w3.org/Graphics/SVG/1.1/DTD/svg11.dtd"><svg class="icon" width="200px" height="177.47px" viewBox="0 0 1154 1024" version="1.1" xmlns="http://www.w3.org/2000/svg"><path d="M0 0l746.638036 945.827741 66.369622-225.139338z" fill="#C6CBCB" /><path d="M521.902897 462.566354l-51.252546 133.547643L746.638036 945.827741l66.369622-225.139338z" fill="#D672AD" /><path d="M746.638036 945.827741l-68.713981-168.227994L0 0l602.096155 827.235494z" fill="#D1D5D5" /><path d="M677.924055 777.518907l-388.759454 246.481093L0 0z m135.083603-56.587984L0 0l1154.394884 571.296124z" fill="#E2E5E7" /><path d="M411.798847 472.267151l-132.739243 515.759059 10.104997 35.97379 389.163654-246.804453z m695.22381 75.504539L521.902897 462.566354l291.023921 258.687929 341.468066-149.958159z" fill="#EA8EBC" /><path d="M411.798847 472.267151l-132.739243 515.759059 152.221678-493.123865z m110.10405-9.700797l25.949633 23.120233 559.008447 62.085103z" fill="#D672AD" /><path d="M678.328255 777.195547l-77.121339 48.503987 59.013183 48.503987z" fill="#C6CBCB" /><path d="M28.698192 101.535012l23.201074-42.036788L0 0zM62.893503 55.779585l52.384305 1.293439L0 0z" fill="#EA8EBC" /></svg>