<?xml version="1.0" standalone="no"?><!DOCTYPE svg PUBLIC "-//W3C//DTD SVG 1.1//EN" "http://www.w3.org/Graphics/SVG/1.1/DTD/svg11.dtd"><svg class="icon" width="200px" height="199.42px" viewBox="0 0 1027 1024" version="1.1" xmlns="http://www.w3.org/2000/svg"><path d="M852.995973 895.203456h-4.423164c-2.249067 0-4.498133-2.249067-8.921297-2.249067l-408.730361-86.589062a55.77685 55.77685 0 0 1-33.286185-22.490666 45.356175 45.356175 0 0 1-6.672231-37.484442l122.199283-562.266637a54.577348 54.577348 0 0 1 51.05381-39.958416h4.423165c2.249067 0 4.498133 2.249067 8.921297 2.249066l408.730361 86.589063a50.229153 50.229153 0 0 1 39.958416 59.975108l-117.70115 559.792664c-11.095395 26.838861-31.411963 42.432389-55.551944 42.432389z m-415.402591-133.294678l422.074822 91.087195 119.950216-573.137125-422.074822-91.012227z" fill="#007FC6" /><path d="M544.199136 444.265612l13.344462-59.975108 333.236693 68.896406-13.644337 62.149205z m31.112087-113.277985l4.423165-31.112087 2.249066-6.672231 333.236694 73.31957-6.672231 37.484442z" fill="#007FC6" /><path d="M173.253093 788.597701a52.478219 52.478219 0 0 1-51.05381-40.033384L4.423164 188.846621a38.98382 38.98382 0 0 1 6.672231-37.484442 50.154184 50.154184 0 0 1 33.361154-22.490666L453.18691 44.456549a12.06999 12.06999 0 0 1 11.095395-4.498133 52.478219 52.478219 0 0 1 51.05381 37.484442l117.776119 562.266638c6.597262 26.688923-13.344462 55.551944-40.033385 62.224174l-408.730361 86.664031zM46.630646 173.253093l119.950216 573.137126 422.074823-91.087195-119.950216-570.88806z" fill="#007FC6" /><path d="M135.468775 424.24892l335.48576-71.070503L479.800864 397.33509h-2.249067l-333.161725 71.370379z m-22.490665-117.701149l335.410791-71.070503L457.310198 279.858848l-335.110915 71.145471z" fill="#007FC6" /><path d="M235.477268 797.44403a27.963394 27.963394 0 0 1-28.863021-28.863021V53.302877a27.963394 27.963394 0 0 1 28.863021-28.86302h553.120433A27.963394 27.963394 0 0 1 817.160846 53.302877v717.527198a27.963394 27.963394 0 0 1-28.86302 28.863021H235.477268z" fill="#66CCFF" /><path d="M235.477268 817.160846a51.653562 51.653562 0 0 1-51.12878-51.128779V51.053811A51.728531 51.728531 0 0 1 235.477268 0h553.120433a53.602753 53.602753 0 0 1 37.484443 15.518559A50.45406 50.45406 0 0 1 839.651512 51.053811v715.278131a51.653562 51.653562 0 0 1-51.053811 51.12878z m-4.423164-42.207482h566.389926V46.630646H231.054104z" fill="#1CA5F9" /><path d="M206.614247 148.813237h615.269639v33.361154H206.614247z m402.05813-48.879713A28.038363 28.038363 0 0 0 637.235522 128.871513a26.838861 26.838861 0 0 0 28.863021-28.937989 28.863021 28.863021 0 1 0-57.726041 0z" fill="#2EB9FF" /><path d="M635.286331 122.199283a20.991288 20.991288 0 0 1-22.490665-22.490666 22.490665 22.490665 0 0 1 44.38158 0 20.991288 20.991288 0 0 1-21.890915 22.490666z m55.551944-22.490666a28.863021 28.863021 0 1 0 57.726042 0 28.863021 28.863021 0 1 0-57.726042 0z" fill="#FFFFFF" /><path d="M719.701296 122.199283a20.991288 20.991288 0 0 1-22.490666-22.490666 22.490665 22.490665 0 1 1 44.38158 0 20.991288 20.991288 0 0 1-21.890914 22.490666z" fill="#FFFFFF" /><path d="M986.290651 635.286331H659.726188v75.568636H581.983454v51.053811h-122.199282v-51.053811h-68.821437V635.286331H39.958416v351.00432h946.332235z" fill="#FFB236" /><path d="M86.664031 1024A88.163409 88.163409 0 0 1 0 937.111062V682.216853a88.163409 88.163409 0 0 1 86.664031-86.888937h304.298704a133.369646 133.369646 0 0 0 266.514386 0H937.111062A88.163409 88.163409 0 0 1 1024 682.216853v254.894209A88.163409 88.163409 0 0 1 937.111062 1024z m0-382.341313a46.855553 46.855553 0 0 0-28.93799 11.39527A38.384069 38.384069 0 0 0 46.630646 682.216853v254.894209a46.630646 46.630646 0 0 0 11.095395 28.863021 38.459038 38.459038 0 0 0 28.93799 11.095395H937.111062a46.630646 46.630646 0 0 0 28.863021-11.095395 38.3091 38.3091 0 0 0 11.095395-28.863021V682.216853a46.780584 46.780584 0 0 0-11.095395-28.86302 38.3091 38.3091 0 0 0-28.863021-11.395271H693.087342l-2.249067 4.423164a180.899919 180.899919 0 0 1-168.829929 124.448349 178.800791 178.800791 0 0 1-168.829929-124.448349l-2.174098-4.423164z" fill="#FFA41F" /><path d="M330.462845 284.581887h360.37543v199.342266H330.462845z" fill="#FFFFFF" /><path d="M389.163482 333.536569h248.371916v33.960905H389.163482zM389.163482 403.782415h248.371916v33.960904H389.163482z" fill="#DCE0E2" /></svg>